%TF.GenerationSoftware,KiCad,Pcbnew,(6.0.1)*%
%TF.CreationDate,2022-02-19T00:35:01+08:00*%
%TF.ProjectId,PCB_DAP_Link_CH55xT,5043425f-4441-4505-9f4c-696e6b5f4348,0.9*%
%TF.SameCoordinates,Original*%
%TF.FileFunction,Soldermask,Top*%
%TF.FilePolarity,Negative*%
%FSLAX46Y46*%
G04 Gerber Fmt 4.6, Leading zero omitted, Abs format (unit mm)*
G04 Created by KiCad (PCBNEW (6.0.1)) date 2022-02-19 00:35:01*
%MOMM*%
%LPD*%
G01*
G04 APERTURE LIST*
G04 Aperture macros list*
%AMRoundRect*
0 Rectangle with rounded corners*
0 $1 Rounding radius*
0 $2 $3 $4 $5 $6 $7 $8 $9 X,Y pos of 4 corners*
0 Add a 4 corners polygon primitive as box body*
4,1,4,$2,$3,$4,$5,$6,$7,$8,$9,$2,$3,0*
0 Add four circle primitives for the rounded corners*
1,1,$1+$1,$2,$3*
1,1,$1+$1,$4,$5*
1,1,$1+$1,$6,$7*
1,1,$1+$1,$8,$9*
0 Add four rect primitives between the rounded corners*
20,1,$1+$1,$2,$3,$4,$5,0*
20,1,$1+$1,$4,$5,$6,$7,0*
20,1,$1+$1,$6,$7,$8,$9,0*
20,1,$1+$1,$8,$9,$2,$3,0*%
%AMFreePoly0*
4,1,22,0.550000,-0.750000,0.000000,-0.750000,0.000000,-0.745033,-0.079941,-0.743568,-0.215256,-0.701293,-0.333266,-0.622738,-0.424486,-0.514219,-0.481581,-0.384460,-0.499164,-0.250000,-0.500000,-0.250000,-0.500000,0.250000,-0.499164,0.250000,-0.499963,0.256109,-0.478152,0.396186,-0.417904,0.524511,-0.324060,0.630769,-0.204165,0.706417,-0.067858,0.745374,0.000000,0.744959,0.000000,0.750000,
0.550000,0.750000,0.550000,-0.750000,0.550000,-0.750000,$1*%
%AMFreePoly1*
4,1,20,0.000000,0.744959,0.073905,0.744508,0.209726,0.703889,0.328688,0.626782,0.421226,0.519385,0.479903,0.390333,0.500000,0.250000,0.500000,-0.250000,0.499851,-0.262216,0.476331,-0.402017,0.414519,-0.529596,0.319384,-0.634700,0.198574,-0.708877,0.061801,-0.746166,0.000000,-0.745033,0.000000,-0.750000,-0.550000,-0.750000,-0.550000,0.750000,0.000000,0.750000,0.000000,0.744959,
0.000000,0.744959,$1*%
G04 Aperture macros list end*
%ADD10C,0.150000*%
%ADD11RoundRect,0.135000X0.135000X0.185000X-0.135000X0.185000X-0.135000X-0.185000X0.135000X-0.185000X0*%
%ADD12RoundRect,0.225000X0.250000X-0.225000X0.250000X0.225000X-0.250000X0.225000X-0.250000X-0.225000X0*%
%ADD13RoundRect,0.250000X0.250000X0.475000X-0.250000X0.475000X-0.250000X-0.475000X0.250000X-0.475000X0*%
%ADD14C,0.600000*%
%ADD15R,1.160000X0.600000*%
%ADD16R,1.160000X0.300000*%
%ADD17O,1.700000X0.900000*%
%ADD18O,2.000000X0.900000*%
%ADD19RoundRect,0.225000X0.225000X0.250000X-0.225000X0.250000X-0.225000X-0.250000X0.225000X-0.250000X0*%
%ADD20RoundRect,0.150000X-0.512500X-0.150000X0.512500X-0.150000X0.512500X0.150000X-0.512500X0.150000X0*%
%ADD21R,1.000000X0.400000*%
%ADD22RoundRect,0.135000X-0.135000X-0.185000X0.135000X-0.185000X0.135000X0.185000X-0.135000X0.185000X0*%
%ADD23RoundRect,0.225000X-0.225000X-0.250000X0.225000X-0.250000X0.225000X0.250000X-0.225000X0.250000X0*%
%ADD24RoundRect,0.200000X0.200000X0.275000X-0.200000X0.275000X-0.200000X-0.275000X0.200000X-0.275000X0*%
%ADD25RoundRect,0.200000X0.200000X0.800000X-0.200000X0.800000X-0.200000X-0.800000X0.200000X-0.800000X0*%
%ADD26RoundRect,0.150000X-0.587500X-0.150000X0.587500X-0.150000X0.587500X0.150000X-0.587500X0.150000X0*%
%ADD27FreePoly0,90.000000*%
%ADD28R,1.500000X1.000000*%
%ADD29FreePoly1,90.000000*%
%ADD30RoundRect,0.410000X-1.340000X0.410000X-1.340000X-0.410000X1.340000X-0.410000X1.340000X0.410000X0*%
%ADD31RoundRect,0.218750X-0.218750X-0.256250X0.218750X-0.256250X0.218750X0.256250X-0.218750X0.256250X0*%
%ADD32R,0.800000X0.500000*%
%ADD33R,0.800000X0.400000*%
%ADD34FreePoly0,0.000000*%
%ADD35R,1.000000X1.500000*%
%ADD36FreePoly1,0.000000*%
%ADD37RoundRect,0.218750X0.218750X0.256250X-0.218750X0.256250X-0.218750X-0.256250X0.218750X-0.256250X0*%
G04 APERTURE END LIST*
D10*
X88788000Y-64573000D02*
X90312000Y-64573000D01*
X90312000Y-64573000D02*
X90312000Y-62287000D01*
X90312000Y-62287000D02*
X88788000Y-62287000D01*
X88788000Y-62287000D02*
X88788000Y-64573000D01*
G36*
X88788000Y-64573000D02*
G01*
X90312000Y-64573000D01*
X90312000Y-62287000D01*
X88788000Y-62287000D01*
X88788000Y-64573000D01*
G37*
D11*
%TO.C,R6*%
X110251000Y-61436600D03*
X109231000Y-61436600D03*
%TD*%
D12*
%TO.C,C5*%
X98440000Y-66455000D03*
X98440000Y-64905000D03*
%TD*%
D13*
%TO.C,C1*%
X95646000Y-71755000D03*
X93746000Y-71755000D03*
%TD*%
D14*
%TO.C,J1*%
X93600000Y-60540000D03*
X93600000Y-66320000D03*
D15*
X94660000Y-60230000D03*
X94660000Y-61030000D03*
D16*
X94660000Y-62180000D03*
X94660000Y-63180000D03*
X94660000Y-63680000D03*
X94660000Y-64680000D03*
D15*
X94660000Y-65830000D03*
X94660000Y-66630000D03*
X94660000Y-66630000D03*
X94660000Y-65830000D03*
D16*
X94660000Y-65180000D03*
X94660000Y-64180000D03*
X94660000Y-62680000D03*
X94660000Y-61680000D03*
D15*
X94660000Y-61030000D03*
X94660000Y-60230000D03*
D17*
X89910000Y-67750000D03*
D18*
X94080000Y-67750000D03*
X94080000Y-59110000D03*
D17*
X89910000Y-59110000D03*
%TD*%
D19*
%TO.C,C4*%
X103533000Y-68180000D03*
X101983000Y-68180000D03*
%TD*%
D20*
%TO.C,U1*%
X99512500Y-70480000D03*
X99512500Y-71430000D03*
X99512500Y-72380000D03*
X101787500Y-72380000D03*
X101787500Y-70480000D03*
%TD*%
D21*
%TO.C,U2*%
X106420000Y-66355000D03*
X106420000Y-65705000D03*
X106420000Y-65055000D03*
X106420000Y-64405000D03*
X106420000Y-63755000D03*
X106420000Y-63105000D03*
X106420000Y-62455000D03*
X106420000Y-61805000D03*
X106420000Y-61155000D03*
X106420000Y-60505000D03*
X100620000Y-60505000D03*
X100620000Y-61155000D03*
X100620000Y-61805000D03*
X100620000Y-62455000D03*
X100620000Y-63105000D03*
X100620000Y-63755000D03*
X100620000Y-64405000D03*
X100620000Y-65055000D03*
X100620000Y-65705000D03*
X100620000Y-66355000D03*
%TD*%
D22*
%TO.C,R2*%
X97422000Y-62180000D03*
X98442000Y-62180000D03*
%TD*%
D23*
%TO.C,C6*%
X105965000Y-58350000D03*
X107515000Y-58350000D03*
%TD*%
D24*
%TO.C,R3*%
X91690000Y-70415000D03*
X90040000Y-70415000D03*
%TD*%
D25*
%TO.C,SW1*%
X100000000Y-56430000D03*
X95800000Y-56430000D03*
%TD*%
D26*
%TO.C,Q1*%
X114520500Y-68265000D03*
X114520500Y-70165000D03*
X116395500Y-69215000D03*
%TD*%
D27*
%TO.C,JP2*%
X115629995Y-58634000D03*
D28*
X115629995Y-57334000D03*
D29*
X115629995Y-56034000D03*
%TD*%
D20*
%TO.C,U3*%
X109748500Y-57480000D03*
X109748500Y-58430000D03*
X109748500Y-59380000D03*
X112023500Y-59380000D03*
X112023500Y-58430000D03*
X112023500Y-57480000D03*
%TD*%
D23*
%TO.C,C3*%
X103650000Y-70430000D03*
X105200000Y-70430000D03*
%TD*%
D24*
%TO.C,R4*%
X91705000Y-56445000D03*
X90055000Y-56445000D03*
%TD*%
%TO.C,R9*%
X111375000Y-69850000D03*
X109725000Y-69850000D03*
%TD*%
%TO.C,R7*%
X104300000Y-57334000D03*
X102650000Y-57334000D03*
%TD*%
D30*
%TO.C,J2*%
X125110000Y-58350000D03*
X125110000Y-60890000D03*
X125110000Y-63430000D03*
X125110000Y-65970000D03*
X125110000Y-68510000D03*
%TD*%
D23*
%TO.C,C2*%
X103625000Y-72430000D03*
X105175000Y-72430000D03*
%TD*%
D20*
%TO.C,U4*%
X109748500Y-65730000D03*
X109748500Y-66680000D03*
X109748500Y-67630000D03*
X112023500Y-67630000D03*
X112023500Y-66680000D03*
X112023500Y-65730000D03*
%TD*%
D31*
%TO.C,D1*%
X102687500Y-55240000D03*
X104262500Y-55240000D03*
%TD*%
D11*
%TO.C,R5*%
X110253000Y-63023600D03*
X109233000Y-63023600D03*
%TD*%
D32*
%TO.C,RN1*%
X114730000Y-62230000D03*
D33*
X114730000Y-63030000D03*
X114730000Y-63830000D03*
D32*
X114730000Y-64630000D03*
X116530000Y-64630000D03*
D33*
X116530000Y-63830000D03*
X116530000Y-63030000D03*
D32*
X116530000Y-62230000D03*
%TD*%
D34*
%TO.C,JP1*%
X97648000Y-68430000D03*
D35*
X98948000Y-68430000D03*
D36*
X100248000Y-68430000D03*
%TD*%
D22*
%TO.C,R1*%
X97420000Y-63430000D03*
X98440000Y-63430000D03*
%TD*%
D24*
%TO.C,R8*%
X98503000Y-59180000D03*
X96853000Y-59180000D03*
%TD*%
D37*
%TO.C,F1*%
X95646000Y-69850000D03*
X94071000Y-69850000D03*
%TD*%
M02*
