%TF.GenerationSoftware,KiCad,Pcbnew,(6.0.1)*%
%TF.CreationDate,2022-02-25T23:47:12+08:00*%
%TF.ProjectId,PCB_DAP_Link_CH55xT,5043425f-4441-4505-9f4c-696e6b5f4348,1.0*%
%TF.SameCoordinates,Original*%
%TF.FileFunction,Copper,L2,Bot*%
%TF.FilePolarity,Positive*%
%FSLAX46Y46*%
G04 Gerber Fmt 4.6, Leading zero omitted, Abs format (unit mm)*
G04 Created by KiCad (PCBNEW (6.0.1)) date 2022-02-25 23:47:12*
%MOMM*%
%LPD*%
G01*
G04 APERTURE LIST*
G04 Aperture macros list*
%AMRoundRect*
0 Rectangle with rounded corners*
0 $1 Rounding radius*
0 $2 $3 $4 $5 $6 $7 $8 $9 X,Y pos of 4 corners*
0 Add a 4 corners polygon primitive as box body*
4,1,4,$2,$3,$4,$5,$6,$7,$8,$9,$2,$3,0*
0 Add four circle primitives for the rounded corners*
1,1,$1+$1,$2,$3*
1,1,$1+$1,$4,$5*
1,1,$1+$1,$6,$7*
1,1,$1+$1,$8,$9*
0 Add four rect primitives between the rounded corners*
20,1,$1+$1,$2,$3,$4,$5,0*
20,1,$1+$1,$4,$5,$6,$7,0*
20,1,$1+$1,$6,$7,$8,$9,0*
20,1,$1+$1,$8,$9,$2,$3,0*%
G04 Aperture macros list end*
%TA.AperFunction,ComponentPad*%
%ADD10O,1.700000X0.900000*%
%TD*%
%TA.AperFunction,ComponentPad*%
%ADD11O,2.000000X0.900000*%
%TD*%
%TA.AperFunction,SMDPad,CuDef*%
%ADD12RoundRect,0.410000X-1.340000X0.410000X-1.340000X-0.410000X1.340000X-0.410000X1.340000X0.410000X0*%
%TD*%
%TA.AperFunction,ViaPad*%
%ADD13C,0.700000*%
%TD*%
%TA.AperFunction,ViaPad*%
%ADD14C,0.600000*%
%TD*%
%TA.AperFunction,ViaPad*%
%ADD15C,0.500000*%
%TD*%
%TA.AperFunction,Conductor*%
%ADD16C,0.609600*%
%TD*%
%TA.AperFunction,Conductor*%
%ADD17C,0.254000*%
%TD*%
%TA.AperFunction,Conductor*%
%ADD18C,0.457200*%
%TD*%
%TA.AperFunction,Conductor*%
%ADD19C,0.203200*%
%TD*%
G04 APERTURE END LIST*
D10*
%TO.P,J1,S1,SHIELD*%
%TO.N,GND*%
X89910000Y-67750000D03*
D11*
X94080000Y-67750000D03*
X94080000Y-59110000D03*
D10*
X89910000Y-59110000D03*
%TD*%
D12*
%TO.P,J2,2,Pin_2*%
%TO.N,+5V*%
X125110000Y-58350000D03*
%TO.P,J2,4,Pin_4*%
%TO.N,+3V3*%
X125110000Y-60890000D03*
%TO.P,J2,6,Pin_6*%
%TO.N,Net-(J2-Pad6)*%
X125110000Y-63430000D03*
%TO.P,J2,8,Pin_8*%
%TO.N,Net-(J2-Pad8)*%
X125110000Y-65970000D03*
%TO.P,J2,10,Pin_10*%
%TO.N,GND*%
X125110000Y-68510000D03*
%TD*%
D13*
%TO.N,+5V*%
X98292044Y-72385878D03*
X121096800Y-58553200D03*
X97648000Y-69750000D03*
X113883200Y-58654800D03*
%TO.N,GND*%
X119141000Y-55810000D03*
X117871000Y-60636000D03*
X122316000Y-62160000D03*
X97170000Y-71812000D03*
X100580856Y-53651000D03*
X108701600Y-58451600D03*
X118252000Y-73209000D03*
X99202000Y-61398000D03*
X89931000Y-63430000D03*
X122443000Y-64954000D03*
X112918000Y-64827000D03*
D14*
X108981000Y-60382000D03*
X103393000Y-56064000D03*
D13*
X88915000Y-56445000D03*
X108396800Y-66579600D03*
X94122000Y-57461000D03*
X89169000Y-64192000D03*
X118070568Y-53651000D03*
X122316000Y-53651000D03*
X111800400Y-60991600D03*
X113698140Y-53651000D03*
X88915000Y-70415000D03*
X105044000Y-69145000D03*
D14*
X101869000Y-60636000D03*
D13*
X97297000Y-60509000D03*
X92725000Y-60001000D03*
X109717600Y-64649200D03*
X112791000Y-73209000D03*
X111609900Y-62756900D03*
X92725000Y-66859000D03*
X118887000Y-70161000D03*
X89168999Y-62668000D03*
X103723200Y-60890000D03*
X89931000Y-64192000D03*
X89169000Y-63430000D03*
X105298000Y-56699000D03*
X101869000Y-64319000D03*
X95200000Y-53651000D03*
X91836000Y-53651000D03*
X104953284Y-53651000D03*
X106923600Y-68560800D03*
X113553000Y-55683000D03*
X103977200Y-66020800D03*
X96535000Y-69145000D03*
X94122000Y-55556000D03*
D14*
X108600000Y-56318000D03*
D13*
X109325712Y-53651000D03*
X114315000Y-60636000D03*
X119115600Y-66833600D03*
X92371459Y-71756990D03*
X122316000Y-59620000D03*
X110505000Y-68764000D03*
X89931000Y-62668000D03*
X107965000Y-73209000D03*
X122316000Y-55810000D03*
X122443000Y-73209000D03*
X97373200Y-64903200D03*
X122189000Y-70161000D03*
%TO.N,+3V3*%
X101538800Y-55048000D03*
X100980000Y-67621000D03*
X115610400Y-54895600D03*
%TO.N,VCC*%
X104078800Y-59112000D03*
X99329000Y-66605000D03*
X107515000Y-56844200D03*
X107533200Y-59518400D03*
X100472000Y-59315200D03*
X108447600Y-65563600D03*
%TO.N,Net-(C6-Pad1)*%
X105552000Y-59315200D03*
X104536000Y-61906000D03*
%TO.N,Net-(F1-Pad2)*%
X95900000Y-61017000D03*
X96408000Y-65843000D03*
D15*
%TO.N,Net-(J1-PadA6)*%
X93258400Y-64268200D03*
X93639411Y-63175998D03*
D13*
%TO.N,Net-(J2-Pad8)*%
X118607600Y-65157200D03*
%TO.N,Net-(J2-Pad6)*%
X120284000Y-64496800D03*
%TO.N,/V_{Target}*%
X115610400Y-65716000D03*
X114188000Y-57334000D03*
%TO.N,/TXD*%
X112714800Y-63836400D03*
X107584000Y-61652000D03*
%TO.N,/RXD*%
X108092000Y-60839200D03*
X113934000Y-64598400D03*
%TO.N,/P32*%
X104536000Y-63125200D03*
X110936800Y-56724400D03*
%TO.N,/SCK*%
X108462858Y-67631142D03*
X104993200Y-63988800D03*
%TO.N,/P34*%
X107634800Y-69576800D03*
X113222800Y-66681200D03*
%TD*%
D16*
%TO.N,+5V*%
X125110000Y-58350000D02*
X121300000Y-58350000D01*
D17*
X98292044Y-72385878D02*
X98292044Y-70394044D01*
D16*
X105298000Y-55429000D02*
X111825800Y-55429000D01*
X102758000Y-67544800D02*
X102758000Y-57969000D01*
X121300000Y-58350000D02*
X121096800Y-58553200D01*
X113273600Y-58045200D02*
X113883200Y-58654800D01*
X111825800Y-55429000D02*
X113273600Y-56876800D01*
X100552800Y-69750000D02*
X102758000Y-67544800D01*
X97648000Y-69750000D02*
X100552800Y-69750000D01*
D17*
X98292044Y-70394044D02*
X97648000Y-69750000D01*
D16*
X102758000Y-57969000D02*
X105298000Y-55429000D01*
X113273600Y-56876800D02*
X113273600Y-58045200D01*
%TO.N,GND*%
X97170000Y-71812000D02*
X97170000Y-72701000D01*
X110936800Y-66528800D02*
X111800400Y-65665200D01*
X106466400Y-68560800D02*
X106923600Y-68560800D01*
D18*
X91074000Y-70415000D02*
X88915000Y-70415000D01*
D16*
X109666800Y-67748000D02*
X109666800Y-66935200D01*
X109717600Y-64649200D02*
X109717600Y-66528800D01*
D18*
X91963000Y-69526000D02*
X91074000Y-70415000D01*
X92964121Y-67098121D02*
X92725000Y-66859000D01*
D16*
X115051600Y-66833600D02*
X119115600Y-66833600D01*
X120792000Y-68510000D02*
X125110000Y-68510000D01*
X109717600Y-66528800D02*
X109717600Y-67625358D01*
D18*
X92725000Y-60001000D02*
X92550880Y-60175120D01*
D16*
X109666800Y-66935200D02*
X109311200Y-66579600D01*
D18*
X92550880Y-66684880D02*
X92725000Y-66859000D01*
D16*
X109311200Y-66579600D02*
X108396800Y-66579600D01*
X105044000Y-69145000D02*
X105882200Y-69145000D01*
X111241600Y-58451600D02*
X111800400Y-59010400D01*
X100726000Y-71304000D02*
X102885000Y-69145000D01*
X97170000Y-71812000D02*
X92426469Y-71812000D01*
X111800400Y-59010400D02*
X111800400Y-60991600D01*
D18*
X92725000Y-60001000D02*
X92725000Y-58096000D01*
D16*
X105882200Y-69145000D02*
X106466400Y-68560800D01*
X108854000Y-68560800D02*
X109666800Y-67748000D01*
X111800400Y-65665200D02*
X113883200Y-65665200D01*
X99932811Y-73240189D02*
X100726000Y-72447000D01*
X108701600Y-58451600D02*
X111241600Y-58451600D01*
X119115600Y-66833600D02*
X120792000Y-68510000D01*
X102885000Y-69145000D02*
X105044000Y-69145000D01*
X113883200Y-65665200D02*
X115051600Y-66833600D01*
D18*
X92598000Y-70161000D02*
X92598000Y-71530449D01*
X92550880Y-60175120D02*
X92550880Y-66684880D01*
D16*
X106923600Y-68560800D02*
X108854000Y-68560800D01*
X97170000Y-72701000D02*
X97709189Y-73240189D01*
X100726000Y-72447000D02*
X100726000Y-71304000D01*
D18*
X92725000Y-68764000D02*
X91963000Y-69526000D01*
D16*
X109717600Y-66528800D02*
X110936800Y-66528800D01*
D18*
X92725000Y-58096000D02*
X91074000Y-56445000D01*
X96253295Y-67098121D02*
X92964121Y-67098121D01*
D16*
X92426469Y-71812000D02*
X92371459Y-71756990D01*
D18*
X97373200Y-65978216D02*
X96253295Y-67098121D01*
D16*
X97709189Y-73240189D02*
X99932811Y-73240189D01*
D18*
X92725000Y-66859000D02*
X92725000Y-68764000D01*
X92598000Y-71530449D02*
X92371459Y-71756990D01*
X91074000Y-56445000D02*
X88915000Y-56445000D01*
X97373200Y-64903200D02*
X97373200Y-65978216D01*
X91963000Y-69526000D02*
X92598000Y-70161000D01*
D16*
X109666800Y-67748000D02*
G75*
G03*
X109717600Y-67625358I-122638J122640D01*
G01*
%TO.N,+3V3*%
X101538800Y-55048000D02*
X102081489Y-54505311D01*
X100726000Y-67367000D02*
X100980000Y-67621000D01*
X121604800Y-60890000D02*
X125110000Y-60890000D01*
X115610400Y-54895600D02*
X121604800Y-60890000D01*
X115220111Y-54505311D02*
X115610400Y-54895600D01*
X101538800Y-55048000D02*
X101538800Y-59645400D01*
X101538800Y-59645400D02*
X100726000Y-60458200D01*
X100726000Y-60458200D02*
X100726000Y-67367000D01*
X102081489Y-54505311D02*
X115220111Y-54505311D01*
D17*
%TO.N,VCC*%
X99964000Y-65970000D02*
X99329000Y-66605000D01*
X99964000Y-59823200D02*
X99964000Y-65970000D01*
X108447600Y-65563600D02*
X107076000Y-64192000D01*
X107076000Y-62801374D02*
X106822000Y-62547374D01*
X100472000Y-59315200D02*
X99964000Y-59823200D01*
X106346600Y-56844200D02*
X107515000Y-56844200D01*
X107076000Y-64192000D02*
X107076000Y-62801374D01*
X106822000Y-62547374D02*
X106822000Y-60229600D01*
X106822000Y-60229600D02*
X107533200Y-59518400D01*
X104078800Y-59112000D02*
X106346600Y-56844200D01*
%TO.N,Net-(C6-Pad1)*%
X104536000Y-61906000D02*
X104536000Y-60331200D01*
X104536000Y-60331200D02*
X105552000Y-59315200D01*
D18*
%TO.N,Net-(F1-Pad2)*%
X96408000Y-63430000D02*
X96408000Y-61525000D01*
X96408000Y-61525000D02*
X95900000Y-61017000D01*
X96408000Y-65843000D02*
X96408000Y-63430000D01*
D19*
%TO.N,Net-(J1-PadA6)*%
X93258400Y-64268200D02*
X93080600Y-64090400D01*
X93080600Y-63506200D02*
X93410802Y-63175998D01*
X93410802Y-63175998D02*
X93639411Y-63175998D01*
X93080600Y-64090400D02*
X93080600Y-63506200D01*
D17*
%TO.N,Net-(J2-Pad8)*%
X120569872Y-65970000D02*
X125110000Y-65970000D01*
X120569872Y-65970000D02*
G75*
G02*
X118607600Y-65157200I1J2775073D01*
G01*
%TO.N,Net-(J2-Pad6)*%
X120284000Y-64496800D02*
X120958222Y-64496800D01*
X123533704Y-63430000D02*
X125110000Y-63430000D01*
X122062000Y-64039600D02*
G75*
G02*
X120958222Y-64496800I-1103777J1103775D01*
G01*
X123533704Y-63430000D02*
G75*
G03*
X122062000Y-64039600I0J-2081302D01*
G01*
D18*
%TO.N,/V_{Target}*%
X115610400Y-65716000D02*
X115610400Y-58756400D01*
X115610400Y-58756400D02*
X114188000Y-57334000D01*
D17*
%TO.N,/TXD*%
X107584000Y-61652000D02*
X108303915Y-62371915D01*
X108650800Y-62515600D02*
X109650864Y-62515600D01*
X110632000Y-62922000D02*
X110720216Y-63010216D01*
X108650800Y-62515600D02*
G75*
G02*
X108303915Y-62371915I0J490568D01*
G01*
X110632000Y-62922000D02*
G75*
G03*
X109650864Y-62515600I-981136J-981136D01*
G01*
X112714800Y-63836399D02*
G75*
G02*
X110720217Y-63010215I-1J2820764D01*
G01*
%TO.N,/RXD*%
X108092000Y-60839200D02*
X108865269Y-61612469D01*
X113629200Y-63734800D02*
X113629200Y-63862548D01*
X113222800Y-62820400D02*
X113269989Y-62867589D01*
X109819200Y-62007600D02*
X111260528Y-62007600D01*
X113934000Y-64598400D02*
G75*
G02*
X113629200Y-63862548I735842J735848D01*
G01*
X109819200Y-62007600D02*
G75*
G02*
X108865269Y-61612469I-3J1349054D01*
G01*
X113629200Y-63734800D02*
G75*
G03*
X113269989Y-62867589I-1226418J1D01*
G01*
X113222800Y-62820400D02*
G75*
G03*
X111260528Y-62007600I-1962273J-1962273D01*
G01*
%TO.N,/P32*%
X109489000Y-56572000D02*
X110784400Y-56572000D01*
X105602800Y-60458200D02*
X106618800Y-59442200D01*
X106618800Y-58807200D02*
X107431600Y-57994400D01*
X108066600Y-57994400D02*
X109489000Y-56572000D01*
X110784400Y-56572000D02*
X110936800Y-56724400D01*
X104536000Y-63125200D02*
X104942400Y-63125200D01*
X106618800Y-59442200D02*
X106618800Y-58807200D01*
X105602800Y-62464800D02*
X105602800Y-60458200D01*
X104942400Y-63125200D02*
X105602800Y-62464800D01*
X107431600Y-57994400D02*
X108066600Y-57994400D01*
%TO.N,/SCK*%
X106645090Y-67631142D02*
X108462858Y-67631142D01*
X108435795Y-67604079D02*
X108462858Y-67631142D01*
X104840800Y-64356726D02*
X104840800Y-64700000D01*
X104948563Y-64960163D02*
X105049105Y-65060705D01*
X105875289Y-67055289D02*
X106314000Y-67494000D01*
X108376279Y-67544564D02*
X108462858Y-67631142D01*
X104948563Y-64960163D02*
G75*
G02*
X104840800Y-64700000I260168J260165D01*
G01*
X106645090Y-67631141D02*
G75*
G02*
X106314001Y-67493999I-1J468229D01*
G01*
X105875289Y-67055289D02*
G75*
G02*
X105552000Y-66274800I780487J780488D01*
G01*
X104840801Y-64356726D02*
G75*
G02*
X104993201Y-63988801I520320J2D01*
G01*
X105551999Y-66274800D02*
G75*
G03*
X105049104Y-65060706I-1716995J-3D01*
G01*
%TO.N,/P34*%
X113222800Y-67798800D02*
X111444800Y-69576800D01*
X107634800Y-69576800D02*
X109006400Y-69576800D01*
X113222800Y-66681200D02*
X113222800Y-67798800D01*
X111444800Y-69576800D02*
X109006400Y-69576800D01*
%TD*%
%TA.AperFunction,Conductor*%
%TO.N,+3V3*%
G36*
X114850426Y-54204216D02*
G01*
X114936323Y-54209669D01*
X114937724Y-54209843D01*
X115023294Y-54225875D01*
X115070588Y-54234736D01*
X115071831Y-54235040D01*
X115193831Y-54272066D01*
X115194875Y-54272438D01*
X115244152Y-54292660D01*
X115305769Y-54317946D01*
X115306594Y-54318323D01*
X115406148Y-54368675D01*
X115406778Y-54369019D01*
X115494723Y-54420553D01*
X115495116Y-54420795D01*
X115563758Y-54465051D01*
X115571171Y-54469831D01*
X115571348Y-54469947D01*
X115635293Y-54512834D01*
X115660365Y-54528893D01*
X115686434Y-54545590D01*
X115686441Y-54545594D01*
X115686708Y-54545765D01*
X115686995Y-54545908D01*
X115718921Y-54561825D01*
X115724796Y-54568583D01*
X115725399Y-54572067D01*
X115734143Y-55019343D01*
X115337610Y-55011591D01*
X115286339Y-55010589D01*
X115278135Y-55007001D01*
X115276472Y-55004804D01*
X115268502Y-54991195D01*
X115246873Y-54968044D01*
X115215653Y-54942402D01*
X115175599Y-54915660D01*
X115144552Y-54898600D01*
X115127673Y-54889325D01*
X115127668Y-54889322D01*
X115127465Y-54889211D01*
X115106267Y-54879746D01*
X115072244Y-54864554D01*
X115072236Y-54864551D01*
X115072008Y-54864449D01*
X115071778Y-54864369D01*
X115071774Y-54864367D01*
X115047196Y-54855775D01*
X115009983Y-54842765D01*
X114996419Y-54839323D01*
X114942413Y-54825619D01*
X114942403Y-54825617D01*
X114942147Y-54825552D01*
X114869255Y-54814203D01*
X114840159Y-54812661D01*
X114803144Y-54810698D01*
X114795063Y-54806838D01*
X114792063Y-54799014D01*
X114792063Y-54212977D01*
X114795490Y-54204704D01*
X114804504Y-54201301D01*
X114850426Y-54204216D01*
G37*
%TD.AperFunction*%
%TD*%
%TA.AperFunction,Conductor*%
%TO.N,Net-(J2-Pad6)*%
G36*
X124426366Y-62993231D02*
G01*
X125492792Y-63419134D01*
X125499205Y-63425385D01*
X125499319Y-63434339D01*
X125492792Y-63440866D01*
X124426366Y-63866769D01*
X124417412Y-63866655D01*
X124412708Y-63862977D01*
X124379064Y-63818652D01*
X124378790Y-63818291D01*
X124328503Y-63769538D01*
X124267341Y-63724384D01*
X124267049Y-63724218D01*
X124267045Y-63724215D01*
X124195664Y-63683545D01*
X124195410Y-63683400D01*
X124195148Y-63683285D01*
X124195144Y-63683283D01*
X124168451Y-63671569D01*
X124112818Y-63647155D01*
X124112572Y-63647073D01*
X124064477Y-63631100D01*
X124019673Y-63616220D01*
X123950421Y-63599472D01*
X123916310Y-63591222D01*
X123916306Y-63591221D01*
X123916082Y-63591167D01*
X123915858Y-63591130D01*
X123915851Y-63591129D01*
X123867770Y-63583279D01*
X123802151Y-63572565D01*
X123677989Y-63560986D01*
X123555057Y-63557337D01*
X123546889Y-63553666D01*
X123543704Y-63545642D01*
X123543704Y-63314358D01*
X123547131Y-63306085D01*
X123555057Y-63302663D01*
X123593997Y-63301507D01*
X123677989Y-63299013D01*
X123802151Y-63287434D01*
X123867770Y-63276720D01*
X123915851Y-63268870D01*
X123915858Y-63268869D01*
X123916082Y-63268832D01*
X123916306Y-63268778D01*
X123916310Y-63268777D01*
X123950421Y-63260527D01*
X124019673Y-63243779D01*
X124064477Y-63228899D01*
X124112572Y-63212926D01*
X124112818Y-63212844D01*
X124168451Y-63188430D01*
X124195144Y-63176716D01*
X124195148Y-63176714D01*
X124195410Y-63176599D01*
X124227388Y-63158379D01*
X124267045Y-63135784D01*
X124267049Y-63135781D01*
X124267341Y-63135615D01*
X124328503Y-63090461D01*
X124378790Y-63041708D01*
X124412708Y-62997023D01*
X124420439Y-62992505D01*
X124426366Y-62993231D01*
G37*
%TD.AperFunction*%
%TD*%
%TA.AperFunction,Conductor*%
%TO.N,VCC*%
G36*
X107859782Y-64796022D02*
G01*
X107913336Y-64848568D01*
X107934461Y-64869296D01*
X108007262Y-64936930D01*
X108007332Y-64936990D01*
X108007340Y-64936997D01*
X108052715Y-64975782D01*
X108072732Y-64992892D01*
X108133688Y-65039266D01*
X108192949Y-65078140D01*
X108253332Y-65111598D01*
X108317657Y-65141726D01*
X108388741Y-65170609D01*
X108469403Y-65200334D01*
X108504753Y-65212737D01*
X108554796Y-65230296D01*
X108561468Y-65236269D01*
X108562620Y-65241106D01*
X108565123Y-65369163D01*
X108571105Y-65675178D01*
X108567840Y-65683517D01*
X108559178Y-65687105D01*
X108359920Y-65683210D01*
X108125106Y-65678620D01*
X108116903Y-65675032D01*
X108114296Y-65670796D01*
X108084367Y-65585497D01*
X108084366Y-65585495D01*
X108084334Y-65585403D01*
X108054609Y-65504741D01*
X108025726Y-65433657D01*
X107995598Y-65369332D01*
X107962140Y-65308949D01*
X107923266Y-65249688D01*
X107876892Y-65188732D01*
X107820930Y-65123262D01*
X107753296Y-65050461D01*
X107696810Y-64992892D01*
X107680022Y-64975782D01*
X107676674Y-64967477D01*
X107680100Y-64959315D01*
X107843315Y-64796100D01*
X107851588Y-64792673D01*
X107859782Y-64796022D01*
G37*
%TD.AperFunction*%
%TD*%
%TA.AperFunction,Conductor*%
%TO.N,/V_{Target}*%
G36*
X115835468Y-64749427D02*
G01*
X115838895Y-64757804D01*
X115837976Y-64861627D01*
X115837973Y-64861779D01*
X115835746Y-64963537D01*
X115835735Y-64963563D01*
X115835745Y-64963563D01*
X115833565Y-65054061D01*
X115832692Y-65135471D01*
X115834387Y-65210122D01*
X115839907Y-65280341D01*
X115850510Y-65348455D01*
X115867454Y-65416791D01*
X115867537Y-65417030D01*
X115891915Y-65487438D01*
X115891920Y-65487451D01*
X115891998Y-65487676D01*
X115892097Y-65487901D01*
X115892098Y-65487903D01*
X115922236Y-65556263D01*
X115922438Y-65565216D01*
X115919963Y-65569093D01*
X115618833Y-65882231D01*
X115610629Y-65885819D01*
X115601967Y-65882231D01*
X115300837Y-65569093D01*
X115297572Y-65560754D01*
X115298564Y-65556263D01*
X115328701Y-65487903D01*
X115328702Y-65487901D01*
X115328801Y-65487676D01*
X115328879Y-65487451D01*
X115328884Y-65487438D01*
X115353262Y-65417030D01*
X115353345Y-65416791D01*
X115370289Y-65348455D01*
X115380892Y-65280341D01*
X115386412Y-65210122D01*
X115388107Y-65135471D01*
X115387234Y-65054061D01*
X115385054Y-64963563D01*
X115385064Y-64963563D01*
X115385053Y-64963537D01*
X115382826Y-64861778D01*
X115382823Y-64861626D01*
X115381904Y-64757804D01*
X115385258Y-64749500D01*
X115393604Y-64746000D01*
X115827195Y-64746000D01*
X115835468Y-64749427D01*
G37*
%TD.AperFunction*%
%TD*%
%TA.AperFunction,Conductor*%
%TO.N,+5V*%
G36*
X113576344Y-57930732D02*
G01*
X113579681Y-57937554D01*
X113588488Y-58008019D01*
X113616134Y-58077427D01*
X113616519Y-58077977D01*
X113616522Y-58077982D01*
X113655229Y-58133236D01*
X113657411Y-58136350D01*
X113708390Y-58185610D01*
X113708749Y-58185866D01*
X113708753Y-58185869D01*
X113728824Y-58200161D01*
X113765144Y-58226025D01*
X113765420Y-58226177D01*
X113765427Y-58226182D01*
X113823529Y-58258299D01*
X113823536Y-58258303D01*
X113823745Y-58258418D01*
X113880265Y-58283610D01*
X113930776Y-58302421D01*
X113971350Y-58315672D01*
X113990081Y-58321642D01*
X113996922Y-58327419D01*
X113998225Y-58332559D01*
X113999821Y-58414219D01*
X114006705Y-58766378D01*
X114003440Y-58774717D01*
X113994778Y-58778305D01*
X113788153Y-58774266D01*
X113558507Y-58769777D01*
X113550304Y-58766189D01*
X113549176Y-58764822D01*
X113538842Y-58750152D01*
X113527410Y-58733924D01*
X113527407Y-58733921D01*
X113527017Y-58733367D01*
X113477298Y-58689304D01*
X113473616Y-58686419D01*
X113409817Y-58636441D01*
X113409751Y-58636390D01*
X113330914Y-58573716D01*
X113330481Y-58573354D01*
X113246823Y-58500001D01*
X113246125Y-58499336D01*
X113163838Y-58414219D01*
X113162948Y-58413184D01*
X113088265Y-58315301D01*
X113087296Y-58313807D01*
X113026389Y-58202151D01*
X113025533Y-58200161D01*
X112984499Y-58073627D01*
X112983993Y-58071246D01*
X112970165Y-57940233D01*
X112972704Y-57931646D01*
X112980572Y-57927370D01*
X112981800Y-57927305D01*
X113568071Y-57927305D01*
X113576344Y-57930732D01*
G37*
%TD.AperFunction*%
%TD*%
%TA.AperFunction,Conductor*%
%TO.N,VCC*%
G36*
X100591917Y-59194960D02*
G01*
X100595505Y-59203622D01*
X100587023Y-59637518D01*
X100583435Y-59645722D01*
X100578977Y-59648405D01*
X100508915Y-59671422D01*
X100508869Y-59671436D01*
X100462315Y-59686007D01*
X100434062Y-59694849D01*
X100433994Y-59694871D01*
X100363631Y-59718394D01*
X100363626Y-59718396D01*
X100363467Y-59718449D01*
X100298403Y-59744542D01*
X100240046Y-59775480D01*
X100239670Y-59775764D01*
X100239667Y-59775766D01*
X100194648Y-59809787D01*
X100189599Y-59813602D01*
X100148268Y-59861252D01*
X100117255Y-59920770D01*
X100117089Y-59921396D01*
X100117088Y-59921400D01*
X100097903Y-59993972D01*
X100097764Y-59994498D01*
X100097724Y-59995034D01*
X100097723Y-59995039D01*
X100091811Y-60073953D01*
X100087776Y-60081947D01*
X100080144Y-60084779D01*
X99849167Y-60084779D01*
X99840894Y-60081352D01*
X99837476Y-60072621D01*
X99842008Y-59956964D01*
X99842100Y-59955889D01*
X99856153Y-59849579D01*
X99856381Y-59848358D01*
X99878142Y-59758505D01*
X99878508Y-59757287D01*
X99906694Y-59679194D01*
X99907112Y-59678186D01*
X99940522Y-59607161D01*
X99940841Y-59606533D01*
X99978292Y-59537958D01*
X99978394Y-59537775D01*
X100018516Y-59467336D01*
X100018576Y-59467231D01*
X100060042Y-59390439D01*
X100101420Y-59302978D01*
X100138543Y-59207639D01*
X100144739Y-59201173D01*
X100149217Y-59200186D01*
X100583578Y-59191695D01*
X100591917Y-59194960D01*
G37*
%TD.AperFunction*%
%TD*%
%TA.AperFunction,Conductor*%
%TO.N,Net-(J2-Pad6)*%
G36*
X120559118Y-64279005D02*
G01*
X120572066Y-64291899D01*
X120572069Y-64291902D01*
X120572415Y-64292246D01*
X120596362Y-64309166D01*
X120596720Y-64309350D01*
X120596721Y-64309351D01*
X120624627Y-64323723D01*
X120624631Y-64323725D01*
X120624913Y-64323870D01*
X120658002Y-64336417D01*
X120658250Y-64336486D01*
X120658256Y-64336488D01*
X120679697Y-64342453D01*
X120695566Y-64346869D01*
X120717296Y-64351226D01*
X120737372Y-64355252D01*
X120737381Y-64355254D01*
X120737538Y-64355285D01*
X120783854Y-64361725D01*
X120834450Y-64366251D01*
X120889261Y-64368922D01*
X120889349Y-64368923D01*
X120889369Y-64368924D01*
X120913900Y-64369289D01*
X120936697Y-64369628D01*
X120944917Y-64373178D01*
X120948222Y-64381327D01*
X120948222Y-64612272D01*
X120944795Y-64620545D01*
X120936696Y-64623971D01*
X120889369Y-64624675D01*
X120889349Y-64624676D01*
X120889261Y-64624677D01*
X120834450Y-64627348D01*
X120783854Y-64631874D01*
X120737538Y-64638314D01*
X120737381Y-64638345D01*
X120737372Y-64638347D01*
X120717296Y-64642373D01*
X120695566Y-64646730D01*
X120679697Y-64651146D01*
X120658256Y-64657111D01*
X120658250Y-64657113D01*
X120658002Y-64657182D01*
X120624913Y-64669729D01*
X120624631Y-64669874D01*
X120624627Y-64669876D01*
X120596721Y-64684248D01*
X120596362Y-64684433D01*
X120572415Y-64701353D01*
X120572065Y-64701702D01*
X120559119Y-64714594D01*
X120550839Y-64718004D01*
X120545599Y-64716753D01*
X120129741Y-64507249D01*
X120123894Y-64500466D01*
X120124556Y-64491536D01*
X120129741Y-64486351D01*
X120515720Y-64291899D01*
X120545598Y-64276847D01*
X120554528Y-64276185D01*
X120559118Y-64279005D01*
G37*
%TD.AperFunction*%
%TD*%
%TA.AperFunction,Conductor*%
%TO.N,/P34*%
G36*
X107794681Y-69265318D02*
G01*
X107876250Y-69304514D01*
X107954305Y-69340532D01*
X107996711Y-69358433D01*
X108024836Y-69370306D01*
X108024845Y-69370309D01*
X108024993Y-69370372D01*
X108091781Y-69394553D01*
X108158137Y-69413593D01*
X108158344Y-69413636D01*
X108158352Y-69413638D01*
X108227334Y-69427969D01*
X108227348Y-69427971D01*
X108227529Y-69428009D01*
X108259078Y-69432295D01*
X108303273Y-69438299D01*
X108303285Y-69438300D01*
X108303423Y-69438319D01*
X108303585Y-69438332D01*
X108303588Y-69438332D01*
X108348141Y-69441821D01*
X108389288Y-69445043D01*
X108488591Y-69448697D01*
X108488682Y-69448698D01*
X108488688Y-69448698D01*
X108593211Y-69449690D01*
X108601451Y-69453195D01*
X108604800Y-69461389D01*
X108604800Y-69692211D01*
X108601373Y-69700484D01*
X108593211Y-69703910D01*
X108534556Y-69704466D01*
X108488688Y-69704901D01*
X108488682Y-69704901D01*
X108488591Y-69704902D01*
X108389288Y-69708556D01*
X108348141Y-69711778D01*
X108303588Y-69715267D01*
X108303585Y-69715267D01*
X108303423Y-69715280D01*
X108303285Y-69715299D01*
X108303273Y-69715300D01*
X108259078Y-69721304D01*
X108227529Y-69725590D01*
X108227348Y-69725628D01*
X108227334Y-69725630D01*
X108158352Y-69739961D01*
X108158344Y-69739963D01*
X108158137Y-69740006D01*
X108091781Y-69759046D01*
X108024993Y-69783227D01*
X108024845Y-69783290D01*
X108024836Y-69783293D01*
X107996711Y-69795166D01*
X107954305Y-69813067D01*
X107954227Y-69813103D01*
X107876250Y-69849085D01*
X107794683Y-69888281D01*
X107785741Y-69888775D01*
X107781505Y-69886168D01*
X107468569Y-69585233D01*
X107464981Y-69577029D01*
X107468569Y-69568367D01*
X107591864Y-69449800D01*
X107781506Y-69267431D01*
X107789844Y-69264166D01*
X107794681Y-69265318D01*
G37*
%TD.AperFunction*%
%TD*%
%TA.AperFunction,Conductor*%
%TO.N,+3V3*%
G36*
X101848993Y-55195562D02*
G01*
X101852258Y-55203901D01*
X101851724Y-55207174D01*
X101843744Y-55232585D01*
X101837299Y-55278212D01*
X101833865Y-55336484D01*
X101832840Y-55406442D01*
X101833622Y-55487129D01*
X101835610Y-55577589D01*
X101835612Y-55577656D01*
X101838203Y-55676840D01*
X101838204Y-55676863D01*
X101840800Y-55783995D01*
X101840801Y-55784073D01*
X101842798Y-55897899D01*
X101842800Y-55898026D01*
X101843521Y-56006222D01*
X101840149Y-56014518D01*
X101831821Y-56018000D01*
X101245778Y-56018000D01*
X101237505Y-56014573D01*
X101234078Y-56006222D01*
X101234799Y-55898026D01*
X101234801Y-55897899D01*
X101236798Y-55784073D01*
X101236799Y-55783995D01*
X101239394Y-55676886D01*
X101239395Y-55676863D01*
X101241987Y-55577656D01*
X101241989Y-55577589D01*
X101243977Y-55487129D01*
X101244759Y-55406442D01*
X101243734Y-55336484D01*
X101240300Y-55278212D01*
X101233855Y-55232585D01*
X101225877Y-55207176D01*
X101226668Y-55198257D01*
X101228607Y-55195562D01*
X101257567Y-55165448D01*
X101418451Y-54998149D01*
X101418451Y-54998148D01*
X101538800Y-54873000D01*
X101848993Y-55195562D01*
G37*
%TD.AperFunction*%
%TD*%
%TA.AperFunction,Conductor*%
%TO.N,/P32*%
G36*
X105266343Y-62637951D02*
G01*
X105429605Y-62801213D01*
X105433032Y-62809486D01*
X105429685Y-62817679D01*
X105388590Y-62859576D01*
X105342707Y-62906355D01*
X105262578Y-62990703D01*
X105200030Y-63057374D01*
X105193556Y-63064274D01*
X105193481Y-63064353D01*
X105131595Y-63129095D01*
X105131349Y-63129345D01*
X105072876Y-63186962D01*
X105072438Y-63187372D01*
X105013366Y-63239893D01*
X105012789Y-63240373D01*
X104949119Y-63289794D01*
X104948465Y-63290264D01*
X104876238Y-63338523D01*
X104875596Y-63338923D01*
X104790742Y-63388005D01*
X104790205Y-63388297D01*
X104742550Y-63412631D01*
X104695983Y-63436410D01*
X104687057Y-63437121D01*
X104682555Y-63434424D01*
X104369769Y-63133633D01*
X104366181Y-63125429D01*
X104369769Y-63116767D01*
X104683023Y-62815526D01*
X104691362Y-62812261D01*
X104695648Y-62813165D01*
X104727378Y-62826439D01*
X104753890Y-62837530D01*
X104814567Y-62853876D01*
X104815046Y-62853924D01*
X104815047Y-62853924D01*
X104871099Y-62859522D01*
X104871640Y-62859576D01*
X104886830Y-62858292D01*
X104925615Y-62855014D01*
X104925618Y-62855013D01*
X104926156Y-62854968D01*
X104926674Y-62854826D01*
X104926677Y-62854825D01*
X104947355Y-62849138D01*
X104979162Y-62840390D01*
X105031705Y-62816181D01*
X105037922Y-62812261D01*
X105084602Y-62782824D01*
X105084601Y-62782824D01*
X105084832Y-62782679D01*
X105139591Y-62740223D01*
X105139747Y-62740084D01*
X105139757Y-62740076D01*
X105196940Y-62689230D01*
X105197029Y-62689151D01*
X105249921Y-62637827D01*
X105258246Y-62634525D01*
X105266343Y-62637951D01*
G37*
%TD.AperFunction*%
%TD*%
%TA.AperFunction,Conductor*%
%TO.N,+3V3*%
G36*
X102289780Y-54204348D02*
G01*
X102293960Y-54212267D01*
X102294010Y-54213353D01*
X102294010Y-54799583D01*
X102290583Y-54807856D01*
X102283541Y-54811218D01*
X102252963Y-54814450D01*
X102216216Y-54818334D01*
X102216213Y-54818335D01*
X102215604Y-54818399D01*
X102145828Y-54841148D01*
X102145339Y-54841419D01*
X102145337Y-54841420D01*
X102084863Y-54874951D01*
X102084858Y-54874954D01*
X102084442Y-54875185D01*
X102031205Y-54917334D01*
X101985875Y-54964423D01*
X101948213Y-55013276D01*
X101917976Y-55060720D01*
X101894925Y-55103582D01*
X101894858Y-55103728D01*
X101894851Y-55103742D01*
X101878895Y-55138519D01*
X101878818Y-55138687D01*
X101878750Y-55138862D01*
X101872256Y-55155557D01*
X101866063Y-55162026D01*
X101861581Y-55163014D01*
X101854297Y-55163156D01*
X101818503Y-55163856D01*
X101415057Y-55171743D01*
X101418450Y-54998150D01*
X101418451Y-54998149D01*
X101422171Y-54807856D01*
X101423817Y-54723645D01*
X101427405Y-54715441D01*
X101429216Y-54714014D01*
X101460361Y-54694118D01*
X101460363Y-54694117D01*
X101460849Y-54693806D01*
X101507269Y-54649240D01*
X101563806Y-54589214D01*
X101630892Y-54519441D01*
X101631253Y-54519083D01*
X101709338Y-54445208D01*
X101710020Y-54444611D01*
X101799738Y-54372042D01*
X101800732Y-54371323D01*
X101902642Y-54305505D01*
X101904030Y-54304736D01*
X102018706Y-54251072D01*
X102020487Y-54250409D01*
X102050353Y-54241980D01*
X102148571Y-54214262D01*
X102150658Y-54213872D01*
X102207879Y-54208539D01*
X102281224Y-54201703D01*
X102289780Y-54204348D01*
G37*
%TD.AperFunction*%
%TD*%
%TA.AperFunction,Conductor*%
%TO.N,Net-(F1-Pad2)*%
G36*
X95954718Y-60896746D02*
G01*
X96223061Y-60901991D01*
X96231264Y-60905579D01*
X96233587Y-60909085D01*
X96269598Y-60993255D01*
X96316477Y-61073022D01*
X96368426Y-61145473D01*
X96368486Y-61145550D01*
X96368499Y-61145567D01*
X96393146Y-61177024D01*
X96422617Y-61214641D01*
X96451429Y-61252220D01*
X96476002Y-61284270D01*
X96476428Y-61284863D01*
X96526074Y-61358743D01*
X96526716Y-61359819D01*
X96531398Y-61368714D01*
X96556788Y-61416947D01*
X96570011Y-61442068D01*
X96570657Y-61443530D01*
X96571966Y-61447143D01*
X96604993Y-61538341D01*
X96605458Y-61539995D01*
X96628138Y-61651610D01*
X96628350Y-61653218D01*
X96635832Y-61774157D01*
X96632922Y-61782626D01*
X96624154Y-61786579D01*
X96190318Y-61786579D01*
X96182045Y-61783152D01*
X96178646Y-61775687D01*
X96173747Y-61704927D01*
X96173715Y-61704460D01*
X96157436Y-61634256D01*
X96131724Y-61574684D01*
X96097739Y-61524462D01*
X96097379Y-61524093D01*
X96097376Y-61524089D01*
X96056959Y-61482629D01*
X96056958Y-61482628D01*
X96056643Y-61482305D01*
X96056286Y-61482037D01*
X96056282Y-61482033D01*
X96009878Y-61447143D01*
X96009875Y-61447141D01*
X96009597Y-61446932D01*
X96001157Y-61442068D01*
X95957998Y-61417195D01*
X95957991Y-61417191D01*
X95957763Y-61417060D01*
X95902301Y-61391404D01*
X95844372Y-61368684D01*
X95792758Y-61350325D01*
X95786112Y-61344324D01*
X95784981Y-61339531D01*
X95776495Y-60905422D01*
X95779760Y-60897083D01*
X95788422Y-60893495D01*
X95954718Y-60896746D01*
G37*
%TD.AperFunction*%
%TD*%
%TA.AperFunction,Conductor*%
%TO.N,/P32*%
G36*
X110933560Y-56377842D02*
G01*
X110936440Y-56382168D01*
X111090268Y-56786707D01*
X111090690Y-56787816D01*
X111090427Y-56796766D01*
X111083482Y-56803064D01*
X111010297Y-56827665D01*
X110671699Y-56941483D01*
X110662766Y-56940871D01*
X110659118Y-56938042D01*
X110608689Y-56879667D01*
X110608532Y-56879485D01*
X110554848Y-56827421D01*
X110501414Y-56786461D01*
X110446445Y-56755278D01*
X110388156Y-56732541D01*
X110324759Y-56716920D01*
X110254471Y-56707085D01*
X110175506Y-56701706D01*
X110175362Y-56701702D01*
X110175354Y-56701702D01*
X110103963Y-56699905D01*
X110086077Y-56699455D01*
X110041683Y-56699256D01*
X109996048Y-56699052D01*
X109987790Y-56695588D01*
X109984400Y-56687352D01*
X109984400Y-56456534D01*
X109987827Y-56448261D01*
X109995932Y-56444836D01*
X110115776Y-56443126D01*
X110115856Y-56443122D01*
X110115869Y-56443122D01*
X110216991Y-56438496D01*
X110227323Y-56438023D01*
X110227393Y-56438018D01*
X110227418Y-56438016D01*
X110283552Y-56433604D01*
X110323438Y-56430470D01*
X110408518Y-56421246D01*
X110486960Y-56411129D01*
X110563160Y-56400899D01*
X110641373Y-56391351D01*
X110641666Y-56391320D01*
X110661661Y-56389407D01*
X110726230Y-56383231D01*
X110726625Y-56383200D01*
X110822082Y-56377326D01*
X110822496Y-56377308D01*
X110925200Y-56374632D01*
X110933560Y-56377842D01*
G37*
%TD.AperFunction*%
%TD*%
%TA.AperFunction,Conductor*%
%TO.N,/RXD*%
G36*
X108179680Y-60719590D02*
G01*
X108414494Y-60724180D01*
X108422697Y-60727768D01*
X108425304Y-60732004D01*
X108455265Y-60817396D01*
X108484990Y-60898058D01*
X108513873Y-60969142D01*
X108544001Y-61033467D01*
X108577459Y-61093850D01*
X108616333Y-61153111D01*
X108662707Y-61214067D01*
X108718669Y-61279537D01*
X108786303Y-61352338D01*
X108797403Y-61363651D01*
X108859578Y-61427018D01*
X108862926Y-61435323D01*
X108859500Y-61443485D01*
X108696285Y-61606700D01*
X108688012Y-61610127D01*
X108679818Y-61606778D01*
X108605203Y-61533567D01*
X108605138Y-61533503D01*
X108532337Y-61465869D01*
X108466867Y-61409907D01*
X108405911Y-61363533D01*
X108346650Y-61324659D01*
X108286267Y-61291201D01*
X108221942Y-61261073D01*
X108150858Y-61232190D01*
X108070196Y-61202465D01*
X108070102Y-61202432D01*
X107984804Y-61172504D01*
X107978132Y-61166532D01*
X107976980Y-61161693D01*
X107975651Y-61093673D01*
X107970248Y-60817302D01*
X107968495Y-60727622D01*
X107971760Y-60719283D01*
X107980422Y-60715695D01*
X108179680Y-60719590D01*
G37*
%TD.AperFunction*%
%TD*%
%TA.AperFunction,Conductor*%
%TO.N,+3V3*%
G36*
X115934082Y-54780603D02*
G01*
X115942285Y-54784191D01*
X115944224Y-54786886D01*
X115956549Y-54810494D01*
X115984255Y-54847314D01*
X116023031Y-54890946D01*
X116071774Y-54941139D01*
X116071815Y-54941180D01*
X116129370Y-54997628D01*
X116129382Y-54997640D01*
X116194689Y-55060139D01*
X116194724Y-55060172D01*
X116194752Y-55060199D01*
X116266768Y-55128548D01*
X116266784Y-55128563D01*
X116344316Y-55202426D01*
X116344373Y-55202480D01*
X116426382Y-55281662D01*
X116426473Y-55281751D01*
X116503435Y-55357695D01*
X116506917Y-55365945D01*
X116503490Y-55374296D01*
X116089096Y-55788690D01*
X116080823Y-55792117D01*
X116072495Y-55788635D01*
X115996551Y-55711673D01*
X115996462Y-55711582D01*
X115917280Y-55629573D01*
X115917226Y-55629516D01*
X115843363Y-55551984D01*
X115843348Y-55551968D01*
X115774999Y-55479952D01*
X115774972Y-55479924D01*
X115774939Y-55479889D01*
X115712440Y-55414582D01*
X115655980Y-55357015D01*
X115655939Y-55356974D01*
X115605746Y-55308231D01*
X115575891Y-55281698D01*
X115562291Y-55269612D01*
X115562287Y-55269609D01*
X115562114Y-55269455D01*
X115525294Y-55241749D01*
X115501686Y-55229424D01*
X115495938Y-55222557D01*
X115495403Y-55219281D01*
X115495075Y-55202480D01*
X115486657Y-54771857D01*
X115934082Y-54780603D01*
G37*
%TD.AperFunction*%
%TD*%
%TA.AperFunction,Conductor*%
%TO.N,/TXD*%
G36*
X107671680Y-61532390D02*
G01*
X107906494Y-61536980D01*
X107914697Y-61540568D01*
X107917304Y-61544804D01*
X107947265Y-61630196D01*
X107976990Y-61710858D01*
X108005873Y-61781942D01*
X108036001Y-61846267D01*
X108069459Y-61906650D01*
X108108333Y-61965911D01*
X108154707Y-62026867D01*
X108210669Y-62092337D01*
X108278303Y-62165138D01*
X108289403Y-62176451D01*
X108351578Y-62239818D01*
X108354926Y-62248123D01*
X108351500Y-62256285D01*
X108188285Y-62419500D01*
X108180012Y-62422927D01*
X108171818Y-62419578D01*
X108097203Y-62346367D01*
X108097138Y-62346303D01*
X108024337Y-62278669D01*
X107958867Y-62222707D01*
X107897911Y-62176333D01*
X107838650Y-62137459D01*
X107778267Y-62104001D01*
X107713942Y-62073873D01*
X107642858Y-62044990D01*
X107562196Y-62015265D01*
X107562102Y-62015232D01*
X107476804Y-61985304D01*
X107470132Y-61979332D01*
X107468980Y-61974493D01*
X107467651Y-61906473D01*
X107462248Y-61630102D01*
X107460495Y-61540422D01*
X107463760Y-61532083D01*
X107472422Y-61528495D01*
X107671680Y-61532390D01*
G37*
%TD.AperFunction*%
%TD*%
%TA.AperFunction,Conductor*%
%TO.N,Net-(J1-PadA6)*%
G36*
X93517901Y-62965976D02*
G01*
X93754510Y-63157762D01*
X93758779Y-63165633D01*
X93755937Y-63174568D01*
X93555044Y-63403511D01*
X93547012Y-63407469D01*
X93542445Y-63406858D01*
X93503377Y-63393420D01*
X93503181Y-63393368D01*
X93503174Y-63393366D01*
X93454652Y-63380528D01*
X93454647Y-63380527D01*
X93454432Y-63380470D01*
X93404763Y-63371669D01*
X93356101Y-63368124D01*
X93355709Y-63368148D01*
X93355706Y-63368148D01*
X93310707Y-63370908D01*
X93310702Y-63370909D01*
X93310176Y-63370941D01*
X93309666Y-63371068D01*
X93309663Y-63371068D01*
X93293503Y-63375079D01*
X93268720Y-63381229D01*
X93268083Y-63381570D01*
X93268080Y-63381571D01*
X93246038Y-63393366D01*
X93233464Y-63400094D01*
X93206137Y-63428643D01*
X93188472Y-63467983D01*
X93188365Y-63468858D01*
X93183458Y-63508945D01*
X93179052Y-63516740D01*
X93171845Y-63519223D01*
X92991680Y-63519223D01*
X92983407Y-63515796D01*
X92979980Y-63507523D01*
X92979980Y-63505859D01*
X92980010Y-63505029D01*
X92986396Y-63415283D01*
X92986718Y-63413266D01*
X92988173Y-63407469D01*
X93007625Y-63329934D01*
X93008471Y-63327624D01*
X93041373Y-63260615D01*
X93042752Y-63258447D01*
X93086380Y-63204109D01*
X93087949Y-63202499D01*
X93093747Y-63197598D01*
X93141319Y-63157380D01*
X93142627Y-63156422D01*
X93204666Y-63117396D01*
X93205503Y-63116918D01*
X93274866Y-63080991D01*
X93275209Y-63080820D01*
X93350444Y-63044927D01*
X93350475Y-63044912D01*
X93429724Y-63006089D01*
X93429728Y-63006087D01*
X93429836Y-63006034D01*
X93429949Y-63005972D01*
X93504902Y-62964810D01*
X93513803Y-62963831D01*
X93517901Y-62965976D01*
G37*
%TD.AperFunction*%
%TD*%
%TA.AperFunction,Conductor*%
%TO.N,+5V*%
G36*
X122016337Y-58048731D02*
G01*
X122020000Y-58057234D01*
X122020000Y-58643140D01*
X122016573Y-58651413D01*
X122008341Y-58654840D01*
X121956142Y-58655021D01*
X121927998Y-58655119D01*
X121863711Y-58655941D01*
X121839570Y-58656249D01*
X121839555Y-58656249D01*
X121839505Y-58656250D01*
X121797436Y-58657353D01*
X121755739Y-58658446D01*
X121755697Y-58658448D01*
X121677940Y-58661961D01*
X121677915Y-58661962D01*
X121677836Y-58661966D01*
X121677771Y-58661971D01*
X121677748Y-58661972D01*
X121607179Y-58667055D01*
X121607171Y-58667056D01*
X121607056Y-58667064D01*
X121606951Y-58667076D01*
X121606936Y-58667077D01*
X121544744Y-58673978D01*
X121544733Y-58673980D01*
X121544576Y-58673997D01*
X121517470Y-58678614D01*
X121491858Y-58682976D01*
X121491854Y-58682977D01*
X121491595Y-58683021D01*
X121449310Y-58694392D01*
X121448863Y-58694598D01*
X121448859Y-58694599D01*
X121419823Y-58707950D01*
X121419822Y-58707951D01*
X121418919Y-58708366D01*
X121418205Y-58709060D01*
X121418206Y-58709060D01*
X121405836Y-58721097D01*
X121397516Y-58724411D01*
X121395814Y-58724263D01*
X120987492Y-58658448D01*
X120964977Y-58654819D01*
X120957355Y-58650119D01*
X120955370Y-58640956D01*
X121041247Y-58214920D01*
X121046241Y-58207487D01*
X121050267Y-58205791D01*
X121083587Y-58198662D01*
X121083714Y-58198628D01*
X121083728Y-58198625D01*
X121139229Y-58183907D01*
X121139272Y-58183896D01*
X121190106Y-58169926D01*
X121208934Y-58164752D01*
X121291709Y-58142874D01*
X121291907Y-58142824D01*
X121327632Y-58134190D01*
X121386886Y-58119868D01*
X121387222Y-58119792D01*
X121465940Y-58103204D01*
X121493672Y-58097360D01*
X121494074Y-58097284D01*
X121611134Y-58077012D01*
X121611583Y-58076944D01*
X121738508Y-58060445D01*
X121739033Y-58060390D01*
X121874959Y-58049300D01*
X121875566Y-58049266D01*
X121923013Y-58047931D01*
X122007971Y-58045539D01*
X122016337Y-58048731D01*
G37*
%TD.AperFunction*%
%TD*%
%TA.AperFunction,Conductor*%
%TO.N,Net-(J1-PadA6)*%
G36*
X93178766Y-63645275D02*
G01*
X93182193Y-63653555D01*
X93182165Y-63702381D01*
X93182781Y-63757757D01*
X93185125Y-63808117D01*
X93190275Y-63853601D01*
X93199307Y-63894352D01*
X93213301Y-63930510D01*
X93233334Y-63962217D01*
X93233778Y-63962666D01*
X93233782Y-63962670D01*
X93258735Y-63987851D01*
X93260483Y-63989615D01*
X93295827Y-64012844D01*
X93323122Y-64024591D01*
X93333517Y-64029065D01*
X93339762Y-64035483D01*
X93340590Y-64039583D01*
X93346550Y-64344423D01*
X93343285Y-64352762D01*
X93334623Y-64356350D01*
X93099097Y-64351745D01*
X93030632Y-64350407D01*
X93022428Y-64346819D01*
X93019709Y-64342247D01*
X92997619Y-64272620D01*
X92997412Y-64271885D01*
X92980672Y-64204042D01*
X92980490Y-64203163D01*
X92980139Y-64201058D01*
X92979980Y-64199134D01*
X92979980Y-63653548D01*
X92983407Y-63645275D01*
X92991680Y-63641848D01*
X93170493Y-63641848D01*
X93178766Y-63645275D01*
G37*
%TD.AperFunction*%
%TD*%
%TA.AperFunction,Conductor*%
%TO.N,/V_{Target}*%
G36*
X114510773Y-57218986D02*
G01*
X114518977Y-57222574D01*
X114521452Y-57226451D01*
X114548486Y-57296119D01*
X114548491Y-57296130D01*
X114548568Y-57296329D01*
X114548662Y-57296523D01*
X114548667Y-57296534D01*
X114565437Y-57331067D01*
X114581336Y-57363807D01*
X114617676Y-57424109D01*
X114658342Y-57479770D01*
X114704091Y-57533325D01*
X114755679Y-57587310D01*
X114813862Y-57644259D01*
X114866569Y-57694486D01*
X114879376Y-57706690D01*
X114879395Y-57706708D01*
X114952952Y-57777115D01*
X114953062Y-57777221D01*
X115027117Y-57849976D01*
X115030617Y-57858218D01*
X115027190Y-57866595D01*
X114720595Y-58173190D01*
X114712322Y-58176617D01*
X114703976Y-58173117D01*
X114631221Y-58099062D01*
X114631115Y-58098952D01*
X114560708Y-58025395D01*
X114560690Y-58025376D01*
X114550665Y-58014856D01*
X114498259Y-57959862D01*
X114441310Y-57901679D01*
X114387325Y-57850091D01*
X114333770Y-57804342D01*
X114278109Y-57763676D01*
X114217807Y-57727336D01*
X114185067Y-57711437D01*
X114150534Y-57694667D01*
X114150523Y-57694662D01*
X114150329Y-57694568D01*
X114150130Y-57694491D01*
X114150119Y-57694486D01*
X114080451Y-57667452D01*
X114073978Y-57661264D01*
X114072986Y-57656773D01*
X114064495Y-57222422D01*
X114067760Y-57214083D01*
X114076422Y-57210495D01*
X114510773Y-57218986D01*
G37*
%TD.AperFunction*%
%TD*%
%TA.AperFunction,Conductor*%
%TO.N,+3V3*%
G36*
X101027404Y-66749638D02*
G01*
X101030831Y-66757880D01*
X101031016Y-66827473D01*
X101031731Y-66894395D01*
X101031855Y-66906027D01*
X101031855Y-66906060D01*
X101033599Y-66980718D01*
X101033599Y-66980736D01*
X101035849Y-67034108D01*
X101036530Y-67050270D01*
X101040930Y-67113426D01*
X101040939Y-67113503D01*
X101040940Y-67113520D01*
X101047063Y-67168805D01*
X101047082Y-67168973D01*
X101055269Y-67215675D01*
X101055351Y-67215962D01*
X101055352Y-67215965D01*
X101065613Y-67251744D01*
X101065615Y-67251749D01*
X101065773Y-67252300D01*
X101078876Y-67277614D01*
X101090573Y-67286959D01*
X101094898Y-67294800D01*
X101094968Y-67295871D01*
X101103505Y-67732578D01*
X101100240Y-67740917D01*
X101091578Y-67744505D01*
X100924944Y-67741248D01*
X100657246Y-67736015D01*
X100649043Y-67732427D01*
X100646558Y-67728523D01*
X100633893Y-67695650D01*
X100633888Y-67695638D01*
X100633857Y-67695557D01*
X100611212Y-67640120D01*
X100611212Y-67640119D01*
X100583555Y-67570442D01*
X100583451Y-67570170D01*
X100552892Y-67487195D01*
X100552757Y-67486808D01*
X100521263Y-67391096D01*
X100521117Y-67390616D01*
X100490772Y-67283055D01*
X100490627Y-67282489D01*
X100475332Y-67215675D01*
X100463448Y-67163758D01*
X100463323Y-67163127D01*
X100441383Y-67034108D01*
X100441282Y-67033378D01*
X100431779Y-66943583D01*
X100426615Y-66894788D01*
X100426558Y-66893987D01*
X100421640Y-66758335D01*
X100424765Y-66749943D01*
X100433332Y-66746211D01*
X101019131Y-66746211D01*
X101027404Y-66749638D01*
G37*
%TD.AperFunction*%
%TD*%
%TA.AperFunction,Conductor*%
%TO.N,/SCK*%
G36*
X108316152Y-67321772D02*
G01*
X108505794Y-67504142D01*
X108629089Y-67622709D01*
X108632677Y-67630913D01*
X108629089Y-67639575D01*
X108354716Y-67903427D01*
X108316153Y-67940511D01*
X108307814Y-67943776D01*
X108302977Y-67942624D01*
X108221407Y-67903427D01*
X108143352Y-67867409D01*
X108100946Y-67849508D01*
X108072821Y-67837635D01*
X108072812Y-67837632D01*
X108072664Y-67837569D01*
X108005876Y-67813388D01*
X107939520Y-67794348D01*
X107939313Y-67794305D01*
X107939305Y-67794303D01*
X107870323Y-67779972D01*
X107870309Y-67779970D01*
X107870128Y-67779932D01*
X107838579Y-67775646D01*
X107794384Y-67769642D01*
X107794372Y-67769641D01*
X107794234Y-67769622D01*
X107794072Y-67769609D01*
X107794069Y-67769609D01*
X107749516Y-67766120D01*
X107708369Y-67762898D01*
X107609066Y-67759244D01*
X107608975Y-67759243D01*
X107608969Y-67759243D01*
X107562866Y-67758806D01*
X107504447Y-67758252D01*
X107496207Y-67754747D01*
X107492858Y-67746553D01*
X107492858Y-67515731D01*
X107496285Y-67507458D01*
X107504447Y-67504032D01*
X107608969Y-67503040D01*
X107608975Y-67503040D01*
X107609066Y-67503039D01*
X107708369Y-67499385D01*
X107749516Y-67496163D01*
X107794069Y-67492674D01*
X107794072Y-67492674D01*
X107794234Y-67492661D01*
X107794372Y-67492642D01*
X107794384Y-67492641D01*
X107838579Y-67486637D01*
X107870128Y-67482351D01*
X107870309Y-67482313D01*
X107870323Y-67482311D01*
X107939305Y-67467980D01*
X107939313Y-67467978D01*
X107939520Y-67467935D01*
X108005876Y-67448895D01*
X108072664Y-67424714D01*
X108072812Y-67424651D01*
X108072821Y-67424648D01*
X108100946Y-67412775D01*
X108143352Y-67394874D01*
X108221407Y-67358856D01*
X108302976Y-67319660D01*
X108311917Y-67319166D01*
X108316152Y-67321772D01*
G37*
%TD.AperFunction*%
%TD*%
%TA.AperFunction,Conductor*%
%TO.N,+5V*%
G36*
X97807175Y-69437077D02*
G01*
X97832585Y-69445055D01*
X97833060Y-69445122D01*
X97833064Y-69445123D01*
X97877968Y-69451466D01*
X97877979Y-69451467D01*
X97878212Y-69451500D01*
X97936484Y-69454934D01*
X97936585Y-69454935D01*
X97936598Y-69454936D01*
X98006374Y-69455958D01*
X98006442Y-69455959D01*
X98087129Y-69455177D01*
X98177589Y-69453189D01*
X98215797Y-69452191D01*
X98276840Y-69450596D01*
X98276863Y-69450595D01*
X98383995Y-69447999D01*
X98384073Y-69447998D01*
X98497920Y-69446001D01*
X98498047Y-69445999D01*
X98524190Y-69445825D01*
X98606223Y-69445278D01*
X98614518Y-69448650D01*
X98618000Y-69456978D01*
X98618000Y-70043021D01*
X98614573Y-70051294D01*
X98606222Y-70054721D01*
X98498047Y-70054000D01*
X98497920Y-70053998D01*
X98384073Y-70052001D01*
X98383995Y-70052000D01*
X98280500Y-70049492D01*
X98276863Y-70049404D01*
X98177589Y-70046810D01*
X98087129Y-70044822D01*
X98006442Y-70044040D01*
X97936484Y-70045065D01*
X97878212Y-70048499D01*
X97832585Y-70054944D01*
X97800561Y-70065000D01*
X97481769Y-69758433D01*
X97478181Y-69750229D01*
X97481769Y-69741567D01*
X97523924Y-69701030D01*
X97523924Y-69701029D01*
X97525686Y-69699335D01*
X97525686Y-69699334D01*
X97600135Y-69627740D01*
X97795563Y-69439807D01*
X97803901Y-69436542D01*
X97807175Y-69437077D01*
G37*
%TD.AperFunction*%
%TD*%
%TA.AperFunction,Conductor*%
%TO.N,+3V3*%
G36*
X124758419Y-60157624D02*
G01*
X124856751Y-60252185D01*
X125176914Y-60560070D01*
X125511231Y-60881567D01*
X125514819Y-60889771D01*
X125511231Y-60898433D01*
X124758419Y-61622376D01*
X124750080Y-61625641D01*
X124745255Y-61624495D01*
X124651017Y-61579349D01*
X124543568Y-61527874D01*
X124543545Y-61527863D01*
X124543513Y-61527848D01*
X124359680Y-61443851D01*
X124359626Y-61443828D01*
X124359611Y-61443822D01*
X124193114Y-61374748D01*
X124193112Y-61374747D01*
X124192962Y-61374685D01*
X124192807Y-61374630D01*
X124192801Y-61374628D01*
X124035441Y-61319097D01*
X124035430Y-61319094D01*
X124035250Y-61319030D01*
X124035069Y-61318980D01*
X124035060Y-61318977D01*
X123964288Y-61299361D01*
X123878436Y-61275564D01*
X123714409Y-61242964D01*
X123714221Y-61242940D01*
X123714216Y-61242939D01*
X123649069Y-61234565D01*
X123535062Y-61219909D01*
X123534909Y-61219898D01*
X123534901Y-61219897D01*
X123447612Y-61213513D01*
X123332284Y-61205078D01*
X123097966Y-61197149D01*
X123097906Y-61197148D01*
X123097887Y-61197148D01*
X122835600Y-61194899D01*
X122827356Y-61191401D01*
X122824000Y-61183199D01*
X122824000Y-60596800D01*
X122827427Y-60588527D01*
X122835599Y-60585101D01*
X122994897Y-60583734D01*
X123097887Y-60582851D01*
X123097906Y-60582851D01*
X123097966Y-60582850D01*
X123332284Y-60574921D01*
X123447612Y-60566486D01*
X123534901Y-60560102D01*
X123534909Y-60560101D01*
X123535062Y-60560090D01*
X123649069Y-60545434D01*
X123714216Y-60537060D01*
X123714221Y-60537059D01*
X123714409Y-60537035D01*
X123878436Y-60504435D01*
X123964288Y-60480638D01*
X124035060Y-60461022D01*
X124035069Y-60461019D01*
X124035250Y-60460969D01*
X124035430Y-60460905D01*
X124035441Y-60460902D01*
X124192801Y-60405371D01*
X124192807Y-60405369D01*
X124192962Y-60405314D01*
X124193114Y-60405251D01*
X124359611Y-60336177D01*
X124359626Y-60336171D01*
X124359680Y-60336148D01*
X124543513Y-60252151D01*
X124745255Y-60155505D01*
X124754196Y-60155021D01*
X124758419Y-60157624D01*
G37*
%TD.AperFunction*%
%TD*%
%TA.AperFunction,Conductor*%
%TO.N,Net-(F1-Pad2)*%
G36*
X96633068Y-64876427D02*
G01*
X96636495Y-64884804D01*
X96635576Y-64988627D01*
X96635573Y-64988779D01*
X96633346Y-65090537D01*
X96633335Y-65090563D01*
X96633345Y-65090563D01*
X96631165Y-65181061D01*
X96630292Y-65262471D01*
X96631987Y-65337122D01*
X96637507Y-65407341D01*
X96648110Y-65475455D01*
X96665054Y-65543791D01*
X96665137Y-65544030D01*
X96689515Y-65614438D01*
X96689520Y-65614451D01*
X96689598Y-65614676D01*
X96689697Y-65614901D01*
X96689698Y-65614903D01*
X96719836Y-65683263D01*
X96720038Y-65692216D01*
X96717563Y-65696093D01*
X96416433Y-66009231D01*
X96408229Y-66012819D01*
X96399567Y-66009231D01*
X96098437Y-65696093D01*
X96095172Y-65687754D01*
X96096164Y-65683263D01*
X96126301Y-65614903D01*
X96126302Y-65614901D01*
X96126401Y-65614676D01*
X96126479Y-65614451D01*
X96126484Y-65614438D01*
X96150862Y-65544030D01*
X96150945Y-65543791D01*
X96167889Y-65475455D01*
X96178492Y-65407341D01*
X96184012Y-65337122D01*
X96185707Y-65262471D01*
X96184834Y-65181061D01*
X96182654Y-65090563D01*
X96182664Y-65090563D01*
X96182653Y-65090537D01*
X96180426Y-64988778D01*
X96180423Y-64988626D01*
X96179504Y-64884804D01*
X96182858Y-64876500D01*
X96191204Y-64873000D01*
X96624795Y-64873000D01*
X96633068Y-64876427D01*
G37*
%TD.AperFunction*%
%TD*%
%TA.AperFunction,Conductor*%
%TO.N,/P34*%
G36*
X113231233Y-66514969D02*
G01*
X113532168Y-66827905D01*
X113535433Y-66836244D01*
X113534281Y-66841083D01*
X113495085Y-66922650D01*
X113459067Y-67000705D01*
X113429227Y-67071393D01*
X113405046Y-67138181D01*
X113386006Y-67204537D01*
X113385963Y-67204744D01*
X113385961Y-67204752D01*
X113371630Y-67273734D01*
X113371628Y-67273748D01*
X113371590Y-67273929D01*
X113361280Y-67349823D01*
X113354556Y-67435688D01*
X113350902Y-67534991D01*
X113350901Y-67535082D01*
X113350901Y-67535088D01*
X113349910Y-67639611D01*
X113346405Y-67647851D01*
X113338211Y-67651200D01*
X113107389Y-67651200D01*
X113099116Y-67647773D01*
X113095690Y-67639611D01*
X113094698Y-67535088D01*
X113094698Y-67535083D01*
X113094697Y-67534991D01*
X113091043Y-67435688D01*
X113084319Y-67349823D01*
X113074009Y-67273929D01*
X113073971Y-67273748D01*
X113073969Y-67273734D01*
X113059638Y-67204752D01*
X113059636Y-67204744D01*
X113059593Y-67204537D01*
X113040553Y-67138181D01*
X113016372Y-67071393D01*
X112986532Y-67000705D01*
X112950514Y-66922650D01*
X112911318Y-66841082D01*
X112910824Y-66832141D01*
X112913431Y-66827905D01*
X113214367Y-66514969D01*
X113222571Y-66511381D01*
X113231233Y-66514969D01*
G37*
%TD.AperFunction*%
%TD*%
%TA.AperFunction,Conductor*%
%TO.N,Net-(C6-Pad1)*%
G36*
X105671917Y-59194960D02*
G01*
X105675505Y-59203622D01*
X105673752Y-59293302D01*
X105668350Y-59569673D01*
X105667020Y-59637693D01*
X105663432Y-59645897D01*
X105659196Y-59648504D01*
X105573897Y-59678432D01*
X105573803Y-59678465D01*
X105493141Y-59708190D01*
X105422057Y-59737073D01*
X105357732Y-59767201D01*
X105297349Y-59800659D01*
X105238088Y-59839533D01*
X105177132Y-59885907D01*
X105177027Y-59885997D01*
X105177023Y-59886000D01*
X105147528Y-59911212D01*
X105111662Y-59941869D01*
X105038861Y-60009503D01*
X105038796Y-60009567D01*
X104964182Y-60082778D01*
X104955877Y-60086126D01*
X104947715Y-60082700D01*
X104784500Y-59919485D01*
X104781073Y-59911212D01*
X104784422Y-59903018D01*
X104857632Y-59828403D01*
X104857696Y-59828338D01*
X104925330Y-59755537D01*
X104981292Y-59690067D01*
X105027666Y-59629111D01*
X105066540Y-59569850D01*
X105099998Y-59509467D01*
X105130126Y-59445142D01*
X105159009Y-59374058D01*
X105188734Y-59293396D01*
X105218696Y-59208003D01*
X105224667Y-59201332D01*
X105229505Y-59200180D01*
X105473174Y-59195417D01*
X105663578Y-59191695D01*
X105671917Y-59194960D01*
G37*
%TD.AperFunction*%
%TD*%
%TA.AperFunction,Conductor*%
%TO.N,+5V*%
G36*
X98415728Y-71419305D02*
G01*
X98419154Y-71427467D01*
X98420146Y-71532086D01*
X98423800Y-71631389D01*
X98430524Y-71717254D01*
X98440834Y-71793148D01*
X98440872Y-71793329D01*
X98440874Y-71793343D01*
X98455205Y-71862325D01*
X98455250Y-71862540D01*
X98474290Y-71928896D01*
X98498471Y-71995684D01*
X98528311Y-72066372D01*
X98528347Y-72066450D01*
X98564329Y-72144427D01*
X98603526Y-72225995D01*
X98604020Y-72234937D01*
X98601413Y-72239173D01*
X98300477Y-72552109D01*
X98292273Y-72555697D01*
X98283611Y-72552109D01*
X97982675Y-72239173D01*
X97979410Y-72230834D01*
X97980562Y-72225996D01*
X98019758Y-72144427D01*
X98019771Y-72144398D01*
X98055740Y-72066450D01*
X98055776Y-72066372D01*
X98085616Y-71995684D01*
X98109797Y-71928896D01*
X98128837Y-71862540D01*
X98128882Y-71862325D01*
X98143213Y-71793343D01*
X98143215Y-71793329D01*
X98143253Y-71793148D01*
X98153563Y-71717254D01*
X98160287Y-71631389D01*
X98163941Y-71532086D01*
X98164934Y-71427467D01*
X98168439Y-71419227D01*
X98176633Y-71415878D01*
X98407455Y-71415878D01*
X98415728Y-71419305D01*
G37*
%TD.AperFunction*%
%TD*%
%TA.AperFunction,Conductor*%
%TO.N,GND*%
G36*
X126732248Y-53035445D02*
G01*
X126750000Y-53038976D01*
X126759731Y-53037041D01*
X126778893Y-53035731D01*
X126867283Y-53041027D01*
X126997354Y-53048820D01*
X127006284Y-53049894D01*
X127245661Y-53093336D01*
X127254399Y-53095468D01*
X127486886Y-53167183D01*
X127495308Y-53170344D01*
X127717562Y-53269302D01*
X127725545Y-53273445D01*
X127934396Y-53398232D01*
X127941824Y-53403296D01*
X128134293Y-53552137D01*
X128141059Y-53558048D01*
X128220086Y-53635906D01*
X128314371Y-53728796D01*
X128320389Y-53735481D01*
X128454702Y-53903916D01*
X128471084Y-53952677D01*
X128452289Y-54000561D01*
X128407112Y-54025160D01*
X128395907Y-54026000D01*
X126982422Y-54026000D01*
X126967752Y-54024555D01*
X126957265Y-54022469D01*
X126950000Y-54021024D01*
X126942735Y-54022469D01*
X126924983Y-54026000D01*
X126867394Y-54037455D01*
X126858161Y-54039291D01*
X126858159Y-54039292D01*
X126850894Y-54040737D01*
X126844736Y-54044851D01*
X126844735Y-54044852D01*
X126810246Y-54067897D01*
X126766876Y-54096876D01*
X126710737Y-54180894D01*
X126696677Y-54251582D01*
X126691024Y-54280000D01*
X126692469Y-54287265D01*
X126694555Y-54297752D01*
X126696000Y-54312422D01*
X126696000Y-57218319D01*
X126678407Y-57266657D01*
X126633858Y-57292377D01*
X126598313Y-57290078D01*
X126575790Y-57283020D01*
X126575786Y-57283019D01*
X126571985Y-57281828D01*
X126530913Y-57278054D01*
X126504820Y-57275656D01*
X126504813Y-57275656D01*
X126503119Y-57275500D01*
X125110407Y-57275500D01*
X123716882Y-57275501D01*
X123715188Y-57275657D01*
X123715180Y-57275657D01*
X123665749Y-57280199D01*
X123648015Y-57281828D01*
X123494540Y-57329924D01*
X123356968Y-57413241D01*
X123243241Y-57526968D01*
X123159924Y-57664540D01*
X123158569Y-57668864D01*
X123158568Y-57668866D01*
X123137403Y-57736403D01*
X123106159Y-57777268D01*
X123066289Y-57789112D01*
X122996685Y-57789709D01*
X122992719Y-57789743D01*
X122992712Y-57789743D01*
X122881547Y-57790697D01*
X122880902Y-57790700D01*
X121314105Y-57790700D01*
X121310956Y-57790634D01*
X121246871Y-57787948D01*
X121241884Y-57789118D01*
X121241881Y-57789118D01*
X121201412Y-57798610D01*
X121194446Y-57799901D01*
X121171236Y-57803081D01*
X121148179Y-57806239D01*
X121129833Y-57814178D01*
X121117144Y-57818375D01*
X121097680Y-57822940D01*
X121057274Y-57845153D01*
X121056758Y-57845437D01*
X121050397Y-57848553D01*
X121007544Y-57867097D01*
X121003558Y-57870325D01*
X120992009Y-57879677D01*
X120980912Y-57887133D01*
X120963396Y-57896763D01*
X120960414Y-57899337D01*
X120960411Y-57899339D01*
X120957263Y-57902057D01*
X120955147Y-57903883D01*
X120928265Y-57930765D01*
X120922417Y-57936031D01*
X120888455Y-57963533D01*
X120879172Y-57976596D01*
X120846653Y-58002508D01*
X120796493Y-58023284D01*
X120796487Y-58023287D01*
X120791942Y-58025170D01*
X120665666Y-58122066D01*
X120662668Y-58125973D01*
X120573230Y-58242530D01*
X120568770Y-58248342D01*
X120566884Y-58252896D01*
X120510073Y-58390052D01*
X120507860Y-58395394D01*
X120507217Y-58400276D01*
X120507217Y-58400277D01*
X120491773Y-58517586D01*
X120487084Y-58553200D01*
X120487727Y-58558084D01*
X120504326Y-58684160D01*
X120507860Y-58711006D01*
X120509744Y-58715555D01*
X120509745Y-58715558D01*
X120568770Y-58858058D01*
X120566469Y-58859011D01*
X120573818Y-58900708D01*
X120548095Y-58945254D01*
X120499756Y-58962844D01*
X120451419Y-58945247D01*
X120446587Y-58940818D01*
X116178648Y-54672879D01*
X116162346Y-54648482D01*
X116150869Y-54620773D01*
X116138430Y-54590742D01*
X116084975Y-54521078D01*
X116044532Y-54468373D01*
X116041534Y-54464466D01*
X115977286Y-54415166D01*
X115919168Y-54370570D01*
X115919167Y-54370569D01*
X115915258Y-54367570D01*
X115857518Y-54343654D01*
X115833121Y-54327352D01*
X115625598Y-54119829D01*
X115623417Y-54117556D01*
X115583444Y-54074085D01*
X115583442Y-54074083D01*
X115579974Y-54070312D01*
X115575620Y-54067612D01*
X115575617Y-54067610D01*
X115540288Y-54045706D01*
X115534449Y-54041693D01*
X115531180Y-54039211D01*
X115497254Y-54013460D01*
X115478664Y-54006099D01*
X115466728Y-54000096D01*
X115449737Y-53989562D01*
X115419308Y-53980721D01*
X115404894Y-53976533D01*
X115398207Y-53974244D01*
X115354777Y-53957049D01*
X115334896Y-53954960D01*
X115321780Y-53952386D01*
X115314947Y-53950401D01*
X115306370Y-53947909D01*
X115306368Y-53947909D01*
X115302583Y-53946809D01*
X115298648Y-53946520D01*
X115293080Y-53946111D01*
X115293076Y-53946111D01*
X115291716Y-53946011D01*
X115253700Y-53946011D01*
X115245839Y-53945599D01*
X115225621Y-53943474D01*
X115202378Y-53941031D01*
X115197323Y-53941886D01*
X115197322Y-53941886D01*
X115179160Y-53944958D01*
X115166619Y-53946011D01*
X102095594Y-53946011D01*
X102092445Y-53945945D01*
X102028360Y-53943259D01*
X102023373Y-53944429D01*
X102023370Y-53944429D01*
X101982901Y-53953921D01*
X101975935Y-53955212D01*
X101952725Y-53958392D01*
X101929668Y-53961550D01*
X101911322Y-53969489D01*
X101898633Y-53973686D01*
X101879169Y-53978251D01*
X101839440Y-54000092D01*
X101838247Y-54000748D01*
X101831886Y-54003864D01*
X101789033Y-54022408D01*
X101785047Y-54025636D01*
X101773498Y-54034988D01*
X101762401Y-54042444D01*
X101744885Y-54052074D01*
X101741903Y-54054648D01*
X101741900Y-54054650D01*
X101738752Y-54057368D01*
X101736636Y-54059194D01*
X101709754Y-54086076D01*
X101703906Y-54091342D01*
X101669944Y-54118844D01*
X101656972Y-54137097D01*
X101656305Y-54138036D01*
X101648182Y-54147648D01*
X101539994Y-54255837D01*
X101537433Y-54258280D01*
X101534776Y-54260698D01*
X101534569Y-54260894D01*
X101534531Y-54260929D01*
X101514374Y-54280000D01*
X101456691Y-54334573D01*
X101452399Y-54338730D01*
X101452307Y-54338822D01*
X101452252Y-54338875D01*
X101452165Y-54338962D01*
X101452038Y-54339088D01*
X101447796Y-54343396D01*
X101413461Y-54379106D01*
X101380710Y-54413169D01*
X101378908Y-54415063D01*
X101378811Y-54415166D01*
X101349559Y-54446223D01*
X101347993Y-54447837D01*
X101327458Y-54468373D01*
X101316078Y-54479753D01*
X101291681Y-54496054D01*
X101233942Y-54519970D01*
X101230033Y-54522969D01*
X101230032Y-54522970D01*
X101149378Y-54584859D01*
X101107666Y-54616866D01*
X101010770Y-54743142D01*
X101008884Y-54747696D01*
X100956960Y-54873054D01*
X100949860Y-54890194D01*
X100929084Y-55048000D01*
X100929727Y-55052884D01*
X100946122Y-55177411D01*
X100949860Y-55205806D01*
X100951744Y-55210353D01*
X100951744Y-55210355D01*
X100973776Y-55263545D01*
X100979500Y-55292323D01*
X100979500Y-58790173D01*
X100961907Y-58838511D01*
X100917358Y-58864231D01*
X100866700Y-58855298D01*
X100858521Y-58849833D01*
X100780768Y-58790170D01*
X100780767Y-58790169D01*
X100776858Y-58787170D01*
X100694443Y-58753033D01*
X100634358Y-58728145D01*
X100634355Y-58728144D01*
X100629806Y-58726260D01*
X100624924Y-58725617D01*
X100624923Y-58725617D01*
X100476884Y-58706127D01*
X100472000Y-58705484D01*
X100467116Y-58706127D01*
X100319077Y-58725617D01*
X100319076Y-58725617D01*
X100314194Y-58726260D01*
X100309645Y-58728144D01*
X100309642Y-58728145D01*
X100249557Y-58753033D01*
X100167142Y-58787170D01*
X100163233Y-58790169D01*
X100163232Y-58790170D01*
X100097394Y-58840690D01*
X100040866Y-58884066D01*
X100037868Y-58887973D01*
X99947451Y-59005806D01*
X99943970Y-59010342D01*
X99883060Y-59157394D01*
X99882417Y-59162281D01*
X99881141Y-59167043D01*
X99880686Y-59166921D01*
X99878502Y-59175448D01*
X99874893Y-59184716D01*
X99868948Y-59199983D01*
X99866852Y-59204852D01*
X99838433Y-59264923D01*
X99834187Y-59273897D01*
X99832379Y-59277469D01*
X99796853Y-59343258D01*
X99796028Y-59344746D01*
X99780829Y-59371431D01*
X99757687Y-59412060D01*
X99756530Y-59414113D01*
X99756428Y-59414296D01*
X99755370Y-59416213D01*
X99717919Y-59484788D01*
X99714382Y-59491501D01*
X99714063Y-59492129D01*
X99710681Y-59499044D01*
X99695874Y-59530523D01*
X99681772Y-59560501D01*
X99672044Y-59575633D01*
X99671829Y-59575848D01*
X99670024Y-59578373D01*
X99670023Y-59578375D01*
X99659843Y-59592621D01*
X99657715Y-59595455D01*
X99625066Y-59636870D01*
X99623008Y-59642731D01*
X99621720Y-59645073D01*
X99621567Y-59645316D01*
X99621450Y-59645596D01*
X99620279Y-59647986D01*
X99616666Y-59653043D01*
X99614885Y-59658999D01*
X99601560Y-59703554D01*
X99600467Y-59706918D01*
X99582984Y-59756702D01*
X99582500Y-59762291D01*
X99582500Y-59763390D01*
X99582041Y-59768818D01*
X99580275Y-59774724D01*
X99580519Y-59780935D01*
X99580519Y-59780936D01*
X99582442Y-59829870D01*
X99582500Y-59832823D01*
X99582500Y-65780829D01*
X99564907Y-65829167D01*
X99560474Y-65834003D01*
X99445124Y-65949353D01*
X99404787Y-65970275D01*
X99381684Y-65974278D01*
X99348147Y-65980088D01*
X99348090Y-65980098D01*
X99347831Y-65980143D01*
X99344099Y-65980818D01*
X99343728Y-65980888D01*
X99339184Y-65981788D01*
X99339138Y-65981798D01*
X99339086Y-65981808D01*
X99251596Y-65999974D01*
X99251558Y-65999982D01*
X99251285Y-66000039D01*
X99241725Y-66002218D01*
X99241251Y-66002336D01*
X99241128Y-66002366D01*
X99241107Y-66002371D01*
X99240867Y-66002431D01*
X99240641Y-66002492D01*
X99240605Y-66002501D01*
X99236268Y-66003666D01*
X99231478Y-66004953D01*
X99216822Y-66009193D01*
X99205740Y-66011512D01*
X99171194Y-66016060D01*
X99166645Y-66017944D01*
X99166642Y-66017945D01*
X99114669Y-66039473D01*
X99024142Y-66076970D01*
X99020233Y-66079969D01*
X99020232Y-66079970D01*
X98974113Y-66115359D01*
X98897866Y-66173866D01*
X98894868Y-66177773D01*
X98805028Y-66294854D01*
X98800970Y-66300142D01*
X98790377Y-66325716D01*
X98742546Y-66441193D01*
X98740060Y-66447194D01*
X98719284Y-66605000D01*
X98719927Y-66609884D01*
X98728642Y-66676076D01*
X98740060Y-66762806D01*
X98741944Y-66767355D01*
X98741945Y-66767358D01*
X98767321Y-66828621D01*
X98800970Y-66909858D01*
X98803969Y-66913767D01*
X98803970Y-66913768D01*
X98862524Y-66990076D01*
X98897866Y-67036134D01*
X98901773Y-67039132D01*
X99019297Y-67129312D01*
X99024142Y-67133030D01*
X99059318Y-67147600D01*
X99166642Y-67192055D01*
X99166645Y-67192056D01*
X99171194Y-67193940D01*
X99176076Y-67194583D01*
X99176077Y-67194583D01*
X99324116Y-67214073D01*
X99329000Y-67214716D01*
X99333884Y-67214073D01*
X99481923Y-67194583D01*
X99481924Y-67194583D01*
X99486806Y-67193940D01*
X99491355Y-67192056D01*
X99491358Y-67192055D01*
X99598682Y-67147600D01*
X99633858Y-67133030D01*
X99638704Y-67129312D01*
X99756227Y-67039132D01*
X99760134Y-67036134D01*
X99795476Y-66990076D01*
X99854030Y-66913768D01*
X99854031Y-66913767D01*
X99857030Y-66909858D01*
X99917940Y-66762806D01*
X99917983Y-66762479D01*
X99918812Y-66760091D01*
X99927227Y-66740527D01*
X99932153Y-66731008D01*
X99960861Y-66684063D01*
X99965888Y-66676832D01*
X100002468Y-66630298D01*
X100005878Y-66626262D01*
X100007115Y-66624898D01*
X100007126Y-66624886D01*
X100035802Y-66593274D01*
X100081310Y-66569293D01*
X100131586Y-66580174D01*
X100163105Y-66620826D01*
X100166700Y-66643799D01*
X100166700Y-67352895D01*
X100166634Y-67356043D01*
X100163948Y-67420129D01*
X100165118Y-67425116D01*
X100165118Y-67425119D01*
X100174610Y-67465588D01*
X100175901Y-67472554D01*
X100182239Y-67518821D01*
X100188014Y-67532166D01*
X100190178Y-67537167D01*
X100194375Y-67549856D01*
X100198940Y-67569320D01*
X100215893Y-67600157D01*
X100221437Y-67610242D01*
X100224553Y-67616603D01*
X100243097Y-67659456D01*
X100246325Y-67663442D01*
X100255677Y-67674991D01*
X100263133Y-67686087D01*
X100270862Y-67700147D01*
X100270864Y-67700151D01*
X100272763Y-67703604D01*
X100277161Y-67708698D01*
X100278983Y-67710810D01*
X100278990Y-67710818D01*
X100279883Y-67711852D01*
X100306761Y-67738730D01*
X100312027Y-67744578D01*
X100339533Y-67778545D01*
X100343711Y-67781514D01*
X100343712Y-67781515D01*
X100358730Y-67792188D01*
X100368343Y-67800312D01*
X100411752Y-67843721D01*
X100428054Y-67868118D01*
X100451970Y-67925858D01*
X100454969Y-67929767D01*
X100454970Y-67929768D01*
X100529237Y-68026553D01*
X100548866Y-68052134D01*
X100552773Y-68055132D01*
X100654884Y-68133485D01*
X100675142Y-68149030D01*
X100704181Y-68161058D01*
X100817642Y-68208055D01*
X100817645Y-68208056D01*
X100822194Y-68209940D01*
X100827076Y-68210583D01*
X100827077Y-68210583D01*
X100975116Y-68230073D01*
X100980000Y-68230716D01*
X101107133Y-68213978D01*
X101157353Y-68225112D01*
X101188667Y-68265922D01*
X101186424Y-68317312D01*
X101170122Y-68341709D01*
X100343157Y-69168674D01*
X100296537Y-69190414D01*
X100289983Y-69190700D01*
X97892323Y-69190700D01*
X97863545Y-69184976D01*
X97810355Y-69162944D01*
X97810353Y-69162944D01*
X97805806Y-69161060D01*
X97800928Y-69160418D01*
X97800925Y-69160417D01*
X97652884Y-69140927D01*
X97648000Y-69140284D01*
X97643116Y-69140927D01*
X97495077Y-69160417D01*
X97495076Y-69160417D01*
X97490194Y-69161060D01*
X97485645Y-69162944D01*
X97485642Y-69162945D01*
X97407537Y-69195297D01*
X97343142Y-69221970D01*
X97216866Y-69318866D01*
X97119970Y-69445142D01*
X97059060Y-69592194D01*
X97038284Y-69750000D01*
X97038927Y-69754884D01*
X97056085Y-69885206D01*
X97059060Y-69907806D01*
X97060944Y-69912355D01*
X97060945Y-69912358D01*
X97086061Y-69972993D01*
X97119970Y-70054858D01*
X97122969Y-70058767D01*
X97122970Y-70058768D01*
X97163914Y-70112126D01*
X97216866Y-70181134D01*
X97220773Y-70184132D01*
X97312560Y-70254563D01*
X97343142Y-70278030D01*
X97355520Y-70283157D01*
X97485642Y-70337055D01*
X97485645Y-70337056D01*
X97490194Y-70338940D01*
X97495076Y-70339583D01*
X97495077Y-70339583D01*
X97525929Y-70343645D01*
X97536842Y-70345916D01*
X97551473Y-70350112D01*
X97551520Y-70350125D01*
X97551848Y-70350219D01*
X97552192Y-70350310D01*
X97552214Y-70350316D01*
X97561678Y-70352818D01*
X97561707Y-70352825D01*
X97562084Y-70352925D01*
X97562980Y-70353142D01*
X97572677Y-70355291D01*
X97572966Y-70355349D01*
X97573003Y-70355357D01*
X97622430Y-70365299D01*
X97622080Y-70367040D01*
X97622086Y-70367042D01*
X97622436Y-70365300D01*
X97661515Y-70373160D01*
X97666057Y-70374031D01*
X97666474Y-70374107D01*
X97666553Y-70374121D01*
X97666594Y-70374128D01*
X97668131Y-70374394D01*
X97670990Y-70374888D01*
X97671147Y-70374914D01*
X97671184Y-70374920D01*
X97704916Y-70380441D01*
X97721672Y-70383183D01*
X97762700Y-70404222D01*
X97888518Y-70530040D01*
X97910258Y-70576660D01*
X97910544Y-70583214D01*
X97910544Y-71466922D01*
X97910541Y-71467635D01*
X97909995Y-71525227D01*
X97909947Y-71527280D01*
X97906710Y-71615238D01*
X97906531Y-71618343D01*
X97901069Y-71688085D01*
X97900615Y-71692336D01*
X97893112Y-71747569D01*
X97892224Y-71752742D01*
X97882646Y-71798848D01*
X97881301Y-71804294D01*
X97868737Y-71848079D01*
X97867162Y-71852938D01*
X97867162Y-71852939D01*
X97849701Y-71901166D01*
X97848289Y-71904770D01*
X97823888Y-71962577D01*
X97822889Y-71964840D01*
X97790170Y-72035743D01*
X97789670Y-72036804D01*
X97779186Y-72058622D01*
X97771066Y-72071830D01*
X97764014Y-72081020D01*
X97703104Y-72228072D01*
X97702461Y-72232954D01*
X97702461Y-72232955D01*
X97688271Y-72340737D01*
X97682328Y-72385878D01*
X97703104Y-72543684D01*
X97704988Y-72548233D01*
X97704989Y-72548236D01*
X97737701Y-72627210D01*
X97764014Y-72690736D01*
X97767013Y-72694645D01*
X97767014Y-72694646D01*
X97857912Y-72813105D01*
X97860910Y-72817012D01*
X97987186Y-72913908D01*
X98034457Y-72933488D01*
X98129686Y-72972933D01*
X98129689Y-72972934D01*
X98134238Y-72974818D01*
X98139120Y-72975461D01*
X98139121Y-72975461D01*
X98287160Y-72994951D01*
X98292044Y-72995594D01*
X98296928Y-72994951D01*
X98444967Y-72975461D01*
X98444968Y-72975461D01*
X98449850Y-72974818D01*
X98454399Y-72972934D01*
X98454402Y-72972933D01*
X98549631Y-72933488D01*
X98596902Y-72913908D01*
X98723178Y-72817012D01*
X98726176Y-72813105D01*
X98817074Y-72694646D01*
X98817075Y-72694645D01*
X98820074Y-72690736D01*
X98846387Y-72627210D01*
X98879099Y-72548236D01*
X98879100Y-72548233D01*
X98880984Y-72543684D01*
X98901760Y-72385878D01*
X98895817Y-72340737D01*
X98881627Y-72232955D01*
X98881627Y-72232954D01*
X98880984Y-72228072D01*
X98820074Y-72081020D01*
X98813022Y-72071830D01*
X98804901Y-72058622D01*
X98800118Y-72048668D01*
X98794371Y-72036708D01*
X98793885Y-72035677D01*
X98773198Y-71990845D01*
X98761198Y-71964840D01*
X98760224Y-71962635D01*
X98735808Y-71904795D01*
X98734384Y-71901159D01*
X98716925Y-71852939D01*
X98715350Y-71848079D01*
X98702786Y-71804294D01*
X98701441Y-71798848D01*
X98691863Y-71752742D01*
X98690975Y-71747569D01*
X98683472Y-71692336D01*
X98683018Y-71688085D01*
X98677556Y-71618343D01*
X98677377Y-71615238D01*
X98674140Y-71527280D01*
X98674092Y-71525226D01*
X98673547Y-71467681D01*
X98673544Y-71466969D01*
X98673544Y-70442778D01*
X98675228Y-70426951D01*
X98677082Y-70418341D01*
X98677082Y-70418339D01*
X98678390Y-70412264D01*
X98676150Y-70393339D01*
X98687940Y-70343269D01*
X98729156Y-70312491D01*
X98750829Y-70309300D01*
X100538695Y-70309300D01*
X100541843Y-70309366D01*
X100605929Y-70312052D01*
X100610916Y-70310882D01*
X100610919Y-70310882D01*
X100651388Y-70301390D01*
X100658354Y-70300099D01*
X100681564Y-70296919D01*
X100704621Y-70293761D01*
X100722969Y-70285821D01*
X100735656Y-70281625D01*
X100755120Y-70277060D01*
X100796042Y-70254563D01*
X100802403Y-70251447D01*
X100845256Y-70232903D01*
X100860791Y-70220323D01*
X100871887Y-70212867D01*
X100885947Y-70205138D01*
X100885951Y-70205136D01*
X100889404Y-70203237D01*
X100894498Y-70198839D01*
X100896610Y-70197017D01*
X100896618Y-70197010D01*
X100897652Y-70196117D01*
X100924530Y-70169239D01*
X100930379Y-70163972D01*
X100964345Y-70136467D01*
X100967315Y-70132288D01*
X100977988Y-70117270D01*
X100986112Y-70107657D01*
X101516969Y-69576800D01*
X107025084Y-69576800D01*
X107045860Y-69734606D01*
X107106770Y-69881658D01*
X107109769Y-69885567D01*
X107109770Y-69885568D01*
X107197659Y-70000106D01*
X107203666Y-70007934D01*
X107207573Y-70010932D01*
X107320747Y-70097774D01*
X107329942Y-70104830D01*
X107388118Y-70128927D01*
X107472442Y-70163855D01*
X107472445Y-70163856D01*
X107476994Y-70165740D01*
X107481876Y-70166383D01*
X107481877Y-70166383D01*
X107629916Y-70185873D01*
X107634800Y-70186516D01*
X107639684Y-70185873D01*
X107787723Y-70166383D01*
X107787724Y-70166383D01*
X107792606Y-70165740D01*
X107797155Y-70163856D01*
X107797158Y-70163855D01*
X107935106Y-70106716D01*
X107935109Y-70106714D01*
X107939658Y-70104830D01*
X107948853Y-70097774D01*
X107962059Y-70089656D01*
X107983967Y-70079128D01*
X107985000Y-70078642D01*
X108055814Y-70045965D01*
X108058076Y-70044966D01*
X108095492Y-70029171D01*
X108095553Y-70029146D01*
X108115872Y-70020568D01*
X108119519Y-70019139D01*
X108167738Y-70001681D01*
X108172598Y-70000106D01*
X108216386Y-69987542D01*
X108221830Y-69986197D01*
X108267940Y-69976618D01*
X108273110Y-69975731D01*
X108274884Y-69975490D01*
X108293267Y-69972992D01*
X108293269Y-69972993D01*
X108293269Y-69972992D01*
X108293270Y-69972992D01*
X108328346Y-69968227D01*
X108332590Y-69967774D01*
X108367972Y-69965003D01*
X108402331Y-69962312D01*
X108405437Y-69962133D01*
X108493435Y-69958895D01*
X108495422Y-69958849D01*
X108536102Y-69958463D01*
X108536966Y-69958455D01*
X108553001Y-69958303D01*
X108553713Y-69958300D01*
X111396070Y-69958300D01*
X111411897Y-69959984D01*
X111420503Y-69961837D01*
X111420505Y-69961837D01*
X111426580Y-69963145D01*
X111463116Y-69958821D01*
X111471954Y-69958300D01*
X111476492Y-69958300D01*
X111479549Y-69957791D01*
X111479563Y-69957790D01*
X111496828Y-69954916D01*
X111500333Y-69954417D01*
X111552707Y-69948218D01*
X111558310Y-69945528D01*
X111560873Y-69944783D01*
X111561159Y-69944718D01*
X111561442Y-69944602D01*
X111563952Y-69943743D01*
X111570083Y-69942722D01*
X111616499Y-69917677D01*
X111619629Y-69916082D01*
X111662934Y-69895288D01*
X111662937Y-69895286D01*
X111667198Y-69893240D01*
X111671492Y-69889630D01*
X111672269Y-69888853D01*
X111676430Y-69885340D01*
X111681857Y-69882412D01*
X111719340Y-69841863D01*
X111721387Y-69839735D01*
X112606717Y-68954405D01*
X123207600Y-68954405D01*
X123207920Y-68959295D01*
X123221433Y-69061933D01*
X123223961Y-69071368D01*
X123276858Y-69199073D01*
X123281744Y-69207537D01*
X123365894Y-69317201D01*
X123372799Y-69324106D01*
X123482467Y-69408258D01*
X123490923Y-69413140D01*
X123618635Y-69466040D01*
X123628065Y-69468567D01*
X123730705Y-69482080D01*
X123735595Y-69482400D01*
X124995141Y-69482400D01*
X125005298Y-69478703D01*
X125008400Y-69473331D01*
X125008400Y-68624859D01*
X125004703Y-68614702D01*
X124999331Y-68611600D01*
X123220859Y-68611600D01*
X123210702Y-68615297D01*
X123207600Y-68620669D01*
X123207600Y-68954405D01*
X112606717Y-68954405D01*
X113165981Y-68395141D01*
X123207600Y-68395141D01*
X123211297Y-68405298D01*
X123216669Y-68408400D01*
X124995141Y-68408400D01*
X125005298Y-68404703D01*
X125008400Y-68399331D01*
X125008400Y-67550859D01*
X125004703Y-67540702D01*
X124999331Y-67537600D01*
X123735595Y-67537600D01*
X123730705Y-67537920D01*
X123628067Y-67551433D01*
X123618632Y-67553961D01*
X123490927Y-67606858D01*
X123482463Y-67611744D01*
X123372799Y-67695894D01*
X123365894Y-67702799D01*
X123281742Y-67812467D01*
X123276860Y-67820923D01*
X123223960Y-67948635D01*
X123221433Y-67958065D01*
X123207920Y-68060705D01*
X123207600Y-68065595D01*
X123207600Y-68395141D01*
X113165981Y-68395141D01*
X113458100Y-68103022D01*
X113470482Y-68093021D01*
X113477883Y-68088242D01*
X113483104Y-68084871D01*
X113505888Y-68055970D01*
X113511770Y-68049352D01*
X113514971Y-68046151D01*
X113516777Y-68043624D01*
X113526953Y-68029385D01*
X113529079Y-68026553D01*
X113536297Y-68017397D01*
X113561734Y-67985130D01*
X113563793Y-67979268D01*
X113565078Y-67976930D01*
X113565235Y-67976681D01*
X113565354Y-67976396D01*
X113566520Y-67974015D01*
X113570135Y-67968957D01*
X113585247Y-67918424D01*
X113586337Y-67915069D01*
X113589992Y-67904663D01*
X113603816Y-67865298D01*
X113604300Y-67859709D01*
X113604300Y-67858610D01*
X113604759Y-67853181D01*
X113606525Y-67847276D01*
X113604358Y-67792119D01*
X113604300Y-67789167D01*
X113604300Y-67600111D01*
X113604303Y-67599399D01*
X113604539Y-67574448D01*
X113604849Y-67541822D01*
X113604896Y-67539800D01*
X113604966Y-67537920D01*
X113608133Y-67451837D01*
X113608312Y-67448734D01*
X113613774Y-67378992D01*
X113614228Y-67374741D01*
X113621731Y-67319508D01*
X113622619Y-67314335D01*
X113632197Y-67268229D01*
X113633542Y-67262783D01*
X113637579Y-67248716D01*
X113645318Y-67221744D01*
X113646106Y-67218998D01*
X113647681Y-67214138D01*
X113665140Y-67165918D01*
X113666567Y-67162275D01*
X113667165Y-67160859D01*
X113690974Y-67104457D01*
X113691959Y-67102226D01*
X113724653Y-67031376D01*
X113725155Y-67030311D01*
X113725156Y-67030310D01*
X113735657Y-67008458D01*
X113743774Y-66995254D01*
X113747747Y-66990076D01*
X113750830Y-66986058D01*
X113752714Y-66981509D01*
X113752716Y-66981506D01*
X113809855Y-66843558D01*
X113809856Y-66843555D01*
X113811740Y-66839006D01*
X113818304Y-66789153D01*
X113831873Y-66686084D01*
X113832516Y-66681200D01*
X113825104Y-66624898D01*
X113812383Y-66528277D01*
X113812383Y-66528276D01*
X113811740Y-66523394D01*
X113807171Y-66512362D01*
X113768873Y-66419902D01*
X113750830Y-66376342D01*
X113738426Y-66360176D01*
X113656932Y-66253973D01*
X113653934Y-66250066D01*
X113559721Y-66177773D01*
X113531568Y-66156170D01*
X113531567Y-66156169D01*
X113527658Y-66153170D01*
X113436373Y-66115359D01*
X113385158Y-66094145D01*
X113385155Y-66094144D01*
X113380606Y-66092260D01*
X113375724Y-66091617D01*
X113375723Y-66091617D01*
X113227684Y-66072127D01*
X113222800Y-66071484D01*
X113217916Y-66072127D01*
X113069877Y-66091617D01*
X113069876Y-66091617D01*
X113064994Y-66092260D01*
X113060445Y-66094144D01*
X113060442Y-66094145D01*
X113009227Y-66115359D01*
X112917942Y-66153170D01*
X112914033Y-66156169D01*
X112914032Y-66156170D01*
X112885879Y-66177773D01*
X112791666Y-66250066D01*
X112788668Y-66253973D01*
X112707175Y-66360176D01*
X112694770Y-66376342D01*
X112676727Y-66419902D01*
X112638430Y-66512362D01*
X112633860Y-66523394D01*
X112633217Y-66528276D01*
X112633217Y-66528277D01*
X112620496Y-66624898D01*
X112613084Y-66681200D01*
X112613727Y-66686084D01*
X112627297Y-66789153D01*
X112633860Y-66839006D01*
X112635744Y-66843555D01*
X112635745Y-66843558D01*
X112692884Y-66981506D01*
X112692886Y-66981509D01*
X112694770Y-66986058D01*
X112697766Y-66989963D01*
X112697771Y-66989971D01*
X112701826Y-66995255D01*
X112709944Y-67008458D01*
X112720259Y-67029922D01*
X112720445Y-67030310D01*
X112720946Y-67031374D01*
X112753635Y-67102214D01*
X112754619Y-67104442D01*
X112778434Y-67160859D01*
X112779032Y-67162275D01*
X112780459Y-67165918D01*
X112797918Y-67214138D01*
X112799493Y-67218998D01*
X112800281Y-67221744D01*
X112808021Y-67248716D01*
X112812057Y-67262783D01*
X112813402Y-67268229D01*
X112822980Y-67314335D01*
X112823868Y-67319508D01*
X112831371Y-67374741D01*
X112831825Y-67378992D01*
X112837287Y-67448734D01*
X112837466Y-67451837D01*
X112840634Y-67537920D01*
X112840703Y-67539800D01*
X112840750Y-67541821D01*
X112840879Y-67555373D01*
X112841297Y-67599444D01*
X112841300Y-67600157D01*
X112841300Y-67609629D01*
X112823707Y-67657967D01*
X112819274Y-67662803D01*
X111308803Y-69173274D01*
X111262183Y-69195014D01*
X111255629Y-69195300D01*
X108553757Y-69195300D01*
X108553044Y-69195297D01*
X108552830Y-69195295D01*
X108495421Y-69194750D01*
X108493435Y-69194704D01*
X108405437Y-69191466D01*
X108402330Y-69191287D01*
X108391184Y-69190414D01*
X108367971Y-69188596D01*
X108332586Y-69185825D01*
X108328346Y-69185372D01*
X108293270Y-69180607D01*
X108273111Y-69177868D01*
X108267940Y-69176981D01*
X108221830Y-69167402D01*
X108216386Y-69166057D01*
X108172598Y-69153493D01*
X108167738Y-69151918D01*
X108119519Y-69134460D01*
X108115872Y-69133031D01*
X108095553Y-69124453D01*
X108095492Y-69124428D01*
X108058075Y-69108633D01*
X108055813Y-69107634D01*
X107985001Y-69074958D01*
X107983940Y-69074458D01*
X107962059Y-69063944D01*
X107948848Y-69055822D01*
X107948148Y-69055285D01*
X107939658Y-69048770D01*
X107935100Y-69046882D01*
X107797158Y-68989745D01*
X107797155Y-68989744D01*
X107792606Y-68987860D01*
X107787724Y-68987217D01*
X107787723Y-68987217D01*
X107639684Y-68967727D01*
X107634800Y-68967084D01*
X107629916Y-68967727D01*
X107481877Y-68987217D01*
X107481876Y-68987217D01*
X107476994Y-68987860D01*
X107472445Y-68989744D01*
X107472442Y-68989745D01*
X107388118Y-69024673D01*
X107329942Y-69048770D01*
X107326033Y-69051769D01*
X107326032Y-69051770D01*
X107310167Y-69063944D01*
X107203666Y-69145666D01*
X107200668Y-69149573D01*
X107165800Y-69195014D01*
X107106770Y-69271942D01*
X107104884Y-69276496D01*
X107048285Y-69413140D01*
X107045860Y-69418994D01*
X107025084Y-69576800D01*
X101516969Y-69576800D01*
X103143494Y-67950276D01*
X103145767Y-67948095D01*
X103189226Y-67908133D01*
X103189228Y-67908131D01*
X103192999Y-67904663D01*
X103195700Y-67900306D01*
X103195703Y-67900303D01*
X103217603Y-67864981D01*
X103221616Y-67859141D01*
X103221735Y-67858985D01*
X103249851Y-67821943D01*
X103257212Y-67803352D01*
X103263215Y-67791417D01*
X103273749Y-67774426D01*
X103280319Y-67751814D01*
X103286778Y-67729583D01*
X103289067Y-67722896D01*
X103306262Y-67679466D01*
X103308351Y-67659585D01*
X103310925Y-67646467D01*
X103315402Y-67631059D01*
X103315402Y-67631057D01*
X103316502Y-67627272D01*
X103317300Y-67616405D01*
X103317300Y-67578389D01*
X103317712Y-67570528D01*
X103321744Y-67532166D01*
X103322280Y-67527067D01*
X103318353Y-67503849D01*
X103317300Y-67491309D01*
X103317300Y-59112000D01*
X103469084Y-59112000D01*
X103469727Y-59116884D01*
X103489164Y-59264516D01*
X103489860Y-59269806D01*
X103491744Y-59274355D01*
X103491745Y-59274358D01*
X103519587Y-59341574D01*
X103550770Y-59416858D01*
X103553769Y-59420767D01*
X103553770Y-59420768D01*
X103608528Y-59492129D01*
X103647666Y-59543134D01*
X103651573Y-59546132D01*
X103769824Y-59636870D01*
X103773942Y-59640030D01*
X103805038Y-59652910D01*
X103916442Y-59699055D01*
X103916445Y-59699056D01*
X103920994Y-59700940D01*
X103925876Y-59701583D01*
X103925877Y-59701583D01*
X104073916Y-59721073D01*
X104078800Y-59721716D01*
X104083684Y-59721073D01*
X104231723Y-59701583D01*
X104231724Y-59701583D01*
X104236606Y-59700940D01*
X104241155Y-59699056D01*
X104241158Y-59699055D01*
X104352562Y-59652910D01*
X104383658Y-59640030D01*
X104387777Y-59636870D01*
X104506027Y-59546132D01*
X104509934Y-59543134D01*
X104549072Y-59492129D01*
X104603830Y-59420768D01*
X104603831Y-59420767D01*
X104606830Y-59416858D01*
X104667740Y-59269806D01*
X104669253Y-59258315D01*
X104672850Y-59243238D01*
X104680915Y-59220251D01*
X104681271Y-59219259D01*
X104708272Y-59145988D01*
X104709120Y-59143801D01*
X104732761Y-59085618D01*
X104734325Y-59082038D01*
X104756080Y-59035589D01*
X104758404Y-59031038D01*
X104780476Y-58991204D01*
X104783360Y-58986427D01*
X104809237Y-58946980D01*
X104812247Y-58942724D01*
X104822769Y-58928894D01*
X104845979Y-58898385D01*
X104848660Y-58895060D01*
X104854718Y-58887973D01*
X104894145Y-58841848D01*
X104896184Y-58839561D01*
X104956136Y-58775027D01*
X104957548Y-58773549D01*
X104958679Y-58772397D01*
X104978068Y-58752636D01*
X104997808Y-58732518D01*
X104998310Y-58732012D01*
X106482596Y-57247726D01*
X106529216Y-57225986D01*
X106535770Y-57225700D01*
X106596068Y-57225700D01*
X106596781Y-57225703D01*
X106612597Y-57225853D01*
X106612600Y-57225853D01*
X106654377Y-57226249D01*
X106656364Y-57226295D01*
X106744362Y-57229533D01*
X106747468Y-57229712D01*
X106781828Y-57232403D01*
X106817213Y-57235174D01*
X106821453Y-57235627D01*
X106856529Y-57240392D01*
X106872266Y-57242530D01*
X106876689Y-57243131D01*
X106881859Y-57244018D01*
X106927969Y-57253597D01*
X106933413Y-57254942D01*
X106977201Y-57267506D01*
X106982061Y-57269081D01*
X107030280Y-57286539D01*
X107033927Y-57287968D01*
X107054282Y-57296561D01*
X107054306Y-57296571D01*
X107091735Y-57312371D01*
X107093983Y-57313364D01*
X107164830Y-57346055D01*
X107165840Y-57346531D01*
X107175071Y-57350967D01*
X107187740Y-57357055D01*
X107200944Y-57365173D01*
X107206228Y-57369227D01*
X107210142Y-57372230D01*
X107268318Y-57396327D01*
X107352642Y-57431255D01*
X107352645Y-57431256D01*
X107357194Y-57433140D01*
X107362076Y-57433783D01*
X107362077Y-57433783D01*
X107510116Y-57453273D01*
X107515000Y-57453916D01*
X107519884Y-57453273D01*
X107667923Y-57433783D01*
X107667924Y-57433783D01*
X107672806Y-57433140D01*
X107677355Y-57431256D01*
X107677358Y-57431255D01*
X107761682Y-57396327D01*
X107819858Y-57372230D01*
X107839635Y-57357055D01*
X107942227Y-57278332D01*
X107946134Y-57275334D01*
X107952792Y-57266657D01*
X108040030Y-57152968D01*
X108040031Y-57152967D01*
X108043030Y-57149058D01*
X108068965Y-57086444D01*
X108102055Y-57006558D01*
X108102056Y-57006555D01*
X108103940Y-57002006D01*
X108109486Y-56959885D01*
X108124073Y-56849084D01*
X108124716Y-56844200D01*
X108108944Y-56724400D01*
X108104583Y-56691277D01*
X108104583Y-56691276D01*
X108103940Y-56686394D01*
X108101074Y-56679473D01*
X108059951Y-56580194D01*
X108043030Y-56539342D01*
X108039623Y-56534901D01*
X107949132Y-56416973D01*
X107946134Y-56413066D01*
X107853662Y-56342109D01*
X107823768Y-56319170D01*
X107823767Y-56319169D01*
X107819858Y-56316170D01*
X107757324Y-56290268D01*
X107677358Y-56257145D01*
X107677355Y-56257144D01*
X107672806Y-56255260D01*
X107667924Y-56254617D01*
X107667923Y-56254617D01*
X107519884Y-56235127D01*
X107515000Y-56234484D01*
X107510116Y-56235127D01*
X107362077Y-56254617D01*
X107362076Y-56254617D01*
X107357194Y-56255260D01*
X107352645Y-56257144D01*
X107352642Y-56257145D01*
X107272676Y-56290268D01*
X107210142Y-56316170D01*
X107206233Y-56319169D01*
X107206232Y-56319170D01*
X107200953Y-56323221D01*
X107187746Y-56331340D01*
X107165835Y-56341869D01*
X107164772Y-56342370D01*
X107093986Y-56375034D01*
X107091724Y-56376033D01*
X107054307Y-56391828D01*
X107054246Y-56391853D01*
X107033927Y-56400431D01*
X107030280Y-56401860D01*
X106982061Y-56419318D01*
X106977201Y-56420893D01*
X106933413Y-56433457D01*
X106927969Y-56434802D01*
X106881859Y-56444381D01*
X106876688Y-56445268D01*
X106856532Y-56448007D01*
X106856530Y-56448006D01*
X106856530Y-56448007D01*
X106856529Y-56448007D01*
X106821453Y-56452772D01*
X106817209Y-56453225D01*
X106781827Y-56455996D01*
X106747468Y-56458687D01*
X106744362Y-56458866D01*
X106656364Y-56462104D01*
X106654378Y-56462150D01*
X106598157Y-56462684D01*
X106596755Y-56462697D01*
X106596042Y-56462700D01*
X106395334Y-56462700D01*
X106379507Y-56461016D01*
X106370897Y-56459162D01*
X106370895Y-56459162D01*
X106364820Y-56457854D01*
X106328920Y-56462103D01*
X106328278Y-56462179D01*
X106319439Y-56462700D01*
X106314908Y-56462700D01*
X106308538Y-56463760D01*
X106294594Y-56466081D01*
X106291086Y-56466581D01*
X106272448Y-56468787D01*
X106238693Y-56472782D01*
X106233090Y-56475472D01*
X106230527Y-56476217D01*
X106230242Y-56476282D01*
X106229956Y-56476399D01*
X106227450Y-56477257D01*
X106221317Y-56478278D01*
X106182513Y-56499216D01*
X106174927Y-56503309D01*
X106171768Y-56504919D01*
X106128471Y-56525709D01*
X106128468Y-56525711D01*
X106124203Y-56527759D01*
X106119908Y-56531369D01*
X106119121Y-56532156D01*
X106114969Y-56535660D01*
X106109543Y-56538588D01*
X106105324Y-56543153D01*
X106105323Y-56543153D01*
X106072073Y-56579123D01*
X106070026Y-56581251D01*
X104458826Y-58192451D01*
X104458318Y-58192955D01*
X104432896Y-58217898D01*
X104432892Y-58217902D01*
X104417249Y-58233251D01*
X104415764Y-58234669D01*
X104351241Y-58294612D01*
X104348920Y-58296680D01*
X104336578Y-58307230D01*
X104318235Y-58322909D01*
X104318232Y-58322911D01*
X104295745Y-58342132D01*
X104292416Y-58344818D01*
X104250876Y-58376421D01*
X104248068Y-58378557D01*
X104243787Y-58381583D01*
X104218874Y-58397926D01*
X104204395Y-58407424D01*
X104199595Y-58410323D01*
X104159761Y-58432395D01*
X104155210Y-58434719D01*
X104108761Y-58456474D01*
X104105181Y-58458038D01*
X104047026Y-58481668D01*
X104044752Y-58482549D01*
X103971520Y-58509535D01*
X103970551Y-58509884D01*
X103952808Y-58516109D01*
X103947558Y-58517951D01*
X103932483Y-58521547D01*
X103920994Y-58523060D01*
X103773942Y-58583970D01*
X103770033Y-58586969D01*
X103770032Y-58586970D01*
X103654473Y-58675643D01*
X103647666Y-58680866D01*
X103644668Y-58684773D01*
X103575408Y-58775034D01*
X103550770Y-58807142D01*
X103527123Y-58864231D01*
X103492348Y-58948188D01*
X103489860Y-58954194D01*
X103489217Y-58959076D01*
X103489217Y-58959077D01*
X103474837Y-59068306D01*
X103469084Y-59112000D01*
X103317300Y-59112000D01*
X103317300Y-58231817D01*
X103334893Y-58183479D01*
X103339326Y-58178643D01*
X105507644Y-56010326D01*
X105554264Y-55988586D01*
X105560818Y-55988300D01*
X110611536Y-55988300D01*
X110659874Y-56005893D01*
X110685594Y-56050442D01*
X110676661Y-56101100D01*
X110637256Y-56134165D01*
X110618697Y-56138358D01*
X110618272Y-56138399D01*
X110617475Y-56138475D01*
X110614941Y-56138730D01*
X110614648Y-56138761D01*
X110610594Y-56139223D01*
X110554974Y-56146013D01*
X110532462Y-56148761D01*
X110532437Y-56148764D01*
X110532381Y-56148771D01*
X110529363Y-56149158D01*
X110506433Y-56152236D01*
X110454019Y-56159273D01*
X110453632Y-56159324D01*
X110379362Y-56168903D01*
X110377848Y-56169083D01*
X110333994Y-56173837D01*
X110300908Y-56177424D01*
X110298732Y-56177627D01*
X110263656Y-56180384D01*
X110263655Y-56180384D01*
X110263644Y-56180385D01*
X110212788Y-56184382D01*
X110210344Y-56184534D01*
X110205399Y-56184761D01*
X110205383Y-56184762D01*
X110205383Y-56184761D01*
X110109322Y-56189155D01*
X110106982Y-56189226D01*
X110018238Y-56190492D01*
X110017165Y-56190500D01*
X109537730Y-56190500D01*
X109521902Y-56188815D01*
X109513302Y-56186964D01*
X109513299Y-56186964D01*
X109507220Y-56185655D01*
X109470686Y-56189979D01*
X109461847Y-56190500D01*
X109457308Y-56190500D01*
X109436973Y-56193885D01*
X109433472Y-56194383D01*
X109391341Y-56199370D01*
X109381092Y-56200583D01*
X109375493Y-56203271D01*
X109372930Y-56204016D01*
X109372643Y-56204082D01*
X109372358Y-56204198D01*
X109369847Y-56205058D01*
X109363717Y-56206078D01*
X109358249Y-56209028D01*
X109358250Y-56209028D01*
X109317301Y-56231123D01*
X109314155Y-56232726D01*
X109266602Y-56255560D01*
X109262308Y-56259170D01*
X109261531Y-56259947D01*
X109257370Y-56263460D01*
X109251943Y-56266388D01*
X109247724Y-56270953D01*
X109247723Y-56270953D01*
X109214461Y-56306936D01*
X109212414Y-56309064D01*
X107930603Y-57590874D01*
X107883983Y-57612614D01*
X107877429Y-57612900D01*
X107480334Y-57612900D01*
X107464507Y-57611216D01*
X107455897Y-57609362D01*
X107455895Y-57609362D01*
X107449820Y-57608054D01*
X107413278Y-57612379D01*
X107404439Y-57612900D01*
X107399908Y-57612900D01*
X107396340Y-57613494D01*
X107379594Y-57616281D01*
X107376086Y-57616781D01*
X107357448Y-57618987D01*
X107323693Y-57622982D01*
X107318090Y-57625672D01*
X107315527Y-57626417D01*
X107315241Y-57626482D01*
X107314958Y-57626598D01*
X107312448Y-57627457D01*
X107306317Y-57628478D01*
X107259901Y-57653523D01*
X107256771Y-57655118D01*
X107213462Y-57675914D01*
X107213459Y-57675916D01*
X107209202Y-57677960D01*
X107204908Y-57681569D01*
X107204125Y-57682352D01*
X107199967Y-57685862D01*
X107194543Y-57688788D01*
X107190324Y-57693353D01*
X107190323Y-57693353D01*
X107157073Y-57729323D01*
X107155026Y-57731451D01*
X106383497Y-58502980D01*
X106371115Y-58512981D01*
X106358496Y-58521129D01*
X106354648Y-58526010D01*
X106335716Y-58550025D01*
X106329834Y-58556643D01*
X106326629Y-58559848D01*
X106321335Y-58567257D01*
X106314643Y-58576621D01*
X106312515Y-58579455D01*
X106284855Y-58614542D01*
X106279866Y-58620870D01*
X106277808Y-58626731D01*
X106276520Y-58629073D01*
X106276367Y-58629316D01*
X106276250Y-58629596D01*
X106275079Y-58631986D01*
X106271466Y-58637043D01*
X106269685Y-58642999D01*
X106256360Y-58687554D01*
X106255267Y-58690918D01*
X106237784Y-58740702D01*
X106237300Y-58746291D01*
X106237300Y-58747390D01*
X106236841Y-58752818D01*
X106235075Y-58758724D01*
X106235319Y-58764935D01*
X106235319Y-58764936D01*
X106237242Y-58813870D01*
X106237300Y-58816823D01*
X106237300Y-59011970D01*
X106219707Y-59060308D01*
X106175158Y-59086028D01*
X106124500Y-59077095D01*
X106092624Y-59040747D01*
X106081916Y-59014896D01*
X106080030Y-59010342D01*
X106076550Y-59005806D01*
X105986132Y-58887973D01*
X105983134Y-58884066D01*
X105926606Y-58840690D01*
X105860768Y-58790170D01*
X105860767Y-58790169D01*
X105856858Y-58787170D01*
X105774443Y-58753033D01*
X105714358Y-58728145D01*
X105714355Y-58728144D01*
X105709806Y-58726260D01*
X105704924Y-58725617D01*
X105704923Y-58725617D01*
X105556884Y-58706127D01*
X105552000Y-58705484D01*
X105547116Y-58706127D01*
X105399077Y-58725617D01*
X105399076Y-58725617D01*
X105394194Y-58726260D01*
X105389645Y-58728144D01*
X105389642Y-58728145D01*
X105329557Y-58753033D01*
X105247142Y-58787170D01*
X105243233Y-58790169D01*
X105243232Y-58790170D01*
X105177394Y-58840690D01*
X105120866Y-58884066D01*
X105117868Y-58887973D01*
X105027451Y-59005806D01*
X105023970Y-59010342D01*
X104963060Y-59157394D01*
X104961619Y-59168340D01*
X104961547Y-59168884D01*
X104957951Y-59183957D01*
X104957685Y-59184716D01*
X104951126Y-59203413D01*
X104949908Y-59206884D01*
X104949528Y-59207942D01*
X104925052Y-59274359D01*
X104922551Y-59281146D01*
X104921668Y-59283426D01*
X104898041Y-59341574D01*
X104896474Y-59345161D01*
X104874719Y-59391610D01*
X104872395Y-59396161D01*
X104850323Y-59435995D01*
X104847439Y-59440772D01*
X104821562Y-59480219D01*
X104818558Y-59484466D01*
X104792743Y-59518400D01*
X104784825Y-59528808D01*
X104782145Y-59532132D01*
X104736654Y-59585351D01*
X104734615Y-59587638D01*
X104688730Y-59637030D01*
X104674673Y-59652161D01*
X104673256Y-59653645D01*
X104633028Y-59694644D01*
X104632526Y-59695151D01*
X104300696Y-60026982D01*
X104288311Y-60036984D01*
X104275696Y-60045129D01*
X104261008Y-60063760D01*
X104252916Y-60074025D01*
X104247034Y-60080643D01*
X104243829Y-60083848D01*
X104242027Y-60086370D01*
X104231843Y-60100621D01*
X104229715Y-60103455D01*
X104216123Y-60120697D01*
X104197066Y-60144870D01*
X104195008Y-60150731D01*
X104193720Y-60153073D01*
X104193567Y-60153316D01*
X104193450Y-60153596D01*
X104192279Y-60155986D01*
X104188666Y-60161043D01*
X104182661Y-60181124D01*
X104173560Y-60211554D01*
X104172467Y-60214918D01*
X104154984Y-60264702D01*
X104154500Y-60270291D01*
X104154500Y-60271390D01*
X104154041Y-60276818D01*
X104152275Y-60282724D01*
X104152519Y-60288935D01*
X104152519Y-60288936D01*
X104154442Y-60337870D01*
X104154500Y-60340823D01*
X104154500Y-60987044D01*
X104154497Y-60987757D01*
X104153976Y-61042757D01*
X104153951Y-61045349D01*
X104153904Y-61047366D01*
X104151085Y-61123970D01*
X104150666Y-61135360D01*
X104150487Y-61138465D01*
X104145025Y-61208207D01*
X104144571Y-61212458D01*
X104137068Y-61267691D01*
X104136180Y-61272864D01*
X104126602Y-61318970D01*
X104125259Y-61324409D01*
X104124869Y-61325768D01*
X104112693Y-61368201D01*
X104111118Y-61373060D01*
X104101408Y-61399879D01*
X104093657Y-61421288D01*
X104092245Y-61424892D01*
X104067844Y-61482699D01*
X104066845Y-61484962D01*
X104034126Y-61555865D01*
X104033626Y-61556926D01*
X104023142Y-61578744D01*
X104015022Y-61591952D01*
X104007970Y-61601142D01*
X103989691Y-61645272D01*
X103954297Y-61730723D01*
X103947060Y-61748194D01*
X103946417Y-61753076D01*
X103946417Y-61753077D01*
X103939543Y-61805292D01*
X103926284Y-61906000D01*
X103926927Y-61910884D01*
X103932996Y-61956978D01*
X103947060Y-62063806D01*
X103948944Y-62068355D01*
X103948945Y-62068358D01*
X103971159Y-62121987D01*
X104007970Y-62210858D01*
X104010969Y-62214767D01*
X104010970Y-62214768D01*
X104081514Y-62306701D01*
X104104866Y-62337134D01*
X104108773Y-62340132D01*
X104199727Y-62409924D01*
X104231142Y-62434030D01*
X104260340Y-62446124D01*
X104298266Y-62480876D01*
X104304981Y-62531876D01*
X104277342Y-62575260D01*
X104260340Y-62585076D01*
X104231142Y-62597170D01*
X104227233Y-62600169D01*
X104227232Y-62600170D01*
X104128291Y-62676091D01*
X104104866Y-62694066D01*
X104101868Y-62697973D01*
X104010970Y-62816432D01*
X104010969Y-62816433D01*
X104007970Y-62820342D01*
X103983873Y-62878518D01*
X103953470Y-62951919D01*
X103947060Y-62967394D01*
X103946417Y-62972276D01*
X103946417Y-62972277D01*
X103936921Y-63044404D01*
X103926284Y-63125200D01*
X103926927Y-63130084D01*
X103943867Y-63258750D01*
X103947060Y-63283006D01*
X103948944Y-63287555D01*
X103948945Y-63287558D01*
X103975724Y-63352208D01*
X104007970Y-63430058D01*
X104010969Y-63433967D01*
X104010970Y-63433968D01*
X104034769Y-63464983D01*
X104104866Y-63556334D01*
X104108773Y-63559332D01*
X104218810Y-63643767D01*
X104231142Y-63653230D01*
X104372281Y-63711691D01*
X104410206Y-63746442D01*
X104416921Y-63797442D01*
X104412979Y-63809942D01*
X104406146Y-63826439D01*
X104406145Y-63826442D01*
X104404260Y-63830994D01*
X104403617Y-63835876D01*
X104403617Y-63835877D01*
X104397649Y-63881207D01*
X104383484Y-63988800D01*
X104384127Y-63993684D01*
X104402745Y-64135095D01*
X104404260Y-64146606D01*
X104453631Y-64265800D01*
X104458926Y-64295817D01*
X104459300Y-64295817D01*
X104459300Y-64318354D01*
X104459068Y-64324255D01*
X104458687Y-64329095D01*
X104457993Y-64334959D01*
X104457017Y-64341120D01*
X104454545Y-64356727D01*
X104455471Y-64362573D01*
X104458374Y-64380902D01*
X104459300Y-64392666D01*
X104459300Y-64664063D01*
X104458374Y-64675825D01*
X104454545Y-64700002D01*
X104457183Y-64716657D01*
X104457746Y-64721046D01*
X104469245Y-64837785D01*
X104470144Y-64846914D01*
X104471215Y-64850444D01*
X104471215Y-64850445D01*
X104482865Y-64888849D01*
X104512997Y-64988180D01*
X104514738Y-64991437D01*
X104565488Y-65086383D01*
X104582586Y-65118372D01*
X104584931Y-65121229D01*
X104584936Y-65121237D01*
X104621952Y-65166341D01*
X104627173Y-65174535D01*
X104627507Y-65174320D01*
X104630076Y-65178299D01*
X104632123Y-65182561D01*
X104635733Y-65186855D01*
X104650148Y-65201270D01*
X104655103Y-65206736D01*
X104662821Y-65216140D01*
X104665520Y-65219633D01*
X104675438Y-65233285D01*
X104695248Y-65247678D01*
X104704214Y-65255337D01*
X104753927Y-65305050D01*
X104761591Y-65314022D01*
X104775981Y-65333828D01*
X104780764Y-65337303D01*
X104780767Y-65337306D01*
X104786576Y-65341527D01*
X104798910Y-65352780D01*
X104891271Y-65458097D01*
X104897259Y-65465901D01*
X104988839Y-65602960D01*
X104993758Y-65611479D01*
X105066660Y-65759311D01*
X105070424Y-65768398D01*
X105088480Y-65821588D01*
X105111274Y-65888734D01*
X105123409Y-65924483D01*
X105125955Y-65933986D01*
X105158111Y-66095651D01*
X105159395Y-66105403D01*
X105168557Y-66245188D01*
X105167793Y-66261862D01*
X105166675Y-66268922D01*
X105166675Y-66268930D01*
X105165851Y-66274134D01*
X105165745Y-66274801D01*
X105167338Y-66284855D01*
X105167378Y-66285109D01*
X105167372Y-66285110D01*
X105167381Y-66285125D01*
X105167882Y-66288292D01*
X105168645Y-66295124D01*
X105169331Y-66305583D01*
X105180047Y-66469083D01*
X105218031Y-66660043D01*
X105218820Y-66662367D01*
X105218822Y-66662375D01*
X105251992Y-66760091D01*
X105280615Y-66844411D01*
X105281702Y-66846615D01*
X105281704Y-66846620D01*
X105355003Y-66995255D01*
X105366729Y-67019033D01*
X105368095Y-67021078D01*
X105368096Y-67021079D01*
X105379761Y-67038537D01*
X105474899Y-67180920D01*
X105549061Y-67265485D01*
X105555339Y-67272644D01*
X105558330Y-67276605D01*
X105558849Y-67277687D01*
X105562459Y-67281981D01*
X105569393Y-67288915D01*
X105572757Y-67292506D01*
X105589846Y-67311992D01*
X105594139Y-67317365D01*
X105602166Y-67328413D01*
X105606953Y-67331891D01*
X105621974Y-67342804D01*
X105630947Y-67350469D01*
X106018826Y-67738349D01*
X106026490Y-67747322D01*
X106037396Y-67762334D01*
X106037398Y-67762336D01*
X106040876Y-67767123D01*
X106045663Y-67770601D01*
X106045664Y-67770602D01*
X106060360Y-67781279D01*
X106064996Y-67784934D01*
X106144086Y-67852483D01*
X106147707Y-67854702D01*
X106255602Y-67920821D01*
X106255605Y-67920823D01*
X106258127Y-67922368D01*
X106291038Y-67936000D01*
X106378963Y-67972420D01*
X106378968Y-67972422D01*
X106381697Y-67973552D01*
X106384574Y-67974243D01*
X106384578Y-67974244D01*
X106450246Y-67990009D01*
X106511752Y-68004775D01*
X106514696Y-68005007D01*
X106514698Y-68005007D01*
X106562478Y-68008767D01*
X106572407Y-68010220D01*
X106574129Y-68010591D01*
X106578592Y-68012158D01*
X106584181Y-68012642D01*
X106608763Y-68012642D01*
X106614655Y-68012873D01*
X106615459Y-68012937D01*
X106621301Y-68013629D01*
X106639244Y-68016471D01*
X106639245Y-68016471D01*
X106645091Y-68017397D01*
X106650937Y-68016471D01*
X106669266Y-68013568D01*
X106681030Y-68012642D01*
X107543926Y-68012642D01*
X107544639Y-68012645D01*
X107560455Y-68012795D01*
X107560458Y-68012795D01*
X107602235Y-68013191D01*
X107604222Y-68013237D01*
X107692111Y-68016471D01*
X107692220Y-68016475D01*
X107695326Y-68016654D01*
X107729686Y-68019345D01*
X107765071Y-68022116D01*
X107769311Y-68022569D01*
X107804387Y-68027334D01*
X107822773Y-68029832D01*
X107824547Y-68030073D01*
X107829717Y-68030960D01*
X107875827Y-68040539D01*
X107881271Y-68041884D01*
X107925059Y-68054448D01*
X107929919Y-68056023D01*
X107978138Y-68073481D01*
X107981785Y-68074910D01*
X108002140Y-68083503D01*
X108002164Y-68083513D01*
X108039593Y-68099313D01*
X108041841Y-68100306D01*
X108112688Y-68132997D01*
X108113698Y-68133473D01*
X108122929Y-68137909D01*
X108135598Y-68143997D01*
X108148802Y-68152115D01*
X108154086Y-68156169D01*
X108158000Y-68159172D01*
X108197975Y-68175730D01*
X108300500Y-68218197D01*
X108300503Y-68218198D01*
X108305052Y-68220082D01*
X108309934Y-68220725D01*
X108309935Y-68220725D01*
X108457974Y-68240215D01*
X108462858Y-68240858D01*
X108467742Y-68240215D01*
X108615781Y-68220725D01*
X108615782Y-68220725D01*
X108620664Y-68220082D01*
X108625213Y-68218198D01*
X108625216Y-68218197D01*
X108727741Y-68175730D01*
X108767716Y-68159172D01*
X108778476Y-68150916D01*
X108890085Y-68065274D01*
X108893992Y-68062276D01*
X108908304Y-68043624D01*
X108987888Y-67939910D01*
X108987889Y-67939909D01*
X108990888Y-67936000D01*
X109020402Y-67864745D01*
X109049913Y-67793500D01*
X109049914Y-67793497D01*
X109051798Y-67788948D01*
X109054359Y-67769500D01*
X109071931Y-67636026D01*
X109072574Y-67631142D01*
X109060819Y-67541853D01*
X109052441Y-67478219D01*
X109052441Y-67478218D01*
X109051798Y-67473336D01*
X109047598Y-67463194D01*
X109001910Y-67352895D01*
X108990888Y-67326284D01*
X108981910Y-67314583D01*
X108896990Y-67203915D01*
X108893992Y-67200008D01*
X108886084Y-67193940D01*
X108771626Y-67106112D01*
X108771625Y-67106111D01*
X108767716Y-67103112D01*
X108680714Y-67067075D01*
X108625216Y-67044087D01*
X108625213Y-67044086D01*
X108620664Y-67042202D01*
X108615782Y-67041559D01*
X108615781Y-67041559D01*
X108467742Y-67022069D01*
X108462858Y-67021426D01*
X108457974Y-67022069D01*
X108309935Y-67041559D01*
X108309934Y-67041559D01*
X108305052Y-67042202D01*
X108300503Y-67044086D01*
X108300500Y-67044087D01*
X108245002Y-67067075D01*
X108158000Y-67103112D01*
X108154091Y-67106111D01*
X108154090Y-67106112D01*
X108148811Y-67110163D01*
X108135604Y-67118282D01*
X108113693Y-67128811D01*
X108112630Y-67129312D01*
X108044265Y-67160859D01*
X108041844Y-67161976D01*
X108039582Y-67162975D01*
X108002165Y-67178770D01*
X108002104Y-67178795D01*
X107981785Y-67187373D01*
X107978138Y-67188802D01*
X107929919Y-67206260D01*
X107925059Y-67207835D01*
X107881271Y-67220399D01*
X107875827Y-67221744D01*
X107829717Y-67231323D01*
X107824546Y-67232210D01*
X107804390Y-67234949D01*
X107804388Y-67234948D01*
X107804388Y-67234949D01*
X107804387Y-67234949D01*
X107769311Y-67239714D01*
X107765067Y-67240167D01*
X107729685Y-67242938D01*
X107695326Y-67245629D01*
X107692220Y-67245808D01*
X107604222Y-67249046D01*
X107602236Y-67249092D01*
X107546015Y-67249626D01*
X107544613Y-67249639D01*
X107543900Y-67249642D01*
X106681028Y-67249642D01*
X106669264Y-67248716D01*
X106650935Y-67245813D01*
X106645089Y-67244887D01*
X106641093Y-67245520D01*
X106593561Y-67228220D01*
X106590262Y-67225196D01*
X106587124Y-67220877D01*
X106577849Y-67214138D01*
X106567319Y-67206488D01*
X106558346Y-67198824D01*
X106170466Y-66810943D01*
X106162802Y-66801971D01*
X106151887Y-66786948D01*
X106148412Y-66782165D01*
X106143629Y-66778690D01*
X106143627Y-66778688D01*
X106141056Y-66776820D01*
X106127129Y-66763689D01*
X106059923Y-66681798D01*
X106051733Y-66669541D01*
X105991973Y-66557739D01*
X105986331Y-66544119D01*
X105949528Y-66422796D01*
X105946652Y-66408338D01*
X105936269Y-66302914D01*
X105936833Y-66283780D01*
X105937329Y-66280648D01*
X105937329Y-66280646D01*
X105938255Y-66274800D01*
X105936603Y-66264371D01*
X105935797Y-66256838D01*
X105935249Y-66247068D01*
X105925388Y-66071484D01*
X105923708Y-66041571D01*
X105923708Y-66041568D01*
X105923590Y-66039473D01*
X105916338Y-65996788D01*
X105893759Y-65863904D01*
X105884109Y-65807106D01*
X105818860Y-65580621D01*
X105815988Y-65573686D01*
X105729468Y-65364811D01*
X105728662Y-65362865D01*
X105652956Y-65225885D01*
X105615670Y-65158421D01*
X105615667Y-65158416D01*
X105614651Y-65156578D01*
X105605556Y-65143760D01*
X105479488Y-64966082D01*
X105479483Y-64966076D01*
X105478260Y-64964352D01*
X105365151Y-64837783D01*
X105363660Y-64836063D01*
X105362992Y-64835268D01*
X105362979Y-64835254D01*
X105361936Y-64834013D01*
X105360777Y-64832854D01*
X105359886Y-64831883D01*
X105359312Y-64831249D01*
X105333193Y-64802022D01*
X105328433Y-64796121D01*
X105325709Y-64792371D01*
X105325706Y-64792368D01*
X105322229Y-64787582D01*
X105315517Y-64782705D01*
X105302423Y-64773192D01*
X105293451Y-64765528D01*
X105244326Y-64716403D01*
X105222586Y-64669783D01*
X105222300Y-64663229D01*
X105222300Y-64598457D01*
X105239893Y-64550119D01*
X105268723Y-64528981D01*
X105293507Y-64518715D01*
X105293506Y-64518715D01*
X105298058Y-64516830D01*
X105424334Y-64419934D01*
X105454285Y-64380902D01*
X105518230Y-64297568D01*
X105518231Y-64297567D01*
X105521230Y-64293658D01*
X105555751Y-64210316D01*
X105580255Y-64151158D01*
X105580256Y-64151155D01*
X105582140Y-64146606D01*
X105583656Y-64135095D01*
X105602273Y-63993684D01*
X105602916Y-63988800D01*
X105588751Y-63881207D01*
X105582783Y-63835877D01*
X105582783Y-63835876D01*
X105582140Y-63830994D01*
X105580254Y-63826439D01*
X105523116Y-63688496D01*
X105521230Y-63683942D01*
X105513235Y-63673522D01*
X105427332Y-63561573D01*
X105424334Y-63557666D01*
X105298058Y-63460770D01*
X105293969Y-63459076D01*
X105261029Y-63419820D01*
X105261028Y-63368381D01*
X105278912Y-63340534D01*
X105309550Y-63310344D01*
X105309694Y-63310201D01*
X105312397Y-63307496D01*
X105312429Y-63307463D01*
X105312628Y-63307261D01*
X105312776Y-63307109D01*
X105315068Y-63304745D01*
X105315204Y-63304605D01*
X105377090Y-63239863D01*
X105377689Y-63239234D01*
X105377764Y-63239155D01*
X105378788Y-63238070D01*
X105385262Y-63231170D01*
X105385272Y-63231160D01*
X105398386Y-63217181D01*
X105447085Y-63165272D01*
X105447408Y-63164929D01*
X105463720Y-63147759D01*
X105525088Y-63083160D01*
X105525922Y-63082296D01*
X105569922Y-63037437D01*
X105581861Y-63025265D01*
X105582373Y-63024749D01*
X105838100Y-62769022D01*
X105850482Y-62759021D01*
X105855298Y-62755911D01*
X105863104Y-62750871D01*
X105876709Y-62733614D01*
X105885888Y-62721970D01*
X105891770Y-62715352D01*
X105894971Y-62712151D01*
X105897033Y-62709266D01*
X105906953Y-62695385D01*
X105909079Y-62692553D01*
X105924144Y-62673443D01*
X105941734Y-62651130D01*
X105943793Y-62645268D01*
X105945078Y-62642930D01*
X105945235Y-62642681D01*
X105945354Y-62642396D01*
X105946520Y-62640015D01*
X105950135Y-62634957D01*
X105951916Y-62629002D01*
X105965244Y-62584435D01*
X105966339Y-62581064D01*
X105968635Y-62574528D01*
X105983816Y-62531298D01*
X105984300Y-62525709D01*
X105984300Y-62524610D01*
X105984759Y-62519181D01*
X105986525Y-62513275D01*
X105984358Y-62458118D01*
X105984300Y-62455166D01*
X105984300Y-60647370D01*
X106001893Y-60599032D01*
X106006315Y-60594208D01*
X106312127Y-60288395D01*
X106358746Y-60266657D01*
X106408433Y-60279971D01*
X106437938Y-60322108D01*
X106440500Y-60341571D01*
X106440500Y-62498644D01*
X106438816Y-62514471D01*
X106435655Y-62529154D01*
X106438367Y-62552065D01*
X106439979Y-62565690D01*
X106440500Y-62574528D01*
X106440500Y-62579066D01*
X106441009Y-62582123D01*
X106441010Y-62582137D01*
X106443884Y-62599402D01*
X106444383Y-62602907D01*
X106450582Y-62655281D01*
X106453272Y-62660884D01*
X106454017Y-62663447D01*
X106454082Y-62663733D01*
X106454198Y-62664016D01*
X106455057Y-62666526D01*
X106456078Y-62672657D01*
X106481123Y-62719073D01*
X106482718Y-62722203D01*
X106501158Y-62760604D01*
X106505560Y-62769772D01*
X106509170Y-62774066D01*
X106509947Y-62774843D01*
X106513460Y-62779004D01*
X106516388Y-62784431D01*
X106520952Y-62788650D01*
X106520953Y-62788651D01*
X106556921Y-62821899D01*
X106559050Y-62823946D01*
X106672475Y-62937372D01*
X106694214Y-62983992D01*
X106694500Y-62990546D01*
X106694500Y-64143270D01*
X106692816Y-64159097D01*
X106689655Y-64173780D01*
X106692564Y-64198357D01*
X106693979Y-64210316D01*
X106694500Y-64219154D01*
X106694500Y-64223692D01*
X106695009Y-64226749D01*
X106695010Y-64226763D01*
X106697884Y-64244028D01*
X106698383Y-64247533D01*
X106704582Y-64299907D01*
X106707272Y-64305510D01*
X106708017Y-64308073D01*
X106708082Y-64308359D01*
X106708198Y-64308642D01*
X106709057Y-64311152D01*
X106710078Y-64317283D01*
X106735123Y-64363699D01*
X106736718Y-64366829D01*
X106756464Y-64407950D01*
X106759560Y-64414398D01*
X106763170Y-64418692D01*
X106763947Y-64419469D01*
X106767460Y-64423630D01*
X106770388Y-64429057D01*
X106774953Y-64433276D01*
X106774953Y-64433277D01*
X106810936Y-64466539D01*
X106813064Y-64468586D01*
X107528080Y-65183602D01*
X107528582Y-65184108D01*
X107551508Y-65207473D01*
X107568852Y-65225150D01*
X107570263Y-65226627D01*
X107630215Y-65291161D01*
X107632254Y-65293448D01*
X107677739Y-65346660D01*
X107680420Y-65349985D01*
X107711492Y-65390827D01*
X107714152Y-65394324D01*
X107717162Y-65398580D01*
X107743039Y-65438027D01*
X107745923Y-65442804D01*
X107767995Y-65482638D01*
X107770319Y-65487189D01*
X107792074Y-65533638D01*
X107793638Y-65537218D01*
X107815627Y-65591332D01*
X107817258Y-65595347D01*
X107818151Y-65597654D01*
X107845101Y-65670787D01*
X107845499Y-65671892D01*
X107853549Y-65694835D01*
X107857147Y-65709915D01*
X107858660Y-65721406D01*
X107919570Y-65868458D01*
X107922569Y-65872367D01*
X107922570Y-65872368D01*
X107994575Y-65966206D01*
X108016466Y-65994734D01*
X108020373Y-65997732D01*
X108127547Y-66079970D01*
X108142742Y-66091630D01*
X108196623Y-66113948D01*
X108285242Y-66150655D01*
X108285245Y-66150656D01*
X108289794Y-66152540D01*
X108294676Y-66153183D01*
X108294677Y-66153183D01*
X108442716Y-66172673D01*
X108447600Y-66173316D01*
X108452484Y-66172673D01*
X108600523Y-66153183D01*
X108600524Y-66153183D01*
X108605406Y-66152540D01*
X108609955Y-66150656D01*
X108609958Y-66150655D01*
X108698577Y-66113948D01*
X108752458Y-66091630D01*
X108767654Y-66079970D01*
X108874827Y-65997732D01*
X108878734Y-65994734D01*
X108900625Y-65966206D01*
X108972630Y-65872368D01*
X108972631Y-65872367D01*
X108975630Y-65868458D01*
X109011927Y-65780829D01*
X109034655Y-65725958D01*
X109034656Y-65725955D01*
X109036540Y-65721406D01*
X109041055Y-65687116D01*
X109056673Y-65568484D01*
X109057316Y-65563600D01*
X109044453Y-65465901D01*
X109037183Y-65410677D01*
X109037183Y-65410676D01*
X109036540Y-65405794D01*
X109029917Y-65389803D01*
X108994811Y-65305050D01*
X108975630Y-65258742D01*
X108970653Y-65252255D01*
X108881732Y-65136373D01*
X108878734Y-65132466D01*
X108752458Y-65035570D01*
X108665120Y-64999394D01*
X108609958Y-64976545D01*
X108609955Y-64976544D01*
X108605406Y-64974660D01*
X108593914Y-64973147D01*
X108578835Y-64969549D01*
X108555897Y-64961502D01*
X108554896Y-64961142D01*
X108481647Y-64934149D01*
X108479373Y-64933268D01*
X108421218Y-64909638D01*
X108417638Y-64908074D01*
X108371189Y-64886319D01*
X108366638Y-64883995D01*
X108326804Y-64861923D01*
X108322027Y-64859039D01*
X108282580Y-64833162D01*
X108278346Y-64830168D01*
X108233966Y-64796405D01*
X108230669Y-64793746D01*
X108217752Y-64782705D01*
X108217751Y-64782704D01*
X108177468Y-64748272D01*
X108175158Y-64746212D01*
X108110635Y-64686269D01*
X108109151Y-64684852D01*
X108091229Y-64667267D01*
X108091227Y-64667265D01*
X108068089Y-64644562D01*
X108067582Y-64644059D01*
X107479526Y-64056003D01*
X107457786Y-64009383D01*
X107457500Y-64002829D01*
X107457500Y-62850104D01*
X107459184Y-62834277D01*
X107461037Y-62825671D01*
X107461037Y-62825669D01*
X107462345Y-62819594D01*
X107458021Y-62783058D01*
X107457500Y-62774220D01*
X107457500Y-62769682D01*
X107456991Y-62766625D01*
X107456990Y-62766611D01*
X107454116Y-62749346D01*
X107453616Y-62745837D01*
X107447418Y-62693467D01*
X107444728Y-62687864D01*
X107443983Y-62685301D01*
X107443918Y-62685015D01*
X107443802Y-62684732D01*
X107442943Y-62682222D01*
X107441922Y-62676091D01*
X107416877Y-62629675D01*
X107415282Y-62626545D01*
X107394488Y-62583240D01*
X107394486Y-62583237D01*
X107392440Y-62578976D01*
X107388830Y-62574682D01*
X107388053Y-62573905D01*
X107384540Y-62569744D01*
X107381612Y-62564317D01*
X107341078Y-62526848D01*
X107338950Y-62524802D01*
X107225525Y-62411376D01*
X107203786Y-62364756D01*
X107203500Y-62358202D01*
X107203500Y-62261243D01*
X107221093Y-62212905D01*
X107265642Y-62187185D01*
X107307477Y-62191767D01*
X107358510Y-62212905D01*
X107426194Y-62240940D01*
X107437073Y-62242372D01*
X107437687Y-62242453D01*
X107452766Y-62246051D01*
X107475707Y-62254100D01*
X107476686Y-62254452D01*
X107550011Y-62281472D01*
X107552198Y-62282320D01*
X107610381Y-62305961D01*
X107613961Y-62307525D01*
X107660410Y-62329280D01*
X107664961Y-62331604D01*
X107704795Y-62353676D01*
X107709572Y-62356560D01*
X107749019Y-62382437D01*
X107753266Y-62385441D01*
X107797608Y-62419174D01*
X107800932Y-62421854D01*
X107854151Y-62467345D01*
X107856437Y-62469383D01*
X107917214Y-62525846D01*
X107920960Y-62529326D01*
X107922438Y-62530737D01*
X107923599Y-62531876D01*
X107963530Y-62571056D01*
X107964037Y-62571559D01*
X108008738Y-62616260D01*
X108016402Y-62625232D01*
X108030791Y-62645038D01*
X108049564Y-62658678D01*
X108054190Y-62662325D01*
X108134379Y-62730814D01*
X108134382Y-62730816D01*
X108136624Y-62732731D01*
X108139134Y-62734269D01*
X108139138Y-62734272D01*
X108182109Y-62760604D01*
X108253664Y-62804453D01*
X108256386Y-62805581D01*
X108256387Y-62805581D01*
X108377748Y-62855851D01*
X108377753Y-62855853D01*
X108380482Y-62856983D01*
X108383359Y-62857674D01*
X108383363Y-62857675D01*
X108504131Y-62886668D01*
X108513956Y-62889027D01*
X108516902Y-62889259D01*
X108516903Y-62889259D01*
X108534483Y-62890642D01*
X108568703Y-62893335D01*
X108578634Y-62894788D01*
X108579831Y-62895046D01*
X108584302Y-62896616D01*
X108589891Y-62897100D01*
X108613584Y-62897100D01*
X108619481Y-62897332D01*
X108622031Y-62897532D01*
X108627889Y-62898226D01*
X108644954Y-62900929D01*
X108650800Y-62901855D01*
X108656646Y-62900929D01*
X108674975Y-62898026D01*
X108686739Y-62897100D01*
X109614925Y-62897100D01*
X109626690Y-62898026D01*
X109650864Y-62901855D01*
X109662134Y-62900070D01*
X109679791Y-62899376D01*
X109762633Y-62905896D01*
X109802344Y-62909022D01*
X109813998Y-62910868D01*
X109955988Y-62944957D01*
X109967210Y-62948603D01*
X110102130Y-63004488D01*
X110112638Y-63009842D01*
X110237163Y-63086151D01*
X110246690Y-63093074D01*
X110312882Y-63149606D01*
X110340169Y-63172911D01*
X110352170Y-63185894D01*
X110358876Y-63195124D01*
X110363663Y-63198602D01*
X110363664Y-63198603D01*
X110378686Y-63209517D01*
X110387658Y-63217181D01*
X110425038Y-63254561D01*
X110432702Y-63263533D01*
X110447092Y-63283339D01*
X110451883Y-63286820D01*
X110452511Y-63287448D01*
X110456798Y-63290932D01*
X110679482Y-63492762D01*
X110679501Y-63492777D01*
X110680853Y-63494003D01*
X110775470Y-63564176D01*
X110931684Y-63680032D01*
X110933570Y-63681431D01*
X111203441Y-63843185D01*
X111289986Y-63884118D01*
X111486198Y-63976920D01*
X111486204Y-63976923D01*
X111487867Y-63977709D01*
X111784110Y-64083706D01*
X111785912Y-64084157D01*
X111785914Y-64084158D01*
X111900567Y-64112877D01*
X112089315Y-64160156D01*
X112181161Y-64173780D01*
X112185550Y-64174431D01*
X112230783Y-64198926D01*
X112234176Y-64203038D01*
X112283666Y-64267534D01*
X112287573Y-64270532D01*
X112392285Y-64350881D01*
X112409942Y-64364430D01*
X112449710Y-64380902D01*
X112552442Y-64423455D01*
X112552445Y-64423456D01*
X112556994Y-64425340D01*
X112561876Y-64425983D01*
X112561877Y-64425983D01*
X112709916Y-64445473D01*
X112714800Y-64446116D01*
X112719684Y-64445473D01*
X112867723Y-64425983D01*
X112867724Y-64425983D01*
X112872606Y-64425340D01*
X112877155Y-64423456D01*
X112877158Y-64423455D01*
X112979890Y-64380902D01*
X113019658Y-64364430D01*
X113037316Y-64350881D01*
X113142027Y-64270532D01*
X113145934Y-64267534D01*
X113170895Y-64235005D01*
X113214277Y-64207367D01*
X113265277Y-64214081D01*
X113301763Y-64256612D01*
X113346550Y-64388551D01*
X113347978Y-64432187D01*
X113346945Y-64436042D01*
X113345060Y-64440594D01*
X113324284Y-64598400D01*
X113324927Y-64603284D01*
X113342175Y-64734289D01*
X113345060Y-64756206D01*
X113346944Y-64760755D01*
X113346945Y-64760758D01*
X113369884Y-64816138D01*
X113405970Y-64903258D01*
X113408969Y-64907167D01*
X113408970Y-64907168D01*
X113483485Y-65004277D01*
X113502866Y-65029534D01*
X113506773Y-65032532D01*
X113618641Y-65118372D01*
X113629142Y-65126430D01*
X113646998Y-65133826D01*
X113771642Y-65185455D01*
X113771645Y-65185456D01*
X113776194Y-65187340D01*
X113781076Y-65187983D01*
X113781077Y-65187983D01*
X113929116Y-65207473D01*
X113934000Y-65208116D01*
X113938884Y-65207473D01*
X114086923Y-65187983D01*
X114086924Y-65187983D01*
X114091806Y-65187340D01*
X114096355Y-65185456D01*
X114096358Y-65185455D01*
X114221002Y-65133826D01*
X114238858Y-65126430D01*
X114249360Y-65118372D01*
X114361227Y-65032532D01*
X114365134Y-65029534D01*
X114384515Y-65004277D01*
X114459030Y-64907168D01*
X114459031Y-64907167D01*
X114462030Y-64903258D01*
X114498116Y-64816138D01*
X114521055Y-64760758D01*
X114521056Y-64760755D01*
X114522940Y-64756206D01*
X114525826Y-64734289D01*
X114543073Y-64603284D01*
X114543716Y-64598400D01*
X114522940Y-64440594D01*
X114519910Y-64433277D01*
X114481432Y-64340383D01*
X114462030Y-64293542D01*
X114455512Y-64285047D01*
X114368132Y-64171173D01*
X114365134Y-64167266D01*
X114331240Y-64141258D01*
X114242768Y-64073370D01*
X114242767Y-64073369D01*
X114238858Y-64070370D01*
X114091806Y-64009460D01*
X114086920Y-64008817D01*
X114086917Y-64008816D01*
X114083465Y-64008361D01*
X114037838Y-63984608D01*
X114018444Y-63941176D01*
X114013469Y-63890663D01*
X114014033Y-63871529D01*
X114014529Y-63868397D01*
X114014529Y-63868395D01*
X114015455Y-63862549D01*
X114011626Y-63838374D01*
X114010700Y-63826610D01*
X114010700Y-63770739D01*
X114011626Y-63758975D01*
X114014529Y-63740646D01*
X114015455Y-63734800D01*
X114013767Y-63724139D01*
X114013004Y-63717308D01*
X114004106Y-63581554D01*
X114000365Y-63524474D01*
X113959244Y-63317746D01*
X113956732Y-63310344D01*
X113932198Y-63238070D01*
X113891492Y-63118154D01*
X113885686Y-63106379D01*
X113799354Y-62931318D01*
X113799353Y-62931317D01*
X113798267Y-62929114D01*
X113776696Y-62896830D01*
X113722749Y-62816093D01*
X113681165Y-62753859D01*
X113589302Y-62649110D01*
X113588966Y-62648727D01*
X113586660Y-62645673D01*
X113586429Y-62645191D01*
X113584319Y-62642681D01*
X113583872Y-62642149D01*
X113583867Y-62642143D01*
X113582819Y-62640897D01*
X113578717Y-62636795D01*
X113575367Y-62633220D01*
X113553746Y-62608566D01*
X113549456Y-62603196D01*
X113546589Y-62599250D01*
X113546587Y-62599248D01*
X113543112Y-62594465D01*
X113538329Y-62590990D01*
X113538325Y-62590986D01*
X113525417Y-62581608D01*
X113508780Y-62564971D01*
X113499404Y-62552065D01*
X113499402Y-62552063D01*
X113495924Y-62547276D01*
X113491137Y-62543798D01*
X113490694Y-62543355D01*
X113485799Y-62539378D01*
X113265451Y-62339666D01*
X113252908Y-62330363D01*
X113017822Y-62156012D01*
X113017820Y-62156011D01*
X113016340Y-62154913D01*
X113014764Y-62153969D01*
X113014753Y-62153961D01*
X112834017Y-62045633D01*
X112750320Y-61995467D01*
X112571485Y-61910884D01*
X112471622Y-61863652D01*
X112471616Y-61863649D01*
X112469953Y-61862863D01*
X112177938Y-61758378D01*
X112165347Y-61755224D01*
X111946947Y-61700518D01*
X111877087Y-61683019D01*
X111875260Y-61682748D01*
X111875250Y-61682746D01*
X111622619Y-61645272D01*
X111570299Y-61637511D01*
X111568457Y-61637421D01*
X111568452Y-61637420D01*
X111273264Y-61622918D01*
X111267000Y-61622271D01*
X111266375Y-61622271D01*
X111260528Y-61621345D01*
X111254682Y-61622271D01*
X111236353Y-61625174D01*
X111224589Y-61626100D01*
X109855138Y-61626100D01*
X109843374Y-61625174D01*
X109825045Y-61622271D01*
X109819199Y-61621345D01*
X109807929Y-61623130D01*
X109790272Y-61623824D01*
X109711173Y-61617599D01*
X109673738Y-61614652D01*
X109662084Y-61612806D01*
X109525965Y-61580127D01*
X109514742Y-61576481D01*
X109385400Y-61522906D01*
X109374886Y-61517548D01*
X109255530Y-61444406D01*
X109245984Y-61437471D01*
X109208842Y-61405749D01*
X109157093Y-61361550D01*
X109145096Y-61348573D01*
X109138393Y-61339346D01*
X109118587Y-61324956D01*
X109109615Y-61317292D01*
X109011495Y-61219172D01*
X109010992Y-61218665D01*
X108978705Y-61185759D01*
X108970749Y-61177651D01*
X108969330Y-61176165D01*
X108909384Y-61111638D01*
X108907345Y-61109351D01*
X108861854Y-61056132D01*
X108859174Y-61052808D01*
X108859133Y-61052754D01*
X108825441Y-61008466D01*
X108822437Y-61004219D01*
X108796560Y-60964772D01*
X108793676Y-60959995D01*
X108771604Y-60920161D01*
X108769280Y-60915610D01*
X108747525Y-60869161D01*
X108745958Y-60865574D01*
X108742500Y-60857063D01*
X108722331Y-60807426D01*
X108721448Y-60805145D01*
X108694491Y-60731993D01*
X108694094Y-60730889D01*
X108686052Y-60707970D01*
X108682453Y-60692887D01*
X108681583Y-60686276D01*
X108681582Y-60686274D01*
X108680940Y-60681394D01*
X108620030Y-60534342D01*
X108587517Y-60491970D01*
X108526132Y-60411973D01*
X108523134Y-60408066D01*
X108489958Y-60382609D01*
X108400768Y-60314170D01*
X108400767Y-60314169D01*
X108396858Y-60311170D01*
X108328182Y-60282724D01*
X108254358Y-60252145D01*
X108254355Y-60252144D01*
X108249806Y-60250260D01*
X108244924Y-60249617D01*
X108244923Y-60249617D01*
X108096884Y-60230127D01*
X108092000Y-60229484D01*
X108087116Y-60230127D01*
X107939077Y-60249617D01*
X107939076Y-60249617D01*
X107934194Y-60250260D01*
X107929645Y-60252144D01*
X107929642Y-60252145D01*
X107855818Y-60282724D01*
X107787142Y-60311170D01*
X107783233Y-60314169D01*
X107783232Y-60314170D01*
X107694042Y-60382609D01*
X107660866Y-60408066D01*
X107657868Y-60411973D01*
X107596484Y-60491970D01*
X107563970Y-60534342D01*
X107562084Y-60538896D01*
X107506670Y-60672679D01*
X107503060Y-60681394D01*
X107502417Y-60686276D01*
X107502417Y-60686277D01*
X107486616Y-60806299D01*
X107482284Y-60839200D01*
X107498820Y-60964795D01*
X107500483Y-60977430D01*
X107489349Y-61027651D01*
X107448539Y-61058965D01*
X107435741Y-61061803D01*
X107431078Y-61062417D01*
X107426194Y-61063060D01*
X107421645Y-61064944D01*
X107421642Y-61064945D01*
X107307477Y-61112233D01*
X107256086Y-61114476D01*
X107215277Y-61083161D01*
X107203500Y-61042757D01*
X107203500Y-60421763D01*
X107221093Y-60373425D01*
X107227516Y-60366670D01*
X107243995Y-60351360D01*
X107260757Y-60335788D01*
X107263064Y-60333732D01*
X107293765Y-60307490D01*
X107293771Y-60307486D01*
X107316269Y-60288255D01*
X107319598Y-60285569D01*
X107323338Y-60282724D01*
X107363946Y-60251831D01*
X107368180Y-60248837D01*
X107407627Y-60222960D01*
X107412404Y-60220076D01*
X107452238Y-60198004D01*
X107456789Y-60195680D01*
X107503238Y-60173925D01*
X107506818Y-60172361D01*
X107565001Y-60148720D01*
X107567188Y-60147872D01*
X107640459Y-60120871D01*
X107641451Y-60120515D01*
X107664438Y-60112450D01*
X107679515Y-60108853D01*
X107680419Y-60108734D01*
X107691006Y-60107340D01*
X107838058Y-60046430D01*
X107844146Y-60041759D01*
X107960427Y-59952532D01*
X107964334Y-59949534D01*
X108021507Y-59875026D01*
X108058230Y-59827168D01*
X108058231Y-59827167D01*
X108061230Y-59823258D01*
X108100740Y-59727872D01*
X108120255Y-59680758D01*
X108120256Y-59680755D01*
X108122140Y-59676206D01*
X108124406Y-59658999D01*
X108142273Y-59523284D01*
X108142916Y-59518400D01*
X108130554Y-59424500D01*
X108122783Y-59365477D01*
X108122783Y-59365476D01*
X108122140Y-59360594D01*
X108114960Y-59343258D01*
X108076576Y-59250591D01*
X108061230Y-59213542D01*
X108056556Y-59207450D01*
X107967332Y-59091173D01*
X107964334Y-59087266D01*
X107957521Y-59082038D01*
X107841968Y-58993370D01*
X107841967Y-58993369D01*
X107838058Y-58990370D01*
X107759013Y-58957629D01*
X107695558Y-58931345D01*
X107695555Y-58931344D01*
X107691006Y-58929460D01*
X107686124Y-58928817D01*
X107686123Y-58928817D01*
X107538084Y-58909327D01*
X107533200Y-58908684D01*
X107528316Y-58909327D01*
X107380277Y-58928817D01*
X107380276Y-58928817D01*
X107375394Y-58929460D01*
X107370845Y-58931344D01*
X107370842Y-58931345D01*
X107307387Y-58957629D01*
X107228342Y-58990370D01*
X107224433Y-58993369D01*
X107224432Y-58993370D01*
X107121279Y-59072523D01*
X107072220Y-59087991D01*
X107024696Y-59068306D01*
X107000943Y-59022679D01*
X107000300Y-59012863D01*
X107000300Y-58996370D01*
X107017893Y-58948032D01*
X107022326Y-58943196D01*
X107567596Y-58397926D01*
X107614216Y-58376186D01*
X107620770Y-58375900D01*
X108017870Y-58375900D01*
X108033697Y-58377584D01*
X108042303Y-58379437D01*
X108042305Y-58379437D01*
X108048380Y-58380745D01*
X108084916Y-58376421D01*
X108093754Y-58375900D01*
X108098292Y-58375900D01*
X108101349Y-58375391D01*
X108101363Y-58375390D01*
X108118628Y-58372516D01*
X108122133Y-58372017D01*
X108174507Y-58365818D01*
X108180110Y-58363128D01*
X108182673Y-58362383D01*
X108182959Y-58362318D01*
X108183242Y-58362202D01*
X108185752Y-58361343D01*
X108191883Y-58360322D01*
X108238299Y-58335277D01*
X108241429Y-58333682D01*
X108284734Y-58312888D01*
X108284737Y-58312886D01*
X108288998Y-58310840D01*
X108293292Y-58307230D01*
X108294069Y-58306453D01*
X108298230Y-58302940D01*
X108303657Y-58300012D01*
X108341139Y-58259464D01*
X108343186Y-58257336D01*
X109624997Y-56975526D01*
X109671617Y-56953786D01*
X109678171Y-56953500D01*
X110083721Y-56953500D01*
X110085612Y-56953524D01*
X110097572Y-56953825D01*
X110162084Y-56955449D01*
X110165258Y-56955597D01*
X110206544Y-56958409D01*
X110225556Y-56959704D01*
X110230866Y-56960256D01*
X110272818Y-56966126D01*
X110280388Y-56967584D01*
X110306529Y-56974025D01*
X110315866Y-56976982D01*
X110332009Y-56983279D01*
X110341782Y-56987928D01*
X110356296Y-56996161D01*
X110364940Y-57001887D01*
X110385142Y-57017373D01*
X110391743Y-57023069D01*
X110421277Y-57051713D01*
X110425820Y-57056526D01*
X110459053Y-57094995D01*
X110461806Y-57098375D01*
X110505666Y-57155534D01*
X110509573Y-57158532D01*
X110625812Y-57247726D01*
X110631942Y-57252430D01*
X110672142Y-57269081D01*
X110774442Y-57311455D01*
X110774445Y-57311456D01*
X110778994Y-57313340D01*
X110783876Y-57313983D01*
X110783877Y-57313983D01*
X110931916Y-57333473D01*
X110936800Y-57334116D01*
X110941684Y-57333473D01*
X111089723Y-57313983D01*
X111089724Y-57313983D01*
X111094606Y-57313340D01*
X111099155Y-57311456D01*
X111099158Y-57311455D01*
X111201458Y-57269081D01*
X111241658Y-57252430D01*
X111247789Y-57247726D01*
X111364027Y-57158532D01*
X111367934Y-57155534D01*
X111420949Y-57086444D01*
X111461830Y-57033168D01*
X111461831Y-57033167D01*
X111464830Y-57029258D01*
X111496210Y-56953500D01*
X111523855Y-56886758D01*
X111523856Y-56886755D01*
X111525740Y-56882206D01*
X111533447Y-56823671D01*
X111545873Y-56729284D01*
X111546516Y-56724400D01*
X111544176Y-56706629D01*
X111526383Y-56571477D01*
X111526383Y-56571476D01*
X111525740Y-56566594D01*
X111522062Y-56557713D01*
X111482536Y-56462288D01*
X111464830Y-56419542D01*
X111457561Y-56410068D01*
X111370932Y-56297173D01*
X111367934Y-56293266D01*
X111364027Y-56290268D01*
X111245568Y-56199370D01*
X111245567Y-56199369D01*
X111241658Y-56196370D01*
X111094606Y-56135460D01*
X111093468Y-56135310D01*
X111052512Y-56106632D01*
X111039199Y-56056945D01*
X111060939Y-56010325D01*
X111107560Y-55988586D01*
X111114113Y-55988300D01*
X111562983Y-55988300D01*
X111611321Y-56005893D01*
X111616157Y-56010326D01*
X112692274Y-57086444D01*
X112714014Y-57133064D01*
X112714300Y-57139618D01*
X112714300Y-58031095D01*
X112714234Y-58034243D01*
X112711548Y-58098329D01*
X112712718Y-58103316D01*
X112712718Y-58103319D01*
X112722210Y-58143788D01*
X112723501Y-58150754D01*
X112729839Y-58197021D01*
X112737778Y-58215367D01*
X112741975Y-58228056D01*
X112746540Y-58247520D01*
X112768753Y-58287926D01*
X112769037Y-58288442D01*
X112772153Y-58294803D01*
X112790697Y-58337656D01*
X112793925Y-58341642D01*
X112803277Y-58353191D01*
X112810733Y-58364287D01*
X112818462Y-58378347D01*
X112818464Y-58378351D01*
X112820363Y-58381804D01*
X112823724Y-58385697D01*
X112826583Y-58389010D01*
X112826590Y-58389018D01*
X112827483Y-58390052D01*
X112846385Y-58408954D01*
X112859228Y-58426116D01*
X112864314Y-58435441D01*
X112874195Y-58452023D01*
X112875164Y-58453517D01*
X112886330Y-58469374D01*
X112886774Y-58469956D01*
X112886777Y-58469960D01*
X112954014Y-58558084D01*
X112961013Y-58567257D01*
X112961386Y-58567717D01*
X112968785Y-58576847D01*
X112970360Y-58578791D01*
X112971250Y-58579826D01*
X112971619Y-58580231D01*
X112971637Y-58580251D01*
X112977612Y-58586803D01*
X112981223Y-58590763D01*
X113063510Y-58675880D01*
X113070920Y-58683236D01*
X113071618Y-58683901D01*
X113071884Y-58684144D01*
X113071901Y-58684160D01*
X113076199Y-58688088D01*
X113079366Y-58690983D01*
X113163024Y-58764336D01*
X113163119Y-58764417D01*
X113163167Y-58764459D01*
X113167134Y-58767855D01*
X113167565Y-58768224D01*
X113167998Y-58768586D01*
X113172851Y-58772542D01*
X113251688Y-58835216D01*
X113251886Y-58835371D01*
X113253146Y-58836359D01*
X113253183Y-58836391D01*
X113253181Y-58836394D01*
X113253250Y-58836448D01*
X113312797Y-58883096D01*
X113316243Y-58885965D01*
X113316494Y-58886187D01*
X113336149Y-58913738D01*
X113343442Y-58931345D01*
X113355170Y-58959658D01*
X113452066Y-59085934D01*
X113455973Y-59088932D01*
X113569754Y-59176240D01*
X113578342Y-59182830D01*
X113636414Y-59206884D01*
X113720842Y-59241855D01*
X113720845Y-59241856D01*
X113725394Y-59243740D01*
X113730276Y-59244383D01*
X113730277Y-59244383D01*
X113878316Y-59263873D01*
X113883200Y-59264516D01*
X113888084Y-59263873D01*
X114036123Y-59244383D01*
X114036124Y-59244383D01*
X114041006Y-59243740D01*
X114045555Y-59241856D01*
X114045558Y-59241855D01*
X114129986Y-59206884D01*
X114188058Y-59182830D01*
X114196647Y-59176240D01*
X114310427Y-59088932D01*
X114314334Y-59085934D01*
X114320728Y-59077601D01*
X114408230Y-58963568D01*
X114408232Y-58963565D01*
X114411230Y-58959658D01*
X114437987Y-58895060D01*
X114470255Y-58817158D01*
X114470256Y-58817155D01*
X114472140Y-58812606D01*
X114473699Y-58800769D01*
X114492273Y-58659684D01*
X114492916Y-58654800D01*
X114472140Y-58496994D01*
X114472516Y-58496945D01*
X114476740Y-58448668D01*
X114513113Y-58412295D01*
X114564357Y-58407811D01*
X114598068Y-58427275D01*
X115105274Y-58934481D01*
X115127014Y-58981101D01*
X115127300Y-58987655D01*
X115127300Y-65252255D01*
X115126405Y-65263820D01*
X115121559Y-65294955D01*
X115120246Y-65301476D01*
X115119360Y-65305050D01*
X115110386Y-65341238D01*
X115108458Y-65347741D01*
X115093895Y-65389803D01*
X115087068Y-65402516D01*
X115087837Y-65402960D01*
X115085371Y-65407231D01*
X115082370Y-65411142D01*
X115080483Y-65415698D01*
X115027878Y-65542700D01*
X115021460Y-65558194D01*
X115020817Y-65563076D01*
X115020817Y-65563077D01*
X115006562Y-65671350D01*
X115000684Y-65716000D01*
X115021460Y-65873806D01*
X115082370Y-66020858D01*
X115085369Y-66024767D01*
X115085370Y-66024768D01*
X115125427Y-66076970D01*
X115179266Y-66147134D01*
X115305542Y-66244030D01*
X115348593Y-66261862D01*
X115448042Y-66303055D01*
X115448045Y-66303056D01*
X115452594Y-66304940D01*
X115457476Y-66305583D01*
X115457477Y-66305583D01*
X115605516Y-66325073D01*
X115610400Y-66325716D01*
X115615284Y-66325073D01*
X115763323Y-66305583D01*
X115763324Y-66305583D01*
X115768206Y-66304940D01*
X115772755Y-66303056D01*
X115772758Y-66303055D01*
X115872207Y-66261862D01*
X115915258Y-66244030D01*
X116041534Y-66147134D01*
X116095373Y-66076970D01*
X116135430Y-66024768D01*
X116135431Y-66024767D01*
X116138430Y-66020858D01*
X116199340Y-65873806D01*
X116220116Y-65716000D01*
X116214238Y-65671350D01*
X116199983Y-65563077D01*
X116199983Y-65563076D01*
X116199340Y-65558194D01*
X116192923Y-65542700D01*
X116140318Y-65415700D01*
X116140317Y-65415698D01*
X116138430Y-65411142D01*
X116135426Y-65407228D01*
X116132964Y-65402963D01*
X116133738Y-65402516D01*
X116126904Y-65389803D01*
X116112341Y-65347741D01*
X116110413Y-65341238D01*
X116101439Y-65305050D01*
X116100553Y-65301476D01*
X116099240Y-65294955D01*
X116094395Y-65263827D01*
X116093500Y-65252262D01*
X116093500Y-58818954D01*
X116095354Y-58802358D01*
X116095714Y-58800769D01*
X116095714Y-58800764D01*
X116096896Y-58795542D01*
X116093644Y-58743126D01*
X116093500Y-58738469D01*
X116093500Y-58721711D01*
X116093122Y-58719075D01*
X116093122Y-58719068D01*
X116091838Y-58710104D01*
X116091223Y-58704101D01*
X116088659Y-58662768D01*
X116088658Y-58662764D01*
X116088327Y-58657425D01*
X116084258Y-58646154D01*
X116080549Y-58631279D01*
X116079609Y-58624716D01*
X116078850Y-58619416D01*
X116076104Y-58613376D01*
X116059496Y-58576847D01*
X116057221Y-58571259D01*
X116043157Y-58532303D01*
X116043156Y-58532302D01*
X116041338Y-58527265D01*
X116034267Y-58517586D01*
X116026537Y-58504358D01*
X116021574Y-58493443D01*
X116018075Y-58489383D01*
X116018073Y-58489379D01*
X115991052Y-58458019D01*
X115987300Y-58453294D01*
X115980338Y-58443765D01*
X115980336Y-58443762D01*
X115978618Y-58441411D01*
X115967028Y-58429821D01*
X115963233Y-58425735D01*
X115934738Y-58392664D01*
X115934735Y-58392661D01*
X115931244Y-58388610D01*
X115925352Y-58384791D01*
X115922477Y-58382927D01*
X115910204Y-58372997D01*
X114857525Y-57320318D01*
X114849979Y-57311508D01*
X114841275Y-57299595D01*
X114831376Y-57286046D01*
X114827688Y-57280498D01*
X114819347Y-57266657D01*
X114806556Y-57245431D01*
X114803332Y-57239490D01*
X114793921Y-57220112D01*
X114793920Y-57220110D01*
X114783877Y-57199429D01*
X114779725Y-57185607D01*
X114778859Y-57185839D01*
X114777583Y-57181078D01*
X114776940Y-57176194D01*
X114716030Y-57029142D01*
X114711373Y-57023072D01*
X114622132Y-56906773D01*
X114619134Y-56902866D01*
X114492858Y-56805970D01*
X114434682Y-56781873D01*
X114350358Y-56746945D01*
X114350355Y-56746944D01*
X114345806Y-56745060D01*
X114340924Y-56744417D01*
X114340923Y-56744417D01*
X114192884Y-56724927D01*
X114188000Y-56724284D01*
X114183116Y-56724927D01*
X114035077Y-56744417D01*
X114035076Y-56744417D01*
X114030194Y-56745060D01*
X114025645Y-56746944D01*
X114025642Y-56746945D01*
X113921444Y-56790105D01*
X113870054Y-56792348D01*
X113829244Y-56761034D01*
X113819666Y-56734931D01*
X113819435Y-56734995D01*
X113818626Y-56732098D01*
X113818164Y-56730837D01*
X113817361Y-56724979D01*
X113809419Y-56706627D01*
X113805222Y-56693935D01*
X113801830Y-56679473D01*
X113800659Y-56674480D01*
X113778166Y-56633564D01*
X113775050Y-56627203D01*
X113758540Y-56589052D01*
X113756503Y-56584344D01*
X113753277Y-56580360D01*
X113753275Y-56580357D01*
X113743923Y-56568809D01*
X113736467Y-56557713D01*
X113728736Y-56543651D01*
X113726837Y-56540196D01*
X113719717Y-56531947D01*
X113692835Y-56505065D01*
X113687568Y-56499216D01*
X113663292Y-56469238D01*
X113660067Y-56465255D01*
X113640871Y-56451613D01*
X113631260Y-56443490D01*
X113176070Y-55988300D01*
X112380754Y-55192985D01*
X112359014Y-55146365D01*
X112372328Y-55096678D01*
X112414465Y-55067173D01*
X112433928Y-55064611D01*
X114792782Y-55064611D01*
X114796764Y-55064717D01*
X114826708Y-55066305D01*
X114826638Y-55067619D01*
X114826647Y-55067622D01*
X114826717Y-55066305D01*
X114839116Y-55066962D01*
X114846707Y-55067752D01*
X114887775Y-55074146D01*
X114894688Y-55075558D01*
X114920877Y-55082204D01*
X114933499Y-55085407D01*
X114939810Y-55087307D01*
X114963371Y-55095544D01*
X114963377Y-55095546D01*
X114975191Y-55099676D01*
X114981007Y-55101986D01*
X115002706Y-55111675D01*
X115002709Y-55111676D01*
X115011491Y-55115597D01*
X115017049Y-55118359D01*
X115022228Y-55121205D01*
X115022233Y-55121208D01*
X115034442Y-55127917D01*
X115067702Y-55165045D01*
X115082370Y-55200458D01*
X115085369Y-55204367D01*
X115085370Y-55204368D01*
X115089964Y-55210355D01*
X115179266Y-55326734D01*
X115305542Y-55423630D01*
X115363282Y-55447546D01*
X115387679Y-55463848D01*
X118295846Y-58372016D01*
X121199324Y-61275494D01*
X121201505Y-61277767D01*
X121241467Y-61321226D01*
X121241469Y-61321228D01*
X121244937Y-61324999D01*
X121249294Y-61327700D01*
X121249297Y-61327703D01*
X121284619Y-61349603D01*
X121290455Y-61353613D01*
X121327657Y-61381851D01*
X121342724Y-61387817D01*
X121346248Y-61389212D01*
X121358183Y-61395215D01*
X121375174Y-61405749D01*
X121397786Y-61412319D01*
X121420017Y-61418778D01*
X121426704Y-61421067D01*
X121470134Y-61438262D01*
X121490015Y-61440351D01*
X121503131Y-61442925D01*
X121507614Y-61444227D01*
X121518541Y-61447402D01*
X121518543Y-61447402D01*
X121522328Y-61448502D01*
X121526263Y-61448791D01*
X121531831Y-61449200D01*
X121531835Y-61449200D01*
X121533195Y-61449300D01*
X121571211Y-61449300D01*
X121579072Y-61449712D01*
X121622533Y-61454280D01*
X121645751Y-61450353D01*
X121658291Y-61449300D01*
X122880945Y-61449300D01*
X122881590Y-61449303D01*
X123066289Y-61450887D01*
X123114474Y-61468894D01*
X123137403Y-61503596D01*
X123158568Y-61571135D01*
X123158570Y-61571140D01*
X123159924Y-61575460D01*
X123243241Y-61713032D01*
X123356968Y-61826759D01*
X123494540Y-61910076D01*
X123536767Y-61923309D01*
X123644213Y-61956981D01*
X123644217Y-61956982D01*
X123648015Y-61958172D01*
X123689087Y-61961946D01*
X123715180Y-61964344D01*
X123715187Y-61964344D01*
X123716881Y-61964500D01*
X125109593Y-61964500D01*
X126503118Y-61964499D01*
X126504812Y-61964343D01*
X126504820Y-61964343D01*
X126554251Y-61959801D01*
X126571985Y-61958172D01*
X126575790Y-61956980D01*
X126575798Y-61956978D01*
X126598313Y-61949922D01*
X126649700Y-61952256D01*
X126687564Y-61987075D01*
X126696000Y-62021681D01*
X126696000Y-62298319D01*
X126678407Y-62346657D01*
X126633858Y-62372377D01*
X126598313Y-62370078D01*
X126575790Y-62363020D01*
X126575786Y-62363019D01*
X126571985Y-62361828D01*
X126530913Y-62358054D01*
X126504820Y-62355656D01*
X126504813Y-62355656D01*
X126503119Y-62355500D01*
X125110407Y-62355500D01*
X123716882Y-62355501D01*
X123715188Y-62355657D01*
X123715180Y-62355657D01*
X123665749Y-62360199D01*
X123648015Y-62361828D01*
X123494540Y-62409924D01*
X123356968Y-62493241D01*
X123243241Y-62606968D01*
X123159924Y-62744540D01*
X123140795Y-62805581D01*
X123113096Y-62893970D01*
X123111828Y-62898015D01*
X123109816Y-62919913D01*
X123105854Y-62963032D01*
X123105500Y-62966881D01*
X123105500Y-63022458D01*
X123087907Y-63070796D01*
X123042897Y-63096596D01*
X122984815Y-63106464D01*
X122719010Y-63183041D01*
X122717070Y-63183845D01*
X122717066Y-63183846D01*
X122579778Y-63240713D01*
X122463449Y-63288898D01*
X122410764Y-63318016D01*
X122223192Y-63421683D01*
X122223187Y-63421686D01*
X122221349Y-63422702D01*
X122219629Y-63423922D01*
X122219628Y-63423923D01*
X122197436Y-63439669D01*
X121995751Y-63582772D01*
X121994190Y-63584167D01*
X121994175Y-63584179D01*
X121798718Y-63758852D01*
X121794017Y-63762646D01*
X121793667Y-63762996D01*
X121788876Y-63766477D01*
X121785395Y-63771268D01*
X121782170Y-63775706D01*
X121770174Y-63788683D01*
X121656005Y-63886194D01*
X121646458Y-63893130D01*
X121498740Y-63983652D01*
X121488225Y-63989010D01*
X121328165Y-64055308D01*
X121316943Y-64058954D01*
X121148488Y-64099397D01*
X121136834Y-64101243D01*
X121097931Y-64104305D01*
X120987149Y-64113024D01*
X120969492Y-64112330D01*
X120958222Y-64110545D01*
X120952376Y-64111471D01*
X120934047Y-64114374D01*
X120922283Y-64115300D01*
X120917121Y-64115300D01*
X120916001Y-64115292D01*
X120898594Y-64115033D01*
X120896081Y-64114952D01*
X120870823Y-64113722D01*
X120853482Y-64112877D01*
X120850441Y-64112667D01*
X120814516Y-64109453D01*
X120810863Y-64109036D01*
X120782247Y-64105058D01*
X120777820Y-64104307D01*
X120767238Y-64102184D01*
X120767237Y-64102184D01*
X120767237Y-64102183D01*
X120767199Y-64102176D01*
X120766406Y-64102018D01*
X120721588Y-64074076D01*
X120718136Y-64069577D01*
X120718132Y-64069573D01*
X120715134Y-64065666D01*
X120641046Y-64008816D01*
X120592768Y-63971770D01*
X120592767Y-63971769D01*
X120588858Y-63968770D01*
X120517722Y-63939305D01*
X120446358Y-63909745D01*
X120446355Y-63909744D01*
X120441806Y-63907860D01*
X120436924Y-63907217D01*
X120436923Y-63907217D01*
X120288884Y-63887727D01*
X120284000Y-63887084D01*
X120279116Y-63887727D01*
X120131077Y-63907217D01*
X120131076Y-63907217D01*
X120126194Y-63907860D01*
X120121645Y-63909744D01*
X120121642Y-63909745D01*
X120050278Y-63939305D01*
X119979142Y-63968770D01*
X119975233Y-63971769D01*
X119975232Y-63971770D01*
X119880607Y-64044379D01*
X119852866Y-64065666D01*
X119849868Y-64069573D01*
X119765981Y-64178896D01*
X119755970Y-64191942D01*
X119746800Y-64214081D01*
X119697521Y-64333053D01*
X119695060Y-64338994D01*
X119694417Y-64343876D01*
X119694417Y-64343877D01*
X119676684Y-64478573D01*
X119674284Y-64496800D01*
X119674927Y-64501684D01*
X119690867Y-64622754D01*
X119695060Y-64654606D01*
X119696944Y-64659155D01*
X119696945Y-64659158D01*
X119727600Y-64733165D01*
X119755970Y-64801658D01*
X119758969Y-64805567D01*
X119758970Y-64805568D01*
X119837627Y-64908074D01*
X119852866Y-64927934D01*
X119856773Y-64930932D01*
X119945994Y-64999394D01*
X119979142Y-65024830D01*
X120012314Y-65038570D01*
X120121642Y-65083855D01*
X120121645Y-65083856D01*
X120126194Y-65085740D01*
X120131076Y-65086383D01*
X120131077Y-65086383D01*
X120279116Y-65105873D01*
X120284000Y-65106516D01*
X120288884Y-65105873D01*
X120436923Y-65086383D01*
X120436924Y-65086383D01*
X120441806Y-65085740D01*
X120446355Y-65083856D01*
X120446358Y-65083855D01*
X120555686Y-65038570D01*
X120588858Y-65024830D01*
X120622007Y-64999394D01*
X120711227Y-64930932D01*
X120715134Y-64927934D01*
X120721588Y-64919523D01*
X120766444Y-64891574D01*
X120767231Y-64891416D01*
X120767238Y-64891415D01*
X120777820Y-64889292D01*
X120782247Y-64888541D01*
X120810863Y-64884563D01*
X120814516Y-64884146D01*
X120850441Y-64880932D01*
X120853482Y-64880722D01*
X120874094Y-64879718D01*
X120896081Y-64878647D01*
X120898597Y-64878566D01*
X120914159Y-64878335D01*
X120915954Y-64878308D01*
X120917072Y-64878300D01*
X120922283Y-64878300D01*
X120934048Y-64879226D01*
X120958222Y-64883055D01*
X120964065Y-64882130D01*
X120965284Y-64882130D01*
X120967975Y-64881829D01*
X121212310Y-64865814D01*
X121462051Y-64816138D01*
X121464378Y-64815348D01*
X121464382Y-64815347D01*
X121556423Y-64784103D01*
X121703171Y-64734289D01*
X121705375Y-64733202D01*
X121705380Y-64733200D01*
X121929341Y-64622754D01*
X121929342Y-64622753D01*
X121931545Y-64621667D01*
X121966367Y-64598400D01*
X122092931Y-64513832D01*
X122143265Y-64480200D01*
X122327358Y-64318754D01*
X122329470Y-64317068D01*
X122330337Y-64316201D01*
X122335124Y-64312723D01*
X122342822Y-64302128D01*
X122354078Y-64289790D01*
X122354259Y-64289632D01*
X122456564Y-64199912D01*
X122495220Y-64166012D01*
X122503024Y-64160023D01*
X122679706Y-64041968D01*
X122688225Y-64037050D01*
X122878799Y-63943069D01*
X122887886Y-63939305D01*
X122909488Y-63931972D01*
X123012706Y-63896934D01*
X123064132Y-63898056D01*
X123102807Y-63931972D01*
X123109630Y-63954307D01*
X123110679Y-63954097D01*
X123111463Y-63958010D01*
X123111828Y-63961985D01*
X123159924Y-64115460D01*
X123243241Y-64253032D01*
X123356968Y-64366759D01*
X123494540Y-64450076D01*
X123547074Y-64466539D01*
X123644213Y-64496981D01*
X123644217Y-64496982D01*
X123648015Y-64498172D01*
X123689087Y-64501946D01*
X123715180Y-64504344D01*
X123715187Y-64504344D01*
X123716881Y-64504500D01*
X125109593Y-64504500D01*
X126503118Y-64504499D01*
X126504812Y-64504343D01*
X126504820Y-64504343D01*
X126554251Y-64499801D01*
X126571985Y-64498172D01*
X126575790Y-64496980D01*
X126575798Y-64496978D01*
X126598313Y-64489922D01*
X126649700Y-64492256D01*
X126687564Y-64527075D01*
X126696000Y-64561681D01*
X126696000Y-64838319D01*
X126678407Y-64886657D01*
X126633858Y-64912377D01*
X126598313Y-64910078D01*
X126575790Y-64903020D01*
X126575786Y-64903019D01*
X126571985Y-64901828D01*
X126530913Y-64898054D01*
X126504820Y-64895656D01*
X126504813Y-64895656D01*
X126503119Y-64895500D01*
X125110407Y-64895500D01*
X123716882Y-64895501D01*
X123715188Y-64895657D01*
X123715180Y-64895657D01*
X123665749Y-64900199D01*
X123648015Y-64901828D01*
X123494540Y-64949924D01*
X123356968Y-65033241D01*
X123243241Y-65146968D01*
X123159924Y-65284540D01*
X123153497Y-65305050D01*
X123115829Y-65425249D01*
X123111828Y-65438015D01*
X123105500Y-65506881D01*
X123105500Y-65508802D01*
X123105489Y-65508832D01*
X123105421Y-65510320D01*
X123104955Y-65510299D01*
X123087907Y-65557140D01*
X123043358Y-65582860D01*
X123032090Y-65583981D01*
X122848984Y-65588334D01*
X122842885Y-65588479D01*
X122841098Y-65588500D01*
X120605811Y-65588500D01*
X120594047Y-65587574D01*
X120575718Y-65584671D01*
X120569872Y-65583745D01*
X120564025Y-65584671D01*
X120564024Y-65584671D01*
X120555657Y-65585996D01*
X120539679Y-65586804D01*
X120306088Y-65573686D01*
X120297714Y-65572743D01*
X120041406Y-65529194D01*
X120033198Y-65527320D01*
X119783386Y-65455350D01*
X119775426Y-65452565D01*
X119535242Y-65353078D01*
X119527644Y-65349419D01*
X119410254Y-65284540D01*
X119300100Y-65223660D01*
X119292966Y-65219176D01*
X119245279Y-65185339D01*
X119216038Y-65143019D01*
X119214239Y-65133826D01*
X119197183Y-65004277D01*
X119197183Y-65004276D01*
X119196540Y-64999394D01*
X119193245Y-64991437D01*
X119154828Y-64898691D01*
X119135630Y-64852342D01*
X119128648Y-64843242D01*
X119041732Y-64729973D01*
X119038734Y-64726066D01*
X118985963Y-64685573D01*
X118916368Y-64632170D01*
X118916367Y-64632169D01*
X118912458Y-64629170D01*
X118838172Y-64598400D01*
X118769958Y-64570145D01*
X118769955Y-64570144D01*
X118765406Y-64568260D01*
X118760524Y-64567617D01*
X118760523Y-64567617D01*
X118612484Y-64548127D01*
X118607600Y-64547484D01*
X118602716Y-64548127D01*
X118454677Y-64567617D01*
X118454676Y-64567617D01*
X118449794Y-64568260D01*
X118445245Y-64570144D01*
X118445242Y-64570145D01*
X118377028Y-64598400D01*
X118302742Y-64629170D01*
X118298833Y-64632169D01*
X118298832Y-64632170D01*
X118229237Y-64685573D01*
X118176466Y-64726066D01*
X118173468Y-64729973D01*
X118086553Y-64843242D01*
X118079570Y-64852342D01*
X118060372Y-64898691D01*
X118021956Y-64991437D01*
X118018660Y-64999394D01*
X118018017Y-65004276D01*
X118018017Y-65004277D01*
X118013502Y-65038570D01*
X117997884Y-65157200D01*
X117998527Y-65162084D01*
X118016881Y-65301490D01*
X118018660Y-65315006D01*
X118020544Y-65319555D01*
X118020545Y-65319558D01*
X118045272Y-65379255D01*
X118079570Y-65462058D01*
X118082569Y-65465967D01*
X118082570Y-65465968D01*
X118153739Y-65558716D01*
X118176466Y-65588334D01*
X118180373Y-65591332D01*
X118285360Y-65671892D01*
X118302742Y-65685230D01*
X118314444Y-65690077D01*
X118445242Y-65744255D01*
X118445245Y-65744256D01*
X118449794Y-65746140D01*
X118454676Y-65746783D01*
X118454677Y-65746783D01*
X118602716Y-65766273D01*
X118607600Y-65766916D01*
X118688903Y-65756212D01*
X118739124Y-65767346D01*
X118743514Y-65770366D01*
X118814060Y-65822687D01*
X118815636Y-65823631D01*
X118815647Y-65823639D01*
X118930551Y-65892509D01*
X119080080Y-65982133D01*
X119155798Y-66017945D01*
X119358778Y-66113948D01*
X119358784Y-66113951D01*
X119360447Y-66114737D01*
X119652462Y-66219222D01*
X119654264Y-66219673D01*
X119654266Y-66219674D01*
X119789595Y-66253572D01*
X119953313Y-66294581D01*
X119955140Y-66294852D01*
X119955150Y-66294854D01*
X120193698Y-66330239D01*
X120260101Y-66340089D01*
X120261943Y-66340179D01*
X120261948Y-66340180D01*
X120557136Y-66354682D01*
X120563400Y-66355329D01*
X120564025Y-66355329D01*
X120569872Y-66356255D01*
X120575718Y-66355329D01*
X120594047Y-66352426D01*
X120605811Y-66351500D01*
X122841101Y-66351500D01*
X122842889Y-66351521D01*
X123032089Y-66356018D01*
X123079994Y-66374755D01*
X123104648Y-66419902D01*
X123105386Y-66429681D01*
X123105422Y-66429679D01*
X123105477Y-66430878D01*
X123105501Y-66431197D01*
X123105501Y-66433118D01*
X123105657Y-66434812D01*
X123105657Y-66434820D01*
X123108579Y-66466620D01*
X123111828Y-66501985D01*
X123159924Y-66655460D01*
X123243241Y-66793032D01*
X123356968Y-66906759D01*
X123494540Y-66990076D01*
X123530784Y-67001434D01*
X123644213Y-67036981D01*
X123644217Y-67036982D01*
X123648015Y-67038172D01*
X123684875Y-67041559D01*
X123715180Y-67044344D01*
X123715187Y-67044344D01*
X123716881Y-67044500D01*
X125109593Y-67044500D01*
X126503118Y-67044499D01*
X126504812Y-67044343D01*
X126504820Y-67044343D01*
X126554251Y-67039801D01*
X126571985Y-67038172D01*
X126575790Y-67036980D01*
X126575798Y-67036978D01*
X126598313Y-67029922D01*
X126649700Y-67032256D01*
X126687564Y-67067075D01*
X126696000Y-67101681D01*
X126696000Y-67481315D01*
X126678407Y-67529653D01*
X126633858Y-67555373D01*
X126601338Y-67553953D01*
X126591933Y-67551433D01*
X126489295Y-67537920D01*
X126484405Y-67537600D01*
X125224859Y-67537600D01*
X125214702Y-67541297D01*
X125211600Y-67546669D01*
X125211600Y-69469141D01*
X125215297Y-69479298D01*
X125220669Y-69482400D01*
X126484405Y-69482400D01*
X126489295Y-69482080D01*
X126591933Y-69468567D01*
X126601338Y-69466047D01*
X126652582Y-69470531D01*
X126688955Y-69506905D01*
X126696000Y-69538685D01*
X126696000Y-72547578D01*
X126694555Y-72562248D01*
X126691024Y-72580000D01*
X126692469Y-72587265D01*
X126696000Y-72605017D01*
X126709291Y-72671839D01*
X126709292Y-72671841D01*
X126710737Y-72679106D01*
X126766876Y-72763124D01*
X126773030Y-72767236D01*
X126841678Y-72813105D01*
X126850894Y-72819263D01*
X126858159Y-72820708D01*
X126858161Y-72820709D01*
X126942735Y-72837531D01*
X126950000Y-72838976D01*
X126967752Y-72835445D01*
X126982422Y-72834000D01*
X128395907Y-72834000D01*
X128444245Y-72851593D01*
X128469965Y-72896142D01*
X128461032Y-72946800D01*
X128454704Y-72956082D01*
X128423197Y-72995594D01*
X128320389Y-73124519D01*
X128314374Y-73131200D01*
X128266470Y-73178395D01*
X128141056Y-73301952D01*
X128134283Y-73307869D01*
X127941833Y-73456696D01*
X127934401Y-73461764D01*
X127725545Y-73586554D01*
X127717562Y-73590697D01*
X127495307Y-73689655D01*
X127486885Y-73692816D01*
X127254399Y-73764531D01*
X127245661Y-73766663D01*
X127006284Y-73810105D01*
X126997353Y-73811179D01*
X126833114Y-73821019D01*
X126778888Y-73824268D01*
X126759726Y-73822958D01*
X126750000Y-73821024D01*
X126742735Y-73822469D01*
X126732248Y-73824555D01*
X126717578Y-73826000D01*
X90832422Y-73826000D01*
X90817752Y-73824555D01*
X90807265Y-73822469D01*
X90800000Y-73821024D01*
X90789847Y-73823043D01*
X90770967Y-73824369D01*
X90496757Y-73808970D01*
X90488383Y-73808027D01*
X90193112Y-73757858D01*
X90184904Y-73755984D01*
X89897115Y-73673073D01*
X89889155Y-73670288D01*
X89612457Y-73555676D01*
X89604859Y-73552017D01*
X89342732Y-73407144D01*
X89335592Y-73402657D01*
X89091340Y-73229352D01*
X89084747Y-73224094D01*
X88861434Y-73024529D01*
X88855471Y-73018566D01*
X88655906Y-72795253D01*
X88650648Y-72788660D01*
X88477343Y-72544408D01*
X88472856Y-72537268D01*
X88327983Y-72275141D01*
X88324324Y-72267543D01*
X88209712Y-71990845D01*
X88206927Y-71982885D01*
X88124016Y-71695096D01*
X88122142Y-71686888D01*
X88071973Y-71391617D01*
X88071030Y-71383243D01*
X88055631Y-71109033D01*
X88056957Y-71090150D01*
X88057531Y-71087264D01*
X88058976Y-71080000D01*
X88055445Y-71062248D01*
X88054000Y-71047578D01*
X88054000Y-67858985D01*
X88916750Y-67858985D01*
X88922462Y-67902371D01*
X88924991Y-67911812D01*
X88981921Y-68049250D01*
X88986803Y-68057707D01*
X89077365Y-68175730D01*
X89084270Y-68182635D01*
X89202293Y-68273197D01*
X89210750Y-68278079D01*
X89348188Y-68335009D01*
X89357629Y-68337538D01*
X89468081Y-68352079D01*
X89472974Y-68352400D01*
X89795141Y-68352400D01*
X89805298Y-68348703D01*
X89808400Y-68343331D01*
X89808400Y-68339141D01*
X90011600Y-68339141D01*
X90015297Y-68349298D01*
X90020669Y-68352400D01*
X90347026Y-68352400D01*
X90351919Y-68352079D01*
X90462371Y-68337538D01*
X90471812Y-68335009D01*
X90609250Y-68278079D01*
X90617707Y-68273197D01*
X90735730Y-68182635D01*
X90742635Y-68175730D01*
X90833197Y-68057707D01*
X90838079Y-68049250D01*
X90895009Y-67911812D01*
X90897538Y-67902371D01*
X90902492Y-67864745D01*
X90901215Y-67858985D01*
X92936750Y-67858985D01*
X92942462Y-67902371D01*
X92944991Y-67911812D01*
X93001921Y-68049250D01*
X93006803Y-68057707D01*
X93097365Y-68175730D01*
X93104270Y-68182635D01*
X93222293Y-68273197D01*
X93230750Y-68278079D01*
X93368188Y-68335009D01*
X93377629Y-68337538D01*
X93488081Y-68352079D01*
X93492974Y-68352400D01*
X93965141Y-68352400D01*
X93975298Y-68348703D01*
X93978400Y-68343331D01*
X93978400Y-68339141D01*
X94181600Y-68339141D01*
X94185297Y-68349298D01*
X94190669Y-68352400D01*
X94667026Y-68352400D01*
X94671919Y-68352079D01*
X94782371Y-68337538D01*
X94791812Y-68335009D01*
X94929250Y-68278079D01*
X94937707Y-68273197D01*
X95055730Y-68182635D01*
X95062635Y-68175730D01*
X95153197Y-68057707D01*
X95158079Y-68049250D01*
X95215009Y-67911812D01*
X95217538Y-67902371D01*
X95222492Y-67864745D01*
X95220152Y-67854194D01*
X95216772Y-67851600D01*
X94194859Y-67851600D01*
X94184702Y-67855297D01*
X94181600Y-67860669D01*
X94181600Y-68339141D01*
X93978400Y-68339141D01*
X93978400Y-67864859D01*
X93974703Y-67854702D01*
X93969331Y-67851600D01*
X92949037Y-67851600D01*
X92938880Y-67855297D01*
X92936750Y-67858985D01*
X90901215Y-67858985D01*
X90900152Y-67854194D01*
X90896772Y-67851600D01*
X90024859Y-67851600D01*
X90014702Y-67855297D01*
X90011600Y-67860669D01*
X90011600Y-68339141D01*
X89808400Y-68339141D01*
X89808400Y-67864859D01*
X89804703Y-67854702D01*
X89799331Y-67851600D01*
X88929037Y-67851600D01*
X88918880Y-67855297D01*
X88916750Y-67858985D01*
X88054000Y-67858985D01*
X88054000Y-67635255D01*
X88917508Y-67635255D01*
X88919848Y-67645806D01*
X88923228Y-67648400D01*
X89795141Y-67648400D01*
X89805298Y-67644703D01*
X89808400Y-67639331D01*
X89808400Y-67635141D01*
X90011600Y-67635141D01*
X90015297Y-67645298D01*
X90020669Y-67648400D01*
X90890963Y-67648400D01*
X90901120Y-67644703D01*
X90903250Y-67641015D01*
X90902492Y-67635255D01*
X92937508Y-67635255D01*
X92939848Y-67645806D01*
X92943228Y-67648400D01*
X93965141Y-67648400D01*
X93975298Y-67644703D01*
X93978400Y-67639331D01*
X93978400Y-67635141D01*
X94181600Y-67635141D01*
X94185297Y-67645298D01*
X94190669Y-67648400D01*
X95210963Y-67648400D01*
X95221120Y-67644703D01*
X95223250Y-67641015D01*
X95217538Y-67597629D01*
X95215009Y-67588188D01*
X95158079Y-67450750D01*
X95153197Y-67442293D01*
X95062635Y-67324270D01*
X95055730Y-67317365D01*
X94937707Y-67226803D01*
X94929250Y-67221921D01*
X94791812Y-67164991D01*
X94782371Y-67162462D01*
X94671919Y-67147921D01*
X94667026Y-67147600D01*
X94194859Y-67147600D01*
X94184702Y-67151297D01*
X94181600Y-67156669D01*
X94181600Y-67635141D01*
X93978400Y-67635141D01*
X93978400Y-67160859D01*
X93974703Y-67150702D01*
X93969331Y-67147600D01*
X93492974Y-67147600D01*
X93488081Y-67147921D01*
X93377629Y-67162462D01*
X93368188Y-67164991D01*
X93230750Y-67221921D01*
X93222293Y-67226803D01*
X93104270Y-67317365D01*
X93097365Y-67324270D01*
X93006803Y-67442293D01*
X93001921Y-67450750D01*
X92944991Y-67588188D01*
X92942462Y-67597629D01*
X92937508Y-67635255D01*
X90902492Y-67635255D01*
X90897538Y-67597629D01*
X90895009Y-67588188D01*
X90838079Y-67450750D01*
X90833197Y-67442293D01*
X90742635Y-67324270D01*
X90735730Y-67317365D01*
X90617707Y-67226803D01*
X90609250Y-67221921D01*
X90471812Y-67164991D01*
X90462371Y-67162462D01*
X90351919Y-67147921D01*
X90347026Y-67147600D01*
X90024859Y-67147600D01*
X90014702Y-67151297D01*
X90011600Y-67156669D01*
X90011600Y-67635141D01*
X89808400Y-67635141D01*
X89808400Y-67160859D01*
X89804703Y-67150702D01*
X89799331Y-67147600D01*
X89472974Y-67147600D01*
X89468081Y-67147921D01*
X89357629Y-67162462D01*
X89348188Y-67164991D01*
X89210750Y-67221921D01*
X89202293Y-67226803D01*
X89084270Y-67317365D01*
X89077365Y-67324270D01*
X88986803Y-67442293D01*
X88981921Y-67450750D01*
X88924991Y-67588188D01*
X88922462Y-67597629D01*
X88917508Y-67635255D01*
X88054000Y-67635255D01*
X88054000Y-66355145D01*
X93041391Y-66355145D01*
X93042405Y-66360173D01*
X93042405Y-66360176D01*
X93059382Y-66444368D01*
X93071420Y-66504071D01*
X93073748Y-66508640D01*
X93095435Y-66551204D01*
X93140392Y-66639436D01*
X93143863Y-66643211D01*
X93143864Y-66643212D01*
X93239754Y-66747491D01*
X93239757Y-66747493D01*
X93243226Y-66751266D01*
X93372344Y-66831323D01*
X93377268Y-66832754D01*
X93377269Y-66832754D01*
X93514445Y-66872608D01*
X93518235Y-66873709D01*
X93524254Y-66874151D01*
X93527643Y-66874400D01*
X93527647Y-66874400D01*
X93529007Y-66874500D01*
X93638057Y-66874500D01*
X93640596Y-66874152D01*
X93640599Y-66874152D01*
X93745438Y-66859791D01*
X93745439Y-66859791D01*
X93750518Y-66859095D01*
X93755223Y-66857059D01*
X93885245Y-66800793D01*
X93885249Y-66800791D01*
X93889946Y-66798758D01*
X94008013Y-66703150D01*
X94036991Y-66662375D01*
X94093048Y-66583495D01*
X94096020Y-66579313D01*
X94097756Y-66574490D01*
X94097758Y-66574487D01*
X94145746Y-66441193D01*
X94147482Y-66436371D01*
X94158609Y-66284855D01*
X94156448Y-66274134D01*
X94129594Y-66140958D01*
X94128580Y-66135929D01*
X94059608Y-66000564D01*
X94056136Y-65996788D01*
X93960246Y-65892509D01*
X93960243Y-65892507D01*
X93956774Y-65888734D01*
X93827656Y-65808677D01*
X93731805Y-65780829D01*
X93685555Y-65767392D01*
X93685554Y-65767392D01*
X93681765Y-65766291D01*
X93675732Y-65765848D01*
X93672357Y-65765600D01*
X93672353Y-65765600D01*
X93670993Y-65765500D01*
X93561943Y-65765500D01*
X93559404Y-65765848D01*
X93559401Y-65765848D01*
X93454562Y-65780209D01*
X93454561Y-65780209D01*
X93449482Y-65780905D01*
X93444777Y-65782941D01*
X93314755Y-65839207D01*
X93314751Y-65839209D01*
X93310054Y-65841242D01*
X93191987Y-65936850D01*
X93189017Y-65941028D01*
X93189017Y-65941029D01*
X93140575Y-66009193D01*
X93103980Y-66060687D01*
X93102244Y-66065510D01*
X93102242Y-66065513D01*
X93063663Y-66172673D01*
X93052518Y-66203629D01*
X93041391Y-66355145D01*
X88054000Y-66355145D01*
X88054000Y-64073393D01*
X92719976Y-64073393D01*
X92720706Y-64079561D01*
X92720706Y-64079563D01*
X92723979Y-64107214D01*
X92724500Y-64116053D01*
X92724500Y-64119984D01*
X92725009Y-64123043D01*
X92725265Y-64126140D01*
X92725240Y-64126142D01*
X92725980Y-64135095D01*
X92725980Y-64199134D01*
X92726012Y-64199907D01*
X92726012Y-64199912D01*
X92726597Y-64214081D01*
X92726843Y-64220053D01*
X92727002Y-64221977D01*
X92727598Y-64226763D01*
X92728624Y-64235006D01*
X92729598Y-64242835D01*
X92729949Y-64244940D01*
X92731766Y-64254662D01*
X92731948Y-64255541D01*
X92732015Y-64255837D01*
X92732024Y-64255878D01*
X92733975Y-64264482D01*
X92734068Y-64264891D01*
X92734162Y-64265274D01*
X92734167Y-64265293D01*
X92737238Y-64277740D01*
X92750808Y-64332734D01*
X92750885Y-64333025D01*
X92750892Y-64333053D01*
X92752462Y-64338994D01*
X92752923Y-64340741D01*
X92753130Y-64341476D01*
X92755512Y-64349431D01*
X92755593Y-64349685D01*
X92755619Y-64349771D01*
X92761445Y-64368133D01*
X92764331Y-64381123D01*
X92766793Y-64399950D01*
X92767488Y-64405265D01*
X92769646Y-64410169D01*
X92769646Y-64410170D01*
X92811083Y-64504343D01*
X92825689Y-64537539D01*
X92918676Y-64648160D01*
X92923135Y-64651128D01*
X92923136Y-64651129D01*
X92973798Y-64684852D01*
X93038974Y-64728237D01*
X93044087Y-64729834D01*
X93044088Y-64729835D01*
X93143065Y-64760758D01*
X93176910Y-64771332D01*
X93246788Y-64772613D01*
X93316036Y-64773882D01*
X93316038Y-64773882D01*
X93321398Y-64773980D01*
X93326569Y-64772570D01*
X93326571Y-64772570D01*
X93404504Y-64751323D01*
X93460822Y-64735969D01*
X93513763Y-64703463D01*
X93579403Y-64663160D01*
X93579406Y-64663158D01*
X93583972Y-64660354D01*
X93598266Y-64644562D01*
X93677357Y-64557185D01*
X93677358Y-64557183D01*
X93680951Y-64553214D01*
X93717114Y-64478573D01*
X93741624Y-64427984D01*
X93741624Y-64427983D01*
X93743960Y-64423162D01*
X93767936Y-64280653D01*
X93768088Y-64268200D01*
X93755450Y-64179954D01*
X93748361Y-64130451D01*
X93748360Y-64130447D01*
X93747601Y-64125148D01*
X93745254Y-64119984D01*
X93694966Y-64009383D01*
X93687788Y-63993595D01*
X93684290Y-63989535D01*
X93596950Y-63888172D01*
X93596947Y-63888169D01*
X93593456Y-63884118D01*
X93476644Y-63808404D01*
X93445651Y-63767349D01*
X93448298Y-63715977D01*
X93483348Y-63678326D01*
X93534398Y-63672013D01*
X93539971Y-63673522D01*
X93557921Y-63679130D01*
X93632375Y-63680495D01*
X93697047Y-63681680D01*
X93697049Y-63681680D01*
X93702409Y-63681778D01*
X93707580Y-63680368D01*
X93707582Y-63680368D01*
X93805395Y-63653701D01*
X93841833Y-63643767D01*
X93938881Y-63584179D01*
X93960414Y-63570958D01*
X93960417Y-63570956D01*
X93964983Y-63568152D01*
X94015499Y-63512343D01*
X94058368Y-63464983D01*
X94058369Y-63464981D01*
X94061962Y-63461012D01*
X94104101Y-63374036D01*
X94122635Y-63335782D01*
X94122635Y-63335781D01*
X94124971Y-63330960D01*
X94148947Y-63188451D01*
X94149099Y-63175998D01*
X94137224Y-63093077D01*
X94129372Y-63038249D01*
X94129371Y-63038245D01*
X94128612Y-63032946D01*
X94126144Y-63027516D01*
X94086829Y-62941049D01*
X94068799Y-62901393D01*
X94064623Y-62896546D01*
X93977961Y-62795970D01*
X93977958Y-62795967D01*
X93974467Y-62791916D01*
X93954792Y-62779163D01*
X93857694Y-62716227D01*
X93857693Y-62716226D01*
X93853201Y-62713315D01*
X93776991Y-62690523D01*
X93719882Y-62673443D01*
X93719879Y-62673443D01*
X93714748Y-62671908D01*
X93709393Y-62671875D01*
X93709391Y-62671875D01*
X93644446Y-62671479D01*
X93570238Y-62671026D01*
X93431290Y-62710737D01*
X93375522Y-62745923D01*
X93371643Y-62748210D01*
X93314271Y-62779717D01*
X93311210Y-62781306D01*
X93240143Y-62816121D01*
X93239553Y-62816406D01*
X93212643Y-62829245D01*
X93165933Y-62851528D01*
X93165874Y-62851557D01*
X93165840Y-62851573D01*
X93163755Y-62852590D01*
X93161990Y-62853450D01*
X93161797Y-62853545D01*
X93161539Y-62853674D01*
X93161371Y-62853759D01*
X93161324Y-62853783D01*
X93158196Y-62855373D01*
X93158045Y-62855450D01*
X93088682Y-62891377D01*
X93079540Y-62896352D01*
X93079119Y-62896592D01*
X93079078Y-62896616D01*
X93078703Y-62896830D01*
X93069420Y-62902397D01*
X93058151Y-62909486D01*
X93007975Y-62941049D01*
X93007961Y-62941058D01*
X93007381Y-62941423D01*
X93006833Y-62941796D01*
X93006803Y-62941815D01*
X92993118Y-62951115D01*
X92992543Y-62951506D01*
X92991235Y-62952464D01*
X92977333Y-62963409D01*
X92976863Y-62963806D01*
X92976834Y-62963830D01*
X92929779Y-63003611D01*
X92929775Y-63003615D01*
X92923977Y-63008516D01*
X92923317Y-63009131D01*
X92923309Y-63009138D01*
X92906712Y-63024601D01*
X92906697Y-63024616D01*
X92906043Y-63025225D01*
X92904474Y-63026835D01*
X92903876Y-63027510D01*
X92903871Y-63027516D01*
X92888923Y-63044404D01*
X92888910Y-63044419D01*
X92888320Y-63045086D01*
X92844692Y-63099424D01*
X92844097Y-63100255D01*
X92844090Y-63100264D01*
X92829021Y-63121303D01*
X92829009Y-63121321D01*
X92828433Y-63122125D01*
X92827897Y-63122968D01*
X92827888Y-63122981D01*
X92827866Y-63123016D01*
X92827054Y-63124293D01*
X92826561Y-63125171D01*
X92826554Y-63125183D01*
X92817838Y-63140713D01*
X92813374Y-63148666D01*
X92780472Y-63215675D01*
X92769963Y-63240274D01*
X92769117Y-63242584D01*
X92761260Y-63268126D01*
X92741815Y-63345629D01*
X92741812Y-63345634D01*
X92741814Y-63345635D01*
X92740359Y-63351432D01*
X92735894Y-63373224D01*
X92735572Y-63375241D01*
X92733037Y-63397255D01*
X92732977Y-63398098D01*
X92732976Y-63398109D01*
X92731625Y-63417102D01*
X92727567Y-63436683D01*
X92724952Y-63444129D01*
X92724500Y-63449348D01*
X92724500Y-63450704D01*
X92724110Y-63455312D01*
X92722423Y-63460952D01*
X92723764Y-63495096D01*
X92724442Y-63512343D01*
X92724500Y-63515295D01*
X92724500Y-64044379D01*
X92722815Y-64060207D01*
X92719976Y-64073393D01*
X88054000Y-64073393D01*
X88054000Y-60575145D01*
X93041391Y-60575145D01*
X93042405Y-60580173D01*
X93042405Y-60580176D01*
X93055954Y-60647370D01*
X93071420Y-60724071D01*
X93140392Y-60859436D01*
X93143863Y-60863211D01*
X93143864Y-60863212D01*
X93239754Y-60967491D01*
X93239757Y-60967493D01*
X93243226Y-60971266D01*
X93278413Y-60993083D01*
X93358529Y-61042757D01*
X93372344Y-61051323D01*
X93377268Y-61052754D01*
X93377269Y-61052754D01*
X93481929Y-61083161D01*
X93518235Y-61093709D01*
X93524254Y-61094151D01*
X93527643Y-61094400D01*
X93527647Y-61094400D01*
X93529007Y-61094500D01*
X93638057Y-61094500D01*
X93640596Y-61094152D01*
X93640599Y-61094152D01*
X93745438Y-61079791D01*
X93745439Y-61079791D01*
X93750518Y-61079095D01*
X93755223Y-61077059D01*
X93885245Y-61020793D01*
X93885249Y-61020791D01*
X93889946Y-61018758D01*
X93892117Y-61017000D01*
X95290284Y-61017000D01*
X95290927Y-61021884D01*
X95306276Y-61138465D01*
X95311060Y-61174806D01*
X95312944Y-61179355D01*
X95312945Y-61179358D01*
X95330564Y-61221894D01*
X95371970Y-61321858D01*
X95374969Y-61325767D01*
X95374970Y-61325768D01*
X95463632Y-61441313D01*
X95468866Y-61448134D01*
X95472773Y-61451132D01*
X95566310Y-61522906D01*
X95595142Y-61545030D01*
X95742194Y-61605940D01*
X95747081Y-61606584D01*
X95747083Y-61606584D01*
X95750343Y-61607013D01*
X95767983Y-61611561D01*
X95800430Y-61624287D01*
X95804542Y-61626043D01*
X95821665Y-61633963D01*
X95832021Y-61638754D01*
X95853625Y-61653831D01*
X95900311Y-61700518D01*
X95922156Y-61748498D01*
X95924720Y-61785531D01*
X95924900Y-61790725D01*
X95924900Y-65379255D01*
X95924005Y-65390820D01*
X95920133Y-65415700D01*
X95919159Y-65421955D01*
X95917846Y-65428476D01*
X95911472Y-65454180D01*
X95907986Y-65468238D01*
X95906058Y-65474741D01*
X95891495Y-65516803D01*
X95884668Y-65529516D01*
X95885437Y-65529960D01*
X95882971Y-65534231D01*
X95879970Y-65538142D01*
X95878083Y-65542698D01*
X95824570Y-65671892D01*
X95819060Y-65685194D01*
X95818417Y-65690076D01*
X95818417Y-65690077D01*
X95798927Y-65838116D01*
X95798284Y-65843000D01*
X95798927Y-65847884D01*
X95818261Y-65994734D01*
X95819060Y-66000806D01*
X95820944Y-66005355D01*
X95820945Y-66005358D01*
X95828985Y-66024768D01*
X95879970Y-66147858D01*
X95882969Y-66151767D01*
X95882970Y-66151768D01*
X95973868Y-66270227D01*
X95976866Y-66274134D01*
X95980773Y-66277132D01*
X96085326Y-66357359D01*
X96103142Y-66371030D01*
X96126961Y-66380896D01*
X96245642Y-66430055D01*
X96245645Y-66430056D01*
X96250194Y-66431940D01*
X96255076Y-66432583D01*
X96255077Y-66432583D01*
X96403116Y-66452073D01*
X96408000Y-66452716D01*
X96412884Y-66452073D01*
X96560923Y-66432583D01*
X96560924Y-66432583D01*
X96565806Y-66431940D01*
X96570355Y-66430056D01*
X96570358Y-66430055D01*
X96689039Y-66380896D01*
X96712858Y-66371030D01*
X96730675Y-66357359D01*
X96835227Y-66277132D01*
X96839134Y-66274134D01*
X96842132Y-66270227D01*
X96933030Y-66151768D01*
X96933031Y-66151767D01*
X96936030Y-66147858D01*
X96987015Y-66024768D01*
X96995055Y-66005358D01*
X96995056Y-66005355D01*
X96996940Y-66000806D01*
X96997740Y-65994734D01*
X97017073Y-65847884D01*
X97017716Y-65843000D01*
X97017073Y-65838116D01*
X96997583Y-65690077D01*
X96997583Y-65690076D01*
X96996940Y-65685194D01*
X96991431Y-65671892D01*
X96937918Y-65542700D01*
X96937917Y-65542698D01*
X96936030Y-65538142D01*
X96933026Y-65534228D01*
X96930564Y-65529963D01*
X96931338Y-65529516D01*
X96924504Y-65516803D01*
X96909941Y-65474741D01*
X96908013Y-65468238D01*
X96904527Y-65454180D01*
X96898153Y-65428476D01*
X96896840Y-65421955D01*
X96895867Y-65415700D01*
X96891994Y-65390820D01*
X96891100Y-65379262D01*
X96891100Y-61587548D01*
X96892954Y-61570951D01*
X96893313Y-61569365D01*
X96894495Y-61564142D01*
X96891244Y-61511735D01*
X96891100Y-61507079D01*
X96891100Y-61490311D01*
X96889437Y-61478703D01*
X96888822Y-61472701D01*
X96886259Y-61431374D01*
X96886259Y-61431373D01*
X96885927Y-61426025D01*
X96881858Y-61414754D01*
X96878149Y-61399879D01*
X96877209Y-61393316D01*
X96876450Y-61388016D01*
X96867441Y-61368201D01*
X96857096Y-61345447D01*
X96854821Y-61339859D01*
X96840757Y-61300903D01*
X96840756Y-61300902D01*
X96838938Y-61295865D01*
X96831867Y-61286186D01*
X96824137Y-61272958D01*
X96819174Y-61262043D01*
X96815675Y-61257983D01*
X96815673Y-61257979D01*
X96788652Y-61226619D01*
X96784900Y-61221894D01*
X96777938Y-61212364D01*
X96777931Y-61212356D01*
X96776218Y-61210011D01*
X96764615Y-61198409D01*
X96760832Y-61194335D01*
X96747927Y-61179358D01*
X96728844Y-61157210D01*
X96724348Y-61154296D01*
X96724346Y-61154294D01*
X96720077Y-61151527D01*
X96707804Y-61141597D01*
X96619852Y-61053645D01*
X96613830Y-61046849D01*
X96593091Y-61020378D01*
X96593084Y-61020369D01*
X96572700Y-60994353D01*
X96570780Y-60991793D01*
X96531608Y-60937161D01*
X96527890Y-60931443D01*
X96499190Y-60882609D01*
X96494885Y-60874090D01*
X96491175Y-60865419D01*
X96489985Y-60862639D01*
X96489029Y-60859875D01*
X96488940Y-60859194D01*
X96428030Y-60712142D01*
X96419184Y-60700613D01*
X96334132Y-60589773D01*
X96331134Y-60585866D01*
X96269922Y-60538896D01*
X96208768Y-60491970D01*
X96208767Y-60491969D01*
X96204858Y-60488970D01*
X96146675Y-60464870D01*
X96062358Y-60429945D01*
X96062355Y-60429944D01*
X96057806Y-60428060D01*
X96052924Y-60427417D01*
X96052923Y-60427417D01*
X95904884Y-60407927D01*
X95900000Y-60407284D01*
X95895116Y-60407927D01*
X95747077Y-60427417D01*
X95747076Y-60427417D01*
X95742194Y-60428060D01*
X95737645Y-60429944D01*
X95737642Y-60429945D01*
X95653325Y-60464870D01*
X95595142Y-60488970D01*
X95591233Y-60491969D01*
X95591232Y-60491970D01*
X95530078Y-60538896D01*
X95468866Y-60585866D01*
X95465868Y-60589773D01*
X95380817Y-60700613D01*
X95371970Y-60712142D01*
X95363748Y-60731993D01*
X95317319Y-60844084D01*
X95311060Y-60859194D01*
X95310417Y-60864076D01*
X95310417Y-60864077D01*
X95303328Y-60917923D01*
X95290284Y-61017000D01*
X93892117Y-61017000D01*
X94008013Y-60923150D01*
X94013372Y-60915610D01*
X94093048Y-60803495D01*
X94096020Y-60799313D01*
X94097756Y-60794490D01*
X94097758Y-60794487D01*
X94145746Y-60661193D01*
X94147482Y-60656371D01*
X94158609Y-60504855D01*
X94143505Y-60429945D01*
X94129594Y-60360958D01*
X94128580Y-60355929D01*
X94059608Y-60220564D01*
X94036726Y-60195680D01*
X93960246Y-60112509D01*
X93960243Y-60112507D01*
X93956774Y-60108734D01*
X93857303Y-60047059D01*
X93832014Y-60031379D01*
X93832013Y-60031379D01*
X93827656Y-60028677D01*
X93791702Y-60018231D01*
X93685555Y-59987392D01*
X93685554Y-59987392D01*
X93681765Y-59986291D01*
X93675732Y-59985848D01*
X93672357Y-59985600D01*
X93672353Y-59985600D01*
X93670993Y-59985500D01*
X93561943Y-59985500D01*
X93559404Y-59985848D01*
X93559401Y-59985848D01*
X93454562Y-60000209D01*
X93454561Y-60000209D01*
X93449482Y-60000905D01*
X93444777Y-60002941D01*
X93314755Y-60059207D01*
X93314751Y-60059209D01*
X93310054Y-60061242D01*
X93191987Y-60156850D01*
X93189017Y-60161028D01*
X93189017Y-60161029D01*
X93106952Y-60276505D01*
X93103980Y-60280687D01*
X93102244Y-60285510D01*
X93102242Y-60285513D01*
X93058171Y-60407927D01*
X93052518Y-60423629D01*
X93041391Y-60575145D01*
X88054000Y-60575145D01*
X88054000Y-59218985D01*
X88916750Y-59218985D01*
X88922462Y-59262371D01*
X88924991Y-59271812D01*
X88981921Y-59409250D01*
X88986803Y-59417707D01*
X89077365Y-59535730D01*
X89084270Y-59542635D01*
X89202293Y-59633197D01*
X89210750Y-59638079D01*
X89348188Y-59695009D01*
X89357629Y-59697538D01*
X89468081Y-59712079D01*
X89472974Y-59712400D01*
X89795141Y-59712400D01*
X89805298Y-59708703D01*
X89808400Y-59703331D01*
X89808400Y-59699141D01*
X90011600Y-59699141D01*
X90015297Y-59709298D01*
X90020669Y-59712400D01*
X90347026Y-59712400D01*
X90351919Y-59712079D01*
X90462371Y-59697538D01*
X90471812Y-59695009D01*
X90609250Y-59638079D01*
X90617707Y-59633197D01*
X90735730Y-59542635D01*
X90742635Y-59535730D01*
X90833197Y-59417707D01*
X90838079Y-59409250D01*
X90895009Y-59271812D01*
X90897538Y-59262371D01*
X90902492Y-59224745D01*
X90901215Y-59218985D01*
X92936750Y-59218985D01*
X92942462Y-59262371D01*
X92944991Y-59271812D01*
X93001921Y-59409250D01*
X93006803Y-59417707D01*
X93097365Y-59535730D01*
X93104270Y-59542635D01*
X93222293Y-59633197D01*
X93230750Y-59638079D01*
X93368188Y-59695009D01*
X93377629Y-59697538D01*
X93488081Y-59712079D01*
X93492974Y-59712400D01*
X93965141Y-59712400D01*
X93975298Y-59708703D01*
X93978400Y-59703331D01*
X93978400Y-59699141D01*
X94181600Y-59699141D01*
X94185297Y-59709298D01*
X94190669Y-59712400D01*
X94667026Y-59712400D01*
X94671919Y-59712079D01*
X94782371Y-59697538D01*
X94791812Y-59695009D01*
X94929250Y-59638079D01*
X94937707Y-59633197D01*
X95055730Y-59542635D01*
X95062635Y-59535730D01*
X95153197Y-59417707D01*
X95158079Y-59409250D01*
X95215009Y-59271812D01*
X95217538Y-59262371D01*
X95222492Y-59224745D01*
X95220152Y-59214194D01*
X95216772Y-59211600D01*
X94194859Y-59211600D01*
X94184702Y-59215297D01*
X94181600Y-59220669D01*
X94181600Y-59699141D01*
X93978400Y-59699141D01*
X93978400Y-59224859D01*
X93974703Y-59214702D01*
X93969331Y-59211600D01*
X92949037Y-59211600D01*
X92938880Y-59215297D01*
X92936750Y-59218985D01*
X90901215Y-59218985D01*
X90900152Y-59214194D01*
X90896772Y-59211600D01*
X90024859Y-59211600D01*
X90014702Y-59215297D01*
X90011600Y-59220669D01*
X90011600Y-59699141D01*
X89808400Y-59699141D01*
X89808400Y-59224859D01*
X89804703Y-59214702D01*
X89799331Y-59211600D01*
X88929037Y-59211600D01*
X88918880Y-59215297D01*
X88916750Y-59218985D01*
X88054000Y-59218985D01*
X88054000Y-58995255D01*
X88917508Y-58995255D01*
X88919848Y-59005806D01*
X88923228Y-59008400D01*
X89795141Y-59008400D01*
X89805298Y-59004703D01*
X89808400Y-58999331D01*
X89808400Y-58995141D01*
X90011600Y-58995141D01*
X90015297Y-59005298D01*
X90020669Y-59008400D01*
X90890963Y-59008400D01*
X90901120Y-59004703D01*
X90903250Y-59001015D01*
X90902492Y-58995255D01*
X92937508Y-58995255D01*
X92939848Y-59005806D01*
X92943228Y-59008400D01*
X93965141Y-59008400D01*
X93975298Y-59004703D01*
X93978400Y-58999331D01*
X93978400Y-58995141D01*
X94181600Y-58995141D01*
X94185297Y-59005298D01*
X94190669Y-59008400D01*
X95210963Y-59008400D01*
X95221120Y-59004703D01*
X95223250Y-59001015D01*
X95217538Y-58957629D01*
X95215009Y-58948188D01*
X95158079Y-58810750D01*
X95153197Y-58802293D01*
X95062635Y-58684270D01*
X95055730Y-58677365D01*
X94937707Y-58586803D01*
X94929250Y-58581921D01*
X94791812Y-58524991D01*
X94782371Y-58522462D01*
X94671919Y-58507921D01*
X94667026Y-58507600D01*
X94194859Y-58507600D01*
X94184702Y-58511297D01*
X94181600Y-58516669D01*
X94181600Y-58995141D01*
X93978400Y-58995141D01*
X93978400Y-58520859D01*
X93974703Y-58510702D01*
X93969331Y-58507600D01*
X93492974Y-58507600D01*
X93488081Y-58507921D01*
X93377629Y-58522462D01*
X93368188Y-58524991D01*
X93230750Y-58581921D01*
X93222293Y-58586803D01*
X93104270Y-58677365D01*
X93097365Y-58684270D01*
X93006803Y-58802293D01*
X93001921Y-58810750D01*
X92944991Y-58948188D01*
X92942462Y-58957629D01*
X92937508Y-58995255D01*
X90902492Y-58995255D01*
X90897538Y-58957629D01*
X90895009Y-58948188D01*
X90838079Y-58810750D01*
X90833197Y-58802293D01*
X90742635Y-58684270D01*
X90735730Y-58677365D01*
X90617707Y-58586803D01*
X90609250Y-58581921D01*
X90471812Y-58524991D01*
X90462371Y-58522462D01*
X90351919Y-58507921D01*
X90347026Y-58507600D01*
X90024859Y-58507600D01*
X90014702Y-58511297D01*
X90011600Y-58516669D01*
X90011600Y-58995141D01*
X89808400Y-58995141D01*
X89808400Y-58520859D01*
X89804703Y-58510702D01*
X89799331Y-58507600D01*
X89472974Y-58507600D01*
X89468081Y-58507921D01*
X89357629Y-58522462D01*
X89348188Y-58524991D01*
X89210750Y-58581921D01*
X89202293Y-58586803D01*
X89084270Y-58677365D01*
X89077365Y-58684270D01*
X88986803Y-58802293D01*
X88981921Y-58810750D01*
X88924991Y-58948188D01*
X88922462Y-58957629D01*
X88917508Y-58995255D01*
X88054000Y-58995255D01*
X88054000Y-55812422D01*
X88055445Y-55797752D01*
X88057531Y-55787265D01*
X88058976Y-55780000D01*
X88056957Y-55769847D01*
X88055631Y-55750967D01*
X88071030Y-55476757D01*
X88071974Y-55468377D01*
X88074541Y-55453270D01*
X88122142Y-55173112D01*
X88124016Y-55164904D01*
X88206927Y-54877115D01*
X88209712Y-54869155D01*
X88324324Y-54592457D01*
X88327983Y-54584859D01*
X88472856Y-54322732D01*
X88477343Y-54315592D01*
X88650648Y-54071340D01*
X88655906Y-54064747D01*
X88855471Y-53841434D01*
X88861434Y-53835471D01*
X89084747Y-53635906D01*
X89091340Y-53630648D01*
X89335592Y-53457343D01*
X89342732Y-53452856D01*
X89604859Y-53307983D01*
X89612457Y-53304324D01*
X89889155Y-53189712D01*
X89897115Y-53186927D01*
X90184904Y-53104016D01*
X90193112Y-53102142D01*
X90488383Y-53051973D01*
X90496757Y-53051030D01*
X90770967Y-53035631D01*
X90789847Y-53036957D01*
X90800000Y-53038976D01*
X90817752Y-53035445D01*
X90832422Y-53034000D01*
X126717578Y-53034000D01*
X126732248Y-53035445D01*
G37*
%TD.AperFunction*%
%TA.AperFunction,Conductor*%
G36*
X102184339Y-59859135D02*
G01*
X102198700Y-59903335D01*
X102198700Y-67281983D01*
X102181107Y-67330321D01*
X102176674Y-67335157D01*
X101700709Y-67811122D01*
X101654089Y-67832862D01*
X101604402Y-67819548D01*
X101574897Y-67777411D01*
X101572978Y-67748132D01*
X101576303Y-67722882D01*
X101589716Y-67621000D01*
X101573473Y-67497624D01*
X101569583Y-67468077D01*
X101569583Y-67468076D01*
X101568940Y-67463194D01*
X101563596Y-67450291D01*
X101520513Y-67346279D01*
X101508030Y-67316142D01*
X101489894Y-67292506D01*
X101414132Y-67193773D01*
X101411134Y-67189866D01*
X101321528Y-67121108D01*
X101293889Y-67077724D01*
X101292289Y-67066676D01*
X101290715Y-67044087D01*
X101290228Y-67037105D01*
X101290114Y-67035051D01*
X101289624Y-67023415D01*
X101289624Y-67023410D01*
X101289439Y-67019033D01*
X101287504Y-66973132D01*
X101287459Y-66971770D01*
X101285836Y-66902239D01*
X101285820Y-66901291D01*
X101285717Y-66891689D01*
X101285717Y-66891680D01*
X101285304Y-66853029D01*
X101285300Y-66852226D01*
X101285300Y-60721017D01*
X101302893Y-60672679D01*
X101307326Y-60667843D01*
X101608500Y-60366670D01*
X101924294Y-60050876D01*
X101926567Y-60048695D01*
X101970026Y-60008733D01*
X101970028Y-60008731D01*
X101973799Y-60005263D01*
X101976501Y-60000905D01*
X101976503Y-60000903D01*
X101998403Y-59965581D01*
X102002416Y-59959741D01*
X102027551Y-59926627D01*
X102030651Y-59922543D01*
X102038012Y-59903952D01*
X102044015Y-59892017D01*
X102054549Y-59875026D01*
X102055387Y-59872141D01*
X102090536Y-59835745D01*
X102141694Y-59830369D01*
X102184339Y-59859135D01*
G37*
%TD.AperFunction*%
%TA.AperFunction,Conductor*%
G36*
X111236354Y-62390026D02*
G01*
X111260528Y-62393855D01*
X111266375Y-62392929D01*
X111266376Y-62392929D01*
X111274743Y-62391604D01*
X111290721Y-62390796D01*
X111524312Y-62403914D01*
X111532686Y-62404857D01*
X111788994Y-62448406D01*
X111797202Y-62450280D01*
X112047014Y-62522250D01*
X112054974Y-62525035D01*
X112295158Y-62624522D01*
X112302756Y-62628181D01*
X112530293Y-62753937D01*
X112537433Y-62758424D01*
X112749452Y-62908859D01*
X112756045Y-62914117D01*
X112930482Y-63070004D01*
X112941209Y-63081872D01*
X112946194Y-63088733D01*
X112946198Y-63088737D01*
X112949676Y-63093524D01*
X112954465Y-63097003D01*
X112967370Y-63106379D01*
X112984007Y-63123016D01*
X112993387Y-63135926D01*
X112993391Y-63135930D01*
X112996866Y-63140713D01*
X113001649Y-63144188D01*
X113001867Y-63144406D01*
X113023607Y-63191026D01*
X113010293Y-63240713D01*
X112968156Y-63270218D01*
X112919916Y-63267056D01*
X112877158Y-63249345D01*
X112877155Y-63249344D01*
X112872606Y-63247460D01*
X112867724Y-63246817D01*
X112867723Y-63246817D01*
X112719684Y-63227327D01*
X112714800Y-63226684D01*
X112709916Y-63227327D01*
X112561877Y-63246817D01*
X112561876Y-63246817D01*
X112556994Y-63247460D01*
X112552445Y-63249344D01*
X112552442Y-63249345D01*
X112471177Y-63283006D01*
X112409942Y-63308370D01*
X112301749Y-63391390D01*
X112252691Y-63406858D01*
X112243374Y-63405867D01*
X112176179Y-63394450D01*
X112167958Y-63392574D01*
X111935746Y-63325675D01*
X111913221Y-63319186D01*
X111905262Y-63316401D01*
X111660344Y-63214952D01*
X111652746Y-63211293D01*
X111420724Y-63083059D01*
X111413584Y-63078572D01*
X111197385Y-62925171D01*
X111190792Y-62919913D01*
X111044307Y-62789005D01*
X111012526Y-62760604D01*
X111001800Y-62748738D01*
X110993340Y-62737093D01*
X110987337Y-62732731D01*
X110973533Y-62722702D01*
X110964561Y-62715038D01*
X110927177Y-62677654D01*
X110919513Y-62668681D01*
X110908602Y-62653663D01*
X110905124Y-62648876D01*
X110899454Y-62644756D01*
X110894083Y-62640465D01*
X110757674Y-62520838D01*
X110732932Y-62475740D01*
X110742968Y-62425288D01*
X110783085Y-62393091D01*
X110807257Y-62389100D01*
X111224589Y-62389100D01*
X111236354Y-62390026D01*
G37*
%TD.AperFunction*%
%TA.AperFunction,Conductor*%
G36*
X122881590Y-58909303D02*
G01*
X123066289Y-58910887D01*
X123114474Y-58928894D01*
X123137403Y-58963596D01*
X123158568Y-59031135D01*
X123158570Y-59031140D01*
X123159924Y-59035460D01*
X123243241Y-59173032D01*
X123356968Y-59286759D01*
X123494540Y-59370076D01*
X123562688Y-59391432D01*
X123644213Y-59416981D01*
X123644217Y-59416982D01*
X123648015Y-59418172D01*
X123689087Y-59421946D01*
X123715180Y-59424344D01*
X123715187Y-59424344D01*
X123716881Y-59424500D01*
X125109593Y-59424500D01*
X126503118Y-59424499D01*
X126504812Y-59424343D01*
X126504820Y-59424343D01*
X126554251Y-59419801D01*
X126571985Y-59418172D01*
X126575790Y-59416980D01*
X126575798Y-59416978D01*
X126598313Y-59409922D01*
X126649700Y-59412256D01*
X126687564Y-59447075D01*
X126696000Y-59481681D01*
X126696000Y-59758319D01*
X126678407Y-59806657D01*
X126633858Y-59832377D01*
X126598313Y-59830078D01*
X126575790Y-59823020D01*
X126575786Y-59823019D01*
X126571985Y-59821828D01*
X126530913Y-59818054D01*
X126504820Y-59815656D01*
X126504813Y-59815656D01*
X126503119Y-59815500D01*
X125110407Y-59815500D01*
X123716882Y-59815501D01*
X123715188Y-59815657D01*
X123715180Y-59815657D01*
X123665749Y-59820199D01*
X123648015Y-59821828D01*
X123494540Y-59869924D01*
X123356968Y-59953241D01*
X123243241Y-60066968D01*
X123159924Y-60204540D01*
X123158569Y-60208864D01*
X123158568Y-60208866D01*
X123137403Y-60276403D01*
X123106159Y-60317268D01*
X123066289Y-60329112D01*
X122996685Y-60329709D01*
X122992719Y-60329743D01*
X122992712Y-60329743D01*
X122881547Y-60330697D01*
X122880902Y-60330700D01*
X121867617Y-60330700D01*
X121819279Y-60313107D01*
X121814443Y-60308674D01*
X120709182Y-59203413D01*
X120687442Y-59156793D01*
X120700756Y-59107106D01*
X120742893Y-59077601D01*
X120791677Y-59081870D01*
X120791942Y-59081230D01*
X120854413Y-59107106D01*
X120934442Y-59140255D01*
X120934445Y-59140256D01*
X120938994Y-59142140D01*
X120943876Y-59142783D01*
X120943877Y-59142783D01*
X121091916Y-59162273D01*
X121096800Y-59162916D01*
X121101684Y-59162273D01*
X121249723Y-59142783D01*
X121249724Y-59142783D01*
X121254606Y-59142140D01*
X121259155Y-59140256D01*
X121259158Y-59140255D01*
X121385335Y-59087991D01*
X121401658Y-59081230D01*
X121406388Y-59077601D01*
X121524027Y-58987332D01*
X121527934Y-58984334D01*
X121552819Y-58951903D01*
X121596204Y-58924265D01*
X121604186Y-58922942D01*
X121628736Y-58920218D01*
X121631627Y-58919953D01*
X121691732Y-58915624D01*
X121693739Y-58915507D01*
X121764066Y-58912329D01*
X121765490Y-58912278D01*
X121797096Y-58911449D01*
X121804092Y-58911266D01*
X121804100Y-58911266D01*
X121843986Y-58910220D01*
X121844997Y-58910200D01*
X121857605Y-58910039D01*
X121866951Y-58909920D01*
X121866976Y-58909920D01*
X121914990Y-58909306D01*
X121915951Y-58909300D01*
X122880945Y-58909300D01*
X122881590Y-58909303D01*
G37*
%TD.AperFunction*%
%TA.AperFunction,Conductor*%
G36*
X104738209Y-55082204D02*
G01*
X104763929Y-55126753D01*
X104754996Y-55177411D01*
X104743045Y-55192985D01*
X102372518Y-57563513D01*
X102370245Y-57565694D01*
X102326774Y-57605667D01*
X102326772Y-57605669D01*
X102323001Y-57609137D01*
X102320301Y-57613491D01*
X102320299Y-57613494D01*
X102298395Y-57648823D01*
X102294385Y-57654658D01*
X102266149Y-57691857D01*
X102264261Y-57696626D01*
X102258788Y-57710448D01*
X102252785Y-57722383D01*
X102242251Y-57739374D01*
X102241413Y-57742259D01*
X102206264Y-57778655D01*
X102155106Y-57784031D01*
X102112461Y-57755265D01*
X102098100Y-57711065D01*
X102098100Y-55310817D01*
X102115693Y-55262479D01*
X102120126Y-55257643D01*
X102291132Y-55086637D01*
X102337752Y-55064897D01*
X102344306Y-55064611D01*
X104689871Y-55064611D01*
X104738209Y-55082204D01*
G37*
%TD.AperFunction*%
%TD*%
%TA.AperFunction,Conductor*%
%TO.N,+5V*%
G36*
X97597807Y-69627695D02*
G01*
X97597808Y-69627695D01*
X97978615Y-69635139D01*
X98022475Y-69736414D01*
X98074242Y-69819649D01*
X98130966Y-69890068D01*
X98189696Y-69952900D01*
X98247484Y-70013370D01*
X98279573Y-70051079D01*
X98300910Y-70076153D01*
X98301770Y-70077299D01*
X98347892Y-70147312D01*
X98348831Y-70149037D01*
X98385268Y-70231905D01*
X98385938Y-70233901D01*
X98409994Y-70335233D01*
X98410281Y-70337119D01*
X98412255Y-70365520D01*
X98418175Y-70450717D01*
X98415330Y-70459208D01*
X98406503Y-70463228D01*
X98175634Y-70463228D01*
X98167361Y-70459801D01*
X98163992Y-70452690D01*
X98155367Y-70366273D01*
X98155292Y-70365520D01*
X98144667Y-70337124D01*
X98127887Y-70292278D01*
X98127886Y-70292276D01*
X98127563Y-70291413D01*
X98084144Y-70237011D01*
X98027325Y-70198416D01*
X97959393Y-70171733D01*
X97959013Y-70171641D01*
X97959008Y-70171639D01*
X97882819Y-70153109D01*
X97882812Y-70153107D01*
X97882637Y-70153065D01*
X97882445Y-70153032D01*
X97882438Y-70153030D01*
X97846502Y-70146753D01*
X97799345Y-70138516D01*
X97799266Y-70138503D01*
X97712016Y-70124223D01*
X97711599Y-70124147D01*
X97672520Y-70116287D01*
X97622767Y-70106279D01*
X97621871Y-70106062D01*
X97579607Y-70093941D01*
X97541443Y-70082996D01*
X97534435Y-70077421D01*
X97532970Y-70071978D01*
X97524495Y-69638422D01*
X97527760Y-69630083D01*
X97536422Y-69626495D01*
X97597807Y-69627695D01*
G37*
%TD.AperFunction*%
%TD*%
%TA.AperFunction,Conductor*%
%TO.N,VCC*%
G36*
X107653117Y-59398160D02*
G01*
X107656705Y-59406822D01*
X107654952Y-59496502D01*
X107649550Y-59772873D01*
X107648220Y-59840893D01*
X107644632Y-59849097D01*
X107640396Y-59851704D01*
X107555097Y-59881632D01*
X107555003Y-59881665D01*
X107474341Y-59911390D01*
X107403257Y-59940273D01*
X107338932Y-59970401D01*
X107278549Y-60003859D01*
X107219288Y-60042733D01*
X107158332Y-60089107D01*
X107158227Y-60089197D01*
X107158223Y-60089200D01*
X107128728Y-60114412D01*
X107092862Y-60145069D01*
X107020061Y-60212703D01*
X107019996Y-60212767D01*
X106945382Y-60285978D01*
X106937077Y-60289326D01*
X106928915Y-60285900D01*
X106765700Y-60122685D01*
X106762273Y-60114412D01*
X106765622Y-60106218D01*
X106838832Y-60031603D01*
X106838896Y-60031538D01*
X106906530Y-59958737D01*
X106962492Y-59893267D01*
X107008866Y-59832311D01*
X107047740Y-59773050D01*
X107081198Y-59712667D01*
X107111326Y-59648342D01*
X107140209Y-59577258D01*
X107169934Y-59496596D01*
X107199896Y-59411203D01*
X107205867Y-59404532D01*
X107210705Y-59403380D01*
X107454374Y-59398617D01*
X107644778Y-59394895D01*
X107653117Y-59398160D01*
G37*
%TD.AperFunction*%
%TD*%
%TA.AperFunction,Conductor*%
%TO.N,+5V*%
G36*
X124758419Y-57617624D02*
G01*
X124856751Y-57712185D01*
X125176914Y-58020070D01*
X125511231Y-58341567D01*
X125514819Y-58349771D01*
X125511231Y-58358433D01*
X124758419Y-59082376D01*
X124750080Y-59085641D01*
X124745255Y-59084495D01*
X124651017Y-59039349D01*
X124543568Y-58987874D01*
X124543545Y-58987863D01*
X124543513Y-58987848D01*
X124359680Y-58903851D01*
X124359626Y-58903828D01*
X124359611Y-58903822D01*
X124193114Y-58834748D01*
X124193112Y-58834747D01*
X124192962Y-58834685D01*
X124192807Y-58834630D01*
X124192801Y-58834628D01*
X124035441Y-58779097D01*
X124035430Y-58779094D01*
X124035250Y-58779030D01*
X124035069Y-58778980D01*
X124035060Y-58778977D01*
X123964288Y-58759361D01*
X123878436Y-58735564D01*
X123714409Y-58702964D01*
X123714221Y-58702940D01*
X123714216Y-58702939D01*
X123649069Y-58694565D01*
X123535062Y-58679909D01*
X123534909Y-58679898D01*
X123534901Y-58679897D01*
X123447612Y-58673513D01*
X123332284Y-58665078D01*
X123097966Y-58657149D01*
X123097906Y-58657148D01*
X123097887Y-58657148D01*
X122835600Y-58654899D01*
X122827356Y-58651401D01*
X122824000Y-58643199D01*
X122824000Y-58056800D01*
X122827427Y-58048527D01*
X122835599Y-58045101D01*
X122994897Y-58043734D01*
X123097887Y-58042851D01*
X123097906Y-58042851D01*
X123097966Y-58042850D01*
X123332284Y-58034921D01*
X123447612Y-58026486D01*
X123534901Y-58020102D01*
X123534909Y-58020101D01*
X123535062Y-58020090D01*
X123649069Y-58005434D01*
X123714216Y-57997060D01*
X123714221Y-57997059D01*
X123714409Y-57997035D01*
X123878436Y-57964435D01*
X123964288Y-57940638D01*
X124035060Y-57921022D01*
X124035069Y-57921019D01*
X124035250Y-57920969D01*
X124035430Y-57920905D01*
X124035441Y-57920902D01*
X124192801Y-57865371D01*
X124192807Y-57865369D01*
X124192962Y-57865314D01*
X124193114Y-57865251D01*
X124359611Y-57796177D01*
X124359626Y-57796171D01*
X124359680Y-57796148D01*
X124543513Y-57712151D01*
X124745255Y-57615505D01*
X124754196Y-57615021D01*
X124758419Y-57617624D01*
G37*
%TD.AperFunction*%
%TD*%
%TA.AperFunction,Conductor*%
%TO.N,VCC*%
G36*
X100086757Y-65891453D02*
G01*
X100090157Y-65900514D01*
X100082484Y-66014158D01*
X100082213Y-66015996D01*
X100058810Y-66117625D01*
X100058173Y-66119582D01*
X100023882Y-66200131D01*
X100022698Y-66202911D01*
X100021802Y-66204612D01*
X99977371Y-66274385D01*
X99976863Y-66275182D01*
X99976033Y-66276325D01*
X99924116Y-66339479D01*
X99923695Y-66339961D01*
X99867460Y-66400805D01*
X99867440Y-66400827D01*
X99867424Y-66400844D01*
X99818997Y-66454229D01*
X99809958Y-66464193D01*
X99754254Y-66535054D01*
X99703192Y-66618554D01*
X99703031Y-66618927D01*
X99703029Y-66618932D01*
X99662595Y-66712933D01*
X99656178Y-66719179D01*
X99652076Y-66720008D01*
X99217422Y-66728505D01*
X99209083Y-66725240D01*
X99205495Y-66716578D01*
X99213971Y-66283000D01*
X99217559Y-66274796D01*
X99222418Y-66271990D01*
X99241318Y-66266522D01*
X99302065Y-66248948D01*
X99302923Y-66248735D01*
X99390822Y-66230484D01*
X99391193Y-66230414D01*
X99477382Y-66215481D01*
X99539839Y-66203801D01*
X99559267Y-66200168D01*
X99559271Y-66200167D01*
X99559464Y-66200131D01*
X99635012Y-66180613D01*
X99635371Y-66180465D01*
X99635378Y-66180463D01*
X99701202Y-66153390D01*
X99701805Y-66153142D01*
X99757621Y-66113933D01*
X99800239Y-66059201D01*
X99827439Y-65985160D01*
X99835961Y-65898580D01*
X99840182Y-65890682D01*
X99847605Y-65888026D01*
X100078484Y-65888026D01*
X100086757Y-65891453D01*
G37*
%TD.AperFunction*%
%TD*%
%TA.AperFunction,Conductor*%
%TO.N,Net-(J2-Pad8)*%
G36*
X124758541Y-65237741D02*
G01*
X125391214Y-65846152D01*
X125511231Y-65961567D01*
X125514819Y-65969771D01*
X125511231Y-65978433D01*
X124758541Y-66702259D01*
X124750202Y-66705524D01*
X124745172Y-66704277D01*
X124530974Y-66596496D01*
X124530730Y-66596370D01*
X124440803Y-66548436D01*
X124340888Y-66495179D01*
X124173208Y-66404589D01*
X124018287Y-66324992D01*
X123866612Y-66256722D01*
X123708671Y-66200114D01*
X123614139Y-66175839D01*
X123535213Y-66155571D01*
X123535207Y-66155570D01*
X123534951Y-66155504D01*
X123534691Y-66155462D01*
X123534687Y-66155461D01*
X123336175Y-66123262D01*
X123336176Y-66123262D01*
X123335941Y-66123224D01*
X123335713Y-66123205D01*
X123335706Y-66123204D01*
X123102308Y-66103627D01*
X123102305Y-66103627D01*
X123102128Y-66103612D01*
X122835421Y-66097272D01*
X122827233Y-66093649D01*
X122824000Y-66085575D01*
X122824000Y-65854425D01*
X122827427Y-65846152D01*
X122835421Y-65842728D01*
X123102128Y-65836387D01*
X123102305Y-65836372D01*
X123102308Y-65836372D01*
X123335706Y-65816795D01*
X123335713Y-65816794D01*
X123335941Y-65816775D01*
X123375815Y-65810307D01*
X123534687Y-65784538D01*
X123534691Y-65784537D01*
X123534951Y-65784495D01*
X123535207Y-65784429D01*
X123535213Y-65784428D01*
X123614139Y-65764160D01*
X123708671Y-65739885D01*
X123866612Y-65683277D01*
X124018287Y-65615007D01*
X124173208Y-65535410D01*
X124173229Y-65535399D01*
X124340888Y-65444820D01*
X124340946Y-65444789D01*
X124530730Y-65343629D01*
X124530974Y-65343503D01*
X124745172Y-65235723D01*
X124754103Y-65235065D01*
X124758541Y-65237741D01*
G37*
%TD.AperFunction*%
%TD*%
%TA.AperFunction,Conductor*%
%TO.N,VCC*%
G36*
X104683085Y-58344500D02*
G01*
X104846300Y-58507715D01*
X104849727Y-58515988D01*
X104846378Y-58524182D01*
X104796768Y-58574742D01*
X104773103Y-58598861D01*
X104705469Y-58671662D01*
X104649507Y-58737132D01*
X104603133Y-58798088D01*
X104564259Y-58857349D01*
X104530801Y-58917732D01*
X104500673Y-58982057D01*
X104471790Y-59053141D01*
X104442065Y-59133803D01*
X104442033Y-59133895D01*
X104442032Y-59133897D01*
X104412104Y-59219196D01*
X104406132Y-59225868D01*
X104401294Y-59227020D01*
X104166480Y-59231610D01*
X103967222Y-59235505D01*
X103958883Y-59232240D01*
X103955295Y-59223578D01*
X103961277Y-58917563D01*
X103963780Y-58789505D01*
X103967368Y-58781302D01*
X103971602Y-58778696D01*
X104056996Y-58748734D01*
X104137658Y-58719009D01*
X104208742Y-58690126D01*
X104273067Y-58659998D01*
X104333450Y-58626540D01*
X104392711Y-58587666D01*
X104453667Y-58541292D01*
X104483270Y-58515988D01*
X104519059Y-58485397D01*
X104519067Y-58485390D01*
X104519137Y-58485330D01*
X104591938Y-58417696D01*
X104610785Y-58399203D01*
X104666618Y-58344422D01*
X104674923Y-58341074D01*
X104683085Y-58344500D01*
G37*
%TD.AperFunction*%
%TD*%
%TA.AperFunction,Conductor*%
%TO.N,VCC*%
G36*
X107368294Y-56534830D02*
G01*
X107557936Y-56717200D01*
X107681231Y-56835767D01*
X107684819Y-56843971D01*
X107681231Y-56852633D01*
X107406858Y-57116485D01*
X107368295Y-57153569D01*
X107359956Y-57156834D01*
X107355119Y-57155682D01*
X107273549Y-57116485D01*
X107195494Y-57080467D01*
X107153088Y-57062566D01*
X107124963Y-57050693D01*
X107124954Y-57050690D01*
X107124806Y-57050627D01*
X107058018Y-57026446D01*
X106991662Y-57007406D01*
X106991455Y-57007363D01*
X106991447Y-57007361D01*
X106922465Y-56993030D01*
X106922451Y-56993028D01*
X106922270Y-56992990D01*
X106890721Y-56988704D01*
X106846526Y-56982700D01*
X106846514Y-56982699D01*
X106846376Y-56982680D01*
X106846214Y-56982667D01*
X106846211Y-56982667D01*
X106801658Y-56979178D01*
X106760511Y-56975956D01*
X106661208Y-56972302D01*
X106661117Y-56972301D01*
X106661111Y-56972301D01*
X106615008Y-56971864D01*
X106556589Y-56971310D01*
X106548349Y-56967805D01*
X106545000Y-56959611D01*
X106545000Y-56728789D01*
X106548427Y-56720516D01*
X106556589Y-56717090D01*
X106661111Y-56716098D01*
X106661117Y-56716098D01*
X106661208Y-56716097D01*
X106760511Y-56712443D01*
X106801658Y-56709221D01*
X106846211Y-56705732D01*
X106846214Y-56705732D01*
X106846376Y-56705719D01*
X106846514Y-56705700D01*
X106846526Y-56705699D01*
X106890721Y-56699695D01*
X106922270Y-56695409D01*
X106922451Y-56695371D01*
X106922465Y-56695369D01*
X106991447Y-56681038D01*
X106991455Y-56681036D01*
X106991662Y-56680993D01*
X107058018Y-56661953D01*
X107124806Y-56637772D01*
X107124954Y-56637709D01*
X107124963Y-56637706D01*
X107153088Y-56625833D01*
X107195494Y-56607932D01*
X107273549Y-56571914D01*
X107355118Y-56532718D01*
X107364059Y-56532224D01*
X107368294Y-56534830D01*
G37*
%TD.AperFunction*%
%TD*%
%TA.AperFunction,Conductor*%
%TO.N,Net-(C6-Pad1)*%
G36*
X104659684Y-60939427D02*
G01*
X104663110Y-60947589D01*
X104664102Y-61052208D01*
X104667756Y-61151511D01*
X104674480Y-61237376D01*
X104684790Y-61313270D01*
X104684828Y-61313451D01*
X104684830Y-61313465D01*
X104699161Y-61382447D01*
X104699206Y-61382662D01*
X104718246Y-61449018D01*
X104742427Y-61515806D01*
X104772267Y-61586494D01*
X104772303Y-61586572D01*
X104808285Y-61664549D01*
X104847482Y-61746117D01*
X104847976Y-61755059D01*
X104845369Y-61759295D01*
X104544433Y-62072231D01*
X104536229Y-62075819D01*
X104527567Y-62072231D01*
X104226631Y-61759295D01*
X104223366Y-61750956D01*
X104224518Y-61746118D01*
X104263714Y-61664549D01*
X104263727Y-61664520D01*
X104299696Y-61586572D01*
X104299732Y-61586494D01*
X104329572Y-61515806D01*
X104353753Y-61449018D01*
X104372793Y-61382662D01*
X104372838Y-61382447D01*
X104387169Y-61313465D01*
X104387171Y-61313451D01*
X104387209Y-61313270D01*
X104397519Y-61237376D01*
X104404243Y-61151511D01*
X104407897Y-61052208D01*
X104408890Y-60947589D01*
X104412395Y-60939349D01*
X104420589Y-60936000D01*
X104651411Y-60936000D01*
X104659684Y-60939427D01*
G37*
%TD.AperFunction*%
%TD*%
M02*
