M48
; DRILL file {KiCad (6.0.1)} date Sat Feb 19 00:35:25 2022
; FORMAT={-:-/ absolute / metric / decimal}
; #@! TF.CreationDate,2022-02-19T00:35:25+08:00
; #@! TF.GenerationSoftware,Kicad,Pcbnew,(6.0.1)
; #@! TF.FileFunction,Plated,1,2,PTH
FMAT,2
METRIC
; #@! TA.AperFunction,Plated,PTH,ViaDrill
T1C0.300
; #@! TA.AperFunction,Plated,PTH,ViaDrill
T2C0.400
; #@! TA.AperFunction,Plated,PTH,ComponentDrill
T3C0.600
%
G90
G05
T1
X93.258Y-64.268
X93.639Y-63.176
X101.869Y-60.636
X103.393Y-56.064
X108.6Y-56.318
X108.981Y-60.382
T2
X88.915Y-56.445
X88.915Y-70.415
X89.169Y-62.668
X89.169Y-63.43
X89.169Y-64.192
X89.931Y-62.668
X89.931Y-63.43
X89.931Y-64.192
X91.836Y-53.651
X92.371Y-71.757
X92.725Y-60.001
X92.725Y-66.859
X94.122Y-55.556
X94.122Y-57.461
X95.2Y-53.651
X95.9Y-61.017
X96.408Y-65.843
X96.535Y-69.145
X97.17Y-71.812
X97.297Y-60.509
X97.373Y-64.903
X97.648Y-69.75
X98.292Y-72.386
X99.202Y-61.398
X99.329Y-66.605
X100.472Y-59.315
X100.581Y-53.651
X100.98Y-67.621
X101.539Y-55.048
X101.869Y-64.319
X103.723Y-60.89
X103.977Y-66.021
X104.079Y-59.112
X104.536Y-61.906
X104.536Y-63.125
X104.953Y-53.651
X104.993Y-63.989
X105.044Y-69.145
X105.298Y-56.699
X105.552Y-59.315
X106.924Y-68.561
X107.515Y-56.844
X107.533Y-59.518
X107.584Y-61.652
X107.635Y-69.577
X107.965Y-73.209
X108.092Y-60.839
X108.397Y-66.58
X108.448Y-65.564
X108.463Y-67.631
X108.702Y-58.452
X109.326Y-53.651
X109.718Y-64.649
X110.505Y-68.764
X110.937Y-56.724
X111.61Y-62.757
X111.8Y-60.992
X112.715Y-63.836
X112.791Y-73.209
X112.918Y-64.827
X113.223Y-66.681
X113.553Y-55.683
X113.698Y-53.651
X113.883Y-58.655
X113.934Y-64.598
X114.188Y-57.334
X114.315Y-60.636
X115.61Y-54.896
X115.61Y-65.716
X117.871Y-60.636
X118.071Y-53.651
X118.252Y-73.209
X118.608Y-65.157
X118.887Y-70.161
X119.116Y-66.834
X119.141Y-55.81
X120.284Y-64.497
X121.097Y-58.553
X122.189Y-70.161
X122.316Y-53.651
X122.316Y-55.81
X122.316Y-59.62
X122.316Y-62.16
X122.443Y-64.954
X122.443Y-73.209
T3
G00X89.51Y-59.11
M15
G01X90.31Y-59.11
M16
G05
G00X89.51Y-67.75
M15
G01X90.31Y-67.75
M16
G05
G00X93.53Y-59.11
M15
G01X94.63Y-59.11
M16
G05
G00X93.53Y-67.75
M15
G01X94.63Y-67.75
M16
G05
T0
M30
