%TF.GenerationSoftware,KiCad,Pcbnew,(6.0.1)*%
%TF.CreationDate,2022-02-19T00:35:01+08:00*%
%TF.ProjectId,PCB_DAP_Link_CH55xT,5043425f-4441-4505-9f4c-696e6b5f4348,0.9*%
%TF.SameCoordinates,Original*%
%TF.FileFunction,Paste,Top*%
%TF.FilePolarity,Positive*%
%FSLAX46Y46*%
G04 Gerber Fmt 4.6, Leading zero omitted, Abs format (unit mm)*
G04 Created by KiCad (PCBNEW (6.0.1)) date 2022-02-19 00:35:01*
%MOMM*%
%LPD*%
G01*
G04 APERTURE LIST*
G04 Aperture macros list*
%AMRoundRect*
0 Rectangle with rounded corners*
0 $1 Rounding radius*
0 $2 $3 $4 $5 $6 $7 $8 $9 X,Y pos of 4 corners*
0 Add a 4 corners polygon primitive as box body*
4,1,4,$2,$3,$4,$5,$6,$7,$8,$9,$2,$3,0*
0 Add four circle primitives for the rounded corners*
1,1,$1+$1,$2,$3*
1,1,$1+$1,$4,$5*
1,1,$1+$1,$6,$7*
1,1,$1+$1,$8,$9*
0 Add four rect primitives between the rounded corners*
20,1,$1+$1,$2,$3,$4,$5,0*
20,1,$1+$1,$4,$5,$6,$7,0*
20,1,$1+$1,$6,$7,$8,$9,0*
20,1,$1+$1,$8,$9,$2,$3,0*%
G04 Aperture macros list end*
%ADD10RoundRect,0.135000X0.135000X0.185000X-0.135000X0.185000X-0.135000X-0.185000X0.135000X-0.185000X0*%
%ADD11RoundRect,0.225000X0.250000X-0.225000X0.250000X0.225000X-0.250000X0.225000X-0.250000X-0.225000X0*%
%ADD12RoundRect,0.250000X0.250000X0.475000X-0.250000X0.475000X-0.250000X-0.475000X0.250000X-0.475000X0*%
%ADD13R,1.160000X0.600000*%
%ADD14R,1.160000X0.300000*%
%ADD15RoundRect,0.225000X0.225000X0.250000X-0.225000X0.250000X-0.225000X-0.250000X0.225000X-0.250000X0*%
%ADD16RoundRect,0.150000X-0.512500X-0.150000X0.512500X-0.150000X0.512500X0.150000X-0.512500X0.150000X0*%
%ADD17R,1.000000X0.400000*%
%ADD18RoundRect,0.135000X-0.135000X-0.185000X0.135000X-0.185000X0.135000X0.185000X-0.135000X0.185000X0*%
%ADD19RoundRect,0.225000X-0.225000X-0.250000X0.225000X-0.250000X0.225000X0.250000X-0.225000X0.250000X0*%
%ADD20RoundRect,0.200000X0.200000X0.275000X-0.200000X0.275000X-0.200000X-0.275000X0.200000X-0.275000X0*%
%ADD21RoundRect,0.200000X0.200000X0.800000X-0.200000X0.800000X-0.200000X-0.800000X0.200000X-0.800000X0*%
%ADD22RoundRect,0.150000X-0.587500X-0.150000X0.587500X-0.150000X0.587500X0.150000X-0.587500X0.150000X0*%
%ADD23RoundRect,0.410000X-1.340000X0.410000X-1.340000X-0.410000X1.340000X-0.410000X1.340000X0.410000X0*%
%ADD24RoundRect,0.218750X-0.218750X-0.256250X0.218750X-0.256250X0.218750X0.256250X-0.218750X0.256250X0*%
%ADD25R,0.800000X0.500000*%
%ADD26R,0.800000X0.400000*%
%ADD27RoundRect,0.218750X0.218750X0.256250X-0.218750X0.256250X-0.218750X-0.256250X0.218750X-0.256250X0*%
G04 APERTURE END LIST*
D10*
%TO.C,R6*%
X110251000Y-61436600D03*
X109231000Y-61436600D03*
%TD*%
D11*
%TO.C,C5*%
X98440000Y-66455000D03*
X98440000Y-64905000D03*
%TD*%
D12*
%TO.C,C1*%
X95646000Y-71755000D03*
X93746000Y-71755000D03*
%TD*%
D13*
%TO.C,J1*%
X94660000Y-60230000D03*
X94660000Y-61030000D03*
D14*
X94660000Y-62180000D03*
X94660000Y-63180000D03*
X94660000Y-63680000D03*
X94660000Y-64680000D03*
D13*
X94660000Y-65830000D03*
X94660000Y-66630000D03*
X94660000Y-66630000D03*
X94660000Y-65830000D03*
D14*
X94660000Y-65180000D03*
X94660000Y-64180000D03*
X94660000Y-62680000D03*
X94660000Y-61680000D03*
D13*
X94660000Y-61030000D03*
X94660000Y-60230000D03*
%TD*%
D15*
%TO.C,C4*%
X103533000Y-68180000D03*
X101983000Y-68180000D03*
%TD*%
D16*
%TO.C,U1*%
X99512500Y-70480000D03*
X99512500Y-71430000D03*
X99512500Y-72380000D03*
X101787500Y-72380000D03*
X101787500Y-70480000D03*
%TD*%
D17*
%TO.C,U2*%
X106420000Y-66355000D03*
X106420000Y-65705000D03*
X106420000Y-65055000D03*
X106420000Y-64405000D03*
X106420000Y-63755000D03*
X106420000Y-63105000D03*
X106420000Y-62455000D03*
X106420000Y-61805000D03*
X106420000Y-61155000D03*
X106420000Y-60505000D03*
X100620000Y-60505000D03*
X100620000Y-61155000D03*
X100620000Y-61805000D03*
X100620000Y-62455000D03*
X100620000Y-63105000D03*
X100620000Y-63755000D03*
X100620000Y-64405000D03*
X100620000Y-65055000D03*
X100620000Y-65705000D03*
X100620000Y-66355000D03*
%TD*%
D18*
%TO.C,R2*%
X97422000Y-62180000D03*
X98442000Y-62180000D03*
%TD*%
D19*
%TO.C,C6*%
X105965000Y-58350000D03*
X107515000Y-58350000D03*
%TD*%
D20*
%TO.C,R3*%
X91690000Y-70415000D03*
X90040000Y-70415000D03*
%TD*%
D21*
%TO.C,SW1*%
X100000000Y-56430000D03*
X95800000Y-56430000D03*
%TD*%
D22*
%TO.C,Q1*%
X114520500Y-68265000D03*
X114520500Y-70165000D03*
X116395500Y-69215000D03*
%TD*%
D16*
%TO.C,U3*%
X109748500Y-57480000D03*
X109748500Y-58430000D03*
X109748500Y-59380000D03*
X112023500Y-59380000D03*
X112023500Y-58430000D03*
X112023500Y-57480000D03*
%TD*%
D19*
%TO.C,C3*%
X103650000Y-70430000D03*
X105200000Y-70430000D03*
%TD*%
D20*
%TO.C,R4*%
X91705000Y-56445000D03*
X90055000Y-56445000D03*
%TD*%
%TO.C,R9*%
X111375000Y-69850000D03*
X109725000Y-69850000D03*
%TD*%
%TO.C,R7*%
X104300000Y-57334000D03*
X102650000Y-57334000D03*
%TD*%
D23*
%TO.C,J2*%
X125110000Y-58350000D03*
X125110000Y-60890000D03*
X125110000Y-63430000D03*
X125110000Y-65970000D03*
X125110000Y-68510000D03*
%TD*%
D19*
%TO.C,C2*%
X103625000Y-72430000D03*
X105175000Y-72430000D03*
%TD*%
D16*
%TO.C,U4*%
X109748500Y-65730000D03*
X109748500Y-66680000D03*
X109748500Y-67630000D03*
X112023500Y-67630000D03*
X112023500Y-66680000D03*
X112023500Y-65730000D03*
%TD*%
D24*
%TO.C,D1*%
X102687500Y-55240000D03*
X104262500Y-55240000D03*
%TD*%
D10*
%TO.C,R5*%
X110253000Y-63023600D03*
X109233000Y-63023600D03*
%TD*%
D25*
%TO.C,RN1*%
X114730000Y-62230000D03*
D26*
X114730000Y-63030000D03*
X114730000Y-63830000D03*
D25*
X114730000Y-64630000D03*
X116530000Y-64630000D03*
D26*
X116530000Y-63830000D03*
X116530000Y-63030000D03*
D25*
X116530000Y-62230000D03*
%TD*%
D18*
%TO.C,R1*%
X97420000Y-63430000D03*
X98440000Y-63430000D03*
%TD*%
D20*
%TO.C,R8*%
X98503000Y-59180000D03*
X96853000Y-59180000D03*
%TD*%
D27*
%TO.C,F1*%
X95646000Y-69850000D03*
X94071000Y-69850000D03*
%TD*%
M02*
