M48
; DRILL file {KiCad (6.0.1)} date Sun Feb 20 00:38:34 2022
; FORMAT={-:-/ absolute / metric / decimal}
; #@! TF.CreationDate,2022-02-20T00:38:34+08:00
; #@! TF.GenerationSoftware,Kicad,Pcbnew,(6.0.1)
; #@! TF.FileFunction,Plated,1,2,PTH
FMAT,2
METRIC
; #@! TA.AperFunction,Plated,PTH,ViaDrill
T1C0.400
; #@! TA.AperFunction,Plated,PTH,ComponentDrill
T2C0.500
; #@! TA.AperFunction,Plated,PTH,ComponentDrill
T3C1.000
; #@! TA.AperFunction,Plated,PTH,ComponentDrill
T4C2.700
%
G90
G05
T1
X100.53Y-51.003
X100.53Y-55.797
X100.53Y-60.592
X100.53Y-65.386
X100.53Y-70.18
X104.34Y-60.274
X104.467Y-52.781
X104.467Y-55.321
X104.467Y-57.861
X105.673Y-76.911
X105.769Y-44.399
X105.864Y-62.306
X105.991Y-65.608
X107.957Y-69.357
X108.912Y-62.179
X109.09Y-54.127
X109.868Y-76.911
X109.919Y-58.75
X109.928Y-66.878
X109.928Y-67.64
X109.964Y-44.399
X111.077Y-63.582
X111.198Y-66.878
X111.198Y-67.64
X111.833Y-53.289
X112.019Y-58.75
X112.595Y-55.956
X112.849Y-67.64
X113.611Y-55.067
X114.063Y-76.911
X114.159Y-44.399
X115.516Y-54.94
X116.659Y-58.242
X116.71Y-56.464
X117.929Y-70.815
X118.258Y-76.911
X118.354Y-44.399
X118.945Y-53.289
X119.453Y-62.56
X122.453Y-76.911
X122.549Y-44.399
X127.454Y-50.829
X127.454Y-55.623
X127.454Y-60.417
X127.454Y-65.211
X127.454Y-70.006
T2
X100.594Y-46.577
X100.594Y-74.577
X101.187Y-45.145
X101.187Y-48.009
X101.187Y-73.145
X101.187Y-76.009
X102.619Y-44.552
X102.619Y-48.602
X102.619Y-72.552
X102.619Y-76.602
X104.051Y-45.145
X104.051Y-48.009
X104.051Y-73.145
X104.051Y-76.009
X104.644Y-46.577
X104.644Y-74.577
X123.594Y-46.577
X123.594Y-74.577
X124.187Y-45.145
X124.187Y-48.009
X124.187Y-73.145
X124.187Y-76.009
X125.619Y-44.552
X125.619Y-48.602
X125.619Y-72.552
X125.619Y-76.602
X127.051Y-45.145
X127.051Y-48.009
X127.051Y-73.145
X127.051Y-76.009
X127.644Y-46.577
X127.644Y-74.577
T3
X103.119Y-51.577
X103.119Y-54.117
X103.119Y-56.657
X103.119Y-59.197
X103.119Y-61.737
X103.119Y-64.277
X103.119Y-66.817
X103.119Y-69.357
T4
X102.619Y-46.577
X102.619Y-74.577
X125.619Y-46.577
X125.619Y-74.577
T0
M30
