%TF.GenerationSoftware,KiCad,Pcbnew,(6.0.1)*%
%TF.CreationDate,2022-02-20T00:37:46+08:00*%
%TF.ProjectId,PCB_TFT_RF096HQ13,5043425f-5446-4545-9f52-463039364851,V0.9*%
%TF.SameCoordinates,Original*%
%TF.FileFunction,Legend,Top*%
%TF.FilePolarity,Positive*%
%FSLAX46Y46*%
G04 Gerber Fmt 4.6, Leading zero omitted, Abs format (unit mm)*
G04 Created by KiCad (PCBNEW (6.0.1)) date 2022-02-20 00:37:46*
%MOMM*%
%LPD*%
G01*
G04 APERTURE LIST*
%ADD10C,0.150000*%
%ADD11C,0.120000*%
%ADD12C,0.203200*%
%ADD13C,0.500000*%
G04 APERTURE END LIST*
D10*
X107311800Y-62966600D02*
X107311800Y-46507400D01*
X120926200Y-62966600D02*
X120926200Y-74498200D01*
X120926200Y-62966600D02*
X120926200Y-46507400D01*
X118970400Y-71071500D02*
X118970400Y-75973700D01*
X107311800Y-74498200D02*
X120926200Y-74498200D01*
X109267600Y-71085600D02*
X109267600Y-75987800D01*
X107311800Y-62966600D02*
X107311800Y-74498200D01*
X120926200Y-46507400D02*
X107311800Y-46507400D01*
D11*
X105387714Y-54711533D02*
X105425809Y-54749628D01*
X105463904Y-54863914D01*
X105463904Y-54940104D01*
X105425809Y-55054390D01*
X105349619Y-55130580D01*
X105273428Y-55168676D01*
X105121047Y-55206771D01*
X105006761Y-55206771D01*
X104854380Y-55168676D01*
X104778190Y-55130580D01*
X104702000Y-55054390D01*
X104663904Y-54940104D01*
X104663904Y-54863914D01*
X104702000Y-54749628D01*
X104740095Y-54711533D01*
X105425809Y-54406771D02*
X105463904Y-54292485D01*
X105463904Y-54102009D01*
X105425809Y-54025819D01*
X105387714Y-53987723D01*
X105311523Y-53949628D01*
X105235333Y-53949628D01*
X105159142Y-53987723D01*
X105121047Y-54025819D01*
X105082952Y-54102009D01*
X105044857Y-54254390D01*
X105006761Y-54330580D01*
X104968666Y-54368676D01*
X104892476Y-54406771D01*
X104816285Y-54406771D01*
X104740095Y-54368676D01*
X104702000Y-54330580D01*
X104663904Y-54254390D01*
X104663904Y-54063914D01*
X104702000Y-53949628D01*
X104930571Y-53644866D02*
X104930571Y-53073438D01*
X104587714Y-53416295D02*
X105616285Y-53644866D01*
X105273428Y-53149628D02*
X105273428Y-53721057D01*
X105616285Y-53378200D02*
X104587714Y-53149628D01*
X104702000Y-70027723D02*
X104663904Y-70103914D01*
X104663904Y-70218200D01*
X104702000Y-70332485D01*
X104778190Y-70408676D01*
X104854380Y-70446771D01*
X105006761Y-70484866D01*
X105121047Y-70484866D01*
X105273428Y-70446771D01*
X105349619Y-70408676D01*
X105425809Y-70332485D01*
X105463904Y-70218200D01*
X105463904Y-70142009D01*
X105425809Y-70027723D01*
X105387714Y-69989628D01*
X105121047Y-69989628D01*
X105121047Y-70142009D01*
X105463904Y-69646771D02*
X104663904Y-69646771D01*
X105463904Y-69189628D01*
X104663904Y-69189628D01*
X105463904Y-68808676D02*
X104663904Y-68808676D01*
X104663904Y-68618200D01*
X104702000Y-68503914D01*
X104778190Y-68427723D01*
X104854380Y-68389628D01*
X105006761Y-68351533D01*
X105121047Y-68351533D01*
X105273428Y-68389628D01*
X105349619Y-68427723D01*
X105425809Y-68503914D01*
X105463904Y-68618200D01*
X105463904Y-68808676D01*
D10*
X110296761Y-68472104D02*
X110296761Y-69043533D01*
X110258666Y-69157819D01*
X110182476Y-69234009D01*
X110068190Y-69272104D01*
X109992000Y-69272104D01*
X111058666Y-69272104D02*
X110677714Y-69272104D01*
X110677714Y-68472104D01*
X111782476Y-69195914D02*
X111744380Y-69234009D01*
X111630095Y-69272104D01*
X111553904Y-69272104D01*
X111439619Y-69234009D01*
X111363428Y-69157819D01*
X111325333Y-69081628D01*
X111287238Y-68929247D01*
X111287238Y-68814961D01*
X111325333Y-68662580D01*
X111363428Y-68586390D01*
X111439619Y-68510200D01*
X111553904Y-68472104D01*
X111630095Y-68472104D01*
X111744380Y-68510200D01*
X111782476Y-68548295D01*
X112353904Y-68472104D02*
X112353904Y-69043533D01*
X112315809Y-69157819D01*
X112239619Y-69234009D01*
X112125333Y-69272104D01*
X112049142Y-69272104D01*
X113115809Y-69272104D02*
X112734857Y-69272104D01*
X112734857Y-68472104D01*
X113839619Y-69195914D02*
X113801523Y-69234009D01*
X113687238Y-69272104D01*
X113611047Y-69272104D01*
X113496761Y-69234009D01*
X113420571Y-69157819D01*
X113382476Y-69081628D01*
X113344380Y-68929247D01*
X113344380Y-68814961D01*
X113382476Y-68662580D01*
X113420571Y-68586390D01*
X113496761Y-68510200D01*
X113611047Y-68472104D01*
X113687238Y-68472104D01*
X113801523Y-68510200D01*
X113839619Y-68548295D01*
X114411047Y-68472104D02*
X114411047Y-69043533D01*
X114372952Y-69157819D01*
X114296761Y-69234009D01*
X114182476Y-69272104D01*
X114106285Y-69272104D01*
X115172952Y-69272104D02*
X114792000Y-69272104D01*
X114792000Y-68472104D01*
X115896761Y-69195914D02*
X115858666Y-69234009D01*
X115744380Y-69272104D01*
X115668190Y-69272104D01*
X115553904Y-69234009D01*
X115477714Y-69157819D01*
X115439619Y-69081628D01*
X115401523Y-68929247D01*
X115401523Y-68814961D01*
X115439619Y-68662580D01*
X115477714Y-68586390D01*
X115553904Y-68510200D01*
X115668190Y-68472104D01*
X115744380Y-68472104D01*
X115858666Y-68510200D01*
X115896761Y-68548295D01*
X116468190Y-68472104D02*
X116468190Y-69043533D01*
X116430095Y-69157819D01*
X116353904Y-69234009D01*
X116239619Y-69272104D01*
X116163428Y-69272104D01*
X117230095Y-69272104D02*
X116849142Y-69272104D01*
X116849142Y-68472104D01*
X117953904Y-69195914D02*
X117915809Y-69234009D01*
X117801523Y-69272104D01*
X117725333Y-69272104D01*
X117611047Y-69234009D01*
X117534857Y-69157819D01*
X117496761Y-69081628D01*
X117458666Y-68929247D01*
X117458666Y-68814961D01*
X117496761Y-68662580D01*
X117534857Y-68586390D01*
X117611047Y-68510200D01*
X117725333Y-68472104D01*
X117801523Y-68472104D01*
X117915809Y-68510200D01*
X117953904Y-68548295D01*
D12*
X122471608Y-70651914D02*
X122471608Y-70506771D01*
X122544180Y-70361628D01*
X122616751Y-70289057D01*
X122761894Y-70216485D01*
X123052180Y-70143914D01*
X123415037Y-70143914D01*
X123705322Y-70216485D01*
X123850465Y-70289057D01*
X123923037Y-70361628D01*
X123995608Y-70506771D01*
X123995608Y-70651914D01*
X123923037Y-70797057D01*
X123850465Y-70869628D01*
X123705322Y-70942199D01*
X123415037Y-71014771D01*
X123052180Y-71014771D01*
X122761894Y-70942199D01*
X122616751Y-70869628D01*
X122544180Y-70797057D01*
X122471608Y-70651914D01*
X123850465Y-69490771D02*
X123923037Y-69418199D01*
X123995608Y-69490771D01*
X123923037Y-69563342D01*
X123850465Y-69490771D01*
X123995608Y-69490771D01*
X123995608Y-68692485D02*
X123995608Y-68402199D01*
X123923037Y-68257057D01*
X123850465Y-68184485D01*
X123632751Y-68039342D01*
X123342465Y-67966771D01*
X122761894Y-67966771D01*
X122616751Y-68039342D01*
X122544180Y-68111914D01*
X122471608Y-68257057D01*
X122471608Y-68547342D01*
X122544180Y-68692485D01*
X122616751Y-68765057D01*
X122761894Y-68837628D01*
X123124751Y-68837628D01*
X123269894Y-68765057D01*
X123342465Y-68692485D01*
X123415037Y-68547342D01*
X123415037Y-68257057D01*
X123342465Y-68111914D01*
X123269894Y-68039342D01*
X123124751Y-67966771D01*
X122471608Y-66660485D02*
X122471608Y-66950771D01*
X122544180Y-67095914D01*
X122616751Y-67168485D01*
X122834465Y-67313628D01*
X123124751Y-67386199D01*
X123705322Y-67386199D01*
X123850465Y-67313628D01*
X123923037Y-67241057D01*
X123995608Y-67095914D01*
X123995608Y-66805628D01*
X123923037Y-66660485D01*
X123850465Y-66587914D01*
X123705322Y-66515342D01*
X123342465Y-66515342D01*
X123197322Y-66587914D01*
X123124751Y-66660485D01*
X123052180Y-66805628D01*
X123052180Y-67095914D01*
X123124751Y-67241057D01*
X123197322Y-67313628D01*
X123342465Y-67386199D01*
X122471608Y-65934771D02*
X122761894Y-65934771D01*
X122471608Y-65354199D02*
X122761894Y-65354199D01*
X123124751Y-63322199D02*
X123052180Y-63467342D01*
X122979608Y-63539914D01*
X122834465Y-63612485D01*
X122761894Y-63612485D01*
X122616751Y-63539914D01*
X122544180Y-63467342D01*
X122471608Y-63322199D01*
X122471608Y-63031914D01*
X122544180Y-62886771D01*
X122616751Y-62814199D01*
X122761894Y-62741628D01*
X122834465Y-62741628D01*
X122979608Y-62814199D01*
X123052180Y-62886771D01*
X123124751Y-63031914D01*
X123124751Y-63322199D01*
X123197322Y-63467342D01*
X123269894Y-63539914D01*
X123415037Y-63612485D01*
X123705322Y-63612485D01*
X123850465Y-63539914D01*
X123923037Y-63467342D01*
X123995608Y-63322199D01*
X123995608Y-63031914D01*
X123923037Y-62886771D01*
X123850465Y-62814199D01*
X123705322Y-62741628D01*
X123415037Y-62741628D01*
X123269894Y-62814199D01*
X123197322Y-62886771D01*
X123124751Y-63031914D01*
X122471608Y-61798200D02*
X122471608Y-61653057D01*
X122544180Y-61507914D01*
X122616751Y-61435342D01*
X122761894Y-61362771D01*
X123052180Y-61290200D01*
X123415037Y-61290200D01*
X123705322Y-61362771D01*
X123850465Y-61435342D01*
X123923037Y-61507914D01*
X123995608Y-61653057D01*
X123995608Y-61798200D01*
X123923037Y-61943342D01*
X123850465Y-62015914D01*
X123705322Y-62088485D01*
X123415037Y-62161057D01*
X123052180Y-62161057D01*
X122761894Y-62088485D01*
X122616751Y-62015914D01*
X122544180Y-61943342D01*
X122471608Y-61798200D01*
X122471608Y-60419342D02*
X122834465Y-60419342D01*
X122689322Y-60782200D02*
X122834465Y-60419342D01*
X122689322Y-60056485D01*
X123124751Y-60637057D02*
X122834465Y-60419342D01*
X123124751Y-60201628D01*
X123995608Y-58605057D02*
X123269894Y-59113057D01*
X123995608Y-59475914D02*
X122471608Y-59475914D01*
X122471608Y-58895342D01*
X122544180Y-58750200D01*
X122616751Y-58677628D01*
X122761894Y-58605057D01*
X122979608Y-58605057D01*
X123124751Y-58677628D01*
X123197322Y-58750200D01*
X123269894Y-58895342D01*
X123269894Y-59475914D01*
X122544180Y-57153628D02*
X122471608Y-57298771D01*
X122471608Y-57516485D01*
X122544180Y-57734200D01*
X122689322Y-57879342D01*
X122834465Y-57951914D01*
X123124751Y-58024485D01*
X123342465Y-58024485D01*
X123632751Y-57951914D01*
X123777894Y-57879342D01*
X123923037Y-57734200D01*
X123995608Y-57516485D01*
X123995608Y-57371342D01*
X123923037Y-57153628D01*
X123850465Y-57081057D01*
X123342465Y-57081057D01*
X123342465Y-57371342D01*
X123197322Y-55919914D02*
X123269894Y-55702200D01*
X123342465Y-55629628D01*
X123487608Y-55557057D01*
X123705322Y-55557057D01*
X123850465Y-55629628D01*
X123923037Y-55702200D01*
X123995608Y-55847342D01*
X123995608Y-56427914D01*
X122471608Y-56427914D01*
X122471608Y-55919914D01*
X122544180Y-55774771D01*
X122616751Y-55702200D01*
X122761894Y-55629628D01*
X122907037Y-55629628D01*
X123052180Y-55702200D01*
X123124751Y-55774771D01*
X123197322Y-55919914D01*
X123197322Y-56427914D01*
X122471608Y-54686200D02*
X122834465Y-54686200D01*
X122689322Y-55049057D02*
X122834465Y-54686200D01*
X122689322Y-54323342D01*
X123124751Y-54903914D02*
X122834465Y-54686200D01*
X123124751Y-54468485D01*
X123995608Y-52944485D02*
X123995608Y-53815342D01*
X123995608Y-53379914D02*
X122471608Y-53379914D01*
X122689322Y-53525057D01*
X122834465Y-53670200D01*
X122907037Y-53815342D01*
X122471608Y-51638200D02*
X122471608Y-51928485D01*
X122544180Y-52073628D01*
X122616751Y-52146200D01*
X122834465Y-52291342D01*
X123124751Y-52363914D01*
X123705322Y-52363914D01*
X123850465Y-52291342D01*
X123923037Y-52218771D01*
X123995608Y-52073628D01*
X123995608Y-51783342D01*
X123923037Y-51638200D01*
X123850465Y-51565628D01*
X123705322Y-51493057D01*
X123342465Y-51493057D01*
X123197322Y-51565628D01*
X123124751Y-51638200D01*
X123052180Y-51783342D01*
X123052180Y-52073628D01*
X123124751Y-52218771D01*
X123197322Y-52291342D01*
X123342465Y-52363914D01*
X122471608Y-50549628D02*
X122471608Y-50404485D01*
X122544180Y-50259342D01*
X122616751Y-50186771D01*
X122761894Y-50114200D01*
X123052180Y-50041628D01*
X123415037Y-50041628D01*
X123705322Y-50114200D01*
X123850465Y-50186771D01*
X123923037Y-50259342D01*
X123995608Y-50404485D01*
X123995608Y-50549628D01*
X123923037Y-50694771D01*
X123850465Y-50767342D01*
X123705322Y-50839914D01*
X123415037Y-50912485D01*
X123052180Y-50912485D01*
X122761894Y-50839914D01*
X122616751Y-50767342D01*
X122544180Y-50694771D01*
X122471608Y-50549628D01*
X124925248Y-62197342D02*
X124925248Y-61326485D01*
X126449248Y-61761914D02*
X124925248Y-61761914D01*
X125650962Y-60310485D02*
X125650962Y-60818485D01*
X126449248Y-60818485D02*
X124925248Y-60818485D01*
X124925248Y-60092771D01*
X124925248Y-59729914D02*
X124925248Y-58859057D01*
X126449248Y-59294485D02*
X124925248Y-59294485D01*
D11*
X104438000Y-60401057D02*
X104438000Y-59601057D01*
X105463904Y-59753438D02*
X105082952Y-60020104D01*
X105463904Y-60210580D02*
X104663904Y-60210580D01*
X104663904Y-59905819D01*
X104702000Y-59829628D01*
X104740095Y-59791533D01*
X104816285Y-59753438D01*
X104930571Y-59753438D01*
X105006761Y-59791533D01*
X105044857Y-59829628D01*
X105082952Y-59905819D01*
X105082952Y-60210580D01*
X104438000Y-59601057D02*
X104438000Y-58877247D01*
X105044857Y-59410580D02*
X105044857Y-59143914D01*
X105463904Y-59029628D02*
X105463904Y-59410580D01*
X104663904Y-59410580D01*
X104663904Y-59029628D01*
X104438000Y-58877247D02*
X104438000Y-58115342D01*
X105425809Y-58724866D02*
X105463904Y-58610580D01*
X105463904Y-58420104D01*
X105425809Y-58343914D01*
X105387714Y-58305819D01*
X105311523Y-58267723D01*
X105235333Y-58267723D01*
X105159142Y-58305819D01*
X105121047Y-58343914D01*
X105082952Y-58420104D01*
X105044857Y-58572485D01*
X105006761Y-58648676D01*
X104968666Y-58686771D01*
X104892476Y-58724866D01*
X104816285Y-58724866D01*
X104740095Y-58686771D01*
X104702000Y-58648676D01*
X104663904Y-58572485D01*
X104663904Y-58382009D01*
X104702000Y-58267723D01*
X104663904Y-67944866D02*
X105463904Y-67678200D01*
X104663904Y-67411533D01*
X105387714Y-66687723D02*
X105425809Y-66725819D01*
X105463904Y-66840104D01*
X105463904Y-66916295D01*
X105425809Y-67030580D01*
X105349619Y-67106771D01*
X105273428Y-67144866D01*
X105121047Y-67182961D01*
X105006761Y-67182961D01*
X104854380Y-67144866D01*
X104778190Y-67106771D01*
X104702000Y-67030580D01*
X104663904Y-66916295D01*
X104663904Y-66840104D01*
X104702000Y-66725819D01*
X104740095Y-66687723D01*
X105387714Y-65887723D02*
X105425809Y-65925819D01*
X105463904Y-66040104D01*
X105463904Y-66116295D01*
X105425809Y-66230580D01*
X105349619Y-66306771D01*
X105273428Y-66344866D01*
X105121047Y-66382961D01*
X105006761Y-66382961D01*
X104854380Y-66344866D01*
X104778190Y-66306771D01*
X104702000Y-66230580D01*
X104663904Y-66116295D01*
X104663904Y-66040104D01*
X104702000Y-65925819D01*
X104740095Y-65887723D01*
X105460856Y-57727723D02*
X104660856Y-57727723D01*
X104660856Y-57537247D01*
X104698952Y-57422961D01*
X104775142Y-57346771D01*
X104851332Y-57308676D01*
X105003713Y-57270580D01*
X105117999Y-57270580D01*
X105270380Y-57308676D01*
X105346571Y-57346771D01*
X105422761Y-57422961D01*
X105460856Y-57537247D01*
X105460856Y-57727723D01*
X105384666Y-56470580D02*
X105422761Y-56508676D01*
X105460856Y-56622961D01*
X105460856Y-56699152D01*
X105422761Y-56813438D01*
X105346571Y-56889628D01*
X105270380Y-56927723D01*
X105117999Y-56965819D01*
X105003713Y-56965819D01*
X104851332Y-56927723D01*
X104775142Y-56889628D01*
X104698952Y-56813438D01*
X104660856Y-56699152D01*
X104660856Y-56622961D01*
X104698952Y-56508676D01*
X104737047Y-56470580D01*
X104927523Y-56165819D02*
X104927523Y-55594390D01*
X104584666Y-55937247D02*
X105613237Y-56165819D01*
X105270380Y-55670580D02*
X105270380Y-56242009D01*
X105613237Y-55899152D02*
X104584666Y-55670580D01*
X105425799Y-65163581D02*
X105463894Y-65049296D01*
X105463894Y-64858820D01*
X105425799Y-64782629D01*
X105387704Y-64744534D01*
X105311513Y-64706439D01*
X105235323Y-64706439D01*
X105159132Y-64744534D01*
X105121037Y-64782629D01*
X105082942Y-64858820D01*
X105044847Y-65011201D01*
X105006751Y-65087391D01*
X104968656Y-65125486D01*
X104892466Y-65163581D01*
X104816275Y-65163581D01*
X104740085Y-65125486D01*
X104701990Y-65087391D01*
X104663894Y-65011201D01*
X104663894Y-64820724D01*
X104701990Y-64706439D01*
X105387704Y-63906439D02*
X105425799Y-63944534D01*
X105463894Y-64058820D01*
X105463894Y-64135010D01*
X105425799Y-64249296D01*
X105349609Y-64325486D01*
X105273418Y-64363581D01*
X105121037Y-64401677D01*
X105006751Y-64401677D01*
X104854370Y-64363581D01*
X104778180Y-64325486D01*
X104701990Y-64249296D01*
X104663894Y-64135010D01*
X104663894Y-64058820D01*
X104701990Y-63944534D01*
X104740085Y-63906439D01*
X105463894Y-63182629D02*
X105463894Y-63563581D01*
X104663894Y-63563581D01*
X105171857Y-51904866D02*
X105209952Y-51790580D01*
X105248047Y-51752485D01*
X105324238Y-51714390D01*
X105438523Y-51714390D01*
X105514714Y-51752485D01*
X105552809Y-51790580D01*
X105590904Y-51866771D01*
X105590904Y-52171533D01*
X104790904Y-52171533D01*
X104790904Y-51904866D01*
X104829000Y-51828676D01*
X104867095Y-51790580D01*
X104943285Y-51752485D01*
X105019476Y-51752485D01*
X105095666Y-51790580D01*
X105133761Y-51828676D01*
X105171857Y-51904866D01*
X105171857Y-52171533D01*
X105590904Y-50990580D02*
X105590904Y-51371533D01*
X104790904Y-51371533D01*
X105425809Y-62769628D02*
X105463904Y-62655342D01*
X105463904Y-62464866D01*
X105425809Y-62388676D01*
X105387714Y-62350580D01*
X105311523Y-62312485D01*
X105235333Y-62312485D01*
X105159142Y-62350580D01*
X105121047Y-62388676D01*
X105082952Y-62464866D01*
X105044857Y-62617247D01*
X105006761Y-62693438D01*
X104968666Y-62731533D01*
X104892476Y-62769628D01*
X104816285Y-62769628D01*
X104740095Y-62731533D01*
X104702000Y-62693438D01*
X104663904Y-62617247D01*
X104663904Y-62426771D01*
X104702000Y-62312485D01*
X105463904Y-61969628D02*
X104663904Y-61969628D01*
X104663904Y-61779152D01*
X104702000Y-61664866D01*
X104778190Y-61588676D01*
X104854380Y-61550580D01*
X105006761Y-61512485D01*
X105121047Y-61512485D01*
X105273428Y-61550580D01*
X105349619Y-61588676D01*
X105425809Y-61664866D01*
X105463904Y-61779152D01*
X105463904Y-61969628D01*
X105235333Y-61207723D02*
X105235333Y-60826771D01*
X105463904Y-61283914D02*
X104663904Y-61017247D01*
X105463904Y-60750580D01*
D10*
%TO.C,CN1*%
X113428523Y-64328642D02*
X113380904Y-64376261D01*
X113238047Y-64423880D01*
X113142809Y-64423880D01*
X112999952Y-64376261D01*
X112904714Y-64281023D01*
X112857095Y-64185785D01*
X112809476Y-63995309D01*
X112809476Y-63852452D01*
X112857095Y-63661976D01*
X112904714Y-63566738D01*
X112999952Y-63471500D01*
X113142809Y-63423880D01*
X113238047Y-63423880D01*
X113380904Y-63471500D01*
X113428523Y-63519119D01*
X113857095Y-64423880D02*
X113857095Y-63423880D01*
X114428523Y-64423880D01*
X114428523Y-63423880D01*
X115428523Y-64423880D02*
X114857095Y-64423880D01*
X115142809Y-64423880D02*
X115142809Y-63423880D01*
X115047571Y-63566738D01*
X114952333Y-63661976D01*
X114857095Y-63709595D01*
X119447571Y-63833404D02*
X118990428Y-63833404D01*
X119219000Y-63833404D02*
X119219000Y-63033404D01*
X119142809Y-63147690D01*
X119066619Y-63223880D01*
X118990428Y-63261976D01*
X108866619Y-63833404D02*
X108409476Y-63833404D01*
X108638047Y-63833404D02*
X108638047Y-63033404D01*
X108561857Y-63147690D01*
X108485666Y-63223880D01*
X108409476Y-63261976D01*
X109133285Y-63033404D02*
X109628523Y-63033404D01*
X109361857Y-63338166D01*
X109476142Y-63338166D01*
X109552333Y-63376261D01*
X109590428Y-63414357D01*
X109628523Y-63490547D01*
X109628523Y-63681023D01*
X109590428Y-63757214D01*
X109552333Y-63795309D01*
X109476142Y-63833404D01*
X109247571Y-63833404D01*
X109171380Y-63795309D01*
X109133285Y-63757214D01*
D11*
X118669000Y-60331500D02*
X118669000Y-59391500D01*
X109569000Y-62751500D02*
X118669000Y-62751500D01*
X108519000Y-60571500D02*
X109569000Y-60571500D01*
X119719000Y-60571500D02*
X118669000Y-60571500D01*
X119719000Y-65571500D02*
X119472553Y-65571500D01*
X108765447Y-65547236D02*
X108519000Y-65547236D01*
X118669000Y-61701500D02*
X118669000Y-60341500D01*
X109569000Y-60331500D02*
X109569000Y-59391500D01*
X120319000Y-64971500D02*
X120319000Y-62571500D01*
X109569000Y-62751500D02*
X109569000Y-61691500D01*
X120319000Y-61171500D02*
X120319000Y-62571500D01*
X109569000Y-61691500D02*
X109569000Y-60331500D01*
X109269000Y-66071500D02*
X109269000Y-69571500D01*
X107919000Y-64971500D02*
X107919000Y-62571500D01*
X118669000Y-62751500D02*
X118669000Y-61691500D01*
X107919000Y-61171500D02*
X107919000Y-62571500D01*
X109569000Y-59391500D02*
X118669000Y-59391500D01*
X118969000Y-66071500D02*
X118969000Y-69571500D01*
X109569000Y-60331500D02*
X109569000Y-59391500D01*
X109265447Y-66047236D02*
G75*
G03*
X108765447Y-65547236I-500001J-1D01*
G01*
X120319000Y-61171500D02*
G75*
G03*
X119719000Y-60571500I-600000J0D01*
G01*
X107919000Y-64947236D02*
G75*
G03*
X108519000Y-65547236I600000J0D01*
G01*
X119472553Y-65571500D02*
G75*
G03*
X118972553Y-66071500I1J-500001D01*
G01*
X108519000Y-60571500D02*
G75*
G03*
X107919000Y-61171500I0J-600000D01*
G01*
X119719000Y-65571500D02*
G75*
G03*
X120319000Y-64971500I0J600000D01*
G01*
D13*
X119569000Y-64571500D02*
G75*
G03*
X119569000Y-64571500I-250000J0D01*
G01*
X109169000Y-64571500D02*
G75*
G03*
X109169000Y-64571500I-250000J0D01*
G01*
%TD*%
M02*
