%TF.GenerationSoftware,KiCad,Pcbnew,(6.0.1)*%
%TF.CreationDate,2022-02-20T00:37:45+08:00*%
%TF.ProjectId,PCB_TFT_RF096HQ13,5043425f-5446-4545-9f52-463039364851,V0.9*%
%TF.SameCoordinates,Original*%
%TF.FileFunction,Copper,L1,Top*%
%TF.FilePolarity,Positive*%
%FSLAX46Y46*%
G04 Gerber Fmt 4.6, Leading zero omitted, Abs format (unit mm)*
G04 Created by KiCad (PCBNEW (6.0.1)) date 2022-02-20 00:37:45*
%MOMM*%
%LPD*%
G01*
G04 APERTURE LIST*
%TA.AperFunction,SMDPad,CuDef*%
%ADD10R,0.400000X3.000000*%
%TD*%
%TA.AperFunction,ComponentPad*%
%ADD11C,0.800000*%
%TD*%
%TA.AperFunction,ComponentPad*%
%ADD12C,5.400000*%
%TD*%
%TA.AperFunction,ComponentPad*%
%ADD13R,1.700000X1.700000*%
%TD*%
%TA.AperFunction,ComponentPad*%
%ADD14O,1.700000X1.700000*%
%TD*%
%TA.AperFunction,ViaPad*%
%ADD15C,0.700000*%
%TD*%
%TA.AperFunction,Conductor*%
%ADD16C,0.355600*%
%TD*%
%TA.AperFunction,Conductor*%
%ADD17C,0.762000*%
%TD*%
G04 APERTURE END LIST*
D10*
%TO.P,CN1,1,TP0*%
%TO.N,unconnected-(CN1-Pad1)*%
X118319000Y-61071500D03*
%TO.P,CN1,2,TP1*%
%TO.N,unconnected-(CN1-Pad2)*%
X117619000Y-61071500D03*
%TO.P,CN1,3,SDA*%
%TO.N,/SDA*%
X116919000Y-61071500D03*
%TO.P,CN1,4,SCL*%
%TO.N,/SCL*%
X116219000Y-61071500D03*
%TO.P,CN1,5,RS*%
%TO.N,/DC*%
X115519000Y-61071500D03*
%TO.P,CN1,6,~{RES}*%
%TO.N,/~{RES}*%
X114819000Y-61071500D03*
%TO.P,CN1,7,~{CS}*%
%TO.N,/~{CS}*%
X114119000Y-61071500D03*
%TO.P,CN1,8,GND*%
%TO.N,GND*%
X113419000Y-61071500D03*
%TO.P,CN1,9,NC*%
%TO.N,unconnected-(CN1-Pad9)*%
X112719000Y-61071500D03*
%TO.P,CN1,10,VCC*%
%TO.N,VCC*%
X112019000Y-61071500D03*
%TO.P,CN1,11,LEDK*%
%TO.N,Net-(CN1-Pad11)*%
X111319000Y-61071500D03*
%TO.P,CN1,12,LEDA*%
%TO.N,VCC*%
X110619000Y-61071500D03*
%TO.P,CN1,13,GND*%
%TO.N,GND*%
X109919000Y-61071500D03*
%TD*%
D11*
%TO.P,REF\u002A\u002A,1*%
%TO.N,N/C*%
X102619000Y-76602000D03*
X104050891Y-76008891D03*
X104050891Y-73145109D03*
X101187109Y-76008891D03*
D12*
X102619000Y-74577000D03*
D11*
X100594000Y-74577000D03*
X104644000Y-74577000D03*
X102619000Y-72552000D03*
X101187109Y-73145109D03*
%TD*%
%TO.P,REF\u002A\u002A,1*%
%TO.N,N/C*%
X125619000Y-48602000D03*
X127050891Y-48008891D03*
X127050891Y-45145109D03*
X124187109Y-48008891D03*
D12*
X125619000Y-46577000D03*
D11*
X123594000Y-46577000D03*
X127644000Y-46577000D03*
X125619000Y-44552000D03*
X124187109Y-45145109D03*
%TD*%
%TO.P,REF\u002A\u002A,1*%
%TO.N,N/C*%
X125619000Y-76602200D03*
X127050891Y-76009091D03*
X127050891Y-73145309D03*
X124187109Y-76009091D03*
D12*
X125619000Y-74577200D03*
D11*
X123594000Y-74577200D03*
X127644000Y-74577200D03*
X125619000Y-72552200D03*
X124187109Y-73145309D03*
%TD*%
%TO.P,REF\u002A\u002A,1*%
%TO.N,N/C*%
X102619000Y-48602000D03*
X104050891Y-48008891D03*
X104050891Y-45145109D03*
X101187109Y-48008891D03*
D12*
X102619000Y-46577000D03*
D11*
X100594000Y-46577000D03*
X104644000Y-46577000D03*
X102619000Y-44552000D03*
X101187109Y-45145109D03*
%TD*%
D13*
%TO.P,J1,1,Pin_1*%
%TO.N,GND*%
X103119000Y-69357000D03*
D14*
%TO.P,J1,2,Pin_2*%
%TO.N,VCC*%
X103119000Y-66817000D03*
%TO.P,J1,3,Pin_3*%
%TO.N,/SCL*%
X103119000Y-64277000D03*
%TO.P,J1,4,Pin_4*%
%TO.N,/SDA*%
X103119000Y-61737000D03*
%TO.P,J1,5,Pin_5*%
%TO.N,/~{RES}*%
X103119000Y-59197000D03*
%TO.P,J1,6,Pin_6*%
%TO.N,/DC*%
X103119000Y-56657000D03*
%TO.P,J1,7,Pin_7*%
%TO.N,/~{CS}*%
X103119000Y-54117000D03*
%TO.P,J1,8,Pin_8*%
%TO.N,/BL*%
X103119000Y-51577000D03*
%TD*%
D15*
%TO.N,VCC*%
X109928000Y-66878200D03*
X109928000Y-67640200D03*
X112019000Y-58750200D03*
X111198000Y-66878200D03*
X111198000Y-67640200D03*
%TO.N,GND*%
X100530000Y-51003200D03*
X127454000Y-65211325D03*
X108912000Y-62179200D03*
X119453000Y-62560200D03*
X104467000Y-55321200D03*
X111833000Y-53289200D03*
X100530000Y-70180200D03*
X109868468Y-76911200D03*
X109919000Y-58750200D03*
X104340000Y-60274200D03*
X122453375Y-76911200D03*
X107957200Y-69357000D03*
X127454000Y-70005575D03*
X104467000Y-57861200D03*
X100530000Y-60591700D03*
X105991000Y-65608200D03*
X127454000Y-60417075D03*
X114158686Y-44399200D03*
X112849000Y-67640200D03*
X127454000Y-55622825D03*
X117929000Y-70815200D03*
X109963718Y-44399200D03*
X105864000Y-62306200D03*
X118258404Y-76911200D03*
X100530000Y-55797450D03*
X127454000Y-50828575D03*
X100530000Y-65385950D03*
X105768750Y-44399200D03*
X104467000Y-52781200D03*
X105673500Y-76911200D03*
X118353654Y-44399200D03*
X115516000Y-54940200D03*
X118945000Y-53289200D03*
X122548625Y-44399200D03*
X114063436Y-76911200D03*
%TO.N,/SDA*%
X116709800Y-56464200D03*
%TO.N,/SCL*%
X116659000Y-58242200D03*
%TO.N,/DC*%
X113611000Y-55067200D03*
%TO.N,/~{RES}*%
X112595000Y-55956200D03*
%TO.N,/~{CS}*%
X109089800Y-54127400D03*
%TO.N,Net-(CN1-Pad11)*%
X111077279Y-63582479D03*
%TD*%
D16*
%TO.N,VCC*%
X110619000Y-62758200D02*
X110619000Y-61071500D01*
X109928000Y-66878200D02*
X109928000Y-67640200D01*
X112019000Y-61071500D02*
X112019000Y-66057200D01*
X112019000Y-66057200D02*
X111198000Y-66878200D01*
X111198000Y-66878200D02*
X111198000Y-67640200D01*
X110619000Y-62758200D02*
X109928000Y-63449200D01*
X112019000Y-61071500D02*
X112019000Y-58750200D01*
X109928000Y-63449200D02*
X109928000Y-66878200D01*
%TO.N,GND*%
X113419000Y-61071500D02*
X113419000Y-67070200D01*
D17*
X109919000Y-58741200D02*
X109674000Y-58496200D01*
X108785000Y-58496200D02*
X107957200Y-59324000D01*
D16*
X113419000Y-67070200D02*
X112849000Y-67640200D01*
D17*
X109919000Y-58750200D02*
X109919000Y-58741200D01*
D16*
X109919000Y-61071500D02*
X109919000Y-58750200D01*
D17*
X109674000Y-58496200D02*
X108785000Y-58496200D01*
X107957200Y-59324000D02*
X107957200Y-69357000D01*
D16*
%TO.N,/SDA*%
X117725800Y-58699400D02*
X116919000Y-59506200D01*
X116709800Y-56464200D02*
X117725800Y-57480200D01*
X116919000Y-59506200D02*
X116919000Y-61071500D01*
X117725800Y-57480200D02*
X117725800Y-58699400D01*
%TO.N,/SCL*%
X116659000Y-58242200D02*
X116659000Y-58496200D01*
X116659000Y-58496200D02*
X116219000Y-58936200D01*
X116219000Y-58936200D02*
X116219000Y-61071500D01*
%TO.N,/DC*%
X115519000Y-56975200D02*
X115519000Y-61071500D01*
X113611000Y-55067200D02*
X115519000Y-56975200D01*
%TO.N,/~{RES}*%
X112595000Y-55956200D02*
X114819000Y-58180200D01*
X114819000Y-58180200D02*
X114819000Y-61071500D01*
%TO.N,/~{CS}*%
X114119000Y-59156600D02*
X114119000Y-61071500D01*
X109089800Y-54127400D02*
X114119000Y-59156600D01*
%TO.N,Net-(CN1-Pad11)*%
X111319000Y-61071500D02*
X111319000Y-63340758D01*
X111319000Y-63340758D02*
X111077279Y-63582479D01*
%TD*%
%TA.AperFunction,Conductor*%
%TO.N,/SCL*%
G36*
X116709841Y-58083712D02*
G01*
X116919961Y-58462799D01*
X116920975Y-58471696D01*
X116917969Y-58476777D01*
X116859430Y-58534857D01*
X116858229Y-58535896D01*
X116789826Y-58587429D01*
X116788963Y-58588020D01*
X116718645Y-58631736D01*
X116718305Y-58631940D01*
X116648606Y-58672062D01*
X116582415Y-58712711D01*
X116582183Y-58712887D01*
X116522872Y-58757821D01*
X116522869Y-58757824D01*
X116522474Y-58758123D01*
X116471362Y-58812625D01*
X116431658Y-58880544D01*
X116405944Y-58966209D01*
X116405893Y-58966811D01*
X116405892Y-58966816D01*
X116397709Y-59063235D01*
X116393595Y-59071189D01*
X116386051Y-59073946D01*
X116053920Y-59073946D01*
X116045647Y-59070519D01*
X116042220Y-59062246D01*
X116042261Y-59061270D01*
X116045595Y-59021420D01*
X116050452Y-58963386D01*
X116050809Y-58961335D01*
X116075369Y-58869775D01*
X116076038Y-58867921D01*
X116111742Y-58790209D01*
X116112472Y-58788862D01*
X116155216Y-58720941D01*
X116155694Y-58720239D01*
X116161234Y-58712711D01*
X116191145Y-58672062D01*
X116201372Y-58658164D01*
X116201380Y-58658153D01*
X116245327Y-58598575D01*
X116245334Y-58598565D01*
X116245468Y-58598383D01*
X116283312Y-58537412D01*
X116308291Y-58476777D01*
X116310253Y-58472013D01*
X116310254Y-58472011D01*
X116310511Y-58471386D01*
X116322668Y-58396449D01*
X116315984Y-58315962D01*
X116318715Y-58307435D01*
X116321576Y-58304991D01*
X116693540Y-58079380D01*
X116702391Y-58078020D01*
X116709841Y-58083712D01*
G37*
%TD.AperFunction*%
%TD*%
%TA.AperFunction,Conductor*%
%TO.N,VCC*%
G36*
X111477872Y-66849775D02*
G01*
X111420976Y-66916335D01*
X111384145Y-66980855D01*
X111364889Y-67043868D01*
X111360717Y-67105910D01*
X111369139Y-67167513D01*
X111387664Y-67229211D01*
X111396955Y-67251364D01*
X111413804Y-67291539D01*
X111413874Y-67291681D01*
X111413878Y-67291690D01*
X111445056Y-67355010D01*
X111445066Y-67355030D01*
X111478961Y-67420219D01*
X111479024Y-67420343D01*
X111509262Y-67480235D01*
X111509932Y-67489165D01*
X111507252Y-67493616D01*
X111206433Y-67806431D01*
X111198229Y-67810019D01*
X111189567Y-67806431D01*
X110888295Y-67493145D01*
X110885030Y-67484806D01*
X110885911Y-67480577D01*
X110923613Y-67389092D01*
X110923614Y-67389089D01*
X110923741Y-67388781D01*
X110949927Y-67296256D01*
X110966480Y-67208516D01*
X110966870Y-67205739D01*
X110971694Y-67171333D01*
X110978329Y-67124014D01*
X110990396Y-67041202D01*
X110999731Y-66996371D01*
X111007479Y-66959158D01*
X111007804Y-66957932D01*
X111034642Y-66875230D01*
X111035247Y-66873728D01*
X111038918Y-66866173D01*
X111076804Y-66788190D01*
X111077512Y-66786967D01*
X111077533Y-66786900D01*
X111139375Y-66695902D01*
X111226425Y-66598328D01*
X111477872Y-66849775D01*
G37*
%TD.AperFunction*%
%TD*%
%TA.AperFunction,Conductor*%
%TO.N,VCC*%
G36*
X112027433Y-58583969D02*
G01*
X112328457Y-58896997D01*
X112331722Y-58905336D01*
X112330643Y-58910017D01*
X112295183Y-58986674D01*
X112264461Y-59062106D01*
X112240891Y-59132056D01*
X112223527Y-59199524D01*
X112211425Y-59267509D01*
X112203642Y-59339013D01*
X112199232Y-59417033D01*
X112197251Y-59504572D01*
X112197251Y-59504637D01*
X112197250Y-59504684D01*
X112196755Y-59604627D01*
X112196755Y-59604632D01*
X112196795Y-59708495D01*
X112193371Y-59716770D01*
X112185095Y-59720200D01*
X111852904Y-59720200D01*
X111844631Y-59716773D01*
X111841204Y-59708495D01*
X111841244Y-59604626D01*
X111841244Y-59604569D01*
X111840749Y-59504684D01*
X111840748Y-59504637D01*
X111840748Y-59504572D01*
X111838767Y-59417033D01*
X111834357Y-59339013D01*
X111826574Y-59267509D01*
X111814472Y-59199524D01*
X111797108Y-59132056D01*
X111773538Y-59062106D01*
X111742816Y-58986674D01*
X111707357Y-58910018D01*
X111706994Y-58901072D01*
X111709543Y-58896997D01*
X112010567Y-58583969D01*
X112018771Y-58580381D01*
X112027433Y-58583969D01*
G37*
%TD.AperFunction*%
%TD*%
%TA.AperFunction,Conductor*%
%TO.N,/SDA*%
G36*
X117093337Y-60524927D02*
G01*
X117096764Y-60533236D01*
X117096591Y-60590079D01*
X117096591Y-60590135D01*
X117096069Y-60656515D01*
X117096055Y-60656515D01*
X117096069Y-60656549D01*
X117095385Y-60719622D01*
X117094695Y-60778440D01*
X117094151Y-60831951D01*
X117093907Y-60879140D01*
X117094116Y-60918988D01*
X117094932Y-60950479D01*
X117096509Y-60972596D01*
X117096593Y-60972991D01*
X117097711Y-60978255D01*
X117096078Y-60987060D01*
X117094701Y-60988793D01*
X117094700Y-60988795D01*
X117094699Y-60988796D01*
X116927433Y-61162731D01*
X116919229Y-61166319D01*
X116910567Y-61162731D01*
X116743301Y-60988796D01*
X116743300Y-60988794D01*
X116740035Y-60980456D01*
X116740288Y-60978255D01*
X116741490Y-60972596D01*
X116743067Y-60950479D01*
X116743883Y-60918988D01*
X116744092Y-60879140D01*
X116743848Y-60831951D01*
X116743304Y-60778440D01*
X116742614Y-60719622D01*
X116741930Y-60656549D01*
X116741944Y-60656515D01*
X116741930Y-60656515D01*
X116741408Y-60590135D01*
X116741236Y-60533235D01*
X116744638Y-60524952D01*
X116752936Y-60521500D01*
X117085064Y-60521500D01*
X117093337Y-60524927D01*
G37*
%TD.AperFunction*%
%TD*%
%TA.AperFunction,Conductor*%
%TO.N,/SDA*%
G36*
X117032420Y-56349183D02*
G01*
X117040624Y-56352771D01*
X117043173Y-56356846D01*
X117072302Y-56436122D01*
X117103917Y-56511183D01*
X117136712Y-56577312D01*
X117172141Y-56637297D01*
X117211657Y-56693927D01*
X117256714Y-56749991D01*
X117308765Y-56808278D01*
X117308843Y-56808360D01*
X117308848Y-56808365D01*
X117356661Y-56858392D01*
X117369263Y-56871578D01*
X117369298Y-56871614D01*
X117369319Y-56871635D01*
X117439621Y-56942637D01*
X117439662Y-56942678D01*
X117513137Y-57016096D01*
X117516567Y-57024367D01*
X117513140Y-57032645D01*
X117278245Y-57267540D01*
X117269972Y-57270967D01*
X117261696Y-57267537D01*
X117188278Y-57194062D01*
X117117251Y-57123735D01*
X117117235Y-57123719D01*
X117117178Y-57123663D01*
X117053878Y-57063165D01*
X116995591Y-57011114D01*
X116939527Y-56966057D01*
X116939364Y-56965943D01*
X116939357Y-56965938D01*
X116883080Y-56926669D01*
X116882897Y-56926541D01*
X116822912Y-56891112D01*
X116783372Y-56871503D01*
X116756935Y-56858392D01*
X116756925Y-56858388D01*
X116756783Y-56858317D01*
X116681722Y-56826702D01*
X116674595Y-56824083D01*
X116602446Y-56797573D01*
X116595862Y-56791503D01*
X116594783Y-56786820D01*
X116586295Y-56352622D01*
X116589560Y-56344283D01*
X116598222Y-56340695D01*
X117032420Y-56349183D01*
G37*
%TD.AperFunction*%
%TD*%
%TA.AperFunction,Conductor*%
%TO.N,VCC*%
G36*
X111766445Y-66074860D02*
G01*
X112001340Y-66309755D01*
X112004767Y-66318028D01*
X112001337Y-66326303D01*
X111951259Y-66376342D01*
X111927862Y-66399721D01*
X111927821Y-66399762D01*
X111911884Y-66415858D01*
X111857463Y-66470821D01*
X111857409Y-66470877D01*
X111857391Y-66470896D01*
X111797048Y-66534034D01*
X111796965Y-66534121D01*
X111744914Y-66592408D01*
X111699857Y-66648472D01*
X111660341Y-66705102D01*
X111624912Y-66765087D01*
X111592117Y-66831216D01*
X111560502Y-66906277D01*
X111560455Y-66906405D01*
X111531373Y-66985554D01*
X111525303Y-66992138D01*
X111520620Y-66993217D01*
X111475115Y-66994107D01*
X111393300Y-66995706D01*
X111074257Y-67001943D01*
X111081170Y-66648311D01*
X111082983Y-66555580D01*
X111086571Y-66547376D01*
X111090646Y-66544827D01*
X111169794Y-66515744D01*
X111169922Y-66515697D01*
X111244983Y-66484082D01*
X111245125Y-66484011D01*
X111245135Y-66484007D01*
X111310914Y-66451385D01*
X111311112Y-66451287D01*
X111371097Y-66415858D01*
X111396464Y-66398157D01*
X111427557Y-66376461D01*
X111427564Y-66376456D01*
X111427727Y-66376342D01*
X111483791Y-66331285D01*
X111542078Y-66279234D01*
X111542165Y-66279151D01*
X111605322Y-66218790D01*
X111605345Y-66218768D01*
X111605378Y-66218736D01*
X111676478Y-66148337D01*
X111749896Y-66074863D01*
X111758168Y-66071433D01*
X111766445Y-66074860D01*
G37*
%TD.AperFunction*%
%TD*%
%TA.AperFunction,Conductor*%
%TO.N,VCC*%
G36*
X111396678Y-67000765D02*
G01*
X111460991Y-67097089D01*
X111462735Y-67105873D01*
X111460717Y-67110475D01*
X111441461Y-67136905D01*
X111441455Y-67136915D01*
X111441217Y-67137242D01*
X111441028Y-67137598D01*
X111441025Y-67137602D01*
X111421926Y-67173485D01*
X111421751Y-67173814D01*
X111406590Y-67213995D01*
X111395195Y-67258189D01*
X111387028Y-67306799D01*
X111381552Y-67360229D01*
X111378229Y-67418880D01*
X111376521Y-67483157D01*
X111375890Y-67553462D01*
X111375800Y-67630200D01*
X111020200Y-67630200D01*
X111020109Y-67553462D01*
X111019478Y-67483157D01*
X111017770Y-67418880D01*
X111014447Y-67360229D01*
X111008971Y-67306799D01*
X111000804Y-67258189D01*
X110989409Y-67213995D01*
X110974248Y-67173814D01*
X110954782Y-67137242D01*
X110954537Y-67136905D01*
X110935282Y-67110475D01*
X110933181Y-67101771D01*
X110935009Y-67097089D01*
X110997960Y-67002805D01*
X111198000Y-66703200D01*
X111396678Y-67000765D01*
G37*
%TD.AperFunction*%
%TD*%
%TA.AperFunction,Conductor*%
%TO.N,VCC*%
G36*
X110108236Y-66973144D02*
G01*
X110108236Y-66973145D01*
X110109112Y-66974457D01*
X110190991Y-67097089D01*
X110192735Y-67105873D01*
X110190717Y-67110475D01*
X110171461Y-67136905D01*
X110171455Y-67136915D01*
X110171217Y-67137242D01*
X110151751Y-67173814D01*
X110151620Y-67174160D01*
X110151620Y-67174161D01*
X110138413Y-67209162D01*
X110138413Y-67209164D01*
X110136590Y-67213995D01*
X110125195Y-67258189D01*
X110117028Y-67306799D01*
X110111552Y-67360229D01*
X110108229Y-67418880D01*
X110106521Y-67483157D01*
X110105890Y-67553462D01*
X110105800Y-67630200D01*
X109750200Y-67630200D01*
X109750109Y-67553462D01*
X109749478Y-67483157D01*
X109747770Y-67418880D01*
X109744447Y-67360229D01*
X109738971Y-67306799D01*
X109730804Y-67258189D01*
X109719409Y-67213995D01*
X109717586Y-67209164D01*
X109717586Y-67209162D01*
X109704379Y-67174161D01*
X109704379Y-67174160D01*
X109704248Y-67173814D01*
X109684782Y-67137242D01*
X109684537Y-67136905D01*
X109665282Y-67110475D01*
X109663181Y-67101771D01*
X109665009Y-67097089D01*
X109746887Y-66974459D01*
X109746888Y-66974457D01*
X109747763Y-66973147D01*
X109747763Y-66973146D01*
X109928000Y-66703200D01*
X110108236Y-66973144D01*
G37*
%TD.AperFunction*%
%TD*%
%TA.AperFunction,Conductor*%
%TO.N,/SCL*%
G36*
X116393337Y-60524927D02*
G01*
X116396764Y-60533236D01*
X116396591Y-60590079D01*
X116396591Y-60590135D01*
X116396069Y-60656515D01*
X116396055Y-60656515D01*
X116396069Y-60656549D01*
X116395385Y-60719622D01*
X116394695Y-60778440D01*
X116394151Y-60831951D01*
X116393907Y-60879140D01*
X116394116Y-60918988D01*
X116394932Y-60950479D01*
X116396509Y-60972596D01*
X116396593Y-60972991D01*
X116397711Y-60978255D01*
X116396078Y-60987060D01*
X116394701Y-60988793D01*
X116394700Y-60988795D01*
X116394699Y-60988796D01*
X116227433Y-61162731D01*
X116219229Y-61166319D01*
X116210567Y-61162731D01*
X116043301Y-60988796D01*
X116043300Y-60988794D01*
X116040035Y-60980456D01*
X116040288Y-60978255D01*
X116041490Y-60972596D01*
X116043067Y-60950479D01*
X116043883Y-60918988D01*
X116044092Y-60879140D01*
X116043848Y-60831951D01*
X116043304Y-60778440D01*
X116042614Y-60719622D01*
X116041930Y-60656549D01*
X116041944Y-60656515D01*
X116041930Y-60656515D01*
X116041408Y-60590135D01*
X116041236Y-60533235D01*
X116044638Y-60524952D01*
X116052936Y-60521500D01*
X116385064Y-60521500D01*
X116393337Y-60524927D01*
G37*
%TD.AperFunction*%
%TD*%
%TA.AperFunction,Conductor*%
%TO.N,VCC*%
G36*
X110102368Y-65911627D02*
G01*
X110105795Y-65919905D01*
X110105755Y-66023772D01*
X110106251Y-66123827D01*
X110108232Y-66211366D01*
X110112642Y-66289386D01*
X110120425Y-66360890D01*
X110132527Y-66428875D01*
X110149891Y-66496343D01*
X110173461Y-66566293D01*
X110204183Y-66641725D01*
X110204227Y-66641819D01*
X110204233Y-66641834D01*
X110239643Y-66718381D01*
X110240006Y-66727328D01*
X110237457Y-66731403D01*
X109928000Y-67053200D01*
X109618543Y-66731403D01*
X109615278Y-66723064D01*
X109616357Y-66718381D01*
X109651766Y-66641834D01*
X109651772Y-66641819D01*
X109651816Y-66641725D01*
X109682538Y-66566293D01*
X109706108Y-66496343D01*
X109723472Y-66428875D01*
X109735574Y-66360890D01*
X109743357Y-66289386D01*
X109747767Y-66211366D01*
X109749748Y-66123827D01*
X109750244Y-66023772D01*
X109750204Y-65919904D01*
X109753628Y-65911630D01*
X109761904Y-65908200D01*
X110094095Y-65908200D01*
X110102368Y-65911627D01*
G37*
%TD.AperFunction*%
%TD*%
%TA.AperFunction,Conductor*%
%TO.N,/~{RES}*%
G36*
X114993337Y-60524927D02*
G01*
X114996764Y-60533236D01*
X114996591Y-60590079D01*
X114996591Y-60590135D01*
X114996069Y-60656515D01*
X114996055Y-60656515D01*
X114996069Y-60656549D01*
X114995385Y-60719622D01*
X114994695Y-60778440D01*
X114994151Y-60831951D01*
X114993907Y-60879140D01*
X114994116Y-60918988D01*
X114994932Y-60950479D01*
X114996509Y-60972596D01*
X114996593Y-60972991D01*
X114997711Y-60978255D01*
X114996078Y-60987060D01*
X114994701Y-60988793D01*
X114994700Y-60988795D01*
X114994699Y-60988796D01*
X114827433Y-61162731D01*
X114819229Y-61166319D01*
X114810567Y-61162731D01*
X114643301Y-60988796D01*
X114643300Y-60988794D01*
X114640035Y-60980456D01*
X114640288Y-60978255D01*
X114641490Y-60972596D01*
X114643067Y-60950479D01*
X114643883Y-60918988D01*
X114644092Y-60879140D01*
X114643848Y-60831951D01*
X114643304Y-60778440D01*
X114642614Y-60719622D01*
X114641930Y-60656549D01*
X114641944Y-60656515D01*
X114641930Y-60656515D01*
X114641408Y-60590135D01*
X114641236Y-60533235D01*
X114644638Y-60524952D01*
X114652936Y-60521500D01*
X114985064Y-60521500D01*
X114993337Y-60524927D01*
G37*
%TD.AperFunction*%
%TD*%
%TA.AperFunction,Conductor*%
%TO.N,/~{CS}*%
G36*
X114293337Y-60524927D02*
G01*
X114296764Y-60533236D01*
X114296591Y-60590079D01*
X114296591Y-60590135D01*
X114296069Y-60656515D01*
X114296055Y-60656515D01*
X114296069Y-60656549D01*
X114295385Y-60719622D01*
X114294695Y-60778440D01*
X114294151Y-60831951D01*
X114293907Y-60879140D01*
X114294116Y-60918988D01*
X114294932Y-60950479D01*
X114296509Y-60972596D01*
X114296593Y-60972991D01*
X114297711Y-60978255D01*
X114296078Y-60987060D01*
X114294701Y-60988793D01*
X114294700Y-60988795D01*
X114294699Y-60988796D01*
X114127433Y-61162731D01*
X114119229Y-61166319D01*
X114110567Y-61162731D01*
X113943301Y-60988796D01*
X113943300Y-60988794D01*
X113940035Y-60980456D01*
X113940288Y-60978255D01*
X113941490Y-60972596D01*
X113943067Y-60950479D01*
X113943883Y-60918988D01*
X113944092Y-60879140D01*
X113943848Y-60831951D01*
X113943304Y-60778440D01*
X113942614Y-60719622D01*
X113941930Y-60656549D01*
X113941944Y-60656515D01*
X113941930Y-60656515D01*
X113941408Y-60590135D01*
X113941236Y-60533235D01*
X113944638Y-60524952D01*
X113952936Y-60521500D01*
X114285064Y-60521500D01*
X114293337Y-60524927D01*
G37*
%TD.AperFunction*%
%TD*%
%TA.AperFunction,Conductor*%
%TO.N,/~{CS}*%
G36*
X109412420Y-54012383D02*
G01*
X109420624Y-54015971D01*
X109423173Y-54020046D01*
X109452302Y-54099322D01*
X109483917Y-54174383D01*
X109516712Y-54240512D01*
X109552141Y-54300497D01*
X109591657Y-54357127D01*
X109636714Y-54413191D01*
X109688765Y-54471478D01*
X109688843Y-54471560D01*
X109688848Y-54471565D01*
X109736661Y-54521592D01*
X109749263Y-54534778D01*
X109749298Y-54534814D01*
X109749319Y-54534835D01*
X109819621Y-54605837D01*
X109819662Y-54605878D01*
X109893137Y-54679296D01*
X109896567Y-54687567D01*
X109893140Y-54695845D01*
X109658245Y-54930740D01*
X109649972Y-54934167D01*
X109641696Y-54930737D01*
X109568278Y-54857262D01*
X109497251Y-54786935D01*
X109497235Y-54786919D01*
X109497178Y-54786863D01*
X109433878Y-54726365D01*
X109375591Y-54674314D01*
X109319527Y-54629257D01*
X109319364Y-54629143D01*
X109319357Y-54629138D01*
X109263080Y-54589869D01*
X109262897Y-54589741D01*
X109202912Y-54554312D01*
X109163372Y-54534703D01*
X109136935Y-54521592D01*
X109136925Y-54521588D01*
X109136783Y-54521517D01*
X109061722Y-54489902D01*
X109054595Y-54487283D01*
X108982446Y-54460773D01*
X108975862Y-54454703D01*
X108974783Y-54450020D01*
X108966295Y-54015822D01*
X108969560Y-54007483D01*
X108978222Y-54003895D01*
X109412420Y-54012383D01*
G37*
%TD.AperFunction*%
%TD*%
%TA.AperFunction,Conductor*%
%TO.N,VCC*%
G36*
X112116781Y-61073179D02*
G01*
X112194699Y-61154204D01*
X112197964Y-61162543D01*
X112197711Y-61164744D01*
X112196509Y-61170403D01*
X112194932Y-61192520D01*
X112194929Y-61192651D01*
X112194928Y-61192663D01*
X112194116Y-61224011D01*
X112193907Y-61263859D01*
X112193907Y-61263919D01*
X112194151Y-61311048D01*
X112194695Y-61364559D01*
X112195385Y-61423367D01*
X112195385Y-61423377D01*
X112196069Y-61486449D01*
X112196055Y-61486484D01*
X112196069Y-61486484D01*
X112196591Y-61552808D01*
X112196591Y-61552864D01*
X112196764Y-61609764D01*
X112193362Y-61618048D01*
X112185064Y-61621500D01*
X111852936Y-61621500D01*
X111844663Y-61618073D01*
X111841236Y-61609765D01*
X111841408Y-61552921D01*
X111841408Y-61552864D01*
X111841930Y-61486484D01*
X111841944Y-61486484D01*
X111841930Y-61486449D01*
X111842614Y-61423387D01*
X111842614Y-61423377D01*
X111843304Y-61364559D01*
X111843848Y-61311048D01*
X111844092Y-61263859D01*
X111844092Y-61263798D01*
X111843883Y-61224011D01*
X111843071Y-61192663D01*
X111843070Y-61192651D01*
X111843067Y-61192520D01*
X111841490Y-61170403D01*
X111840289Y-61164745D01*
X111840289Y-61164744D01*
X111841923Y-61155940D01*
X111843301Y-61154205D01*
X111921220Y-61073179D01*
X112019000Y-60971500D01*
X112116781Y-61073179D01*
G37*
%TD.AperFunction*%
%TD*%
%TA.AperFunction,Conductor*%
%TO.N,/DC*%
G36*
X115693337Y-60524927D02*
G01*
X115696764Y-60533236D01*
X115696591Y-60590079D01*
X115696591Y-60590135D01*
X115696069Y-60656515D01*
X115696055Y-60656515D01*
X115696069Y-60656549D01*
X115695385Y-60719622D01*
X115694695Y-60778440D01*
X115694151Y-60831951D01*
X115693907Y-60879140D01*
X115694116Y-60918988D01*
X115694932Y-60950479D01*
X115696509Y-60972596D01*
X115696593Y-60972991D01*
X115697711Y-60978255D01*
X115696078Y-60987060D01*
X115694701Y-60988793D01*
X115694700Y-60988795D01*
X115694699Y-60988796D01*
X115527433Y-61162731D01*
X115519229Y-61166319D01*
X115510567Y-61162731D01*
X115343301Y-60988796D01*
X115343300Y-60988794D01*
X115340035Y-60980456D01*
X115340288Y-60978255D01*
X115341490Y-60972596D01*
X115343067Y-60950479D01*
X115343883Y-60918988D01*
X115344092Y-60879140D01*
X115343848Y-60831951D01*
X115343304Y-60778440D01*
X115342614Y-60719622D01*
X115341930Y-60656549D01*
X115341944Y-60656515D01*
X115341930Y-60656515D01*
X115341408Y-60590135D01*
X115341236Y-60533235D01*
X115344638Y-60524952D01*
X115352936Y-60521500D01*
X115685064Y-60521500D01*
X115693337Y-60524927D01*
G37*
%TD.AperFunction*%
%TD*%
%TA.AperFunction,Conductor*%
%TO.N,Net-(CN1-Pad11)*%
G36*
X111327433Y-60980269D02*
G01*
X111494699Y-61154204D01*
X111497964Y-61162543D01*
X111497711Y-61164744D01*
X111496509Y-61170403D01*
X111494932Y-61192520D01*
X111494929Y-61192651D01*
X111494928Y-61192663D01*
X111494116Y-61224011D01*
X111493907Y-61263859D01*
X111493907Y-61263919D01*
X111494151Y-61311048D01*
X111494695Y-61364559D01*
X111495385Y-61423367D01*
X111495385Y-61423377D01*
X111496069Y-61486449D01*
X111496055Y-61486484D01*
X111496069Y-61486484D01*
X111496591Y-61552808D01*
X111496591Y-61552864D01*
X111496764Y-61609764D01*
X111493362Y-61618048D01*
X111485064Y-61621500D01*
X111152936Y-61621500D01*
X111144663Y-61618073D01*
X111141236Y-61609765D01*
X111141408Y-61552921D01*
X111141408Y-61552864D01*
X111141930Y-61486484D01*
X111141944Y-61486484D01*
X111141930Y-61486449D01*
X111142614Y-61423387D01*
X111142614Y-61423377D01*
X111143304Y-61364559D01*
X111143848Y-61311048D01*
X111144092Y-61263859D01*
X111144092Y-61263798D01*
X111143883Y-61224011D01*
X111143071Y-61192663D01*
X111143070Y-61192651D01*
X111143067Y-61192520D01*
X111141490Y-61170403D01*
X111140289Y-61164745D01*
X111140289Y-61164744D01*
X111141923Y-61155940D01*
X111143301Y-61154205D01*
X111310567Y-60980269D01*
X111318771Y-60976681D01*
X111327433Y-60980269D01*
G37*
%TD.AperFunction*%
%TD*%
%TA.AperFunction,Conductor*%
%TO.N,/DC*%
G36*
X113933620Y-54952183D02*
G01*
X113941824Y-54955771D01*
X113944373Y-54959846D01*
X113973502Y-55039122D01*
X114005117Y-55114183D01*
X114037912Y-55180312D01*
X114073341Y-55240297D01*
X114112857Y-55296927D01*
X114157914Y-55352991D01*
X114209965Y-55411278D01*
X114210043Y-55411360D01*
X114210048Y-55411365D01*
X114257861Y-55461392D01*
X114270463Y-55474578D01*
X114270498Y-55474614D01*
X114270519Y-55474635D01*
X114340821Y-55545637D01*
X114340862Y-55545678D01*
X114414337Y-55619096D01*
X114417767Y-55627367D01*
X114414340Y-55635645D01*
X114179445Y-55870540D01*
X114171172Y-55873967D01*
X114162896Y-55870537D01*
X114089478Y-55797062D01*
X114018451Y-55726735D01*
X114018435Y-55726719D01*
X114018378Y-55726663D01*
X113955078Y-55666165D01*
X113896791Y-55614114D01*
X113840727Y-55569057D01*
X113840564Y-55568943D01*
X113840557Y-55568938D01*
X113784280Y-55529669D01*
X113784097Y-55529541D01*
X113724112Y-55494112D01*
X113684572Y-55474503D01*
X113658135Y-55461392D01*
X113658125Y-55461388D01*
X113657983Y-55461317D01*
X113582922Y-55429702D01*
X113575795Y-55427083D01*
X113503646Y-55400573D01*
X113497062Y-55394503D01*
X113495983Y-55389820D01*
X113487495Y-54955622D01*
X113490760Y-54947283D01*
X113499422Y-54943695D01*
X113933620Y-54952183D01*
G37*
%TD.AperFunction*%
%TD*%
%TA.AperFunction,Conductor*%
%TO.N,VCC*%
G36*
X110627433Y-60980269D02*
G01*
X110794699Y-61154204D01*
X110797964Y-61162543D01*
X110797711Y-61164744D01*
X110796509Y-61170403D01*
X110794932Y-61192520D01*
X110794929Y-61192651D01*
X110794928Y-61192663D01*
X110794116Y-61224011D01*
X110793907Y-61263859D01*
X110793907Y-61263919D01*
X110794151Y-61311048D01*
X110794695Y-61364559D01*
X110795385Y-61423367D01*
X110795385Y-61423377D01*
X110796069Y-61486449D01*
X110796055Y-61486484D01*
X110796069Y-61486484D01*
X110796591Y-61552808D01*
X110796591Y-61552864D01*
X110796764Y-61609764D01*
X110793362Y-61618048D01*
X110785064Y-61621500D01*
X110452936Y-61621500D01*
X110444663Y-61618073D01*
X110441236Y-61609765D01*
X110441408Y-61552921D01*
X110441408Y-61552864D01*
X110441930Y-61486484D01*
X110441944Y-61486484D01*
X110441930Y-61486449D01*
X110442614Y-61423387D01*
X110442614Y-61423377D01*
X110443304Y-61364559D01*
X110443848Y-61311048D01*
X110444092Y-61263859D01*
X110444092Y-61263798D01*
X110443883Y-61224011D01*
X110443071Y-61192663D01*
X110443070Y-61192651D01*
X110443067Y-61192520D01*
X110441490Y-61170403D01*
X110440289Y-61164745D01*
X110440289Y-61164744D01*
X110441923Y-61155940D01*
X110443301Y-61154205D01*
X110610567Y-60980269D01*
X110618771Y-60976681D01*
X110627433Y-60980269D01*
G37*
%TD.AperFunction*%
%TD*%
%TA.AperFunction,Conductor*%
%TO.N,GND*%
G36*
X125604229Y-43203313D02*
G01*
X125610381Y-43204728D01*
X125610382Y-43204728D01*
X125618636Y-43206626D01*
X125627312Y-43204663D01*
X125647840Y-43202911D01*
X125881758Y-43215170D01*
X125959677Y-43219254D01*
X125967505Y-43220077D01*
X126300546Y-43272826D01*
X126308245Y-43274462D01*
X126633966Y-43361739D01*
X126641452Y-43364172D01*
X126956246Y-43485009D01*
X126963437Y-43488210D01*
X127263898Y-43641303D01*
X127270699Y-43645229D01*
X127472409Y-43776221D01*
X127553508Y-43828887D01*
X127559876Y-43833514D01*
X127821930Y-44045722D01*
X127827779Y-44050989D01*
X128066211Y-44289421D01*
X128071478Y-44295270D01*
X128283686Y-44557324D01*
X128288313Y-44563692D01*
X128471971Y-44846501D01*
X128475897Y-44853302D01*
X128507494Y-44915313D01*
X128628990Y-45153763D01*
X128632191Y-45160954D01*
X128753028Y-45475748D01*
X128755461Y-45483234D01*
X128842738Y-45808955D01*
X128844374Y-45816654D01*
X128897123Y-46149696D01*
X128897946Y-46157524D01*
X128914263Y-46468874D01*
X128912472Y-46489451D01*
X128912472Y-46489582D01*
X128910574Y-46497836D01*
X128912443Y-46506094D01*
X128913946Y-46512738D01*
X128915800Y-46529335D01*
X128915800Y-74466576D01*
X128913887Y-74483429D01*
X128912834Y-74488010D01*
X128910574Y-74497836D01*
X128912537Y-74506512D01*
X128914289Y-74527040D01*
X128911573Y-74578862D01*
X128897946Y-74838877D01*
X128897123Y-74846705D01*
X128844374Y-75179746D01*
X128842738Y-75187445D01*
X128755461Y-75513166D01*
X128753028Y-75520652D01*
X128632191Y-75835446D01*
X128628990Y-75842637D01*
X128475897Y-76143098D01*
X128471971Y-76149899D01*
X128366016Y-76313056D01*
X128288313Y-76432708D01*
X128283686Y-76439076D01*
X128177840Y-76569785D01*
X128071478Y-76701130D01*
X128066211Y-76706979D01*
X127827779Y-76945411D01*
X127821931Y-76950678D01*
X127761452Y-76999652D01*
X127559876Y-77162886D01*
X127553508Y-77167513D01*
X127270699Y-77351171D01*
X127263898Y-77355097D01*
X127038803Y-77469789D01*
X126963437Y-77508190D01*
X126956246Y-77511391D01*
X126641452Y-77632228D01*
X126633966Y-77634661D01*
X126308245Y-77721938D01*
X126300546Y-77723574D01*
X125967504Y-77776323D01*
X125959676Y-77777146D01*
X125862248Y-77782252D01*
X125648323Y-77793463D01*
X125627749Y-77791672D01*
X125627618Y-77791672D01*
X125619364Y-77789774D01*
X125605491Y-77792913D01*
X125604462Y-77793146D01*
X125587865Y-77795000D01*
X102650624Y-77795000D01*
X102633771Y-77793087D01*
X102627619Y-77791672D01*
X102627618Y-77791672D01*
X102619364Y-77789774D01*
X102610688Y-77791737D01*
X102590160Y-77793489D01*
X102356242Y-77781230D01*
X102278323Y-77777146D01*
X102270495Y-77776323D01*
X101937454Y-77723574D01*
X101929755Y-77721938D01*
X101604034Y-77634661D01*
X101596548Y-77632228D01*
X101281754Y-77511391D01*
X101274563Y-77508190D01*
X101199197Y-77469789D01*
X100974102Y-77355097D01*
X100967301Y-77351171D01*
X100684492Y-77167513D01*
X100678124Y-77162886D01*
X100476548Y-76999652D01*
X100416069Y-76950678D01*
X100410221Y-76945411D01*
X100171789Y-76706979D01*
X100166522Y-76701130D01*
X100060161Y-76569785D01*
X99954314Y-76439076D01*
X99949687Y-76432708D01*
X99871984Y-76313056D01*
X99766029Y-76149899D01*
X99762103Y-76143098D01*
X99609010Y-75842637D01*
X99605809Y-75835446D01*
X99484972Y-75520652D01*
X99482539Y-75513166D01*
X99395262Y-75187445D01*
X99393626Y-75179746D01*
X99340877Y-74846704D01*
X99340054Y-74838876D01*
X99334948Y-74741448D01*
X99323737Y-74527523D01*
X99325528Y-74506949D01*
X99325528Y-74506818D01*
X99327426Y-74498564D01*
X99324501Y-74485638D01*
X99711814Y-74485638D01*
X99720580Y-74820387D01*
X99767763Y-75151910D01*
X99852737Y-75475813D01*
X99974377Y-75787803D01*
X100131070Y-76083744D01*
X100132292Y-76085522D01*
X100132295Y-76085527D01*
X100319517Y-76357937D01*
X100319523Y-76357945D01*
X100320739Y-76359714D01*
X100540870Y-76612055D01*
X100542469Y-76613510D01*
X100745872Y-76798593D01*
X100788545Y-76837423D01*
X101060483Y-77032830D01*
X101062378Y-77033885D01*
X101062380Y-77033886D01*
X101202292Y-77111760D01*
X101353078Y-77195686D01*
X101662452Y-77323833D01*
X101664536Y-77324427D01*
X101664537Y-77324427D01*
X101830423Y-77371681D01*
X101984504Y-77415572D01*
X101986623Y-77415919D01*
X101986632Y-77415921D01*
X102179662Y-77447530D01*
X102314966Y-77469687D01*
X102317115Y-77469788D01*
X102317121Y-77469789D01*
X102560068Y-77481246D01*
X102649458Y-77485462D01*
X102651614Y-77485315D01*
X102651618Y-77485315D01*
X102927147Y-77466531D01*
X102983547Y-77462686D01*
X102985673Y-77462292D01*
X103310673Y-77402057D01*
X103310677Y-77402056D01*
X103312803Y-77401662D01*
X103568484Y-77323004D01*
X103630807Y-77303831D01*
X103630810Y-77303830D01*
X103632864Y-77303198D01*
X103634835Y-77302333D01*
X103937507Y-77169469D01*
X103937511Y-77169467D01*
X103939486Y-77168600D01*
X104228606Y-76999652D01*
X104297134Y-76948200D01*
X104494652Y-76799900D01*
X104494658Y-76799895D01*
X104496392Y-76798593D01*
X104739293Y-76568088D01*
X104915007Y-76357937D01*
X104952701Y-76312856D01*
X104952704Y-76312853D01*
X104954092Y-76311192D01*
X105137940Y-76031310D01*
X105288400Y-75732153D01*
X105403480Y-75417684D01*
X105459668Y-75183643D01*
X105481145Y-75094186D01*
X105481147Y-75094177D01*
X105481652Y-75092072D01*
X105521882Y-74759634D01*
X105527563Y-74578862D01*
X105527569Y-74578662D01*
X105527569Y-74578657D01*
X105527621Y-74577000D01*
X105522365Y-74485838D01*
X122711814Y-74485838D01*
X122714245Y-74578662D01*
X122719028Y-74761302D01*
X122720580Y-74820587D01*
X122767763Y-75152110D01*
X122852737Y-75476013D01*
X122974377Y-75788003D01*
X123131070Y-76083944D01*
X123132292Y-76085722D01*
X123132295Y-76085727D01*
X123319517Y-76358137D01*
X123319523Y-76358145D01*
X123320739Y-76359914D01*
X123540870Y-76612255D01*
X123542469Y-76613710D01*
X123745872Y-76798793D01*
X123788545Y-76837623D01*
X124060483Y-77033030D01*
X124353078Y-77195886D01*
X124662452Y-77324033D01*
X124984504Y-77415772D01*
X124986623Y-77416119D01*
X124986632Y-77416121D01*
X125179662Y-77447730D01*
X125314966Y-77469887D01*
X125317115Y-77469988D01*
X125317121Y-77469989D01*
X125560068Y-77481446D01*
X125649458Y-77485662D01*
X125651614Y-77485515D01*
X125651618Y-77485515D01*
X125927147Y-77466731D01*
X125983547Y-77462886D01*
X125986752Y-77462292D01*
X126310673Y-77402257D01*
X126310677Y-77402256D01*
X126312803Y-77401862D01*
X126563858Y-77324627D01*
X126630807Y-77304031D01*
X126630810Y-77304030D01*
X126632864Y-77303398D01*
X126634835Y-77302533D01*
X126937507Y-77169669D01*
X126937511Y-77169667D01*
X126939486Y-77168800D01*
X127228606Y-76999852D01*
X127427766Y-76850319D01*
X127494652Y-76800100D01*
X127494658Y-76800095D01*
X127496392Y-76798793D01*
X127498184Y-76797093D01*
X127691639Y-76613510D01*
X127739293Y-76568288D01*
X127912164Y-76361537D01*
X127952701Y-76313056D01*
X127952704Y-76313053D01*
X127954092Y-76311392D01*
X127997059Y-76245982D01*
X128103497Y-76083944D01*
X128137940Y-76031510D01*
X128139013Y-76029378D01*
X128260411Y-75788003D01*
X128288400Y-75732353D01*
X128403480Y-75417884D01*
X128459716Y-75183643D01*
X128481145Y-75094386D01*
X128481147Y-75094377D01*
X128481652Y-75092272D01*
X128521882Y-74759834D01*
X128527621Y-74577200D01*
X128508345Y-74242891D01*
X128507936Y-74240547D01*
X128451145Y-73915150D01*
X128451144Y-73915147D01*
X128450772Y-73913014D01*
X128355666Y-73591940D01*
X128224286Y-73283925D01*
X128058375Y-72993051D01*
X127860131Y-72723175D01*
X127784854Y-72642168D01*
X127633663Y-72479466D01*
X127633657Y-72479460D01*
X127632182Y-72477873D01*
X127377550Y-72260396D01*
X127099609Y-72073628D01*
X126950826Y-71996835D01*
X126803966Y-71921034D01*
X126803958Y-71921031D01*
X126802043Y-71920042D01*
X126488796Y-71801677D01*
X126164021Y-71720099D01*
X126161873Y-71719816D01*
X126161872Y-71719816D01*
X126041533Y-71703973D01*
X125832022Y-71676390D01*
X125829864Y-71676356D01*
X125829863Y-71676356D01*
X125499365Y-71671164D01*
X125497200Y-71671130D01*
X125495050Y-71671345D01*
X125495041Y-71671345D01*
X125166154Y-71704173D01*
X125166152Y-71704173D01*
X125163991Y-71704389D01*
X125161878Y-71704850D01*
X125161870Y-71704851D01*
X124970134Y-71746657D01*
X124836814Y-71775725D01*
X124520004Y-71884193D01*
X124390055Y-71946176D01*
X124219718Y-72027422D01*
X124219710Y-72027426D01*
X124217761Y-72028356D01*
X123934091Y-72206302D01*
X123932399Y-72207658D01*
X123932397Y-72207659D01*
X123865059Y-72261607D01*
X123672753Y-72415673D01*
X123437211Y-72653694D01*
X123435884Y-72655386D01*
X123435879Y-72655392D01*
X123381362Y-72724921D01*
X123230588Y-72917211D01*
X123229461Y-72919049D01*
X123229461Y-72919050D01*
X123184236Y-72992851D01*
X123055622Y-73202729D01*
X122914633Y-73506465D01*
X122809488Y-73824393D01*
X122809049Y-73826513D01*
X122742061Y-74149988D01*
X122741582Y-74152300D01*
X122741390Y-74154455D01*
X122712788Y-74474930D01*
X122711814Y-74485838D01*
X105522365Y-74485838D01*
X105508345Y-74242691D01*
X105492945Y-74154455D01*
X105451145Y-73914950D01*
X105451144Y-73914947D01*
X105450772Y-73912814D01*
X105355666Y-73591740D01*
X105224286Y-73283725D01*
X105058375Y-72992851D01*
X105001418Y-72915313D01*
X104861414Y-72724721D01*
X104861410Y-72724716D01*
X104860131Y-72722975D01*
X104784854Y-72641968D01*
X104633663Y-72479266D01*
X104633657Y-72479260D01*
X104632182Y-72477673D01*
X104377550Y-72260196D01*
X104099609Y-72073428D01*
X103950826Y-71996635D01*
X103803966Y-71920834D01*
X103803958Y-71920831D01*
X103802043Y-71919842D01*
X103707170Y-71883993D01*
X103490821Y-71802242D01*
X103490818Y-71802241D01*
X103488796Y-71801477D01*
X103164021Y-71719899D01*
X103161873Y-71719616D01*
X103161872Y-71719616D01*
X103044693Y-71704189D01*
X102832022Y-71676190D01*
X102829864Y-71676156D01*
X102829863Y-71676156D01*
X102499365Y-71670964D01*
X102497200Y-71670930D01*
X102495050Y-71671145D01*
X102495041Y-71671145D01*
X102166154Y-71703973D01*
X102166152Y-71703973D01*
X102163991Y-71704189D01*
X102161878Y-71704650D01*
X102161870Y-71704651D01*
X101970134Y-71746457D01*
X101836814Y-71775525D01*
X101520004Y-71883993D01*
X101390055Y-71945976D01*
X101219718Y-72027222D01*
X101219710Y-72027226D01*
X101217761Y-72028156D01*
X100934091Y-72206102D01*
X100932399Y-72207458D01*
X100932397Y-72207459D01*
X100866321Y-72260396D01*
X100672753Y-72415473D01*
X100437211Y-72653494D01*
X100435884Y-72655186D01*
X100435879Y-72655192D01*
X100383976Y-72721387D01*
X100230588Y-72917011D01*
X100229461Y-72918849D01*
X100229461Y-72918850D01*
X100182837Y-72994934D01*
X100055622Y-73202529D01*
X99914633Y-73506265D01*
X99809488Y-73824193D01*
X99809049Y-73826313D01*
X99791136Y-73912814D01*
X99741582Y-74152100D01*
X99733497Y-74242691D01*
X99712722Y-74475469D01*
X99711814Y-74485638D01*
X99324501Y-74485638D01*
X99324054Y-74483662D01*
X99322200Y-74467065D01*
X99322200Y-70218316D01*
X102116600Y-70218316D01*
X102117321Y-70225637D01*
X102123997Y-70259198D01*
X102129558Y-70272623D01*
X102155014Y-70310720D01*
X102165280Y-70320986D01*
X102203377Y-70346442D01*
X102216802Y-70352003D01*
X102250363Y-70358679D01*
X102257684Y-70359400D01*
X103004141Y-70359400D01*
X103014298Y-70355703D01*
X103017400Y-70350331D01*
X103017400Y-70346141D01*
X103220600Y-70346141D01*
X103224297Y-70356298D01*
X103229669Y-70359400D01*
X103980316Y-70359400D01*
X103987637Y-70358679D01*
X104021198Y-70352003D01*
X104034623Y-70346442D01*
X104072720Y-70320986D01*
X104082986Y-70310720D01*
X104108442Y-70272623D01*
X104114003Y-70259198D01*
X104120679Y-70225637D01*
X104121400Y-70218316D01*
X104121400Y-69471859D01*
X104117703Y-69461702D01*
X104112331Y-69458600D01*
X103233859Y-69458600D01*
X103223702Y-69462297D01*
X103220600Y-69467669D01*
X103220600Y-70346141D01*
X103017400Y-70346141D01*
X103017400Y-69471859D01*
X103013703Y-69461702D01*
X103008331Y-69458600D01*
X102129859Y-69458600D01*
X102119702Y-69462297D01*
X102116600Y-69467669D01*
X102116600Y-70218316D01*
X99322200Y-70218316D01*
X99322200Y-69242141D01*
X102116600Y-69242141D01*
X102120297Y-69252298D01*
X102125669Y-69255400D01*
X103004141Y-69255400D01*
X103014298Y-69251703D01*
X103017400Y-69246331D01*
X103017400Y-69242141D01*
X103220600Y-69242141D01*
X103224297Y-69252298D01*
X103229669Y-69255400D01*
X104108141Y-69255400D01*
X104118298Y-69251703D01*
X104121400Y-69246331D01*
X104121400Y-68495684D01*
X104120679Y-68488363D01*
X104114003Y-68454802D01*
X104108442Y-68441377D01*
X104082986Y-68403280D01*
X104072720Y-68393014D01*
X104034623Y-68367558D01*
X104021198Y-68361997D01*
X103987637Y-68355321D01*
X103980316Y-68354600D01*
X103233859Y-68354600D01*
X103223702Y-68358297D01*
X103220600Y-68363669D01*
X103220600Y-69242141D01*
X103017400Y-69242141D01*
X103017400Y-68367859D01*
X103013703Y-68357702D01*
X103008331Y-68354600D01*
X102257684Y-68354600D01*
X102250363Y-68355321D01*
X102216802Y-68361997D01*
X102203377Y-68367558D01*
X102165280Y-68393014D01*
X102155014Y-68403280D01*
X102129558Y-68441377D01*
X102123997Y-68454802D01*
X102117321Y-68488363D01*
X102116600Y-68495684D01*
X102116600Y-69242141D01*
X99322200Y-69242141D01*
X99322200Y-66802217D01*
X102060305Y-66802217D01*
X102060613Y-66805885D01*
X102060613Y-66805888D01*
X102065328Y-66862035D01*
X102077596Y-67008133D01*
X102134555Y-67206770D01*
X102136237Y-67210042D01*
X102136237Y-67210043D01*
X102141882Y-67221027D01*
X102229010Y-67390560D01*
X102357364Y-67552503D01*
X102514730Y-67686431D01*
X102517941Y-67688225D01*
X102517943Y-67688227D01*
X102691900Y-67785449D01*
X102691905Y-67785451D01*
X102695111Y-67787243D01*
X102891639Y-67851099D01*
X103004982Y-67864614D01*
X103093168Y-67875130D01*
X103093170Y-67875130D01*
X103096826Y-67875566D01*
X103302858Y-67859712D01*
X103501887Y-67804143D01*
X103686332Y-67710973D01*
X103776918Y-67640200D01*
X109369522Y-67640200D01*
X109370165Y-67645084D01*
X109378840Y-67710973D01*
X109388552Y-67784745D01*
X109390436Y-67789292D01*
X109390436Y-67789294D01*
X109415566Y-67849962D01*
X109444344Y-67919439D01*
X109447340Y-67923343D01*
X109447342Y-67923347D01*
X109530098Y-68031197D01*
X109533096Y-68035104D01*
X109537003Y-68038102D01*
X109644853Y-68120858D01*
X109644857Y-68120860D01*
X109648761Y-68123856D01*
X109716108Y-68151752D01*
X109778906Y-68177764D01*
X109778908Y-68177764D01*
X109783455Y-68179648D01*
X109788333Y-68180290D01*
X109788336Y-68180291D01*
X109923116Y-68198035D01*
X109928000Y-68198678D01*
X109932884Y-68198035D01*
X110067664Y-68180291D01*
X110067667Y-68180290D01*
X110072545Y-68179648D01*
X110077092Y-68177764D01*
X110077094Y-68177764D01*
X110139892Y-68151752D01*
X110207239Y-68123856D01*
X110211143Y-68120860D01*
X110211147Y-68120858D01*
X110318997Y-68038102D01*
X110322904Y-68035104D01*
X110325902Y-68031197D01*
X110408658Y-67923347D01*
X110408660Y-67923343D01*
X110411656Y-67919439D01*
X110440434Y-67849962D01*
X110465564Y-67789294D01*
X110465564Y-67789292D01*
X110467448Y-67784745D01*
X110477161Y-67710973D01*
X110485835Y-67645084D01*
X110486478Y-67640200D01*
X110485835Y-67635316D01*
X110468091Y-67500536D01*
X110468090Y-67500533D01*
X110467448Y-67495655D01*
X110411656Y-67360961D01*
X110408345Y-67356646D01*
X110399738Y-67342405D01*
X110391018Y-67323530D01*
X110389598Y-67320253D01*
X110370205Y-67272433D01*
X110368342Y-67221027D01*
X110380231Y-67198394D01*
X110395343Y-67178699D01*
X110411656Y-67157439D01*
X110467448Y-67022745D01*
X110468092Y-67017860D01*
X110485835Y-66883084D01*
X110486478Y-66878200D01*
X110476958Y-66805888D01*
X110468091Y-66738536D01*
X110468090Y-66738533D01*
X110467448Y-66733655D01*
X110411656Y-66598961D01*
X110408258Y-66594533D01*
X110399670Y-66580331D01*
X110391317Y-66562274D01*
X110389933Y-66559088D01*
X110364898Y-66497619D01*
X110363280Y-66493267D01*
X110345704Y-66441108D01*
X110344140Y-66435837D01*
X110331942Y-66388439D01*
X110330733Y-66382877D01*
X110330289Y-66380383D01*
X110322133Y-66334563D01*
X110321412Y-66329536D01*
X110321093Y-66326598D01*
X110315430Y-66274570D01*
X110315109Y-66270679D01*
X110313554Y-66243172D01*
X110311373Y-66204593D01*
X110311273Y-66202074D01*
X110310716Y-66177423D01*
X110309519Y-66124537D01*
X110309500Y-66122837D01*
X110309500Y-63638370D01*
X110327093Y-63590032D01*
X110331526Y-63585196D01*
X110391070Y-63525652D01*
X110437690Y-63503912D01*
X110487377Y-63517226D01*
X110516882Y-63559363D01*
X110519363Y-63578210D01*
X110518801Y-63582479D01*
X110519444Y-63587363D01*
X110533130Y-63691315D01*
X110537831Y-63727024D01*
X110593623Y-63861718D01*
X110596619Y-63865622D01*
X110596621Y-63865626D01*
X110664963Y-63954691D01*
X110682375Y-63977383D01*
X110686282Y-63980381D01*
X110794132Y-64063137D01*
X110794136Y-64063139D01*
X110798040Y-64066135D01*
X110865387Y-64094031D01*
X110928185Y-64120043D01*
X110928187Y-64120043D01*
X110932734Y-64121927D01*
X110937612Y-64122569D01*
X110937615Y-64122570D01*
X111072395Y-64140314D01*
X111077279Y-64140957D01*
X111082163Y-64140314D01*
X111216943Y-64122570D01*
X111216946Y-64122569D01*
X111221824Y-64121927D01*
X111226371Y-64120043D01*
X111226373Y-64120043D01*
X111289171Y-64094031D01*
X111356518Y-64066135D01*
X111360422Y-64063139D01*
X111360426Y-64063137D01*
X111468276Y-63980381D01*
X111472183Y-63977383D01*
X111502640Y-63937690D01*
X111546023Y-63910052D01*
X111597023Y-63916766D01*
X111631776Y-63954691D01*
X111637500Y-63983469D01*
X111637500Y-65868029D01*
X111619907Y-65916367D01*
X111615474Y-65921204D01*
X111462372Y-66074305D01*
X111461155Y-66075494D01*
X111405066Y-66129100D01*
X111403198Y-66130826D01*
X111353847Y-66174897D01*
X111350866Y-66177423D01*
X111307787Y-66212044D01*
X111303712Y-66215098D01*
X111280203Y-66231502D01*
X111280198Y-66231506D01*
X111280185Y-66231515D01*
X111280183Y-66231517D01*
X111263469Y-66243180D01*
X111258691Y-66246251D01*
X111216533Y-66271151D01*
X111211701Y-66273772D01*
X111162414Y-66298215D01*
X111158193Y-66300149D01*
X111097004Y-66325921D01*
X111093753Y-66327202D01*
X111075104Y-66334054D01*
X111058986Y-66338024D01*
X111053455Y-66338752D01*
X110918761Y-66394544D01*
X110914857Y-66397540D01*
X110914853Y-66397542D01*
X110864946Y-66435837D01*
X110803096Y-66483296D01*
X110800098Y-66487203D01*
X110717342Y-66595053D01*
X110717340Y-66595057D01*
X110714344Y-66598961D01*
X110658552Y-66733655D01*
X110657910Y-66738533D01*
X110657909Y-66738536D01*
X110649042Y-66805888D01*
X110639522Y-66878200D01*
X110640165Y-66883084D01*
X110657909Y-67017860D01*
X110658552Y-67022745D01*
X110714344Y-67157439D01*
X110737898Y-67188135D01*
X110753365Y-67237192D01*
X110750595Y-67254390D01*
X110732590Y-67318009D01*
X110729762Y-67326178D01*
X110718177Y-67354289D01*
X110715876Y-67358965D01*
X110714344Y-67360961D01*
X110712460Y-67365510D01*
X110712457Y-67365515D01*
X110660436Y-67491106D01*
X110658552Y-67495655D01*
X110657910Y-67500533D01*
X110657909Y-67500536D01*
X110640165Y-67635316D01*
X110639522Y-67640200D01*
X110640165Y-67645084D01*
X110648840Y-67710973D01*
X110658552Y-67784745D01*
X110660436Y-67789292D01*
X110660436Y-67789294D01*
X110685566Y-67849962D01*
X110714344Y-67919439D01*
X110717340Y-67923343D01*
X110717342Y-67923347D01*
X110800098Y-68031197D01*
X110803096Y-68035104D01*
X110807003Y-68038102D01*
X110914853Y-68120858D01*
X110914857Y-68120860D01*
X110918761Y-68123856D01*
X110986108Y-68151752D01*
X111048906Y-68177764D01*
X111048908Y-68177764D01*
X111053455Y-68179648D01*
X111058333Y-68180290D01*
X111058336Y-68180291D01*
X111193116Y-68198035D01*
X111198000Y-68198678D01*
X111202884Y-68198035D01*
X111337664Y-68180291D01*
X111337667Y-68180290D01*
X111342545Y-68179648D01*
X111347092Y-68177764D01*
X111347094Y-68177764D01*
X111409892Y-68151752D01*
X111477239Y-68123856D01*
X111481143Y-68120860D01*
X111481147Y-68120858D01*
X111588997Y-68038102D01*
X111592904Y-68035104D01*
X111595902Y-68031197D01*
X111678658Y-67923347D01*
X111678660Y-67923343D01*
X111681656Y-67919439D01*
X111710434Y-67849962D01*
X111735564Y-67789294D01*
X111735564Y-67789292D01*
X111737448Y-67784745D01*
X111747161Y-67710973D01*
X111755835Y-67645084D01*
X111756478Y-67640200D01*
X111755835Y-67635316D01*
X111738091Y-67500536D01*
X111738090Y-67500533D01*
X111737448Y-67495655D01*
X111681656Y-67360961D01*
X111671376Y-67347564D01*
X111663906Y-67335675D01*
X111660416Y-67328762D01*
X111660183Y-67328302D01*
X111660120Y-67328178D01*
X111659247Y-67326479D01*
X111637996Y-67285608D01*
X111631306Y-67234605D01*
X111645055Y-67205139D01*
X111658104Y-67188133D01*
X111681656Y-67157439D01*
X111737448Y-67022745D01*
X111738177Y-67017205D01*
X111742149Y-67001085D01*
X111748997Y-66982449D01*
X111750278Y-66979196D01*
X111776051Y-66918004D01*
X111777985Y-66913784D01*
X111802423Y-66864506D01*
X111805043Y-66859673D01*
X111814029Y-66844459D01*
X111829947Y-66817509D01*
X111833021Y-66812728D01*
X111861107Y-66772480D01*
X111864150Y-66768419D01*
X111898795Y-66725310D01*
X111901302Y-66722352D01*
X111945373Y-66673001D01*
X111947099Y-66671132D01*
X112000688Y-66615061D01*
X112001878Y-66613845D01*
X112254302Y-66361421D01*
X112266683Y-66351421D01*
X112274081Y-66346644D01*
X112274083Y-66346642D01*
X112279304Y-66343271D01*
X112286156Y-66334580D01*
X112302084Y-66314375D01*
X112307966Y-66307757D01*
X112311171Y-66304552D01*
X112323158Y-66287779D01*
X112325284Y-66284948D01*
X112354086Y-66248413D01*
X112354089Y-66248407D01*
X112357934Y-66243530D01*
X112359992Y-66237669D01*
X112361278Y-66235330D01*
X112361433Y-66235083D01*
X112361553Y-66234797D01*
X112362719Y-66232418D01*
X112366334Y-66227358D01*
X112381444Y-66176832D01*
X112382524Y-66173505D01*
X112400016Y-66123698D01*
X112400500Y-66118109D01*
X112400500Y-66117010D01*
X112400959Y-66111582D01*
X112402725Y-66105676D01*
X112400951Y-66060518D01*
X112400558Y-66050530D01*
X112400500Y-66047577D01*
X112400500Y-62847251D01*
X112418093Y-62798913D01*
X112462642Y-62773193D01*
X112490370Y-62773496D01*
X112498936Y-62775200D01*
X112939064Y-62775200D01*
X112998480Y-62763381D01*
X113058648Y-62723179D01*
X113059703Y-62722474D01*
X113061799Y-62721073D01*
X113061802Y-62721072D01*
X113065860Y-62718360D01*
X113066277Y-62718985D01*
X113107117Y-62699940D01*
X113145809Y-62709858D01*
X113146534Y-62708108D01*
X113166802Y-62716503D01*
X113200363Y-62723179D01*
X113207684Y-62723900D01*
X113304141Y-62723900D01*
X113314298Y-62720203D01*
X113317400Y-62714831D01*
X113317400Y-59432359D01*
X113313703Y-59422202D01*
X113308331Y-59419100D01*
X113207684Y-59419100D01*
X113200363Y-59419821D01*
X113166802Y-59426497D01*
X113146534Y-59434892D01*
X113145767Y-59433041D01*
X113105490Y-59442900D01*
X113066238Y-59424074D01*
X113065860Y-59424640D01*
X113061894Y-59421990D01*
X112998480Y-59379619D01*
X112939064Y-59367800D01*
X112498936Y-59367800D01*
X112496580Y-59368269D01*
X112447108Y-59355587D01*
X112417148Y-59313773D01*
X112415534Y-59280345D01*
X112421734Y-59245517D01*
X112422942Y-59239960D01*
X112435140Y-59192562D01*
X112436704Y-59187291D01*
X112454278Y-59135138D01*
X112455896Y-59130786D01*
X112480933Y-59069312D01*
X112482319Y-59066123D01*
X112490672Y-59048065D01*
X112499260Y-59033865D01*
X112499654Y-59033351D01*
X112502656Y-59029439D01*
X112522890Y-58980590D01*
X112556564Y-58899294D01*
X112556564Y-58899292D01*
X112558448Y-58894745D01*
X112560779Y-58877045D01*
X112576835Y-58755084D01*
X112577478Y-58750200D01*
X112568984Y-58685684D01*
X112559091Y-58610536D01*
X112559090Y-58610533D01*
X112558448Y-58605655D01*
X112556023Y-58599799D01*
X112512661Y-58495116D01*
X112502656Y-58470961D01*
X112499660Y-58467057D01*
X112499658Y-58467053D01*
X112416902Y-58359203D01*
X112413904Y-58355296D01*
X112391654Y-58338223D01*
X112302147Y-58269542D01*
X112302143Y-58269540D01*
X112298239Y-58266544D01*
X112192349Y-58222683D01*
X112168094Y-58212636D01*
X112168092Y-58212636D01*
X112163545Y-58210752D01*
X112158667Y-58210110D01*
X112158664Y-58210109D01*
X112023884Y-58192365D01*
X112019000Y-58191722D01*
X112014116Y-58192365D01*
X111879336Y-58210109D01*
X111879333Y-58210110D01*
X111874455Y-58210752D01*
X111869908Y-58212636D01*
X111869906Y-58212636D01*
X111845651Y-58222683D01*
X111739761Y-58266544D01*
X111735857Y-58269540D01*
X111735853Y-58269542D01*
X111646346Y-58338223D01*
X111624096Y-58355296D01*
X111621098Y-58359203D01*
X111538342Y-58467053D01*
X111538340Y-58467057D01*
X111535344Y-58470961D01*
X111525339Y-58495116D01*
X111481978Y-58599799D01*
X111479552Y-58605655D01*
X111478910Y-58610533D01*
X111478909Y-58610536D01*
X111469016Y-58685684D01*
X111460522Y-58750200D01*
X111461165Y-58755084D01*
X111477222Y-58877045D01*
X111479552Y-58894745D01*
X111481436Y-58899292D01*
X111481436Y-58899294D01*
X111515110Y-58980590D01*
X111535344Y-59029439D01*
X111538740Y-59033865D01*
X111547325Y-59048063D01*
X111555671Y-59066104D01*
X111555680Y-59066123D01*
X111557073Y-59069329D01*
X111582101Y-59130780D01*
X111583719Y-59135132D01*
X111601295Y-59187291D01*
X111602859Y-59192562D01*
X111615057Y-59239960D01*
X111616265Y-59245517D01*
X111622465Y-59280343D01*
X111613616Y-59331014D01*
X111574266Y-59364144D01*
X111541560Y-59368297D01*
X111539064Y-59367800D01*
X111098936Y-59367800D01*
X111039520Y-59379619D01*
X111033360Y-59383735D01*
X111010778Y-59398823D01*
X110960812Y-59411049D01*
X110927222Y-59398823D01*
X110904640Y-59383735D01*
X110898480Y-59379619D01*
X110839064Y-59367800D01*
X110398936Y-59367800D01*
X110339520Y-59379619D01*
X110276201Y-59421927D01*
X110276198Y-59421928D01*
X110272140Y-59424640D01*
X110271723Y-59424015D01*
X110230883Y-59443060D01*
X110192191Y-59433142D01*
X110191466Y-59434892D01*
X110171198Y-59426497D01*
X110137637Y-59419821D01*
X110130316Y-59419100D01*
X110033859Y-59419100D01*
X110023702Y-59422797D01*
X110020600Y-59428169D01*
X110020600Y-62710640D01*
X110032617Y-62743657D01*
X110032617Y-62795097D01*
X110015126Y-62822551D01*
X109692697Y-63144980D01*
X109680315Y-63154981D01*
X109667696Y-63163129D01*
X109663848Y-63168010D01*
X109644916Y-63192025D01*
X109639034Y-63198643D01*
X109635829Y-63201848D01*
X109634027Y-63204370D01*
X109623843Y-63218621D01*
X109621715Y-63221455D01*
X109607534Y-63239444D01*
X109589066Y-63262870D01*
X109587008Y-63268731D01*
X109585720Y-63271073D01*
X109585567Y-63271316D01*
X109585450Y-63271596D01*
X109584279Y-63273986D01*
X109580666Y-63279043D01*
X109578885Y-63284999D01*
X109565560Y-63329554D01*
X109564467Y-63332918D01*
X109546984Y-63382702D01*
X109546500Y-63388291D01*
X109546500Y-63389390D01*
X109546041Y-63394818D01*
X109544275Y-63400724D01*
X109544519Y-63406935D01*
X109544519Y-63406936D01*
X109546442Y-63455870D01*
X109546500Y-63458823D01*
X109546500Y-66122798D01*
X109546481Y-66124498D01*
X109545284Y-66177423D01*
X109544726Y-66202074D01*
X109544626Y-66204593D01*
X109542445Y-66243172D01*
X109540890Y-66270679D01*
X109540569Y-66274570D01*
X109534907Y-66326598D01*
X109534587Y-66329536D01*
X109533866Y-66334563D01*
X109525710Y-66380383D01*
X109525266Y-66382877D01*
X109524057Y-66388439D01*
X109511859Y-66435837D01*
X109510295Y-66441108D01*
X109492719Y-66493267D01*
X109491101Y-66497619D01*
X109466066Y-66559088D01*
X109464680Y-66562278D01*
X109456330Y-66580328D01*
X109456329Y-66580331D01*
X109447741Y-66594533D01*
X109447375Y-66595010D01*
X109444344Y-66598961D01*
X109388552Y-66733655D01*
X109387910Y-66738533D01*
X109387909Y-66738536D01*
X109379042Y-66805888D01*
X109369522Y-66878200D01*
X109370165Y-66883084D01*
X109387909Y-67017860D01*
X109388552Y-67022745D01*
X109444344Y-67157439D01*
X109447341Y-67161345D01*
X109447343Y-67161348D01*
X109475768Y-67198392D01*
X109491236Y-67247451D01*
X109485796Y-67272431D01*
X109480453Y-67285608D01*
X109466403Y-67320253D01*
X109464986Y-67323520D01*
X109464982Y-67323530D01*
X109464980Y-67323534D01*
X109456258Y-67342411D01*
X109447653Y-67356648D01*
X109444344Y-67360961D01*
X109442460Y-67365510D01*
X109442458Y-67365514D01*
X109430890Y-67393443D01*
X109388552Y-67495655D01*
X109387910Y-67500533D01*
X109387909Y-67500536D01*
X109370165Y-67635316D01*
X109369522Y-67640200D01*
X103776918Y-67640200D01*
X103849168Y-67583752D01*
X103876141Y-67552503D01*
X103981786Y-67430112D01*
X103981789Y-67430108D01*
X103984191Y-67427325D01*
X104045017Y-67320253D01*
X104084443Y-67250851D01*
X104084444Y-67250849D01*
X104086260Y-67247652D01*
X104151486Y-67051575D01*
X104177385Y-66846563D01*
X104177798Y-66817000D01*
X104177379Y-66812728D01*
X104157993Y-66615013D01*
X104157992Y-66615010D01*
X104157633Y-66611345D01*
X104097907Y-66413523D01*
X104000895Y-66231070D01*
X103870292Y-66070935D01*
X103845627Y-66050530D01*
X103713905Y-65941560D01*
X103713901Y-65941557D01*
X103711072Y-65939217D01*
X103529301Y-65840933D01*
X103481168Y-65826034D01*
X103335414Y-65780915D01*
X103335410Y-65780914D01*
X103331901Y-65779828D01*
X103189612Y-65764873D01*
X103130047Y-65758612D01*
X103130045Y-65758612D01*
X103126392Y-65758228D01*
X103023497Y-65767592D01*
X102924259Y-65776623D01*
X102924258Y-65776623D01*
X102920601Y-65776956D01*
X102917076Y-65777993D01*
X102917073Y-65777994D01*
X102725897Y-65834261D01*
X102722367Y-65835300D01*
X102539241Y-65931036D01*
X102529066Y-65939217D01*
X102381069Y-66058209D01*
X102381065Y-66058213D01*
X102378198Y-66060518D01*
X102375830Y-66063340D01*
X102375829Y-66063341D01*
X102247735Y-66215996D01*
X102247732Y-66216000D01*
X102245371Y-66218814D01*
X102243600Y-66222036D01*
X102243599Y-66222037D01*
X102179634Y-66338390D01*
X102145821Y-66399895D01*
X102144708Y-66403404D01*
X102088584Y-66580331D01*
X102083339Y-66596864D01*
X102060305Y-66802217D01*
X99322200Y-66802217D01*
X99322200Y-64262217D01*
X102060305Y-64262217D01*
X102060613Y-64265885D01*
X102060613Y-64265888D01*
X102063852Y-64304459D01*
X102077596Y-64468133D01*
X102134555Y-64666770D01*
X102229010Y-64850560D01*
X102357364Y-65012503D01*
X102514730Y-65146431D01*
X102517941Y-65148225D01*
X102517943Y-65148227D01*
X102691900Y-65245449D01*
X102691905Y-65245451D01*
X102695111Y-65247243D01*
X102891639Y-65311099D01*
X103004982Y-65324614D01*
X103093168Y-65335130D01*
X103093170Y-65335130D01*
X103096826Y-65335566D01*
X103302858Y-65319712D01*
X103501887Y-65264143D01*
X103686332Y-65170973D01*
X103849168Y-65043752D01*
X103876141Y-65012503D01*
X103981786Y-64890112D01*
X103981789Y-64890108D01*
X103984191Y-64887325D01*
X104086260Y-64707652D01*
X104151486Y-64511575D01*
X104177385Y-64306563D01*
X104177798Y-64277000D01*
X104177593Y-64274907D01*
X104157993Y-64075013D01*
X104157992Y-64075010D01*
X104157633Y-64071345D01*
X104097907Y-63873523D01*
X104000895Y-63691070D01*
X103870292Y-63530935D01*
X103837627Y-63503912D01*
X103713905Y-63401560D01*
X103713901Y-63401557D01*
X103711072Y-63399217D01*
X103529301Y-63300933D01*
X103434402Y-63271557D01*
X103335414Y-63240915D01*
X103335410Y-63240914D01*
X103331901Y-63239828D01*
X103157095Y-63221455D01*
X103130047Y-63218612D01*
X103130045Y-63218612D01*
X103126392Y-63218228D01*
X103023497Y-63227592D01*
X102924259Y-63236623D01*
X102924258Y-63236623D01*
X102920601Y-63236956D01*
X102917076Y-63237993D01*
X102917073Y-63237994D01*
X102777603Y-63279043D01*
X102722367Y-63295300D01*
X102539241Y-63391036D01*
X102489510Y-63431021D01*
X102381069Y-63518209D01*
X102381065Y-63518213D01*
X102378198Y-63520518D01*
X102375830Y-63523340D01*
X102375829Y-63523341D01*
X102247735Y-63675996D01*
X102247732Y-63676000D01*
X102245371Y-63678814D01*
X102243600Y-63682036D01*
X102243599Y-63682037D01*
X102147595Y-63856668D01*
X102145821Y-63859895D01*
X102083339Y-64056864D01*
X102060305Y-64262217D01*
X99322200Y-64262217D01*
X99322200Y-61722217D01*
X102060305Y-61722217D01*
X102060613Y-61725885D01*
X102060613Y-61725888D01*
X102063852Y-61764459D01*
X102077596Y-61928133D01*
X102134555Y-62126770D01*
X102229010Y-62310560D01*
X102357364Y-62472503D01*
X102514730Y-62606431D01*
X102517941Y-62608225D01*
X102517943Y-62608227D01*
X102691900Y-62705449D01*
X102691905Y-62705451D01*
X102695111Y-62707243D01*
X102698612Y-62708381D01*
X102698613Y-62708381D01*
X102731067Y-62718926D01*
X102891639Y-62771099D01*
X103004982Y-62784614D01*
X103093168Y-62795130D01*
X103093170Y-62795130D01*
X103096826Y-62795566D01*
X103302858Y-62779712D01*
X103501887Y-62724143D01*
X103686332Y-62630973D01*
X103747970Y-62582816D01*
X109566600Y-62582816D01*
X109567321Y-62590137D01*
X109573997Y-62623698D01*
X109579558Y-62637123D01*
X109605014Y-62675220D01*
X109615280Y-62685486D01*
X109653377Y-62710942D01*
X109666802Y-62716503D01*
X109700363Y-62723179D01*
X109707684Y-62723900D01*
X109804141Y-62723900D01*
X109814298Y-62720203D01*
X109817400Y-62714831D01*
X109817400Y-61186359D01*
X109813703Y-61176202D01*
X109808331Y-61173100D01*
X109579859Y-61173100D01*
X109569702Y-61176797D01*
X109566600Y-61182169D01*
X109566600Y-62582816D01*
X103747970Y-62582816D01*
X103849168Y-62503752D01*
X103876141Y-62472503D01*
X103981786Y-62350112D01*
X103981789Y-62350108D01*
X103984191Y-62347325D01*
X104086260Y-62167652D01*
X104151486Y-61971575D01*
X104177385Y-61766563D01*
X104177798Y-61737000D01*
X104177593Y-61734907D01*
X104157993Y-61535013D01*
X104157992Y-61535010D01*
X104157633Y-61531345D01*
X104097907Y-61333523D01*
X104000895Y-61151070D01*
X103870292Y-60990935D01*
X103840396Y-60966203D01*
X103828838Y-60956641D01*
X109566600Y-60956641D01*
X109570297Y-60966798D01*
X109575669Y-60969900D01*
X109804141Y-60969900D01*
X109814298Y-60966203D01*
X109817400Y-60960831D01*
X109817400Y-59432359D01*
X109813703Y-59422202D01*
X109808331Y-59419100D01*
X109707684Y-59419100D01*
X109700363Y-59419821D01*
X109666802Y-59426497D01*
X109653377Y-59432058D01*
X109615280Y-59457514D01*
X109605014Y-59467780D01*
X109579558Y-59505877D01*
X109573997Y-59519302D01*
X109567321Y-59552863D01*
X109566600Y-59560184D01*
X109566600Y-60956641D01*
X103828838Y-60956641D01*
X103713905Y-60861560D01*
X103713901Y-60861557D01*
X103711072Y-60859217D01*
X103529301Y-60760933D01*
X103481168Y-60746034D01*
X103335414Y-60700915D01*
X103335410Y-60700914D01*
X103331901Y-60699828D01*
X103189612Y-60684873D01*
X103130047Y-60678612D01*
X103130045Y-60678612D01*
X103126392Y-60678228D01*
X103023497Y-60687592D01*
X102924259Y-60696623D01*
X102924258Y-60696623D01*
X102920601Y-60696956D01*
X102917076Y-60697993D01*
X102917073Y-60697994D01*
X102725897Y-60754261D01*
X102722367Y-60755300D01*
X102539241Y-60851036D01*
X102529066Y-60859217D01*
X102381069Y-60978209D01*
X102381065Y-60978213D01*
X102378198Y-60980518D01*
X102375830Y-60983340D01*
X102375829Y-60983341D01*
X102247735Y-61135996D01*
X102247732Y-61136000D01*
X102245371Y-61138814D01*
X102145821Y-61319895D01*
X102083339Y-61516864D01*
X102060305Y-61722217D01*
X99322200Y-61722217D01*
X99322200Y-59182217D01*
X102060305Y-59182217D01*
X102060613Y-59185885D01*
X102060613Y-59185888D01*
X102074411Y-59350207D01*
X102077596Y-59388133D01*
X102134555Y-59586770D01*
X102229010Y-59770560D01*
X102357364Y-59932503D01*
X102514730Y-60066431D01*
X102517941Y-60068225D01*
X102517943Y-60068227D01*
X102691900Y-60165449D01*
X102691905Y-60165451D01*
X102695111Y-60167243D01*
X102891639Y-60231099D01*
X103004982Y-60244614D01*
X103093168Y-60255130D01*
X103093170Y-60255130D01*
X103096826Y-60255566D01*
X103302858Y-60239712D01*
X103501887Y-60184143D01*
X103686332Y-60090973D01*
X103849168Y-59963752D01*
X103876141Y-59932503D01*
X103981786Y-59810112D01*
X103981789Y-59810108D01*
X103984191Y-59807325D01*
X104086260Y-59627652D01*
X104142857Y-59457514D01*
X104150324Y-59435069D01*
X104150325Y-59435066D01*
X104151486Y-59431575D01*
X104177385Y-59226563D01*
X104177798Y-59197000D01*
X104176846Y-59187291D01*
X104157993Y-58995013D01*
X104157992Y-58995010D01*
X104157633Y-58991345D01*
X104097907Y-58793523D01*
X104000895Y-58611070D01*
X103870292Y-58450935D01*
X103814257Y-58404579D01*
X103713905Y-58321560D01*
X103713901Y-58321557D01*
X103711072Y-58319217D01*
X103529301Y-58220933D01*
X103434935Y-58191722D01*
X103335414Y-58160915D01*
X103335410Y-58160914D01*
X103331901Y-58159828D01*
X103189612Y-58144873D01*
X103130047Y-58138612D01*
X103130045Y-58138612D01*
X103126392Y-58138228D01*
X103026441Y-58147324D01*
X102924259Y-58156623D01*
X102924258Y-58156623D01*
X102920601Y-58156956D01*
X102917076Y-58157993D01*
X102917073Y-58157994D01*
X102731418Y-58212636D01*
X102722367Y-58215300D01*
X102539241Y-58311036D01*
X102505427Y-58338223D01*
X102381069Y-58438209D01*
X102381065Y-58438213D01*
X102378198Y-58440518D01*
X102375830Y-58443340D01*
X102375829Y-58443341D01*
X102247735Y-58595996D01*
X102247732Y-58596000D01*
X102245371Y-58598814D01*
X102243600Y-58602036D01*
X102243599Y-58602037D01*
X102236850Y-58614313D01*
X102145821Y-58779895D01*
X102134472Y-58815672D01*
X102089777Y-58956570D01*
X102083339Y-58976864D01*
X102060305Y-59182217D01*
X99322200Y-59182217D01*
X99322200Y-56642217D01*
X102060305Y-56642217D01*
X102060613Y-56645885D01*
X102060613Y-56645888D01*
X102070205Y-56760119D01*
X102077596Y-56848133D01*
X102134555Y-57046770D01*
X102229010Y-57230560D01*
X102357364Y-57392503D01*
X102514730Y-57526431D01*
X102517941Y-57528225D01*
X102517943Y-57528227D01*
X102691900Y-57625449D01*
X102691905Y-57625451D01*
X102695111Y-57627243D01*
X102891639Y-57691099D01*
X103004982Y-57704614D01*
X103093168Y-57715130D01*
X103093170Y-57715130D01*
X103096826Y-57715566D01*
X103302858Y-57699712D01*
X103501887Y-57644143D01*
X103686332Y-57550973D01*
X103849168Y-57423752D01*
X103876141Y-57392503D01*
X103981786Y-57270112D01*
X103981789Y-57270108D01*
X103984191Y-57267325D01*
X104072885Y-57111197D01*
X104084443Y-57090851D01*
X104084444Y-57090849D01*
X104086260Y-57087652D01*
X104134210Y-56943508D01*
X104150324Y-56895069D01*
X104150325Y-56895066D01*
X104151486Y-56891575D01*
X104177385Y-56686563D01*
X104177798Y-56657000D01*
X104177593Y-56654907D01*
X104157993Y-56455013D01*
X104157992Y-56455010D01*
X104157633Y-56451345D01*
X104097907Y-56253523D01*
X104000895Y-56071070D01*
X103870292Y-55910935D01*
X103802954Y-55855228D01*
X103713905Y-55781560D01*
X103713901Y-55781557D01*
X103711072Y-55779217D01*
X103529301Y-55680933D01*
X103450519Y-55656546D01*
X103335414Y-55620915D01*
X103335410Y-55620914D01*
X103331901Y-55619828D01*
X103188558Y-55604762D01*
X103130047Y-55598612D01*
X103130045Y-55598612D01*
X103126392Y-55598228D01*
X103054594Y-55604762D01*
X102924259Y-55616623D01*
X102924258Y-55616623D01*
X102920601Y-55616956D01*
X102917076Y-55617993D01*
X102917073Y-55617994D01*
X102725941Y-55674248D01*
X102722367Y-55675300D01*
X102539241Y-55771036D01*
X102529066Y-55779217D01*
X102381069Y-55898209D01*
X102381065Y-55898213D01*
X102378198Y-55900518D01*
X102375830Y-55903340D01*
X102375829Y-55903341D01*
X102247735Y-56055996D01*
X102247732Y-56056000D01*
X102245371Y-56058814D01*
X102243600Y-56062036D01*
X102243599Y-56062037D01*
X102148271Y-56235439D01*
X102145821Y-56239895D01*
X102083339Y-56436864D01*
X102060305Y-56642217D01*
X99322200Y-56642217D01*
X99322200Y-54102217D01*
X102060305Y-54102217D01*
X102060613Y-54105885D01*
X102060613Y-54105888D01*
X102062830Y-54132284D01*
X102077596Y-54308133D01*
X102134555Y-54506770D01*
X102229010Y-54690560D01*
X102357364Y-54852503D01*
X102514730Y-54986431D01*
X102517941Y-54988225D01*
X102517943Y-54988227D01*
X102691900Y-55085449D01*
X102691905Y-55085451D01*
X102695111Y-55087243D01*
X102891639Y-55151099D01*
X103004982Y-55164614D01*
X103093168Y-55175130D01*
X103093170Y-55175130D01*
X103096826Y-55175566D01*
X103302858Y-55159712D01*
X103501887Y-55104143D01*
X103645494Y-55031602D01*
X103683048Y-55012632D01*
X103683049Y-55012631D01*
X103686332Y-55010973D01*
X103849168Y-54883752D01*
X103876141Y-54852503D01*
X103981786Y-54730112D01*
X103981789Y-54730108D01*
X103984191Y-54727325D01*
X104050241Y-54611056D01*
X104084443Y-54550851D01*
X104084444Y-54550849D01*
X104086260Y-54547652D01*
X104138517Y-54390562D01*
X104150324Y-54355069D01*
X104150325Y-54355066D01*
X104151486Y-54351575D01*
X104177385Y-54146563D01*
X104177653Y-54127400D01*
X108531322Y-54127400D01*
X108531965Y-54132284D01*
X108545777Y-54237193D01*
X108550352Y-54271945D01*
X108552236Y-54276492D01*
X108552236Y-54276494D01*
X108566806Y-54311669D01*
X108606144Y-54406639D01*
X108609140Y-54410543D01*
X108609142Y-54410547D01*
X108680262Y-54503233D01*
X108694896Y-54522304D01*
X108698803Y-54525302D01*
X108806653Y-54608058D01*
X108806657Y-54608060D01*
X108810561Y-54611056D01*
X108870219Y-54635767D01*
X108940701Y-54664962D01*
X108940703Y-54664963D01*
X108945255Y-54666848D01*
X108950139Y-54667491D01*
X108950143Y-54667492D01*
X108950792Y-54667577D01*
X108966915Y-54671549D01*
X108984495Y-54678009D01*
X108985551Y-54678397D01*
X108988805Y-54679679D01*
X109049993Y-54705450D01*
X109054217Y-54707385D01*
X109073090Y-54716746D01*
X109073092Y-54716746D01*
X109103504Y-54731828D01*
X109108316Y-54734437D01*
X109150504Y-54759355D01*
X109155271Y-54762420D01*
X109195502Y-54790493D01*
X109199577Y-54793547D01*
X109242666Y-54828176D01*
X109245648Y-54830703D01*
X109295011Y-54874786D01*
X109296873Y-54876505D01*
X109353005Y-54930152D01*
X109354178Y-54931300D01*
X113715474Y-59292597D01*
X113737214Y-59339217D01*
X113737500Y-59345771D01*
X113737500Y-59348054D01*
X113719907Y-59396392D01*
X113675358Y-59422112D01*
X113647627Y-59421809D01*
X113637632Y-59419821D01*
X113630316Y-59419100D01*
X113533859Y-59419100D01*
X113523702Y-59422797D01*
X113520600Y-59428169D01*
X113520600Y-62710641D01*
X113524297Y-62720798D01*
X113529669Y-62723900D01*
X113630316Y-62723900D01*
X113637637Y-62723179D01*
X113671198Y-62716503D01*
X113691466Y-62708108D01*
X113692233Y-62709959D01*
X113732510Y-62700100D01*
X113771762Y-62718926D01*
X113772140Y-62718360D01*
X113778297Y-62722474D01*
X113779352Y-62723179D01*
X113839520Y-62763381D01*
X113898936Y-62775200D01*
X114339064Y-62775200D01*
X114398480Y-62763381D01*
X114409003Y-62756350D01*
X114427222Y-62744177D01*
X114477188Y-62731951D01*
X114510778Y-62744177D01*
X114528997Y-62756350D01*
X114539520Y-62763381D01*
X114598936Y-62775200D01*
X115039064Y-62775200D01*
X115098480Y-62763381D01*
X115109003Y-62756350D01*
X115127222Y-62744177D01*
X115177188Y-62731951D01*
X115210778Y-62744177D01*
X115228997Y-62756350D01*
X115239520Y-62763381D01*
X115298936Y-62775200D01*
X115739064Y-62775200D01*
X115798480Y-62763381D01*
X115809003Y-62756350D01*
X115827222Y-62744177D01*
X115877188Y-62731951D01*
X115910778Y-62744177D01*
X115928997Y-62756350D01*
X115939520Y-62763381D01*
X115998936Y-62775200D01*
X116439064Y-62775200D01*
X116498480Y-62763381D01*
X116509003Y-62756350D01*
X116527222Y-62744177D01*
X116577188Y-62731951D01*
X116610778Y-62744177D01*
X116628997Y-62756350D01*
X116639520Y-62763381D01*
X116698936Y-62775200D01*
X117139064Y-62775200D01*
X117198480Y-62763381D01*
X117209003Y-62756350D01*
X117227222Y-62744177D01*
X117277188Y-62731951D01*
X117310778Y-62744177D01*
X117328997Y-62756350D01*
X117339520Y-62763381D01*
X117398936Y-62775200D01*
X117839064Y-62775200D01*
X117898480Y-62763381D01*
X117909003Y-62756350D01*
X117927222Y-62744177D01*
X117977188Y-62731951D01*
X118010778Y-62744177D01*
X118028997Y-62756350D01*
X118039520Y-62763381D01*
X118098936Y-62775200D01*
X118539064Y-62775200D01*
X118598480Y-62763381D01*
X118658648Y-62723179D01*
X118659703Y-62722474D01*
X118665860Y-62718360D01*
X118670817Y-62710942D01*
X118706765Y-62657140D01*
X118710881Y-62650980D01*
X118722700Y-62591564D01*
X118722700Y-59551436D01*
X118710881Y-59492020D01*
X118671018Y-59432359D01*
X118669974Y-59430797D01*
X118665860Y-59424640D01*
X118598480Y-59379619D01*
X118539064Y-59367800D01*
X118098936Y-59367800D01*
X118039520Y-59379619D01*
X118033360Y-59383735D01*
X118010778Y-59398823D01*
X117960812Y-59411049D01*
X117927222Y-59398823D01*
X117904640Y-59383735D01*
X117898480Y-59379619D01*
X117839064Y-59367800D01*
X117778470Y-59367800D01*
X117730132Y-59350207D01*
X117704412Y-59305658D01*
X117713345Y-59255000D01*
X117725296Y-59239426D01*
X117961100Y-59003622D01*
X117973482Y-58993621D01*
X117980883Y-58988842D01*
X117986104Y-58985471D01*
X118008888Y-58956570D01*
X118014770Y-58949952D01*
X118017971Y-58946751D01*
X118019772Y-58944231D01*
X118019776Y-58944226D01*
X118029955Y-58929981D01*
X118032063Y-58927172D01*
X118064734Y-58885730D01*
X118066794Y-58879865D01*
X118068078Y-58877529D01*
X118068236Y-58877278D01*
X118068354Y-58876996D01*
X118069521Y-58874615D01*
X118073135Y-58869557D01*
X118074915Y-58863605D01*
X118074917Y-58863601D01*
X118088241Y-58819044D01*
X118089336Y-58815672D01*
X118092311Y-58807203D01*
X118106816Y-58765898D01*
X118107300Y-58760309D01*
X118107300Y-58759210D01*
X118107759Y-58753781D01*
X118109525Y-58747875D01*
X118107922Y-58707061D01*
X118107358Y-58692718D01*
X118107300Y-58689766D01*
X118107300Y-57528930D01*
X118108984Y-57513103D01*
X118110837Y-57504497D01*
X118110837Y-57504495D01*
X118112145Y-57498420D01*
X118107821Y-57461884D01*
X118107300Y-57453046D01*
X118107300Y-57448508D01*
X118106791Y-57445451D01*
X118106790Y-57445437D01*
X118103916Y-57428172D01*
X118103416Y-57424663D01*
X118097948Y-57378464D01*
X118097218Y-57372293D01*
X118094528Y-57366690D01*
X118093783Y-57364127D01*
X118093718Y-57363841D01*
X118093602Y-57363558D01*
X118092743Y-57361048D01*
X118091722Y-57354917D01*
X118066677Y-57308501D01*
X118065082Y-57305371D01*
X118044288Y-57262066D01*
X118044286Y-57262063D01*
X118042240Y-57257802D01*
X118038630Y-57253508D01*
X118037853Y-57252731D01*
X118034340Y-57248570D01*
X118031412Y-57243143D01*
X117990864Y-57205661D01*
X117988736Y-57203614D01*
X117513687Y-56728564D01*
X117512540Y-56727391D01*
X117503561Y-56717998D01*
X117503559Y-56717995D01*
X117458899Y-56671267D01*
X117457173Y-56669398D01*
X117413102Y-56620047D01*
X117410595Y-56617089D01*
X117375950Y-56573980D01*
X117372907Y-56569919D01*
X117344821Y-56529671D01*
X117341747Y-56524890D01*
X117316842Y-56482725D01*
X117314229Y-56477905D01*
X117289778Y-56428601D01*
X117287846Y-56424383D01*
X117286723Y-56421716D01*
X117262074Y-56363196D01*
X117260803Y-56359970D01*
X117253947Y-56341309D01*
X117249978Y-56325194D01*
X117249893Y-56324548D01*
X117249891Y-56324542D01*
X117249248Y-56319655D01*
X117193456Y-56184961D01*
X117190460Y-56181057D01*
X117190458Y-56181053D01*
X117107702Y-56073203D01*
X117104704Y-56069296D01*
X117100797Y-56066298D01*
X116992947Y-55983542D01*
X116992943Y-55983540D01*
X116989039Y-55980544D01*
X116918476Y-55951316D01*
X116858894Y-55926636D01*
X116858892Y-55926636D01*
X116854345Y-55924752D01*
X116849467Y-55924110D01*
X116849464Y-55924109D01*
X116714684Y-55906365D01*
X116709800Y-55905722D01*
X116704916Y-55906365D01*
X116570136Y-55924109D01*
X116570133Y-55924110D01*
X116565255Y-55924752D01*
X116560708Y-55926636D01*
X116560706Y-55926636D01*
X116501124Y-55951316D01*
X116430561Y-55980544D01*
X116426657Y-55983540D01*
X116426653Y-55983542D01*
X116318803Y-56066298D01*
X116314896Y-56069296D01*
X116311898Y-56073203D01*
X116229142Y-56181053D01*
X116229140Y-56181057D01*
X116226144Y-56184961D01*
X116170352Y-56319655D01*
X116169710Y-56324533D01*
X116169709Y-56324536D01*
X116151965Y-56459316D01*
X116151322Y-56464200D01*
X116151965Y-56469084D01*
X116168045Y-56591220D01*
X116170352Y-56608745D01*
X116172236Y-56613292D01*
X116172236Y-56613294D01*
X116185737Y-56645888D01*
X116226144Y-56743439D01*
X116229140Y-56747343D01*
X116229142Y-56747347D01*
X116303652Y-56844450D01*
X116314896Y-56859104D01*
X116318803Y-56862102D01*
X116426653Y-56944858D01*
X116426657Y-56944860D01*
X116430561Y-56947856D01*
X116490219Y-56972567D01*
X116560701Y-57001762D01*
X116560703Y-57001763D01*
X116565255Y-57003648D01*
X116570139Y-57004291D01*
X116570143Y-57004292D01*
X116570792Y-57004377D01*
X116586915Y-57008349D01*
X116604495Y-57014809D01*
X116605551Y-57015197D01*
X116608805Y-57016479D01*
X116669993Y-57042250D01*
X116674217Y-57044185D01*
X116693090Y-57053546D01*
X116693092Y-57053546D01*
X116723504Y-57068628D01*
X116728316Y-57071237D01*
X116770504Y-57096155D01*
X116775271Y-57099220D01*
X116815502Y-57127293D01*
X116819577Y-57130347D01*
X116862666Y-57164976D01*
X116865628Y-57167485D01*
X116915018Y-57211592D01*
X116916863Y-57213297D01*
X116972973Y-57266923D01*
X116974190Y-57268113D01*
X117322274Y-57616197D01*
X117344014Y-57662817D01*
X117344300Y-57669371D01*
X117344300Y-58073266D01*
X117326707Y-58121604D01*
X117282158Y-58147324D01*
X117231500Y-58138391D01*
X117198658Y-58099252D01*
X117198448Y-58097655D01*
X117196638Y-58093285D01*
X117196636Y-58093279D01*
X117144540Y-57967510D01*
X117142656Y-57962961D01*
X117139660Y-57959057D01*
X117139658Y-57959053D01*
X117056902Y-57851203D01*
X117053904Y-57847296D01*
X116963113Y-57777630D01*
X116942147Y-57761542D01*
X116942143Y-57761540D01*
X116938239Y-57758544D01*
X116833798Y-57715283D01*
X116808094Y-57704636D01*
X116808092Y-57704636D01*
X116803545Y-57702752D01*
X116798667Y-57702110D01*
X116798664Y-57702109D01*
X116663884Y-57684365D01*
X116659000Y-57683722D01*
X116654116Y-57684365D01*
X116519336Y-57702109D01*
X116519333Y-57702110D01*
X116514455Y-57702752D01*
X116509908Y-57704636D01*
X116509906Y-57704636D01*
X116484202Y-57715283D01*
X116379761Y-57758544D01*
X116375857Y-57761540D01*
X116375853Y-57761542D01*
X116354887Y-57777630D01*
X116264096Y-57847296D01*
X116261098Y-57851203D01*
X116178342Y-57959053D01*
X116178340Y-57959057D01*
X116175344Y-57962961D01*
X116119552Y-58097655D01*
X116118910Y-58102533D01*
X116118909Y-58102536D01*
X116101165Y-58237316D01*
X116100522Y-58242200D01*
X116101165Y-58247084D01*
X116115013Y-58352268D01*
X116115398Y-58355860D01*
X116117344Y-58379293D01*
X116116632Y-58397553D01*
X116115080Y-58407120D01*
X116110384Y-58423712D01*
X116104184Y-58438764D01*
X116098545Y-58449778D01*
X116078691Y-58481764D01*
X116075317Y-58486744D01*
X116037856Y-58537530D01*
X116037742Y-58537685D01*
X116037711Y-58537721D01*
X116037713Y-58537723D01*
X116036274Y-58539679D01*
X116035703Y-58540059D01*
X116030318Y-58546329D01*
X116030313Y-58546334D01*
X116028701Y-58544722D01*
X115993457Y-58568189D01*
X115942332Y-58562508D01*
X115906820Y-58525293D01*
X115900500Y-58495116D01*
X115900500Y-57023930D01*
X115902185Y-57008102D01*
X115904036Y-56999502D01*
X115904036Y-56999499D01*
X115905345Y-56993420D01*
X115901021Y-56956886D01*
X115900500Y-56948047D01*
X115900500Y-56943508D01*
X115897115Y-56923173D01*
X115896617Y-56919672D01*
X115891147Y-56873460D01*
X115890417Y-56867292D01*
X115887729Y-56861693D01*
X115886984Y-56859130D01*
X115886918Y-56858843D01*
X115886802Y-56858558D01*
X115885942Y-56856047D01*
X115884922Y-56849917D01*
X115859877Y-56803501D01*
X115858268Y-56800343D01*
X115838382Y-56758929D01*
X115835440Y-56752802D01*
X115831830Y-56748508D01*
X115831053Y-56747731D01*
X115827540Y-56743570D01*
X115824612Y-56738143D01*
X115814250Y-56728564D01*
X115784064Y-56700661D01*
X115781936Y-56698614D01*
X114414905Y-55331582D01*
X114413717Y-55330367D01*
X114404766Y-55321002D01*
X114404759Y-55320995D01*
X114360099Y-55274267D01*
X114358373Y-55272398D01*
X114314302Y-55223047D01*
X114311795Y-55220089D01*
X114277150Y-55176980D01*
X114274107Y-55172919D01*
X114246021Y-55132671D01*
X114242947Y-55127890D01*
X114218042Y-55085725D01*
X114215429Y-55080905D01*
X114190978Y-55031601D01*
X114189046Y-55027383D01*
X114181180Y-55008708D01*
X114163274Y-54966196D01*
X114162003Y-54962970D01*
X114155147Y-54944309D01*
X114151178Y-54928194D01*
X114151093Y-54927548D01*
X114151091Y-54927542D01*
X114150448Y-54922655D01*
X114094656Y-54787961D01*
X114091660Y-54784057D01*
X114091658Y-54784053D01*
X114008902Y-54676203D01*
X114005904Y-54672296D01*
X113996346Y-54664962D01*
X113894147Y-54586542D01*
X113894143Y-54586540D01*
X113890239Y-54583544D01*
X113795153Y-54544158D01*
X113760094Y-54529636D01*
X113760092Y-54529636D01*
X113755545Y-54527752D01*
X113750667Y-54527110D01*
X113750664Y-54527109D01*
X113615884Y-54509365D01*
X113611000Y-54508722D01*
X113606116Y-54509365D01*
X113471336Y-54527109D01*
X113471333Y-54527110D01*
X113466455Y-54527752D01*
X113461908Y-54529636D01*
X113461906Y-54529636D01*
X113426847Y-54544158D01*
X113331761Y-54583544D01*
X113327857Y-54586540D01*
X113327853Y-54586542D01*
X113225654Y-54664962D01*
X113216096Y-54672296D01*
X113213098Y-54676203D01*
X113130342Y-54784053D01*
X113130340Y-54784057D01*
X113127344Y-54787961D01*
X113071552Y-54922655D01*
X113070910Y-54927533D01*
X113070909Y-54927536D01*
X113059706Y-55012632D01*
X113052522Y-55067200D01*
X113053165Y-55072084D01*
X113066977Y-55176993D01*
X113071552Y-55211745D01*
X113073436Y-55216292D01*
X113073436Y-55216294D01*
X113076233Y-55223047D01*
X113127344Y-55346439D01*
X113130340Y-55350343D01*
X113130342Y-55350347D01*
X113182742Y-55418636D01*
X113216096Y-55462104D01*
X113220003Y-55465102D01*
X113327853Y-55547858D01*
X113327857Y-55547860D01*
X113331761Y-55550856D01*
X113366398Y-55565203D01*
X113461901Y-55604762D01*
X113461903Y-55604763D01*
X113466455Y-55606648D01*
X113471339Y-55607291D01*
X113471343Y-55607292D01*
X113471992Y-55607377D01*
X113488115Y-55611349D01*
X113505695Y-55617809D01*
X113505706Y-55617813D01*
X113506199Y-55617994D01*
X113506751Y-55618197D01*
X113510005Y-55619479D01*
X113571193Y-55645250D01*
X113575417Y-55647185D01*
X113594290Y-55656546D01*
X113594292Y-55656546D01*
X113624704Y-55671628D01*
X113629516Y-55674237D01*
X113671704Y-55699155D01*
X113676471Y-55702220D01*
X113716702Y-55730293D01*
X113720777Y-55733347D01*
X113763866Y-55767976D01*
X113766848Y-55770503D01*
X113816211Y-55814586D01*
X113818073Y-55816305D01*
X113874201Y-55869948D01*
X113875374Y-55871096D01*
X115115474Y-57111197D01*
X115137214Y-57157817D01*
X115137500Y-57164371D01*
X115137500Y-57777630D01*
X115119907Y-57825968D01*
X115075358Y-57851688D01*
X115024700Y-57842755D01*
X115009126Y-57830804D01*
X114231869Y-57053546D01*
X113398904Y-56220581D01*
X113397715Y-56219366D01*
X113388765Y-56210002D01*
X113388759Y-56209995D01*
X113344099Y-56163267D01*
X113342373Y-56161398D01*
X113298302Y-56112047D01*
X113295795Y-56109089D01*
X113261150Y-56065980D01*
X113258107Y-56061919D01*
X113230021Y-56021671D01*
X113226947Y-56016890D01*
X113202042Y-55974725D01*
X113199429Y-55969905D01*
X113174978Y-55920601D01*
X113173046Y-55916383D01*
X113168826Y-55906365D01*
X113147274Y-55855196D01*
X113146003Y-55851970D01*
X113139147Y-55833309D01*
X113135178Y-55817194D01*
X113135093Y-55816548D01*
X113135091Y-55816542D01*
X113134448Y-55811655D01*
X113078656Y-55676961D01*
X113075660Y-55673057D01*
X113075658Y-55673053D01*
X112992902Y-55565203D01*
X112989904Y-55561296D01*
X112985997Y-55558298D01*
X112878147Y-55475542D01*
X112878143Y-55475540D01*
X112874239Y-55472544D01*
X112806892Y-55444648D01*
X112744094Y-55418636D01*
X112744092Y-55418636D01*
X112739545Y-55416752D01*
X112734667Y-55416110D01*
X112734664Y-55416109D01*
X112599884Y-55398365D01*
X112595000Y-55397722D01*
X112590116Y-55398365D01*
X112455336Y-55416109D01*
X112455333Y-55416110D01*
X112450455Y-55416752D01*
X112445908Y-55418636D01*
X112445906Y-55418636D01*
X112383108Y-55444648D01*
X112315761Y-55472544D01*
X112311857Y-55475540D01*
X112311853Y-55475542D01*
X112204003Y-55558298D01*
X112200096Y-55561296D01*
X112197098Y-55565203D01*
X112114342Y-55673053D01*
X112114340Y-55673057D01*
X112111344Y-55676961D01*
X112055552Y-55811655D01*
X112054910Y-55816533D01*
X112054909Y-55816536D01*
X112053733Y-55825472D01*
X112036522Y-55956200D01*
X112037165Y-55961084D01*
X112051412Y-56069296D01*
X112055552Y-56100745D01*
X112057436Y-56105292D01*
X112057436Y-56105294D01*
X112060233Y-56112047D01*
X112111344Y-56235439D01*
X112114340Y-56239343D01*
X112114342Y-56239347D01*
X112192580Y-56341309D01*
X112200096Y-56351104D01*
X112204003Y-56354102D01*
X112311853Y-56436858D01*
X112311857Y-56436860D01*
X112315761Y-56439856D01*
X112362742Y-56459316D01*
X112445901Y-56493762D01*
X112445903Y-56493763D01*
X112450455Y-56495648D01*
X112455339Y-56496291D01*
X112455343Y-56496292D01*
X112455992Y-56496377D01*
X112472115Y-56500349D01*
X112489695Y-56506809D01*
X112490751Y-56507197D01*
X112494005Y-56508479D01*
X112555193Y-56534250D01*
X112559417Y-56536185D01*
X112578290Y-56545546D01*
X112578292Y-56545546D01*
X112608704Y-56560628D01*
X112613516Y-56563237D01*
X112655704Y-56588155D01*
X112660471Y-56591220D01*
X112700702Y-56619293D01*
X112704777Y-56622347D01*
X112747866Y-56656976D01*
X112750828Y-56659485D01*
X112800219Y-56703592D01*
X112802064Y-56705297D01*
X112858180Y-56758929D01*
X112859396Y-56760119D01*
X114415474Y-58316197D01*
X114437214Y-58362817D01*
X114437500Y-58369371D01*
X114437500Y-58754029D01*
X114419907Y-58802367D01*
X114375358Y-58828087D01*
X114324700Y-58819154D01*
X114309126Y-58807203D01*
X109893700Y-54391777D01*
X109892511Y-54390562D01*
X109883565Y-54381202D01*
X109883559Y-54381195D01*
X109838899Y-54334467D01*
X109837173Y-54332598D01*
X109793102Y-54283247D01*
X109790595Y-54280289D01*
X109755950Y-54237180D01*
X109752907Y-54233119D01*
X109724821Y-54192871D01*
X109721747Y-54188090D01*
X109696842Y-54145925D01*
X109694229Y-54141105D01*
X109669778Y-54091801D01*
X109667846Y-54087583D01*
X109666723Y-54084916D01*
X109642074Y-54026396D01*
X109640803Y-54023170D01*
X109633947Y-54004509D01*
X109629978Y-53988394D01*
X109629893Y-53987748D01*
X109629891Y-53987742D01*
X109629248Y-53982855D01*
X109573456Y-53848161D01*
X109570460Y-53844257D01*
X109570458Y-53844253D01*
X109487702Y-53736403D01*
X109484704Y-53732496D01*
X109480797Y-53729498D01*
X109372947Y-53646742D01*
X109372943Y-53646740D01*
X109369039Y-53643744D01*
X109301692Y-53615848D01*
X109238894Y-53589836D01*
X109238892Y-53589836D01*
X109234345Y-53587952D01*
X109229467Y-53587310D01*
X109229464Y-53587309D01*
X109094684Y-53569565D01*
X109089800Y-53568922D01*
X109084916Y-53569565D01*
X108950136Y-53587309D01*
X108950133Y-53587310D01*
X108945255Y-53587952D01*
X108940708Y-53589836D01*
X108940706Y-53589836D01*
X108877908Y-53615848D01*
X108810561Y-53643744D01*
X108806657Y-53646740D01*
X108806653Y-53646742D01*
X108698803Y-53729498D01*
X108694896Y-53732496D01*
X108691898Y-53736403D01*
X108609142Y-53844253D01*
X108609140Y-53844257D01*
X108606144Y-53848161D01*
X108550352Y-53982855D01*
X108549710Y-53987733D01*
X108549709Y-53987736D01*
X108548533Y-53996672D01*
X108531322Y-54127400D01*
X104177653Y-54127400D01*
X104177798Y-54117000D01*
X104177593Y-54114907D01*
X104157993Y-53915013D01*
X104157992Y-53915010D01*
X104157633Y-53911345D01*
X104097907Y-53713523D01*
X104000895Y-53531070D01*
X103870292Y-53370935D01*
X103854909Y-53358209D01*
X103713905Y-53241560D01*
X103713901Y-53241557D01*
X103711072Y-53239217D01*
X103529301Y-53140933D01*
X103481168Y-53126034D01*
X103335414Y-53080915D01*
X103335410Y-53080914D01*
X103331901Y-53079828D01*
X103189612Y-53064873D01*
X103130047Y-53058612D01*
X103130045Y-53058612D01*
X103126392Y-53058228D01*
X103023497Y-53067592D01*
X102924259Y-53076623D01*
X102924258Y-53076623D01*
X102920601Y-53076956D01*
X102917076Y-53077993D01*
X102917073Y-53077994D01*
X102725897Y-53134261D01*
X102722367Y-53135300D01*
X102539241Y-53231036D01*
X102529066Y-53239217D01*
X102381069Y-53358209D01*
X102381065Y-53358213D01*
X102378198Y-53360518D01*
X102375830Y-53363340D01*
X102375829Y-53363341D01*
X102247735Y-53515996D01*
X102247732Y-53516000D01*
X102245371Y-53518814D01*
X102243600Y-53522036D01*
X102243599Y-53522037D01*
X102207362Y-53587952D01*
X102145821Y-53699895D01*
X102083339Y-53896864D01*
X102060305Y-54102217D01*
X99322200Y-54102217D01*
X99322200Y-51562217D01*
X102060305Y-51562217D01*
X102060613Y-51565885D01*
X102060613Y-51565888D01*
X102063852Y-51604459D01*
X102077596Y-51768133D01*
X102134555Y-51966770D01*
X102229010Y-52150560D01*
X102357364Y-52312503D01*
X102514730Y-52446431D01*
X102517941Y-52448225D01*
X102517943Y-52448227D01*
X102691900Y-52545449D01*
X102691905Y-52545451D01*
X102695111Y-52547243D01*
X102891639Y-52611099D01*
X103004982Y-52624614D01*
X103093168Y-52635130D01*
X103093170Y-52635130D01*
X103096826Y-52635566D01*
X103302858Y-52619712D01*
X103501887Y-52564143D01*
X103686332Y-52470973D01*
X103849168Y-52343752D01*
X103876141Y-52312503D01*
X103981786Y-52190112D01*
X103981789Y-52190108D01*
X103984191Y-52187325D01*
X104086260Y-52007652D01*
X104151486Y-51811575D01*
X104177385Y-51606563D01*
X104177798Y-51577000D01*
X104177593Y-51574907D01*
X104157993Y-51375013D01*
X104157992Y-51375010D01*
X104157633Y-51371345D01*
X104097907Y-51173523D01*
X104000895Y-50991070D01*
X103870292Y-50830935D01*
X103854909Y-50818209D01*
X103713905Y-50701560D01*
X103713901Y-50701557D01*
X103711072Y-50699217D01*
X103529301Y-50600933D01*
X103481168Y-50586034D01*
X103335414Y-50540915D01*
X103335410Y-50540914D01*
X103331901Y-50539828D01*
X103189612Y-50524873D01*
X103130047Y-50518612D01*
X103130045Y-50518612D01*
X103126392Y-50518228D01*
X103023496Y-50527592D01*
X102924259Y-50536623D01*
X102924258Y-50536623D01*
X102920601Y-50536956D01*
X102917076Y-50537993D01*
X102917073Y-50537994D01*
X102725897Y-50594261D01*
X102722367Y-50595300D01*
X102539241Y-50691036D01*
X102529066Y-50699217D01*
X102381069Y-50818209D01*
X102381065Y-50818213D01*
X102378198Y-50820518D01*
X102375830Y-50823340D01*
X102375829Y-50823341D01*
X102247735Y-50975996D01*
X102247732Y-50976000D01*
X102245371Y-50978814D01*
X102145821Y-51159895D01*
X102083339Y-51356864D01*
X102060305Y-51562217D01*
X99322200Y-51562217D01*
X99322200Y-46529824D01*
X99324113Y-46512971D01*
X99325528Y-46506819D01*
X99325528Y-46506818D01*
X99327426Y-46498564D01*
X99325463Y-46489888D01*
X99325100Y-46485638D01*
X99711814Y-46485638D01*
X99720580Y-46820387D01*
X99767763Y-47151910D01*
X99852737Y-47475813D01*
X99974377Y-47787803D01*
X100131070Y-48083744D01*
X100132292Y-48085522D01*
X100132295Y-48085527D01*
X100319517Y-48357937D01*
X100319523Y-48357945D01*
X100320739Y-48359714D01*
X100540870Y-48612055D01*
X100542469Y-48613510D01*
X100745872Y-48798593D01*
X100788545Y-48837423D01*
X101060483Y-49032830D01*
X101353078Y-49195686D01*
X101662452Y-49323833D01*
X101984504Y-49415572D01*
X101986623Y-49415919D01*
X101986632Y-49415921D01*
X102179662Y-49447530D01*
X102314966Y-49469687D01*
X102317115Y-49469788D01*
X102317121Y-49469789D01*
X102560068Y-49481246D01*
X102649458Y-49485462D01*
X102651614Y-49485315D01*
X102651618Y-49485315D01*
X102927147Y-49466531D01*
X102983547Y-49462686D01*
X102985673Y-49462292D01*
X103310673Y-49402057D01*
X103310677Y-49402056D01*
X103312803Y-49401662D01*
X103568484Y-49323004D01*
X103630807Y-49303831D01*
X103630810Y-49303830D01*
X103632864Y-49303198D01*
X103880177Y-49194635D01*
X103937507Y-49169469D01*
X103937511Y-49169467D01*
X103939486Y-49168600D01*
X104228606Y-48999652D01*
X104263369Y-48973551D01*
X104494652Y-48799900D01*
X104494658Y-48799895D01*
X104496392Y-48798593D01*
X104739293Y-48568088D01*
X104954092Y-48311192D01*
X105137940Y-48031310D01*
X105288400Y-47732153D01*
X105403480Y-47417684D01*
X105414511Y-47371735D01*
X105481145Y-47094186D01*
X105481147Y-47094177D01*
X105481652Y-47092072D01*
X105521882Y-46759634D01*
X105527621Y-46577000D01*
X105522353Y-46485638D01*
X122711814Y-46485638D01*
X122720580Y-46820387D01*
X122767763Y-47151910D01*
X122852737Y-47475813D01*
X122974377Y-47787803D01*
X123131070Y-48083744D01*
X123132292Y-48085522D01*
X123132295Y-48085527D01*
X123319517Y-48357937D01*
X123319523Y-48357945D01*
X123320739Y-48359714D01*
X123540870Y-48612055D01*
X123542469Y-48613510D01*
X123745872Y-48798593D01*
X123788545Y-48837423D01*
X124060483Y-49032830D01*
X124353078Y-49195686D01*
X124662452Y-49323833D01*
X124984504Y-49415572D01*
X124986623Y-49415919D01*
X124986632Y-49415921D01*
X125179662Y-49447530D01*
X125314966Y-49469687D01*
X125317115Y-49469788D01*
X125317121Y-49469789D01*
X125560068Y-49481246D01*
X125649458Y-49485462D01*
X125651614Y-49485315D01*
X125651618Y-49485315D01*
X125927147Y-49466531D01*
X125983547Y-49462686D01*
X125985673Y-49462292D01*
X126310673Y-49402057D01*
X126310677Y-49402056D01*
X126312803Y-49401662D01*
X126568484Y-49323004D01*
X126630807Y-49303831D01*
X126630810Y-49303830D01*
X126632864Y-49303198D01*
X126880177Y-49194635D01*
X126937507Y-49169469D01*
X126937511Y-49169467D01*
X126939486Y-49168600D01*
X127228606Y-48999652D01*
X127263369Y-48973551D01*
X127494652Y-48799900D01*
X127494658Y-48799895D01*
X127496392Y-48798593D01*
X127739293Y-48568088D01*
X127954092Y-48311192D01*
X128137940Y-48031310D01*
X128288400Y-47732153D01*
X128403480Y-47417684D01*
X128414511Y-47371735D01*
X128481145Y-47094186D01*
X128481147Y-47094177D01*
X128481652Y-47092072D01*
X128521882Y-46759634D01*
X128527621Y-46577000D01*
X128508345Y-46242691D01*
X128493481Y-46157523D01*
X128451145Y-45914950D01*
X128451144Y-45914947D01*
X128450772Y-45912814D01*
X128355666Y-45591740D01*
X128224286Y-45283725D01*
X128058375Y-44992851D01*
X127955872Y-44853310D01*
X127861414Y-44724721D01*
X127861410Y-44724716D01*
X127860131Y-44722975D01*
X127709047Y-44560389D01*
X127633663Y-44479266D01*
X127633657Y-44479260D01*
X127632182Y-44477673D01*
X127377550Y-44260196D01*
X127099609Y-44073428D01*
X126950826Y-43996635D01*
X126803966Y-43920834D01*
X126803958Y-43920831D01*
X126802043Y-43919842D01*
X126687298Y-43876484D01*
X126490821Y-43802242D01*
X126490818Y-43802241D01*
X126488796Y-43801477D01*
X126164021Y-43719899D01*
X126161873Y-43719616D01*
X126161872Y-43719616D01*
X126043052Y-43703973D01*
X125832022Y-43676190D01*
X125829864Y-43676156D01*
X125829863Y-43676156D01*
X125499365Y-43670964D01*
X125497200Y-43670930D01*
X125495050Y-43671145D01*
X125495041Y-43671145D01*
X125166154Y-43703973D01*
X125166152Y-43703973D01*
X125163991Y-43704189D01*
X125161878Y-43704650D01*
X125161870Y-43704651D01*
X124970134Y-43746457D01*
X124836814Y-43775525D01*
X124520004Y-43883993D01*
X124390055Y-43945976D01*
X124219718Y-44027222D01*
X124219710Y-44027226D01*
X124217761Y-44028156D01*
X123934091Y-44206102D01*
X123932399Y-44207458D01*
X123932397Y-44207459D01*
X123822791Y-44295270D01*
X123672753Y-44415473D01*
X123437211Y-44653494D01*
X123435884Y-44655186D01*
X123435879Y-44655192D01*
X123231919Y-44915313D01*
X123230588Y-44917011D01*
X123229461Y-44918849D01*
X123229461Y-44918850D01*
X123083357Y-45157270D01*
X123055622Y-45202529D01*
X123054709Y-45204496D01*
X122925324Y-45483234D01*
X122914633Y-45506265D01*
X122809488Y-45824193D01*
X122809049Y-45826313D01*
X122742080Y-46149696D01*
X122741582Y-46152100D01*
X122711814Y-46485638D01*
X105522353Y-46485638D01*
X105508345Y-46242691D01*
X105493481Y-46157523D01*
X105451145Y-45914950D01*
X105451144Y-45914947D01*
X105450772Y-45912814D01*
X105355666Y-45591740D01*
X105224286Y-45283725D01*
X105058375Y-44992851D01*
X104955872Y-44853310D01*
X104861414Y-44724721D01*
X104861410Y-44724716D01*
X104860131Y-44722975D01*
X104709047Y-44560389D01*
X104633663Y-44479266D01*
X104633657Y-44479260D01*
X104632182Y-44477673D01*
X104377550Y-44260196D01*
X104099609Y-44073428D01*
X103950826Y-43996635D01*
X103803966Y-43920834D01*
X103803958Y-43920831D01*
X103802043Y-43919842D01*
X103687298Y-43876484D01*
X103490821Y-43802242D01*
X103490818Y-43802241D01*
X103488796Y-43801477D01*
X103164021Y-43719899D01*
X103161873Y-43719616D01*
X103161872Y-43719616D01*
X103043052Y-43703973D01*
X102832022Y-43676190D01*
X102829864Y-43676156D01*
X102829863Y-43676156D01*
X102499365Y-43670964D01*
X102497200Y-43670930D01*
X102495050Y-43671145D01*
X102495041Y-43671145D01*
X102166154Y-43703973D01*
X102166152Y-43703973D01*
X102163991Y-43704189D01*
X102161878Y-43704650D01*
X102161870Y-43704651D01*
X101970134Y-43746457D01*
X101836814Y-43775525D01*
X101520004Y-43883993D01*
X101390055Y-43945976D01*
X101219718Y-44027222D01*
X101219710Y-44027226D01*
X101217761Y-44028156D01*
X100934091Y-44206102D01*
X100932399Y-44207458D01*
X100932397Y-44207459D01*
X100822791Y-44295270D01*
X100672753Y-44415473D01*
X100437211Y-44653494D01*
X100435884Y-44655186D01*
X100435879Y-44655192D01*
X100231919Y-44915313D01*
X100230588Y-44917011D01*
X100229461Y-44918849D01*
X100229461Y-44918850D01*
X100083357Y-45157270D01*
X100055622Y-45202529D01*
X100054709Y-45204496D01*
X99925324Y-45483234D01*
X99914633Y-45506265D01*
X99809488Y-45824193D01*
X99809049Y-45826313D01*
X99742080Y-46149696D01*
X99741582Y-46152100D01*
X99711814Y-46485638D01*
X99325100Y-46485638D01*
X99323711Y-46469357D01*
X99323737Y-46468874D01*
X99340054Y-46157523D01*
X99340877Y-46149695D01*
X99393626Y-45816654D01*
X99395262Y-45808955D01*
X99482539Y-45483234D01*
X99484972Y-45475748D01*
X99605809Y-45160954D01*
X99609010Y-45153763D01*
X99730506Y-44915313D01*
X99762103Y-44853302D01*
X99766029Y-44846501D01*
X99949687Y-44563692D01*
X99954314Y-44557324D01*
X100166522Y-44295270D01*
X100171789Y-44289421D01*
X100410221Y-44050989D01*
X100416070Y-44045722D01*
X100678124Y-43833514D01*
X100684492Y-43828887D01*
X100765591Y-43776221D01*
X100967301Y-43645229D01*
X100974102Y-43641303D01*
X101274563Y-43488210D01*
X101281754Y-43485009D01*
X101596548Y-43364172D01*
X101604034Y-43361739D01*
X101929755Y-43274462D01*
X101937454Y-43272826D01*
X102270496Y-43220077D01*
X102278324Y-43219254D01*
X102375752Y-43214148D01*
X102589677Y-43202937D01*
X102610251Y-43204728D01*
X102610382Y-43204728D01*
X102618636Y-43206626D01*
X102633537Y-43203254D01*
X102650135Y-43201400D01*
X125587376Y-43201400D01*
X125604229Y-43203313D01*
G37*
%TD.AperFunction*%
%TD*%
%TA.AperFunction,Conductor*%
%TO.N,/~{RES}*%
G36*
X112917620Y-55841183D02*
G01*
X112925824Y-55844771D01*
X112928373Y-55848846D01*
X112957502Y-55928122D01*
X112989117Y-56003183D01*
X113021912Y-56069312D01*
X113057341Y-56129297D01*
X113096857Y-56185927D01*
X113141914Y-56241991D01*
X113193965Y-56300278D01*
X113194043Y-56300360D01*
X113194048Y-56300365D01*
X113241861Y-56350392D01*
X113254463Y-56363578D01*
X113254498Y-56363614D01*
X113254519Y-56363635D01*
X113324821Y-56434637D01*
X113324862Y-56434678D01*
X113398337Y-56508096D01*
X113401767Y-56516367D01*
X113398340Y-56524645D01*
X113163445Y-56759540D01*
X113155172Y-56762967D01*
X113146896Y-56759537D01*
X113073478Y-56686062D01*
X113002451Y-56615735D01*
X113002435Y-56615719D01*
X113002378Y-56615663D01*
X112939078Y-56555165D01*
X112880791Y-56503114D01*
X112824727Y-56458057D01*
X112824564Y-56457943D01*
X112824557Y-56457938D01*
X112768280Y-56418669D01*
X112768097Y-56418541D01*
X112708112Y-56383112D01*
X112668572Y-56363503D01*
X112642135Y-56350392D01*
X112642125Y-56350388D01*
X112641983Y-56350317D01*
X112566922Y-56318702D01*
X112559795Y-56316083D01*
X112487646Y-56289573D01*
X112481062Y-56283503D01*
X112479983Y-56278820D01*
X112471495Y-55844622D01*
X112474760Y-55836283D01*
X112483422Y-55832695D01*
X112917620Y-55841183D01*
G37*
%TD.AperFunction*%
%TD*%
%TA.AperFunction,Conductor*%
%TO.N,Net-(CN1-Pad11)*%
G36*
X111493436Y-62694185D02*
G01*
X111496863Y-62702394D01*
X111497545Y-62829442D01*
X111498811Y-62928458D01*
X111499073Y-62948990D01*
X111499073Y-62949000D01*
X111500323Y-63053239D01*
X111500324Y-63053390D01*
X111500237Y-63146152D01*
X111500232Y-63146481D01*
X111497757Y-63231607D01*
X111497731Y-63232114D01*
X111491826Y-63313513D01*
X111491764Y-63314142D01*
X111481375Y-63395847D01*
X111481272Y-63396504D01*
X111465339Y-63482429D01*
X111465213Y-63483023D01*
X111442644Y-63577193D01*
X111442518Y-63577671D01*
X111414467Y-63676142D01*
X111408905Y-63683160D01*
X111403908Y-63684616D01*
X110970691Y-63710316D01*
X110962229Y-63707386D01*
X110958300Y-63698873D01*
X110949536Y-63264154D01*
X110952796Y-63255813D01*
X110956100Y-63253405D01*
X111008092Y-63228016D01*
X111008095Y-63228014D01*
X111008601Y-63227767D01*
X111054422Y-63193107D01*
X111088536Y-63152551D01*
X111112628Y-63105947D01*
X111128387Y-63053141D01*
X111137497Y-62993982D01*
X111141647Y-62928317D01*
X111142523Y-62855993D01*
X111141811Y-62776857D01*
X111141284Y-62702541D01*
X111144652Y-62694244D01*
X111152984Y-62690758D01*
X111485163Y-62690758D01*
X111493436Y-62694185D01*
G37*
%TD.AperFunction*%
%TD*%
%TA.AperFunction,Conductor*%
%TO.N,VCC*%
G36*
X110105709Y-66777155D02*
G01*
X110106086Y-66878422D01*
X110107908Y-66967032D01*
X110112148Y-67046018D01*
X110119783Y-67118413D01*
X110131787Y-67187248D01*
X110137779Y-67210842D01*
X110137779Y-67210843D01*
X110149135Y-67255556D01*
X110172803Y-67326369D01*
X110203766Y-67402719D01*
X110203817Y-67402829D01*
X110203822Y-67402841D01*
X110239648Y-67480383D01*
X110240007Y-67489330D01*
X110237460Y-67493400D01*
X109936433Y-67806431D01*
X109928229Y-67810019D01*
X109919567Y-67806431D01*
X109618540Y-67493400D01*
X109615275Y-67485061D01*
X109616352Y-67480383D01*
X109652177Y-67402841D01*
X109652182Y-67402829D01*
X109652233Y-67402719D01*
X109683196Y-67326369D01*
X109706864Y-67255556D01*
X109724212Y-67187248D01*
X109736216Y-67118413D01*
X109743851Y-67046018D01*
X109748091Y-66967032D01*
X109749913Y-66878422D01*
X109750290Y-66777155D01*
X109750200Y-66660200D01*
X110105800Y-66660200D01*
X110105709Y-66777155D01*
G37*
%TD.AperFunction*%
%TD*%
%TA.AperFunction,Conductor*%
%TO.N,VCC*%
G36*
X112193337Y-60524927D02*
G01*
X112196764Y-60533236D01*
X112196591Y-60590079D01*
X112196591Y-60590135D01*
X112196069Y-60656515D01*
X112196055Y-60656515D01*
X112196069Y-60656549D01*
X112195385Y-60719622D01*
X112194695Y-60778440D01*
X112194151Y-60831951D01*
X112193907Y-60879140D01*
X112194116Y-60918988D01*
X112194932Y-60950479D01*
X112196509Y-60972596D01*
X112196593Y-60972991D01*
X112197711Y-60978255D01*
X112196078Y-60987060D01*
X112194701Y-60988793D01*
X112019000Y-61171500D01*
X111843300Y-60988794D01*
X111840035Y-60980456D01*
X111840288Y-60978255D01*
X111841490Y-60972596D01*
X111843067Y-60950479D01*
X111843883Y-60918988D01*
X111844092Y-60879140D01*
X111843848Y-60831951D01*
X111843304Y-60778440D01*
X111842614Y-60719622D01*
X111841930Y-60656549D01*
X111841944Y-60656515D01*
X111841930Y-60656515D01*
X111841408Y-60590135D01*
X111841236Y-60533235D01*
X111844638Y-60524952D01*
X111852936Y-60521500D01*
X112185064Y-60521500D01*
X112193337Y-60524927D01*
G37*
%TD.AperFunction*%
%TD*%
M02*
