%TF.GenerationSoftware,KiCad,Pcbnew,(6.0.1)*%
%TF.CreationDate,2022-02-20T00:37:46+08:00*%
%TF.ProjectId,PCB_TFT_RF096HQ13,5043425f-5446-4545-9f52-463039364851,V0.9*%
%TF.SameCoordinates,Original*%
%TF.FileFunction,Soldermask,Bot*%
%TF.FilePolarity,Negative*%
%FSLAX46Y46*%
G04 Gerber Fmt 4.6, Leading zero omitted, Abs format (unit mm)*
G04 Created by KiCad (PCBNEW (6.0.1)) date 2022-02-20 00:37:46*
%MOMM*%
%LPD*%
G01*
G04 APERTURE LIST*
G04 Aperture macros list*
%AMRoundRect*
0 Rectangle with rounded corners*
0 $1 Rounding radius*
0 $2 $3 $4 $5 $6 $7 $8 $9 X,Y pos of 4 corners*
0 Add a 4 corners polygon primitive as box body*
4,1,4,$2,$3,$4,$5,$6,$7,$8,$9,$2,$3,0*
0 Add four circle primitives for the rounded corners*
1,1,$1+$1,$2,$3*
1,1,$1+$1,$4,$5*
1,1,$1+$1,$6,$7*
1,1,$1+$1,$8,$9*
0 Add four rect primitives between the rounded corners*
20,1,$1+$1,$2,$3,$4,$5,0*
20,1,$1+$1,$4,$5,$6,$7,0*
20,1,$1+$1,$6,$7,$8,$9,0*
20,1,$1+$1,$8,$9,$2,$3,0*%
G04 Aperture macros list end*
%ADD10C,0.800000*%
%ADD11C,5.400000*%
%ADD12RoundRect,0.225000X0.225000X0.250000X-0.225000X0.250000X-0.225000X-0.250000X0.225000X-0.250000X0*%
%ADD13RoundRect,0.200000X-0.275000X0.200000X-0.275000X-0.200000X0.275000X-0.200000X0.275000X0.200000X0*%
%ADD14R,1.700000X1.700000*%
%ADD15O,1.700000X1.700000*%
%ADD16RoundRect,0.150000X0.587500X0.150000X-0.587500X0.150000X-0.587500X-0.150000X0.587500X-0.150000X0*%
%ADD17RoundRect,0.250000X-0.312500X-0.625000X0.312500X-0.625000X0.312500X0.625000X-0.312500X0.625000X0*%
G04 APERTURE END LIST*
D10*
%TO.C,REF\u002A\u002A*%
X102619000Y-76602000D03*
X104050891Y-76008891D03*
X104050891Y-73145109D03*
X101187109Y-76008891D03*
D11*
X102619000Y-74577000D03*
D10*
X100594000Y-74577000D03*
X104644000Y-74577000D03*
X102619000Y-72552000D03*
X101187109Y-73145109D03*
%TD*%
%TO.C,REF\u002A\u002A*%
X125619000Y-48602000D03*
X127050891Y-48008891D03*
X127050891Y-45145109D03*
X124187109Y-48008891D03*
D11*
X125619000Y-46577000D03*
D10*
X123594000Y-46577000D03*
X127644000Y-46577000D03*
X125619000Y-44552000D03*
X124187109Y-45145109D03*
%TD*%
%TO.C,REF\u002A\u002A*%
X125619000Y-76602200D03*
X127050891Y-76009091D03*
X127050891Y-73145309D03*
X124187109Y-76009091D03*
D11*
X125619000Y-74577200D03*
D10*
X123594000Y-74577200D03*
X127644000Y-74577200D03*
X125619000Y-72552200D03*
X124187109Y-73145309D03*
%TD*%
%TO.C,REF\u002A\u002A*%
X102619000Y-48602000D03*
X104050891Y-48008891D03*
X104050891Y-45145109D03*
X101187109Y-48008891D03*
D11*
X102619000Y-46577000D03*
D10*
X100594000Y-46577000D03*
X104644000Y-46577000D03*
X102619000Y-44552000D03*
X101187109Y-45145109D03*
%TD*%
D12*
%TO.C,C1*%
X111732000Y-60782200D03*
X110182000Y-60782200D03*
%TD*%
D13*
%TO.C,R2*%
X115262000Y-60275200D03*
X115262000Y-61925200D03*
%TD*%
D14*
%TO.C,J1*%
X103119000Y-69357000D03*
D15*
X103119000Y-66817000D03*
X103119000Y-64277000D03*
X103119000Y-61737000D03*
X103119000Y-59197000D03*
X103119000Y-56657000D03*
X103119000Y-54117000D03*
X103119000Y-51577000D03*
%TD*%
D16*
%TO.C,Q1*%
X117408500Y-63548200D03*
X117408500Y-65448200D03*
X115533500Y-64498200D03*
%TD*%
D17*
%TO.C,R1*%
X110309000Y-65100200D03*
X113234000Y-65100200D03*
%TD*%
D13*
%TO.C,R3*%
X117675000Y-60274200D03*
X117675000Y-61924200D03*
%TD*%
M02*
