M48
; DRILL file {KiCad (6.0.4)} date Mon Mar 28 20:41:26 2022
; FORMAT={-:-/ absolute / metric / decimal}
; #@! TF.CreationDate,2022-03-28T20:41:26+08:00
; #@! TF.GenerationSoftware,Kicad,Pcbnew,(6.0.4)
; #@! TF.FileFunction,Plated,1,2,PTH
FMAT,2
METRIC
; #@! TA.AperFunction,Plated,PTH,ViaDrill
T1C0.300
; #@! TA.AperFunction,Plated,PTH,ViaDrill
T2C0.400
; #@! TA.AperFunction,Plated,PTH,ComponentDrill
T3C0.600
; #@! TA.AperFunction,Plated,PTH,ComponentDrill
T4C1.000
%
G90
G05
T1
X71.247Y-50.546
X71.247Y-61.214
X72.644Y-55.88
X73.152Y-52.197
X73.152Y-59.563
X75.819Y-53.467
X75.819Y-58.293
X76.073Y-50.927
X76.454Y-56.134
X76.962Y-49.53
X76.962Y-60.706
X77.343Y-53.848
X77.343Y-55.626
X78.359Y-58.039
X79.248Y-54.356
X79.756Y-50.546
X91.465Y-61.57
X91.999Y-62.205
X92.964Y-55.88
X93.317Y-60.736
X93.726Y-55.118
X93.726Y-56.642
X94.488Y-54.356
X94.488Y-55.88
X94.488Y-57.404
X95.25Y-53.594
X95.25Y-55.118
X95.25Y-56.642
X95.25Y-58.166
X96.012Y-54.356
X96.012Y-55.88
X96.012Y-57.404
X96.139Y-61.036
X96.774Y-55.118
X96.774Y-56.642
X97.536Y-55.88
X100.203Y-55.753
X100.711Y-60.706
T2
X69.596Y-54.864
X69.596Y-55.88
X69.596Y-56.896
X70.612Y-54.864
X70.612Y-55.88
X70.612Y-56.896
X76.835Y-59.563
X80.471Y-57.42
X81.661Y-55.88
X82.169Y-48.768
X83.439Y-56.134
X83.804Y-57.42
X85.471Y-50.546
X85.717Y-56.225
X86.487Y-52.832
X88.011Y-58.928
X88.392Y-57.404
X88.849Y-49.708
X88.902Y-52.64
X89.662Y-56.261
X93.406Y-62.342
X95.25Y-60.833
X99.568Y-52.07
X100.711Y-54.991
X101.092Y-49.468
X101.219Y-58.039
X101.981Y-50.927
X102.235Y-52.106
X102.599Y-59.027
X103.124Y-60.579
X103.251Y-55.753
X106.172Y-61.595
X107.221Y-61.032
X107.315Y-50.927
X107.823Y-55.372
X107.95Y-53.34
X108.141Y-54.322
X108.204Y-51.816
X109.068Y-60.274
X112.776Y-55.88
X113.792Y-56.134
X113.792Y-60.452
X114.046Y-49.149
X122.936Y-48.768
X122.936Y-55.88
X122.936Y-62.992
T4
X72.39Y-64.77
X72.395Y-46.99
X74.93Y-64.77
X74.935Y-46.99
X77.47Y-64.77
X77.475Y-46.99
X80.01Y-64.77
X80.015Y-46.99
X82.55Y-64.77
X82.555Y-46.99
X85.09Y-64.77
X85.095Y-46.99
X87.63Y-64.77
X87.635Y-46.99
X90.17Y-64.77
X90.175Y-46.99
X92.71Y-64.77
X92.715Y-46.99
X95.25Y-64.77
X95.255Y-46.99
X97.79Y-64.77
X97.795Y-46.99
X100.33Y-64.77
X100.335Y-46.99
X102.87Y-64.77
X102.875Y-46.99
X105.41Y-64.77
X105.415Y-46.99
X107.95Y-64.77
X107.955Y-46.99
X110.49Y-64.77
X110.495Y-46.99
X113.03Y-64.77
X113.035Y-46.99
X115.57Y-64.77
X115.575Y-46.99
X116.783Y-52.08
X116.783Y-54.62
X116.783Y-57.16
X116.783Y-59.7
X118.11Y-64.77
X118.115Y-46.99
X120.65Y-64.77
X120.655Y-46.99
T3
G00X69.75Y-51.56
M15
G01X70.55Y-51.56
M16
G05
G00X69.75Y-60.2
M15
G01X70.55Y-60.2
M16
G05
G00X73.77Y-51.56
M15
G01X74.87Y-51.56
M16
G05
G00X73.77Y-60.2
M15
G01X74.87Y-60.2
M16
G05
T0
M30
