%TF.GenerationSoftware,KiCad,Pcbnew,(6.0.4)*%
%TF.CreationDate,2022-03-28T20:40:59+08:00*%
%TF.ProjectId,PCB_F401CCU6_Dev,5043425f-4634-4303-9143-4355365f4465,v0.9*%
%TF.SameCoordinates,Original*%
%TF.FileFunction,Legend,Top*%
%TF.FilePolarity,Positive*%
%FSLAX46Y46*%
G04 Gerber Fmt 4.6, Leading zero omitted, Abs format (unit mm)*
G04 Created by KiCad (PCBNEW (6.0.4)) date 2022-03-28 20:40:59*
%MOMM*%
%LPD*%
G01*
G04 APERTURE LIST*
G04 Aperture macros list*
%AMRoundRect*
0 Rectangle with rounded corners*
0 $1 Rounding radius*
0 $2 $3 $4 $5 $6 $7 $8 $9 X,Y pos of 4 corners*
0 Add a 4 corners polygon primitive as box body*
4,1,4,$2,$3,$4,$5,$6,$7,$8,$9,$2,$3,0*
0 Add four circle primitives for the rounded corners*
1,1,$1+$1,$2,$3*
1,1,$1+$1,$4,$5*
1,1,$1+$1,$6,$7*
1,1,$1+$1,$8,$9*
0 Add four rect primitives between the rounded corners*
20,1,$1+$1,$2,$3,$4,$5,0*
20,1,$1+$1,$4,$5,$6,$7,0*
20,1,$1+$1,$6,$7,$8,$9,0*
20,1,$1+$1,$8,$9,$2,$3,0*%
%AMRotRect*
0 Rectangle, with rotation*
0 The origin of the aperture is its center*
0 $1 length*
0 $2 width*
0 $3 Rotation angle, in degrees counterclockwise*
0 Add horizontal line*
21,1,$1,$2,0,0,$3*%
G04 Aperture macros list end*
%ADD10C,0.127000*%
%ADD11C,0.152400*%
%ADD12C,0.150000*%
%ADD13C,0.130000*%
%ADD14C,0.120000*%
%ADD15RoundRect,0.135000X0.135000X0.185000X-0.135000X0.185000X-0.135000X-0.185000X0.135000X-0.185000X0*%
%ADD16RoundRect,0.140000X-0.021213X0.219203X-0.219203X0.021213X0.021213X-0.219203X0.219203X-0.021213X0*%
%ADD17RoundRect,0.225000X0.225000X0.250000X-0.225000X0.250000X-0.225000X-0.250000X0.225000X-0.250000X0*%
%ADD18RoundRect,0.218750X0.218750X0.256250X-0.218750X0.256250X-0.218750X-0.256250X0.218750X-0.256250X0*%
%ADD19RoundRect,0.140000X-0.170000X0.140000X-0.170000X-0.140000X0.170000X-0.140000X0.170000X0.140000X0*%
%ADD20RoundRect,0.135000X-0.135000X-0.185000X0.135000X-0.185000X0.135000X0.185000X-0.135000X0.185000X0*%
%ADD21R,1.200000X0.900000*%
%ADD22R,1.700000X1.700000*%
%ADD23O,1.700000X1.700000*%
%ADD24C,0.600000*%
%ADD25R,1.160000X0.600000*%
%ADD26R,1.160000X0.300000*%
%ADD27O,2.000000X0.900000*%
%ADD28O,1.700000X0.900000*%
%ADD29RoundRect,0.140000X0.021213X-0.219203X0.219203X-0.021213X-0.021213X0.219203X-0.219203X0.021213X0*%
%ADD30RoundRect,0.140000X0.219203X0.021213X0.021213X0.219203X-0.219203X-0.021213X-0.021213X-0.219203X0*%
%ADD31RoundRect,0.218750X0.335876X0.026517X0.026517X0.335876X-0.335876X-0.026517X-0.026517X-0.335876X0*%
%ADD32RoundRect,0.062500X0.220971X0.309359X-0.309359X-0.220971X-0.220971X-0.309359X0.309359X0.220971X0*%
%ADD33RoundRect,0.062500X-0.220971X0.309359X-0.309359X0.220971X0.220971X-0.309359X0.309359X-0.220971X0*%
%ADD34RotRect,5.600000X5.600000X225.000000*%
%ADD35R,0.600000X1.200000*%
%ADD36RoundRect,0.135000X-0.185000X0.135000X-0.185000X-0.135000X0.185000X-0.135000X0.185000X0.135000X0*%
%ADD37RoundRect,0.140000X0.170000X-0.140000X0.170000X0.140000X-0.170000X0.140000X-0.170000X-0.140000X0*%
%ADD38R,1.250000X0.700000*%
%ADD39RoundRect,0.218750X-0.218750X-0.256250X0.218750X-0.256250X0.218750X0.256250X-0.218750X0.256250X0*%
%ADD40RoundRect,0.135000X0.226274X0.035355X0.035355X0.226274X-0.226274X-0.035355X-0.035355X-0.226274X0*%
%ADD41R,1.800000X1.000000*%
%ADD42R,1.200000X1.400000*%
%ADD43RoundRect,0.150000X-0.512500X-0.150000X0.512500X-0.150000X0.512500X0.150000X-0.512500X0.150000X0*%
%ADD44R,1.000000X0.700000*%
%ADD45RoundRect,0.135000X0.185000X-0.135000X0.185000X0.135000X-0.185000X0.135000X-0.185000X-0.135000X0*%
G04 APERTURE END LIST*
D10*
X122101428Y-52705000D02*
X122028857Y-52668714D01*
X121920000Y-52668714D01*
X121811142Y-52705000D01*
X121738571Y-52777571D01*
X121702285Y-52850142D01*
X121666000Y-52995285D01*
X121666000Y-53104142D01*
X121702285Y-53249285D01*
X121738571Y-53321857D01*
X121811142Y-53394428D01*
X121920000Y-53430714D01*
X121992571Y-53430714D01*
X122101428Y-53394428D01*
X122137714Y-53358142D01*
X122137714Y-53104142D01*
X121992571Y-53104142D01*
X122464285Y-53430714D02*
X122464285Y-52668714D01*
X122899714Y-53430714D01*
X122899714Y-52668714D01*
X123262571Y-53430714D02*
X123262571Y-52668714D01*
X123444000Y-52668714D01*
X123552857Y-52705000D01*
X123625428Y-52777571D01*
X123661714Y-52850142D01*
X123698000Y-52995285D01*
X123698000Y-53104142D01*
X123661714Y-53249285D01*
X123625428Y-53321857D01*
X123552857Y-53394428D01*
X123444000Y-53430714D01*
X123262571Y-53430714D01*
X122228428Y-55898142D02*
X122192142Y-55934428D01*
X122083285Y-55970714D01*
X122010714Y-55970714D01*
X121901857Y-55934428D01*
X121829285Y-55861857D01*
X121793000Y-55789285D01*
X121756714Y-55644142D01*
X121756714Y-55535285D01*
X121793000Y-55390142D01*
X121829285Y-55317571D01*
X121901857Y-55245000D01*
X122010714Y-55208714D01*
X122083285Y-55208714D01*
X122192142Y-55245000D01*
X122228428Y-55281285D01*
X122917857Y-55970714D02*
X122555000Y-55970714D01*
X122555000Y-55208714D01*
X123171857Y-55970714D02*
X123171857Y-55208714D01*
X123607285Y-55970714D02*
X123280714Y-55535285D01*
X123607285Y-55208714D02*
X123171857Y-55644142D01*
X121901857Y-58510714D02*
X121901857Y-57748714D01*
X122083285Y-57748714D01*
X122192142Y-57785000D01*
X122264714Y-57857571D01*
X122301000Y-57930142D01*
X122337285Y-58075285D01*
X122337285Y-58184142D01*
X122301000Y-58329285D01*
X122264714Y-58401857D01*
X122192142Y-58474428D01*
X122083285Y-58510714D01*
X121901857Y-58510714D01*
X122663857Y-58510714D02*
X122663857Y-57748714D01*
X123171857Y-57748714D02*
X123317000Y-57748714D01*
X123389571Y-57785000D01*
X123462142Y-57857571D01*
X123498428Y-58002714D01*
X123498428Y-58256714D01*
X123462142Y-58401857D01*
X123389571Y-58474428D01*
X123317000Y-58510714D01*
X123171857Y-58510714D01*
X123099285Y-58474428D01*
X123026714Y-58401857D01*
X122990428Y-58256714D01*
X122990428Y-58002714D01*
X123026714Y-57857571D01*
X123099285Y-57785000D01*
X123171857Y-57748714D01*
X121738571Y-60288714D02*
X122210285Y-60288714D01*
X121956285Y-60579000D01*
X122065142Y-60579000D01*
X122137714Y-60615285D01*
X122174000Y-60651571D01*
X122210285Y-60724142D01*
X122210285Y-60905571D01*
X122174000Y-60978142D01*
X122137714Y-61014428D01*
X122065142Y-61050714D01*
X121847428Y-61050714D01*
X121774857Y-61014428D01*
X121738571Y-60978142D01*
X122428000Y-60288714D02*
X122682000Y-61050714D01*
X122936000Y-60288714D01*
X123117428Y-60288714D02*
X123589142Y-60288714D01*
X123335142Y-60579000D01*
X123444000Y-60579000D01*
X123516571Y-60615285D01*
X123552857Y-60651571D01*
X123589142Y-60724142D01*
X123589142Y-60905571D01*
X123552857Y-60978142D01*
X123516571Y-61014428D01*
X123444000Y-61050714D01*
X123226285Y-61050714D01*
X123153714Y-61014428D01*
X123117428Y-60978142D01*
D11*
X120849571Y-65913000D02*
X120777000Y-65876714D01*
X120668142Y-65876714D01*
X120559285Y-65913000D01*
X120486714Y-65985571D01*
X120450428Y-66058142D01*
X120414142Y-66203285D01*
X120414142Y-66312142D01*
X120450428Y-66457285D01*
X120486714Y-66529857D01*
X120559285Y-66602428D01*
X120668142Y-66638714D01*
X120740714Y-66638714D01*
X120849571Y-66602428D01*
X120885857Y-66566142D01*
X120885857Y-66312142D01*
X120740714Y-66312142D01*
X117165885Y-65874326D02*
X117637599Y-65874326D01*
X117383599Y-66164612D01*
X117492456Y-66164612D01*
X117565028Y-66200897D01*
X117601314Y-66237183D01*
X117637599Y-66309754D01*
X117637599Y-66491183D01*
X117601314Y-66563754D01*
X117565028Y-66600040D01*
X117492456Y-66636326D01*
X117274742Y-66636326D01*
X117202171Y-66600040D01*
X117165885Y-66563754D01*
X117855314Y-65874326D02*
X118109314Y-66636326D01*
X118363314Y-65874326D01*
X118544742Y-65874326D02*
X119016456Y-65874326D01*
X118762456Y-66164612D01*
X118871314Y-66164612D01*
X118943885Y-66200897D01*
X118980171Y-66237183D01*
X119016456Y-66309754D01*
X119016456Y-66491183D01*
X118980171Y-66563754D01*
X118943885Y-66600040D01*
X118871314Y-66636326D01*
X118653599Y-66636326D01*
X118581028Y-66600040D01*
X118544742Y-66563754D01*
X115421555Y-65874326D02*
X115058698Y-65874326D01*
X115022412Y-66237183D01*
X115058698Y-66200897D01*
X115131269Y-66164612D01*
X115312698Y-66164612D01*
X115385269Y-66200897D01*
X115421555Y-66237183D01*
X115457840Y-66309754D01*
X115457840Y-66491183D01*
X115421555Y-66563754D01*
X115385269Y-66600040D01*
X115312698Y-66636326D01*
X115131269Y-66636326D01*
X115058698Y-66600040D01*
X115022412Y-66563754D01*
X115675555Y-65874326D02*
X115929555Y-66636326D01*
X116183555Y-65874326D01*
X112721571Y-66239571D02*
X112830428Y-66275857D01*
X112866714Y-66312142D01*
X112903000Y-66384714D01*
X112903000Y-66493571D01*
X112866714Y-66566142D01*
X112830428Y-66602428D01*
X112757857Y-66638714D01*
X112467571Y-66638714D01*
X112467571Y-65876714D01*
X112721571Y-65876714D01*
X112794142Y-65913000D01*
X112830428Y-65949285D01*
X112866714Y-66021857D01*
X112866714Y-66094428D01*
X112830428Y-66167000D01*
X112794142Y-66203285D01*
X112721571Y-66239571D01*
X112467571Y-66239571D01*
X113265857Y-66638714D02*
X113411000Y-66638714D01*
X113483571Y-66602428D01*
X113519857Y-66566142D01*
X113592428Y-66457285D01*
X113628714Y-66312142D01*
X113628714Y-66021857D01*
X113592428Y-65949285D01*
X113556142Y-65913000D01*
X113483571Y-65876714D01*
X113338428Y-65876714D01*
X113265857Y-65913000D01*
X113229571Y-65949285D01*
X113193285Y-66021857D01*
X113193285Y-66203285D01*
X113229571Y-66275857D01*
X113265857Y-66312142D01*
X113338428Y-66348428D01*
X113483571Y-66348428D01*
X113556142Y-66312142D01*
X113592428Y-66275857D01*
X113628714Y-66203285D01*
X110180657Y-66237183D02*
X110289514Y-66273469D01*
X110325800Y-66309754D01*
X110362086Y-66382326D01*
X110362086Y-66491183D01*
X110325800Y-66563754D01*
X110289514Y-66600040D01*
X110216943Y-66636326D01*
X109926657Y-66636326D01*
X109926657Y-65874326D01*
X110180657Y-65874326D01*
X110253228Y-65910612D01*
X110289514Y-65946897D01*
X110325800Y-66019469D01*
X110325800Y-66092040D01*
X110289514Y-66164612D01*
X110253228Y-66200897D01*
X110180657Y-66237183D01*
X109926657Y-66237183D01*
X110797514Y-66200897D02*
X110724943Y-66164612D01*
X110688657Y-66128326D01*
X110652371Y-66055754D01*
X110652371Y-66019469D01*
X110688657Y-65946897D01*
X110724943Y-65910612D01*
X110797514Y-65874326D01*
X110942657Y-65874326D01*
X111015228Y-65910612D01*
X111051514Y-65946897D01*
X111087800Y-66019469D01*
X111087800Y-66055754D01*
X111051514Y-66128326D01*
X111015228Y-66164612D01*
X110942657Y-66200897D01*
X110797514Y-66200897D01*
X110724943Y-66237183D01*
X110688657Y-66273469D01*
X110652371Y-66346040D01*
X110652371Y-66491183D01*
X110688657Y-66563754D01*
X110724943Y-66600040D01*
X110797514Y-66636326D01*
X110942657Y-66636326D01*
X111015228Y-66600040D01*
X111051514Y-66563754D01*
X111087800Y-66491183D01*
X111087800Y-66346040D01*
X111051514Y-66273469D01*
X111015228Y-66237183D01*
X110942657Y-66200897D01*
X107638066Y-66237183D02*
X107746923Y-66273469D01*
X107783209Y-66309754D01*
X107819495Y-66382326D01*
X107819495Y-66491183D01*
X107783209Y-66563754D01*
X107746923Y-66600040D01*
X107674352Y-66636326D01*
X107384066Y-66636326D01*
X107384066Y-65874326D01*
X107638066Y-65874326D01*
X107710637Y-65910612D01*
X107746923Y-65946897D01*
X107783209Y-66019469D01*
X107783209Y-66092040D01*
X107746923Y-66164612D01*
X107710637Y-66200897D01*
X107638066Y-66237183D01*
X107384066Y-66237183D01*
X108073495Y-65874326D02*
X108581495Y-65874326D01*
X108254923Y-66636326D01*
X105095450Y-66237183D02*
X105204307Y-66273469D01*
X105240593Y-66309754D01*
X105276879Y-66382326D01*
X105276879Y-66491183D01*
X105240593Y-66563754D01*
X105204307Y-66600040D01*
X105131736Y-66636326D01*
X104841450Y-66636326D01*
X104841450Y-65874326D01*
X105095450Y-65874326D01*
X105168021Y-65910612D01*
X105204307Y-65946897D01*
X105240593Y-66019469D01*
X105240593Y-66092040D01*
X105204307Y-66164612D01*
X105168021Y-66200897D01*
X105095450Y-66237183D01*
X104841450Y-66237183D01*
X105930021Y-65874326D02*
X105784879Y-65874326D01*
X105712307Y-65910612D01*
X105676021Y-65946897D01*
X105603450Y-66055754D01*
X105567164Y-66200897D01*
X105567164Y-66491183D01*
X105603450Y-66563754D01*
X105639736Y-66600040D01*
X105712307Y-66636326D01*
X105857450Y-66636326D01*
X105930021Y-66600040D01*
X105966307Y-66563754D01*
X106002593Y-66491183D01*
X106002593Y-66309754D01*
X105966307Y-66237183D01*
X105930021Y-66200897D01*
X105857450Y-66164612D01*
X105712307Y-66164612D01*
X105639736Y-66200897D01*
X105603450Y-66237183D01*
X105567164Y-66309754D01*
X102561571Y-66239571D02*
X102670428Y-66275857D01*
X102706714Y-66312142D01*
X102743000Y-66384714D01*
X102743000Y-66493571D01*
X102706714Y-66566142D01*
X102670428Y-66602428D01*
X102597857Y-66638714D01*
X102307571Y-66638714D01*
X102307571Y-65876714D01*
X102561571Y-65876714D01*
X102634142Y-65913000D01*
X102670428Y-65949285D01*
X102706714Y-66021857D01*
X102706714Y-66094428D01*
X102670428Y-66167000D01*
X102634142Y-66203285D01*
X102561571Y-66239571D01*
X102307571Y-66239571D01*
X103432428Y-65876714D02*
X103069571Y-65876714D01*
X103033285Y-66239571D01*
X103069571Y-66203285D01*
X103142142Y-66167000D01*
X103323571Y-66167000D01*
X103396142Y-66203285D01*
X103432428Y-66239571D01*
X103468714Y-66312142D01*
X103468714Y-66493571D01*
X103432428Y-66566142D01*
X103396142Y-66602428D01*
X103323571Y-66638714D01*
X103142142Y-66638714D01*
X103069571Y-66602428D01*
X103033285Y-66566142D01*
X100020758Y-66237183D02*
X100129615Y-66273469D01*
X100165901Y-66309754D01*
X100202187Y-66382326D01*
X100202187Y-66491183D01*
X100165901Y-66563754D01*
X100129615Y-66600040D01*
X100057044Y-66636326D01*
X99766758Y-66636326D01*
X99766758Y-65874326D01*
X100020758Y-65874326D01*
X100093329Y-65910612D01*
X100129615Y-65946897D01*
X100165901Y-66019469D01*
X100165901Y-66092040D01*
X100129615Y-66164612D01*
X100093329Y-66200897D01*
X100020758Y-66237183D01*
X99766758Y-66237183D01*
X100855329Y-66128326D02*
X100855329Y-66636326D01*
X100673901Y-65838040D02*
X100492472Y-66382326D01*
X100964187Y-66382326D01*
X97478142Y-66237183D02*
X97586999Y-66273469D01*
X97623285Y-66309754D01*
X97659571Y-66382326D01*
X97659571Y-66491183D01*
X97623285Y-66563754D01*
X97586999Y-66600040D01*
X97514428Y-66636326D01*
X97224142Y-66636326D01*
X97224142Y-65874326D01*
X97478142Y-65874326D01*
X97550713Y-65910612D01*
X97586999Y-65946897D01*
X97623285Y-66019469D01*
X97623285Y-66092040D01*
X97586999Y-66164612D01*
X97550713Y-66200897D01*
X97478142Y-66237183D01*
X97224142Y-66237183D01*
X97913571Y-65874326D02*
X98385285Y-65874326D01*
X98131285Y-66164612D01*
X98240142Y-66164612D01*
X98312713Y-66200897D01*
X98348999Y-66237183D01*
X98385285Y-66309754D01*
X98385285Y-66491183D01*
X98348999Y-66563754D01*
X98312713Y-66600040D01*
X98240142Y-66636326D01*
X98022428Y-66636326D01*
X97949856Y-66600040D01*
X97913571Y-66563754D01*
X94342857Y-66421000D02*
X94705714Y-66421000D01*
X94270285Y-66638714D02*
X94524285Y-65876714D01*
X94778285Y-66638714D01*
X95431428Y-66638714D02*
X94996000Y-66638714D01*
X95213714Y-66638714D02*
X95213714Y-65876714D01*
X95141142Y-65985571D01*
X95068571Y-66058142D01*
X94996000Y-66094428D01*
X96120857Y-65876714D02*
X95758000Y-65876714D01*
X95721714Y-66239571D01*
X95758000Y-66203285D01*
X95830571Y-66167000D01*
X96012000Y-66167000D01*
X96084571Y-66203285D01*
X96120857Y-66239571D01*
X96157142Y-66312142D01*
X96157142Y-66493571D01*
X96120857Y-66566142D01*
X96084571Y-66602428D01*
X96012000Y-66638714D01*
X95830571Y-66638714D01*
X95758000Y-66602428D01*
X95721714Y-66566142D01*
X91802857Y-66428366D02*
X92165714Y-66428366D01*
X91730285Y-66646080D02*
X91984285Y-65884080D01*
X92238285Y-66646080D01*
X92891428Y-66646080D02*
X92456000Y-66646080D01*
X92673714Y-66646080D02*
X92673714Y-65884080D01*
X92601142Y-65992937D01*
X92528571Y-66065508D01*
X92456000Y-66101794D01*
X93181714Y-65956651D02*
X93218000Y-65920366D01*
X93290571Y-65884080D01*
X93472000Y-65884080D01*
X93544571Y-65920366D01*
X93580857Y-65956651D01*
X93617142Y-66029223D01*
X93617142Y-66101794D01*
X93580857Y-66210651D01*
X93145428Y-66646080D01*
X93617142Y-66646080D01*
X89262857Y-66428366D02*
X89625714Y-66428366D01*
X89190285Y-66646080D02*
X89444285Y-65884080D01*
X89698285Y-66646080D01*
X90351428Y-66646080D02*
X89916000Y-66646080D01*
X90133714Y-66646080D02*
X90133714Y-65884080D01*
X90061142Y-65992937D01*
X89988571Y-66065508D01*
X89916000Y-66101794D01*
X91077142Y-66646080D02*
X90641714Y-66646080D01*
X90859428Y-66646080D02*
X90859428Y-65884080D01*
X90786857Y-65992937D01*
X90714285Y-66065508D01*
X90641714Y-66101794D01*
X86722857Y-66428366D02*
X87085714Y-66428366D01*
X86650285Y-66646080D02*
X86904285Y-65884080D01*
X87158285Y-66646080D01*
X87811428Y-66646080D02*
X87376000Y-66646080D01*
X87593714Y-66646080D02*
X87593714Y-65884080D01*
X87521142Y-65992937D01*
X87448571Y-66065508D01*
X87376000Y-66101794D01*
X88283142Y-65884080D02*
X88355714Y-65884080D01*
X88428285Y-65920366D01*
X88464571Y-65956651D01*
X88500857Y-66029223D01*
X88537142Y-66174366D01*
X88537142Y-66355794D01*
X88500857Y-66500937D01*
X88464571Y-66573508D01*
X88428285Y-66609794D01*
X88355714Y-66646080D01*
X88283142Y-66646080D01*
X88210571Y-66609794D01*
X88174285Y-66573508D01*
X88138000Y-66500937D01*
X88101714Y-66355794D01*
X88101714Y-66174366D01*
X88138000Y-66029223D01*
X88174285Y-65956651D01*
X88210571Y-65920366D01*
X88283142Y-65884080D01*
X84545714Y-66428366D02*
X84908571Y-66428366D01*
X84473142Y-66646080D02*
X84727142Y-65884080D01*
X84981142Y-66646080D01*
X85271428Y-66646080D02*
X85416571Y-66646080D01*
X85489142Y-66609794D01*
X85525428Y-66573508D01*
X85598000Y-66464651D01*
X85634285Y-66319508D01*
X85634285Y-66029223D01*
X85598000Y-65956651D01*
X85561714Y-65920366D01*
X85489142Y-65884080D01*
X85344000Y-65884080D01*
X85271428Y-65920366D01*
X85235142Y-65956651D01*
X85198857Y-66029223D01*
X85198857Y-66210651D01*
X85235142Y-66283223D01*
X85271428Y-66319508D01*
X85344000Y-66355794D01*
X85489142Y-66355794D01*
X85561714Y-66319508D01*
X85598000Y-66283223D01*
X85634285Y-66210651D01*
X82004800Y-66421000D02*
X82367657Y-66421000D01*
X81932228Y-66638714D02*
X82186228Y-65876714D01*
X82440228Y-66638714D01*
X82803086Y-66203285D02*
X82730514Y-66167000D01*
X82694228Y-66130714D01*
X82657943Y-66058142D01*
X82657943Y-66021857D01*
X82694228Y-65949285D01*
X82730514Y-65913000D01*
X82803086Y-65876714D01*
X82948228Y-65876714D01*
X83020800Y-65913000D01*
X83057086Y-65949285D01*
X83093371Y-66021857D01*
X83093371Y-66058142D01*
X83057086Y-66130714D01*
X83020800Y-66167000D01*
X82948228Y-66203285D01*
X82803086Y-66203285D01*
X82730514Y-66239571D01*
X82694228Y-66275857D01*
X82657943Y-66348428D01*
X82657943Y-66493571D01*
X82694228Y-66566142D01*
X82730514Y-66602428D01*
X82803086Y-66638714D01*
X82948228Y-66638714D01*
X83020800Y-66602428D01*
X83057086Y-66566142D01*
X83093371Y-66493571D01*
X83093371Y-66348428D01*
X83057086Y-66275857D01*
X83020800Y-66239571D01*
X82948228Y-66203285D01*
X79338714Y-66239571D02*
X79447571Y-66275857D01*
X79483857Y-66312142D01*
X79520142Y-66384714D01*
X79520142Y-66493571D01*
X79483857Y-66566142D01*
X79447571Y-66602428D01*
X79375000Y-66638714D01*
X79084714Y-66638714D01*
X79084714Y-65876714D01*
X79338714Y-65876714D01*
X79411285Y-65913000D01*
X79447571Y-65949285D01*
X79483857Y-66021857D01*
X79483857Y-66094428D01*
X79447571Y-66167000D01*
X79411285Y-66203285D01*
X79338714Y-66239571D01*
X79084714Y-66239571D01*
X80245857Y-66638714D02*
X79810428Y-66638714D01*
X80028142Y-66638714D02*
X80028142Y-65876714D01*
X79955571Y-65985571D01*
X79883000Y-66058142D01*
X79810428Y-66094428D01*
X80935285Y-65876714D02*
X80572428Y-65876714D01*
X80536142Y-66239571D01*
X80572428Y-66203285D01*
X80645000Y-66167000D01*
X80826428Y-66167000D01*
X80899000Y-66203285D01*
X80935285Y-66239571D01*
X80971571Y-66312142D01*
X80971571Y-66493571D01*
X80935285Y-66566142D01*
X80899000Y-66602428D01*
X80826428Y-66638714D01*
X80645000Y-66638714D01*
X80572428Y-66602428D01*
X80536142Y-66566142D01*
X76798714Y-66246937D02*
X76907571Y-66283223D01*
X76943857Y-66319508D01*
X76980142Y-66392080D01*
X76980142Y-66500937D01*
X76943857Y-66573508D01*
X76907571Y-66609794D01*
X76835000Y-66646080D01*
X76544714Y-66646080D01*
X76544714Y-65884080D01*
X76798714Y-65884080D01*
X76871285Y-65920366D01*
X76907571Y-65956651D01*
X76943857Y-66029223D01*
X76943857Y-66101794D01*
X76907571Y-66174366D01*
X76871285Y-66210651D01*
X76798714Y-66246937D01*
X76544714Y-66246937D01*
X77705857Y-66646080D02*
X77270428Y-66646080D01*
X77488142Y-66646080D02*
X77488142Y-65884080D01*
X77415571Y-65992937D01*
X77343000Y-66065508D01*
X77270428Y-66101794D01*
X78359000Y-66138080D02*
X78359000Y-66646080D01*
X78177571Y-65847794D02*
X77996142Y-66392080D01*
X78467857Y-66392080D01*
X74257901Y-66239571D02*
X74366758Y-66275857D01*
X74403044Y-66312142D01*
X74439329Y-66384714D01*
X74439329Y-66493571D01*
X74403044Y-66566142D01*
X74366758Y-66602428D01*
X74294187Y-66638714D01*
X74003901Y-66638714D01*
X74003901Y-65876714D01*
X74257901Y-65876714D01*
X74330472Y-65913000D01*
X74366758Y-65949285D01*
X74403044Y-66021857D01*
X74403044Y-66094428D01*
X74366758Y-66167000D01*
X74330472Y-66203285D01*
X74257901Y-66239571D01*
X74003901Y-66239571D01*
X75165044Y-66638714D02*
X74729615Y-66638714D01*
X74947329Y-66638714D02*
X74947329Y-65876714D01*
X74874758Y-65985571D01*
X74802187Y-66058142D01*
X74729615Y-66094428D01*
X75419044Y-65876714D02*
X75890758Y-65876714D01*
X75636758Y-66167000D01*
X75745615Y-66167000D01*
X75818187Y-66203285D01*
X75854472Y-66239571D01*
X75890758Y-66312142D01*
X75890758Y-66493571D01*
X75854472Y-66566142D01*
X75818187Y-66602428D01*
X75745615Y-66638714D01*
X75527901Y-66638714D01*
X75455329Y-66602428D01*
X75419044Y-66566142D01*
X71718714Y-66246937D02*
X71827571Y-66283223D01*
X71863857Y-66319508D01*
X71900142Y-66392080D01*
X71900142Y-66500937D01*
X71863857Y-66573508D01*
X71827571Y-66609794D01*
X71755000Y-66646080D01*
X71464714Y-66646080D01*
X71464714Y-65884080D01*
X71718714Y-65884080D01*
X71791285Y-65920366D01*
X71827571Y-65956651D01*
X71863857Y-66029223D01*
X71863857Y-66101794D01*
X71827571Y-66174366D01*
X71791285Y-66210651D01*
X71718714Y-66246937D01*
X71464714Y-66246937D01*
X72625857Y-66646080D02*
X72190428Y-66646080D01*
X72408142Y-66646080D02*
X72408142Y-65884080D01*
X72335571Y-65992937D01*
X72263000Y-66065508D01*
X72190428Y-66101794D01*
X72916142Y-65956651D02*
X72952428Y-65920366D01*
X73025000Y-65884080D01*
X73206428Y-65884080D01*
X73279000Y-65920366D01*
X73315285Y-65956651D01*
X73351571Y-66029223D01*
X73351571Y-66101794D01*
X73315285Y-66210651D01*
X72879857Y-66646080D01*
X73351571Y-66646080D01*
X120085920Y-45404205D02*
X120194777Y-45440491D01*
X120231063Y-45476776D01*
X120267349Y-45549348D01*
X120267349Y-45658205D01*
X120231063Y-45730776D01*
X120194777Y-45767062D01*
X120122206Y-45803348D01*
X119831920Y-45803348D01*
X119831920Y-45041348D01*
X120085920Y-45041348D01*
X120158491Y-45077634D01*
X120194777Y-45113919D01*
X120231063Y-45186491D01*
X120231063Y-45259062D01*
X120194777Y-45331634D01*
X120158491Y-45367919D01*
X120085920Y-45404205D01*
X119831920Y-45404205D01*
X120557634Y-45585634D02*
X120920491Y-45585634D01*
X120485063Y-45803348D02*
X120739063Y-45041348D01*
X120993063Y-45803348D01*
X121138206Y-45041348D02*
X121573634Y-45041348D01*
X121355920Y-45803348D02*
X121355920Y-45041348D01*
X117615900Y-45730776D02*
X117579615Y-45767062D01*
X117470758Y-45803348D01*
X117398186Y-45803348D01*
X117289329Y-45767062D01*
X117216758Y-45694491D01*
X117180472Y-45621919D01*
X117144186Y-45476776D01*
X117144186Y-45367919D01*
X117180472Y-45222776D01*
X117216758Y-45150205D01*
X117289329Y-45077634D01*
X117398186Y-45041348D01*
X117470758Y-45041348D01*
X117579615Y-45077634D01*
X117615900Y-45113919D01*
X118341615Y-45803348D02*
X117906186Y-45803348D01*
X118123900Y-45803348D02*
X118123900Y-45041348D01*
X118051329Y-45150205D01*
X117978758Y-45222776D01*
X117906186Y-45259062D01*
X118595615Y-45041348D02*
X119067329Y-45041348D01*
X118813329Y-45331634D01*
X118922186Y-45331634D01*
X118994758Y-45367919D01*
X119031043Y-45404205D01*
X119067329Y-45476776D01*
X119067329Y-45658205D01*
X119031043Y-45730776D01*
X118994758Y-45767062D01*
X118922186Y-45803348D01*
X118704472Y-45803348D01*
X118631900Y-45767062D01*
X118595615Y-45730776D01*
X115080142Y-45738142D02*
X115043857Y-45774428D01*
X114935000Y-45810714D01*
X114862428Y-45810714D01*
X114753571Y-45774428D01*
X114681000Y-45701857D01*
X114644714Y-45629285D01*
X114608428Y-45484142D01*
X114608428Y-45375285D01*
X114644714Y-45230142D01*
X114681000Y-45157571D01*
X114753571Y-45085000D01*
X114862428Y-45048714D01*
X114935000Y-45048714D01*
X115043857Y-45085000D01*
X115080142Y-45121285D01*
X115805857Y-45810714D02*
X115370428Y-45810714D01*
X115588142Y-45810714D02*
X115588142Y-45048714D01*
X115515571Y-45157571D01*
X115443000Y-45230142D01*
X115370428Y-45266428D01*
X116459000Y-45302714D02*
X116459000Y-45810714D01*
X116277571Y-45012428D02*
X116096142Y-45556714D01*
X116567857Y-45556714D01*
X112535494Y-45738142D02*
X112499209Y-45774428D01*
X112390352Y-45810714D01*
X112317780Y-45810714D01*
X112208923Y-45774428D01*
X112136352Y-45701857D01*
X112100066Y-45629285D01*
X112063780Y-45484142D01*
X112063780Y-45375285D01*
X112100066Y-45230142D01*
X112136352Y-45157571D01*
X112208923Y-45085000D01*
X112317780Y-45048714D01*
X112390352Y-45048714D01*
X112499209Y-45085000D01*
X112535494Y-45121285D01*
X113261209Y-45810714D02*
X112825780Y-45810714D01*
X113043494Y-45810714D02*
X113043494Y-45048714D01*
X112970923Y-45157571D01*
X112898352Y-45230142D01*
X112825780Y-45266428D01*
X113950637Y-45048714D02*
X113587780Y-45048714D01*
X113551494Y-45411571D01*
X113587780Y-45375285D01*
X113660352Y-45339000D01*
X113841780Y-45339000D01*
X113914352Y-45375285D01*
X113950637Y-45411571D01*
X113986923Y-45484142D01*
X113986923Y-45665571D01*
X113950637Y-45738142D01*
X113914352Y-45774428D01*
X113841780Y-45810714D01*
X113660352Y-45810714D01*
X113587780Y-45774428D01*
X113551494Y-45738142D01*
X110065475Y-45810714D02*
X109811475Y-45447857D01*
X109630046Y-45810714D02*
X109630046Y-45048714D01*
X109920332Y-45048714D01*
X109992903Y-45085000D01*
X110029189Y-45121285D01*
X110065475Y-45193857D01*
X110065475Y-45302714D01*
X110029189Y-45375285D01*
X109992903Y-45411571D01*
X109920332Y-45447857D01*
X109630046Y-45447857D01*
X110355761Y-45774428D02*
X110464618Y-45810714D01*
X110646046Y-45810714D01*
X110718618Y-45774428D01*
X110754903Y-45738142D01*
X110791189Y-45665571D01*
X110791189Y-45593000D01*
X110754903Y-45520428D01*
X110718618Y-45484142D01*
X110646046Y-45447857D01*
X110500903Y-45411571D01*
X110428332Y-45375285D01*
X110392046Y-45339000D01*
X110355761Y-45266428D01*
X110355761Y-45193857D01*
X110392046Y-45121285D01*
X110428332Y-45085000D01*
X110500903Y-45048714D01*
X110682332Y-45048714D01*
X110791189Y-45085000D01*
X111008903Y-45048714D02*
X111444332Y-45048714D01*
X111226618Y-45810714D02*
X111226618Y-45048714D01*
X107403250Y-45593000D02*
X107766107Y-45593000D01*
X107330678Y-45810714D02*
X107584678Y-45048714D01*
X107838678Y-45810714D01*
X108237821Y-45048714D02*
X108310393Y-45048714D01*
X108382964Y-45085000D01*
X108419250Y-45121285D01*
X108455536Y-45193857D01*
X108491821Y-45339000D01*
X108491821Y-45520428D01*
X108455536Y-45665571D01*
X108419250Y-45738142D01*
X108382964Y-45774428D01*
X108310393Y-45810714D01*
X108237821Y-45810714D01*
X108165250Y-45774428D01*
X108128964Y-45738142D01*
X108092678Y-45665571D01*
X108056393Y-45520428D01*
X108056393Y-45339000D01*
X108092678Y-45193857D01*
X108128964Y-45121285D01*
X108165250Y-45085000D01*
X108237821Y-45048714D01*
X104865638Y-45585634D02*
X105228495Y-45585634D01*
X104793066Y-45803348D02*
X105047066Y-45041348D01*
X105301066Y-45803348D01*
X105954209Y-45803348D02*
X105518781Y-45803348D01*
X105736495Y-45803348D02*
X105736495Y-45041348D01*
X105663924Y-45150205D01*
X105591352Y-45222776D01*
X105518781Y-45259062D01*
X102323022Y-45585634D02*
X102685879Y-45585634D01*
X102250450Y-45803348D02*
X102504450Y-45041348D01*
X102758450Y-45803348D01*
X102976165Y-45113919D02*
X103012450Y-45077634D01*
X103085022Y-45041348D01*
X103266450Y-45041348D01*
X103339022Y-45077634D01*
X103375308Y-45113919D01*
X103411593Y-45186491D01*
X103411593Y-45259062D01*
X103375308Y-45367919D01*
X102939879Y-45803348D01*
X103411593Y-45803348D01*
X99785714Y-45593000D02*
X100148571Y-45593000D01*
X99713142Y-45810714D02*
X99967142Y-45048714D01*
X100221142Y-45810714D01*
X100402571Y-45048714D02*
X100874285Y-45048714D01*
X100620285Y-45339000D01*
X100729142Y-45339000D01*
X100801714Y-45375285D01*
X100838000Y-45411571D01*
X100874285Y-45484142D01*
X100874285Y-45665571D01*
X100838000Y-45738142D01*
X100801714Y-45774428D01*
X100729142Y-45810714D01*
X100511428Y-45810714D01*
X100438857Y-45774428D01*
X100402571Y-45738142D01*
X97245714Y-45593000D02*
X97608571Y-45593000D01*
X97173142Y-45810714D02*
X97427142Y-45048714D01*
X97681142Y-45810714D01*
X98261714Y-45302714D02*
X98261714Y-45810714D01*
X98080285Y-45012428D02*
X97898857Y-45556714D01*
X98370571Y-45556714D01*
X94705714Y-45593000D02*
X95068571Y-45593000D01*
X94633142Y-45810714D02*
X94887142Y-45048714D01*
X95141142Y-45810714D01*
X95758000Y-45048714D02*
X95395142Y-45048714D01*
X95358857Y-45411571D01*
X95395142Y-45375285D01*
X95467714Y-45339000D01*
X95649142Y-45339000D01*
X95721714Y-45375285D01*
X95758000Y-45411571D01*
X95794285Y-45484142D01*
X95794285Y-45665571D01*
X95758000Y-45738142D01*
X95721714Y-45774428D01*
X95649142Y-45810714D01*
X95467714Y-45810714D01*
X95395142Y-45774428D01*
X95358857Y-45738142D01*
X92165714Y-45585634D02*
X92528571Y-45585634D01*
X92093142Y-45803348D02*
X92347142Y-45041348D01*
X92601142Y-45803348D01*
X93181714Y-45041348D02*
X93036571Y-45041348D01*
X92964000Y-45077634D01*
X92927714Y-45113919D01*
X92855142Y-45222776D01*
X92818857Y-45367919D01*
X92818857Y-45658205D01*
X92855142Y-45730776D01*
X92891428Y-45767062D01*
X92964000Y-45803348D01*
X93109142Y-45803348D01*
X93181714Y-45767062D01*
X93218000Y-45730776D01*
X93254285Y-45658205D01*
X93254285Y-45476776D01*
X93218000Y-45404205D01*
X93181714Y-45367919D01*
X93109142Y-45331634D01*
X92964000Y-45331634D01*
X92891428Y-45367919D01*
X92855142Y-45404205D01*
X92818857Y-45476776D01*
X89625714Y-45593000D02*
X89988571Y-45593000D01*
X89553142Y-45810714D02*
X89807142Y-45048714D01*
X90061142Y-45810714D01*
X90242571Y-45048714D02*
X90750571Y-45048714D01*
X90424000Y-45810714D01*
X87321571Y-45411571D02*
X87430428Y-45447857D01*
X87466714Y-45484142D01*
X87503000Y-45556714D01*
X87503000Y-45665571D01*
X87466714Y-45738142D01*
X87430428Y-45774428D01*
X87357857Y-45810714D01*
X87067571Y-45810714D01*
X87067571Y-45048714D01*
X87321571Y-45048714D01*
X87394142Y-45085000D01*
X87430428Y-45121285D01*
X87466714Y-45193857D01*
X87466714Y-45266428D01*
X87430428Y-45339000D01*
X87394142Y-45375285D01*
X87321571Y-45411571D01*
X87067571Y-45411571D01*
X87974714Y-45048714D02*
X88047285Y-45048714D01*
X88119857Y-45085000D01*
X88156142Y-45121285D01*
X88192428Y-45193857D01*
X88228714Y-45339000D01*
X88228714Y-45520428D01*
X88192428Y-45665571D01*
X88156142Y-45738142D01*
X88119857Y-45774428D01*
X88047285Y-45810714D01*
X87974714Y-45810714D01*
X87902142Y-45774428D01*
X87865857Y-45738142D01*
X87829571Y-45665571D01*
X87793285Y-45520428D01*
X87793285Y-45339000D01*
X87829571Y-45193857D01*
X87865857Y-45121285D01*
X87902142Y-45085000D01*
X87974714Y-45048714D01*
X84781571Y-45411571D02*
X84890428Y-45447857D01*
X84926714Y-45484142D01*
X84963000Y-45556714D01*
X84963000Y-45665571D01*
X84926714Y-45738142D01*
X84890428Y-45774428D01*
X84817857Y-45810714D01*
X84527571Y-45810714D01*
X84527571Y-45048714D01*
X84781571Y-45048714D01*
X84854142Y-45085000D01*
X84890428Y-45121285D01*
X84926714Y-45193857D01*
X84926714Y-45266428D01*
X84890428Y-45339000D01*
X84854142Y-45375285D01*
X84781571Y-45411571D01*
X84527571Y-45411571D01*
X85688714Y-45810714D02*
X85253285Y-45810714D01*
X85471000Y-45810714D02*
X85471000Y-45048714D01*
X85398428Y-45157571D01*
X85325857Y-45230142D01*
X85253285Y-45266428D01*
X82241571Y-45411571D02*
X82350428Y-45447857D01*
X82386714Y-45484142D01*
X82423000Y-45556714D01*
X82423000Y-45665571D01*
X82386714Y-45738142D01*
X82350428Y-45774428D01*
X82277857Y-45810714D01*
X81987571Y-45810714D01*
X81987571Y-45048714D01*
X82241571Y-45048714D01*
X82314142Y-45085000D01*
X82350428Y-45121285D01*
X82386714Y-45193857D01*
X82386714Y-45266428D01*
X82350428Y-45339000D01*
X82314142Y-45375285D01*
X82241571Y-45411571D01*
X81987571Y-45411571D01*
X82713285Y-45121285D02*
X82749571Y-45085000D01*
X82822142Y-45048714D01*
X83003571Y-45048714D01*
X83076142Y-45085000D01*
X83112428Y-45121285D01*
X83148714Y-45193857D01*
X83148714Y-45266428D01*
X83112428Y-45375285D01*
X82677000Y-45810714D01*
X83148714Y-45810714D01*
X79332872Y-45403316D02*
X79441729Y-45439602D01*
X79478015Y-45475887D01*
X79514300Y-45548459D01*
X79514300Y-45657316D01*
X79478015Y-45729887D01*
X79441729Y-45766173D01*
X79369158Y-45802459D01*
X79078872Y-45802459D01*
X79078872Y-45040459D01*
X79332872Y-45040459D01*
X79405443Y-45076745D01*
X79441729Y-45113030D01*
X79478015Y-45185602D01*
X79478015Y-45258173D01*
X79441729Y-45330745D01*
X79405443Y-45367030D01*
X79332872Y-45403316D01*
X79078872Y-45403316D01*
X80240015Y-45802459D02*
X79804586Y-45802459D01*
X80022300Y-45802459D02*
X80022300Y-45040459D01*
X79949729Y-45149316D01*
X79877158Y-45221887D01*
X79804586Y-45258173D01*
X80711729Y-45040459D02*
X80784300Y-45040459D01*
X80856872Y-45076745D01*
X80893158Y-45113030D01*
X80929443Y-45185602D01*
X80965729Y-45330745D01*
X80965729Y-45512173D01*
X80929443Y-45657316D01*
X80893158Y-45729887D01*
X80856872Y-45766173D01*
X80784300Y-45802459D01*
X80711729Y-45802459D01*
X80639158Y-45766173D01*
X80602872Y-45729887D01*
X80566586Y-45657316D01*
X80530300Y-45512173D01*
X80530300Y-45330745D01*
X80566586Y-45185602D01*
X80602872Y-45113030D01*
X80639158Y-45076745D01*
X80711729Y-45040459D01*
X77324857Y-45048714D02*
X76962000Y-45048714D01*
X76925714Y-45411571D01*
X76962000Y-45375285D01*
X77034571Y-45339000D01*
X77216000Y-45339000D01*
X77288571Y-45375285D01*
X77324857Y-45411571D01*
X77361142Y-45484142D01*
X77361142Y-45665571D01*
X77324857Y-45738142D01*
X77288571Y-45774428D01*
X77216000Y-45810714D01*
X77034571Y-45810714D01*
X76962000Y-45774428D01*
X76925714Y-45738142D01*
X77578857Y-45048714D02*
X77832857Y-45810714D01*
X78086857Y-45048714D01*
X73986571Y-45048714D02*
X74458285Y-45048714D01*
X74204285Y-45339000D01*
X74313142Y-45339000D01*
X74385714Y-45375285D01*
X74422000Y-45411571D01*
X74458285Y-45484142D01*
X74458285Y-45665571D01*
X74422000Y-45738142D01*
X74385714Y-45774428D01*
X74313142Y-45810714D01*
X74095428Y-45810714D01*
X74022857Y-45774428D01*
X73986571Y-45738142D01*
X74676000Y-45048714D02*
X74930000Y-45810714D01*
X75184000Y-45048714D01*
X75365428Y-45048714D02*
X75837142Y-45048714D01*
X75583142Y-45339000D01*
X75692000Y-45339000D01*
X75764571Y-45375285D01*
X75800857Y-45411571D01*
X75837142Y-45484142D01*
X75837142Y-45665571D01*
X75800857Y-45738142D01*
X75764571Y-45774428D01*
X75692000Y-45810714D01*
X75474285Y-45810714D01*
X75401714Y-45774428D01*
X75365428Y-45738142D01*
X72589571Y-45085000D02*
X72517000Y-45048714D01*
X72408142Y-45048714D01*
X72299285Y-45085000D01*
X72226714Y-45157571D01*
X72190428Y-45230142D01*
X72154142Y-45375285D01*
X72154142Y-45484142D01*
X72190428Y-45629285D01*
X72226714Y-45701857D01*
X72299285Y-45774428D01*
X72408142Y-45810714D01*
X72480714Y-45810714D01*
X72589571Y-45774428D01*
X72625857Y-45738142D01*
X72625857Y-45484142D01*
X72480714Y-45484142D01*
D12*
X73660000Y-62484000D02*
X73406000Y-62230000D01*
X73152000Y-61976000D02*
G75*
G03*
X73660000Y-62484000I508000J0D01*
G01*
X73660000Y-62484000D02*
X73300790Y-62484000D01*
D13*
X71189904Y-59575238D02*
X71761333Y-59575238D01*
X71875619Y-59613333D01*
X71951809Y-59689523D01*
X71989904Y-59803809D01*
X71989904Y-59880000D01*
X71989904Y-58813333D02*
X71989904Y-59194285D01*
X71189904Y-59194285D01*
X71913714Y-58089523D02*
X71951809Y-58127619D01*
X71989904Y-58241904D01*
X71989904Y-58318095D01*
X71951809Y-58432380D01*
X71875619Y-58508571D01*
X71799428Y-58546666D01*
X71647047Y-58584761D01*
X71532761Y-58584761D01*
X71380380Y-58546666D01*
X71304190Y-58508571D01*
X71228000Y-58432380D01*
X71189904Y-58318095D01*
X71189904Y-58241904D01*
X71228000Y-58127619D01*
X71266095Y-58089523D01*
X71189904Y-57518095D02*
X71761333Y-57518095D01*
X71875619Y-57556190D01*
X71951809Y-57632380D01*
X71989904Y-57746666D01*
X71989904Y-57822857D01*
X71989904Y-56756190D02*
X71989904Y-57137142D01*
X71189904Y-57137142D01*
X71913714Y-56032380D02*
X71951809Y-56070476D01*
X71989904Y-56184761D01*
X71989904Y-56260952D01*
X71951809Y-56375238D01*
X71875619Y-56451428D01*
X71799428Y-56489523D01*
X71647047Y-56527619D01*
X71532761Y-56527619D01*
X71380380Y-56489523D01*
X71304190Y-56451428D01*
X71228000Y-56375238D01*
X71189904Y-56260952D01*
X71189904Y-56184761D01*
X71228000Y-56070476D01*
X71266095Y-56032380D01*
X71189904Y-55460952D02*
X71761333Y-55460952D01*
X71875619Y-55499047D01*
X71951809Y-55575238D01*
X71989904Y-55689523D01*
X71989904Y-55765714D01*
X71989904Y-54699047D02*
X71989904Y-55080000D01*
X71189904Y-55080000D01*
X71913714Y-53975238D02*
X71951809Y-54013333D01*
X71989904Y-54127619D01*
X71989904Y-54203809D01*
X71951809Y-54318095D01*
X71875619Y-54394285D01*
X71799428Y-54432380D01*
X71647047Y-54470476D01*
X71532761Y-54470476D01*
X71380380Y-54432380D01*
X71304190Y-54394285D01*
X71228000Y-54318095D01*
X71189904Y-54203809D01*
X71189904Y-54127619D01*
X71228000Y-54013333D01*
X71266095Y-53975238D01*
X71189904Y-53403809D02*
X71761333Y-53403809D01*
X71875619Y-53441904D01*
X71951809Y-53518095D01*
X71989904Y-53632380D01*
X71989904Y-53708571D01*
X71989904Y-52641904D02*
X71989904Y-53022857D01*
X71189904Y-53022857D01*
X71913714Y-51918095D02*
X71951809Y-51956190D01*
X71989904Y-52070476D01*
X71989904Y-52146666D01*
X71951809Y-52260952D01*
X71875619Y-52337142D01*
X71799428Y-52375238D01*
X71647047Y-52413333D01*
X71532761Y-52413333D01*
X71380380Y-52375238D01*
X71304190Y-52337142D01*
X71228000Y-52260952D01*
X71189904Y-52146666D01*
X71189904Y-52070476D01*
X71228000Y-51956190D01*
X71266095Y-51918095D01*
D12*
X83272380Y-56332380D02*
X82939047Y-55856190D01*
X82700952Y-56332380D02*
X82700952Y-55332380D01*
X83081904Y-55332380D01*
X83177142Y-55380000D01*
X83224761Y-55427619D01*
X83272380Y-55522857D01*
X83272380Y-55665714D01*
X83224761Y-55760952D01*
X83177142Y-55808571D01*
X83081904Y-55856190D01*
X82700952Y-55856190D01*
X83653333Y-56284761D02*
X83796190Y-56332380D01*
X84034285Y-56332380D01*
X84129523Y-56284761D01*
X84177142Y-56237142D01*
X84224761Y-56141904D01*
X84224761Y-56046666D01*
X84177142Y-55951428D01*
X84129523Y-55903809D01*
X84034285Y-55856190D01*
X83843809Y-55808571D01*
X83748571Y-55760952D01*
X83700952Y-55713333D01*
X83653333Y-55618095D01*
X83653333Y-55522857D01*
X83700952Y-55427619D01*
X83748571Y-55380000D01*
X83843809Y-55332380D01*
X84081904Y-55332380D01*
X84224761Y-55380000D01*
X84510476Y-55332380D02*
X85081904Y-55332380D01*
X84796190Y-56332380D02*
X84796190Y-55332380D01*
X110109142Y-60904380D02*
X110109142Y-59904380D01*
X110680571Y-60904380D02*
X110252000Y-60332952D01*
X110680571Y-59904380D02*
X110109142Y-60475809D01*
X111109142Y-60380571D02*
X111442476Y-60380571D01*
X111585333Y-60904380D02*
X111109142Y-60904380D01*
X111109142Y-59904380D01*
X111585333Y-59904380D01*
X112204380Y-60428190D02*
X112204380Y-60904380D01*
X111871047Y-59904380D02*
X112204380Y-60428190D01*
X112537714Y-59904380D01*
X82462857Y-60888571D02*
X82605714Y-60936190D01*
X82653333Y-60983809D01*
X82700952Y-61079047D01*
X82700952Y-61221904D01*
X82653333Y-61317142D01*
X82605714Y-61364761D01*
X82510476Y-61412380D01*
X82129523Y-61412380D01*
X82129523Y-60412380D01*
X82462857Y-60412380D01*
X82558095Y-60460000D01*
X82605714Y-60507619D01*
X82653333Y-60602857D01*
X82653333Y-60698095D01*
X82605714Y-60793333D01*
X82558095Y-60840952D01*
X82462857Y-60888571D01*
X82129523Y-60888571D01*
X83320000Y-60412380D02*
X83510476Y-60412380D01*
X83605714Y-60460000D01*
X83700952Y-60555238D01*
X83748571Y-60745714D01*
X83748571Y-61079047D01*
X83700952Y-61269523D01*
X83605714Y-61364761D01*
X83510476Y-61412380D01*
X83320000Y-61412380D01*
X83224761Y-61364761D01*
X83129523Y-61269523D01*
X83081904Y-61079047D01*
X83081904Y-60745714D01*
X83129523Y-60555238D01*
X83224761Y-60460000D01*
X83320000Y-60412380D01*
X84367619Y-60412380D02*
X84558095Y-60412380D01*
X84653333Y-60460000D01*
X84748571Y-60555238D01*
X84796190Y-60745714D01*
X84796190Y-61079047D01*
X84748571Y-61269523D01*
X84653333Y-61364761D01*
X84558095Y-61412380D01*
X84367619Y-61412380D01*
X84272380Y-61364761D01*
X84177142Y-61269523D01*
X84129523Y-61079047D01*
X84129523Y-60745714D01*
X84177142Y-60555238D01*
X84272380Y-60460000D01*
X84367619Y-60412380D01*
X85081904Y-60412380D02*
X85653333Y-60412380D01*
X85367619Y-61412380D02*
X85367619Y-60412380D01*
%TO.C,C10*%
X101202213Y-58677350D02*
X101202213Y-58744694D01*
X101134869Y-58879381D01*
X101067526Y-58946724D01*
X100932839Y-59014068D01*
X100798152Y-59014068D01*
X100697137Y-58980396D01*
X100528778Y-58879381D01*
X100427763Y-58778366D01*
X100326747Y-58610007D01*
X100293076Y-58508992D01*
X100293076Y-58374305D01*
X100360419Y-58239618D01*
X100427763Y-58172274D01*
X100562450Y-58104931D01*
X100629793Y-58104931D01*
X101942992Y-58071259D02*
X101538931Y-58475320D01*
X101740961Y-58273289D02*
X101033854Y-57566182D01*
X101067526Y-57734541D01*
X101067526Y-57869228D01*
X101033854Y-57970244D01*
X101673618Y-56926419D02*
X101740961Y-56859076D01*
X101841976Y-56825404D01*
X101909320Y-56825404D01*
X102010335Y-56859076D01*
X102178694Y-56960091D01*
X102347053Y-57128450D01*
X102448068Y-57296808D01*
X102481740Y-57397824D01*
X102481740Y-57465167D01*
X102448068Y-57566182D01*
X102380724Y-57633526D01*
X102279709Y-57667198D01*
X102212366Y-57667198D01*
X102111350Y-57633526D01*
X101942992Y-57532511D01*
X101774633Y-57364152D01*
X101673618Y-57195793D01*
X101639946Y-57094778D01*
X101639946Y-57027434D01*
X101673618Y-56926419D01*
%TO.C,C2*%
X81367333Y-49887142D02*
X81319714Y-49934761D01*
X81176857Y-49982380D01*
X81081619Y-49982380D01*
X80938761Y-49934761D01*
X80843523Y-49839523D01*
X80795904Y-49744285D01*
X80748285Y-49553809D01*
X80748285Y-49410952D01*
X80795904Y-49220476D01*
X80843523Y-49125238D01*
X80938761Y-49030000D01*
X81081619Y-48982380D01*
X81176857Y-48982380D01*
X81319714Y-49030000D01*
X81367333Y-49077619D01*
X81748285Y-49077619D02*
X81795904Y-49030000D01*
X81891142Y-48982380D01*
X82129238Y-48982380D01*
X82224476Y-49030000D01*
X82272095Y-49077619D01*
X82319714Y-49172857D01*
X82319714Y-49268095D01*
X82272095Y-49410952D01*
X81700666Y-49982380D01*
X82319714Y-49982380D01*
%TO.C,D4*%
X115125714Y-50490380D02*
X115125714Y-49490380D01*
X115506666Y-49490380D01*
X115601904Y-49538000D01*
X115649523Y-49585619D01*
X115697142Y-49680857D01*
X115697142Y-49823714D01*
X115649523Y-49918952D01*
X115601904Y-49966571D01*
X115506666Y-50014190D01*
X115125714Y-50014190D01*
X116697142Y-50395142D02*
X116649523Y-50442761D01*
X116506666Y-50490380D01*
X116411428Y-50490380D01*
X116268571Y-50442761D01*
X116173333Y-50347523D01*
X116125714Y-50252285D01*
X116078095Y-50061809D01*
X116078095Y-49918952D01*
X116125714Y-49728476D01*
X116173333Y-49633238D01*
X116268571Y-49538000D01*
X116411428Y-49490380D01*
X116506666Y-49490380D01*
X116649523Y-49538000D01*
X116697142Y-49585619D01*
X117649523Y-50490380D02*
X117078095Y-50490380D01*
X117363809Y-50490380D02*
X117363809Y-49490380D01*
X117268571Y-49633238D01*
X117173333Y-49728476D01*
X117078095Y-49776095D01*
X117982857Y-49490380D02*
X118601904Y-49490380D01*
X118268571Y-49871333D01*
X118411428Y-49871333D01*
X118506666Y-49918952D01*
X118554285Y-49966571D01*
X118601904Y-50061809D01*
X118601904Y-50299904D01*
X118554285Y-50395142D01*
X118506666Y-50442761D01*
X118411428Y-50490380D01*
X118125714Y-50490380D01*
X118030476Y-50442761D01*
X117982857Y-50395142D01*
%TO.C,R6*%
X108291333Y-62174380D02*
X107958000Y-61698190D01*
X107719904Y-62174380D02*
X107719904Y-61174380D01*
X108100857Y-61174380D01*
X108196095Y-61222000D01*
X108243714Y-61269619D01*
X108291333Y-61364857D01*
X108291333Y-61507714D01*
X108243714Y-61602952D01*
X108196095Y-61650571D01*
X108100857Y-61698190D01*
X107719904Y-61698190D01*
X109148476Y-61174380D02*
X108958000Y-61174380D01*
X108862761Y-61222000D01*
X108815142Y-61269619D01*
X108719904Y-61412476D01*
X108672285Y-61602952D01*
X108672285Y-61983904D01*
X108719904Y-62079142D01*
X108767523Y-62126761D01*
X108862761Y-62174380D01*
X109053238Y-62174380D01*
X109148476Y-62126761D01*
X109196095Y-62079142D01*
X109243714Y-61983904D01*
X109243714Y-61745809D01*
X109196095Y-61650571D01*
X109148476Y-61602952D01*
X109053238Y-61555333D01*
X108862761Y-61555333D01*
X108767523Y-61602952D01*
X108719904Y-61650571D01*
X108672285Y-61745809D01*
%TO.C,D1*%
X80811380Y-61317095D02*
X79811380Y-61317095D01*
X79811380Y-61079000D01*
X79859000Y-60936142D01*
X79954238Y-60840904D01*
X80049476Y-60793285D01*
X80239952Y-60745666D01*
X80382809Y-60745666D01*
X80573285Y-60793285D01*
X80668523Y-60840904D01*
X80763761Y-60936142D01*
X80811380Y-61079000D01*
X80811380Y-61317095D01*
X80811380Y-59793285D02*
X80811380Y-60364714D01*
X80811380Y-60079000D02*
X79811380Y-60079000D01*
X79954238Y-60174238D01*
X80049476Y-60269476D01*
X80097095Y-60364714D01*
%TO.C,J4*%
X120834666Y-49262380D02*
X120834666Y-49976666D01*
X120787047Y-50119523D01*
X120691809Y-50214761D01*
X120548952Y-50262380D01*
X120453714Y-50262380D01*
X121739428Y-49595714D02*
X121739428Y-50262380D01*
X121501333Y-49214761D02*
X121263238Y-49929047D01*
X121882285Y-49929047D01*
%TO.C,J1*%
X76422380Y-56213333D02*
X77136666Y-56213333D01*
X77279523Y-56260952D01*
X77374761Y-56356190D01*
X77422380Y-56499047D01*
X77422380Y-56594285D01*
X77422380Y-55213333D02*
X77422380Y-55784761D01*
X77422380Y-55499047D02*
X76422380Y-55499047D01*
X76565238Y-55594285D01*
X76660476Y-55689523D01*
X76708095Y-55784761D01*
%TO.C,R7*%
X110323333Y-49320380D02*
X109990000Y-48844190D01*
X109751904Y-49320380D02*
X109751904Y-48320380D01*
X110132857Y-48320380D01*
X110228095Y-48368000D01*
X110275714Y-48415619D01*
X110323333Y-48510857D01*
X110323333Y-48653714D01*
X110275714Y-48748952D01*
X110228095Y-48796571D01*
X110132857Y-48844190D01*
X109751904Y-48844190D01*
X110656666Y-48320380D02*
X111323333Y-48320380D01*
X110894761Y-49320380D01*
%TO.C,C11*%
X88529380Y-53199695D02*
X88529380Y-53267039D01*
X88462036Y-53401726D01*
X88394693Y-53469069D01*
X88260006Y-53536413D01*
X88125319Y-53536413D01*
X88024304Y-53502741D01*
X87855945Y-53401726D01*
X87754930Y-53300711D01*
X87653914Y-53132352D01*
X87620243Y-53031337D01*
X87620243Y-52896650D01*
X87687586Y-52761963D01*
X87754930Y-52694619D01*
X87889617Y-52627276D01*
X87956960Y-52627276D01*
X89270159Y-52593604D02*
X88866098Y-52997665D01*
X89068128Y-52795634D02*
X88361021Y-52088527D01*
X88394693Y-52256886D01*
X88394693Y-52391573D01*
X88361021Y-52492589D01*
X89943594Y-51920169D02*
X89539533Y-52324230D01*
X89741563Y-52122199D02*
X89034456Y-51415092D01*
X89068128Y-51583451D01*
X89068128Y-51718138D01*
X89034456Y-51819153D01*
%TO.C,C9*%
X93094166Y-62854731D02*
X93026823Y-62854731D01*
X92892136Y-62787387D01*
X92824792Y-62720044D01*
X92757449Y-62585356D01*
X92757449Y-62450669D01*
X92791120Y-62349654D01*
X92892136Y-62181295D01*
X92993151Y-62080280D01*
X93161510Y-61979265D01*
X93262525Y-61945593D01*
X93397212Y-61945593D01*
X93531899Y-62012937D01*
X93599243Y-62080280D01*
X93666586Y-62214967D01*
X93666586Y-62282311D01*
X93363540Y-63258792D02*
X93498227Y-63393479D01*
X93599243Y-63427150D01*
X93666586Y-63427150D01*
X93834945Y-63393479D01*
X94003304Y-63292463D01*
X94272678Y-63023089D01*
X94306349Y-62922074D01*
X94306349Y-62854731D01*
X94272678Y-62753715D01*
X94137991Y-62619028D01*
X94036975Y-62585356D01*
X93969632Y-62585356D01*
X93868617Y-62619028D01*
X93700258Y-62787387D01*
X93666586Y-62888402D01*
X93666586Y-62955746D01*
X93700258Y-63056761D01*
X93834945Y-63191448D01*
X93935960Y-63225120D01*
X94003304Y-63225120D01*
X94104319Y-63191448D01*
%TO.C,U2*%
X97732281Y-59439777D02*
X98304701Y-60012197D01*
X98405716Y-60045869D01*
X98473060Y-60045869D01*
X98574075Y-60012197D01*
X98708762Y-59877510D01*
X98742434Y-59776495D01*
X98742434Y-59709151D01*
X98708762Y-59608136D01*
X98136342Y-59035716D01*
X98506732Y-58800014D02*
X98506732Y-58732671D01*
X98540403Y-58631655D01*
X98708762Y-58463297D01*
X98809777Y-58429625D01*
X98877121Y-58429625D01*
X98978136Y-58463297D01*
X99045480Y-58530640D01*
X99112823Y-58665327D01*
X99112823Y-59473449D01*
X99550556Y-59035716D01*
%TO.C,D5*%
X107513523Y-51252380D02*
X107180190Y-50776190D01*
X106942095Y-51252380D02*
X106942095Y-50252380D01*
X107323047Y-50252380D01*
X107418285Y-50300000D01*
X107465904Y-50347619D01*
X107513523Y-50442857D01*
X107513523Y-50585714D01*
X107465904Y-50680952D01*
X107418285Y-50728571D01*
X107323047Y-50776190D01*
X106942095Y-50776190D01*
X108465904Y-50300000D02*
X108370666Y-50252380D01*
X108227809Y-50252380D01*
X108084952Y-50300000D01*
X107989714Y-50395238D01*
X107942095Y-50490476D01*
X107894476Y-50680952D01*
X107894476Y-50823809D01*
X107942095Y-51014285D01*
X107989714Y-51109523D01*
X108084952Y-51204761D01*
X108227809Y-51252380D01*
X108323047Y-51252380D01*
X108465904Y-51204761D01*
X108513523Y-51157142D01*
X108513523Y-50823809D01*
X108323047Y-50823809D01*
X109275428Y-50728571D02*
X109418285Y-50776190D01*
X109465904Y-50823809D01*
X109513523Y-50919047D01*
X109513523Y-51061904D01*
X109465904Y-51157142D01*
X109418285Y-51204761D01*
X109323047Y-51252380D01*
X108942095Y-51252380D01*
X108942095Y-50252380D01*
X109275428Y-50252380D01*
X109370666Y-50300000D01*
X109418285Y-50347619D01*
X109465904Y-50442857D01*
X109465904Y-50538095D01*
X109418285Y-50633333D01*
X109370666Y-50680952D01*
X109275428Y-50728571D01*
X108942095Y-50728571D01*
%TO.C,R4*%
X107148333Y-58745380D02*
X106815000Y-58269190D01*
X106576904Y-58745380D02*
X106576904Y-57745380D01*
X106957857Y-57745380D01*
X107053095Y-57793000D01*
X107100714Y-57840619D01*
X107148333Y-57935857D01*
X107148333Y-58078714D01*
X107100714Y-58173952D01*
X107053095Y-58221571D01*
X106957857Y-58269190D01*
X106576904Y-58269190D01*
X108005476Y-58078714D02*
X108005476Y-58745380D01*
X107767380Y-57697761D02*
X107529285Y-58412047D01*
X108148333Y-58412047D01*
%TO.C,C12*%
X86479142Y-55856142D02*
X86431523Y-55903761D01*
X86288666Y-55951380D01*
X86193428Y-55951380D01*
X86050571Y-55903761D01*
X85955333Y-55808523D01*
X85907714Y-55713285D01*
X85860095Y-55522809D01*
X85860095Y-55379952D01*
X85907714Y-55189476D01*
X85955333Y-55094238D01*
X86050571Y-54999000D01*
X86193428Y-54951380D01*
X86288666Y-54951380D01*
X86431523Y-54999000D01*
X86479142Y-55046619D01*
X87431523Y-55951380D02*
X86860095Y-55951380D01*
X87145809Y-55951380D02*
X87145809Y-54951380D01*
X87050571Y-55094238D01*
X86955333Y-55189476D01*
X86860095Y-55237095D01*
X87812476Y-55046619D02*
X87860095Y-54999000D01*
X87955333Y-54951380D01*
X88193428Y-54951380D01*
X88288666Y-54999000D01*
X88336285Y-55046619D01*
X88383904Y-55141857D01*
X88383904Y-55237095D01*
X88336285Y-55379952D01*
X87764857Y-55951380D01*
X88383904Y-55951380D01*
%TO.C,F1*%
X72310666Y-61142571D02*
X71977333Y-61142571D01*
X71977333Y-61666380D02*
X71977333Y-60666380D01*
X72453523Y-60666380D01*
X73358285Y-61666380D02*
X72786857Y-61666380D01*
X73072571Y-61666380D02*
X73072571Y-60666380D01*
X72977333Y-60809238D01*
X72882095Y-60904476D01*
X72786857Y-60952095D01*
%TO.C,R3*%
X90240267Y-49986030D02*
X90341282Y-49413610D01*
X89836206Y-49581969D02*
X90543312Y-48874862D01*
X90812687Y-49144236D01*
X90846358Y-49245251D01*
X90846358Y-49312595D01*
X90812687Y-49413610D01*
X90711671Y-49514625D01*
X90610656Y-49548297D01*
X90543312Y-49548297D01*
X90442297Y-49514625D01*
X90172923Y-49245251D01*
X91183076Y-49514625D02*
X91620809Y-49952358D01*
X91115732Y-49986030D01*
X91216748Y-50087045D01*
X91250419Y-50188061D01*
X91250419Y-50255404D01*
X91216748Y-50356419D01*
X91048389Y-50524778D01*
X90947374Y-50558450D01*
X90880030Y-50558450D01*
X90779015Y-50524778D01*
X90576984Y-50322748D01*
X90543312Y-50221732D01*
X90543312Y-50154389D01*
%TO.C,C3*%
X88526686Y-51475189D02*
X88526686Y-51542532D01*
X88459342Y-51677219D01*
X88391999Y-51744563D01*
X88257311Y-51811906D01*
X88122624Y-51811906D01*
X88021609Y-51778235D01*
X87853250Y-51677219D01*
X87752235Y-51576204D01*
X87651220Y-51407845D01*
X87617548Y-51306830D01*
X87617548Y-51172143D01*
X87684892Y-51037456D01*
X87752235Y-50970112D01*
X87886922Y-50902769D01*
X87954266Y-50902769D01*
X88122624Y-50599723D02*
X88560357Y-50161990D01*
X88594029Y-50667067D01*
X88695044Y-50566051D01*
X88796060Y-50532380D01*
X88863403Y-50532380D01*
X88964418Y-50566051D01*
X89132777Y-50734410D01*
X89166449Y-50835425D01*
X89166449Y-50902769D01*
X89132777Y-51003784D01*
X88930747Y-51205815D01*
X88829731Y-51239487D01*
X88762388Y-51239487D01*
%TO.C,R1*%
X69683333Y-62682380D02*
X69350000Y-62206190D01*
X69111904Y-62682380D02*
X69111904Y-61682380D01*
X69492857Y-61682380D01*
X69588095Y-61730000D01*
X69635714Y-61777619D01*
X69683333Y-61872857D01*
X69683333Y-62015714D01*
X69635714Y-62110952D01*
X69588095Y-62158571D01*
X69492857Y-62206190D01*
X69111904Y-62206190D01*
X70635714Y-62682380D02*
X70064285Y-62682380D01*
X70350000Y-62682380D02*
X70350000Y-61682380D01*
X70254761Y-61825238D01*
X70159523Y-61920476D01*
X70064285Y-61968095D01*
%TO.C,D3*%
X115117809Y-62428380D02*
X115117809Y-61428380D01*
X115498761Y-61428380D01*
X115594000Y-61476000D01*
X115641619Y-61523619D01*
X115689238Y-61618857D01*
X115689238Y-61761714D01*
X115641619Y-61856952D01*
X115594000Y-61904571D01*
X115498761Y-61952190D01*
X115117809Y-61952190D01*
X116260666Y-62428380D02*
X116165428Y-62380761D01*
X116117809Y-62333142D01*
X116070190Y-62237904D01*
X116070190Y-61952190D01*
X116117809Y-61856952D01*
X116165428Y-61809333D01*
X116260666Y-61761714D01*
X116403523Y-61761714D01*
X116498761Y-61809333D01*
X116546380Y-61856952D01*
X116594000Y-61952190D01*
X116594000Y-62237904D01*
X116546380Y-62333142D01*
X116498761Y-62380761D01*
X116403523Y-62428380D01*
X116260666Y-62428380D01*
X116927333Y-61761714D02*
X117117809Y-62428380D01*
X117308285Y-61952190D01*
X117498761Y-62428380D01*
X117689238Y-61761714D01*
X118451142Y-62380761D02*
X118355904Y-62428380D01*
X118165428Y-62428380D01*
X118070190Y-62380761D01*
X118022571Y-62285523D01*
X118022571Y-61904571D01*
X118070190Y-61809333D01*
X118165428Y-61761714D01*
X118355904Y-61761714D01*
X118451142Y-61809333D01*
X118498761Y-61904571D01*
X118498761Y-61999809D01*
X118022571Y-62095047D01*
X118927333Y-62428380D02*
X118927333Y-61761714D01*
X118927333Y-61952190D02*
X118974952Y-61856952D01*
X119022571Y-61809333D01*
X119117809Y-61761714D01*
X119213047Y-61761714D01*
%TO.C,C1*%
X71969333Y-51157142D02*
X71921714Y-51204761D01*
X71778857Y-51252380D01*
X71683619Y-51252380D01*
X71540761Y-51204761D01*
X71445523Y-51109523D01*
X71397904Y-51014285D01*
X71350285Y-50823809D01*
X71350285Y-50680952D01*
X71397904Y-50490476D01*
X71445523Y-50395238D01*
X71540761Y-50300000D01*
X71683619Y-50252380D01*
X71778857Y-50252380D01*
X71921714Y-50300000D01*
X71969333Y-50347619D01*
X72921714Y-51252380D02*
X72350285Y-51252380D01*
X72636000Y-51252380D02*
X72636000Y-50252380D01*
X72540761Y-50395238D01*
X72445523Y-50490476D01*
X72350285Y-50538095D01*
%TO.C,U1*%
X77724095Y-54062380D02*
X77724095Y-54871904D01*
X77771714Y-54967142D01*
X77819333Y-55014761D01*
X77914571Y-55062380D01*
X78105047Y-55062380D01*
X78200285Y-55014761D01*
X78247904Y-54967142D01*
X78295523Y-54871904D01*
X78295523Y-54062380D01*
X79295523Y-55062380D02*
X78724095Y-55062380D01*
X79009809Y-55062380D02*
X79009809Y-54062380D01*
X78914571Y-54205238D01*
X78819333Y-54300476D01*
X78724095Y-54348095D01*
%TO.C,R2*%
X69683333Y-49982380D02*
X69350000Y-49506190D01*
X69111904Y-49982380D02*
X69111904Y-48982380D01*
X69492857Y-48982380D01*
X69588095Y-49030000D01*
X69635714Y-49077619D01*
X69683333Y-49172857D01*
X69683333Y-49315714D01*
X69635714Y-49410952D01*
X69588095Y-49458571D01*
X69492857Y-49506190D01*
X69111904Y-49506190D01*
X70064285Y-49077619D02*
X70111904Y-49030000D01*
X70207142Y-48982380D01*
X70445238Y-48982380D01*
X70540476Y-49030000D01*
X70588095Y-49077619D01*
X70635714Y-49172857D01*
X70635714Y-49268095D01*
X70588095Y-49410952D01*
X70016666Y-49982380D01*
X70635714Y-49982380D01*
%TO.C,R5*%
X87209333Y-57856380D02*
X86876000Y-57380190D01*
X86637904Y-57856380D02*
X86637904Y-56856380D01*
X87018857Y-56856380D01*
X87114095Y-56904000D01*
X87161714Y-56951619D01*
X87209333Y-57046857D01*
X87209333Y-57189714D01*
X87161714Y-57284952D01*
X87114095Y-57332571D01*
X87018857Y-57380190D01*
X86637904Y-57380190D01*
X88114095Y-56856380D02*
X87637904Y-56856380D01*
X87590285Y-57332571D01*
X87637904Y-57284952D01*
X87733142Y-57237333D01*
X87971238Y-57237333D01*
X88066476Y-57284952D01*
X88114095Y-57332571D01*
X88161714Y-57427809D01*
X88161714Y-57665904D01*
X88114095Y-57761142D01*
X88066476Y-57808761D01*
X87971238Y-57856380D01*
X87733142Y-57856380D01*
X87637904Y-57808761D01*
X87590285Y-57761142D01*
D14*
%TO.C,R8*%
X113742441Y-52198000D02*
X113435159Y-52198000D01*
X113742441Y-52958000D02*
X113435159Y-52958000D01*
%TO.C,C10*%
X100914810Y-57328307D02*
X100762307Y-57480810D01*
X100405693Y-56819190D02*
X100253190Y-56971693D01*
%TO.C,C2*%
X79134580Y-50040000D02*
X78853420Y-50040000D01*
X79134580Y-49020000D02*
X78853420Y-49020000D01*
%TO.C,D4*%
X112484000Y-50773000D02*
X114769000Y-50773000D01*
X114769000Y-50773000D02*
X114769000Y-49303000D01*
X114769000Y-49303000D02*
X112484000Y-49303000D01*
%TO.C,C7*%
X103018000Y-58840164D02*
X103018000Y-59055836D01*
X103738000Y-58840164D02*
X103738000Y-59055836D01*
%TO.C,R6*%
X110336359Y-62102000D02*
X110643641Y-62102000D01*
X110336359Y-61342000D02*
X110643641Y-61342000D01*
%TO.C,D1*%
X79359000Y-58329000D02*
X77359000Y-58329000D01*
X79359000Y-58329000D02*
X79359000Y-62229000D01*
X77359000Y-58329000D02*
X77359000Y-62229000D01*
%TO.C,R10*%
X113740441Y-51942000D02*
X113433159Y-51942000D01*
X113740441Y-51182000D02*
X113433159Y-51182000D01*
%TO.C,C5*%
X102891000Y-54375164D02*
X102891000Y-54590836D01*
X103611000Y-54375164D02*
X103611000Y-54590836D01*
%TO.C,J4*%
X118223000Y-58430000D02*
X120883000Y-58430000D01*
X117825929Y-55000000D02*
X118223000Y-55000000D01*
X117893000Y-51700000D02*
X118223000Y-51700000D01*
X126883000Y-60080000D02*
X120883000Y-60080000D01*
X117825929Y-60080000D02*
X118223000Y-60080000D01*
X115513000Y-52080000D02*
X115513000Y-50810000D01*
X117825929Y-56780000D02*
X118223000Y-56780000D01*
X120883000Y-51700000D02*
X126883000Y-51700000D01*
X120883000Y-61030000D02*
X120883000Y-50750000D01*
X126883000Y-55000000D02*
X120883000Y-55000000D01*
X117893000Y-52460000D02*
X118223000Y-52460000D01*
X120883000Y-52360000D02*
X126883000Y-52360000D01*
X120883000Y-50750000D02*
X118223000Y-50750000D01*
X118223000Y-55890000D02*
X120883000Y-55890000D01*
X120883000Y-59320000D02*
X126883000Y-59320000D01*
X120883000Y-51760000D02*
X126883000Y-51760000D01*
X120883000Y-52240000D02*
X126883000Y-52240000D01*
X115513000Y-50810000D02*
X116783000Y-50810000D01*
X120883000Y-52120000D02*
X126883000Y-52120000D01*
X118223000Y-61030000D02*
X120883000Y-61030000D01*
X120883000Y-52000000D02*
X126883000Y-52000000D01*
X120883000Y-51880000D02*
X126883000Y-51880000D01*
X117825929Y-57540000D02*
X118223000Y-57540000D01*
X126883000Y-52460000D02*
X120883000Y-52460000D01*
X118223000Y-50750000D02*
X118223000Y-61030000D01*
X118223000Y-53350000D02*
X120883000Y-53350000D01*
X126883000Y-57540000D02*
X120883000Y-57540000D01*
X126883000Y-51700000D02*
X126883000Y-52460000D01*
X126883000Y-56780000D02*
X126883000Y-57540000D01*
X120883000Y-54240000D02*
X126883000Y-54240000D01*
X117825929Y-59320000D02*
X118223000Y-59320000D01*
X117825929Y-54240000D02*
X118223000Y-54240000D01*
X126883000Y-59320000D02*
X126883000Y-60080000D01*
X120883000Y-56780000D02*
X126883000Y-56780000D01*
X126883000Y-54240000D02*
X126883000Y-55000000D01*
%TO.C,J1*%
X73060000Y-60350000D02*
X71260000Y-60350000D01*
X67550000Y-60350000D02*
X67550000Y-51410000D01*
X67550000Y-60350000D02*
X69010000Y-60350000D01*
X73060000Y-51410000D02*
X71260000Y-51410000D01*
X67550000Y-51410000D02*
X69010000Y-51410000D01*
%TO.C,R7*%
X110336359Y-49658000D02*
X110643641Y-49658000D01*
X110336359Y-50418000D02*
X110643641Y-50418000D01*
%TO.C,C11*%
X89840307Y-54940810D02*
X89992810Y-54788307D01*
X89331190Y-54431693D02*
X89483693Y-54279190D01*
%TO.C,C9*%
X94615610Y-61721493D02*
X94463107Y-61568990D01*
X94106493Y-62230610D02*
X93953990Y-62078107D01*
%TO.C,FB1*%
X101059727Y-50808478D02*
X100829522Y-50578273D01*
X100338478Y-51529727D02*
X100108273Y-51299522D01*
%TO.C,U2*%
X95250000Y-50774689D02*
X95585876Y-51110565D01*
X95250000Y-60985311D02*
X94914124Y-60649435D01*
X90480565Y-55544124D02*
X90144689Y-55880000D01*
X100019435Y-56215876D02*
X100355311Y-55880000D01*
X94914124Y-51110565D02*
X95250000Y-50774689D01*
X90144689Y-55880000D02*
X90480565Y-56215876D01*
X95585876Y-60649435D02*
X95250000Y-60985311D01*
%TO.C,D5*%
X108776000Y-55344000D02*
X108776000Y-51844000D01*
X109026000Y-55594000D02*
X108776000Y-55094000D01*
X112276000Y-51844000D02*
X112276000Y-55094000D01*
X109026000Y-55344000D02*
X108776000Y-55094000D01*
X108776000Y-55344000D02*
X109026000Y-55594000D01*
X109026000Y-55594000D02*
X109026000Y-55344000D01*
%TO.C,R4*%
X107443000Y-56361359D02*
X107443000Y-56668641D01*
X108203000Y-56361359D02*
X108203000Y-56668641D01*
%TO.C,C12*%
X87482000Y-53955836D02*
X87482000Y-53740164D01*
X86762000Y-53955836D02*
X86762000Y-53740164D01*
%TO.C,C8*%
X103018000Y-57051836D02*
X103018000Y-56836164D01*
X103738000Y-57051836D02*
X103738000Y-56836164D01*
%TO.C,SW1*%
X84320000Y-52090000D02*
X83320000Y-52090000D01*
X82570000Y-53840000D02*
X82570000Y-52840000D01*
X85495000Y-51665000D02*
X82145000Y-51665000D01*
X85070000Y-53840000D02*
X85070000Y-52840000D01*
X85495000Y-53840000D02*
X85495000Y-52840000D01*
X85495000Y-55015000D02*
X82145000Y-55015000D01*
X84319999Y-54589998D02*
X83320000Y-54590000D01*
X85495000Y-51665000D02*
X85495000Y-51840000D01*
X82145000Y-53840000D02*
X82145000Y-52840000D01*
X85495000Y-55015000D02*
X85495000Y-54840000D01*
X82145000Y-51665000D02*
X82145000Y-51840000D01*
X82145000Y-55015000D02*
X82145000Y-54840000D01*
X84944038Y-52423975D02*
G75*
G03*
X84320000Y-52090000I-624037J-416023D01*
G01*
X83320000Y-52090000D02*
G75*
G03*
X82695962Y-52423975I0J-750000D01*
G01*
X84319999Y-54589998D02*
G75*
G03*
X84944037Y-54256023I1J749998D01*
G01*
X82695962Y-54256025D02*
G75*
G03*
X83320000Y-54590000I624038J416025D01*
G01*
X84721388Y-53340000D02*
G75*
G03*
X84721388Y-53340000I-901388J0D01*
G01*
%TO.C,F1*%
X75275221Y-62740000D02*
X75600779Y-62740000D01*
X75275221Y-61720000D02*
X75600779Y-61720000D01*
%TO.C,R3*%
X89755940Y-50923341D02*
X89538659Y-50706060D01*
X90293341Y-50385940D02*
X90076060Y-50168659D01*
%TO.C,kibuzzard-62409F94*%
G36*
X97405825Y-62525275D02*
G01*
X97437575Y-62562581D01*
X97445512Y-62629256D01*
X97437575Y-62695137D01*
X97410587Y-62729269D01*
X97329625Y-62743556D01*
X97026412Y-62743556D01*
X97026412Y-63542069D01*
X97024031Y-63596044D01*
X97009744Y-63636525D01*
X96967675Y-63669069D01*
X96888300Y-63678594D01*
X96809719Y-63669069D01*
X96768444Y-63636525D01*
X96754156Y-63595250D01*
X96751775Y-63540481D01*
X96751775Y-62743556D01*
X96446975Y-62743556D01*
X96372362Y-62731650D01*
X96340612Y-62694344D01*
X96332675Y-62627669D01*
X96340612Y-62561787D01*
X96367600Y-62527656D01*
X96448562Y-62513369D01*
X97331212Y-62513369D01*
X97405825Y-62525275D01*
G37*
G36*
X98727617Y-62527259D02*
G01*
X98769487Y-62559406D01*
X98784569Y-62602269D01*
X98786950Y-62657831D01*
X98786950Y-63538894D01*
X98771869Y-63625809D01*
X98726625Y-63667481D01*
X98650425Y-63677006D01*
X98577400Y-63669069D01*
X98536125Y-63650019D01*
X98513900Y-63618269D01*
X98505962Y-63535719D01*
X98505962Y-63003906D01*
X98457147Y-63067605D01*
X98390075Y-63160275D01*
X98327766Y-63247389D01*
X98293237Y-63294419D01*
X98264662Y-63331725D01*
X98225769Y-63360300D01*
X98159094Y-63378556D01*
X98094006Y-63361888D01*
X98051937Y-63329344D01*
X98039237Y-63311881D01*
X97992009Y-63249770D01*
X97913825Y-63142812D01*
X97841594Y-63043395D01*
X97812225Y-63003906D01*
X97812225Y-63538894D01*
X97809844Y-63593663D01*
X97794762Y-63634144D01*
X97751900Y-63666291D01*
X97670937Y-63677006D01*
X97592356Y-63666291D01*
X97550287Y-63634144D01*
X97535206Y-63592869D01*
X97532825Y-63535719D01*
X97532825Y-62654656D01*
X97535206Y-62599887D01*
X97550287Y-62557819D01*
X97593150Y-62526862D01*
X97674112Y-62516544D01*
X97747931Y-62526862D01*
X97788412Y-62548294D01*
X97797937Y-62557819D01*
X98158300Y-63030894D01*
X98259074Y-62897734D01*
X98345498Y-62784006D01*
X98417570Y-62689708D01*
X98475292Y-62614842D01*
X98518662Y-62559406D01*
X98564105Y-62527259D01*
X98646456Y-62516544D01*
X98727617Y-62527259D01*
G37*
G36*
X110351888Y-62514956D02*
G01*
X110463509Y-62525325D01*
X110568184Y-62556430D01*
X110665915Y-62608271D01*
X110756700Y-62680850D01*
X110833098Y-62768559D01*
X110887669Y-62865794D01*
X110920411Y-62972553D01*
X110931325Y-63088837D01*
X110920659Y-63205568D01*
X110888661Y-63313667D01*
X110835331Y-63413134D01*
X110760669Y-63503969D01*
X110670826Y-63579673D01*
X110571955Y-63633747D01*
X110464054Y-63666191D01*
X110347125Y-63677006D01*
X110056613Y-63677006D01*
X109978031Y-63667084D01*
X109935963Y-63637319D01*
X109916913Y-63535719D01*
X109916913Y-63396019D01*
X110197900Y-63396019D01*
X110351888Y-63396019D01*
X110460631Y-63374786D01*
X110558263Y-63311088D01*
X110627319Y-63215242D01*
X110650338Y-63097569D01*
X110627914Y-62979498D01*
X110560644Y-62882462D01*
X110463211Y-62817573D01*
X110350300Y-62795944D01*
X110197900Y-62795944D01*
X110197900Y-63396019D01*
X109916913Y-63396019D01*
X109916913Y-62653069D01*
X109919294Y-62597506D01*
X109934375Y-62556231D01*
X109976444Y-62524084D01*
X110058200Y-62513369D01*
X110351888Y-62514956D01*
G37*
G36*
X111309150Y-63351569D02*
G01*
X111361538Y-63426181D01*
X111466313Y-63456344D01*
X111548466Y-63451581D01*
X111610775Y-63437294D01*
X111628238Y-63430944D01*
X111691738Y-63413481D01*
X111779050Y-63484919D01*
X111799688Y-63557944D01*
X111778554Y-63619757D01*
X111715153Y-63663909D01*
X111609485Y-63690401D01*
X111461550Y-63699231D01*
X111350623Y-63689111D01*
X111252794Y-63658750D01*
X111171633Y-63611720D01*
X111110713Y-63551594D01*
X111055150Y-63462517D01*
X111021813Y-63366738D01*
X111010700Y-63264256D01*
X111017302Y-63207106D01*
X111305975Y-63207106D01*
X111506000Y-63207106D01*
X111566325Y-63156306D01*
X111538544Y-63097569D01*
X111459169Y-63075344D01*
X111356775Y-63117412D01*
X111305975Y-63207106D01*
X111017302Y-63207106D01*
X111025076Y-63139814D01*
X111068203Y-63033187D01*
X111140081Y-62944375D01*
X111233479Y-62877788D01*
X111341165Y-62837836D01*
X111463138Y-62824519D01*
X111566127Y-62834242D01*
X111654431Y-62863412D01*
X111728052Y-62912030D01*
X111786988Y-62980094D01*
X111827469Y-63066414D01*
X111840963Y-63160275D01*
X111828858Y-63245206D01*
X111792544Y-63304738D01*
X111685388Y-63351569D01*
X111309150Y-63351569D01*
G37*
G36*
X106144020Y-62509598D02*
G01*
X106220419Y-62526862D01*
X106337100Y-62573694D01*
X106375200Y-62595919D01*
X106419650Y-62624494D01*
X106460925Y-62699900D01*
X106427588Y-62788006D01*
X106368850Y-62852300D01*
X106316462Y-62873731D01*
X106235500Y-62838806D01*
X106157712Y-62798325D01*
X106057700Y-62784831D01*
X105955306Y-62802691D01*
X105854500Y-62856269D01*
X105775125Y-62954694D01*
X105751312Y-63022361D01*
X105743375Y-63098362D01*
X105751312Y-63174364D01*
X105775125Y-63242031D01*
X105856087Y-63342044D01*
X105954909Y-63394431D01*
X106057700Y-63411894D01*
X106150569Y-63399194D01*
X106213275Y-63373794D01*
X106241850Y-63353156D01*
X106318050Y-63321406D01*
X106369247Y-63343631D01*
X106424412Y-63410306D01*
X106459338Y-63499206D01*
X106437906Y-63554769D01*
X106387900Y-63594456D01*
X106333131Y-63627794D01*
X106225975Y-63669069D01*
X106146402Y-63688119D01*
X106069606Y-63694469D01*
X105993803Y-63689508D01*
X105917206Y-63674625D01*
X105839022Y-63648034D01*
X105758456Y-63607950D01*
X105680867Y-63555959D01*
X105611612Y-63493650D01*
X105552280Y-63416656D01*
X105504456Y-63320613D01*
X105472905Y-63210480D01*
X105462387Y-63091219D01*
X105472706Y-62973148D01*
X105503662Y-62866587D01*
X105550692Y-62774512D01*
X105609231Y-62699900D01*
X105678089Y-62639377D01*
X105756075Y-62589569D01*
X105859968Y-62541944D01*
X105964214Y-62513369D01*
X106068812Y-62503844D01*
X106144020Y-62509598D01*
G37*
G36*
X105066108Y-62509598D02*
G01*
X105142506Y-62526862D01*
X105259187Y-62573694D01*
X105297287Y-62595919D01*
X105341737Y-62624494D01*
X105383012Y-62699900D01*
X105349675Y-62788006D01*
X105290937Y-62852300D01*
X105238550Y-62873731D01*
X105157587Y-62838806D01*
X105079800Y-62798325D01*
X104979787Y-62784831D01*
X104877394Y-62802691D01*
X104776587Y-62856269D01*
X104697212Y-62954694D01*
X104673400Y-63022361D01*
X104665462Y-63098362D01*
X104673400Y-63174364D01*
X104697212Y-63242031D01*
X104778175Y-63342044D01*
X104876997Y-63394431D01*
X104979787Y-63411894D01*
X105072656Y-63399194D01*
X105135362Y-63373794D01*
X105163937Y-63353156D01*
X105240137Y-63321406D01*
X105291334Y-63343631D01*
X105346500Y-63410306D01*
X105381425Y-63499206D01*
X105359994Y-63554769D01*
X105309987Y-63594456D01*
X105255219Y-63627794D01*
X105148062Y-63669069D01*
X105068489Y-63688119D01*
X104991694Y-63694469D01*
X104915891Y-63689508D01*
X104839294Y-63674625D01*
X104761109Y-63648034D01*
X104680544Y-63607950D01*
X104602955Y-63555959D01*
X104533700Y-63493650D01*
X104474367Y-63416656D01*
X104426544Y-63320613D01*
X104394992Y-63210480D01*
X104384475Y-63091219D01*
X104394794Y-62973148D01*
X104425750Y-62866587D01*
X104472780Y-62774512D01*
X104531319Y-62699900D01*
X104600177Y-62639377D01*
X104678162Y-62589569D01*
X104782056Y-62541944D01*
X104886301Y-62513369D01*
X104990900Y-62503844D01*
X105066108Y-62509598D01*
G37*
G36*
X114506728Y-62836601D02*
G01*
X114607799Y-62877612D01*
X114700050Y-62945962D01*
X114773251Y-63035480D01*
X114817172Y-63139990D01*
X114831813Y-63259494D01*
X114814747Y-63383914D01*
X114763550Y-63493650D01*
X114687945Y-63582550D01*
X114597656Y-63644463D01*
X114498239Y-63680777D01*
X114395250Y-63692881D01*
X114292063Y-63679983D01*
X114192050Y-63641288D01*
X114101364Y-63577391D01*
X114026156Y-63488888D01*
X113975555Y-63381533D01*
X113958688Y-63261081D01*
X113958983Y-63258700D01*
X114239675Y-63258700D01*
X114252375Y-63326169D01*
X114290475Y-63374588D01*
X114393663Y-63413481D01*
X114498437Y-63373794D01*
X114537728Y-63324581D01*
X114550825Y-63256319D01*
X114538522Y-63188453D01*
X114501613Y-63140431D01*
X114395250Y-63102331D01*
X114288888Y-63142019D01*
X114251978Y-63191033D01*
X114239675Y-63258700D01*
X113958983Y-63258700D01*
X113973504Y-63141490D01*
X114017954Y-63036715D01*
X114092038Y-62946756D01*
X114185171Y-62877965D01*
X114286771Y-62836690D01*
X114396838Y-62822931D01*
X114506728Y-62836601D01*
G37*
G36*
X100402672Y-62512222D02*
G01*
X100506124Y-62556408D01*
X100593525Y-62630050D01*
X100659671Y-62722566D01*
X100699358Y-62823372D01*
X100712587Y-62932469D01*
X100702666Y-63020575D01*
X100672900Y-63103919D01*
X100629244Y-63176944D01*
X100577650Y-63234094D01*
X100466525Y-63321803D01*
X100368100Y-63375381D01*
X100328412Y-63391256D01*
X100328412Y-63399194D01*
X100618925Y-63399194D01*
X100711794Y-63414275D01*
X100749100Y-63460313D01*
X100758625Y-63541275D01*
X100748306Y-63621444D01*
X100714175Y-63662719D01*
X100615750Y-63681769D01*
X99995037Y-63681769D01*
X99896612Y-63638906D01*
X99855337Y-63538894D01*
X99870220Y-63456542D01*
X99914869Y-63380938D01*
X99980552Y-63313866D01*
X100058537Y-63257113D01*
X100142675Y-63205916D01*
X100226812Y-63155512D01*
X100304798Y-63102133D01*
X100370481Y-63042006D01*
X100415130Y-62976522D01*
X100430012Y-62907069D01*
X100418900Y-62866587D01*
X100394294Y-62823725D01*
X100352225Y-62792769D01*
X100272850Y-62778481D01*
X100184744Y-62815787D01*
X100142675Y-62889606D01*
X100136325Y-62926119D01*
X100136325Y-62935644D01*
X100133944Y-62988031D01*
X100118862Y-63027719D01*
X100076000Y-63056294D01*
X99995037Y-63065819D01*
X99906534Y-63050737D01*
X99863275Y-63005494D01*
X99855337Y-62924531D01*
X99868478Y-62818257D01*
X99907901Y-62719567D01*
X99973606Y-62628462D01*
X100060566Y-62555702D01*
X100163753Y-62512046D01*
X100283169Y-62497494D01*
X100402672Y-62512222D01*
G37*
G36*
X104209850Y-62521306D02*
G01*
X104251125Y-62539562D01*
X104273350Y-62573694D01*
X104281287Y-62657831D01*
X104281287Y-63542069D01*
X104278906Y-63596838D01*
X104263825Y-63638906D01*
X104221756Y-63671053D01*
X104140000Y-63681769D01*
X104060228Y-63671450D01*
X104017762Y-63640494D01*
X104002681Y-63596838D01*
X104000300Y-63538894D01*
X104000300Y-62972156D01*
X103979662Y-62991206D01*
X103868537Y-63040419D01*
X103772494Y-62984856D01*
X103722487Y-62886431D01*
X103779637Y-62792769D01*
X104039987Y-62557819D01*
X104044750Y-62554644D01*
X104134444Y-62513369D01*
X104209850Y-62521306D01*
G37*
G36*
X107518200Y-62521306D02*
G01*
X107559475Y-62540356D01*
X107580113Y-62573694D01*
X107589638Y-62656244D01*
X107589638Y-63135669D01*
X107581502Y-63238062D01*
X107557094Y-63335694D01*
X107516414Y-63428563D01*
X107459463Y-63516669D01*
X107386834Y-63589892D01*
X107295950Y-63647638D01*
X107190580Y-63685142D01*
X107074494Y-63697644D01*
X106958606Y-63684944D01*
X106853831Y-63646844D01*
X106763939Y-63588106D01*
X106692700Y-63513494D01*
X106636443Y-63426578D01*
X106596259Y-63334106D01*
X106572149Y-63236078D01*
X106564113Y-63132494D01*
X106564113Y-62654656D01*
X106566494Y-62598300D01*
X106581575Y-62556231D01*
X106624438Y-62522894D01*
X106705400Y-62513369D01*
X106786363Y-62522894D01*
X106827638Y-62556231D01*
X106846688Y-62656244D01*
X106846688Y-63132494D01*
X106858594Y-63226950D01*
X106894313Y-63316644D01*
X106965750Y-63388081D01*
X107078463Y-63415069D01*
X107179666Y-63393638D01*
X107251500Y-63329344D01*
X107294363Y-63236872D01*
X107308650Y-63130906D01*
X107308650Y-62645131D01*
X107324525Y-62557819D01*
X107370563Y-62522894D01*
X107445969Y-62513369D01*
X107518200Y-62521306D01*
G37*
G36*
X115603338Y-62841981D02*
G01*
X115695413Y-62851506D01*
X115737481Y-62884844D01*
X115751769Y-62926912D01*
X115754150Y-62981681D01*
X115754150Y-63537306D01*
X115751769Y-63592075D01*
X115738275Y-63634144D01*
X115699977Y-63665100D01*
X115629531Y-63675419D01*
X115513644Y-63653988D01*
X115479513Y-63591281D01*
X115401130Y-63654384D01*
X115283456Y-63675419D01*
X115194115Y-63661484D01*
X115109184Y-63619680D01*
X115028663Y-63550006D01*
X114963399Y-63461900D01*
X114924240Y-63364798D01*
X114911481Y-63261081D01*
X115189000Y-63261081D01*
X115230275Y-63355538D01*
X115330288Y-63397606D01*
X115427919Y-63354744D01*
X115466813Y-63260288D01*
X115429506Y-63164244D01*
X115329494Y-63119794D01*
X115227894Y-63164244D01*
X115189000Y-63261081D01*
X114911481Y-63261081D01*
X114911188Y-63258700D01*
X114924328Y-63152690D01*
X114963751Y-63055853D01*
X115029456Y-62968187D01*
X115110860Y-62898955D01*
X115197378Y-62857415D01*
X115289013Y-62843569D01*
X115387438Y-62862619D01*
X115449350Y-62898337D01*
X115477925Y-62930881D01*
X115514041Y-62864206D01*
X115603338Y-62841981D01*
G37*
G36*
X99450878Y-62509841D02*
G01*
X99553536Y-62546883D01*
X99637850Y-62608619D01*
X99700468Y-62685789D01*
X99738039Y-62769133D01*
X99750562Y-62858650D01*
X99736804Y-62942699D01*
X99695529Y-63009639D01*
X99626737Y-63059469D01*
X99626737Y-63070581D01*
X99673569Y-63104712D01*
X99723575Y-63156306D01*
X99762866Y-63227744D01*
X99775962Y-63308706D01*
X99761851Y-63415333D01*
X99719518Y-63508731D01*
X99648962Y-63588900D01*
X99557064Y-63650195D01*
X99450701Y-63686972D01*
X99329875Y-63699231D01*
X99209931Y-63686884D01*
X99104097Y-63649842D01*
X99012375Y-63588106D01*
X98967528Y-63538497D01*
X98928237Y-63475394D01*
X98910775Y-63434119D01*
X98907600Y-63418244D01*
X98890137Y-63332519D01*
X98929031Y-63263463D01*
X99045712Y-63240444D01*
X99129850Y-63256319D01*
X99177475Y-63338869D01*
X99264787Y-63415069D01*
X99331462Y-63424594D01*
X99404487Y-63416061D01*
X99455287Y-63390463D01*
X99494975Y-63313469D01*
X99456081Y-63238062D01*
X99364006Y-63205519D01*
X99291775Y-63202344D01*
X99250500Y-63186469D01*
X99218353Y-63145591D01*
X99207637Y-63064231D01*
X99222322Y-62975728D01*
X99266375Y-62932469D01*
X99348925Y-62924531D01*
X99439412Y-62909053D01*
X99469575Y-62862619D01*
X99437825Y-62799119D01*
X99349719Y-62768956D01*
X99260025Y-62788006D01*
X99218750Y-62826106D01*
X99209225Y-62845156D01*
X99164775Y-62904687D01*
X99104450Y-62924531D01*
X99017137Y-62895956D01*
X98957606Y-62846347D01*
X98937762Y-62789594D01*
X98974275Y-62681644D01*
X99009200Y-62631637D01*
X99075081Y-62568931D01*
X99179856Y-62519719D01*
X99251095Y-62503050D01*
X99329875Y-62497494D01*
X99450878Y-62509841D01*
G37*
G36*
X108451297Y-63513494D02*
G01*
X108387356Y-63591281D01*
X108305247Y-63651253D01*
X108212378Y-63687237D01*
X108108750Y-63699231D01*
X107982456Y-63684503D01*
X107878739Y-63640317D01*
X107797600Y-63566675D01*
X107739392Y-63469749D01*
X107704467Y-63355714D01*
X107701421Y-63321406D01*
X107981750Y-63321406D01*
X107985719Y-63367444D01*
X108000800Y-63402369D01*
X108102400Y-63438881D01*
X108194078Y-63412291D01*
X108224638Y-63332519D01*
X108196856Y-63264256D01*
X108107956Y-63232506D01*
X108014294Y-63261875D01*
X107981750Y-63321406D01*
X107701421Y-63321406D01*
X107692825Y-63224569D01*
X107699715Y-63107284D01*
X107720384Y-62998001D01*
X107754833Y-62896718D01*
X107803061Y-62803437D01*
X107865069Y-62718156D01*
X107939015Y-62645004D01*
X108023057Y-62588108D01*
X108117196Y-62547468D01*
X108221431Y-62523084D01*
X108335763Y-62514956D01*
X108423869Y-62530037D01*
X108461175Y-62575281D01*
X108470700Y-62651481D01*
X108462763Y-62724506D01*
X108443713Y-62765781D01*
X108411963Y-62786419D01*
X108319888Y-62795944D01*
X108193681Y-62818169D01*
X108097638Y-62872144D01*
X108041281Y-62934056D01*
X108011913Y-62989619D01*
X108003975Y-63011844D01*
X108121450Y-62984856D01*
X108221198Y-62996410D01*
X108310892Y-63031070D01*
X108390531Y-63088837D01*
X108452708Y-63161069D01*
X108490015Y-63239121D01*
X108502450Y-63322994D01*
X108489662Y-63424065D01*
X108451297Y-63513494D01*
G37*
G36*
X116393913Y-62838012D02*
G01*
X116449475Y-62851506D01*
X116499481Y-62884050D01*
X116519325Y-62957869D01*
X116489163Y-63068994D01*
X116401850Y-63129319D01*
X116347081Y-63116619D01*
X116278025Y-63103919D01*
X116197856Y-63134081D01*
X116160550Y-63207106D01*
X116160550Y-63540481D01*
X116158169Y-63595250D01*
X116143088Y-63637319D01*
X116100225Y-63668275D01*
X116019263Y-63678594D01*
X115909725Y-63651606D01*
X115881150Y-63583344D01*
X115881150Y-62980094D01*
X115883531Y-62925325D01*
X115897025Y-62884844D01*
X115939094Y-62852697D01*
X116020850Y-62841981D01*
X116098241Y-62851109D01*
X116139913Y-62878494D01*
X116157375Y-62930881D01*
X116180394Y-62903894D01*
X116244688Y-62861031D01*
X116331206Y-62834044D01*
X116393913Y-62838012D01*
G37*
G36*
X102127050Y-62519719D02*
G01*
X102210394Y-62560200D01*
X102238175Y-62621319D01*
X102227062Y-62687994D01*
X102225475Y-62692756D01*
X102128637Y-63080106D01*
X102387400Y-63080106D01*
X102387400Y-62646719D01*
X102389781Y-62592744D01*
X102404862Y-62553056D01*
X102448519Y-62522100D01*
X102529481Y-62513369D01*
X102609650Y-62523687D01*
X102652512Y-62557025D01*
X102667594Y-62599094D01*
X102669975Y-62654656D01*
X102669975Y-63537306D01*
X102654894Y-63628588D01*
X102608856Y-63667481D01*
X102531862Y-63677006D01*
X102458837Y-63669069D01*
X102417562Y-63650019D01*
X102396925Y-63618269D01*
X102387400Y-63535719D01*
X102387400Y-63342044D01*
X101957187Y-63342044D01*
X101868684Y-63326963D01*
X101825425Y-63281719D01*
X101817487Y-63213456D01*
X101822250Y-63149956D01*
X101954012Y-62618144D01*
X101970681Y-62562581D01*
X101999256Y-62526069D01*
X102054025Y-62508606D01*
X102127050Y-62519719D01*
G37*
G36*
X101670644Y-62517337D02*
G01*
X101711919Y-62532419D01*
X101744462Y-62575281D01*
X101753987Y-62656244D01*
X101744462Y-62737206D01*
X101711125Y-62779275D01*
X101669056Y-62793562D01*
X101612700Y-62795944D01*
X101126925Y-62795944D01*
X101126925Y-62956281D01*
X101439662Y-62956281D01*
X101496019Y-62958662D01*
X101538087Y-62973744D01*
X101569044Y-63017003D01*
X101579362Y-63099156D01*
X101564281Y-63187659D01*
X101519037Y-63230919D01*
X101438075Y-63238856D01*
X101126925Y-63238856D01*
X101126925Y-63538894D01*
X101124544Y-63594456D01*
X101109462Y-63635731D01*
X101067394Y-63667878D01*
X100985637Y-63678594D01*
X100897531Y-63663513D01*
X100855462Y-63618269D01*
X100845937Y-63537306D01*
X100845937Y-62654656D01*
X100876100Y-62544325D01*
X100990400Y-62514956D01*
X101615875Y-62514956D01*
X101670644Y-62517337D01*
G37*
G36*
X95922108Y-62502058D02*
G01*
X96004856Y-62520512D01*
X96113600Y-62570519D01*
X96153287Y-62600681D01*
X96202500Y-62678469D01*
X96164400Y-62765781D01*
X96109631Y-62825312D01*
X96053275Y-62845156D01*
X95970725Y-62813406D01*
X95952469Y-62797531D01*
X95927862Y-62776894D01*
X95842931Y-62756256D01*
X95757206Y-62780862D01*
X95723075Y-62849125D01*
X95763556Y-62919769D01*
X95864362Y-62956281D01*
X95927466Y-62968386D01*
X95996125Y-62985650D01*
X96064784Y-63007677D01*
X96127887Y-63034069D01*
X96183252Y-63073161D01*
X96228694Y-63133287D01*
X96259055Y-63212067D01*
X96269175Y-63307119D01*
X96258856Y-63404155D01*
X96227900Y-63488888D01*
X96180275Y-63558539D01*
X96119950Y-63610331D01*
X96032285Y-63657074D01*
X95940739Y-63685120D01*
X95845312Y-63694469D01*
X95772684Y-63689905D01*
X95704025Y-63676213D01*
X95596075Y-63630969D01*
X95524637Y-63580963D01*
X95478600Y-63532544D01*
X95464312Y-63515081D01*
X95423037Y-63423800D01*
X95440103Y-63376770D01*
X95491300Y-63316644D01*
X95575437Y-63278544D01*
X95628619Y-63298388D01*
X95699262Y-63357919D01*
X95762762Y-63409513D01*
X95838962Y-63434119D01*
X95920983Y-63420713D01*
X95970196Y-63380497D01*
X95986600Y-63313469D01*
X95946119Y-63252350D01*
X95845312Y-63216631D01*
X95782606Y-63202145D01*
X95715137Y-63180912D01*
X95647669Y-63154123D01*
X95584962Y-63122969D01*
X95529598Y-63079908D01*
X95484156Y-63017400D01*
X95453795Y-62937827D01*
X95443675Y-62843569D01*
X95455228Y-62754404D01*
X95489889Y-62673177D01*
X95547656Y-62599887D01*
X95625356Y-62542120D01*
X95719812Y-62507460D01*
X95831025Y-62495906D01*
X95922108Y-62502058D01*
G37*
G36*
X109821663Y-63869094D02*
G01*
X109829600Y-63931800D01*
X109822456Y-63994506D01*
X109799438Y-64027844D01*
X109731175Y-64040544D01*
X108662788Y-64040544D01*
X108573888Y-63994506D01*
X108565950Y-63931006D01*
X108573094Y-63867506D01*
X108596113Y-63834169D01*
X108664375Y-63821469D01*
X109732763Y-63821469D01*
X109821663Y-63869094D01*
G37*
G36*
X113590388Y-62524658D02*
G01*
X113671879Y-62558524D01*
X113742788Y-62614969D01*
X113800114Y-62688347D01*
X113834510Y-62770897D01*
X113845975Y-62862619D01*
X113830894Y-62963028D01*
X113785650Y-63054706D01*
X113837685Y-63131788D01*
X113868906Y-63214867D01*
X113879313Y-63303944D01*
X113865819Y-63404044D01*
X113829571Y-63492680D01*
X113770569Y-63569850D01*
X113695163Y-63629381D01*
X113609702Y-63665100D01*
X113514188Y-63677006D01*
X113096675Y-63677006D01*
X113008569Y-63661925D01*
X112966500Y-63616681D01*
X112956975Y-63534131D01*
X112956975Y-63396019D01*
X113237963Y-63396019D01*
X113498313Y-63396019D01*
X113573322Y-63369031D01*
X113598325Y-63288069D01*
X113589594Y-63227744D01*
X113560225Y-63195994D01*
X113471325Y-63183294D01*
X113385600Y-63161069D01*
X113357025Y-63069787D01*
X113386394Y-62978506D01*
X113484025Y-62956281D01*
X113560225Y-62922944D01*
X113564988Y-62865794D01*
X113538794Y-62810231D01*
X113460213Y-62794356D01*
X113237963Y-62794356D01*
X113237963Y-63396019D01*
X112956975Y-63396019D01*
X112956975Y-62653069D01*
X112959356Y-62597506D01*
X112974438Y-62556231D01*
X113016506Y-62524084D01*
X113098263Y-62513369D01*
X113498313Y-62513369D01*
X113590388Y-62524658D01*
G37*
G36*
X103318667Y-62508209D02*
G01*
X103407369Y-62540356D01*
X103480394Y-62588378D01*
X103535956Y-62646719D01*
X103578223Y-62715775D01*
X103611362Y-62795944D01*
X103637821Y-62893134D01*
X103653696Y-62994205D01*
X103658987Y-63099156D01*
X103651248Y-63235384D01*
X103628031Y-63356728D01*
X103589336Y-63463190D01*
X103535162Y-63554769D01*
X103480195Y-63612713D01*
X103407369Y-63659544D01*
X103319064Y-63690500D01*
X103217662Y-63700819D01*
X103115864Y-63690302D01*
X103026369Y-63658750D01*
X102952153Y-63611720D01*
X102896194Y-63554769D01*
X102853530Y-63486903D01*
X102819200Y-63407131D01*
X102793624Y-63312058D01*
X102778278Y-63208870D01*
X102773198Y-63098362D01*
X103054150Y-63098362D01*
X103064171Y-63238311D01*
X103094234Y-63338273D01*
X103144340Y-63398251D01*
X103214487Y-63418244D01*
X103286024Y-63398797D01*
X103337122Y-63340456D01*
X103367780Y-63243222D01*
X103378000Y-63107094D01*
X103378000Y-63097569D01*
X103367880Y-62957968D01*
X103337519Y-62858253D01*
X103286917Y-62798424D01*
X103216075Y-62778481D01*
X103145233Y-62798474D01*
X103094631Y-62858452D01*
X103064270Y-62958414D01*
X103054150Y-63098362D01*
X102773198Y-63098362D01*
X102773162Y-63097569D01*
X102777308Y-62996851D01*
X102789743Y-62906363D01*
X102810469Y-62826106D01*
X102849958Y-62725498D01*
X102893812Y-62649100D01*
X102949177Y-62589966D01*
X103023194Y-62541150D01*
X103113086Y-62508408D01*
X103216075Y-62497494D01*
X103318667Y-62508209D01*
G37*
G36*
X112137031Y-62847537D02*
G01*
X112179100Y-62911831D01*
X112387063Y-63311881D01*
X112595025Y-62911831D01*
X112621219Y-62868175D01*
X112649000Y-62841187D01*
X112699800Y-62827694D01*
X112787113Y-62861031D01*
X112849025Y-62911831D01*
X112869663Y-62965806D01*
X112837913Y-63053119D01*
X112509300Y-63616681D01*
X112458500Y-63665100D01*
X112389444Y-63686531D01*
X112324356Y-63669863D01*
X112280700Y-63635731D01*
X112266413Y-63618269D01*
X111936213Y-63053119D01*
X111904463Y-62967394D01*
X111925100Y-62912228D01*
X111987013Y-62861031D01*
X112082263Y-62826106D01*
X112137031Y-62847537D01*
G37*
G36*
X117370225Y-62460981D02*
G01*
X117412294Y-62494319D01*
X117426581Y-62536387D01*
X117428963Y-62591156D01*
X117428963Y-63538894D01*
X117426581Y-63593663D01*
X117411500Y-63634144D01*
X117366058Y-63666291D01*
X117277356Y-63677006D01*
X117191433Y-63657559D01*
X117154325Y-63599219D01*
X117074553Y-63656369D01*
X116968588Y-63675419D01*
X116876160Y-63661572D01*
X116789376Y-63620033D01*
X116708238Y-63550800D01*
X116642974Y-63463135D01*
X116603815Y-63366297D01*
X116590861Y-63261081D01*
X116868575Y-63261081D01*
X116909850Y-63356331D01*
X117009863Y-63399194D01*
X117107494Y-63356331D01*
X117146388Y-63261875D01*
X117109081Y-63165831D01*
X117008275Y-63121381D01*
X116906675Y-63165037D01*
X116868575Y-63261081D01*
X116590861Y-63261081D01*
X116590763Y-63260288D01*
X116603903Y-63154190D01*
X116643326Y-63057087D01*
X116709031Y-62968981D01*
X116790435Y-62899308D01*
X116876953Y-62857503D01*
X116968588Y-62843569D01*
X117072966Y-62863412D01*
X117151150Y-62922944D01*
X117151150Y-62589569D01*
X117153531Y-62534800D01*
X117167819Y-62493525D01*
X117209888Y-62460981D01*
X117290056Y-62451456D01*
X117370225Y-62460981D01*
G37*
%TO.C,C3*%
X89204190Y-53034693D02*
X89356693Y-52882190D01*
X89713307Y-53543810D02*
X89865810Y-53391307D01*
%TO.C,C4*%
X98755810Y-51002693D02*
X98603307Y-50850190D01*
X98246693Y-51511810D02*
X98094190Y-51359307D01*
%TO.C,R1*%
X71601359Y-62610000D02*
X71908641Y-62610000D01*
X71601359Y-61850000D02*
X71908641Y-61850000D01*
%TO.C,Y2*%
X106031000Y-57257000D02*
X106031000Y-58607000D01*
X104281000Y-57257000D02*
X104281000Y-58607000D01*
%TO.C,R9*%
X113740441Y-53214000D02*
X113433159Y-53214000D01*
X113740441Y-53974000D02*
X113433159Y-53974000D01*
%TO.C,D3*%
X114769000Y-62457000D02*
X114769000Y-60987000D01*
X114769000Y-60987000D02*
X112484000Y-60987000D01*
X112484000Y-62457000D02*
X114769000Y-62457000D01*
%TO.C,G\u002A\u002A\u002A*%
G36*
X87076265Y-61387624D02*
G01*
X87107139Y-61310746D01*
X87153475Y-61241555D01*
X87211421Y-61184425D01*
X87277127Y-61143733D01*
X87346742Y-61123855D01*
X87368498Y-61122603D01*
X87376916Y-61120302D01*
X87389917Y-61112724D01*
X87408554Y-61098859D01*
X87433876Y-61077696D01*
X87466934Y-61048223D01*
X87508777Y-61009430D01*
X87560456Y-60960307D01*
X87623020Y-60899841D01*
X87697521Y-60827022D01*
X87785008Y-60740839D01*
X87886532Y-60640281D01*
X88003142Y-60524337D01*
X88135890Y-60391997D01*
X88285824Y-60242249D01*
X88358411Y-60169684D01*
X89311399Y-59216765D01*
X89381353Y-59283985D01*
X89403669Y-59305357D01*
X89443270Y-59343206D01*
X89498210Y-59395674D01*
X89566542Y-59460904D01*
X89646323Y-59537039D01*
X89735604Y-59622223D01*
X89832441Y-59714597D01*
X89934888Y-59812306D01*
X90026187Y-59899369D01*
X90601065Y-60447533D01*
X90491145Y-60566752D01*
X90446637Y-60615521D01*
X90407410Y-60659418D01*
X90377790Y-60693541D01*
X90362346Y-60712644D01*
X90357390Y-60717722D01*
X90350507Y-60719285D01*
X90340156Y-60715928D01*
X90324795Y-60706248D01*
X90302885Y-60688839D01*
X90272882Y-60662298D01*
X90233247Y-60625220D01*
X90182437Y-60576201D01*
X90118913Y-60513836D01*
X90041132Y-60436720D01*
X89947553Y-60343449D01*
X89847545Y-60243527D01*
X89351623Y-59747737D01*
X88617694Y-60481666D01*
X87883765Y-61215594D01*
X89258682Y-61215594D01*
X89258682Y-61653984D01*
X87817399Y-61653984D01*
X88574519Y-62411190D01*
X89331638Y-63168397D01*
X89823371Y-62676795D01*
X90315105Y-62185192D01*
X90454296Y-62324858D01*
X90593486Y-62464524D01*
X89962669Y-63095447D01*
X89855384Y-63202556D01*
X89753456Y-63303940D01*
X89658458Y-63398058D01*
X89571964Y-63483371D01*
X89495545Y-63558339D01*
X89430774Y-63621420D01*
X89379223Y-63671075D01*
X89342466Y-63705765D01*
X89322074Y-63723947D01*
X89318481Y-63726369D01*
X89307429Y-63717168D01*
X89278887Y-63690401D01*
X89234123Y-63647317D01*
X89174405Y-63589166D01*
X89100999Y-63517198D01*
X89015174Y-63432664D01*
X88918196Y-63336813D01*
X88811333Y-63230895D01*
X88695853Y-63116161D01*
X88573023Y-62993860D01*
X88444110Y-62865243D01*
X88349887Y-62771078D01*
X88194719Y-62615929D01*
X88057175Y-62478506D01*
X87936116Y-62357725D01*
X87830404Y-62252499D01*
X87738899Y-62161746D01*
X87660461Y-62084380D01*
X87593952Y-62019318D01*
X87538232Y-61965474D01*
X87492161Y-61921763D01*
X87454601Y-61887103D01*
X87424413Y-61860407D01*
X87400456Y-61840591D01*
X87381592Y-61826572D01*
X87366681Y-61817264D01*
X87354584Y-61811582D01*
X87344162Y-61808443D01*
X87337322Y-61807188D01*
X87264450Y-61783615D01*
X87197256Y-61738550D01*
X87139775Y-61677020D01*
X87096047Y-61604052D01*
X87070110Y-61524672D01*
X87065036Y-61471322D01*
X87237909Y-61471322D01*
X87249829Y-61530762D01*
X87281793Y-61584059D01*
X87332365Y-61625625D01*
X87351695Y-61635298D01*
X87386139Y-61648827D01*
X87412404Y-61652361D01*
X87444080Y-61646592D01*
X87464166Y-61641016D01*
X87522381Y-61612728D01*
X87563327Y-61569662D01*
X87587016Y-61517000D01*
X87593458Y-61459924D01*
X87582664Y-61403614D01*
X87554645Y-61353252D01*
X87509412Y-61314019D01*
X87463438Y-61294808D01*
X87397028Y-61288910D01*
X87336554Y-61308781D01*
X87281517Y-61354588D01*
X87279953Y-61356355D01*
X87247472Y-61411323D01*
X87237909Y-61471322D01*
X87065036Y-61471322D01*
X87064702Y-61467813D01*
X87076265Y-61387624D01*
G37*
G36*
X88956448Y-58874176D02*
G01*
X89099486Y-59016771D01*
X86641650Y-61474607D01*
X89105910Y-63939741D01*
X89006276Y-64032353D01*
X88958105Y-64076624D01*
X88911495Y-64118593D01*
X88873483Y-64151961D01*
X88859288Y-64163954D01*
X88811934Y-64202943D01*
X87444511Y-62835472D01*
X86077088Y-61468000D01*
X88813410Y-58731582D01*
X88956448Y-58874176D01*
G37*
G36*
X89404262Y-60318889D02*
G01*
X89428629Y-60342822D01*
X89467728Y-60381878D01*
X89519576Y-60434037D01*
X89582190Y-60497277D01*
X89653588Y-60569577D01*
X89731786Y-60648916D01*
X89814801Y-60733273D01*
X89900649Y-60820625D01*
X89987349Y-60908953D01*
X90072917Y-60996234D01*
X90155370Y-61080447D01*
X90232725Y-61159572D01*
X90302999Y-61231586D01*
X90364208Y-61294469D01*
X90414370Y-61346198D01*
X90451502Y-61384754D01*
X90473621Y-61408114D01*
X90479149Y-61414514D01*
X90466656Y-61408633D01*
X90432854Y-61391934D01*
X90380133Y-61365617D01*
X90310880Y-61330883D01*
X90227483Y-61288930D01*
X90132331Y-61240957D01*
X90027811Y-61188164D01*
X89938555Y-61143013D01*
X89827638Y-61086748D01*
X89723739Y-61033815D01*
X89629323Y-60985487D01*
X89546855Y-60943036D01*
X89478798Y-60907733D01*
X89427618Y-60880851D01*
X89395778Y-60863661D01*
X89385954Y-60857799D01*
X89376924Y-60836647D01*
X89369150Y-60789607D01*
X89362723Y-60717333D01*
X89360167Y-60674306D01*
X89355851Y-60594185D01*
X89351037Y-60508823D01*
X89346375Y-60429597D01*
X89343219Y-60378670D01*
X89335118Y-60252467D01*
X89404262Y-60318889D01*
G37*
G36*
X91713281Y-60265208D02*
G01*
X91713644Y-60282389D01*
X91712321Y-60320770D01*
X91709620Y-60375670D01*
X91705848Y-60442408D01*
X91701314Y-60516303D01*
X91696323Y-60592674D01*
X91691186Y-60666838D01*
X91686208Y-60734115D01*
X91681697Y-60789823D01*
X91677962Y-60829282D01*
X91675309Y-60847809D01*
X91674943Y-60848586D01*
X91662422Y-60855247D01*
X91628542Y-60872723D01*
X91575642Y-60899821D01*
X91506064Y-60935347D01*
X91422147Y-60978108D01*
X91326233Y-61026909D01*
X91220661Y-61080557D01*
X91111873Y-61135777D01*
X90553923Y-61418841D01*
X91131799Y-60835111D01*
X91233780Y-60732372D01*
X91330134Y-60635831D01*
X91419266Y-60547054D01*
X91499580Y-60467605D01*
X91569478Y-60399049D01*
X91627365Y-60342950D01*
X91671644Y-60300873D01*
X91700718Y-60274384D01*
X91712991Y-60265045D01*
X91713281Y-60265208D01*
G37*
G36*
X90799687Y-61623522D02*
G01*
X90879836Y-61664867D01*
X90976767Y-61714770D01*
X91083604Y-61769698D01*
X91193469Y-61826116D01*
X91299487Y-61880490D01*
X91350994Y-61906877D01*
X91435379Y-61950133D01*
X91511739Y-61989366D01*
X91576962Y-62022970D01*
X91627935Y-62049338D01*
X91661543Y-62066862D01*
X91674675Y-62073936D01*
X91674710Y-62073962D01*
X91676750Y-62087564D01*
X91679873Y-62123093D01*
X91683802Y-62175942D01*
X91688261Y-62241505D01*
X91692973Y-62315174D01*
X91697662Y-62392343D01*
X91702053Y-62468405D01*
X91705867Y-62538752D01*
X91708829Y-62598778D01*
X91710663Y-62643876D01*
X91711092Y-62669438D01*
X91710680Y-62673470D01*
X91701099Y-62664889D01*
X91674716Y-62639048D01*
X91633276Y-62597707D01*
X91578524Y-62542630D01*
X91512205Y-62475577D01*
X91436065Y-62398311D01*
X91351849Y-62312593D01*
X91261303Y-62220187D01*
X91230389Y-62188585D01*
X91134321Y-62090269D01*
X91041005Y-61994639D01*
X90952657Y-61903976D01*
X90871495Y-61820562D01*
X90799736Y-61746676D01*
X90739598Y-61684602D01*
X90693297Y-61636619D01*
X90663053Y-61605009D01*
X90660160Y-61601951D01*
X90567207Y-61503423D01*
X90799687Y-61623522D01*
G37*
G36*
X90468261Y-61530544D02*
G01*
X90446257Y-61555809D01*
X90410014Y-61595072D01*
X90361793Y-61645925D01*
X90303853Y-61705958D01*
X90238455Y-61772762D01*
X90234410Y-61776865D01*
X90159039Y-61853345D01*
X90070085Y-61943697D01*
X89972565Y-62042820D01*
X89871495Y-62145612D01*
X89771892Y-62246973D01*
X89678773Y-62341801D01*
X89659705Y-62361229D01*
X89337194Y-62689866D01*
X89345752Y-62560497D01*
X89349956Y-62493334D01*
X89354759Y-62410950D01*
X89359515Y-62324664D01*
X89362955Y-62258429D01*
X89371601Y-62085730D01*
X89916266Y-61803982D01*
X90027598Y-61746519D01*
X90131827Y-61692970D01*
X90226558Y-61644547D01*
X90309397Y-61602462D01*
X90377947Y-61567929D01*
X90429814Y-61542159D01*
X90462603Y-61526367D01*
X90473768Y-61521686D01*
X90468261Y-61530544D01*
G37*
%TO.C,C6*%
X103611000Y-52431836D02*
X103611000Y-52216164D01*
X102891000Y-52431836D02*
X102891000Y-52216164D01*
%TO.C,Y1*%
X107275000Y-55424000D02*
X107275000Y-51424000D01*
X103975000Y-55424000D02*
X107275000Y-55424000D01*
%TO.C,C1*%
X74803580Y-50040000D02*
X74522420Y-50040000D01*
X74803580Y-49020000D02*
X74522420Y-49020000D01*
%TO.C,SW2*%
X82570000Y-57920000D02*
X82570000Y-58920000D01*
X82145000Y-56745000D02*
X82145000Y-56920000D01*
X85495000Y-60095000D02*
X85495000Y-59920000D01*
X83320001Y-57170002D02*
X84320000Y-57170000D01*
X85495000Y-56745000D02*
X85495000Y-56920000D01*
X82145000Y-56745000D02*
X85495000Y-56745000D01*
X85070000Y-57920000D02*
X85070000Y-58920000D01*
X83320000Y-59670000D02*
X84320000Y-59670000D01*
X82145000Y-60095000D02*
X85495000Y-60095000D01*
X82145000Y-57920000D02*
X82145000Y-58920000D01*
X82145000Y-60095000D02*
X82145000Y-59920000D01*
X85495000Y-57920000D02*
X85495000Y-58920000D01*
X84320000Y-59670000D02*
G75*
G03*
X84944038Y-59336025I0J750000D01*
G01*
X82695962Y-59336025D02*
G75*
G03*
X83320000Y-59670000I624037J416023D01*
G01*
X84944038Y-57503975D02*
G75*
G03*
X84320000Y-57170000I-624038J-416025D01*
G01*
X83320001Y-57170002D02*
G75*
G03*
X82695963Y-57503977I-1J-749998D01*
G01*
X84721388Y-58420000D02*
G75*
G03*
X84721388Y-58420000I-901388J0D01*
G01*
%TO.C,U1*%
X78486000Y-53884000D02*
X79286000Y-53884000D01*
X78486000Y-50764000D02*
X79286000Y-50764000D01*
X78486000Y-50764000D02*
X76686000Y-50764000D01*
X78486000Y-53884000D02*
X77686000Y-53884000D01*
%TO.C,kibuzzard-6240A129*%
G36*
X101572378Y-48087915D02*
G01*
X101621908Y-48110775D01*
X101645720Y-48150780D01*
X101657150Y-48247935D01*
X101657150Y-49305210D01*
X101654293Y-49371885D01*
X101636195Y-49421415D01*
X101585713Y-49459991D01*
X101487605Y-49472850D01*
X101384735Y-49461420D01*
X101337110Y-49425225D01*
X101202384Y-49245732D01*
X101083957Y-49088252D01*
X100981828Y-48952785D01*
X100895997Y-48839332D01*
X100826464Y-48747892D01*
X100773230Y-48678465D01*
X100773230Y-49305210D01*
X100770373Y-49371885D01*
X100752275Y-49421415D01*
X100701793Y-49459991D01*
X100603685Y-49472850D01*
X100508435Y-49459991D01*
X100458905Y-49421415D01*
X100440808Y-49369980D01*
X100437950Y-49303305D01*
X100437950Y-48240315D01*
X100456048Y-48134587D01*
X100510340Y-48089820D01*
X100603685Y-48078390D01*
X100694173Y-48088867D01*
X100740845Y-48112680D01*
X100784660Y-48162210D01*
X100911237Y-48334136D01*
X101022997Y-48485425D01*
X101119940Y-48616076D01*
X101202067Y-48726090D01*
X101269377Y-48815466D01*
X101321870Y-48884205D01*
X101321870Y-48240315D01*
X101339968Y-48134587D01*
X101394260Y-48089820D01*
X101484748Y-48078390D01*
X101572378Y-48087915D01*
G37*
G36*
X99880261Y-48110299D02*
G01*
X99998014Y-48173997D01*
X100106480Y-48263175D01*
X100197325Y-48371224D01*
X100262214Y-48491537D01*
X100301147Y-48624113D01*
X100314125Y-48768953D01*
X100301743Y-48914328D01*
X100264595Y-49048511D01*
X100202683Y-49171503D01*
X100116005Y-49283303D01*
X100011230Y-49376231D01*
X99895025Y-49442608D01*
X99767390Y-49482435D01*
X99628325Y-49495710D01*
X99488962Y-49482613D01*
X99360434Y-49443323D01*
X99242741Y-49377838D01*
X99135882Y-49286160D01*
X99047121Y-49176384D01*
X98983721Y-49056608D01*
X98945680Y-48926829D01*
X98933000Y-48787050D01*
X98933889Y-48777525D01*
X99270185Y-48777525D01*
X99282356Y-48883464D01*
X99318868Y-48975222D01*
X99379722Y-49052798D01*
X99495689Y-49132093D01*
X99624515Y-49158525D01*
X99753102Y-49132808D01*
X99868355Y-49055655D01*
X99928680Y-48979243D01*
X99964875Y-48887168D01*
X99976940Y-48779430D01*
X99964769Y-48671480D01*
X99928257Y-48578770D01*
X99867402Y-48501300D01*
X99751436Y-48422719D01*
X99622610Y-48396525D01*
X99494022Y-48422957D01*
X99378770Y-48502252D01*
X99318445Y-48579828D01*
X99282250Y-48671586D01*
X99270185Y-48777525D01*
X98933889Y-48777525D01*
X98947287Y-48633936D01*
X98990150Y-48490822D01*
X99056825Y-48363902D01*
X99142550Y-48259365D01*
X99244944Y-48176021D01*
X99361625Y-48112680D01*
X99487355Y-48072675D01*
X99616895Y-48059340D01*
X99753222Y-48072080D01*
X99880261Y-48110299D01*
G37*
G36*
X97182305Y-48106965D02*
G01*
X97256600Y-48225075D01*
X97191830Y-48345090D01*
X96808925Y-48766095D01*
X97191830Y-49187100D01*
X97256600Y-49309020D01*
X97183257Y-49425225D01*
X97059432Y-49491900D01*
X96942275Y-49415700D01*
X96580325Y-49000410D01*
X96218375Y-49415700D01*
X96101217Y-49491900D01*
X95977392Y-49424273D01*
X95902145Y-49309020D01*
X95968820Y-49187100D01*
X96351725Y-48766095D01*
X95968820Y-48345090D01*
X95902145Y-48225075D01*
X95976440Y-48107917D01*
X96101217Y-48040290D01*
X96218375Y-48116490D01*
X96580325Y-48531780D01*
X96942275Y-48116490D01*
X97059432Y-48040290D01*
X97182305Y-48106965D01*
G37*
G36*
X97931684Y-48061007D02*
G01*
X98030982Y-48083152D01*
X98161475Y-48143160D01*
X98209100Y-48179355D01*
X98268155Y-48272700D01*
X98222435Y-48377475D01*
X98156712Y-48448912D01*
X98089085Y-48472725D01*
X97990025Y-48434625D01*
X97968117Y-48415575D01*
X97938590Y-48390810D01*
X97836672Y-48366045D01*
X97733802Y-48395572D01*
X97692845Y-48477487D01*
X97741422Y-48562260D01*
X97862390Y-48606075D01*
X97938114Y-48620601D01*
X98020505Y-48641317D01*
X98102896Y-48667749D01*
X98178620Y-48699420D01*
X98245057Y-48746331D01*
X98299587Y-48818483D01*
X98336021Y-48913018D01*
X98348165Y-49027080D01*
X98335782Y-49143523D01*
X98298635Y-49245203D01*
X98241485Y-49328784D01*
X98169095Y-49390935D01*
X98063897Y-49447027D01*
X97954042Y-49480682D01*
X97839530Y-49491900D01*
X97752376Y-49486423D01*
X97669985Y-49469993D01*
X97540445Y-49415700D01*
X97454720Y-49355693D01*
X97399475Y-49297590D01*
X97382330Y-49276635D01*
X97332800Y-49167098D01*
X97353279Y-49110662D01*
X97414715Y-49038510D01*
X97515680Y-48992790D01*
X97579497Y-49016603D01*
X97664270Y-49088040D01*
X97740470Y-49149953D01*
X97831910Y-49179480D01*
X97930335Y-49163393D01*
X97989390Y-49115133D01*
X98009075Y-49034700D01*
X97960497Y-48961358D01*
X97839530Y-48918495D01*
X97764282Y-48901112D01*
X97683320Y-48875633D01*
X97602357Y-48843486D01*
X97527110Y-48806100D01*
X97460673Y-48754427D01*
X97406142Y-48679417D01*
X97369709Y-48583929D01*
X97357565Y-48470820D01*
X97371429Y-48363822D01*
X97413022Y-48266350D01*
X97482342Y-48178402D01*
X97575582Y-48109082D01*
X97688929Y-48067489D01*
X97822385Y-48053625D01*
X97931684Y-48061007D01*
G37*
G36*
X103050419Y-48070056D02*
G01*
X103142098Y-48090772D01*
X103282115Y-48146970D01*
X103327835Y-48173640D01*
X103381175Y-48207930D01*
X103430705Y-48298417D01*
X103390700Y-48404145D01*
X103320215Y-48481297D01*
X103257350Y-48507015D01*
X103160195Y-48465105D01*
X103066850Y-48416527D01*
X102946835Y-48400335D01*
X102823963Y-48421766D01*
X102702995Y-48486060D01*
X102607745Y-48604170D01*
X102579170Y-48685371D01*
X102569645Y-48776573D01*
X102579170Y-48867774D01*
X102607745Y-48948975D01*
X102704900Y-49068990D01*
X102823486Y-49131855D01*
X102946835Y-49152810D01*
X103058278Y-49137570D01*
X103133525Y-49107090D01*
X103167815Y-49082325D01*
X103259255Y-49044225D01*
X103320691Y-49070895D01*
X103386890Y-49150905D01*
X103428800Y-49257585D01*
X103403083Y-49324260D01*
X103343075Y-49371885D01*
X103277353Y-49411890D01*
X103148765Y-49461420D01*
X103053277Y-49484280D01*
X102961123Y-49491900D01*
X102870159Y-49485947D01*
X102778243Y-49468088D01*
X102684421Y-49436179D01*
X102587743Y-49388078D01*
X102494636Y-49325689D01*
X102411530Y-49250918D01*
X102340331Y-49158525D01*
X102282943Y-49043273D01*
X102245081Y-48911113D01*
X102232460Y-48768000D01*
X102244843Y-48626316D01*
X102281990Y-48498442D01*
X102338426Y-48387952D01*
X102408673Y-48298417D01*
X102491302Y-48225789D01*
X102584885Y-48166020D01*
X102709557Y-48108870D01*
X102834652Y-48074580D01*
X102960170Y-48063150D01*
X103050419Y-48070056D01*
G37*
G36*
X102043151Y-49128521D02*
G01*
X102104825Y-49158525D01*
X102137210Y-49291875D01*
X102137210Y-49299495D01*
X102134352Y-49367123D01*
X102114350Y-49419510D01*
X102064106Y-49460944D01*
X101970523Y-49474755D01*
X101874796Y-49465706D01*
X101818123Y-49438560D01*
X101780975Y-49301400D01*
X101780975Y-49293780D01*
X101783833Y-49227105D01*
X101801930Y-49175670D01*
X101852174Y-49132808D01*
X101945758Y-49118520D01*
X102043151Y-49128521D01*
G37*
G36*
X98747739Y-48094106D02*
G01*
X98799650Y-48146970D01*
X98809175Y-48246030D01*
X98809175Y-49305210D01*
X98806317Y-49371885D01*
X98788220Y-49421415D01*
X98737737Y-49459991D01*
X98639630Y-49472850D01*
X98533902Y-49454753D01*
X98483420Y-49400460D01*
X98471990Y-49303305D01*
X98471990Y-48244125D01*
X98474847Y-48178402D01*
X98492945Y-48127920D01*
X98543427Y-48089344D01*
X98641535Y-48076485D01*
X98747739Y-48094106D01*
G37*
G36*
X95724027Y-48079342D02*
G01*
X95774510Y-48097440D01*
X95813086Y-48147922D01*
X95825945Y-48246030D01*
X95808324Y-48351757D01*
X95755460Y-48402240D01*
X95656400Y-48413670D01*
X95071565Y-48413670D01*
X95071565Y-48606075D01*
X95448755Y-48606075D01*
X95514477Y-48608932D01*
X95564960Y-48627030D01*
X95603536Y-48677512D01*
X95616395Y-48775620D01*
X95598297Y-48881348D01*
X95544005Y-48931830D01*
X95444945Y-48943260D01*
X95071565Y-48943260D01*
X95071565Y-49135665D01*
X95658305Y-49135665D01*
X95724027Y-49138523D01*
X95774510Y-49156620D01*
X95813086Y-49207103D01*
X95825945Y-49305210D01*
X95808324Y-49410938D01*
X95755460Y-49461420D01*
X95656400Y-49472850D01*
X94902020Y-49472850D01*
X94796292Y-49454753D01*
X94745810Y-49400460D01*
X94734380Y-49303305D01*
X94734380Y-48244125D01*
X94770575Y-48111727D01*
X94907735Y-48076485D01*
X95658305Y-48076485D01*
X95724027Y-48079342D01*
G37*
G36*
X93891894Y-48094106D02*
G01*
X93943805Y-48146970D01*
X93953330Y-48246030D01*
X93953330Y-49190910D01*
X94471490Y-49190910D01*
X94562930Y-49205198D01*
X94601030Y-49249965D01*
X94610555Y-49330928D01*
X94601030Y-49411890D01*
X94568645Y-49453800D01*
X94469585Y-49472850D01*
X93783785Y-49472850D01*
X93678057Y-49454753D01*
X93627575Y-49400460D01*
X93616145Y-49303305D01*
X93616145Y-48244125D01*
X93619002Y-48178402D01*
X93637100Y-48127920D01*
X93687582Y-48089344D01*
X93785690Y-48076485D01*
X93891894Y-48094106D01*
G37*
G36*
X104473216Y-48110299D02*
G01*
X104590969Y-48173997D01*
X104699435Y-48263175D01*
X104790280Y-48371224D01*
X104855169Y-48491537D01*
X104894102Y-48624113D01*
X104907080Y-48768953D01*
X104894698Y-48914328D01*
X104857550Y-49048511D01*
X104795638Y-49171503D01*
X104708960Y-49283303D01*
X104604185Y-49376231D01*
X104487980Y-49442608D01*
X104360345Y-49482435D01*
X104221280Y-49495710D01*
X104081917Y-49482613D01*
X103953389Y-49443323D01*
X103835696Y-49377838D01*
X103728838Y-49286160D01*
X103640076Y-49176384D01*
X103576676Y-49056608D01*
X103538635Y-48926829D01*
X103525955Y-48787050D01*
X103526844Y-48777525D01*
X103863140Y-48777525D01*
X103875311Y-48883464D01*
X103911823Y-48975222D01*
X103972678Y-49052798D01*
X104088644Y-49132093D01*
X104217470Y-49158525D01*
X104346058Y-49132808D01*
X104461310Y-49055655D01*
X104521635Y-48979243D01*
X104557830Y-48887168D01*
X104569895Y-48779430D01*
X104557724Y-48671480D01*
X104521212Y-48578770D01*
X104460358Y-48501300D01*
X104344391Y-48422719D01*
X104215565Y-48396525D01*
X104086978Y-48422957D01*
X103971725Y-48502252D01*
X103911400Y-48579828D01*
X103875205Y-48671586D01*
X103863140Y-48777525D01*
X103526844Y-48777525D01*
X103540243Y-48633936D01*
X103583105Y-48490822D01*
X103649780Y-48363902D01*
X103735505Y-48259365D01*
X103837899Y-48176021D01*
X103954580Y-48112680D01*
X104080310Y-48072675D01*
X104209850Y-48059340D01*
X104346177Y-48072080D01*
X104473216Y-48110299D01*
G37*
G36*
X106464656Y-48091249D02*
G01*
X106514900Y-48129825D01*
X106532998Y-48181260D01*
X106535855Y-48247935D01*
X106535855Y-49305210D01*
X106517758Y-49409509D01*
X106463465Y-49459515D01*
X106372025Y-49470945D01*
X106284395Y-49461420D01*
X106234865Y-49438560D01*
X106208195Y-49400460D01*
X106198670Y-49301400D01*
X106198670Y-48663225D01*
X106140091Y-48739663D01*
X106059605Y-48850868D01*
X105984834Y-48955404D01*
X105943400Y-49011840D01*
X105909110Y-49056608D01*
X105862438Y-49090898D01*
X105782428Y-49112805D01*
X105704323Y-49092803D01*
X105653840Y-49053750D01*
X105638600Y-49032795D01*
X105581926Y-48958262D01*
X105488105Y-48829913D01*
X105401428Y-48710612D01*
X105366185Y-48663225D01*
X105366185Y-49305210D01*
X105363328Y-49370933D01*
X105345230Y-49419510D01*
X105293795Y-49458086D01*
X105196640Y-49470945D01*
X105102343Y-49458086D01*
X105051860Y-49419510D01*
X105033763Y-49369980D01*
X105030905Y-49301400D01*
X105030905Y-48244125D01*
X105033763Y-48178402D01*
X105051860Y-48127920D01*
X105103295Y-48090772D01*
X105200450Y-48078390D01*
X105289033Y-48090772D01*
X105337610Y-48116490D01*
X105349040Y-48127920D01*
X105781475Y-48695610D01*
X105902404Y-48535819D01*
X106006113Y-48399344D01*
X106092600Y-48286187D01*
X106161865Y-48196348D01*
X106213910Y-48129825D01*
X106268441Y-48091249D01*
X106367263Y-48078390D01*
X106464656Y-48091249D01*
G37*
%TO.C,R2*%
X71601359Y-49150000D02*
X71908641Y-49150000D01*
X71601359Y-49910000D02*
X71908641Y-49910000D01*
%TO.C,SW3*%
X113541992Y-59766000D02*
X109541992Y-59766000D01*
X110541992Y-56666000D02*
X110041992Y-57166000D01*
X110791992Y-59166000D02*
X112291992Y-59166000D01*
X110791992Y-57166000D02*
X112291992Y-57166000D01*
X113541992Y-56566000D02*
X109541992Y-56566000D01*
X110541992Y-59666000D02*
X110041992Y-59166000D01*
X112541992Y-59666000D02*
X113041992Y-59166000D01*
X113641992Y-57666000D02*
X113641992Y-58666000D01*
X109441992Y-57666000D02*
X109441992Y-58666000D01*
X112541992Y-56666000D02*
X113041992Y-57166000D01*
X112291992Y-59166000D02*
G75*
G03*
X112291992Y-57166000I0J1000000D01*
G01*
X110791992Y-57166000D02*
G75*
G03*
X110791992Y-59166000I0J-1000000D01*
G01*
%TO.C,R5*%
X87502000Y-59081641D02*
X87502000Y-58774359D01*
X86742000Y-59081641D02*
X86742000Y-58774359D01*
%TD*%
%LPC*%
G36*
X69088000Y-54356000D02*
G01*
X71120000Y-54356000D01*
X71120000Y-57404000D01*
X69088000Y-57404000D01*
X69088000Y-54356000D01*
G37*
D15*
%TO.C,R8*%
X114098800Y-52578000D03*
X113078800Y-52578000D03*
%TD*%
D16*
%TO.C,C10*%
X100923411Y-56810589D03*
X100244589Y-57489411D03*
%TD*%
D17*
%TO.C,C2*%
X79769000Y-49530000D03*
X78219000Y-49530000D03*
%TD*%
D18*
%TO.C,D4*%
X114071500Y-50038000D03*
X112496500Y-50038000D03*
%TD*%
D19*
%TO.C,C7*%
X103378000Y-58468000D03*
X103378000Y-59428000D03*
%TD*%
D20*
%TO.C,R6*%
X109980000Y-61722000D03*
X111000000Y-61722000D03*
%TD*%
D21*
%TO.C,D1*%
X78359000Y-58929000D03*
X78359000Y-62229000D03*
%TD*%
D15*
%TO.C,R10*%
X114096800Y-51562000D03*
X113076800Y-51562000D03*
%TD*%
D19*
%TO.C,C5*%
X103251000Y-54003000D03*
X103251000Y-54963000D03*
%TD*%
D22*
%TO.C,J4*%
X116783000Y-52080000D03*
D23*
X116783000Y-54620000D03*
X116783000Y-57160000D03*
X116783000Y-59700000D03*
%TD*%
D24*
%TO.C,J1*%
X73840000Y-52990000D03*
X73840000Y-58770000D03*
D25*
X74900000Y-52680000D03*
X74900000Y-53480000D03*
D26*
X74900000Y-54630000D03*
X74900000Y-55630000D03*
X74900000Y-56130000D03*
X74900000Y-57130000D03*
D25*
X74900000Y-58280000D03*
X74900000Y-59080000D03*
X74900000Y-59080000D03*
X74900000Y-58280000D03*
D26*
X74900000Y-57630000D03*
X74900000Y-56630000D03*
X74900000Y-55130000D03*
X74900000Y-54130000D03*
D25*
X74900000Y-53480000D03*
X74900000Y-52680000D03*
D27*
X74320000Y-60200000D03*
D28*
X70150000Y-60200000D03*
D27*
X74320000Y-51560000D03*
D28*
X70150000Y-51560000D03*
%TD*%
D20*
%TO.C,R7*%
X109980000Y-50038000D03*
X111000000Y-50038000D03*
%TD*%
D29*
%TO.C,C11*%
X89322589Y-54949411D03*
X90001411Y-54270589D03*
%TD*%
D30*
%TO.C,C9*%
X94624211Y-62239211D03*
X93945389Y-61560389D03*
%TD*%
D31*
%TO.C,FB1*%
X101140847Y-51610847D03*
X100027153Y-50497153D03*
%TD*%
D32*
%TO.C,U2*%
X99625223Y-55393864D03*
X99271670Y-55040311D03*
X98918116Y-54686757D03*
X98564563Y-54333204D03*
X98211010Y-53979651D03*
X97857456Y-53626097D03*
X97503903Y-53272544D03*
X97150349Y-52918990D03*
X96796796Y-52565437D03*
X96443243Y-52211884D03*
X96089689Y-51858330D03*
X95736136Y-51504777D03*
D33*
X94763864Y-51504777D03*
X94410311Y-51858330D03*
X94056757Y-52211884D03*
X93703204Y-52565437D03*
X93349651Y-52918990D03*
X92996097Y-53272544D03*
X92642544Y-53626097D03*
X92288990Y-53979651D03*
X91935437Y-54333204D03*
X91581884Y-54686757D03*
X91228330Y-55040311D03*
X90874777Y-55393864D03*
D32*
X90874777Y-56366136D03*
X91228330Y-56719689D03*
X91581884Y-57073243D03*
X91935437Y-57426796D03*
X92288990Y-57780349D03*
X92642544Y-58133903D03*
X92996097Y-58487456D03*
X93349651Y-58841010D03*
X93703204Y-59194563D03*
X94056757Y-59548116D03*
X94410311Y-59901670D03*
X94763864Y-60255223D03*
D33*
X95736136Y-60255223D03*
X96089689Y-59901670D03*
X96443243Y-59548116D03*
X96796796Y-59194563D03*
X97150349Y-58841010D03*
X97503903Y-58487456D03*
X97857456Y-58133903D03*
X98211010Y-57780349D03*
X98564563Y-57426796D03*
X98918116Y-57073243D03*
X99271670Y-56719689D03*
X99625223Y-56366136D03*
D34*
X95250000Y-55880000D03*
%TD*%
D35*
%TO.C,D5*%
X109426000Y-55094000D03*
X110526000Y-55094000D03*
X111626000Y-55094000D03*
X111626000Y-52094000D03*
X110526000Y-52094000D03*
X109426000Y-52094000D03*
%TD*%
D36*
%TO.C,R4*%
X107823000Y-56005000D03*
X107823000Y-57025000D03*
%TD*%
D37*
%TO.C,C12*%
X87122000Y-54328000D03*
X87122000Y-53368000D03*
%TD*%
%TO.C,C8*%
X103378000Y-57424000D03*
X103378000Y-56464000D03*
%TD*%
D38*
%TO.C,SW1*%
X81945000Y-54340000D03*
X85695000Y-54340000D03*
X81945000Y-52340000D03*
X85695000Y-52340000D03*
%TD*%
D39*
%TO.C,F1*%
X74650500Y-62230000D03*
X76225500Y-62230000D03*
%TD*%
D40*
%TO.C,R3*%
X90276624Y-50906624D03*
X89555376Y-50185376D03*
%TD*%
D29*
%TO.C,C3*%
X89195589Y-53552411D03*
X89874411Y-52873589D03*
%TD*%
D30*
%TO.C,C4*%
X98764411Y-51520411D03*
X98085589Y-50841589D03*
%TD*%
D20*
%TO.C,R1*%
X71245000Y-62230000D03*
X72265000Y-62230000D03*
%TD*%
D41*
%TO.C,Y2*%
X105156000Y-59182000D03*
X105156000Y-56682000D03*
%TD*%
D15*
%TO.C,R9*%
X114096800Y-53594000D03*
X113076800Y-53594000D03*
%TD*%
D18*
%TO.C,D3*%
X114071500Y-61722000D03*
X112496500Y-61722000D03*
%TD*%
D37*
%TO.C,C6*%
X103251000Y-52804000D03*
X103251000Y-51844000D03*
%TD*%
D42*
%TO.C,Y1*%
X106475000Y-54524000D03*
X106475000Y-52324000D03*
X104775000Y-52324000D03*
X104775000Y-54524000D03*
%TD*%
D17*
%TO.C,C1*%
X75438000Y-49530000D03*
X73888000Y-49530000D03*
%TD*%
D38*
%TO.C,SW2*%
X81945000Y-57420000D03*
X85695000Y-57420000D03*
X81945000Y-59420000D03*
X85695000Y-59420000D03*
%TD*%
D43*
%TO.C,U1*%
X77348500Y-51374000D03*
X77348500Y-52324000D03*
X77348500Y-53274000D03*
X79623500Y-53274000D03*
X79623500Y-51374000D03*
%TD*%
D20*
%TO.C,R2*%
X71245000Y-49530000D03*
X72265000Y-49530000D03*
%TD*%
D44*
%TO.C,SW3*%
X113791992Y-57091000D03*
X109291992Y-57091000D03*
X109291992Y-59241000D03*
X113791992Y-59241000D03*
%TD*%
D45*
%TO.C,R5*%
X87122000Y-59438000D03*
X87122000Y-58418000D03*
%TD*%
D22*
%TO.C,J2*%
X72395000Y-46990000D03*
D23*
X74935000Y-46990000D03*
X77475000Y-46990000D03*
X80015000Y-46990000D03*
X82555000Y-46990000D03*
X85095000Y-46990000D03*
X87635000Y-46990000D03*
X90175000Y-46990000D03*
X92715000Y-46990000D03*
X95255000Y-46990000D03*
X97795000Y-46990000D03*
X100335000Y-46990000D03*
X102875000Y-46990000D03*
X105415000Y-46990000D03*
X107955000Y-46990000D03*
X110495000Y-46990000D03*
X113035000Y-46990000D03*
X115575000Y-46990000D03*
X118115000Y-46990000D03*
X120655000Y-46990000D03*
%TD*%
D22*
%TO.C,J3*%
X120650000Y-64770000D03*
D23*
X118110000Y-64770000D03*
X115570000Y-64770000D03*
X113030000Y-64770000D03*
X110490000Y-64770000D03*
X107950000Y-64770000D03*
X105410000Y-64770000D03*
X102870000Y-64770000D03*
X100330000Y-64770000D03*
X97790000Y-64770000D03*
X95250000Y-64770000D03*
X92710000Y-64770000D03*
X90170000Y-64770000D03*
X87630000Y-64770000D03*
X85090000Y-64770000D03*
X82550000Y-64770000D03*
X80010000Y-64770000D03*
X77470000Y-64770000D03*
X74930000Y-64770000D03*
X72390000Y-64770000D03*
%TD*%
M02*
