%TF.GenerationSoftware,KiCad,Pcbnew,(6.0.4)*%
%TF.CreationDate,2022-03-28T20:40:59+08:00*%
%TF.ProjectId,PCB_F401CCU6_Dev,5043425f-4634-4303-9143-4355365f4465,v0.9*%
%TF.SameCoordinates,Original*%
%TF.FileFunction,Soldermask,Bot*%
%TF.FilePolarity,Negative*%
%FSLAX46Y46*%
G04 Gerber Fmt 4.6, Leading zero omitted, Abs format (unit mm)*
G04 Created by KiCad (PCBNEW (6.0.4)) date 2022-03-28 20:40:59*
%MOMM*%
%LPD*%
G01*
G04 APERTURE LIST*
G04 Aperture macros list*
%AMRoundRect*
0 Rectangle with rounded corners*
0 $1 Rounding radius*
0 $2 $3 $4 $5 $6 $7 $8 $9 X,Y pos of 4 corners*
0 Add a 4 corners polygon primitive as box body*
4,1,4,$2,$3,$4,$5,$6,$7,$8,$9,$2,$3,0*
0 Add four circle primitives for the rounded corners*
1,1,$1+$1,$2,$3*
1,1,$1+$1,$4,$5*
1,1,$1+$1,$6,$7*
1,1,$1+$1,$8,$9*
0 Add four rect primitives between the rounded corners*
20,1,$1+$1,$2,$3,$4,$5,0*
20,1,$1+$1,$4,$5,$6,$7,0*
20,1,$1+$1,$6,$7,$8,$9,0*
20,1,$1+$1,$8,$9,$2,$3,0*%
G04 Aperture macros list end*
%ADD10R,1.700000X1.700000*%
%ADD11O,1.700000X1.700000*%
%ADD12C,0.600000*%
%ADD13O,2.000000X0.900000*%
%ADD14O,1.700000X0.900000*%
%ADD15RoundRect,0.140000X-0.140000X-0.170000X0.140000X-0.170000X0.140000X0.170000X-0.140000X0.170000X0*%
%ADD16RoundRect,0.150000X0.587500X0.150000X-0.587500X0.150000X-0.587500X-0.150000X0.587500X-0.150000X0*%
%ADD17RoundRect,0.150000X0.150000X-0.650000X0.150000X0.650000X-0.150000X0.650000X-0.150000X-0.650000X0*%
G04 APERTURE END LIST*
D10*
%TO.C,J4*%
X116783000Y-52080000D03*
D11*
X116783000Y-54620000D03*
X116783000Y-57160000D03*
X116783000Y-59700000D03*
%TD*%
D12*
%TO.C,J1*%
X73840000Y-52990000D03*
X73840000Y-58770000D03*
D13*
X74320000Y-60200000D03*
D14*
X70150000Y-60200000D03*
D13*
X74320000Y-51560000D03*
D14*
X70150000Y-51560000D03*
%TD*%
D15*
%TO.C,C13*%
X86261000Y-50546000D03*
X87221000Y-50546000D03*
%TD*%
D10*
%TO.C,J2*%
X72395000Y-46990000D03*
D11*
X74935000Y-46990000D03*
X77475000Y-46990000D03*
X80015000Y-46990000D03*
X82555000Y-46990000D03*
X85095000Y-46990000D03*
X87635000Y-46990000D03*
X90175000Y-46990000D03*
X92715000Y-46990000D03*
X95255000Y-46990000D03*
X97795000Y-46990000D03*
X100335000Y-46990000D03*
X102875000Y-46990000D03*
X105415000Y-46990000D03*
X107955000Y-46990000D03*
X110495000Y-46990000D03*
X113035000Y-46990000D03*
X115575000Y-46990000D03*
X118115000Y-46990000D03*
X120655000Y-46990000D03*
%TD*%
D16*
%TO.C,D2*%
X111808500Y-54930000D03*
X111808500Y-56830000D03*
X109933500Y-55880000D03*
%TD*%
D17*
%TO.C,U3*%
X85471000Y-59480000D03*
X84201000Y-59480000D03*
X82931000Y-59480000D03*
X81661000Y-59480000D03*
X81661000Y-52280000D03*
X82931000Y-52280000D03*
X84201000Y-52280000D03*
X85471000Y-52280000D03*
%TD*%
D10*
%TO.C,J3*%
X120650000Y-64770000D03*
D11*
X118110000Y-64770000D03*
X115570000Y-64770000D03*
X113030000Y-64770000D03*
X110490000Y-64770000D03*
X107950000Y-64770000D03*
X105410000Y-64770000D03*
X102870000Y-64770000D03*
X100330000Y-64770000D03*
X97790000Y-64770000D03*
X95250000Y-64770000D03*
X92710000Y-64770000D03*
X90170000Y-64770000D03*
X87630000Y-64770000D03*
X85090000Y-64770000D03*
X82550000Y-64770000D03*
X80010000Y-64770000D03*
X77470000Y-64770000D03*
X74930000Y-64770000D03*
X72390000Y-64770000D03*
%TD*%
M02*
