%TF.GenerationSoftware,KiCad,Pcbnew,(5.1.12)-1*%
%TF.CreationDate,2021-12-13T23:08:49+08:00*%
%TF.ProjectId,PCB_EK-Link_Lite_Dev,5043425f-454b-42d4-9c69-6e6b5f4c6974,rev?*%
%TF.SameCoordinates,Original*%
%TF.FileFunction,Copper,L2,Inr*%
%TF.FilePolarity,Positive*%
%FSLAX46Y46*%
G04 Gerber Fmt 4.6, Leading zero omitted, Abs format (unit mm)*
G04 Created by KiCad (PCBNEW (5.1.12)-1) date 2021-12-13 23:08:49*
%MOMM*%
%LPD*%
G01*
G04 APERTURE LIST*
%TA.AperFunction,NonConductor*%
%ADD10C,0.300000*%
%TD*%
%TA.AperFunction,ComponentPad*%
%ADD11O,1.700000X1.700000*%
%TD*%
%TA.AperFunction,ComponentPad*%
%ADD12R,1.700000X1.700000*%
%TD*%
%TA.AperFunction,ComponentPad*%
%ADD13O,0.900000X1.700000*%
%TD*%
%TA.AperFunction,ComponentPad*%
%ADD14O,0.900000X2.000000*%
%TD*%
%TA.AperFunction,ViaPad*%
%ADD15C,0.800000*%
%TD*%
%TA.AperFunction,Conductor*%
%ADD16C,0.609600*%
%TD*%
%TA.AperFunction,Conductor*%
%ADD17C,0.203200*%
%TD*%
%TA.AperFunction,Conductor*%
%ADD18C,0.355600*%
%TD*%
%TA.AperFunction,Conductor*%
%ADD19C,0.457200*%
%TD*%
%TA.AperFunction,Conductor*%
%ADD20C,0.100000*%
%TD*%
G04 APERTURE END LIST*
D10*
X85860000Y-103445571D02*
X86788571Y-103445571D01*
X86288571Y-104017000D01*
X86502857Y-104017000D01*
X86645714Y-104088428D01*
X86717142Y-104159857D01*
X86788571Y-104302714D01*
X86788571Y-104659857D01*
X86717142Y-104802714D01*
X86645714Y-104874142D01*
X86502857Y-104945571D01*
X86074285Y-104945571D01*
X85931428Y-104874142D01*
X85860000Y-104802714D01*
D11*
%TO.N,GND*%
%TO.C,J4*%
X86360000Y-101600000D03*
%TO.N,/PA8*%
X86360000Y-99060000D03*
%TO.N,/UART1_TX*%
X86360000Y-96520000D03*
%TO.N,/UART1_RX*%
X86360000Y-93980000D03*
%TO.N,/USB_D-*%
X86360000Y-91440000D03*
%TO.N,/USB_D+*%
X86360000Y-88900000D03*
%TO.N,/PA15*%
X86360000Y-86360000D03*
%TO.N,/PB3*%
X86360000Y-83820000D03*
%TO.N,/PB4*%
X86360000Y-81280000D03*
%TO.N,/PB5*%
X86360000Y-78740000D03*
%TO.N,/PB6*%
X86360000Y-76200000D03*
%TO.N,/PB7*%
X86360000Y-73660000D03*
%TO.N,/LINK_nRST*%
X86360000Y-71120000D03*
%TO.N,/LINK_TDI*%
X86360000Y-68580000D03*
%TO.N,/PC13*%
X86360000Y-66040000D03*
%TO.N,/PC14*%
X86360000Y-63500000D03*
%TO.N,/PC15*%
X86360000Y-60960000D03*
%TO.N,+5V*%
X86360000Y-58420000D03*
%TO.N,GND*%
X86360000Y-55880000D03*
D12*
%TO.N,+3V3*%
X86360000Y-53340000D03*
%TD*%
D11*
%TO.N,/VBAT*%
%TO.C,J1*%
X66040000Y-53340000D03*
%TO.N,/LINK_TRST*%
X66040000Y-55880000D03*
%TO.N,/LINK_TCK*%
X66040000Y-58420000D03*
%TO.N,/LINK_TXD*%
X66040000Y-60960000D03*
%TO.N,/LINK_RXD*%
X66040000Y-63500000D03*
%TO.N,/LINK_TDO*%
X66040000Y-66040000D03*
%TO.N,/LINK_TMS*%
X66040000Y-68580000D03*
%TO.N,/PA6*%
X66040000Y-71120000D03*
%TO.N,/PA7*%
X66040000Y-73660000D03*
%TO.N,/PB0*%
X66040000Y-76200000D03*
%TO.N,/PB1*%
X66040000Y-78740000D03*
%TO.N,/PB10*%
X66040000Y-81280000D03*
%TO.N,/PB11*%
X66040000Y-83820000D03*
%TO.N,/PB12*%
X66040000Y-86360000D03*
%TO.N,/PB13*%
X66040000Y-88900000D03*
%TO.N,/PB14*%
X66040000Y-91440000D03*
%TO.N,/PB15*%
X66040000Y-93980000D03*
%TO.N,/NRST*%
X66040000Y-96520000D03*
%TO.N,+3V3*%
X66040000Y-99060000D03*
D12*
%TO.N,GND*%
X66040000Y-101600000D03*
%TD*%
D11*
%TO.N,/BOOT1*%
%TO.C,J7*%
X81788000Y-89662000D03*
D12*
%TO.N,+3V3*%
X79248000Y-89662000D03*
%TD*%
D11*
%TO.N,+3V3*%
%TO.C,J6*%
X81280000Y-67564000D03*
%TO.N,/SWDIO*%
X81280000Y-65024000D03*
%TO.N,/SWCLK*%
X81280000Y-62484000D03*
D12*
%TO.N,GND*%
X81280000Y-59944000D03*
%TD*%
D11*
%TO.N,/BOOT0*%
%TO.C,J5*%
X81788000Y-87122000D03*
D12*
%TO.N,+3V3*%
X79248000Y-87122000D03*
%TD*%
D13*
%TO.N,GND*%
%TO.C,J2*%
X80520000Y-103840000D03*
X71880000Y-103840000D03*
D14*
X80520000Y-99670000D03*
X71880000Y-99670000D03*
%TD*%
D15*
%TO.N,GND*%
X74930000Y-103251000D03*
X76200000Y-103251000D03*
X77470000Y-103251000D03*
X74930000Y-104521000D03*
X76200000Y-104521000D03*
X77470000Y-104521000D03*
X73406000Y-76200000D03*
X75438000Y-73152000D03*
X77470000Y-78740000D03*
X76708000Y-75057000D03*
X71755000Y-82296000D03*
X68798097Y-84133690D03*
X68451000Y-101602000D03*
X75679000Y-67831000D03*
X69850000Y-67056000D03*
X77597000Y-95885000D03*
X76708000Y-62230000D03*
X72390000Y-61849000D03*
X69977000Y-54102000D03*
X70993000Y-91186000D03*
%TO.N,+5V*%
X71628000Y-97917000D03*
X78613000Y-97917000D03*
%TO.N,+3V3*%
X72898000Y-93472000D03*
X73914000Y-88138000D03*
X73660000Y-78486000D03*
X74422000Y-73152000D03*
X78740000Y-78486000D03*
X78994000Y-73279000D03*
X82007379Y-92978802D03*
X69789600Y-71501000D03*
X82634801Y-53382199D03*
%TO.N,/PC14*%
X78740000Y-68834000D03*
%TO.N,/PC15*%
X77533500Y-68643500D03*
%TO.N,/NRST*%
X83224000Y-95592000D03*
X78232000Y-94742000D03*
X69596000Y-88646000D03*
X77089000Y-88519000D03*
X69850000Y-68961000D03*
%TO.N,/VBAT*%
X79248000Y-70739000D03*
%TO.N,Net-(D2-Pad1)*%
X80772000Y-72390000D03*
%TO.N,Net-(D3-Pad1)*%
X71374000Y-69977000D03*
%TO.N,/LINK_TRST*%
X75184000Y-70231000D03*
X80391000Y-57404000D03*
X75057000Y-57277000D03*
%TO.N,/LINK_TCK*%
X74168000Y-70231000D03*
X75565000Y-62230000D03*
X73533000Y-61341000D03*
X71186600Y-61079249D03*
%TO.N,/LINK_TXD*%
X73273571Y-69783786D03*
X69143438Y-64274414D03*
%TO.N,/LINK_RXD*%
X69024500Y-65468500D03*
%TO.N,/LINK_TDO*%
X68199000Y-67310000D03*
X69469000Y-61849000D03*
%TO.N,/LINK_TMS*%
X67754500Y-69850000D03*
X74803000Y-59309000D03*
X78359000Y-61468000D03*
%TO.N,Net-(J2-PadB5)*%
X77978000Y-100838000D03*
%TO.N,Net-(J2-PadA5)*%
X74930000Y-100838000D03*
%TO.N,/PA8*%
X74041000Y-85217000D03*
%TO.N,/UART1_TX*%
X76835000Y-84074000D03*
%TO.N,/UART1_RX*%
X76708000Y-82550000D03*
%TO.N,/USB_D-*%
X77851000Y-82931000D03*
%TO.N,/USB_D+*%
X79629000Y-82550000D03*
%TO.N,/PB5*%
X81788000Y-80518000D03*
X83785337Y-78520663D03*
%TO.N,/LINK_nRST*%
X84836000Y-72390000D03*
X83312000Y-61214000D03*
%TO.N,/LINK_TDI*%
X84963000Y-69850000D03*
X83566000Y-58420000D03*
X75692000Y-58420000D03*
X70231000Y-58420000D03*
%TO.N,/PC13*%
X80010000Y-68707000D03*
X82169000Y-68834000D03*
%TO.N,/BOOT0*%
X75692000Y-76835000D03*
%TO.N,/SWDIO*%
X80137000Y-81407000D03*
%TO.N,/SWCLK*%
X80362500Y-79473500D03*
%TO.N,/BOOT1*%
X69723000Y-77216000D03*
%TD*%
D16*
%TO.N,GND*%
X80520000Y-99670000D02*
X80520000Y-100078000D01*
X86358000Y-101602000D02*
X86360000Y-101600000D01*
X80520000Y-101602000D02*
X86358000Y-101602000D01*
X80520000Y-103840000D02*
X80520000Y-101602000D01*
X80520000Y-101602000D02*
X80520000Y-99670000D01*
X70356000Y-101602000D02*
X68451000Y-101602000D01*
X71880000Y-99670000D02*
X71880000Y-101602000D01*
X71880000Y-101602000D02*
X71880000Y-103840000D01*
X70526000Y-99670000D02*
X69596000Y-98740000D01*
X71880000Y-99670000D02*
X70526000Y-99670000D01*
X71880000Y-101602000D02*
X70356000Y-101602000D01*
D17*
X73419000Y-76187000D02*
X73406000Y-76200000D01*
X74422000Y-76187000D02*
X73419000Y-76187000D01*
D18*
X73406000Y-76200000D02*
X73406000Y-75692000D01*
X73406000Y-75692000D02*
X74041000Y-75057000D01*
X74041000Y-75057000D02*
X75311000Y-75057000D01*
X75311000Y-75057000D02*
X76708000Y-75057000D01*
X76695000Y-75044000D02*
X76708000Y-75057000D01*
D16*
X73406000Y-76200000D02*
X73406000Y-77216000D01*
X73406000Y-77216000D02*
X71755000Y-78867000D01*
X71755000Y-78867000D02*
X71755000Y-82296000D01*
X71755000Y-82296000D02*
X70583410Y-83467590D01*
X69598817Y-83467590D02*
X68865407Y-84201000D01*
X70583410Y-83467590D02*
X69598817Y-83467590D01*
X68865407Y-84201000D02*
X68798097Y-84133690D01*
X68798097Y-84133690D02*
X68072000Y-84859787D01*
X68072000Y-84859787D02*
X68072000Y-92964000D01*
X73406000Y-76200000D02*
X72644000Y-76200000D01*
X72644000Y-76200000D02*
X72263000Y-75819000D01*
D19*
X81280000Y-59944000D02*
X81280000Y-58547000D01*
X83947000Y-55880000D02*
X86360000Y-55880000D01*
X81280000Y-58547000D02*
X83947000Y-55880000D01*
D16*
X68072000Y-97216000D02*
X68072000Y-92964000D01*
X69596000Y-98740000D02*
X68072000Y-97216000D01*
X80426305Y-99763695D02*
X80520000Y-99670000D01*
X79801106Y-99670000D02*
X80520000Y-99670000D01*
X79476305Y-99345199D02*
X79801106Y-99670000D01*
X72598894Y-99670000D02*
X72923695Y-99345199D01*
X71880000Y-99670000D02*
X72598894Y-99670000D01*
D18*
X76708000Y-75057000D02*
X77470000Y-75819000D01*
X77470000Y-75819000D02*
X77470000Y-78740000D01*
X75311000Y-73279000D02*
X75438000Y-73152000D01*
X75311000Y-75057000D02*
X75311000Y-73279000D01*
D16*
X72263000Y-72898000D02*
X72390000Y-72898000D01*
X72263000Y-75819000D02*
X72263000Y-72898000D01*
X72263000Y-72898000D02*
X72263000Y-72263000D01*
X72390000Y-72898000D02*
X73533000Y-71755000D01*
X73533000Y-71755000D02*
X75819000Y-71755000D01*
X75819000Y-71755000D02*
X76581000Y-70993000D01*
X76581000Y-68733000D02*
X75679000Y-67831000D01*
X76581000Y-70993000D02*
X76581000Y-68733000D01*
D19*
X70625000Y-67831000D02*
X69850000Y-67056000D01*
D16*
X77628199Y-99345199D02*
X79476305Y-99345199D01*
X77628199Y-95916199D02*
X77597000Y-95885000D01*
X77628199Y-99345199D02*
X77628199Y-95916199D01*
X76695000Y-67831000D02*
X75679000Y-67831000D01*
X79301990Y-65224010D02*
X76695000Y-67831000D01*
X79301990Y-61922010D02*
X79301990Y-65224010D01*
X81280000Y-59944000D02*
X79301990Y-61922010D01*
X76850801Y-62372801D02*
X76708000Y-62230000D01*
X78793305Y-62372801D02*
X76850801Y-62372801D01*
X79244096Y-61922010D02*
X78793305Y-62372801D01*
X79301990Y-61922010D02*
X79244096Y-61922010D01*
D19*
X72377000Y-61862000D02*
X72390000Y-61849000D01*
X72377000Y-67831000D02*
X72377000Y-61862000D01*
X75679000Y-67831000D02*
X72377000Y-67831000D01*
X72377000Y-67831000D02*
X70625000Y-67831000D01*
D18*
X69977000Y-54102000D02*
X72136000Y-56261000D01*
X72136000Y-61595000D02*
X72390000Y-61849000D01*
X72136000Y-56261000D02*
X72136000Y-61595000D01*
D16*
X70993000Y-91186000D02*
X72898000Y-91186000D01*
X75596199Y-93884199D02*
X75596199Y-99345199D01*
X72898000Y-91186000D02*
X75596199Y-93884199D01*
X75596199Y-99345199D02*
X77628199Y-99345199D01*
X72923695Y-99345199D02*
X75596199Y-99345199D01*
%TD*%
D17*
%TO.N,GND*%
X86007760Y-47477781D02*
X86277098Y-47554531D01*
X86526395Y-47682132D01*
X86746160Y-47855724D01*
X86928023Y-48068697D01*
X87067768Y-48317773D01*
X87122401Y-48473473D01*
X87122401Y-52005065D01*
X85510000Y-52005065D01*
X85415394Y-52014383D01*
X85324423Y-52041978D01*
X85240585Y-52086791D01*
X85167099Y-52147099D01*
X85106791Y-52220585D01*
X85061978Y-52304423D01*
X85034383Y-52395394D01*
X85025065Y-52490000D01*
X85025065Y-54190000D01*
X85034383Y-54284606D01*
X85061978Y-54375577D01*
X85106791Y-54459415D01*
X85167099Y-54532901D01*
X85240585Y-54593209D01*
X85324423Y-54638022D01*
X85415394Y-54665617D01*
X85510000Y-54674935D01*
X85547151Y-54674935D01*
X85471585Y-54721913D01*
X85262724Y-54917486D01*
X85096031Y-55150048D01*
X84977911Y-55410662D01*
X84950090Y-55502393D01*
X85061714Y-55727600D01*
X86207600Y-55727600D01*
X86207600Y-55707600D01*
X86512400Y-55707600D01*
X86512400Y-55727600D01*
X86532400Y-55727600D01*
X86532400Y-56032400D01*
X86512400Y-56032400D01*
X86512400Y-56052400D01*
X86207600Y-56052400D01*
X86207600Y-56032400D01*
X85061714Y-56032400D01*
X84950090Y-56257607D01*
X84977911Y-56349338D01*
X85096031Y-56609952D01*
X85262724Y-56842514D01*
X85471585Y-57038087D01*
X85714587Y-57189156D01*
X85785163Y-57215709D01*
X85728777Y-57239065D01*
X85510517Y-57384902D01*
X85324902Y-57570517D01*
X85179065Y-57788777D01*
X85078611Y-58031295D01*
X85027400Y-58288750D01*
X85027400Y-58551250D01*
X85078611Y-58808705D01*
X85179065Y-59051223D01*
X85324902Y-59269483D01*
X85510517Y-59455098D01*
X85728777Y-59600935D01*
X85943799Y-59690000D01*
X85728777Y-59779065D01*
X85510517Y-59924902D01*
X85324902Y-60110517D01*
X85179065Y-60328777D01*
X85078611Y-60571295D01*
X85027400Y-60828750D01*
X85027400Y-61091250D01*
X85078611Y-61348705D01*
X85179065Y-61591223D01*
X85324902Y-61809483D01*
X85510517Y-61995098D01*
X85728777Y-62140935D01*
X85943799Y-62230000D01*
X85728777Y-62319065D01*
X85510517Y-62464902D01*
X85324902Y-62650517D01*
X85179065Y-62868777D01*
X85078611Y-63111295D01*
X85027400Y-63368750D01*
X85027400Y-63631250D01*
X85078611Y-63888705D01*
X85179065Y-64131223D01*
X85324902Y-64349483D01*
X85510517Y-64535098D01*
X85728777Y-64680935D01*
X85943799Y-64770000D01*
X85728777Y-64859065D01*
X85510517Y-65004902D01*
X85324902Y-65190517D01*
X85179065Y-65408777D01*
X85078611Y-65651295D01*
X85027400Y-65908750D01*
X85027400Y-66171250D01*
X85078611Y-66428705D01*
X85179065Y-66671223D01*
X85324902Y-66889483D01*
X85510517Y-67075098D01*
X85728777Y-67220935D01*
X85943799Y-67310000D01*
X85728777Y-67399065D01*
X85510517Y-67544902D01*
X85324902Y-67730517D01*
X85179065Y-67948777D01*
X85078611Y-68191295D01*
X85027400Y-68448750D01*
X85027400Y-68711250D01*
X85078611Y-68968705D01*
X85080597Y-68973500D01*
X85049929Y-68967400D01*
X84876071Y-68967400D01*
X84705555Y-69001317D01*
X84544932Y-69067850D01*
X84400375Y-69164439D01*
X84277439Y-69287375D01*
X84180850Y-69431932D01*
X84114317Y-69592555D01*
X84080400Y-69763071D01*
X84080400Y-69936929D01*
X84114317Y-70107445D01*
X84180850Y-70268068D01*
X84277439Y-70412625D01*
X84400375Y-70535561D01*
X84544932Y-70632150D01*
X84705555Y-70698683D01*
X84876071Y-70732600D01*
X85049929Y-70732600D01*
X85080597Y-70726500D01*
X85078611Y-70731295D01*
X85027400Y-70988750D01*
X85027400Y-71251250D01*
X85078611Y-71508705D01*
X85092000Y-71541030D01*
X84922929Y-71507400D01*
X84749071Y-71507400D01*
X84578555Y-71541317D01*
X84417932Y-71607850D01*
X84273375Y-71704439D01*
X84150439Y-71827375D01*
X84053850Y-71971932D01*
X83987317Y-72132555D01*
X83953400Y-72303071D01*
X83953400Y-72476929D01*
X83987317Y-72647445D01*
X84053850Y-72808068D01*
X84150439Y-72952625D01*
X84273375Y-73075561D01*
X84417932Y-73172150D01*
X84578555Y-73238683D01*
X84749071Y-73272600D01*
X84922929Y-73272600D01*
X85092000Y-73238970D01*
X85078611Y-73271295D01*
X85027400Y-73528750D01*
X85027400Y-73791250D01*
X85078611Y-74048705D01*
X85179065Y-74291223D01*
X85324902Y-74509483D01*
X85510517Y-74695098D01*
X85728777Y-74840935D01*
X85943799Y-74930000D01*
X85728777Y-75019065D01*
X85510517Y-75164902D01*
X85324902Y-75350517D01*
X85179065Y-75568777D01*
X85078611Y-75811295D01*
X85027400Y-76068750D01*
X85027400Y-76331250D01*
X85078611Y-76588705D01*
X85179065Y-76831223D01*
X85324902Y-77049483D01*
X85510517Y-77235098D01*
X85728777Y-77380935D01*
X85943799Y-77470000D01*
X85728777Y-77559065D01*
X85510517Y-77704902D01*
X85324902Y-77890517D01*
X85179065Y-78108777D01*
X85078611Y-78351295D01*
X85027400Y-78608750D01*
X85027400Y-78871250D01*
X85078611Y-79128705D01*
X85179065Y-79371223D01*
X85324902Y-79589483D01*
X85510517Y-79775098D01*
X85728777Y-79920935D01*
X85943799Y-80010000D01*
X85728777Y-80099065D01*
X85510517Y-80244902D01*
X85324902Y-80430517D01*
X85179065Y-80648777D01*
X85078611Y-80891295D01*
X85027400Y-81148750D01*
X85027400Y-81411250D01*
X85078611Y-81668705D01*
X85179065Y-81911223D01*
X85324902Y-82129483D01*
X85510517Y-82315098D01*
X85728777Y-82460935D01*
X85943799Y-82550000D01*
X85728777Y-82639065D01*
X85510517Y-82784902D01*
X85324902Y-82970517D01*
X85179065Y-83188777D01*
X85078611Y-83431295D01*
X85027400Y-83688750D01*
X85027400Y-83951250D01*
X85078611Y-84208705D01*
X85179065Y-84451223D01*
X85324902Y-84669483D01*
X85510517Y-84855098D01*
X85728777Y-85000935D01*
X85943799Y-85090000D01*
X85728777Y-85179065D01*
X85510517Y-85324902D01*
X85324902Y-85510517D01*
X85179065Y-85728777D01*
X85078611Y-85971295D01*
X85027400Y-86228750D01*
X85027400Y-86491250D01*
X85078611Y-86748705D01*
X85179065Y-86991223D01*
X85324902Y-87209483D01*
X85510517Y-87395098D01*
X85728777Y-87540935D01*
X85943799Y-87630000D01*
X85728777Y-87719065D01*
X85510517Y-87864902D01*
X85324902Y-88050517D01*
X85179065Y-88268777D01*
X85078611Y-88511295D01*
X85027400Y-88768750D01*
X85027400Y-89031250D01*
X85078611Y-89288705D01*
X85179065Y-89531223D01*
X85324902Y-89749483D01*
X85510517Y-89935098D01*
X85728777Y-90080935D01*
X85943799Y-90170000D01*
X85728777Y-90259065D01*
X85510517Y-90404902D01*
X85324902Y-90590517D01*
X85179065Y-90808777D01*
X85078611Y-91051295D01*
X85027400Y-91308750D01*
X85027400Y-91571250D01*
X85078611Y-91828705D01*
X85179065Y-92071223D01*
X85324902Y-92289483D01*
X85510517Y-92475098D01*
X85728777Y-92620935D01*
X85943799Y-92710000D01*
X85728777Y-92799065D01*
X85510517Y-92944902D01*
X85324902Y-93130517D01*
X85179065Y-93348777D01*
X85078611Y-93591295D01*
X85027400Y-93848750D01*
X85027400Y-94111250D01*
X85078611Y-94368705D01*
X85179065Y-94611223D01*
X85324902Y-94829483D01*
X85510517Y-95015098D01*
X85728777Y-95160935D01*
X85943799Y-95250000D01*
X85728777Y-95339065D01*
X85510517Y-95484902D01*
X85324902Y-95670517D01*
X85179065Y-95888777D01*
X85078611Y-96131295D01*
X85027400Y-96388750D01*
X85027400Y-96651250D01*
X85078611Y-96908705D01*
X85179065Y-97151223D01*
X85324902Y-97369483D01*
X85510517Y-97555098D01*
X85728777Y-97700935D01*
X85943799Y-97790000D01*
X85728777Y-97879065D01*
X85510517Y-98024902D01*
X85324902Y-98210517D01*
X85179065Y-98428777D01*
X85078611Y-98671295D01*
X85027400Y-98928750D01*
X85027400Y-99191250D01*
X85078611Y-99448705D01*
X85179065Y-99691223D01*
X85324902Y-99909483D01*
X85510517Y-100095098D01*
X85728777Y-100240935D01*
X85785163Y-100264291D01*
X85714587Y-100290844D01*
X85471585Y-100441913D01*
X85262724Y-100637486D01*
X85096031Y-100870048D01*
X84977911Y-101130662D01*
X84950090Y-101222393D01*
X85061714Y-101447600D01*
X86207600Y-101447600D01*
X86207600Y-101427600D01*
X86512400Y-101427600D01*
X86512400Y-101447600D01*
X86532400Y-101447600D01*
X86532400Y-101752400D01*
X86512400Y-101752400D01*
X86512400Y-101772400D01*
X86207600Y-101772400D01*
X86207600Y-101752400D01*
X85061714Y-101752400D01*
X84950090Y-101977607D01*
X84977911Y-102069338D01*
X85096031Y-102329952D01*
X85262724Y-102562514D01*
X85334154Y-102629400D01*
X85013115Y-102629400D01*
X85013115Y-102895400D01*
X83312000Y-102895400D01*
X83292179Y-102897352D01*
X83273119Y-102903134D01*
X83255554Y-102912523D01*
X83240158Y-102925158D01*
X83227523Y-102940554D01*
X83218134Y-102958119D01*
X83212352Y-102977179D01*
X83210400Y-102997000D01*
X83210400Y-105283000D01*
X83212352Y-105302821D01*
X83218134Y-105321881D01*
X83227523Y-105339446D01*
X83240158Y-105354842D01*
X83255554Y-105367477D01*
X83273119Y-105376866D01*
X83292179Y-105382648D01*
X83312000Y-105384600D01*
X85013115Y-105384600D01*
X85013115Y-105410400D01*
X66064709Y-105410400D01*
X65892386Y-105393504D01*
X65750395Y-105350634D01*
X65619437Y-105281002D01*
X65504496Y-105187259D01*
X65409950Y-105072973D01*
X65339405Y-104942502D01*
X65295546Y-104800815D01*
X65277589Y-104629968D01*
X65277584Y-103992400D01*
X70820400Y-103992400D01*
X70820400Y-104392400D01*
X70870492Y-104596189D01*
X70959378Y-104786290D01*
X71083643Y-104955398D01*
X71238512Y-105097013D01*
X71418033Y-105205694D01*
X71565442Y-105251833D01*
X71727600Y-105134308D01*
X71727600Y-103992400D01*
X72032400Y-103992400D01*
X72032400Y-105134308D01*
X72194558Y-105251833D01*
X72341967Y-105205694D01*
X72521488Y-105097013D01*
X72676357Y-104955398D01*
X72800622Y-104786290D01*
X72889508Y-104596189D01*
X72939600Y-104392400D01*
X72939600Y-103992400D01*
X79460400Y-103992400D01*
X79460400Y-104392400D01*
X79510492Y-104596189D01*
X79599378Y-104786290D01*
X79723643Y-104955398D01*
X79878512Y-105097013D01*
X80058033Y-105205694D01*
X80205442Y-105251833D01*
X80367600Y-105134308D01*
X80367600Y-103992400D01*
X80672400Y-103992400D01*
X80672400Y-105134308D01*
X80834558Y-105251833D01*
X80981967Y-105205694D01*
X81161488Y-105097013D01*
X81316357Y-104955398D01*
X81440622Y-104786290D01*
X81529508Y-104596189D01*
X81579600Y-104392400D01*
X81579600Y-103992400D01*
X80672400Y-103992400D01*
X80367600Y-103992400D01*
X79460400Y-103992400D01*
X72939600Y-103992400D01*
X72032400Y-103992400D01*
X71727600Y-103992400D01*
X70820400Y-103992400D01*
X65277584Y-103992400D01*
X65277578Y-103287600D01*
X70820400Y-103287600D01*
X70820400Y-103687600D01*
X71727600Y-103687600D01*
X71727600Y-102545692D01*
X72032400Y-102545692D01*
X72032400Y-103687600D01*
X72939600Y-103687600D01*
X72939600Y-103287600D01*
X79460400Y-103287600D01*
X79460400Y-103687600D01*
X80367600Y-103687600D01*
X80367600Y-102545692D01*
X80672400Y-102545692D01*
X80672400Y-103687600D01*
X81579600Y-103687600D01*
X81579600Y-103287600D01*
X81529508Y-103083811D01*
X81440622Y-102893710D01*
X81316357Y-102724602D01*
X81161488Y-102582987D01*
X80981967Y-102474306D01*
X80834558Y-102428167D01*
X80672400Y-102545692D01*
X80367600Y-102545692D01*
X80205442Y-102428167D01*
X80058033Y-102474306D01*
X79878512Y-102582987D01*
X79723643Y-102724602D01*
X79599378Y-102893710D01*
X79510492Y-103083811D01*
X79460400Y-103287600D01*
X72939600Y-103287600D01*
X72889508Y-103083811D01*
X72800622Y-102893710D01*
X72676357Y-102724602D01*
X72521488Y-102582987D01*
X72341967Y-102474306D01*
X72194558Y-102428167D01*
X72032400Y-102545692D01*
X71727600Y-102545692D01*
X71565442Y-102428167D01*
X71418033Y-102474306D01*
X71238512Y-102582987D01*
X71083643Y-102724602D01*
X70959378Y-102893710D01*
X70870492Y-103083811D01*
X70820400Y-103287600D01*
X65277578Y-103287600D01*
X65277576Y-103062076D01*
X65735200Y-103059600D01*
X65887600Y-102907200D01*
X65887600Y-101752400D01*
X66192400Y-101752400D01*
X66192400Y-102907200D01*
X66344800Y-103059600D01*
X66890000Y-103062550D01*
X67009503Y-103050780D01*
X67124413Y-103015922D01*
X67230315Y-102959317D01*
X67323138Y-102883138D01*
X67399317Y-102790315D01*
X67455922Y-102684413D01*
X67490780Y-102569503D01*
X67502550Y-102450000D01*
X67499600Y-101904800D01*
X67347200Y-101752400D01*
X66192400Y-101752400D01*
X65887600Y-101752400D01*
X65867600Y-101752400D01*
X65867600Y-101447600D01*
X65887600Y-101447600D01*
X65887600Y-101427600D01*
X66192400Y-101427600D01*
X66192400Y-101447600D01*
X67347200Y-101447600D01*
X67499600Y-101295200D01*
X67502550Y-100750000D01*
X67490780Y-100630497D01*
X67455922Y-100515587D01*
X67399317Y-100409685D01*
X67323138Y-100316862D01*
X67230315Y-100240683D01*
X67124413Y-100184078D01*
X67009503Y-100149220D01*
X66890000Y-100137450D01*
X66825577Y-100137799D01*
X66889483Y-100095098D01*
X67075098Y-99909483D01*
X67133285Y-99822400D01*
X70820400Y-99822400D01*
X70820400Y-100372400D01*
X70870492Y-100576189D01*
X70959378Y-100766290D01*
X71083643Y-100935398D01*
X71238512Y-101077013D01*
X71418033Y-101185694D01*
X71565442Y-101231833D01*
X71727600Y-101114308D01*
X71727600Y-99822400D01*
X70820400Y-99822400D01*
X67133285Y-99822400D01*
X67220935Y-99691223D01*
X67321389Y-99448705D01*
X67372600Y-99191250D01*
X67372600Y-98928750D01*
X67321389Y-98671295D01*
X67220935Y-98428777D01*
X67075098Y-98210517D01*
X66889483Y-98024902D01*
X66671223Y-97879065D01*
X66552941Y-97830071D01*
X70745400Y-97830071D01*
X70745400Y-98003929D01*
X70779317Y-98174445D01*
X70845850Y-98335068D01*
X70942439Y-98479625D01*
X70992055Y-98529241D01*
X70959378Y-98573710D01*
X70870492Y-98763811D01*
X70820400Y-98967600D01*
X70820400Y-99517600D01*
X71727600Y-99517600D01*
X71727600Y-99497600D01*
X72032400Y-99497600D01*
X72032400Y-99517600D01*
X72052400Y-99517600D01*
X72052400Y-99822400D01*
X72032400Y-99822400D01*
X72032400Y-101114308D01*
X72194558Y-101231833D01*
X72341967Y-101185694D01*
X72521488Y-101077013D01*
X72676357Y-100935398D01*
X72800622Y-100766290D01*
X72806645Y-100753409D01*
X72811121Y-100757885D01*
X72939300Y-100843531D01*
X73081724Y-100902525D01*
X73232921Y-100932600D01*
X73387079Y-100932600D01*
X73538276Y-100902525D01*
X73680700Y-100843531D01*
X73808879Y-100757885D01*
X73815693Y-100751071D01*
X74047400Y-100751071D01*
X74047400Y-100924929D01*
X74081317Y-101095445D01*
X74147850Y-101256068D01*
X74244439Y-101400625D01*
X74367375Y-101523561D01*
X74511932Y-101620150D01*
X74672555Y-101686683D01*
X74843071Y-101720600D01*
X75016929Y-101720600D01*
X75187445Y-101686683D01*
X75348068Y-101620150D01*
X75492625Y-101523561D01*
X75615561Y-101400625D01*
X75712150Y-101256068D01*
X75778683Y-101095445D01*
X75812600Y-100924929D01*
X75812600Y-100751071D01*
X77095400Y-100751071D01*
X77095400Y-100924929D01*
X77129317Y-101095445D01*
X77195850Y-101256068D01*
X77292439Y-101400625D01*
X77415375Y-101523561D01*
X77559932Y-101620150D01*
X77720555Y-101686683D01*
X77891071Y-101720600D01*
X78064929Y-101720600D01*
X78235445Y-101686683D01*
X78396068Y-101620150D01*
X78540625Y-101523561D01*
X78663561Y-101400625D01*
X78760150Y-101256068D01*
X78826683Y-101095445D01*
X78860600Y-100924929D01*
X78860600Y-100902059D01*
X78861724Y-100902525D01*
X79012921Y-100932600D01*
X79167079Y-100932600D01*
X79318276Y-100902525D01*
X79460700Y-100843531D01*
X79588879Y-100757885D01*
X79593355Y-100753409D01*
X79599378Y-100766290D01*
X79723643Y-100935398D01*
X79878512Y-101077013D01*
X80058033Y-101185694D01*
X80205442Y-101231833D01*
X80367600Y-101114308D01*
X80367600Y-99822400D01*
X80672400Y-99822400D01*
X80672400Y-101114308D01*
X80834558Y-101231833D01*
X80981967Y-101185694D01*
X81161488Y-101077013D01*
X81316357Y-100935398D01*
X81440622Y-100766290D01*
X81529508Y-100576189D01*
X81579600Y-100372400D01*
X81579600Y-99822400D01*
X80672400Y-99822400D01*
X80367600Y-99822400D01*
X80347600Y-99822400D01*
X80347600Y-99517600D01*
X80367600Y-99517600D01*
X80367600Y-98225692D01*
X80672400Y-98225692D01*
X80672400Y-99517600D01*
X81579600Y-99517600D01*
X81579600Y-98967600D01*
X81529508Y-98763811D01*
X81440622Y-98573710D01*
X81316357Y-98404602D01*
X81161488Y-98262987D01*
X80981967Y-98154306D01*
X80834558Y-98108167D01*
X80672400Y-98225692D01*
X80367600Y-98225692D01*
X80205442Y-98108167D01*
X80058033Y-98154306D01*
X79878512Y-98262987D01*
X79723643Y-98404602D01*
X79599378Y-98573710D01*
X79510492Y-98763811D01*
X79460400Y-98967600D01*
X79460400Y-99456345D01*
X79318276Y-99397475D01*
X79167079Y-99367400D01*
X79012921Y-99367400D01*
X78861724Y-99397475D01*
X78719300Y-99456469D01*
X78591121Y-99542115D01*
X78482115Y-99651121D01*
X78396469Y-99779300D01*
X78337475Y-99921724D01*
X78317287Y-100023217D01*
X78235445Y-99989317D01*
X78064929Y-99955400D01*
X77891071Y-99955400D01*
X77720555Y-99989317D01*
X77559932Y-100055850D01*
X77415375Y-100152439D01*
X77292439Y-100275375D01*
X77195850Y-100419932D01*
X77129317Y-100580555D01*
X77095400Y-100751071D01*
X75812600Y-100751071D01*
X75778683Y-100580555D01*
X75712150Y-100419932D01*
X75615561Y-100275375D01*
X75492625Y-100152439D01*
X75348068Y-100055850D01*
X75187445Y-99989317D01*
X75016929Y-99955400D01*
X74843071Y-99955400D01*
X74672555Y-99989317D01*
X74511932Y-100055850D01*
X74367375Y-100152439D01*
X74244439Y-100275375D01*
X74147850Y-100419932D01*
X74081317Y-100580555D01*
X74047400Y-100751071D01*
X73815693Y-100751071D01*
X73917885Y-100648879D01*
X74003531Y-100520700D01*
X74062525Y-100378276D01*
X74092600Y-100227079D01*
X74092600Y-100072921D01*
X74062525Y-99921724D01*
X74003531Y-99779300D01*
X73917885Y-99651121D01*
X73808879Y-99542115D01*
X73680700Y-99456469D01*
X73538276Y-99397475D01*
X73387079Y-99367400D01*
X73232921Y-99367400D01*
X73081724Y-99397475D01*
X72939600Y-99456345D01*
X72939600Y-98967600D01*
X72889508Y-98763811D01*
X72800622Y-98573710D01*
X72676357Y-98404602D01*
X72521488Y-98262987D01*
X72456343Y-98223549D01*
X72476683Y-98174445D01*
X72510600Y-98003929D01*
X72510600Y-97830071D01*
X77730400Y-97830071D01*
X77730400Y-98003929D01*
X77764317Y-98174445D01*
X77830850Y-98335068D01*
X77927439Y-98479625D01*
X78050375Y-98602561D01*
X78194932Y-98699150D01*
X78355555Y-98765683D01*
X78526071Y-98799600D01*
X78699929Y-98799600D01*
X78870445Y-98765683D01*
X79031068Y-98699150D01*
X79175625Y-98602561D01*
X79298561Y-98479625D01*
X79395150Y-98335068D01*
X79461683Y-98174445D01*
X79495600Y-98003929D01*
X79495600Y-97830071D01*
X79461683Y-97659555D01*
X79395150Y-97498932D01*
X79298561Y-97354375D01*
X79175625Y-97231439D01*
X79031068Y-97134850D01*
X78870445Y-97068317D01*
X78699929Y-97034400D01*
X78526071Y-97034400D01*
X78355555Y-97068317D01*
X78194932Y-97134850D01*
X78050375Y-97231439D01*
X77927439Y-97354375D01*
X77830850Y-97498932D01*
X77764317Y-97659555D01*
X77730400Y-97830071D01*
X72510600Y-97830071D01*
X72476683Y-97659555D01*
X72410150Y-97498932D01*
X72313561Y-97354375D01*
X72190625Y-97231439D01*
X72046068Y-97134850D01*
X71885445Y-97068317D01*
X71714929Y-97034400D01*
X71541071Y-97034400D01*
X71370555Y-97068317D01*
X71209932Y-97134850D01*
X71065375Y-97231439D01*
X70942439Y-97354375D01*
X70845850Y-97498932D01*
X70779317Y-97659555D01*
X70745400Y-97830071D01*
X66552941Y-97830071D01*
X66456201Y-97790000D01*
X66671223Y-97700935D01*
X66889483Y-97555098D01*
X67075098Y-97369483D01*
X67220935Y-97151223D01*
X67321389Y-96908705D01*
X67372600Y-96651250D01*
X67372600Y-96388750D01*
X67321389Y-96131295D01*
X67220935Y-95888777D01*
X67075098Y-95670517D01*
X66889483Y-95484902D01*
X66671223Y-95339065D01*
X66456201Y-95250000D01*
X66671223Y-95160935D01*
X66889483Y-95015098D01*
X67075098Y-94829483D01*
X67191636Y-94655071D01*
X77349400Y-94655071D01*
X77349400Y-94828929D01*
X77383317Y-94999445D01*
X77449850Y-95160068D01*
X77546439Y-95304625D01*
X77669375Y-95427561D01*
X77813932Y-95524150D01*
X77974555Y-95590683D01*
X78145071Y-95624600D01*
X78318929Y-95624600D01*
X78489445Y-95590683D01*
X78650068Y-95524150D01*
X78678622Y-95505071D01*
X82341400Y-95505071D01*
X82341400Y-95678929D01*
X82375317Y-95849445D01*
X82441850Y-96010068D01*
X82538439Y-96154625D01*
X82661375Y-96277561D01*
X82805932Y-96374150D01*
X82966555Y-96440683D01*
X83137071Y-96474600D01*
X83310929Y-96474600D01*
X83481445Y-96440683D01*
X83642068Y-96374150D01*
X83786625Y-96277561D01*
X83909561Y-96154625D01*
X84006150Y-96010068D01*
X84072683Y-95849445D01*
X84106600Y-95678929D01*
X84106600Y-95505071D01*
X84072683Y-95334555D01*
X84006150Y-95173932D01*
X83909561Y-95029375D01*
X83786625Y-94906439D01*
X83642068Y-94809850D01*
X83481445Y-94743317D01*
X83310929Y-94709400D01*
X83137071Y-94709400D01*
X82966555Y-94743317D01*
X82805932Y-94809850D01*
X82661375Y-94906439D01*
X82538439Y-95029375D01*
X82441850Y-95173932D01*
X82375317Y-95334555D01*
X82341400Y-95505071D01*
X78678622Y-95505071D01*
X78794625Y-95427561D01*
X78917561Y-95304625D01*
X79014150Y-95160068D01*
X79080683Y-94999445D01*
X79114600Y-94828929D01*
X79114600Y-94655071D01*
X79080683Y-94484555D01*
X79014150Y-94323932D01*
X78917561Y-94179375D01*
X78794625Y-94056439D01*
X78650068Y-93959850D01*
X78489445Y-93893317D01*
X78318929Y-93859400D01*
X78145071Y-93859400D01*
X77974555Y-93893317D01*
X77813932Y-93959850D01*
X77669375Y-94056439D01*
X77546439Y-94179375D01*
X77449850Y-94323932D01*
X77383317Y-94484555D01*
X77349400Y-94655071D01*
X67191636Y-94655071D01*
X67220935Y-94611223D01*
X67321389Y-94368705D01*
X67372600Y-94111250D01*
X67372600Y-93848750D01*
X67321389Y-93591295D01*
X67235969Y-93385071D01*
X72015400Y-93385071D01*
X72015400Y-93558929D01*
X72049317Y-93729445D01*
X72115850Y-93890068D01*
X72212439Y-94034625D01*
X72335375Y-94157561D01*
X72479932Y-94254150D01*
X72640555Y-94320683D01*
X72811071Y-94354600D01*
X72984929Y-94354600D01*
X73155445Y-94320683D01*
X73316068Y-94254150D01*
X73460625Y-94157561D01*
X73583561Y-94034625D01*
X73680150Y-93890068D01*
X73746683Y-93729445D01*
X73780600Y-93558929D01*
X73780600Y-93385071D01*
X73746683Y-93214555D01*
X73680150Y-93053932D01*
X73583561Y-92909375D01*
X73566059Y-92891873D01*
X81124779Y-92891873D01*
X81124779Y-93065731D01*
X81158696Y-93236247D01*
X81225229Y-93396870D01*
X81321818Y-93541427D01*
X81444754Y-93664363D01*
X81589311Y-93760952D01*
X81749934Y-93827485D01*
X81920450Y-93861402D01*
X82094308Y-93861402D01*
X82264824Y-93827485D01*
X82425447Y-93760952D01*
X82570004Y-93664363D01*
X82692940Y-93541427D01*
X82789529Y-93396870D01*
X82856062Y-93236247D01*
X82889979Y-93065731D01*
X82889979Y-92891873D01*
X82856062Y-92721357D01*
X82789529Y-92560734D01*
X82692940Y-92416177D01*
X82570004Y-92293241D01*
X82425447Y-92196652D01*
X82264824Y-92130119D01*
X82094308Y-92096202D01*
X81920450Y-92096202D01*
X81749934Y-92130119D01*
X81589311Y-92196652D01*
X81444754Y-92293241D01*
X81321818Y-92416177D01*
X81225229Y-92560734D01*
X81158696Y-92721357D01*
X81124779Y-92891873D01*
X73566059Y-92891873D01*
X73460625Y-92786439D01*
X73316068Y-92689850D01*
X73155445Y-92623317D01*
X72984929Y-92589400D01*
X72811071Y-92589400D01*
X72640555Y-92623317D01*
X72479932Y-92689850D01*
X72335375Y-92786439D01*
X72212439Y-92909375D01*
X72115850Y-93053932D01*
X72049317Y-93214555D01*
X72015400Y-93385071D01*
X67235969Y-93385071D01*
X67220935Y-93348777D01*
X67075098Y-93130517D01*
X66889483Y-92944902D01*
X66671223Y-92799065D01*
X66456201Y-92710000D01*
X66671223Y-92620935D01*
X66889483Y-92475098D01*
X67075098Y-92289483D01*
X67220935Y-92071223D01*
X67321389Y-91828705D01*
X67372600Y-91571250D01*
X67372600Y-91308750D01*
X67321389Y-91051295D01*
X67220935Y-90808777D01*
X67075098Y-90590517D01*
X66889483Y-90404902D01*
X66671223Y-90259065D01*
X66456201Y-90170000D01*
X66671223Y-90080935D01*
X66889483Y-89935098D01*
X67075098Y-89749483D01*
X67220935Y-89531223D01*
X67321389Y-89288705D01*
X67372600Y-89031250D01*
X67372600Y-88768750D01*
X67330893Y-88559071D01*
X68713400Y-88559071D01*
X68713400Y-88732929D01*
X68747317Y-88903445D01*
X68813850Y-89064068D01*
X68910439Y-89208625D01*
X69033375Y-89331561D01*
X69177932Y-89428150D01*
X69338555Y-89494683D01*
X69509071Y-89528600D01*
X69682929Y-89528600D01*
X69853445Y-89494683D01*
X70014068Y-89428150D01*
X70158625Y-89331561D01*
X70281561Y-89208625D01*
X70378150Y-89064068D01*
X70444683Y-88903445D01*
X70478600Y-88732929D01*
X70478600Y-88559071D01*
X70444683Y-88388555D01*
X70378150Y-88227932D01*
X70281561Y-88083375D01*
X70249257Y-88051071D01*
X73031400Y-88051071D01*
X73031400Y-88224929D01*
X73065317Y-88395445D01*
X73131850Y-88556068D01*
X73228439Y-88700625D01*
X73351375Y-88823561D01*
X73495932Y-88920150D01*
X73656555Y-88986683D01*
X73827071Y-89020600D01*
X74000929Y-89020600D01*
X74171445Y-88986683D01*
X74332068Y-88920150D01*
X74476625Y-88823561D01*
X74599561Y-88700625D01*
X74696150Y-88556068D01*
X74747511Y-88432071D01*
X76206400Y-88432071D01*
X76206400Y-88605929D01*
X76240317Y-88776445D01*
X76306850Y-88937068D01*
X76403439Y-89081625D01*
X76526375Y-89204561D01*
X76670932Y-89301150D01*
X76831555Y-89367683D01*
X77002071Y-89401600D01*
X77175929Y-89401600D01*
X77346445Y-89367683D01*
X77507068Y-89301150D01*
X77651625Y-89204561D01*
X77774561Y-89081625D01*
X77871150Y-88937068D01*
X77913065Y-88835877D01*
X77913065Y-90512000D01*
X77922383Y-90606606D01*
X77949978Y-90697577D01*
X77994791Y-90781415D01*
X78055099Y-90854901D01*
X78128585Y-90915209D01*
X78212423Y-90960022D01*
X78303394Y-90987617D01*
X78398000Y-90996935D01*
X80098000Y-90996935D01*
X80192606Y-90987617D01*
X80283577Y-90960022D01*
X80367415Y-90915209D01*
X80440901Y-90854901D01*
X80501209Y-90781415D01*
X80546022Y-90697577D01*
X80573617Y-90606606D01*
X80582935Y-90512000D01*
X80582935Y-90234968D01*
X80607065Y-90293223D01*
X80752902Y-90511483D01*
X80938517Y-90697098D01*
X81156777Y-90842935D01*
X81399295Y-90943389D01*
X81656750Y-90994600D01*
X81919250Y-90994600D01*
X82176705Y-90943389D01*
X82419223Y-90842935D01*
X82637483Y-90697098D01*
X82823098Y-90511483D01*
X82968935Y-90293223D01*
X83069389Y-90050705D01*
X83120600Y-89793250D01*
X83120600Y-89530750D01*
X83069389Y-89273295D01*
X82968935Y-89030777D01*
X82823098Y-88812517D01*
X82637483Y-88626902D01*
X82419223Y-88481065D01*
X82204201Y-88392000D01*
X82419223Y-88302935D01*
X82637483Y-88157098D01*
X82823098Y-87971483D01*
X82968935Y-87753223D01*
X83069389Y-87510705D01*
X83120600Y-87253250D01*
X83120600Y-86990750D01*
X83069389Y-86733295D01*
X82968935Y-86490777D01*
X82823098Y-86272517D01*
X82637483Y-86086902D01*
X82419223Y-85941065D01*
X82176705Y-85840611D01*
X81919250Y-85789400D01*
X81656750Y-85789400D01*
X81399295Y-85840611D01*
X81156777Y-85941065D01*
X80938517Y-86086902D01*
X80752902Y-86272517D01*
X80607065Y-86490777D01*
X80582935Y-86549032D01*
X80582935Y-86272000D01*
X80573617Y-86177394D01*
X80546022Y-86086423D01*
X80501209Y-86002585D01*
X80440901Y-85929099D01*
X80367415Y-85868791D01*
X80283577Y-85823978D01*
X80192606Y-85796383D01*
X80098000Y-85787065D01*
X78398000Y-85787065D01*
X78303394Y-85796383D01*
X78212423Y-85823978D01*
X78128585Y-85868791D01*
X78055099Y-85929099D01*
X77994791Y-86002585D01*
X77949978Y-86086423D01*
X77922383Y-86177394D01*
X77913065Y-86272000D01*
X77913065Y-87972000D01*
X77922383Y-88066606D01*
X77949978Y-88157577D01*
X77994791Y-88241415D01*
X78055099Y-88314901D01*
X78128585Y-88375209D01*
X78159998Y-88392000D01*
X78128585Y-88408791D01*
X78055099Y-88469099D01*
X77994791Y-88542585D01*
X77971600Y-88585972D01*
X77971600Y-88432071D01*
X77937683Y-88261555D01*
X77871150Y-88100932D01*
X77774561Y-87956375D01*
X77651625Y-87833439D01*
X77507068Y-87736850D01*
X77346445Y-87670317D01*
X77175929Y-87636400D01*
X77002071Y-87636400D01*
X76831555Y-87670317D01*
X76670932Y-87736850D01*
X76526375Y-87833439D01*
X76403439Y-87956375D01*
X76306850Y-88100932D01*
X76240317Y-88261555D01*
X76206400Y-88432071D01*
X74747511Y-88432071D01*
X74762683Y-88395445D01*
X74796600Y-88224929D01*
X74796600Y-88051071D01*
X74762683Y-87880555D01*
X74696150Y-87719932D01*
X74599561Y-87575375D01*
X74476625Y-87452439D01*
X74332068Y-87355850D01*
X74171445Y-87289317D01*
X74000929Y-87255400D01*
X73827071Y-87255400D01*
X73656555Y-87289317D01*
X73495932Y-87355850D01*
X73351375Y-87452439D01*
X73228439Y-87575375D01*
X73131850Y-87719932D01*
X73065317Y-87880555D01*
X73031400Y-88051071D01*
X70249257Y-88051071D01*
X70158625Y-87960439D01*
X70014068Y-87863850D01*
X69853445Y-87797317D01*
X69682929Y-87763400D01*
X69509071Y-87763400D01*
X69338555Y-87797317D01*
X69177932Y-87863850D01*
X69033375Y-87960439D01*
X68910439Y-88083375D01*
X68813850Y-88227932D01*
X68747317Y-88388555D01*
X68713400Y-88559071D01*
X67330893Y-88559071D01*
X67321389Y-88511295D01*
X67220935Y-88268777D01*
X67075098Y-88050517D01*
X66889483Y-87864902D01*
X66671223Y-87719065D01*
X66456201Y-87630000D01*
X66671223Y-87540935D01*
X66889483Y-87395098D01*
X67075098Y-87209483D01*
X67220935Y-86991223D01*
X67321389Y-86748705D01*
X67372600Y-86491250D01*
X67372600Y-86228750D01*
X67321389Y-85971295D01*
X67220935Y-85728777D01*
X67075098Y-85510517D01*
X66889483Y-85324902D01*
X66671223Y-85179065D01*
X66552941Y-85130071D01*
X73158400Y-85130071D01*
X73158400Y-85303929D01*
X73192317Y-85474445D01*
X73258850Y-85635068D01*
X73355439Y-85779625D01*
X73478375Y-85902561D01*
X73622932Y-85999150D01*
X73783555Y-86065683D01*
X73954071Y-86099600D01*
X74127929Y-86099600D01*
X74298445Y-86065683D01*
X74459068Y-85999150D01*
X74603625Y-85902561D01*
X74726561Y-85779625D01*
X74823150Y-85635068D01*
X74889683Y-85474445D01*
X74923600Y-85303929D01*
X74923600Y-85130071D01*
X74889683Y-84959555D01*
X74823150Y-84798932D01*
X74726561Y-84654375D01*
X74603625Y-84531439D01*
X74459068Y-84434850D01*
X74298445Y-84368317D01*
X74127929Y-84334400D01*
X73954071Y-84334400D01*
X73783555Y-84368317D01*
X73622932Y-84434850D01*
X73478375Y-84531439D01*
X73355439Y-84654375D01*
X73258850Y-84798932D01*
X73192317Y-84959555D01*
X73158400Y-85130071D01*
X66552941Y-85130071D01*
X66456201Y-85090000D01*
X66671223Y-85000935D01*
X66889483Y-84855098D01*
X67075098Y-84669483D01*
X67220935Y-84451223D01*
X67321389Y-84208705D01*
X67372600Y-83951250D01*
X67372600Y-83688750D01*
X67321389Y-83431295D01*
X67220935Y-83188777D01*
X67075098Y-82970517D01*
X66889483Y-82784902D01*
X66671223Y-82639065D01*
X66456201Y-82550000D01*
X66666066Y-82463071D01*
X75825400Y-82463071D01*
X75825400Y-82636929D01*
X75859317Y-82807445D01*
X75925850Y-82968068D01*
X76022439Y-83112625D01*
X76145375Y-83235561D01*
X76289932Y-83332150D01*
X76331098Y-83349202D01*
X76272375Y-83388439D01*
X76149439Y-83511375D01*
X76052850Y-83655932D01*
X75986317Y-83816555D01*
X75952400Y-83987071D01*
X75952400Y-84160929D01*
X75986317Y-84331445D01*
X76052850Y-84492068D01*
X76149439Y-84636625D01*
X76272375Y-84759561D01*
X76416932Y-84856150D01*
X76577555Y-84922683D01*
X76748071Y-84956600D01*
X76921929Y-84956600D01*
X77092445Y-84922683D01*
X77253068Y-84856150D01*
X77397625Y-84759561D01*
X77520561Y-84636625D01*
X77617150Y-84492068D01*
X77683683Y-84331445D01*
X77717600Y-84160929D01*
X77717600Y-83987071D01*
X77683683Y-83816555D01*
X77675131Y-83795909D01*
X77764071Y-83813600D01*
X77937929Y-83813600D01*
X78108445Y-83779683D01*
X78269068Y-83713150D01*
X78413625Y-83616561D01*
X78536561Y-83493625D01*
X78633150Y-83349068D01*
X78699683Y-83188445D01*
X78733600Y-83017929D01*
X78733600Y-82844071D01*
X78699683Y-82673555D01*
X78633150Y-82512932D01*
X78599835Y-82463071D01*
X78746400Y-82463071D01*
X78746400Y-82636929D01*
X78780317Y-82807445D01*
X78846850Y-82968068D01*
X78943439Y-83112625D01*
X79066375Y-83235561D01*
X79210932Y-83332150D01*
X79371555Y-83398683D01*
X79542071Y-83432600D01*
X79715929Y-83432600D01*
X79886445Y-83398683D01*
X80047068Y-83332150D01*
X80191625Y-83235561D01*
X80314561Y-83112625D01*
X80411150Y-82968068D01*
X80477683Y-82807445D01*
X80511600Y-82636929D01*
X80511600Y-82463071D01*
X80477683Y-82292555D01*
X80452457Y-82231654D01*
X80555068Y-82189150D01*
X80699625Y-82092561D01*
X80822561Y-81969625D01*
X80919150Y-81825068D01*
X80985683Y-81664445D01*
X81019600Y-81493929D01*
X81019600Y-81320071D01*
X80985683Y-81149555D01*
X80919150Y-80988932D01*
X80822561Y-80844375D01*
X80699625Y-80721439D01*
X80555068Y-80624850D01*
X80394445Y-80558317D01*
X80223929Y-80524400D01*
X80050071Y-80524400D01*
X79879555Y-80558317D01*
X79718932Y-80624850D01*
X79574375Y-80721439D01*
X79451439Y-80844375D01*
X79354850Y-80988932D01*
X79288317Y-81149555D01*
X79254400Y-81320071D01*
X79254400Y-81493929D01*
X79288317Y-81664445D01*
X79313543Y-81725346D01*
X79210932Y-81767850D01*
X79066375Y-81864439D01*
X78943439Y-81987375D01*
X78846850Y-82131932D01*
X78780317Y-82292555D01*
X78746400Y-82463071D01*
X78599835Y-82463071D01*
X78536561Y-82368375D01*
X78413625Y-82245439D01*
X78269068Y-82148850D01*
X78108445Y-82082317D01*
X77937929Y-82048400D01*
X77764071Y-82048400D01*
X77593555Y-82082317D01*
X77486600Y-82126620D01*
X77393561Y-81987375D01*
X77270625Y-81864439D01*
X77126068Y-81767850D01*
X76965445Y-81701317D01*
X76794929Y-81667400D01*
X76621071Y-81667400D01*
X76450555Y-81701317D01*
X76289932Y-81767850D01*
X76145375Y-81864439D01*
X76022439Y-81987375D01*
X75925850Y-82131932D01*
X75859317Y-82292555D01*
X75825400Y-82463071D01*
X66666066Y-82463071D01*
X66671223Y-82460935D01*
X66889483Y-82315098D01*
X67075098Y-82129483D01*
X67220935Y-81911223D01*
X67321389Y-81668705D01*
X67372600Y-81411250D01*
X67372600Y-81148750D01*
X67321389Y-80891295D01*
X67220935Y-80648777D01*
X67075469Y-80431071D01*
X80905400Y-80431071D01*
X80905400Y-80604929D01*
X80939317Y-80775445D01*
X81005850Y-80936068D01*
X81102439Y-81080625D01*
X81225375Y-81203561D01*
X81369932Y-81300150D01*
X81530555Y-81366683D01*
X81701071Y-81400600D01*
X81874929Y-81400600D01*
X82045445Y-81366683D01*
X82206068Y-81300150D01*
X82350625Y-81203561D01*
X82473561Y-81080625D01*
X82570150Y-80936068D01*
X82636683Y-80775445D01*
X82670600Y-80604929D01*
X82670600Y-80431071D01*
X82636683Y-80260555D01*
X82570150Y-80099932D01*
X82473561Y-79955375D01*
X82350625Y-79832439D01*
X82206068Y-79735850D01*
X82045445Y-79669317D01*
X81874929Y-79635400D01*
X81701071Y-79635400D01*
X81530555Y-79669317D01*
X81369932Y-79735850D01*
X81225375Y-79832439D01*
X81102439Y-79955375D01*
X81005850Y-80099932D01*
X80939317Y-80260555D01*
X80905400Y-80431071D01*
X67075469Y-80431071D01*
X67075098Y-80430517D01*
X66889483Y-80244902D01*
X66671223Y-80099065D01*
X66456201Y-80010000D01*
X66671223Y-79920935D01*
X66889483Y-79775098D01*
X67075098Y-79589483D01*
X67210679Y-79386571D01*
X79479900Y-79386571D01*
X79479900Y-79560429D01*
X79513817Y-79730945D01*
X79580350Y-79891568D01*
X79676939Y-80036125D01*
X79799875Y-80159061D01*
X79944432Y-80255650D01*
X80105055Y-80322183D01*
X80275571Y-80356100D01*
X80449429Y-80356100D01*
X80619945Y-80322183D01*
X80780568Y-80255650D01*
X80925125Y-80159061D01*
X81048061Y-80036125D01*
X81144650Y-79891568D01*
X81211183Y-79730945D01*
X81245100Y-79560429D01*
X81245100Y-79386571D01*
X81211183Y-79216055D01*
X81144650Y-79055432D01*
X81048061Y-78910875D01*
X80925125Y-78787939D01*
X80780568Y-78691350D01*
X80619945Y-78624817D01*
X80449429Y-78590900D01*
X80275571Y-78590900D01*
X80105055Y-78624817D01*
X79944432Y-78691350D01*
X79799875Y-78787939D01*
X79676939Y-78910875D01*
X79580350Y-79055432D01*
X79513817Y-79216055D01*
X79479900Y-79386571D01*
X67210679Y-79386571D01*
X67220935Y-79371223D01*
X67321389Y-79128705D01*
X67372600Y-78871250D01*
X67372600Y-78608750D01*
X67330893Y-78399071D01*
X72777400Y-78399071D01*
X72777400Y-78572929D01*
X72811317Y-78743445D01*
X72877850Y-78904068D01*
X72974439Y-79048625D01*
X73097375Y-79171561D01*
X73241932Y-79268150D01*
X73402555Y-79334683D01*
X73573071Y-79368600D01*
X73746929Y-79368600D01*
X73917445Y-79334683D01*
X74078068Y-79268150D01*
X74222625Y-79171561D01*
X74345561Y-79048625D01*
X74442150Y-78904068D01*
X74508683Y-78743445D01*
X74542600Y-78572929D01*
X74542600Y-78399071D01*
X77857400Y-78399071D01*
X77857400Y-78572929D01*
X77891317Y-78743445D01*
X77957850Y-78904068D01*
X78054439Y-79048625D01*
X78177375Y-79171561D01*
X78321932Y-79268150D01*
X78482555Y-79334683D01*
X78653071Y-79368600D01*
X78826929Y-79368600D01*
X78997445Y-79334683D01*
X79158068Y-79268150D01*
X79302625Y-79171561D01*
X79425561Y-79048625D01*
X79522150Y-78904068D01*
X79588683Y-78743445D01*
X79622600Y-78572929D01*
X79622600Y-78433734D01*
X82902737Y-78433734D01*
X82902737Y-78607592D01*
X82936654Y-78778108D01*
X83003187Y-78938731D01*
X83099776Y-79083288D01*
X83222712Y-79206224D01*
X83367269Y-79302813D01*
X83527892Y-79369346D01*
X83698408Y-79403263D01*
X83872266Y-79403263D01*
X84042782Y-79369346D01*
X84203405Y-79302813D01*
X84347962Y-79206224D01*
X84470898Y-79083288D01*
X84567487Y-78938731D01*
X84634020Y-78778108D01*
X84667937Y-78607592D01*
X84667937Y-78433734D01*
X84634020Y-78263218D01*
X84567487Y-78102595D01*
X84470898Y-77958038D01*
X84347962Y-77835102D01*
X84203405Y-77738513D01*
X84042782Y-77671980D01*
X83872266Y-77638063D01*
X83698408Y-77638063D01*
X83527892Y-77671980D01*
X83367269Y-77738513D01*
X83222712Y-77835102D01*
X83099776Y-77958038D01*
X83003187Y-78102595D01*
X82936654Y-78263218D01*
X82902737Y-78433734D01*
X79622600Y-78433734D01*
X79622600Y-78399071D01*
X79588683Y-78228555D01*
X79522150Y-78067932D01*
X79425561Y-77923375D01*
X79302625Y-77800439D01*
X79158068Y-77703850D01*
X78997445Y-77637317D01*
X78826929Y-77603400D01*
X78653071Y-77603400D01*
X78482555Y-77637317D01*
X78321932Y-77703850D01*
X78177375Y-77800439D01*
X78054439Y-77923375D01*
X77957850Y-78067932D01*
X77891317Y-78228555D01*
X77857400Y-78399071D01*
X74542600Y-78399071D01*
X74508683Y-78228555D01*
X74442150Y-78067932D01*
X74345561Y-77923375D01*
X74222625Y-77800439D01*
X74078068Y-77703850D01*
X73917445Y-77637317D01*
X73746929Y-77603400D01*
X73573071Y-77603400D01*
X73402555Y-77637317D01*
X73241932Y-77703850D01*
X73097375Y-77800439D01*
X72974439Y-77923375D01*
X72877850Y-78067932D01*
X72811317Y-78228555D01*
X72777400Y-78399071D01*
X67330893Y-78399071D01*
X67321389Y-78351295D01*
X67220935Y-78108777D01*
X67075098Y-77890517D01*
X66889483Y-77704902D01*
X66671223Y-77559065D01*
X66456201Y-77470000D01*
X66671223Y-77380935D01*
X66889483Y-77235098D01*
X66995510Y-77129071D01*
X68840400Y-77129071D01*
X68840400Y-77302929D01*
X68874317Y-77473445D01*
X68940850Y-77634068D01*
X69037439Y-77778625D01*
X69160375Y-77901561D01*
X69304932Y-77998150D01*
X69465555Y-78064683D01*
X69636071Y-78098600D01*
X69809929Y-78098600D01*
X69980445Y-78064683D01*
X70141068Y-77998150D01*
X70285625Y-77901561D01*
X70408561Y-77778625D01*
X70505150Y-77634068D01*
X70571683Y-77473445D01*
X70605600Y-77302929D01*
X70605600Y-77129071D01*
X70571683Y-76958555D01*
X70505150Y-76797932D01*
X70471835Y-76748071D01*
X74809400Y-76748071D01*
X74809400Y-76921929D01*
X74843317Y-77092445D01*
X74909850Y-77253068D01*
X75006439Y-77397625D01*
X75129375Y-77520561D01*
X75273932Y-77617150D01*
X75434555Y-77683683D01*
X75605071Y-77717600D01*
X75778929Y-77717600D01*
X75949445Y-77683683D01*
X76110068Y-77617150D01*
X76254625Y-77520561D01*
X76377561Y-77397625D01*
X76474150Y-77253068D01*
X76540683Y-77092445D01*
X76574600Y-76921929D01*
X76574600Y-76748071D01*
X76540683Y-76577555D01*
X76474150Y-76416932D01*
X76377561Y-76272375D01*
X76254625Y-76149439D01*
X76110068Y-76052850D01*
X75949445Y-75986317D01*
X75778929Y-75952400D01*
X75605071Y-75952400D01*
X75434555Y-75986317D01*
X75273932Y-76052850D01*
X75129375Y-76149439D01*
X75006439Y-76272375D01*
X74909850Y-76416932D01*
X74843317Y-76577555D01*
X74809400Y-76748071D01*
X70471835Y-76748071D01*
X70408561Y-76653375D01*
X70285625Y-76530439D01*
X70141068Y-76433850D01*
X69980445Y-76367317D01*
X69809929Y-76333400D01*
X69636071Y-76333400D01*
X69465555Y-76367317D01*
X69304932Y-76433850D01*
X69160375Y-76530439D01*
X69037439Y-76653375D01*
X68940850Y-76797932D01*
X68874317Y-76958555D01*
X68840400Y-77129071D01*
X66995510Y-77129071D01*
X67075098Y-77049483D01*
X67220935Y-76831223D01*
X67321389Y-76588705D01*
X67372600Y-76331250D01*
X67372600Y-76068750D01*
X67321389Y-75811295D01*
X67220935Y-75568777D01*
X67075098Y-75350517D01*
X66889483Y-75164902D01*
X66671223Y-75019065D01*
X66456201Y-74930000D01*
X66671223Y-74840935D01*
X66889483Y-74695098D01*
X67075098Y-74509483D01*
X67220935Y-74291223D01*
X67321389Y-74048705D01*
X67372600Y-73791250D01*
X67372600Y-73528750D01*
X67321389Y-73271295D01*
X67235969Y-73065071D01*
X73539400Y-73065071D01*
X73539400Y-73238929D01*
X73573317Y-73409445D01*
X73639850Y-73570068D01*
X73736439Y-73714625D01*
X73859375Y-73837561D01*
X74003932Y-73934150D01*
X74164555Y-74000683D01*
X74335071Y-74034600D01*
X74508929Y-74034600D01*
X74679445Y-74000683D01*
X74840068Y-73934150D01*
X74984625Y-73837561D01*
X75107561Y-73714625D01*
X75204150Y-73570068D01*
X75270683Y-73409445D01*
X75304600Y-73238929D01*
X75304600Y-73192071D01*
X78111400Y-73192071D01*
X78111400Y-73365929D01*
X78145317Y-73536445D01*
X78211850Y-73697068D01*
X78308439Y-73841625D01*
X78431375Y-73964561D01*
X78575932Y-74061150D01*
X78736555Y-74127683D01*
X78907071Y-74161600D01*
X79080929Y-74161600D01*
X79251445Y-74127683D01*
X79412068Y-74061150D01*
X79556625Y-73964561D01*
X79679561Y-73841625D01*
X79776150Y-73697068D01*
X79842683Y-73536445D01*
X79876600Y-73365929D01*
X79876600Y-73192071D01*
X79842683Y-73021555D01*
X79776150Y-72860932D01*
X79679561Y-72716375D01*
X79556625Y-72593439D01*
X79412068Y-72496850D01*
X79251445Y-72430317D01*
X79080929Y-72396400D01*
X78907071Y-72396400D01*
X78736555Y-72430317D01*
X78575932Y-72496850D01*
X78431375Y-72593439D01*
X78308439Y-72716375D01*
X78211850Y-72860932D01*
X78145317Y-73021555D01*
X78111400Y-73192071D01*
X75304600Y-73192071D01*
X75304600Y-73065071D01*
X75270683Y-72894555D01*
X75204150Y-72733932D01*
X75107561Y-72589375D01*
X74984625Y-72466439D01*
X74840068Y-72369850D01*
X74679445Y-72303317D01*
X74678209Y-72303071D01*
X79889400Y-72303071D01*
X79889400Y-72476929D01*
X79923317Y-72647445D01*
X79989850Y-72808068D01*
X80086439Y-72952625D01*
X80209375Y-73075561D01*
X80353932Y-73172150D01*
X80514555Y-73238683D01*
X80685071Y-73272600D01*
X80858929Y-73272600D01*
X81029445Y-73238683D01*
X81190068Y-73172150D01*
X81334625Y-73075561D01*
X81457561Y-72952625D01*
X81554150Y-72808068D01*
X81620683Y-72647445D01*
X81654600Y-72476929D01*
X81654600Y-72303071D01*
X81620683Y-72132555D01*
X81554150Y-71971932D01*
X81457561Y-71827375D01*
X81334625Y-71704439D01*
X81190068Y-71607850D01*
X81029445Y-71541317D01*
X80858929Y-71507400D01*
X80685071Y-71507400D01*
X80514555Y-71541317D01*
X80353932Y-71607850D01*
X80209375Y-71704439D01*
X80086439Y-71827375D01*
X79989850Y-71971932D01*
X79923317Y-72132555D01*
X79889400Y-72303071D01*
X74678209Y-72303071D01*
X74508929Y-72269400D01*
X74335071Y-72269400D01*
X74164555Y-72303317D01*
X74003932Y-72369850D01*
X73859375Y-72466439D01*
X73736439Y-72589375D01*
X73639850Y-72733932D01*
X73573317Y-72894555D01*
X73539400Y-73065071D01*
X67235969Y-73065071D01*
X67220935Y-73028777D01*
X67075098Y-72810517D01*
X66889483Y-72624902D01*
X66671223Y-72479065D01*
X66456201Y-72390000D01*
X66671223Y-72300935D01*
X66889483Y-72155098D01*
X67075098Y-71969483D01*
X67220935Y-71751223D01*
X67321389Y-71508705D01*
X67340212Y-71414071D01*
X68907000Y-71414071D01*
X68907000Y-71587929D01*
X68940917Y-71758445D01*
X69007450Y-71919068D01*
X69104039Y-72063625D01*
X69226975Y-72186561D01*
X69371532Y-72283150D01*
X69532155Y-72349683D01*
X69702671Y-72383600D01*
X69876529Y-72383600D01*
X70047045Y-72349683D01*
X70207668Y-72283150D01*
X70352225Y-72186561D01*
X70475161Y-72063625D01*
X70571750Y-71919068D01*
X70638283Y-71758445D01*
X70672200Y-71587929D01*
X70672200Y-71414071D01*
X70638283Y-71243555D01*
X70571750Y-71082932D01*
X70475161Y-70938375D01*
X70352225Y-70815439D01*
X70207668Y-70718850D01*
X70047045Y-70652317D01*
X69876529Y-70618400D01*
X69702671Y-70618400D01*
X69532155Y-70652317D01*
X69371532Y-70718850D01*
X69226975Y-70815439D01*
X69104039Y-70938375D01*
X69007450Y-71082932D01*
X68940917Y-71243555D01*
X68907000Y-71414071D01*
X67340212Y-71414071D01*
X67372600Y-71251250D01*
X67372600Y-70988750D01*
X67321389Y-70731295D01*
X67258850Y-70580312D01*
X67336432Y-70632150D01*
X67497055Y-70698683D01*
X67667571Y-70732600D01*
X67841429Y-70732600D01*
X68011945Y-70698683D01*
X68172568Y-70632150D01*
X68317125Y-70535561D01*
X68440061Y-70412625D01*
X68536650Y-70268068D01*
X68603183Y-70107445D01*
X68637100Y-69936929D01*
X68637100Y-69890071D01*
X70491400Y-69890071D01*
X70491400Y-70063929D01*
X70525317Y-70234445D01*
X70591850Y-70395068D01*
X70688439Y-70539625D01*
X70811375Y-70662561D01*
X70955932Y-70759150D01*
X71116555Y-70825683D01*
X71287071Y-70859600D01*
X71460929Y-70859600D01*
X71631445Y-70825683D01*
X71792068Y-70759150D01*
X71936625Y-70662561D01*
X72059561Y-70539625D01*
X72156150Y-70395068D01*
X72222683Y-70234445D01*
X72256600Y-70063929D01*
X72256600Y-69890071D01*
X72222683Y-69719555D01*
X72213282Y-69696857D01*
X72390971Y-69696857D01*
X72390971Y-69870715D01*
X72424888Y-70041231D01*
X72491421Y-70201854D01*
X72588010Y-70346411D01*
X72710946Y-70469347D01*
X72855503Y-70565936D01*
X73016126Y-70632469D01*
X73186642Y-70666386D01*
X73360500Y-70666386D01*
X73393090Y-70659904D01*
X73482439Y-70793625D01*
X73605375Y-70916561D01*
X73749932Y-71013150D01*
X73910555Y-71079683D01*
X74081071Y-71113600D01*
X74254929Y-71113600D01*
X74425445Y-71079683D01*
X74586068Y-71013150D01*
X74676000Y-70953060D01*
X74765932Y-71013150D01*
X74926555Y-71079683D01*
X75097071Y-71113600D01*
X75270929Y-71113600D01*
X75441445Y-71079683D01*
X75602068Y-71013150D01*
X75746625Y-70916561D01*
X75869561Y-70793625D01*
X75964143Y-70652071D01*
X78365400Y-70652071D01*
X78365400Y-70825929D01*
X78399317Y-70996445D01*
X78465850Y-71157068D01*
X78562439Y-71301625D01*
X78685375Y-71424561D01*
X78829932Y-71521150D01*
X78990555Y-71587683D01*
X79161071Y-71621600D01*
X79334929Y-71621600D01*
X79505445Y-71587683D01*
X79666068Y-71521150D01*
X79810625Y-71424561D01*
X79933561Y-71301625D01*
X80030150Y-71157068D01*
X80096683Y-70996445D01*
X80130600Y-70825929D01*
X80130600Y-70652071D01*
X80096683Y-70481555D01*
X80030150Y-70320932D01*
X79933561Y-70176375D01*
X79810625Y-70053439D01*
X79666068Y-69956850D01*
X79505445Y-69890317D01*
X79334929Y-69856400D01*
X79161071Y-69856400D01*
X78990555Y-69890317D01*
X78829932Y-69956850D01*
X78685375Y-70053439D01*
X78562439Y-70176375D01*
X78465850Y-70320932D01*
X78399317Y-70481555D01*
X78365400Y-70652071D01*
X75964143Y-70652071D01*
X75966150Y-70649068D01*
X76032683Y-70488445D01*
X76066600Y-70317929D01*
X76066600Y-70144071D01*
X76032683Y-69973555D01*
X75966150Y-69812932D01*
X75869561Y-69668375D01*
X75746625Y-69545439D01*
X75602068Y-69448850D01*
X75441445Y-69382317D01*
X75270929Y-69348400D01*
X75097071Y-69348400D01*
X74926555Y-69382317D01*
X74765932Y-69448850D01*
X74676000Y-69508940D01*
X74586068Y-69448850D01*
X74425445Y-69382317D01*
X74254929Y-69348400D01*
X74081071Y-69348400D01*
X74048481Y-69354882D01*
X73959132Y-69221161D01*
X73836196Y-69098225D01*
X73691639Y-69001636D01*
X73531016Y-68935103D01*
X73360500Y-68901186D01*
X73186642Y-68901186D01*
X73016126Y-68935103D01*
X72855503Y-69001636D01*
X72710946Y-69098225D01*
X72588010Y-69221161D01*
X72491421Y-69365718D01*
X72424888Y-69526341D01*
X72390971Y-69696857D01*
X72213282Y-69696857D01*
X72156150Y-69558932D01*
X72059561Y-69414375D01*
X71936625Y-69291439D01*
X71792068Y-69194850D01*
X71631445Y-69128317D01*
X71460929Y-69094400D01*
X71287071Y-69094400D01*
X71116555Y-69128317D01*
X70955932Y-69194850D01*
X70811375Y-69291439D01*
X70688439Y-69414375D01*
X70591850Y-69558932D01*
X70525317Y-69719555D01*
X70491400Y-69890071D01*
X68637100Y-69890071D01*
X68637100Y-69763071D01*
X68603183Y-69592555D01*
X68536650Y-69431932D01*
X68440061Y-69287375D01*
X68317125Y-69164439D01*
X68172568Y-69067850D01*
X68011945Y-69001317D01*
X67841429Y-68967400D01*
X67667571Y-68967400D01*
X67497055Y-69001317D01*
X67336432Y-69067850D01*
X67258850Y-69119688D01*
X67321389Y-68968705D01*
X67340212Y-68874071D01*
X68967400Y-68874071D01*
X68967400Y-69047929D01*
X69001317Y-69218445D01*
X69067850Y-69379068D01*
X69164439Y-69523625D01*
X69287375Y-69646561D01*
X69431932Y-69743150D01*
X69592555Y-69809683D01*
X69763071Y-69843600D01*
X69936929Y-69843600D01*
X70107445Y-69809683D01*
X70268068Y-69743150D01*
X70412625Y-69646561D01*
X70535561Y-69523625D01*
X70632150Y-69379068D01*
X70698683Y-69218445D01*
X70732600Y-69047929D01*
X70732600Y-68874071D01*
X70698683Y-68703555D01*
X70637800Y-68556571D01*
X76650900Y-68556571D01*
X76650900Y-68730429D01*
X76684817Y-68900945D01*
X76751350Y-69061568D01*
X76847939Y-69206125D01*
X76970875Y-69329061D01*
X77115432Y-69425650D01*
X77276055Y-69492183D01*
X77446571Y-69526100D01*
X77620429Y-69526100D01*
X77790945Y-69492183D01*
X77951568Y-69425650D01*
X78036095Y-69369171D01*
X78054439Y-69396625D01*
X78177375Y-69519561D01*
X78321932Y-69616150D01*
X78482555Y-69682683D01*
X78653071Y-69716600D01*
X78826929Y-69716600D01*
X78997445Y-69682683D01*
X79158068Y-69616150D01*
X79302625Y-69519561D01*
X79425561Y-69396625D01*
X79435926Y-69381112D01*
X79447375Y-69392561D01*
X79591932Y-69489150D01*
X79752555Y-69555683D01*
X79923071Y-69589600D01*
X80096929Y-69589600D01*
X80267445Y-69555683D01*
X80428068Y-69489150D01*
X80572625Y-69392561D01*
X80695561Y-69269625D01*
X80792150Y-69125068D01*
X80858683Y-68964445D01*
X80883044Y-68841971D01*
X80891295Y-68845389D01*
X81148750Y-68896600D01*
X81286400Y-68896600D01*
X81286400Y-68920929D01*
X81320317Y-69091445D01*
X81386850Y-69252068D01*
X81483439Y-69396625D01*
X81606375Y-69519561D01*
X81750932Y-69616150D01*
X81911555Y-69682683D01*
X82082071Y-69716600D01*
X82255929Y-69716600D01*
X82426445Y-69682683D01*
X82587068Y-69616150D01*
X82731625Y-69519561D01*
X82854561Y-69396625D01*
X82951150Y-69252068D01*
X83017683Y-69091445D01*
X83051600Y-68920929D01*
X83051600Y-68747071D01*
X83017683Y-68576555D01*
X82951150Y-68415932D01*
X82854561Y-68271375D01*
X82731625Y-68148439D01*
X82587068Y-68051850D01*
X82530097Y-68028251D01*
X82561389Y-67952705D01*
X82612600Y-67695250D01*
X82612600Y-67432750D01*
X82561389Y-67175295D01*
X82460935Y-66932777D01*
X82315098Y-66714517D01*
X82129483Y-66528902D01*
X81911223Y-66383065D01*
X81696201Y-66294000D01*
X81911223Y-66204935D01*
X82129483Y-66059098D01*
X82315098Y-65873483D01*
X82460935Y-65655223D01*
X82561389Y-65412705D01*
X82612600Y-65155250D01*
X82612600Y-64892750D01*
X82561389Y-64635295D01*
X82460935Y-64392777D01*
X82315098Y-64174517D01*
X82129483Y-63988902D01*
X81911223Y-63843065D01*
X81696201Y-63754000D01*
X81911223Y-63664935D01*
X82129483Y-63519098D01*
X82315098Y-63333483D01*
X82460935Y-63115223D01*
X82561389Y-62872705D01*
X82612600Y-62615250D01*
X82612600Y-62352750D01*
X82561389Y-62095295D01*
X82460935Y-61852777D01*
X82315098Y-61634517D01*
X82129483Y-61448902D01*
X82065577Y-61406201D01*
X82130000Y-61406550D01*
X82249503Y-61394780D01*
X82364413Y-61359922D01*
X82433761Y-61322855D01*
X82463317Y-61471445D01*
X82529850Y-61632068D01*
X82626439Y-61776625D01*
X82749375Y-61899561D01*
X82893932Y-61996150D01*
X83054555Y-62062683D01*
X83225071Y-62096600D01*
X83398929Y-62096600D01*
X83569445Y-62062683D01*
X83730068Y-61996150D01*
X83874625Y-61899561D01*
X83997561Y-61776625D01*
X84094150Y-61632068D01*
X84160683Y-61471445D01*
X84194600Y-61300929D01*
X84194600Y-61127071D01*
X84160683Y-60956555D01*
X84094150Y-60795932D01*
X83997561Y-60651375D01*
X83874625Y-60528439D01*
X83730068Y-60431850D01*
X83569445Y-60365317D01*
X83398929Y-60331400D01*
X83225071Y-60331400D01*
X83054555Y-60365317D01*
X82893932Y-60431850D01*
X82749375Y-60528439D01*
X82741158Y-60536656D01*
X82739600Y-60248800D01*
X82587200Y-60096400D01*
X81432400Y-60096400D01*
X81432400Y-60116400D01*
X81127600Y-60116400D01*
X81127600Y-60096400D01*
X79972800Y-60096400D01*
X79820400Y-60248800D01*
X79817450Y-60794000D01*
X79829220Y-60913503D01*
X79864078Y-61028413D01*
X79920683Y-61134315D01*
X79996862Y-61227138D01*
X80089685Y-61303317D01*
X80195587Y-61359922D01*
X80310497Y-61394780D01*
X80430000Y-61406550D01*
X80494423Y-61406201D01*
X80430517Y-61448902D01*
X80244902Y-61634517D01*
X80099065Y-61852777D01*
X79998611Y-62095295D01*
X79947400Y-62352750D01*
X79947400Y-62615250D01*
X79998611Y-62872705D01*
X80099065Y-63115223D01*
X80244902Y-63333483D01*
X80430517Y-63519098D01*
X80648777Y-63664935D01*
X80863799Y-63754000D01*
X80648777Y-63843065D01*
X80430517Y-63988902D01*
X80244902Y-64174517D01*
X80099065Y-64392777D01*
X79998611Y-64635295D01*
X79947400Y-64892750D01*
X79947400Y-65155250D01*
X79998611Y-65412705D01*
X80099065Y-65655223D01*
X80244902Y-65873483D01*
X80430517Y-66059098D01*
X80648777Y-66204935D01*
X80863799Y-66294000D01*
X80648777Y-66383065D01*
X80430517Y-66528902D01*
X80244902Y-66714517D01*
X80099065Y-66932777D01*
X79998611Y-67175295D01*
X79947400Y-67432750D01*
X79947400Y-67695250D01*
X79973090Y-67824400D01*
X79923071Y-67824400D01*
X79752555Y-67858317D01*
X79591932Y-67924850D01*
X79447375Y-68021439D01*
X79324439Y-68144375D01*
X79314074Y-68159888D01*
X79302625Y-68148439D01*
X79158068Y-68051850D01*
X78997445Y-67985317D01*
X78826929Y-67951400D01*
X78653071Y-67951400D01*
X78482555Y-67985317D01*
X78321932Y-68051850D01*
X78237405Y-68108329D01*
X78219061Y-68080875D01*
X78096125Y-67957939D01*
X77951568Y-67861350D01*
X77790945Y-67794817D01*
X77620429Y-67760900D01*
X77446571Y-67760900D01*
X77276055Y-67794817D01*
X77115432Y-67861350D01*
X76970875Y-67957939D01*
X76847939Y-68080875D01*
X76751350Y-68225432D01*
X76684817Y-68386055D01*
X76650900Y-68556571D01*
X70637800Y-68556571D01*
X70632150Y-68542932D01*
X70535561Y-68398375D01*
X70412625Y-68275439D01*
X70268068Y-68178850D01*
X70107445Y-68112317D01*
X69936929Y-68078400D01*
X69763071Y-68078400D01*
X69592555Y-68112317D01*
X69431932Y-68178850D01*
X69287375Y-68275439D01*
X69164439Y-68398375D01*
X69067850Y-68542932D01*
X69001317Y-68703555D01*
X68967400Y-68874071D01*
X67340212Y-68874071D01*
X67372600Y-68711250D01*
X67372600Y-68448750D01*
X67321389Y-68191295D01*
X67220935Y-67948777D01*
X67075098Y-67730517D01*
X66889483Y-67544902D01*
X66671223Y-67399065D01*
X66456201Y-67310000D01*
X66666066Y-67223071D01*
X67316400Y-67223071D01*
X67316400Y-67396929D01*
X67350317Y-67567445D01*
X67416850Y-67728068D01*
X67513439Y-67872625D01*
X67636375Y-67995561D01*
X67780932Y-68092150D01*
X67941555Y-68158683D01*
X68112071Y-68192600D01*
X68285929Y-68192600D01*
X68456445Y-68158683D01*
X68617068Y-68092150D01*
X68761625Y-67995561D01*
X68884561Y-67872625D01*
X68981150Y-67728068D01*
X69047683Y-67567445D01*
X69081600Y-67396929D01*
X69081600Y-67223071D01*
X69047683Y-67052555D01*
X68981150Y-66891932D01*
X68884561Y-66747375D01*
X68761625Y-66624439D01*
X68617068Y-66527850D01*
X68456445Y-66461317D01*
X68285929Y-66427400D01*
X68112071Y-66427400D01*
X67941555Y-66461317D01*
X67780932Y-66527850D01*
X67636375Y-66624439D01*
X67513439Y-66747375D01*
X67416850Y-66891932D01*
X67350317Y-67052555D01*
X67316400Y-67223071D01*
X66666066Y-67223071D01*
X66671223Y-67220935D01*
X66889483Y-67075098D01*
X67075098Y-66889483D01*
X67220935Y-66671223D01*
X67321389Y-66428705D01*
X67372600Y-66171250D01*
X67372600Y-65908750D01*
X67321389Y-65651295D01*
X67220935Y-65408777D01*
X67202757Y-65381571D01*
X68141900Y-65381571D01*
X68141900Y-65555429D01*
X68175817Y-65725945D01*
X68242350Y-65886568D01*
X68338939Y-66031125D01*
X68461875Y-66154061D01*
X68606432Y-66250650D01*
X68767055Y-66317183D01*
X68937571Y-66351100D01*
X69111429Y-66351100D01*
X69281945Y-66317183D01*
X69442568Y-66250650D01*
X69587125Y-66154061D01*
X69710061Y-66031125D01*
X69806650Y-65886568D01*
X69873183Y-65725945D01*
X69907100Y-65555429D01*
X69907100Y-65381571D01*
X69873183Y-65211055D01*
X69806650Y-65050432D01*
X69730129Y-64935909D01*
X69828999Y-64837039D01*
X69925588Y-64692482D01*
X69992121Y-64531859D01*
X70026038Y-64361343D01*
X70026038Y-64187485D01*
X69992121Y-64016969D01*
X69925588Y-63856346D01*
X69828999Y-63711789D01*
X69706063Y-63588853D01*
X69561506Y-63492264D01*
X69400883Y-63425731D01*
X69230367Y-63391814D01*
X69056509Y-63391814D01*
X68885993Y-63425731D01*
X68725370Y-63492264D01*
X68580813Y-63588853D01*
X68457877Y-63711789D01*
X68361288Y-63856346D01*
X68294755Y-64016969D01*
X68260838Y-64187485D01*
X68260838Y-64361343D01*
X68294755Y-64531859D01*
X68361288Y-64692482D01*
X68437809Y-64807005D01*
X68338939Y-64905875D01*
X68242350Y-65050432D01*
X68175817Y-65211055D01*
X68141900Y-65381571D01*
X67202757Y-65381571D01*
X67075098Y-65190517D01*
X66889483Y-65004902D01*
X66671223Y-64859065D01*
X66456201Y-64770000D01*
X66671223Y-64680935D01*
X66889483Y-64535098D01*
X67075098Y-64349483D01*
X67220935Y-64131223D01*
X67321389Y-63888705D01*
X67372600Y-63631250D01*
X67372600Y-63368750D01*
X67321389Y-63111295D01*
X67220935Y-62868777D01*
X67075098Y-62650517D01*
X66889483Y-62464902D01*
X66671223Y-62319065D01*
X66456201Y-62230000D01*
X66671223Y-62140935D01*
X66889483Y-61995098D01*
X67075098Y-61809483D01*
X67106777Y-61762071D01*
X68586400Y-61762071D01*
X68586400Y-61935929D01*
X68620317Y-62106445D01*
X68686850Y-62267068D01*
X68783439Y-62411625D01*
X68906375Y-62534561D01*
X69050932Y-62631150D01*
X69211555Y-62697683D01*
X69382071Y-62731600D01*
X69555929Y-62731600D01*
X69726445Y-62697683D01*
X69887068Y-62631150D01*
X70031625Y-62534561D01*
X70154561Y-62411625D01*
X70251150Y-62267068D01*
X70317683Y-62106445D01*
X70351600Y-61935929D01*
X70351600Y-61762071D01*
X70317683Y-61591555D01*
X70251150Y-61430932D01*
X70154561Y-61286375D01*
X70031625Y-61163439D01*
X69887068Y-61066850D01*
X69726445Y-61000317D01*
X69686241Y-60992320D01*
X70304000Y-60992320D01*
X70304000Y-61166178D01*
X70337917Y-61336694D01*
X70404450Y-61497317D01*
X70501039Y-61641874D01*
X70623975Y-61764810D01*
X70768532Y-61861399D01*
X70929155Y-61927932D01*
X71099671Y-61961849D01*
X71273529Y-61961849D01*
X71444045Y-61927932D01*
X71604668Y-61861399D01*
X71749225Y-61764810D01*
X71872161Y-61641874D01*
X71968750Y-61497317D01*
X72035283Y-61336694D01*
X72051717Y-61254071D01*
X72650400Y-61254071D01*
X72650400Y-61427929D01*
X72684317Y-61598445D01*
X72750850Y-61759068D01*
X72847439Y-61903625D01*
X72970375Y-62026561D01*
X73114932Y-62123150D01*
X73275555Y-62189683D01*
X73446071Y-62223600D01*
X73619929Y-62223600D01*
X73790445Y-62189683D01*
X73902975Y-62143071D01*
X74682400Y-62143071D01*
X74682400Y-62316929D01*
X74716317Y-62487445D01*
X74782850Y-62648068D01*
X74879439Y-62792625D01*
X75002375Y-62915561D01*
X75146932Y-63012150D01*
X75307555Y-63078683D01*
X75478071Y-63112600D01*
X75651929Y-63112600D01*
X75822445Y-63078683D01*
X75983068Y-63012150D01*
X76127625Y-62915561D01*
X76250561Y-62792625D01*
X76347150Y-62648068D01*
X76413683Y-62487445D01*
X76447600Y-62316929D01*
X76447600Y-62143071D01*
X76413683Y-61972555D01*
X76347150Y-61811932D01*
X76250561Y-61667375D01*
X76127625Y-61544439D01*
X75983068Y-61447850D01*
X75822445Y-61381317D01*
X75821209Y-61381071D01*
X77476400Y-61381071D01*
X77476400Y-61554929D01*
X77510317Y-61725445D01*
X77576850Y-61886068D01*
X77673439Y-62030625D01*
X77796375Y-62153561D01*
X77940932Y-62250150D01*
X78101555Y-62316683D01*
X78272071Y-62350600D01*
X78445929Y-62350600D01*
X78616445Y-62316683D01*
X78777068Y-62250150D01*
X78921625Y-62153561D01*
X79044561Y-62030625D01*
X79141150Y-61886068D01*
X79207683Y-61725445D01*
X79241600Y-61554929D01*
X79241600Y-61381071D01*
X79207683Y-61210555D01*
X79141150Y-61049932D01*
X79044561Y-60905375D01*
X78921625Y-60782439D01*
X78777068Y-60685850D01*
X78616445Y-60619317D01*
X78445929Y-60585400D01*
X78272071Y-60585400D01*
X78101555Y-60619317D01*
X77940932Y-60685850D01*
X77796375Y-60782439D01*
X77673439Y-60905375D01*
X77576850Y-61049932D01*
X77510317Y-61210555D01*
X77476400Y-61381071D01*
X75821209Y-61381071D01*
X75651929Y-61347400D01*
X75478071Y-61347400D01*
X75307555Y-61381317D01*
X75146932Y-61447850D01*
X75002375Y-61544439D01*
X74879439Y-61667375D01*
X74782850Y-61811932D01*
X74716317Y-61972555D01*
X74682400Y-62143071D01*
X73902975Y-62143071D01*
X73951068Y-62123150D01*
X74095625Y-62026561D01*
X74218561Y-61903625D01*
X74315150Y-61759068D01*
X74381683Y-61598445D01*
X74415600Y-61427929D01*
X74415600Y-61254071D01*
X74381683Y-61083555D01*
X74315150Y-60922932D01*
X74218561Y-60778375D01*
X74095625Y-60655439D01*
X73951068Y-60558850D01*
X73790445Y-60492317D01*
X73619929Y-60458400D01*
X73446071Y-60458400D01*
X73275555Y-60492317D01*
X73114932Y-60558850D01*
X72970375Y-60655439D01*
X72847439Y-60778375D01*
X72750850Y-60922932D01*
X72684317Y-61083555D01*
X72650400Y-61254071D01*
X72051717Y-61254071D01*
X72069200Y-61166178D01*
X72069200Y-60992320D01*
X72035283Y-60821804D01*
X71968750Y-60661181D01*
X71872161Y-60516624D01*
X71749225Y-60393688D01*
X71604668Y-60297099D01*
X71444045Y-60230566D01*
X71273529Y-60196649D01*
X71099671Y-60196649D01*
X70929155Y-60230566D01*
X70768532Y-60297099D01*
X70623975Y-60393688D01*
X70501039Y-60516624D01*
X70404450Y-60661181D01*
X70337917Y-60821804D01*
X70304000Y-60992320D01*
X69686241Y-60992320D01*
X69555929Y-60966400D01*
X69382071Y-60966400D01*
X69211555Y-61000317D01*
X69050932Y-61066850D01*
X68906375Y-61163439D01*
X68783439Y-61286375D01*
X68686850Y-61430932D01*
X68620317Y-61591555D01*
X68586400Y-61762071D01*
X67106777Y-61762071D01*
X67220935Y-61591223D01*
X67321389Y-61348705D01*
X67372600Y-61091250D01*
X67372600Y-60828750D01*
X67321389Y-60571295D01*
X67220935Y-60328777D01*
X67075098Y-60110517D01*
X66889483Y-59924902D01*
X66671223Y-59779065D01*
X66456201Y-59690000D01*
X66671223Y-59600935D01*
X66889483Y-59455098D01*
X67075098Y-59269483D01*
X67220935Y-59051223D01*
X67321389Y-58808705D01*
X67372600Y-58551250D01*
X67372600Y-58333071D01*
X69348400Y-58333071D01*
X69348400Y-58506929D01*
X69382317Y-58677445D01*
X69448850Y-58838068D01*
X69545439Y-58982625D01*
X69668375Y-59105561D01*
X69812932Y-59202150D01*
X69973555Y-59268683D01*
X70144071Y-59302600D01*
X70317929Y-59302600D01*
X70488445Y-59268683D01*
X70600975Y-59222071D01*
X73920400Y-59222071D01*
X73920400Y-59395929D01*
X73954317Y-59566445D01*
X74020850Y-59727068D01*
X74117439Y-59871625D01*
X74240375Y-59994561D01*
X74384932Y-60091150D01*
X74545555Y-60157683D01*
X74716071Y-60191600D01*
X74889929Y-60191600D01*
X75060445Y-60157683D01*
X75221068Y-60091150D01*
X75365625Y-59994561D01*
X75488561Y-59871625D01*
X75585150Y-59727068D01*
X75651683Y-59566445D01*
X75685600Y-59395929D01*
X75685600Y-59302600D01*
X75778929Y-59302600D01*
X75949445Y-59268683D01*
X76110068Y-59202150D01*
X76254625Y-59105561D01*
X76266186Y-59094000D01*
X79817450Y-59094000D01*
X79820400Y-59639200D01*
X79972800Y-59791600D01*
X81127600Y-59791600D01*
X81127600Y-58636800D01*
X81432400Y-58636800D01*
X81432400Y-59791600D01*
X82587200Y-59791600D01*
X82739600Y-59639200D01*
X82742550Y-59094000D01*
X82730780Y-58974497D01*
X82695922Y-58859587D01*
X82639317Y-58753685D01*
X82563138Y-58660862D01*
X82470315Y-58584683D01*
X82364413Y-58528078D01*
X82249503Y-58493220D01*
X82130000Y-58481450D01*
X81584800Y-58484400D01*
X81432400Y-58636800D01*
X81127600Y-58636800D01*
X80975200Y-58484400D01*
X80430000Y-58481450D01*
X80310497Y-58493220D01*
X80195587Y-58528078D01*
X80089685Y-58584683D01*
X79996862Y-58660862D01*
X79920683Y-58753685D01*
X79864078Y-58859587D01*
X79829220Y-58974497D01*
X79817450Y-59094000D01*
X76266186Y-59094000D01*
X76377561Y-58982625D01*
X76474150Y-58838068D01*
X76540683Y-58677445D01*
X76574600Y-58506929D01*
X76574600Y-58333071D01*
X82683400Y-58333071D01*
X82683400Y-58506929D01*
X82717317Y-58677445D01*
X82783850Y-58838068D01*
X82880439Y-58982625D01*
X83003375Y-59105561D01*
X83147932Y-59202150D01*
X83308555Y-59268683D01*
X83479071Y-59302600D01*
X83652929Y-59302600D01*
X83823445Y-59268683D01*
X83984068Y-59202150D01*
X84128625Y-59105561D01*
X84251561Y-58982625D01*
X84348150Y-58838068D01*
X84414683Y-58677445D01*
X84448600Y-58506929D01*
X84448600Y-58333071D01*
X84414683Y-58162555D01*
X84348150Y-58001932D01*
X84251561Y-57857375D01*
X84128625Y-57734439D01*
X83984068Y-57637850D01*
X83823445Y-57571317D01*
X83652929Y-57537400D01*
X83479071Y-57537400D01*
X83308555Y-57571317D01*
X83147932Y-57637850D01*
X83003375Y-57734439D01*
X82880439Y-57857375D01*
X82783850Y-58001932D01*
X82717317Y-58162555D01*
X82683400Y-58333071D01*
X76574600Y-58333071D01*
X76540683Y-58162555D01*
X76474150Y-58001932D01*
X76377561Y-57857375D01*
X76254625Y-57734439D01*
X76110068Y-57637850D01*
X75949445Y-57571317D01*
X75894904Y-57560468D01*
X75905683Y-57534445D01*
X75939600Y-57363929D01*
X75939600Y-57317071D01*
X79508400Y-57317071D01*
X79508400Y-57490929D01*
X79542317Y-57661445D01*
X79608850Y-57822068D01*
X79705439Y-57966625D01*
X79828375Y-58089561D01*
X79972932Y-58186150D01*
X80133555Y-58252683D01*
X80304071Y-58286600D01*
X80477929Y-58286600D01*
X80648445Y-58252683D01*
X80809068Y-58186150D01*
X80953625Y-58089561D01*
X81076561Y-57966625D01*
X81173150Y-57822068D01*
X81239683Y-57661445D01*
X81273600Y-57490929D01*
X81273600Y-57317071D01*
X81239683Y-57146555D01*
X81173150Y-56985932D01*
X81076561Y-56841375D01*
X80953625Y-56718439D01*
X80809068Y-56621850D01*
X80648445Y-56555317D01*
X80477929Y-56521400D01*
X80304071Y-56521400D01*
X80133555Y-56555317D01*
X79972932Y-56621850D01*
X79828375Y-56718439D01*
X79705439Y-56841375D01*
X79608850Y-56985932D01*
X79542317Y-57146555D01*
X79508400Y-57317071D01*
X75939600Y-57317071D01*
X75939600Y-57190071D01*
X75905683Y-57019555D01*
X75839150Y-56858932D01*
X75742561Y-56714375D01*
X75619625Y-56591439D01*
X75475068Y-56494850D01*
X75314445Y-56428317D01*
X75143929Y-56394400D01*
X74970071Y-56394400D01*
X74799555Y-56428317D01*
X74638932Y-56494850D01*
X74494375Y-56591439D01*
X74371439Y-56714375D01*
X74274850Y-56858932D01*
X74208317Y-57019555D01*
X74174400Y-57190071D01*
X74174400Y-57363929D01*
X74208317Y-57534445D01*
X74274850Y-57695068D01*
X74371439Y-57839625D01*
X74494375Y-57962561D01*
X74638932Y-58059150D01*
X74799555Y-58125683D01*
X74854096Y-58136532D01*
X74843317Y-58162555D01*
X74809400Y-58333071D01*
X74809400Y-58426400D01*
X74716071Y-58426400D01*
X74545555Y-58460317D01*
X74384932Y-58526850D01*
X74240375Y-58623439D01*
X74117439Y-58746375D01*
X74020850Y-58890932D01*
X73954317Y-59051555D01*
X73920400Y-59222071D01*
X70600975Y-59222071D01*
X70649068Y-59202150D01*
X70793625Y-59105561D01*
X70916561Y-58982625D01*
X71013150Y-58838068D01*
X71079683Y-58677445D01*
X71113600Y-58506929D01*
X71113600Y-58333071D01*
X71079683Y-58162555D01*
X71013150Y-58001932D01*
X70916561Y-57857375D01*
X70793625Y-57734439D01*
X70649068Y-57637850D01*
X70488445Y-57571317D01*
X70317929Y-57537400D01*
X70144071Y-57537400D01*
X69973555Y-57571317D01*
X69812932Y-57637850D01*
X69668375Y-57734439D01*
X69545439Y-57857375D01*
X69448850Y-58001932D01*
X69382317Y-58162555D01*
X69348400Y-58333071D01*
X67372600Y-58333071D01*
X67372600Y-58288750D01*
X67321389Y-58031295D01*
X67220935Y-57788777D01*
X67075098Y-57570517D01*
X66889483Y-57384902D01*
X66671223Y-57239065D01*
X66456201Y-57150000D01*
X66671223Y-57060935D01*
X66889483Y-56915098D01*
X67075098Y-56729483D01*
X67220935Y-56511223D01*
X67321389Y-56268705D01*
X67372600Y-56011250D01*
X67372600Y-55748750D01*
X67321389Y-55491295D01*
X67220935Y-55248777D01*
X67075098Y-55030517D01*
X66889483Y-54844902D01*
X66671223Y-54699065D01*
X66456201Y-54610000D01*
X66671223Y-54520935D01*
X66889483Y-54375098D01*
X67075098Y-54189483D01*
X67220935Y-53971223D01*
X67321389Y-53728705D01*
X67372600Y-53471250D01*
X67372600Y-53295270D01*
X81752201Y-53295270D01*
X81752201Y-53469128D01*
X81786118Y-53639644D01*
X81852651Y-53800267D01*
X81949240Y-53944824D01*
X82072176Y-54067760D01*
X82216733Y-54164349D01*
X82377356Y-54230882D01*
X82547872Y-54264799D01*
X82721730Y-54264799D01*
X82892246Y-54230882D01*
X83052869Y-54164349D01*
X83197426Y-54067760D01*
X83320362Y-53944824D01*
X83416951Y-53800267D01*
X83483484Y-53639644D01*
X83517401Y-53469128D01*
X83517401Y-53295270D01*
X83483484Y-53124754D01*
X83416951Y-52964131D01*
X83320362Y-52819574D01*
X83197426Y-52696638D01*
X83052869Y-52600049D01*
X82892246Y-52533516D01*
X82721730Y-52499599D01*
X82547872Y-52499599D01*
X82377356Y-52533516D01*
X82216733Y-52600049D01*
X82072176Y-52696638D01*
X81949240Y-52819574D01*
X81852651Y-52964131D01*
X81786118Y-53124754D01*
X81752201Y-53295270D01*
X67372600Y-53295270D01*
X67372600Y-53208750D01*
X67321389Y-52951295D01*
X67220935Y-52708777D01*
X67075098Y-52490517D01*
X66889483Y-52304902D01*
X66671223Y-52159065D01*
X66428705Y-52058611D01*
X66171250Y-52007400D01*
X65908750Y-52007400D01*
X65651295Y-52058611D01*
X65408777Y-52159065D01*
X65277153Y-52247013D01*
X65277122Y-48481361D01*
X65360658Y-48258830D01*
X65508132Y-48020750D01*
X65699043Y-47815849D01*
X65926117Y-47651930D01*
X66180706Y-47535238D01*
X66453113Y-47470219D01*
X66548401Y-47466518D01*
X66548400Y-48870065D01*
X66545944Y-48895000D01*
X66555745Y-48994507D01*
X66584770Y-49090190D01*
X66631904Y-49178372D01*
X66695336Y-49255664D01*
X66772628Y-49319096D01*
X66860810Y-49366230D01*
X66956493Y-49395255D01*
X67056000Y-49405056D01*
X67080935Y-49402600D01*
X85319065Y-49402600D01*
X85344000Y-49405056D01*
X85368935Y-49402600D01*
X85443507Y-49395255D01*
X85539190Y-49366230D01*
X85627372Y-49319096D01*
X85704664Y-49255664D01*
X85768096Y-49178372D01*
X85815230Y-49090190D01*
X85844255Y-48994507D01*
X85854056Y-48895000D01*
X85851600Y-48870065D01*
X85851600Y-47464928D01*
X86007760Y-47477781D01*
%TA.AperFunction,Conductor*%
D20*
G36*
X86007760Y-47477781D02*
G01*
X86277098Y-47554531D01*
X86526395Y-47682132D01*
X86746160Y-47855724D01*
X86928023Y-48068697D01*
X87067768Y-48317773D01*
X87122401Y-48473473D01*
X87122401Y-52005065D01*
X85510000Y-52005065D01*
X85415394Y-52014383D01*
X85324423Y-52041978D01*
X85240585Y-52086791D01*
X85167099Y-52147099D01*
X85106791Y-52220585D01*
X85061978Y-52304423D01*
X85034383Y-52395394D01*
X85025065Y-52490000D01*
X85025065Y-54190000D01*
X85034383Y-54284606D01*
X85061978Y-54375577D01*
X85106791Y-54459415D01*
X85167099Y-54532901D01*
X85240585Y-54593209D01*
X85324423Y-54638022D01*
X85415394Y-54665617D01*
X85510000Y-54674935D01*
X85547151Y-54674935D01*
X85471585Y-54721913D01*
X85262724Y-54917486D01*
X85096031Y-55150048D01*
X84977911Y-55410662D01*
X84950090Y-55502393D01*
X85061714Y-55727600D01*
X86207600Y-55727600D01*
X86207600Y-55707600D01*
X86512400Y-55707600D01*
X86512400Y-55727600D01*
X86532400Y-55727600D01*
X86532400Y-56032400D01*
X86512400Y-56032400D01*
X86512400Y-56052400D01*
X86207600Y-56052400D01*
X86207600Y-56032400D01*
X85061714Y-56032400D01*
X84950090Y-56257607D01*
X84977911Y-56349338D01*
X85096031Y-56609952D01*
X85262724Y-56842514D01*
X85471585Y-57038087D01*
X85714587Y-57189156D01*
X85785163Y-57215709D01*
X85728777Y-57239065D01*
X85510517Y-57384902D01*
X85324902Y-57570517D01*
X85179065Y-57788777D01*
X85078611Y-58031295D01*
X85027400Y-58288750D01*
X85027400Y-58551250D01*
X85078611Y-58808705D01*
X85179065Y-59051223D01*
X85324902Y-59269483D01*
X85510517Y-59455098D01*
X85728777Y-59600935D01*
X85943799Y-59690000D01*
X85728777Y-59779065D01*
X85510517Y-59924902D01*
X85324902Y-60110517D01*
X85179065Y-60328777D01*
X85078611Y-60571295D01*
X85027400Y-60828750D01*
X85027400Y-61091250D01*
X85078611Y-61348705D01*
X85179065Y-61591223D01*
X85324902Y-61809483D01*
X85510517Y-61995098D01*
X85728777Y-62140935D01*
X85943799Y-62230000D01*
X85728777Y-62319065D01*
X85510517Y-62464902D01*
X85324902Y-62650517D01*
X85179065Y-62868777D01*
X85078611Y-63111295D01*
X85027400Y-63368750D01*
X85027400Y-63631250D01*
X85078611Y-63888705D01*
X85179065Y-64131223D01*
X85324902Y-64349483D01*
X85510517Y-64535098D01*
X85728777Y-64680935D01*
X85943799Y-64770000D01*
X85728777Y-64859065D01*
X85510517Y-65004902D01*
X85324902Y-65190517D01*
X85179065Y-65408777D01*
X85078611Y-65651295D01*
X85027400Y-65908750D01*
X85027400Y-66171250D01*
X85078611Y-66428705D01*
X85179065Y-66671223D01*
X85324902Y-66889483D01*
X85510517Y-67075098D01*
X85728777Y-67220935D01*
X85943799Y-67310000D01*
X85728777Y-67399065D01*
X85510517Y-67544902D01*
X85324902Y-67730517D01*
X85179065Y-67948777D01*
X85078611Y-68191295D01*
X85027400Y-68448750D01*
X85027400Y-68711250D01*
X85078611Y-68968705D01*
X85080597Y-68973500D01*
X85049929Y-68967400D01*
X84876071Y-68967400D01*
X84705555Y-69001317D01*
X84544932Y-69067850D01*
X84400375Y-69164439D01*
X84277439Y-69287375D01*
X84180850Y-69431932D01*
X84114317Y-69592555D01*
X84080400Y-69763071D01*
X84080400Y-69936929D01*
X84114317Y-70107445D01*
X84180850Y-70268068D01*
X84277439Y-70412625D01*
X84400375Y-70535561D01*
X84544932Y-70632150D01*
X84705555Y-70698683D01*
X84876071Y-70732600D01*
X85049929Y-70732600D01*
X85080597Y-70726500D01*
X85078611Y-70731295D01*
X85027400Y-70988750D01*
X85027400Y-71251250D01*
X85078611Y-71508705D01*
X85092000Y-71541030D01*
X84922929Y-71507400D01*
X84749071Y-71507400D01*
X84578555Y-71541317D01*
X84417932Y-71607850D01*
X84273375Y-71704439D01*
X84150439Y-71827375D01*
X84053850Y-71971932D01*
X83987317Y-72132555D01*
X83953400Y-72303071D01*
X83953400Y-72476929D01*
X83987317Y-72647445D01*
X84053850Y-72808068D01*
X84150439Y-72952625D01*
X84273375Y-73075561D01*
X84417932Y-73172150D01*
X84578555Y-73238683D01*
X84749071Y-73272600D01*
X84922929Y-73272600D01*
X85092000Y-73238970D01*
X85078611Y-73271295D01*
X85027400Y-73528750D01*
X85027400Y-73791250D01*
X85078611Y-74048705D01*
X85179065Y-74291223D01*
X85324902Y-74509483D01*
X85510517Y-74695098D01*
X85728777Y-74840935D01*
X85943799Y-74930000D01*
X85728777Y-75019065D01*
X85510517Y-75164902D01*
X85324902Y-75350517D01*
X85179065Y-75568777D01*
X85078611Y-75811295D01*
X85027400Y-76068750D01*
X85027400Y-76331250D01*
X85078611Y-76588705D01*
X85179065Y-76831223D01*
X85324902Y-77049483D01*
X85510517Y-77235098D01*
X85728777Y-77380935D01*
X85943799Y-77470000D01*
X85728777Y-77559065D01*
X85510517Y-77704902D01*
X85324902Y-77890517D01*
X85179065Y-78108777D01*
X85078611Y-78351295D01*
X85027400Y-78608750D01*
X85027400Y-78871250D01*
X85078611Y-79128705D01*
X85179065Y-79371223D01*
X85324902Y-79589483D01*
X85510517Y-79775098D01*
X85728777Y-79920935D01*
X85943799Y-80010000D01*
X85728777Y-80099065D01*
X85510517Y-80244902D01*
X85324902Y-80430517D01*
X85179065Y-80648777D01*
X85078611Y-80891295D01*
X85027400Y-81148750D01*
X85027400Y-81411250D01*
X85078611Y-81668705D01*
X85179065Y-81911223D01*
X85324902Y-82129483D01*
X85510517Y-82315098D01*
X85728777Y-82460935D01*
X85943799Y-82550000D01*
X85728777Y-82639065D01*
X85510517Y-82784902D01*
X85324902Y-82970517D01*
X85179065Y-83188777D01*
X85078611Y-83431295D01*
X85027400Y-83688750D01*
X85027400Y-83951250D01*
X85078611Y-84208705D01*
X85179065Y-84451223D01*
X85324902Y-84669483D01*
X85510517Y-84855098D01*
X85728777Y-85000935D01*
X85943799Y-85090000D01*
X85728777Y-85179065D01*
X85510517Y-85324902D01*
X85324902Y-85510517D01*
X85179065Y-85728777D01*
X85078611Y-85971295D01*
X85027400Y-86228750D01*
X85027400Y-86491250D01*
X85078611Y-86748705D01*
X85179065Y-86991223D01*
X85324902Y-87209483D01*
X85510517Y-87395098D01*
X85728777Y-87540935D01*
X85943799Y-87630000D01*
X85728777Y-87719065D01*
X85510517Y-87864902D01*
X85324902Y-88050517D01*
X85179065Y-88268777D01*
X85078611Y-88511295D01*
X85027400Y-88768750D01*
X85027400Y-89031250D01*
X85078611Y-89288705D01*
X85179065Y-89531223D01*
X85324902Y-89749483D01*
X85510517Y-89935098D01*
X85728777Y-90080935D01*
X85943799Y-90170000D01*
X85728777Y-90259065D01*
X85510517Y-90404902D01*
X85324902Y-90590517D01*
X85179065Y-90808777D01*
X85078611Y-91051295D01*
X85027400Y-91308750D01*
X85027400Y-91571250D01*
X85078611Y-91828705D01*
X85179065Y-92071223D01*
X85324902Y-92289483D01*
X85510517Y-92475098D01*
X85728777Y-92620935D01*
X85943799Y-92710000D01*
X85728777Y-92799065D01*
X85510517Y-92944902D01*
X85324902Y-93130517D01*
X85179065Y-93348777D01*
X85078611Y-93591295D01*
X85027400Y-93848750D01*
X85027400Y-94111250D01*
X85078611Y-94368705D01*
X85179065Y-94611223D01*
X85324902Y-94829483D01*
X85510517Y-95015098D01*
X85728777Y-95160935D01*
X85943799Y-95250000D01*
X85728777Y-95339065D01*
X85510517Y-95484902D01*
X85324902Y-95670517D01*
X85179065Y-95888777D01*
X85078611Y-96131295D01*
X85027400Y-96388750D01*
X85027400Y-96651250D01*
X85078611Y-96908705D01*
X85179065Y-97151223D01*
X85324902Y-97369483D01*
X85510517Y-97555098D01*
X85728777Y-97700935D01*
X85943799Y-97790000D01*
X85728777Y-97879065D01*
X85510517Y-98024902D01*
X85324902Y-98210517D01*
X85179065Y-98428777D01*
X85078611Y-98671295D01*
X85027400Y-98928750D01*
X85027400Y-99191250D01*
X85078611Y-99448705D01*
X85179065Y-99691223D01*
X85324902Y-99909483D01*
X85510517Y-100095098D01*
X85728777Y-100240935D01*
X85785163Y-100264291D01*
X85714587Y-100290844D01*
X85471585Y-100441913D01*
X85262724Y-100637486D01*
X85096031Y-100870048D01*
X84977911Y-101130662D01*
X84950090Y-101222393D01*
X85061714Y-101447600D01*
X86207600Y-101447600D01*
X86207600Y-101427600D01*
X86512400Y-101427600D01*
X86512400Y-101447600D01*
X86532400Y-101447600D01*
X86532400Y-101752400D01*
X86512400Y-101752400D01*
X86512400Y-101772400D01*
X86207600Y-101772400D01*
X86207600Y-101752400D01*
X85061714Y-101752400D01*
X84950090Y-101977607D01*
X84977911Y-102069338D01*
X85096031Y-102329952D01*
X85262724Y-102562514D01*
X85334154Y-102629400D01*
X85013115Y-102629400D01*
X85013115Y-102895400D01*
X83312000Y-102895400D01*
X83292179Y-102897352D01*
X83273119Y-102903134D01*
X83255554Y-102912523D01*
X83240158Y-102925158D01*
X83227523Y-102940554D01*
X83218134Y-102958119D01*
X83212352Y-102977179D01*
X83210400Y-102997000D01*
X83210400Y-105283000D01*
X83212352Y-105302821D01*
X83218134Y-105321881D01*
X83227523Y-105339446D01*
X83240158Y-105354842D01*
X83255554Y-105367477D01*
X83273119Y-105376866D01*
X83292179Y-105382648D01*
X83312000Y-105384600D01*
X85013115Y-105384600D01*
X85013115Y-105410400D01*
X66064709Y-105410400D01*
X65892386Y-105393504D01*
X65750395Y-105350634D01*
X65619437Y-105281002D01*
X65504496Y-105187259D01*
X65409950Y-105072973D01*
X65339405Y-104942502D01*
X65295546Y-104800815D01*
X65277589Y-104629968D01*
X65277584Y-103992400D01*
X70820400Y-103992400D01*
X70820400Y-104392400D01*
X70870492Y-104596189D01*
X70959378Y-104786290D01*
X71083643Y-104955398D01*
X71238512Y-105097013D01*
X71418033Y-105205694D01*
X71565442Y-105251833D01*
X71727600Y-105134308D01*
X71727600Y-103992400D01*
X72032400Y-103992400D01*
X72032400Y-105134308D01*
X72194558Y-105251833D01*
X72341967Y-105205694D01*
X72521488Y-105097013D01*
X72676357Y-104955398D01*
X72800622Y-104786290D01*
X72889508Y-104596189D01*
X72939600Y-104392400D01*
X72939600Y-103992400D01*
X79460400Y-103992400D01*
X79460400Y-104392400D01*
X79510492Y-104596189D01*
X79599378Y-104786290D01*
X79723643Y-104955398D01*
X79878512Y-105097013D01*
X80058033Y-105205694D01*
X80205442Y-105251833D01*
X80367600Y-105134308D01*
X80367600Y-103992400D01*
X80672400Y-103992400D01*
X80672400Y-105134308D01*
X80834558Y-105251833D01*
X80981967Y-105205694D01*
X81161488Y-105097013D01*
X81316357Y-104955398D01*
X81440622Y-104786290D01*
X81529508Y-104596189D01*
X81579600Y-104392400D01*
X81579600Y-103992400D01*
X80672400Y-103992400D01*
X80367600Y-103992400D01*
X79460400Y-103992400D01*
X72939600Y-103992400D01*
X72032400Y-103992400D01*
X71727600Y-103992400D01*
X70820400Y-103992400D01*
X65277584Y-103992400D01*
X65277578Y-103287600D01*
X70820400Y-103287600D01*
X70820400Y-103687600D01*
X71727600Y-103687600D01*
X71727600Y-102545692D01*
X72032400Y-102545692D01*
X72032400Y-103687600D01*
X72939600Y-103687600D01*
X72939600Y-103287600D01*
X79460400Y-103287600D01*
X79460400Y-103687600D01*
X80367600Y-103687600D01*
X80367600Y-102545692D01*
X80672400Y-102545692D01*
X80672400Y-103687600D01*
X81579600Y-103687600D01*
X81579600Y-103287600D01*
X81529508Y-103083811D01*
X81440622Y-102893710D01*
X81316357Y-102724602D01*
X81161488Y-102582987D01*
X80981967Y-102474306D01*
X80834558Y-102428167D01*
X80672400Y-102545692D01*
X80367600Y-102545692D01*
X80205442Y-102428167D01*
X80058033Y-102474306D01*
X79878512Y-102582987D01*
X79723643Y-102724602D01*
X79599378Y-102893710D01*
X79510492Y-103083811D01*
X79460400Y-103287600D01*
X72939600Y-103287600D01*
X72889508Y-103083811D01*
X72800622Y-102893710D01*
X72676357Y-102724602D01*
X72521488Y-102582987D01*
X72341967Y-102474306D01*
X72194558Y-102428167D01*
X72032400Y-102545692D01*
X71727600Y-102545692D01*
X71565442Y-102428167D01*
X71418033Y-102474306D01*
X71238512Y-102582987D01*
X71083643Y-102724602D01*
X70959378Y-102893710D01*
X70870492Y-103083811D01*
X70820400Y-103287600D01*
X65277578Y-103287600D01*
X65277576Y-103062076D01*
X65735200Y-103059600D01*
X65887600Y-102907200D01*
X65887600Y-101752400D01*
X66192400Y-101752400D01*
X66192400Y-102907200D01*
X66344800Y-103059600D01*
X66890000Y-103062550D01*
X67009503Y-103050780D01*
X67124413Y-103015922D01*
X67230315Y-102959317D01*
X67323138Y-102883138D01*
X67399317Y-102790315D01*
X67455922Y-102684413D01*
X67490780Y-102569503D01*
X67502550Y-102450000D01*
X67499600Y-101904800D01*
X67347200Y-101752400D01*
X66192400Y-101752400D01*
X65887600Y-101752400D01*
X65867600Y-101752400D01*
X65867600Y-101447600D01*
X65887600Y-101447600D01*
X65887600Y-101427600D01*
X66192400Y-101427600D01*
X66192400Y-101447600D01*
X67347200Y-101447600D01*
X67499600Y-101295200D01*
X67502550Y-100750000D01*
X67490780Y-100630497D01*
X67455922Y-100515587D01*
X67399317Y-100409685D01*
X67323138Y-100316862D01*
X67230315Y-100240683D01*
X67124413Y-100184078D01*
X67009503Y-100149220D01*
X66890000Y-100137450D01*
X66825577Y-100137799D01*
X66889483Y-100095098D01*
X67075098Y-99909483D01*
X67133285Y-99822400D01*
X70820400Y-99822400D01*
X70820400Y-100372400D01*
X70870492Y-100576189D01*
X70959378Y-100766290D01*
X71083643Y-100935398D01*
X71238512Y-101077013D01*
X71418033Y-101185694D01*
X71565442Y-101231833D01*
X71727600Y-101114308D01*
X71727600Y-99822400D01*
X70820400Y-99822400D01*
X67133285Y-99822400D01*
X67220935Y-99691223D01*
X67321389Y-99448705D01*
X67372600Y-99191250D01*
X67372600Y-98928750D01*
X67321389Y-98671295D01*
X67220935Y-98428777D01*
X67075098Y-98210517D01*
X66889483Y-98024902D01*
X66671223Y-97879065D01*
X66552941Y-97830071D01*
X70745400Y-97830071D01*
X70745400Y-98003929D01*
X70779317Y-98174445D01*
X70845850Y-98335068D01*
X70942439Y-98479625D01*
X70992055Y-98529241D01*
X70959378Y-98573710D01*
X70870492Y-98763811D01*
X70820400Y-98967600D01*
X70820400Y-99517600D01*
X71727600Y-99517600D01*
X71727600Y-99497600D01*
X72032400Y-99497600D01*
X72032400Y-99517600D01*
X72052400Y-99517600D01*
X72052400Y-99822400D01*
X72032400Y-99822400D01*
X72032400Y-101114308D01*
X72194558Y-101231833D01*
X72341967Y-101185694D01*
X72521488Y-101077013D01*
X72676357Y-100935398D01*
X72800622Y-100766290D01*
X72806645Y-100753409D01*
X72811121Y-100757885D01*
X72939300Y-100843531D01*
X73081724Y-100902525D01*
X73232921Y-100932600D01*
X73387079Y-100932600D01*
X73538276Y-100902525D01*
X73680700Y-100843531D01*
X73808879Y-100757885D01*
X73815693Y-100751071D01*
X74047400Y-100751071D01*
X74047400Y-100924929D01*
X74081317Y-101095445D01*
X74147850Y-101256068D01*
X74244439Y-101400625D01*
X74367375Y-101523561D01*
X74511932Y-101620150D01*
X74672555Y-101686683D01*
X74843071Y-101720600D01*
X75016929Y-101720600D01*
X75187445Y-101686683D01*
X75348068Y-101620150D01*
X75492625Y-101523561D01*
X75615561Y-101400625D01*
X75712150Y-101256068D01*
X75778683Y-101095445D01*
X75812600Y-100924929D01*
X75812600Y-100751071D01*
X77095400Y-100751071D01*
X77095400Y-100924929D01*
X77129317Y-101095445D01*
X77195850Y-101256068D01*
X77292439Y-101400625D01*
X77415375Y-101523561D01*
X77559932Y-101620150D01*
X77720555Y-101686683D01*
X77891071Y-101720600D01*
X78064929Y-101720600D01*
X78235445Y-101686683D01*
X78396068Y-101620150D01*
X78540625Y-101523561D01*
X78663561Y-101400625D01*
X78760150Y-101256068D01*
X78826683Y-101095445D01*
X78860600Y-100924929D01*
X78860600Y-100902059D01*
X78861724Y-100902525D01*
X79012921Y-100932600D01*
X79167079Y-100932600D01*
X79318276Y-100902525D01*
X79460700Y-100843531D01*
X79588879Y-100757885D01*
X79593355Y-100753409D01*
X79599378Y-100766290D01*
X79723643Y-100935398D01*
X79878512Y-101077013D01*
X80058033Y-101185694D01*
X80205442Y-101231833D01*
X80367600Y-101114308D01*
X80367600Y-99822400D01*
X80672400Y-99822400D01*
X80672400Y-101114308D01*
X80834558Y-101231833D01*
X80981967Y-101185694D01*
X81161488Y-101077013D01*
X81316357Y-100935398D01*
X81440622Y-100766290D01*
X81529508Y-100576189D01*
X81579600Y-100372400D01*
X81579600Y-99822400D01*
X80672400Y-99822400D01*
X80367600Y-99822400D01*
X80347600Y-99822400D01*
X80347600Y-99517600D01*
X80367600Y-99517600D01*
X80367600Y-98225692D01*
X80672400Y-98225692D01*
X80672400Y-99517600D01*
X81579600Y-99517600D01*
X81579600Y-98967600D01*
X81529508Y-98763811D01*
X81440622Y-98573710D01*
X81316357Y-98404602D01*
X81161488Y-98262987D01*
X80981967Y-98154306D01*
X80834558Y-98108167D01*
X80672400Y-98225692D01*
X80367600Y-98225692D01*
X80205442Y-98108167D01*
X80058033Y-98154306D01*
X79878512Y-98262987D01*
X79723643Y-98404602D01*
X79599378Y-98573710D01*
X79510492Y-98763811D01*
X79460400Y-98967600D01*
X79460400Y-99456345D01*
X79318276Y-99397475D01*
X79167079Y-99367400D01*
X79012921Y-99367400D01*
X78861724Y-99397475D01*
X78719300Y-99456469D01*
X78591121Y-99542115D01*
X78482115Y-99651121D01*
X78396469Y-99779300D01*
X78337475Y-99921724D01*
X78317287Y-100023217D01*
X78235445Y-99989317D01*
X78064929Y-99955400D01*
X77891071Y-99955400D01*
X77720555Y-99989317D01*
X77559932Y-100055850D01*
X77415375Y-100152439D01*
X77292439Y-100275375D01*
X77195850Y-100419932D01*
X77129317Y-100580555D01*
X77095400Y-100751071D01*
X75812600Y-100751071D01*
X75778683Y-100580555D01*
X75712150Y-100419932D01*
X75615561Y-100275375D01*
X75492625Y-100152439D01*
X75348068Y-100055850D01*
X75187445Y-99989317D01*
X75016929Y-99955400D01*
X74843071Y-99955400D01*
X74672555Y-99989317D01*
X74511932Y-100055850D01*
X74367375Y-100152439D01*
X74244439Y-100275375D01*
X74147850Y-100419932D01*
X74081317Y-100580555D01*
X74047400Y-100751071D01*
X73815693Y-100751071D01*
X73917885Y-100648879D01*
X74003531Y-100520700D01*
X74062525Y-100378276D01*
X74092600Y-100227079D01*
X74092600Y-100072921D01*
X74062525Y-99921724D01*
X74003531Y-99779300D01*
X73917885Y-99651121D01*
X73808879Y-99542115D01*
X73680700Y-99456469D01*
X73538276Y-99397475D01*
X73387079Y-99367400D01*
X73232921Y-99367400D01*
X73081724Y-99397475D01*
X72939600Y-99456345D01*
X72939600Y-98967600D01*
X72889508Y-98763811D01*
X72800622Y-98573710D01*
X72676357Y-98404602D01*
X72521488Y-98262987D01*
X72456343Y-98223549D01*
X72476683Y-98174445D01*
X72510600Y-98003929D01*
X72510600Y-97830071D01*
X77730400Y-97830071D01*
X77730400Y-98003929D01*
X77764317Y-98174445D01*
X77830850Y-98335068D01*
X77927439Y-98479625D01*
X78050375Y-98602561D01*
X78194932Y-98699150D01*
X78355555Y-98765683D01*
X78526071Y-98799600D01*
X78699929Y-98799600D01*
X78870445Y-98765683D01*
X79031068Y-98699150D01*
X79175625Y-98602561D01*
X79298561Y-98479625D01*
X79395150Y-98335068D01*
X79461683Y-98174445D01*
X79495600Y-98003929D01*
X79495600Y-97830071D01*
X79461683Y-97659555D01*
X79395150Y-97498932D01*
X79298561Y-97354375D01*
X79175625Y-97231439D01*
X79031068Y-97134850D01*
X78870445Y-97068317D01*
X78699929Y-97034400D01*
X78526071Y-97034400D01*
X78355555Y-97068317D01*
X78194932Y-97134850D01*
X78050375Y-97231439D01*
X77927439Y-97354375D01*
X77830850Y-97498932D01*
X77764317Y-97659555D01*
X77730400Y-97830071D01*
X72510600Y-97830071D01*
X72476683Y-97659555D01*
X72410150Y-97498932D01*
X72313561Y-97354375D01*
X72190625Y-97231439D01*
X72046068Y-97134850D01*
X71885445Y-97068317D01*
X71714929Y-97034400D01*
X71541071Y-97034400D01*
X71370555Y-97068317D01*
X71209932Y-97134850D01*
X71065375Y-97231439D01*
X70942439Y-97354375D01*
X70845850Y-97498932D01*
X70779317Y-97659555D01*
X70745400Y-97830071D01*
X66552941Y-97830071D01*
X66456201Y-97790000D01*
X66671223Y-97700935D01*
X66889483Y-97555098D01*
X67075098Y-97369483D01*
X67220935Y-97151223D01*
X67321389Y-96908705D01*
X67372600Y-96651250D01*
X67372600Y-96388750D01*
X67321389Y-96131295D01*
X67220935Y-95888777D01*
X67075098Y-95670517D01*
X66889483Y-95484902D01*
X66671223Y-95339065D01*
X66456201Y-95250000D01*
X66671223Y-95160935D01*
X66889483Y-95015098D01*
X67075098Y-94829483D01*
X67191636Y-94655071D01*
X77349400Y-94655071D01*
X77349400Y-94828929D01*
X77383317Y-94999445D01*
X77449850Y-95160068D01*
X77546439Y-95304625D01*
X77669375Y-95427561D01*
X77813932Y-95524150D01*
X77974555Y-95590683D01*
X78145071Y-95624600D01*
X78318929Y-95624600D01*
X78489445Y-95590683D01*
X78650068Y-95524150D01*
X78678622Y-95505071D01*
X82341400Y-95505071D01*
X82341400Y-95678929D01*
X82375317Y-95849445D01*
X82441850Y-96010068D01*
X82538439Y-96154625D01*
X82661375Y-96277561D01*
X82805932Y-96374150D01*
X82966555Y-96440683D01*
X83137071Y-96474600D01*
X83310929Y-96474600D01*
X83481445Y-96440683D01*
X83642068Y-96374150D01*
X83786625Y-96277561D01*
X83909561Y-96154625D01*
X84006150Y-96010068D01*
X84072683Y-95849445D01*
X84106600Y-95678929D01*
X84106600Y-95505071D01*
X84072683Y-95334555D01*
X84006150Y-95173932D01*
X83909561Y-95029375D01*
X83786625Y-94906439D01*
X83642068Y-94809850D01*
X83481445Y-94743317D01*
X83310929Y-94709400D01*
X83137071Y-94709400D01*
X82966555Y-94743317D01*
X82805932Y-94809850D01*
X82661375Y-94906439D01*
X82538439Y-95029375D01*
X82441850Y-95173932D01*
X82375317Y-95334555D01*
X82341400Y-95505071D01*
X78678622Y-95505071D01*
X78794625Y-95427561D01*
X78917561Y-95304625D01*
X79014150Y-95160068D01*
X79080683Y-94999445D01*
X79114600Y-94828929D01*
X79114600Y-94655071D01*
X79080683Y-94484555D01*
X79014150Y-94323932D01*
X78917561Y-94179375D01*
X78794625Y-94056439D01*
X78650068Y-93959850D01*
X78489445Y-93893317D01*
X78318929Y-93859400D01*
X78145071Y-93859400D01*
X77974555Y-93893317D01*
X77813932Y-93959850D01*
X77669375Y-94056439D01*
X77546439Y-94179375D01*
X77449850Y-94323932D01*
X77383317Y-94484555D01*
X77349400Y-94655071D01*
X67191636Y-94655071D01*
X67220935Y-94611223D01*
X67321389Y-94368705D01*
X67372600Y-94111250D01*
X67372600Y-93848750D01*
X67321389Y-93591295D01*
X67235969Y-93385071D01*
X72015400Y-93385071D01*
X72015400Y-93558929D01*
X72049317Y-93729445D01*
X72115850Y-93890068D01*
X72212439Y-94034625D01*
X72335375Y-94157561D01*
X72479932Y-94254150D01*
X72640555Y-94320683D01*
X72811071Y-94354600D01*
X72984929Y-94354600D01*
X73155445Y-94320683D01*
X73316068Y-94254150D01*
X73460625Y-94157561D01*
X73583561Y-94034625D01*
X73680150Y-93890068D01*
X73746683Y-93729445D01*
X73780600Y-93558929D01*
X73780600Y-93385071D01*
X73746683Y-93214555D01*
X73680150Y-93053932D01*
X73583561Y-92909375D01*
X73566059Y-92891873D01*
X81124779Y-92891873D01*
X81124779Y-93065731D01*
X81158696Y-93236247D01*
X81225229Y-93396870D01*
X81321818Y-93541427D01*
X81444754Y-93664363D01*
X81589311Y-93760952D01*
X81749934Y-93827485D01*
X81920450Y-93861402D01*
X82094308Y-93861402D01*
X82264824Y-93827485D01*
X82425447Y-93760952D01*
X82570004Y-93664363D01*
X82692940Y-93541427D01*
X82789529Y-93396870D01*
X82856062Y-93236247D01*
X82889979Y-93065731D01*
X82889979Y-92891873D01*
X82856062Y-92721357D01*
X82789529Y-92560734D01*
X82692940Y-92416177D01*
X82570004Y-92293241D01*
X82425447Y-92196652D01*
X82264824Y-92130119D01*
X82094308Y-92096202D01*
X81920450Y-92096202D01*
X81749934Y-92130119D01*
X81589311Y-92196652D01*
X81444754Y-92293241D01*
X81321818Y-92416177D01*
X81225229Y-92560734D01*
X81158696Y-92721357D01*
X81124779Y-92891873D01*
X73566059Y-92891873D01*
X73460625Y-92786439D01*
X73316068Y-92689850D01*
X73155445Y-92623317D01*
X72984929Y-92589400D01*
X72811071Y-92589400D01*
X72640555Y-92623317D01*
X72479932Y-92689850D01*
X72335375Y-92786439D01*
X72212439Y-92909375D01*
X72115850Y-93053932D01*
X72049317Y-93214555D01*
X72015400Y-93385071D01*
X67235969Y-93385071D01*
X67220935Y-93348777D01*
X67075098Y-93130517D01*
X66889483Y-92944902D01*
X66671223Y-92799065D01*
X66456201Y-92710000D01*
X66671223Y-92620935D01*
X66889483Y-92475098D01*
X67075098Y-92289483D01*
X67220935Y-92071223D01*
X67321389Y-91828705D01*
X67372600Y-91571250D01*
X67372600Y-91308750D01*
X67321389Y-91051295D01*
X67220935Y-90808777D01*
X67075098Y-90590517D01*
X66889483Y-90404902D01*
X66671223Y-90259065D01*
X66456201Y-90170000D01*
X66671223Y-90080935D01*
X66889483Y-89935098D01*
X67075098Y-89749483D01*
X67220935Y-89531223D01*
X67321389Y-89288705D01*
X67372600Y-89031250D01*
X67372600Y-88768750D01*
X67330893Y-88559071D01*
X68713400Y-88559071D01*
X68713400Y-88732929D01*
X68747317Y-88903445D01*
X68813850Y-89064068D01*
X68910439Y-89208625D01*
X69033375Y-89331561D01*
X69177932Y-89428150D01*
X69338555Y-89494683D01*
X69509071Y-89528600D01*
X69682929Y-89528600D01*
X69853445Y-89494683D01*
X70014068Y-89428150D01*
X70158625Y-89331561D01*
X70281561Y-89208625D01*
X70378150Y-89064068D01*
X70444683Y-88903445D01*
X70478600Y-88732929D01*
X70478600Y-88559071D01*
X70444683Y-88388555D01*
X70378150Y-88227932D01*
X70281561Y-88083375D01*
X70249257Y-88051071D01*
X73031400Y-88051071D01*
X73031400Y-88224929D01*
X73065317Y-88395445D01*
X73131850Y-88556068D01*
X73228439Y-88700625D01*
X73351375Y-88823561D01*
X73495932Y-88920150D01*
X73656555Y-88986683D01*
X73827071Y-89020600D01*
X74000929Y-89020600D01*
X74171445Y-88986683D01*
X74332068Y-88920150D01*
X74476625Y-88823561D01*
X74599561Y-88700625D01*
X74696150Y-88556068D01*
X74747511Y-88432071D01*
X76206400Y-88432071D01*
X76206400Y-88605929D01*
X76240317Y-88776445D01*
X76306850Y-88937068D01*
X76403439Y-89081625D01*
X76526375Y-89204561D01*
X76670932Y-89301150D01*
X76831555Y-89367683D01*
X77002071Y-89401600D01*
X77175929Y-89401600D01*
X77346445Y-89367683D01*
X77507068Y-89301150D01*
X77651625Y-89204561D01*
X77774561Y-89081625D01*
X77871150Y-88937068D01*
X77913065Y-88835877D01*
X77913065Y-90512000D01*
X77922383Y-90606606D01*
X77949978Y-90697577D01*
X77994791Y-90781415D01*
X78055099Y-90854901D01*
X78128585Y-90915209D01*
X78212423Y-90960022D01*
X78303394Y-90987617D01*
X78398000Y-90996935D01*
X80098000Y-90996935D01*
X80192606Y-90987617D01*
X80283577Y-90960022D01*
X80367415Y-90915209D01*
X80440901Y-90854901D01*
X80501209Y-90781415D01*
X80546022Y-90697577D01*
X80573617Y-90606606D01*
X80582935Y-90512000D01*
X80582935Y-90234968D01*
X80607065Y-90293223D01*
X80752902Y-90511483D01*
X80938517Y-90697098D01*
X81156777Y-90842935D01*
X81399295Y-90943389D01*
X81656750Y-90994600D01*
X81919250Y-90994600D01*
X82176705Y-90943389D01*
X82419223Y-90842935D01*
X82637483Y-90697098D01*
X82823098Y-90511483D01*
X82968935Y-90293223D01*
X83069389Y-90050705D01*
X83120600Y-89793250D01*
X83120600Y-89530750D01*
X83069389Y-89273295D01*
X82968935Y-89030777D01*
X82823098Y-88812517D01*
X82637483Y-88626902D01*
X82419223Y-88481065D01*
X82204201Y-88392000D01*
X82419223Y-88302935D01*
X82637483Y-88157098D01*
X82823098Y-87971483D01*
X82968935Y-87753223D01*
X83069389Y-87510705D01*
X83120600Y-87253250D01*
X83120600Y-86990750D01*
X83069389Y-86733295D01*
X82968935Y-86490777D01*
X82823098Y-86272517D01*
X82637483Y-86086902D01*
X82419223Y-85941065D01*
X82176705Y-85840611D01*
X81919250Y-85789400D01*
X81656750Y-85789400D01*
X81399295Y-85840611D01*
X81156777Y-85941065D01*
X80938517Y-86086902D01*
X80752902Y-86272517D01*
X80607065Y-86490777D01*
X80582935Y-86549032D01*
X80582935Y-86272000D01*
X80573617Y-86177394D01*
X80546022Y-86086423D01*
X80501209Y-86002585D01*
X80440901Y-85929099D01*
X80367415Y-85868791D01*
X80283577Y-85823978D01*
X80192606Y-85796383D01*
X80098000Y-85787065D01*
X78398000Y-85787065D01*
X78303394Y-85796383D01*
X78212423Y-85823978D01*
X78128585Y-85868791D01*
X78055099Y-85929099D01*
X77994791Y-86002585D01*
X77949978Y-86086423D01*
X77922383Y-86177394D01*
X77913065Y-86272000D01*
X77913065Y-87972000D01*
X77922383Y-88066606D01*
X77949978Y-88157577D01*
X77994791Y-88241415D01*
X78055099Y-88314901D01*
X78128585Y-88375209D01*
X78159998Y-88392000D01*
X78128585Y-88408791D01*
X78055099Y-88469099D01*
X77994791Y-88542585D01*
X77971600Y-88585972D01*
X77971600Y-88432071D01*
X77937683Y-88261555D01*
X77871150Y-88100932D01*
X77774561Y-87956375D01*
X77651625Y-87833439D01*
X77507068Y-87736850D01*
X77346445Y-87670317D01*
X77175929Y-87636400D01*
X77002071Y-87636400D01*
X76831555Y-87670317D01*
X76670932Y-87736850D01*
X76526375Y-87833439D01*
X76403439Y-87956375D01*
X76306850Y-88100932D01*
X76240317Y-88261555D01*
X76206400Y-88432071D01*
X74747511Y-88432071D01*
X74762683Y-88395445D01*
X74796600Y-88224929D01*
X74796600Y-88051071D01*
X74762683Y-87880555D01*
X74696150Y-87719932D01*
X74599561Y-87575375D01*
X74476625Y-87452439D01*
X74332068Y-87355850D01*
X74171445Y-87289317D01*
X74000929Y-87255400D01*
X73827071Y-87255400D01*
X73656555Y-87289317D01*
X73495932Y-87355850D01*
X73351375Y-87452439D01*
X73228439Y-87575375D01*
X73131850Y-87719932D01*
X73065317Y-87880555D01*
X73031400Y-88051071D01*
X70249257Y-88051071D01*
X70158625Y-87960439D01*
X70014068Y-87863850D01*
X69853445Y-87797317D01*
X69682929Y-87763400D01*
X69509071Y-87763400D01*
X69338555Y-87797317D01*
X69177932Y-87863850D01*
X69033375Y-87960439D01*
X68910439Y-88083375D01*
X68813850Y-88227932D01*
X68747317Y-88388555D01*
X68713400Y-88559071D01*
X67330893Y-88559071D01*
X67321389Y-88511295D01*
X67220935Y-88268777D01*
X67075098Y-88050517D01*
X66889483Y-87864902D01*
X66671223Y-87719065D01*
X66456201Y-87630000D01*
X66671223Y-87540935D01*
X66889483Y-87395098D01*
X67075098Y-87209483D01*
X67220935Y-86991223D01*
X67321389Y-86748705D01*
X67372600Y-86491250D01*
X67372600Y-86228750D01*
X67321389Y-85971295D01*
X67220935Y-85728777D01*
X67075098Y-85510517D01*
X66889483Y-85324902D01*
X66671223Y-85179065D01*
X66552941Y-85130071D01*
X73158400Y-85130071D01*
X73158400Y-85303929D01*
X73192317Y-85474445D01*
X73258850Y-85635068D01*
X73355439Y-85779625D01*
X73478375Y-85902561D01*
X73622932Y-85999150D01*
X73783555Y-86065683D01*
X73954071Y-86099600D01*
X74127929Y-86099600D01*
X74298445Y-86065683D01*
X74459068Y-85999150D01*
X74603625Y-85902561D01*
X74726561Y-85779625D01*
X74823150Y-85635068D01*
X74889683Y-85474445D01*
X74923600Y-85303929D01*
X74923600Y-85130071D01*
X74889683Y-84959555D01*
X74823150Y-84798932D01*
X74726561Y-84654375D01*
X74603625Y-84531439D01*
X74459068Y-84434850D01*
X74298445Y-84368317D01*
X74127929Y-84334400D01*
X73954071Y-84334400D01*
X73783555Y-84368317D01*
X73622932Y-84434850D01*
X73478375Y-84531439D01*
X73355439Y-84654375D01*
X73258850Y-84798932D01*
X73192317Y-84959555D01*
X73158400Y-85130071D01*
X66552941Y-85130071D01*
X66456201Y-85090000D01*
X66671223Y-85000935D01*
X66889483Y-84855098D01*
X67075098Y-84669483D01*
X67220935Y-84451223D01*
X67321389Y-84208705D01*
X67372600Y-83951250D01*
X67372600Y-83688750D01*
X67321389Y-83431295D01*
X67220935Y-83188777D01*
X67075098Y-82970517D01*
X66889483Y-82784902D01*
X66671223Y-82639065D01*
X66456201Y-82550000D01*
X66666066Y-82463071D01*
X75825400Y-82463071D01*
X75825400Y-82636929D01*
X75859317Y-82807445D01*
X75925850Y-82968068D01*
X76022439Y-83112625D01*
X76145375Y-83235561D01*
X76289932Y-83332150D01*
X76331098Y-83349202D01*
X76272375Y-83388439D01*
X76149439Y-83511375D01*
X76052850Y-83655932D01*
X75986317Y-83816555D01*
X75952400Y-83987071D01*
X75952400Y-84160929D01*
X75986317Y-84331445D01*
X76052850Y-84492068D01*
X76149439Y-84636625D01*
X76272375Y-84759561D01*
X76416932Y-84856150D01*
X76577555Y-84922683D01*
X76748071Y-84956600D01*
X76921929Y-84956600D01*
X77092445Y-84922683D01*
X77253068Y-84856150D01*
X77397625Y-84759561D01*
X77520561Y-84636625D01*
X77617150Y-84492068D01*
X77683683Y-84331445D01*
X77717600Y-84160929D01*
X77717600Y-83987071D01*
X77683683Y-83816555D01*
X77675131Y-83795909D01*
X77764071Y-83813600D01*
X77937929Y-83813600D01*
X78108445Y-83779683D01*
X78269068Y-83713150D01*
X78413625Y-83616561D01*
X78536561Y-83493625D01*
X78633150Y-83349068D01*
X78699683Y-83188445D01*
X78733600Y-83017929D01*
X78733600Y-82844071D01*
X78699683Y-82673555D01*
X78633150Y-82512932D01*
X78599835Y-82463071D01*
X78746400Y-82463071D01*
X78746400Y-82636929D01*
X78780317Y-82807445D01*
X78846850Y-82968068D01*
X78943439Y-83112625D01*
X79066375Y-83235561D01*
X79210932Y-83332150D01*
X79371555Y-83398683D01*
X79542071Y-83432600D01*
X79715929Y-83432600D01*
X79886445Y-83398683D01*
X80047068Y-83332150D01*
X80191625Y-83235561D01*
X80314561Y-83112625D01*
X80411150Y-82968068D01*
X80477683Y-82807445D01*
X80511600Y-82636929D01*
X80511600Y-82463071D01*
X80477683Y-82292555D01*
X80452457Y-82231654D01*
X80555068Y-82189150D01*
X80699625Y-82092561D01*
X80822561Y-81969625D01*
X80919150Y-81825068D01*
X80985683Y-81664445D01*
X81019600Y-81493929D01*
X81019600Y-81320071D01*
X80985683Y-81149555D01*
X80919150Y-80988932D01*
X80822561Y-80844375D01*
X80699625Y-80721439D01*
X80555068Y-80624850D01*
X80394445Y-80558317D01*
X80223929Y-80524400D01*
X80050071Y-80524400D01*
X79879555Y-80558317D01*
X79718932Y-80624850D01*
X79574375Y-80721439D01*
X79451439Y-80844375D01*
X79354850Y-80988932D01*
X79288317Y-81149555D01*
X79254400Y-81320071D01*
X79254400Y-81493929D01*
X79288317Y-81664445D01*
X79313543Y-81725346D01*
X79210932Y-81767850D01*
X79066375Y-81864439D01*
X78943439Y-81987375D01*
X78846850Y-82131932D01*
X78780317Y-82292555D01*
X78746400Y-82463071D01*
X78599835Y-82463071D01*
X78536561Y-82368375D01*
X78413625Y-82245439D01*
X78269068Y-82148850D01*
X78108445Y-82082317D01*
X77937929Y-82048400D01*
X77764071Y-82048400D01*
X77593555Y-82082317D01*
X77486600Y-82126620D01*
X77393561Y-81987375D01*
X77270625Y-81864439D01*
X77126068Y-81767850D01*
X76965445Y-81701317D01*
X76794929Y-81667400D01*
X76621071Y-81667400D01*
X76450555Y-81701317D01*
X76289932Y-81767850D01*
X76145375Y-81864439D01*
X76022439Y-81987375D01*
X75925850Y-82131932D01*
X75859317Y-82292555D01*
X75825400Y-82463071D01*
X66666066Y-82463071D01*
X66671223Y-82460935D01*
X66889483Y-82315098D01*
X67075098Y-82129483D01*
X67220935Y-81911223D01*
X67321389Y-81668705D01*
X67372600Y-81411250D01*
X67372600Y-81148750D01*
X67321389Y-80891295D01*
X67220935Y-80648777D01*
X67075469Y-80431071D01*
X80905400Y-80431071D01*
X80905400Y-80604929D01*
X80939317Y-80775445D01*
X81005850Y-80936068D01*
X81102439Y-81080625D01*
X81225375Y-81203561D01*
X81369932Y-81300150D01*
X81530555Y-81366683D01*
X81701071Y-81400600D01*
X81874929Y-81400600D01*
X82045445Y-81366683D01*
X82206068Y-81300150D01*
X82350625Y-81203561D01*
X82473561Y-81080625D01*
X82570150Y-80936068D01*
X82636683Y-80775445D01*
X82670600Y-80604929D01*
X82670600Y-80431071D01*
X82636683Y-80260555D01*
X82570150Y-80099932D01*
X82473561Y-79955375D01*
X82350625Y-79832439D01*
X82206068Y-79735850D01*
X82045445Y-79669317D01*
X81874929Y-79635400D01*
X81701071Y-79635400D01*
X81530555Y-79669317D01*
X81369932Y-79735850D01*
X81225375Y-79832439D01*
X81102439Y-79955375D01*
X81005850Y-80099932D01*
X80939317Y-80260555D01*
X80905400Y-80431071D01*
X67075469Y-80431071D01*
X67075098Y-80430517D01*
X66889483Y-80244902D01*
X66671223Y-80099065D01*
X66456201Y-80010000D01*
X66671223Y-79920935D01*
X66889483Y-79775098D01*
X67075098Y-79589483D01*
X67210679Y-79386571D01*
X79479900Y-79386571D01*
X79479900Y-79560429D01*
X79513817Y-79730945D01*
X79580350Y-79891568D01*
X79676939Y-80036125D01*
X79799875Y-80159061D01*
X79944432Y-80255650D01*
X80105055Y-80322183D01*
X80275571Y-80356100D01*
X80449429Y-80356100D01*
X80619945Y-80322183D01*
X80780568Y-80255650D01*
X80925125Y-80159061D01*
X81048061Y-80036125D01*
X81144650Y-79891568D01*
X81211183Y-79730945D01*
X81245100Y-79560429D01*
X81245100Y-79386571D01*
X81211183Y-79216055D01*
X81144650Y-79055432D01*
X81048061Y-78910875D01*
X80925125Y-78787939D01*
X80780568Y-78691350D01*
X80619945Y-78624817D01*
X80449429Y-78590900D01*
X80275571Y-78590900D01*
X80105055Y-78624817D01*
X79944432Y-78691350D01*
X79799875Y-78787939D01*
X79676939Y-78910875D01*
X79580350Y-79055432D01*
X79513817Y-79216055D01*
X79479900Y-79386571D01*
X67210679Y-79386571D01*
X67220935Y-79371223D01*
X67321389Y-79128705D01*
X67372600Y-78871250D01*
X67372600Y-78608750D01*
X67330893Y-78399071D01*
X72777400Y-78399071D01*
X72777400Y-78572929D01*
X72811317Y-78743445D01*
X72877850Y-78904068D01*
X72974439Y-79048625D01*
X73097375Y-79171561D01*
X73241932Y-79268150D01*
X73402555Y-79334683D01*
X73573071Y-79368600D01*
X73746929Y-79368600D01*
X73917445Y-79334683D01*
X74078068Y-79268150D01*
X74222625Y-79171561D01*
X74345561Y-79048625D01*
X74442150Y-78904068D01*
X74508683Y-78743445D01*
X74542600Y-78572929D01*
X74542600Y-78399071D01*
X77857400Y-78399071D01*
X77857400Y-78572929D01*
X77891317Y-78743445D01*
X77957850Y-78904068D01*
X78054439Y-79048625D01*
X78177375Y-79171561D01*
X78321932Y-79268150D01*
X78482555Y-79334683D01*
X78653071Y-79368600D01*
X78826929Y-79368600D01*
X78997445Y-79334683D01*
X79158068Y-79268150D01*
X79302625Y-79171561D01*
X79425561Y-79048625D01*
X79522150Y-78904068D01*
X79588683Y-78743445D01*
X79622600Y-78572929D01*
X79622600Y-78433734D01*
X82902737Y-78433734D01*
X82902737Y-78607592D01*
X82936654Y-78778108D01*
X83003187Y-78938731D01*
X83099776Y-79083288D01*
X83222712Y-79206224D01*
X83367269Y-79302813D01*
X83527892Y-79369346D01*
X83698408Y-79403263D01*
X83872266Y-79403263D01*
X84042782Y-79369346D01*
X84203405Y-79302813D01*
X84347962Y-79206224D01*
X84470898Y-79083288D01*
X84567487Y-78938731D01*
X84634020Y-78778108D01*
X84667937Y-78607592D01*
X84667937Y-78433734D01*
X84634020Y-78263218D01*
X84567487Y-78102595D01*
X84470898Y-77958038D01*
X84347962Y-77835102D01*
X84203405Y-77738513D01*
X84042782Y-77671980D01*
X83872266Y-77638063D01*
X83698408Y-77638063D01*
X83527892Y-77671980D01*
X83367269Y-77738513D01*
X83222712Y-77835102D01*
X83099776Y-77958038D01*
X83003187Y-78102595D01*
X82936654Y-78263218D01*
X82902737Y-78433734D01*
X79622600Y-78433734D01*
X79622600Y-78399071D01*
X79588683Y-78228555D01*
X79522150Y-78067932D01*
X79425561Y-77923375D01*
X79302625Y-77800439D01*
X79158068Y-77703850D01*
X78997445Y-77637317D01*
X78826929Y-77603400D01*
X78653071Y-77603400D01*
X78482555Y-77637317D01*
X78321932Y-77703850D01*
X78177375Y-77800439D01*
X78054439Y-77923375D01*
X77957850Y-78067932D01*
X77891317Y-78228555D01*
X77857400Y-78399071D01*
X74542600Y-78399071D01*
X74508683Y-78228555D01*
X74442150Y-78067932D01*
X74345561Y-77923375D01*
X74222625Y-77800439D01*
X74078068Y-77703850D01*
X73917445Y-77637317D01*
X73746929Y-77603400D01*
X73573071Y-77603400D01*
X73402555Y-77637317D01*
X73241932Y-77703850D01*
X73097375Y-77800439D01*
X72974439Y-77923375D01*
X72877850Y-78067932D01*
X72811317Y-78228555D01*
X72777400Y-78399071D01*
X67330893Y-78399071D01*
X67321389Y-78351295D01*
X67220935Y-78108777D01*
X67075098Y-77890517D01*
X66889483Y-77704902D01*
X66671223Y-77559065D01*
X66456201Y-77470000D01*
X66671223Y-77380935D01*
X66889483Y-77235098D01*
X66995510Y-77129071D01*
X68840400Y-77129071D01*
X68840400Y-77302929D01*
X68874317Y-77473445D01*
X68940850Y-77634068D01*
X69037439Y-77778625D01*
X69160375Y-77901561D01*
X69304932Y-77998150D01*
X69465555Y-78064683D01*
X69636071Y-78098600D01*
X69809929Y-78098600D01*
X69980445Y-78064683D01*
X70141068Y-77998150D01*
X70285625Y-77901561D01*
X70408561Y-77778625D01*
X70505150Y-77634068D01*
X70571683Y-77473445D01*
X70605600Y-77302929D01*
X70605600Y-77129071D01*
X70571683Y-76958555D01*
X70505150Y-76797932D01*
X70471835Y-76748071D01*
X74809400Y-76748071D01*
X74809400Y-76921929D01*
X74843317Y-77092445D01*
X74909850Y-77253068D01*
X75006439Y-77397625D01*
X75129375Y-77520561D01*
X75273932Y-77617150D01*
X75434555Y-77683683D01*
X75605071Y-77717600D01*
X75778929Y-77717600D01*
X75949445Y-77683683D01*
X76110068Y-77617150D01*
X76254625Y-77520561D01*
X76377561Y-77397625D01*
X76474150Y-77253068D01*
X76540683Y-77092445D01*
X76574600Y-76921929D01*
X76574600Y-76748071D01*
X76540683Y-76577555D01*
X76474150Y-76416932D01*
X76377561Y-76272375D01*
X76254625Y-76149439D01*
X76110068Y-76052850D01*
X75949445Y-75986317D01*
X75778929Y-75952400D01*
X75605071Y-75952400D01*
X75434555Y-75986317D01*
X75273932Y-76052850D01*
X75129375Y-76149439D01*
X75006439Y-76272375D01*
X74909850Y-76416932D01*
X74843317Y-76577555D01*
X74809400Y-76748071D01*
X70471835Y-76748071D01*
X70408561Y-76653375D01*
X70285625Y-76530439D01*
X70141068Y-76433850D01*
X69980445Y-76367317D01*
X69809929Y-76333400D01*
X69636071Y-76333400D01*
X69465555Y-76367317D01*
X69304932Y-76433850D01*
X69160375Y-76530439D01*
X69037439Y-76653375D01*
X68940850Y-76797932D01*
X68874317Y-76958555D01*
X68840400Y-77129071D01*
X66995510Y-77129071D01*
X67075098Y-77049483D01*
X67220935Y-76831223D01*
X67321389Y-76588705D01*
X67372600Y-76331250D01*
X67372600Y-76068750D01*
X67321389Y-75811295D01*
X67220935Y-75568777D01*
X67075098Y-75350517D01*
X66889483Y-75164902D01*
X66671223Y-75019065D01*
X66456201Y-74930000D01*
X66671223Y-74840935D01*
X66889483Y-74695098D01*
X67075098Y-74509483D01*
X67220935Y-74291223D01*
X67321389Y-74048705D01*
X67372600Y-73791250D01*
X67372600Y-73528750D01*
X67321389Y-73271295D01*
X67235969Y-73065071D01*
X73539400Y-73065071D01*
X73539400Y-73238929D01*
X73573317Y-73409445D01*
X73639850Y-73570068D01*
X73736439Y-73714625D01*
X73859375Y-73837561D01*
X74003932Y-73934150D01*
X74164555Y-74000683D01*
X74335071Y-74034600D01*
X74508929Y-74034600D01*
X74679445Y-74000683D01*
X74840068Y-73934150D01*
X74984625Y-73837561D01*
X75107561Y-73714625D01*
X75204150Y-73570068D01*
X75270683Y-73409445D01*
X75304600Y-73238929D01*
X75304600Y-73192071D01*
X78111400Y-73192071D01*
X78111400Y-73365929D01*
X78145317Y-73536445D01*
X78211850Y-73697068D01*
X78308439Y-73841625D01*
X78431375Y-73964561D01*
X78575932Y-74061150D01*
X78736555Y-74127683D01*
X78907071Y-74161600D01*
X79080929Y-74161600D01*
X79251445Y-74127683D01*
X79412068Y-74061150D01*
X79556625Y-73964561D01*
X79679561Y-73841625D01*
X79776150Y-73697068D01*
X79842683Y-73536445D01*
X79876600Y-73365929D01*
X79876600Y-73192071D01*
X79842683Y-73021555D01*
X79776150Y-72860932D01*
X79679561Y-72716375D01*
X79556625Y-72593439D01*
X79412068Y-72496850D01*
X79251445Y-72430317D01*
X79080929Y-72396400D01*
X78907071Y-72396400D01*
X78736555Y-72430317D01*
X78575932Y-72496850D01*
X78431375Y-72593439D01*
X78308439Y-72716375D01*
X78211850Y-72860932D01*
X78145317Y-73021555D01*
X78111400Y-73192071D01*
X75304600Y-73192071D01*
X75304600Y-73065071D01*
X75270683Y-72894555D01*
X75204150Y-72733932D01*
X75107561Y-72589375D01*
X74984625Y-72466439D01*
X74840068Y-72369850D01*
X74679445Y-72303317D01*
X74678209Y-72303071D01*
X79889400Y-72303071D01*
X79889400Y-72476929D01*
X79923317Y-72647445D01*
X79989850Y-72808068D01*
X80086439Y-72952625D01*
X80209375Y-73075561D01*
X80353932Y-73172150D01*
X80514555Y-73238683D01*
X80685071Y-73272600D01*
X80858929Y-73272600D01*
X81029445Y-73238683D01*
X81190068Y-73172150D01*
X81334625Y-73075561D01*
X81457561Y-72952625D01*
X81554150Y-72808068D01*
X81620683Y-72647445D01*
X81654600Y-72476929D01*
X81654600Y-72303071D01*
X81620683Y-72132555D01*
X81554150Y-71971932D01*
X81457561Y-71827375D01*
X81334625Y-71704439D01*
X81190068Y-71607850D01*
X81029445Y-71541317D01*
X80858929Y-71507400D01*
X80685071Y-71507400D01*
X80514555Y-71541317D01*
X80353932Y-71607850D01*
X80209375Y-71704439D01*
X80086439Y-71827375D01*
X79989850Y-71971932D01*
X79923317Y-72132555D01*
X79889400Y-72303071D01*
X74678209Y-72303071D01*
X74508929Y-72269400D01*
X74335071Y-72269400D01*
X74164555Y-72303317D01*
X74003932Y-72369850D01*
X73859375Y-72466439D01*
X73736439Y-72589375D01*
X73639850Y-72733932D01*
X73573317Y-72894555D01*
X73539400Y-73065071D01*
X67235969Y-73065071D01*
X67220935Y-73028777D01*
X67075098Y-72810517D01*
X66889483Y-72624902D01*
X66671223Y-72479065D01*
X66456201Y-72390000D01*
X66671223Y-72300935D01*
X66889483Y-72155098D01*
X67075098Y-71969483D01*
X67220935Y-71751223D01*
X67321389Y-71508705D01*
X67340212Y-71414071D01*
X68907000Y-71414071D01*
X68907000Y-71587929D01*
X68940917Y-71758445D01*
X69007450Y-71919068D01*
X69104039Y-72063625D01*
X69226975Y-72186561D01*
X69371532Y-72283150D01*
X69532155Y-72349683D01*
X69702671Y-72383600D01*
X69876529Y-72383600D01*
X70047045Y-72349683D01*
X70207668Y-72283150D01*
X70352225Y-72186561D01*
X70475161Y-72063625D01*
X70571750Y-71919068D01*
X70638283Y-71758445D01*
X70672200Y-71587929D01*
X70672200Y-71414071D01*
X70638283Y-71243555D01*
X70571750Y-71082932D01*
X70475161Y-70938375D01*
X70352225Y-70815439D01*
X70207668Y-70718850D01*
X70047045Y-70652317D01*
X69876529Y-70618400D01*
X69702671Y-70618400D01*
X69532155Y-70652317D01*
X69371532Y-70718850D01*
X69226975Y-70815439D01*
X69104039Y-70938375D01*
X69007450Y-71082932D01*
X68940917Y-71243555D01*
X68907000Y-71414071D01*
X67340212Y-71414071D01*
X67372600Y-71251250D01*
X67372600Y-70988750D01*
X67321389Y-70731295D01*
X67258850Y-70580312D01*
X67336432Y-70632150D01*
X67497055Y-70698683D01*
X67667571Y-70732600D01*
X67841429Y-70732600D01*
X68011945Y-70698683D01*
X68172568Y-70632150D01*
X68317125Y-70535561D01*
X68440061Y-70412625D01*
X68536650Y-70268068D01*
X68603183Y-70107445D01*
X68637100Y-69936929D01*
X68637100Y-69890071D01*
X70491400Y-69890071D01*
X70491400Y-70063929D01*
X70525317Y-70234445D01*
X70591850Y-70395068D01*
X70688439Y-70539625D01*
X70811375Y-70662561D01*
X70955932Y-70759150D01*
X71116555Y-70825683D01*
X71287071Y-70859600D01*
X71460929Y-70859600D01*
X71631445Y-70825683D01*
X71792068Y-70759150D01*
X71936625Y-70662561D01*
X72059561Y-70539625D01*
X72156150Y-70395068D01*
X72222683Y-70234445D01*
X72256600Y-70063929D01*
X72256600Y-69890071D01*
X72222683Y-69719555D01*
X72213282Y-69696857D01*
X72390971Y-69696857D01*
X72390971Y-69870715D01*
X72424888Y-70041231D01*
X72491421Y-70201854D01*
X72588010Y-70346411D01*
X72710946Y-70469347D01*
X72855503Y-70565936D01*
X73016126Y-70632469D01*
X73186642Y-70666386D01*
X73360500Y-70666386D01*
X73393090Y-70659904D01*
X73482439Y-70793625D01*
X73605375Y-70916561D01*
X73749932Y-71013150D01*
X73910555Y-71079683D01*
X74081071Y-71113600D01*
X74254929Y-71113600D01*
X74425445Y-71079683D01*
X74586068Y-71013150D01*
X74676000Y-70953060D01*
X74765932Y-71013150D01*
X74926555Y-71079683D01*
X75097071Y-71113600D01*
X75270929Y-71113600D01*
X75441445Y-71079683D01*
X75602068Y-71013150D01*
X75746625Y-70916561D01*
X75869561Y-70793625D01*
X75964143Y-70652071D01*
X78365400Y-70652071D01*
X78365400Y-70825929D01*
X78399317Y-70996445D01*
X78465850Y-71157068D01*
X78562439Y-71301625D01*
X78685375Y-71424561D01*
X78829932Y-71521150D01*
X78990555Y-71587683D01*
X79161071Y-71621600D01*
X79334929Y-71621600D01*
X79505445Y-71587683D01*
X79666068Y-71521150D01*
X79810625Y-71424561D01*
X79933561Y-71301625D01*
X80030150Y-71157068D01*
X80096683Y-70996445D01*
X80130600Y-70825929D01*
X80130600Y-70652071D01*
X80096683Y-70481555D01*
X80030150Y-70320932D01*
X79933561Y-70176375D01*
X79810625Y-70053439D01*
X79666068Y-69956850D01*
X79505445Y-69890317D01*
X79334929Y-69856400D01*
X79161071Y-69856400D01*
X78990555Y-69890317D01*
X78829932Y-69956850D01*
X78685375Y-70053439D01*
X78562439Y-70176375D01*
X78465850Y-70320932D01*
X78399317Y-70481555D01*
X78365400Y-70652071D01*
X75964143Y-70652071D01*
X75966150Y-70649068D01*
X76032683Y-70488445D01*
X76066600Y-70317929D01*
X76066600Y-70144071D01*
X76032683Y-69973555D01*
X75966150Y-69812932D01*
X75869561Y-69668375D01*
X75746625Y-69545439D01*
X75602068Y-69448850D01*
X75441445Y-69382317D01*
X75270929Y-69348400D01*
X75097071Y-69348400D01*
X74926555Y-69382317D01*
X74765932Y-69448850D01*
X74676000Y-69508940D01*
X74586068Y-69448850D01*
X74425445Y-69382317D01*
X74254929Y-69348400D01*
X74081071Y-69348400D01*
X74048481Y-69354882D01*
X73959132Y-69221161D01*
X73836196Y-69098225D01*
X73691639Y-69001636D01*
X73531016Y-68935103D01*
X73360500Y-68901186D01*
X73186642Y-68901186D01*
X73016126Y-68935103D01*
X72855503Y-69001636D01*
X72710946Y-69098225D01*
X72588010Y-69221161D01*
X72491421Y-69365718D01*
X72424888Y-69526341D01*
X72390971Y-69696857D01*
X72213282Y-69696857D01*
X72156150Y-69558932D01*
X72059561Y-69414375D01*
X71936625Y-69291439D01*
X71792068Y-69194850D01*
X71631445Y-69128317D01*
X71460929Y-69094400D01*
X71287071Y-69094400D01*
X71116555Y-69128317D01*
X70955932Y-69194850D01*
X70811375Y-69291439D01*
X70688439Y-69414375D01*
X70591850Y-69558932D01*
X70525317Y-69719555D01*
X70491400Y-69890071D01*
X68637100Y-69890071D01*
X68637100Y-69763071D01*
X68603183Y-69592555D01*
X68536650Y-69431932D01*
X68440061Y-69287375D01*
X68317125Y-69164439D01*
X68172568Y-69067850D01*
X68011945Y-69001317D01*
X67841429Y-68967400D01*
X67667571Y-68967400D01*
X67497055Y-69001317D01*
X67336432Y-69067850D01*
X67258850Y-69119688D01*
X67321389Y-68968705D01*
X67340212Y-68874071D01*
X68967400Y-68874071D01*
X68967400Y-69047929D01*
X69001317Y-69218445D01*
X69067850Y-69379068D01*
X69164439Y-69523625D01*
X69287375Y-69646561D01*
X69431932Y-69743150D01*
X69592555Y-69809683D01*
X69763071Y-69843600D01*
X69936929Y-69843600D01*
X70107445Y-69809683D01*
X70268068Y-69743150D01*
X70412625Y-69646561D01*
X70535561Y-69523625D01*
X70632150Y-69379068D01*
X70698683Y-69218445D01*
X70732600Y-69047929D01*
X70732600Y-68874071D01*
X70698683Y-68703555D01*
X70637800Y-68556571D01*
X76650900Y-68556571D01*
X76650900Y-68730429D01*
X76684817Y-68900945D01*
X76751350Y-69061568D01*
X76847939Y-69206125D01*
X76970875Y-69329061D01*
X77115432Y-69425650D01*
X77276055Y-69492183D01*
X77446571Y-69526100D01*
X77620429Y-69526100D01*
X77790945Y-69492183D01*
X77951568Y-69425650D01*
X78036095Y-69369171D01*
X78054439Y-69396625D01*
X78177375Y-69519561D01*
X78321932Y-69616150D01*
X78482555Y-69682683D01*
X78653071Y-69716600D01*
X78826929Y-69716600D01*
X78997445Y-69682683D01*
X79158068Y-69616150D01*
X79302625Y-69519561D01*
X79425561Y-69396625D01*
X79435926Y-69381112D01*
X79447375Y-69392561D01*
X79591932Y-69489150D01*
X79752555Y-69555683D01*
X79923071Y-69589600D01*
X80096929Y-69589600D01*
X80267445Y-69555683D01*
X80428068Y-69489150D01*
X80572625Y-69392561D01*
X80695561Y-69269625D01*
X80792150Y-69125068D01*
X80858683Y-68964445D01*
X80883044Y-68841971D01*
X80891295Y-68845389D01*
X81148750Y-68896600D01*
X81286400Y-68896600D01*
X81286400Y-68920929D01*
X81320317Y-69091445D01*
X81386850Y-69252068D01*
X81483439Y-69396625D01*
X81606375Y-69519561D01*
X81750932Y-69616150D01*
X81911555Y-69682683D01*
X82082071Y-69716600D01*
X82255929Y-69716600D01*
X82426445Y-69682683D01*
X82587068Y-69616150D01*
X82731625Y-69519561D01*
X82854561Y-69396625D01*
X82951150Y-69252068D01*
X83017683Y-69091445D01*
X83051600Y-68920929D01*
X83051600Y-68747071D01*
X83017683Y-68576555D01*
X82951150Y-68415932D01*
X82854561Y-68271375D01*
X82731625Y-68148439D01*
X82587068Y-68051850D01*
X82530097Y-68028251D01*
X82561389Y-67952705D01*
X82612600Y-67695250D01*
X82612600Y-67432750D01*
X82561389Y-67175295D01*
X82460935Y-66932777D01*
X82315098Y-66714517D01*
X82129483Y-66528902D01*
X81911223Y-66383065D01*
X81696201Y-66294000D01*
X81911223Y-66204935D01*
X82129483Y-66059098D01*
X82315098Y-65873483D01*
X82460935Y-65655223D01*
X82561389Y-65412705D01*
X82612600Y-65155250D01*
X82612600Y-64892750D01*
X82561389Y-64635295D01*
X82460935Y-64392777D01*
X82315098Y-64174517D01*
X82129483Y-63988902D01*
X81911223Y-63843065D01*
X81696201Y-63754000D01*
X81911223Y-63664935D01*
X82129483Y-63519098D01*
X82315098Y-63333483D01*
X82460935Y-63115223D01*
X82561389Y-62872705D01*
X82612600Y-62615250D01*
X82612600Y-62352750D01*
X82561389Y-62095295D01*
X82460935Y-61852777D01*
X82315098Y-61634517D01*
X82129483Y-61448902D01*
X82065577Y-61406201D01*
X82130000Y-61406550D01*
X82249503Y-61394780D01*
X82364413Y-61359922D01*
X82433761Y-61322855D01*
X82463317Y-61471445D01*
X82529850Y-61632068D01*
X82626439Y-61776625D01*
X82749375Y-61899561D01*
X82893932Y-61996150D01*
X83054555Y-62062683D01*
X83225071Y-62096600D01*
X83398929Y-62096600D01*
X83569445Y-62062683D01*
X83730068Y-61996150D01*
X83874625Y-61899561D01*
X83997561Y-61776625D01*
X84094150Y-61632068D01*
X84160683Y-61471445D01*
X84194600Y-61300929D01*
X84194600Y-61127071D01*
X84160683Y-60956555D01*
X84094150Y-60795932D01*
X83997561Y-60651375D01*
X83874625Y-60528439D01*
X83730068Y-60431850D01*
X83569445Y-60365317D01*
X83398929Y-60331400D01*
X83225071Y-60331400D01*
X83054555Y-60365317D01*
X82893932Y-60431850D01*
X82749375Y-60528439D01*
X82741158Y-60536656D01*
X82739600Y-60248800D01*
X82587200Y-60096400D01*
X81432400Y-60096400D01*
X81432400Y-60116400D01*
X81127600Y-60116400D01*
X81127600Y-60096400D01*
X79972800Y-60096400D01*
X79820400Y-60248800D01*
X79817450Y-60794000D01*
X79829220Y-60913503D01*
X79864078Y-61028413D01*
X79920683Y-61134315D01*
X79996862Y-61227138D01*
X80089685Y-61303317D01*
X80195587Y-61359922D01*
X80310497Y-61394780D01*
X80430000Y-61406550D01*
X80494423Y-61406201D01*
X80430517Y-61448902D01*
X80244902Y-61634517D01*
X80099065Y-61852777D01*
X79998611Y-62095295D01*
X79947400Y-62352750D01*
X79947400Y-62615250D01*
X79998611Y-62872705D01*
X80099065Y-63115223D01*
X80244902Y-63333483D01*
X80430517Y-63519098D01*
X80648777Y-63664935D01*
X80863799Y-63754000D01*
X80648777Y-63843065D01*
X80430517Y-63988902D01*
X80244902Y-64174517D01*
X80099065Y-64392777D01*
X79998611Y-64635295D01*
X79947400Y-64892750D01*
X79947400Y-65155250D01*
X79998611Y-65412705D01*
X80099065Y-65655223D01*
X80244902Y-65873483D01*
X80430517Y-66059098D01*
X80648777Y-66204935D01*
X80863799Y-66294000D01*
X80648777Y-66383065D01*
X80430517Y-66528902D01*
X80244902Y-66714517D01*
X80099065Y-66932777D01*
X79998611Y-67175295D01*
X79947400Y-67432750D01*
X79947400Y-67695250D01*
X79973090Y-67824400D01*
X79923071Y-67824400D01*
X79752555Y-67858317D01*
X79591932Y-67924850D01*
X79447375Y-68021439D01*
X79324439Y-68144375D01*
X79314074Y-68159888D01*
X79302625Y-68148439D01*
X79158068Y-68051850D01*
X78997445Y-67985317D01*
X78826929Y-67951400D01*
X78653071Y-67951400D01*
X78482555Y-67985317D01*
X78321932Y-68051850D01*
X78237405Y-68108329D01*
X78219061Y-68080875D01*
X78096125Y-67957939D01*
X77951568Y-67861350D01*
X77790945Y-67794817D01*
X77620429Y-67760900D01*
X77446571Y-67760900D01*
X77276055Y-67794817D01*
X77115432Y-67861350D01*
X76970875Y-67957939D01*
X76847939Y-68080875D01*
X76751350Y-68225432D01*
X76684817Y-68386055D01*
X76650900Y-68556571D01*
X70637800Y-68556571D01*
X70632150Y-68542932D01*
X70535561Y-68398375D01*
X70412625Y-68275439D01*
X70268068Y-68178850D01*
X70107445Y-68112317D01*
X69936929Y-68078400D01*
X69763071Y-68078400D01*
X69592555Y-68112317D01*
X69431932Y-68178850D01*
X69287375Y-68275439D01*
X69164439Y-68398375D01*
X69067850Y-68542932D01*
X69001317Y-68703555D01*
X68967400Y-68874071D01*
X67340212Y-68874071D01*
X67372600Y-68711250D01*
X67372600Y-68448750D01*
X67321389Y-68191295D01*
X67220935Y-67948777D01*
X67075098Y-67730517D01*
X66889483Y-67544902D01*
X66671223Y-67399065D01*
X66456201Y-67310000D01*
X66666066Y-67223071D01*
X67316400Y-67223071D01*
X67316400Y-67396929D01*
X67350317Y-67567445D01*
X67416850Y-67728068D01*
X67513439Y-67872625D01*
X67636375Y-67995561D01*
X67780932Y-68092150D01*
X67941555Y-68158683D01*
X68112071Y-68192600D01*
X68285929Y-68192600D01*
X68456445Y-68158683D01*
X68617068Y-68092150D01*
X68761625Y-67995561D01*
X68884561Y-67872625D01*
X68981150Y-67728068D01*
X69047683Y-67567445D01*
X69081600Y-67396929D01*
X69081600Y-67223071D01*
X69047683Y-67052555D01*
X68981150Y-66891932D01*
X68884561Y-66747375D01*
X68761625Y-66624439D01*
X68617068Y-66527850D01*
X68456445Y-66461317D01*
X68285929Y-66427400D01*
X68112071Y-66427400D01*
X67941555Y-66461317D01*
X67780932Y-66527850D01*
X67636375Y-66624439D01*
X67513439Y-66747375D01*
X67416850Y-66891932D01*
X67350317Y-67052555D01*
X67316400Y-67223071D01*
X66666066Y-67223071D01*
X66671223Y-67220935D01*
X66889483Y-67075098D01*
X67075098Y-66889483D01*
X67220935Y-66671223D01*
X67321389Y-66428705D01*
X67372600Y-66171250D01*
X67372600Y-65908750D01*
X67321389Y-65651295D01*
X67220935Y-65408777D01*
X67202757Y-65381571D01*
X68141900Y-65381571D01*
X68141900Y-65555429D01*
X68175817Y-65725945D01*
X68242350Y-65886568D01*
X68338939Y-66031125D01*
X68461875Y-66154061D01*
X68606432Y-66250650D01*
X68767055Y-66317183D01*
X68937571Y-66351100D01*
X69111429Y-66351100D01*
X69281945Y-66317183D01*
X69442568Y-66250650D01*
X69587125Y-66154061D01*
X69710061Y-66031125D01*
X69806650Y-65886568D01*
X69873183Y-65725945D01*
X69907100Y-65555429D01*
X69907100Y-65381571D01*
X69873183Y-65211055D01*
X69806650Y-65050432D01*
X69730129Y-64935909D01*
X69828999Y-64837039D01*
X69925588Y-64692482D01*
X69992121Y-64531859D01*
X70026038Y-64361343D01*
X70026038Y-64187485D01*
X69992121Y-64016969D01*
X69925588Y-63856346D01*
X69828999Y-63711789D01*
X69706063Y-63588853D01*
X69561506Y-63492264D01*
X69400883Y-63425731D01*
X69230367Y-63391814D01*
X69056509Y-63391814D01*
X68885993Y-63425731D01*
X68725370Y-63492264D01*
X68580813Y-63588853D01*
X68457877Y-63711789D01*
X68361288Y-63856346D01*
X68294755Y-64016969D01*
X68260838Y-64187485D01*
X68260838Y-64361343D01*
X68294755Y-64531859D01*
X68361288Y-64692482D01*
X68437809Y-64807005D01*
X68338939Y-64905875D01*
X68242350Y-65050432D01*
X68175817Y-65211055D01*
X68141900Y-65381571D01*
X67202757Y-65381571D01*
X67075098Y-65190517D01*
X66889483Y-65004902D01*
X66671223Y-64859065D01*
X66456201Y-64770000D01*
X66671223Y-64680935D01*
X66889483Y-64535098D01*
X67075098Y-64349483D01*
X67220935Y-64131223D01*
X67321389Y-63888705D01*
X67372600Y-63631250D01*
X67372600Y-63368750D01*
X67321389Y-63111295D01*
X67220935Y-62868777D01*
X67075098Y-62650517D01*
X66889483Y-62464902D01*
X66671223Y-62319065D01*
X66456201Y-62230000D01*
X66671223Y-62140935D01*
X66889483Y-61995098D01*
X67075098Y-61809483D01*
X67106777Y-61762071D01*
X68586400Y-61762071D01*
X68586400Y-61935929D01*
X68620317Y-62106445D01*
X68686850Y-62267068D01*
X68783439Y-62411625D01*
X68906375Y-62534561D01*
X69050932Y-62631150D01*
X69211555Y-62697683D01*
X69382071Y-62731600D01*
X69555929Y-62731600D01*
X69726445Y-62697683D01*
X69887068Y-62631150D01*
X70031625Y-62534561D01*
X70154561Y-62411625D01*
X70251150Y-62267068D01*
X70317683Y-62106445D01*
X70351600Y-61935929D01*
X70351600Y-61762071D01*
X70317683Y-61591555D01*
X70251150Y-61430932D01*
X70154561Y-61286375D01*
X70031625Y-61163439D01*
X69887068Y-61066850D01*
X69726445Y-61000317D01*
X69686241Y-60992320D01*
X70304000Y-60992320D01*
X70304000Y-61166178D01*
X70337917Y-61336694D01*
X70404450Y-61497317D01*
X70501039Y-61641874D01*
X70623975Y-61764810D01*
X70768532Y-61861399D01*
X70929155Y-61927932D01*
X71099671Y-61961849D01*
X71273529Y-61961849D01*
X71444045Y-61927932D01*
X71604668Y-61861399D01*
X71749225Y-61764810D01*
X71872161Y-61641874D01*
X71968750Y-61497317D01*
X72035283Y-61336694D01*
X72051717Y-61254071D01*
X72650400Y-61254071D01*
X72650400Y-61427929D01*
X72684317Y-61598445D01*
X72750850Y-61759068D01*
X72847439Y-61903625D01*
X72970375Y-62026561D01*
X73114932Y-62123150D01*
X73275555Y-62189683D01*
X73446071Y-62223600D01*
X73619929Y-62223600D01*
X73790445Y-62189683D01*
X73902975Y-62143071D01*
X74682400Y-62143071D01*
X74682400Y-62316929D01*
X74716317Y-62487445D01*
X74782850Y-62648068D01*
X74879439Y-62792625D01*
X75002375Y-62915561D01*
X75146932Y-63012150D01*
X75307555Y-63078683D01*
X75478071Y-63112600D01*
X75651929Y-63112600D01*
X75822445Y-63078683D01*
X75983068Y-63012150D01*
X76127625Y-62915561D01*
X76250561Y-62792625D01*
X76347150Y-62648068D01*
X76413683Y-62487445D01*
X76447600Y-62316929D01*
X76447600Y-62143071D01*
X76413683Y-61972555D01*
X76347150Y-61811932D01*
X76250561Y-61667375D01*
X76127625Y-61544439D01*
X75983068Y-61447850D01*
X75822445Y-61381317D01*
X75821209Y-61381071D01*
X77476400Y-61381071D01*
X77476400Y-61554929D01*
X77510317Y-61725445D01*
X77576850Y-61886068D01*
X77673439Y-62030625D01*
X77796375Y-62153561D01*
X77940932Y-62250150D01*
X78101555Y-62316683D01*
X78272071Y-62350600D01*
X78445929Y-62350600D01*
X78616445Y-62316683D01*
X78777068Y-62250150D01*
X78921625Y-62153561D01*
X79044561Y-62030625D01*
X79141150Y-61886068D01*
X79207683Y-61725445D01*
X79241600Y-61554929D01*
X79241600Y-61381071D01*
X79207683Y-61210555D01*
X79141150Y-61049932D01*
X79044561Y-60905375D01*
X78921625Y-60782439D01*
X78777068Y-60685850D01*
X78616445Y-60619317D01*
X78445929Y-60585400D01*
X78272071Y-60585400D01*
X78101555Y-60619317D01*
X77940932Y-60685850D01*
X77796375Y-60782439D01*
X77673439Y-60905375D01*
X77576850Y-61049932D01*
X77510317Y-61210555D01*
X77476400Y-61381071D01*
X75821209Y-61381071D01*
X75651929Y-61347400D01*
X75478071Y-61347400D01*
X75307555Y-61381317D01*
X75146932Y-61447850D01*
X75002375Y-61544439D01*
X74879439Y-61667375D01*
X74782850Y-61811932D01*
X74716317Y-61972555D01*
X74682400Y-62143071D01*
X73902975Y-62143071D01*
X73951068Y-62123150D01*
X74095625Y-62026561D01*
X74218561Y-61903625D01*
X74315150Y-61759068D01*
X74381683Y-61598445D01*
X74415600Y-61427929D01*
X74415600Y-61254071D01*
X74381683Y-61083555D01*
X74315150Y-60922932D01*
X74218561Y-60778375D01*
X74095625Y-60655439D01*
X73951068Y-60558850D01*
X73790445Y-60492317D01*
X73619929Y-60458400D01*
X73446071Y-60458400D01*
X73275555Y-60492317D01*
X73114932Y-60558850D01*
X72970375Y-60655439D01*
X72847439Y-60778375D01*
X72750850Y-60922932D01*
X72684317Y-61083555D01*
X72650400Y-61254071D01*
X72051717Y-61254071D01*
X72069200Y-61166178D01*
X72069200Y-60992320D01*
X72035283Y-60821804D01*
X71968750Y-60661181D01*
X71872161Y-60516624D01*
X71749225Y-60393688D01*
X71604668Y-60297099D01*
X71444045Y-60230566D01*
X71273529Y-60196649D01*
X71099671Y-60196649D01*
X70929155Y-60230566D01*
X70768532Y-60297099D01*
X70623975Y-60393688D01*
X70501039Y-60516624D01*
X70404450Y-60661181D01*
X70337917Y-60821804D01*
X70304000Y-60992320D01*
X69686241Y-60992320D01*
X69555929Y-60966400D01*
X69382071Y-60966400D01*
X69211555Y-61000317D01*
X69050932Y-61066850D01*
X68906375Y-61163439D01*
X68783439Y-61286375D01*
X68686850Y-61430932D01*
X68620317Y-61591555D01*
X68586400Y-61762071D01*
X67106777Y-61762071D01*
X67220935Y-61591223D01*
X67321389Y-61348705D01*
X67372600Y-61091250D01*
X67372600Y-60828750D01*
X67321389Y-60571295D01*
X67220935Y-60328777D01*
X67075098Y-60110517D01*
X66889483Y-59924902D01*
X66671223Y-59779065D01*
X66456201Y-59690000D01*
X66671223Y-59600935D01*
X66889483Y-59455098D01*
X67075098Y-59269483D01*
X67220935Y-59051223D01*
X67321389Y-58808705D01*
X67372600Y-58551250D01*
X67372600Y-58333071D01*
X69348400Y-58333071D01*
X69348400Y-58506929D01*
X69382317Y-58677445D01*
X69448850Y-58838068D01*
X69545439Y-58982625D01*
X69668375Y-59105561D01*
X69812932Y-59202150D01*
X69973555Y-59268683D01*
X70144071Y-59302600D01*
X70317929Y-59302600D01*
X70488445Y-59268683D01*
X70600975Y-59222071D01*
X73920400Y-59222071D01*
X73920400Y-59395929D01*
X73954317Y-59566445D01*
X74020850Y-59727068D01*
X74117439Y-59871625D01*
X74240375Y-59994561D01*
X74384932Y-60091150D01*
X74545555Y-60157683D01*
X74716071Y-60191600D01*
X74889929Y-60191600D01*
X75060445Y-60157683D01*
X75221068Y-60091150D01*
X75365625Y-59994561D01*
X75488561Y-59871625D01*
X75585150Y-59727068D01*
X75651683Y-59566445D01*
X75685600Y-59395929D01*
X75685600Y-59302600D01*
X75778929Y-59302600D01*
X75949445Y-59268683D01*
X76110068Y-59202150D01*
X76254625Y-59105561D01*
X76266186Y-59094000D01*
X79817450Y-59094000D01*
X79820400Y-59639200D01*
X79972800Y-59791600D01*
X81127600Y-59791600D01*
X81127600Y-58636800D01*
X81432400Y-58636800D01*
X81432400Y-59791600D01*
X82587200Y-59791600D01*
X82739600Y-59639200D01*
X82742550Y-59094000D01*
X82730780Y-58974497D01*
X82695922Y-58859587D01*
X82639317Y-58753685D01*
X82563138Y-58660862D01*
X82470315Y-58584683D01*
X82364413Y-58528078D01*
X82249503Y-58493220D01*
X82130000Y-58481450D01*
X81584800Y-58484400D01*
X81432400Y-58636800D01*
X81127600Y-58636800D01*
X80975200Y-58484400D01*
X80430000Y-58481450D01*
X80310497Y-58493220D01*
X80195587Y-58528078D01*
X80089685Y-58584683D01*
X79996862Y-58660862D01*
X79920683Y-58753685D01*
X79864078Y-58859587D01*
X79829220Y-58974497D01*
X79817450Y-59094000D01*
X76266186Y-59094000D01*
X76377561Y-58982625D01*
X76474150Y-58838068D01*
X76540683Y-58677445D01*
X76574600Y-58506929D01*
X76574600Y-58333071D01*
X82683400Y-58333071D01*
X82683400Y-58506929D01*
X82717317Y-58677445D01*
X82783850Y-58838068D01*
X82880439Y-58982625D01*
X83003375Y-59105561D01*
X83147932Y-59202150D01*
X83308555Y-59268683D01*
X83479071Y-59302600D01*
X83652929Y-59302600D01*
X83823445Y-59268683D01*
X83984068Y-59202150D01*
X84128625Y-59105561D01*
X84251561Y-58982625D01*
X84348150Y-58838068D01*
X84414683Y-58677445D01*
X84448600Y-58506929D01*
X84448600Y-58333071D01*
X84414683Y-58162555D01*
X84348150Y-58001932D01*
X84251561Y-57857375D01*
X84128625Y-57734439D01*
X83984068Y-57637850D01*
X83823445Y-57571317D01*
X83652929Y-57537400D01*
X83479071Y-57537400D01*
X83308555Y-57571317D01*
X83147932Y-57637850D01*
X83003375Y-57734439D01*
X82880439Y-57857375D01*
X82783850Y-58001932D01*
X82717317Y-58162555D01*
X82683400Y-58333071D01*
X76574600Y-58333071D01*
X76540683Y-58162555D01*
X76474150Y-58001932D01*
X76377561Y-57857375D01*
X76254625Y-57734439D01*
X76110068Y-57637850D01*
X75949445Y-57571317D01*
X75894904Y-57560468D01*
X75905683Y-57534445D01*
X75939600Y-57363929D01*
X75939600Y-57317071D01*
X79508400Y-57317071D01*
X79508400Y-57490929D01*
X79542317Y-57661445D01*
X79608850Y-57822068D01*
X79705439Y-57966625D01*
X79828375Y-58089561D01*
X79972932Y-58186150D01*
X80133555Y-58252683D01*
X80304071Y-58286600D01*
X80477929Y-58286600D01*
X80648445Y-58252683D01*
X80809068Y-58186150D01*
X80953625Y-58089561D01*
X81076561Y-57966625D01*
X81173150Y-57822068D01*
X81239683Y-57661445D01*
X81273600Y-57490929D01*
X81273600Y-57317071D01*
X81239683Y-57146555D01*
X81173150Y-56985932D01*
X81076561Y-56841375D01*
X80953625Y-56718439D01*
X80809068Y-56621850D01*
X80648445Y-56555317D01*
X80477929Y-56521400D01*
X80304071Y-56521400D01*
X80133555Y-56555317D01*
X79972932Y-56621850D01*
X79828375Y-56718439D01*
X79705439Y-56841375D01*
X79608850Y-56985932D01*
X79542317Y-57146555D01*
X79508400Y-57317071D01*
X75939600Y-57317071D01*
X75939600Y-57190071D01*
X75905683Y-57019555D01*
X75839150Y-56858932D01*
X75742561Y-56714375D01*
X75619625Y-56591439D01*
X75475068Y-56494850D01*
X75314445Y-56428317D01*
X75143929Y-56394400D01*
X74970071Y-56394400D01*
X74799555Y-56428317D01*
X74638932Y-56494850D01*
X74494375Y-56591439D01*
X74371439Y-56714375D01*
X74274850Y-56858932D01*
X74208317Y-57019555D01*
X74174400Y-57190071D01*
X74174400Y-57363929D01*
X74208317Y-57534445D01*
X74274850Y-57695068D01*
X74371439Y-57839625D01*
X74494375Y-57962561D01*
X74638932Y-58059150D01*
X74799555Y-58125683D01*
X74854096Y-58136532D01*
X74843317Y-58162555D01*
X74809400Y-58333071D01*
X74809400Y-58426400D01*
X74716071Y-58426400D01*
X74545555Y-58460317D01*
X74384932Y-58526850D01*
X74240375Y-58623439D01*
X74117439Y-58746375D01*
X74020850Y-58890932D01*
X73954317Y-59051555D01*
X73920400Y-59222071D01*
X70600975Y-59222071D01*
X70649068Y-59202150D01*
X70793625Y-59105561D01*
X70916561Y-58982625D01*
X71013150Y-58838068D01*
X71079683Y-58677445D01*
X71113600Y-58506929D01*
X71113600Y-58333071D01*
X71079683Y-58162555D01*
X71013150Y-58001932D01*
X70916561Y-57857375D01*
X70793625Y-57734439D01*
X70649068Y-57637850D01*
X70488445Y-57571317D01*
X70317929Y-57537400D01*
X70144071Y-57537400D01*
X69973555Y-57571317D01*
X69812932Y-57637850D01*
X69668375Y-57734439D01*
X69545439Y-57857375D01*
X69448850Y-58001932D01*
X69382317Y-58162555D01*
X69348400Y-58333071D01*
X67372600Y-58333071D01*
X67372600Y-58288750D01*
X67321389Y-58031295D01*
X67220935Y-57788777D01*
X67075098Y-57570517D01*
X66889483Y-57384902D01*
X66671223Y-57239065D01*
X66456201Y-57150000D01*
X66671223Y-57060935D01*
X66889483Y-56915098D01*
X67075098Y-56729483D01*
X67220935Y-56511223D01*
X67321389Y-56268705D01*
X67372600Y-56011250D01*
X67372600Y-55748750D01*
X67321389Y-55491295D01*
X67220935Y-55248777D01*
X67075098Y-55030517D01*
X66889483Y-54844902D01*
X66671223Y-54699065D01*
X66456201Y-54610000D01*
X66671223Y-54520935D01*
X66889483Y-54375098D01*
X67075098Y-54189483D01*
X67220935Y-53971223D01*
X67321389Y-53728705D01*
X67372600Y-53471250D01*
X67372600Y-53295270D01*
X81752201Y-53295270D01*
X81752201Y-53469128D01*
X81786118Y-53639644D01*
X81852651Y-53800267D01*
X81949240Y-53944824D01*
X82072176Y-54067760D01*
X82216733Y-54164349D01*
X82377356Y-54230882D01*
X82547872Y-54264799D01*
X82721730Y-54264799D01*
X82892246Y-54230882D01*
X83052869Y-54164349D01*
X83197426Y-54067760D01*
X83320362Y-53944824D01*
X83416951Y-53800267D01*
X83483484Y-53639644D01*
X83517401Y-53469128D01*
X83517401Y-53295270D01*
X83483484Y-53124754D01*
X83416951Y-52964131D01*
X83320362Y-52819574D01*
X83197426Y-52696638D01*
X83052869Y-52600049D01*
X82892246Y-52533516D01*
X82721730Y-52499599D01*
X82547872Y-52499599D01*
X82377356Y-52533516D01*
X82216733Y-52600049D01*
X82072176Y-52696638D01*
X81949240Y-52819574D01*
X81852651Y-52964131D01*
X81786118Y-53124754D01*
X81752201Y-53295270D01*
X67372600Y-53295270D01*
X67372600Y-53208750D01*
X67321389Y-52951295D01*
X67220935Y-52708777D01*
X67075098Y-52490517D01*
X66889483Y-52304902D01*
X66671223Y-52159065D01*
X66428705Y-52058611D01*
X66171250Y-52007400D01*
X65908750Y-52007400D01*
X65651295Y-52058611D01*
X65408777Y-52159065D01*
X65277153Y-52247013D01*
X65277122Y-48481361D01*
X65360658Y-48258830D01*
X65508132Y-48020750D01*
X65699043Y-47815849D01*
X65926117Y-47651930D01*
X66180706Y-47535238D01*
X66453113Y-47470219D01*
X66548401Y-47466518D01*
X66548400Y-48870065D01*
X66545944Y-48895000D01*
X66555745Y-48994507D01*
X66584770Y-49090190D01*
X66631904Y-49178372D01*
X66695336Y-49255664D01*
X66772628Y-49319096D01*
X66860810Y-49366230D01*
X66956493Y-49395255D01*
X67056000Y-49405056D01*
X67080935Y-49402600D01*
X85319065Y-49402600D01*
X85344000Y-49405056D01*
X85368935Y-49402600D01*
X85443507Y-49395255D01*
X85539190Y-49366230D01*
X85627372Y-49319096D01*
X85704664Y-49255664D01*
X85768096Y-49178372D01*
X85815230Y-49090190D01*
X85844255Y-48994507D01*
X85854056Y-48895000D01*
X85851600Y-48870065D01*
X85851600Y-47464928D01*
X86007760Y-47477781D01*
G37*
%TD.AperFunction*%
%TD*%
M02*
