M48
; DRILL file {KiCad (5.1.12)-1} date 12/13/21 23:09:00
; FORMAT={-:-/ absolute / metric / decimal}
; #@! TF.CreationDate,2021-12-13T23:09:00+08:00
; #@! TF.GenerationSoftware,Kicad,Pcbnew,(5.1.12)-1
; #@! TF.FileFunction,Plated,1,4,PTH
FMAT,2
METRIC
T1C0.400
T2C0.600
T3C1.000
%
G90
G05
T1
X67.754Y-69.85
X68.199Y-67.31
X68.451Y-101.602
X68.798Y-84.134
X69.025Y-65.468
X69.143Y-64.274
X69.469Y-61.849
X69.596Y-88.646
X69.723Y-77.216
X69.79Y-71.501
X69.85Y-67.056
X69.85Y-68.961
X69.977Y-54.102
X70.231Y-58.42
X70.993Y-91.186
X71.187Y-61.079
X71.374Y-69.977
X71.628Y-97.917
X71.755Y-82.296
X72.39Y-61.849
X72.898Y-93.472
X73.274Y-69.784
X73.406Y-76.2
X73.533Y-61.341
X73.66Y-78.486
X73.914Y-88.138
X74.041Y-85.217
X74.168Y-70.231
X74.422Y-73.152
X74.803Y-59.309
X74.93Y-100.838
X74.93Y-103.251
X74.93Y-104.521
X75.057Y-57.277
X75.184Y-70.231
X75.438Y-73.152
X75.565Y-62.23
X75.679Y-67.831
X75.692Y-58.42
X75.692Y-76.835
X76.2Y-103.251
X76.2Y-104.521
X76.708Y-62.23
X76.708Y-75.057
X76.708Y-82.55
X76.835Y-84.074
X77.089Y-88.519
X77.47Y-78.74
X77.47Y-103.251
X77.47Y-104.521
X77.533Y-68.644
X77.597Y-95.885
X77.851Y-82.931
X77.978Y-100.838
X78.232Y-94.742
X78.359Y-61.468
X78.613Y-97.917
X78.74Y-68.834
X78.74Y-78.486
X78.994Y-73.279
X79.248Y-70.739
X79.629Y-82.55
X80.01Y-68.707
X80.137Y-81.407
X80.362Y-79.474
X80.391Y-57.404
X80.772Y-72.39
X81.788Y-80.518
X82.007Y-92.979
X82.169Y-68.834
X82.635Y-53.382
X83.224Y-95.592
X83.312Y-61.214
X83.566Y-58.42
X83.785Y-78.521
X84.836Y-72.39
X84.963Y-69.85
T3
X66.04Y-53.34
X66.04Y-55.88
X66.04Y-58.42
X66.04Y-60.96
X66.04Y-63.5
X66.04Y-66.04
X66.04Y-68.58
X66.04Y-71.12
X66.04Y-73.66
X66.04Y-76.2
X66.04Y-78.74
X66.04Y-81.28
X66.04Y-83.82
X66.04Y-86.36
X66.04Y-88.9
X66.04Y-91.44
X66.04Y-93.98
X66.04Y-96.52
X66.04Y-99.06
X66.04Y-101.6
X79.248Y-87.122
X79.248Y-89.662
X81.28Y-59.944
X81.28Y-62.484
X81.28Y-65.024
X81.28Y-67.564
X81.788Y-87.122
X81.788Y-89.662
X86.36Y-53.34
X86.36Y-55.88
X86.36Y-58.42
X86.36Y-60.96
X86.36Y-63.5
X86.36Y-66.04
X86.36Y-68.58
X86.36Y-71.12
X86.36Y-73.66
X86.36Y-76.2
X86.36Y-78.74
X86.36Y-81.28
X86.36Y-83.82
X86.36Y-86.36
X86.36Y-88.9
X86.36Y-91.44
X86.36Y-93.98
X86.36Y-96.52
X86.36Y-99.06
X86.36Y-101.6
T2
G00X71.88Y-100.22
M15
G01X71.88Y-99.12
M16
G05
G00X71.88Y-104.24
M15
G01X71.88Y-103.44
M16
G05
G00X80.52Y-100.22
M15
G01X80.52Y-99.12
M16
G05
G00X80.52Y-104.24
M15
G01X80.52Y-103.44
M16
G05
T0
M30
