%TF.GenerationSoftware,KiCad,Pcbnew,(5.1.12)-1*%
%TF.CreationDate,2021-12-13T23:08:50+08:00*%
%TF.ProjectId,PCB_EK-Link_Lite_Dev,5043425f-454b-42d4-9c69-6e6b5f4c6974,rev?*%
%TF.SameCoordinates,Original*%
%TF.FileFunction,Soldermask,Top*%
%TF.FilePolarity,Negative*%
%FSLAX46Y46*%
G04 Gerber Fmt 4.6, Leading zero omitted, Abs format (unit mm)*
G04 Created by KiCad (PCBNEW (5.1.12)-1) date 2021-12-13 23:08:50*
%MOMM*%
%LPD*%
G01*
G04 APERTURE LIST*
%ADD10C,0.100000*%
%ADD11O,1.700000X1.700000*%
%ADD12R,1.700000X1.700000*%
%ADD13R,1.800000X1.750000*%
%ADD14R,1.540000X1.800000*%
%ADD15R,0.400000X0.900000*%
%ADD16R,0.600000X1.160000*%
%ADD17C,0.600000*%
%ADD18R,0.300000X1.160000*%
%ADD19O,0.900000X1.700000*%
%ADD20O,0.900000X2.000000*%
G04 APERTURE END LIST*
D10*
G36*
X77978000Y-105029000D02*
G01*
X74422000Y-105029000D01*
X74422000Y-102743000D01*
X77978000Y-102743000D01*
X77978000Y-105029000D01*
G37*
X77978000Y-105029000D02*
X74422000Y-105029000D01*
X74422000Y-102743000D01*
X77978000Y-102743000D01*
X77978000Y-105029000D01*
G36*
X87122000Y-105283000D02*
G01*
X83693000Y-105283000D01*
X83693000Y-102997000D01*
X87122000Y-102997000D01*
X87122000Y-105283000D01*
G37*
X87122000Y-105283000D02*
X83693000Y-105283000D01*
X83693000Y-102997000D01*
X87122000Y-102997000D01*
X87122000Y-105283000D01*
D11*
%TO.C,J4*%
X86360000Y-101600000D03*
X86360000Y-99060000D03*
X86360000Y-96520000D03*
X86360000Y-93980000D03*
X86360000Y-91440000D03*
X86360000Y-88900000D03*
X86360000Y-86360000D03*
X86360000Y-83820000D03*
X86360000Y-81280000D03*
X86360000Y-78740000D03*
X86360000Y-76200000D03*
X86360000Y-73660000D03*
X86360000Y-71120000D03*
X86360000Y-68580000D03*
X86360000Y-66040000D03*
X86360000Y-63500000D03*
X86360000Y-60960000D03*
X86360000Y-58420000D03*
X86360000Y-55880000D03*
D12*
X86360000Y-53340000D03*
%TD*%
D11*
%TO.C,J1*%
X66040000Y-53340000D03*
X66040000Y-55880000D03*
X66040000Y-58420000D03*
X66040000Y-60960000D03*
X66040000Y-63500000D03*
X66040000Y-66040000D03*
X66040000Y-68580000D03*
X66040000Y-71120000D03*
X66040000Y-73660000D03*
X66040000Y-76200000D03*
X66040000Y-78740000D03*
X66040000Y-81280000D03*
X66040000Y-83820000D03*
X66040000Y-86360000D03*
X66040000Y-88900000D03*
X66040000Y-91440000D03*
X66040000Y-93980000D03*
X66040000Y-96520000D03*
X66040000Y-99060000D03*
D12*
X66040000Y-101600000D03*
%TD*%
D13*
%TO.C,Y2*%
X78486000Y-63653000D03*
X78486000Y-66903000D03*
%TD*%
D14*
%TO.C,Y1*%
X71304000Y-63240000D03*
X73984000Y-63240000D03*
X73984000Y-66040000D03*
X71304000Y-66040000D03*
%TD*%
%TO.C,U2*%
G36*
G01*
X79700000Y-73046000D02*
X81025000Y-73046000D01*
G75*
G02*
X81100000Y-73121000I0J-75000D01*
G01*
X81100000Y-73271000D01*
G75*
G02*
X81025000Y-73346000I-75000J0D01*
G01*
X79700000Y-73346000D01*
G75*
G02*
X79625000Y-73271000I0J75000D01*
G01*
X79625000Y-73121000D01*
G75*
G02*
X79700000Y-73046000I75000J0D01*
G01*
G37*
G36*
G01*
X79700000Y-73546000D02*
X81025000Y-73546000D01*
G75*
G02*
X81100000Y-73621000I0J-75000D01*
G01*
X81100000Y-73771000D01*
G75*
G02*
X81025000Y-73846000I-75000J0D01*
G01*
X79700000Y-73846000D01*
G75*
G02*
X79625000Y-73771000I0J75000D01*
G01*
X79625000Y-73621000D01*
G75*
G02*
X79700000Y-73546000I75000J0D01*
G01*
G37*
G36*
G01*
X79700000Y-74046000D02*
X81025000Y-74046000D01*
G75*
G02*
X81100000Y-74121000I0J-75000D01*
G01*
X81100000Y-74271000D01*
G75*
G02*
X81025000Y-74346000I-75000J0D01*
G01*
X79700000Y-74346000D01*
G75*
G02*
X79625000Y-74271000I0J75000D01*
G01*
X79625000Y-74121000D01*
G75*
G02*
X79700000Y-74046000I75000J0D01*
G01*
G37*
G36*
G01*
X79700000Y-74546000D02*
X81025000Y-74546000D01*
G75*
G02*
X81100000Y-74621000I0J-75000D01*
G01*
X81100000Y-74771000D01*
G75*
G02*
X81025000Y-74846000I-75000J0D01*
G01*
X79700000Y-74846000D01*
G75*
G02*
X79625000Y-74771000I0J75000D01*
G01*
X79625000Y-74621000D01*
G75*
G02*
X79700000Y-74546000I75000J0D01*
G01*
G37*
G36*
G01*
X79700000Y-75046000D02*
X81025000Y-75046000D01*
G75*
G02*
X81100000Y-75121000I0J-75000D01*
G01*
X81100000Y-75271000D01*
G75*
G02*
X81025000Y-75346000I-75000J0D01*
G01*
X79700000Y-75346000D01*
G75*
G02*
X79625000Y-75271000I0J75000D01*
G01*
X79625000Y-75121000D01*
G75*
G02*
X79700000Y-75046000I75000J0D01*
G01*
G37*
G36*
G01*
X79700000Y-75546000D02*
X81025000Y-75546000D01*
G75*
G02*
X81100000Y-75621000I0J-75000D01*
G01*
X81100000Y-75771000D01*
G75*
G02*
X81025000Y-75846000I-75000J0D01*
G01*
X79700000Y-75846000D01*
G75*
G02*
X79625000Y-75771000I0J75000D01*
G01*
X79625000Y-75621000D01*
G75*
G02*
X79700000Y-75546000I75000J0D01*
G01*
G37*
G36*
G01*
X79700000Y-76046000D02*
X81025000Y-76046000D01*
G75*
G02*
X81100000Y-76121000I0J-75000D01*
G01*
X81100000Y-76271000D01*
G75*
G02*
X81025000Y-76346000I-75000J0D01*
G01*
X79700000Y-76346000D01*
G75*
G02*
X79625000Y-76271000I0J75000D01*
G01*
X79625000Y-76121000D01*
G75*
G02*
X79700000Y-76046000I75000J0D01*
G01*
G37*
G36*
G01*
X79700000Y-76546000D02*
X81025000Y-76546000D01*
G75*
G02*
X81100000Y-76621000I0J-75000D01*
G01*
X81100000Y-76771000D01*
G75*
G02*
X81025000Y-76846000I-75000J0D01*
G01*
X79700000Y-76846000D01*
G75*
G02*
X79625000Y-76771000I0J75000D01*
G01*
X79625000Y-76621000D01*
G75*
G02*
X79700000Y-76546000I75000J0D01*
G01*
G37*
G36*
G01*
X79700000Y-77046000D02*
X81025000Y-77046000D01*
G75*
G02*
X81100000Y-77121000I0J-75000D01*
G01*
X81100000Y-77271000D01*
G75*
G02*
X81025000Y-77346000I-75000J0D01*
G01*
X79700000Y-77346000D01*
G75*
G02*
X79625000Y-77271000I0J75000D01*
G01*
X79625000Y-77121000D01*
G75*
G02*
X79700000Y-77046000I75000J0D01*
G01*
G37*
G36*
G01*
X79700000Y-77546000D02*
X81025000Y-77546000D01*
G75*
G02*
X81100000Y-77621000I0J-75000D01*
G01*
X81100000Y-77771000D01*
G75*
G02*
X81025000Y-77846000I-75000J0D01*
G01*
X79700000Y-77846000D01*
G75*
G02*
X79625000Y-77771000I0J75000D01*
G01*
X79625000Y-77621000D01*
G75*
G02*
X79700000Y-77546000I75000J0D01*
G01*
G37*
G36*
G01*
X79700000Y-78046000D02*
X81025000Y-78046000D01*
G75*
G02*
X81100000Y-78121000I0J-75000D01*
G01*
X81100000Y-78271000D01*
G75*
G02*
X81025000Y-78346000I-75000J0D01*
G01*
X79700000Y-78346000D01*
G75*
G02*
X79625000Y-78271000I0J75000D01*
G01*
X79625000Y-78121000D01*
G75*
G02*
X79700000Y-78046000I75000J0D01*
G01*
G37*
G36*
G01*
X79700000Y-78546000D02*
X81025000Y-78546000D01*
G75*
G02*
X81100000Y-78621000I0J-75000D01*
G01*
X81100000Y-78771000D01*
G75*
G02*
X81025000Y-78846000I-75000J0D01*
G01*
X79700000Y-78846000D01*
G75*
G02*
X79625000Y-78771000I0J75000D01*
G01*
X79625000Y-78621000D01*
G75*
G02*
X79700000Y-78546000I75000J0D01*
G01*
G37*
G36*
G01*
X78875000Y-79371000D02*
X79025000Y-79371000D01*
G75*
G02*
X79100000Y-79446000I0J-75000D01*
G01*
X79100000Y-80771000D01*
G75*
G02*
X79025000Y-80846000I-75000J0D01*
G01*
X78875000Y-80846000D01*
G75*
G02*
X78800000Y-80771000I0J75000D01*
G01*
X78800000Y-79446000D01*
G75*
G02*
X78875000Y-79371000I75000J0D01*
G01*
G37*
G36*
G01*
X78375000Y-79371000D02*
X78525000Y-79371000D01*
G75*
G02*
X78600000Y-79446000I0J-75000D01*
G01*
X78600000Y-80771000D01*
G75*
G02*
X78525000Y-80846000I-75000J0D01*
G01*
X78375000Y-80846000D01*
G75*
G02*
X78300000Y-80771000I0J75000D01*
G01*
X78300000Y-79446000D01*
G75*
G02*
X78375000Y-79371000I75000J0D01*
G01*
G37*
G36*
G01*
X77875000Y-79371000D02*
X78025000Y-79371000D01*
G75*
G02*
X78100000Y-79446000I0J-75000D01*
G01*
X78100000Y-80771000D01*
G75*
G02*
X78025000Y-80846000I-75000J0D01*
G01*
X77875000Y-80846000D01*
G75*
G02*
X77800000Y-80771000I0J75000D01*
G01*
X77800000Y-79446000D01*
G75*
G02*
X77875000Y-79371000I75000J0D01*
G01*
G37*
G36*
G01*
X77375000Y-79371000D02*
X77525000Y-79371000D01*
G75*
G02*
X77600000Y-79446000I0J-75000D01*
G01*
X77600000Y-80771000D01*
G75*
G02*
X77525000Y-80846000I-75000J0D01*
G01*
X77375000Y-80846000D01*
G75*
G02*
X77300000Y-80771000I0J75000D01*
G01*
X77300000Y-79446000D01*
G75*
G02*
X77375000Y-79371000I75000J0D01*
G01*
G37*
G36*
G01*
X76875000Y-79371000D02*
X77025000Y-79371000D01*
G75*
G02*
X77100000Y-79446000I0J-75000D01*
G01*
X77100000Y-80771000D01*
G75*
G02*
X77025000Y-80846000I-75000J0D01*
G01*
X76875000Y-80846000D01*
G75*
G02*
X76800000Y-80771000I0J75000D01*
G01*
X76800000Y-79446000D01*
G75*
G02*
X76875000Y-79371000I75000J0D01*
G01*
G37*
G36*
G01*
X76375000Y-79371000D02*
X76525000Y-79371000D01*
G75*
G02*
X76600000Y-79446000I0J-75000D01*
G01*
X76600000Y-80771000D01*
G75*
G02*
X76525000Y-80846000I-75000J0D01*
G01*
X76375000Y-80846000D01*
G75*
G02*
X76300000Y-80771000I0J75000D01*
G01*
X76300000Y-79446000D01*
G75*
G02*
X76375000Y-79371000I75000J0D01*
G01*
G37*
G36*
G01*
X75875000Y-79371000D02*
X76025000Y-79371000D01*
G75*
G02*
X76100000Y-79446000I0J-75000D01*
G01*
X76100000Y-80771000D01*
G75*
G02*
X76025000Y-80846000I-75000J0D01*
G01*
X75875000Y-80846000D01*
G75*
G02*
X75800000Y-80771000I0J75000D01*
G01*
X75800000Y-79446000D01*
G75*
G02*
X75875000Y-79371000I75000J0D01*
G01*
G37*
G36*
G01*
X75375000Y-79371000D02*
X75525000Y-79371000D01*
G75*
G02*
X75600000Y-79446000I0J-75000D01*
G01*
X75600000Y-80771000D01*
G75*
G02*
X75525000Y-80846000I-75000J0D01*
G01*
X75375000Y-80846000D01*
G75*
G02*
X75300000Y-80771000I0J75000D01*
G01*
X75300000Y-79446000D01*
G75*
G02*
X75375000Y-79371000I75000J0D01*
G01*
G37*
G36*
G01*
X74875000Y-79371000D02*
X75025000Y-79371000D01*
G75*
G02*
X75100000Y-79446000I0J-75000D01*
G01*
X75100000Y-80771000D01*
G75*
G02*
X75025000Y-80846000I-75000J0D01*
G01*
X74875000Y-80846000D01*
G75*
G02*
X74800000Y-80771000I0J75000D01*
G01*
X74800000Y-79446000D01*
G75*
G02*
X74875000Y-79371000I75000J0D01*
G01*
G37*
G36*
G01*
X74375000Y-79371000D02*
X74525000Y-79371000D01*
G75*
G02*
X74600000Y-79446000I0J-75000D01*
G01*
X74600000Y-80771000D01*
G75*
G02*
X74525000Y-80846000I-75000J0D01*
G01*
X74375000Y-80846000D01*
G75*
G02*
X74300000Y-80771000I0J75000D01*
G01*
X74300000Y-79446000D01*
G75*
G02*
X74375000Y-79371000I75000J0D01*
G01*
G37*
G36*
G01*
X73875000Y-79371000D02*
X74025000Y-79371000D01*
G75*
G02*
X74100000Y-79446000I0J-75000D01*
G01*
X74100000Y-80771000D01*
G75*
G02*
X74025000Y-80846000I-75000J0D01*
G01*
X73875000Y-80846000D01*
G75*
G02*
X73800000Y-80771000I0J75000D01*
G01*
X73800000Y-79446000D01*
G75*
G02*
X73875000Y-79371000I75000J0D01*
G01*
G37*
G36*
G01*
X73375000Y-79371000D02*
X73525000Y-79371000D01*
G75*
G02*
X73600000Y-79446000I0J-75000D01*
G01*
X73600000Y-80771000D01*
G75*
G02*
X73525000Y-80846000I-75000J0D01*
G01*
X73375000Y-80846000D01*
G75*
G02*
X73300000Y-80771000I0J75000D01*
G01*
X73300000Y-79446000D01*
G75*
G02*
X73375000Y-79371000I75000J0D01*
G01*
G37*
G36*
G01*
X71375000Y-78546000D02*
X72700000Y-78546000D01*
G75*
G02*
X72775000Y-78621000I0J-75000D01*
G01*
X72775000Y-78771000D01*
G75*
G02*
X72700000Y-78846000I-75000J0D01*
G01*
X71375000Y-78846000D01*
G75*
G02*
X71300000Y-78771000I0J75000D01*
G01*
X71300000Y-78621000D01*
G75*
G02*
X71375000Y-78546000I75000J0D01*
G01*
G37*
G36*
G01*
X71375000Y-78046000D02*
X72700000Y-78046000D01*
G75*
G02*
X72775000Y-78121000I0J-75000D01*
G01*
X72775000Y-78271000D01*
G75*
G02*
X72700000Y-78346000I-75000J0D01*
G01*
X71375000Y-78346000D01*
G75*
G02*
X71300000Y-78271000I0J75000D01*
G01*
X71300000Y-78121000D01*
G75*
G02*
X71375000Y-78046000I75000J0D01*
G01*
G37*
G36*
G01*
X71375000Y-77546000D02*
X72700000Y-77546000D01*
G75*
G02*
X72775000Y-77621000I0J-75000D01*
G01*
X72775000Y-77771000D01*
G75*
G02*
X72700000Y-77846000I-75000J0D01*
G01*
X71375000Y-77846000D01*
G75*
G02*
X71300000Y-77771000I0J75000D01*
G01*
X71300000Y-77621000D01*
G75*
G02*
X71375000Y-77546000I75000J0D01*
G01*
G37*
G36*
G01*
X71375000Y-77046000D02*
X72700000Y-77046000D01*
G75*
G02*
X72775000Y-77121000I0J-75000D01*
G01*
X72775000Y-77271000D01*
G75*
G02*
X72700000Y-77346000I-75000J0D01*
G01*
X71375000Y-77346000D01*
G75*
G02*
X71300000Y-77271000I0J75000D01*
G01*
X71300000Y-77121000D01*
G75*
G02*
X71375000Y-77046000I75000J0D01*
G01*
G37*
G36*
G01*
X71375000Y-76546000D02*
X72700000Y-76546000D01*
G75*
G02*
X72775000Y-76621000I0J-75000D01*
G01*
X72775000Y-76771000D01*
G75*
G02*
X72700000Y-76846000I-75000J0D01*
G01*
X71375000Y-76846000D01*
G75*
G02*
X71300000Y-76771000I0J75000D01*
G01*
X71300000Y-76621000D01*
G75*
G02*
X71375000Y-76546000I75000J0D01*
G01*
G37*
G36*
G01*
X71375000Y-76046000D02*
X72700000Y-76046000D01*
G75*
G02*
X72775000Y-76121000I0J-75000D01*
G01*
X72775000Y-76271000D01*
G75*
G02*
X72700000Y-76346000I-75000J0D01*
G01*
X71375000Y-76346000D01*
G75*
G02*
X71300000Y-76271000I0J75000D01*
G01*
X71300000Y-76121000D01*
G75*
G02*
X71375000Y-76046000I75000J0D01*
G01*
G37*
G36*
G01*
X71375000Y-75546000D02*
X72700000Y-75546000D01*
G75*
G02*
X72775000Y-75621000I0J-75000D01*
G01*
X72775000Y-75771000D01*
G75*
G02*
X72700000Y-75846000I-75000J0D01*
G01*
X71375000Y-75846000D01*
G75*
G02*
X71300000Y-75771000I0J75000D01*
G01*
X71300000Y-75621000D01*
G75*
G02*
X71375000Y-75546000I75000J0D01*
G01*
G37*
G36*
G01*
X71375000Y-75046000D02*
X72700000Y-75046000D01*
G75*
G02*
X72775000Y-75121000I0J-75000D01*
G01*
X72775000Y-75271000D01*
G75*
G02*
X72700000Y-75346000I-75000J0D01*
G01*
X71375000Y-75346000D01*
G75*
G02*
X71300000Y-75271000I0J75000D01*
G01*
X71300000Y-75121000D01*
G75*
G02*
X71375000Y-75046000I75000J0D01*
G01*
G37*
G36*
G01*
X71375000Y-74546000D02*
X72700000Y-74546000D01*
G75*
G02*
X72775000Y-74621000I0J-75000D01*
G01*
X72775000Y-74771000D01*
G75*
G02*
X72700000Y-74846000I-75000J0D01*
G01*
X71375000Y-74846000D01*
G75*
G02*
X71300000Y-74771000I0J75000D01*
G01*
X71300000Y-74621000D01*
G75*
G02*
X71375000Y-74546000I75000J0D01*
G01*
G37*
G36*
G01*
X71375000Y-74046000D02*
X72700000Y-74046000D01*
G75*
G02*
X72775000Y-74121000I0J-75000D01*
G01*
X72775000Y-74271000D01*
G75*
G02*
X72700000Y-74346000I-75000J0D01*
G01*
X71375000Y-74346000D01*
G75*
G02*
X71300000Y-74271000I0J75000D01*
G01*
X71300000Y-74121000D01*
G75*
G02*
X71375000Y-74046000I75000J0D01*
G01*
G37*
G36*
G01*
X71375000Y-73546000D02*
X72700000Y-73546000D01*
G75*
G02*
X72775000Y-73621000I0J-75000D01*
G01*
X72775000Y-73771000D01*
G75*
G02*
X72700000Y-73846000I-75000J0D01*
G01*
X71375000Y-73846000D01*
G75*
G02*
X71300000Y-73771000I0J75000D01*
G01*
X71300000Y-73621000D01*
G75*
G02*
X71375000Y-73546000I75000J0D01*
G01*
G37*
G36*
G01*
X71375000Y-73046000D02*
X72700000Y-73046000D01*
G75*
G02*
X72775000Y-73121000I0J-75000D01*
G01*
X72775000Y-73271000D01*
G75*
G02*
X72700000Y-73346000I-75000J0D01*
G01*
X71375000Y-73346000D01*
G75*
G02*
X71300000Y-73271000I0J75000D01*
G01*
X71300000Y-73121000D01*
G75*
G02*
X71375000Y-73046000I75000J0D01*
G01*
G37*
G36*
G01*
X73375000Y-71046000D02*
X73525000Y-71046000D01*
G75*
G02*
X73600000Y-71121000I0J-75000D01*
G01*
X73600000Y-72446000D01*
G75*
G02*
X73525000Y-72521000I-75000J0D01*
G01*
X73375000Y-72521000D01*
G75*
G02*
X73300000Y-72446000I0J75000D01*
G01*
X73300000Y-71121000D01*
G75*
G02*
X73375000Y-71046000I75000J0D01*
G01*
G37*
G36*
G01*
X73875000Y-71046000D02*
X74025000Y-71046000D01*
G75*
G02*
X74100000Y-71121000I0J-75000D01*
G01*
X74100000Y-72446000D01*
G75*
G02*
X74025000Y-72521000I-75000J0D01*
G01*
X73875000Y-72521000D01*
G75*
G02*
X73800000Y-72446000I0J75000D01*
G01*
X73800000Y-71121000D01*
G75*
G02*
X73875000Y-71046000I75000J0D01*
G01*
G37*
G36*
G01*
X74375000Y-71046000D02*
X74525000Y-71046000D01*
G75*
G02*
X74600000Y-71121000I0J-75000D01*
G01*
X74600000Y-72446000D01*
G75*
G02*
X74525000Y-72521000I-75000J0D01*
G01*
X74375000Y-72521000D01*
G75*
G02*
X74300000Y-72446000I0J75000D01*
G01*
X74300000Y-71121000D01*
G75*
G02*
X74375000Y-71046000I75000J0D01*
G01*
G37*
G36*
G01*
X74875000Y-71046000D02*
X75025000Y-71046000D01*
G75*
G02*
X75100000Y-71121000I0J-75000D01*
G01*
X75100000Y-72446000D01*
G75*
G02*
X75025000Y-72521000I-75000J0D01*
G01*
X74875000Y-72521000D01*
G75*
G02*
X74800000Y-72446000I0J75000D01*
G01*
X74800000Y-71121000D01*
G75*
G02*
X74875000Y-71046000I75000J0D01*
G01*
G37*
G36*
G01*
X75375000Y-71046000D02*
X75525000Y-71046000D01*
G75*
G02*
X75600000Y-71121000I0J-75000D01*
G01*
X75600000Y-72446000D01*
G75*
G02*
X75525000Y-72521000I-75000J0D01*
G01*
X75375000Y-72521000D01*
G75*
G02*
X75300000Y-72446000I0J75000D01*
G01*
X75300000Y-71121000D01*
G75*
G02*
X75375000Y-71046000I75000J0D01*
G01*
G37*
G36*
G01*
X75875000Y-71046000D02*
X76025000Y-71046000D01*
G75*
G02*
X76100000Y-71121000I0J-75000D01*
G01*
X76100000Y-72446000D01*
G75*
G02*
X76025000Y-72521000I-75000J0D01*
G01*
X75875000Y-72521000D01*
G75*
G02*
X75800000Y-72446000I0J75000D01*
G01*
X75800000Y-71121000D01*
G75*
G02*
X75875000Y-71046000I75000J0D01*
G01*
G37*
G36*
G01*
X76375000Y-71046000D02*
X76525000Y-71046000D01*
G75*
G02*
X76600000Y-71121000I0J-75000D01*
G01*
X76600000Y-72446000D01*
G75*
G02*
X76525000Y-72521000I-75000J0D01*
G01*
X76375000Y-72521000D01*
G75*
G02*
X76300000Y-72446000I0J75000D01*
G01*
X76300000Y-71121000D01*
G75*
G02*
X76375000Y-71046000I75000J0D01*
G01*
G37*
G36*
G01*
X76875000Y-71046000D02*
X77025000Y-71046000D01*
G75*
G02*
X77100000Y-71121000I0J-75000D01*
G01*
X77100000Y-72446000D01*
G75*
G02*
X77025000Y-72521000I-75000J0D01*
G01*
X76875000Y-72521000D01*
G75*
G02*
X76800000Y-72446000I0J75000D01*
G01*
X76800000Y-71121000D01*
G75*
G02*
X76875000Y-71046000I75000J0D01*
G01*
G37*
G36*
G01*
X77375000Y-71046000D02*
X77525000Y-71046000D01*
G75*
G02*
X77600000Y-71121000I0J-75000D01*
G01*
X77600000Y-72446000D01*
G75*
G02*
X77525000Y-72521000I-75000J0D01*
G01*
X77375000Y-72521000D01*
G75*
G02*
X77300000Y-72446000I0J75000D01*
G01*
X77300000Y-71121000D01*
G75*
G02*
X77375000Y-71046000I75000J0D01*
G01*
G37*
G36*
G01*
X77875000Y-71046000D02*
X78025000Y-71046000D01*
G75*
G02*
X78100000Y-71121000I0J-75000D01*
G01*
X78100000Y-72446000D01*
G75*
G02*
X78025000Y-72521000I-75000J0D01*
G01*
X77875000Y-72521000D01*
G75*
G02*
X77800000Y-72446000I0J75000D01*
G01*
X77800000Y-71121000D01*
G75*
G02*
X77875000Y-71046000I75000J0D01*
G01*
G37*
G36*
G01*
X78375000Y-71046000D02*
X78525000Y-71046000D01*
G75*
G02*
X78600000Y-71121000I0J-75000D01*
G01*
X78600000Y-72446000D01*
G75*
G02*
X78525000Y-72521000I-75000J0D01*
G01*
X78375000Y-72521000D01*
G75*
G02*
X78300000Y-72446000I0J75000D01*
G01*
X78300000Y-71121000D01*
G75*
G02*
X78375000Y-71046000I75000J0D01*
G01*
G37*
G36*
G01*
X78875000Y-71046000D02*
X79025000Y-71046000D01*
G75*
G02*
X79100000Y-71121000I0J-75000D01*
G01*
X79100000Y-72446000D01*
G75*
G02*
X79025000Y-72521000I-75000J0D01*
G01*
X78875000Y-72521000D01*
G75*
G02*
X78800000Y-72446000I0J75000D01*
G01*
X78800000Y-71121000D01*
G75*
G02*
X78875000Y-71046000I75000J0D01*
G01*
G37*
%TD*%
%TO.C,SW1*%
G36*
G01*
X76160000Y-93688000D02*
X76160000Y-95288000D01*
G75*
G02*
X75960000Y-95488000I-200000J0D01*
G01*
X75560000Y-95488000D01*
G75*
G02*
X75360000Y-95288000I0J200000D01*
G01*
X75360000Y-93688000D01*
G75*
G02*
X75560000Y-93488000I200000J0D01*
G01*
X75960000Y-93488000D01*
G75*
G02*
X76160000Y-93688000I0J-200000D01*
G01*
G37*
G36*
G01*
X71960000Y-93688000D02*
X71960000Y-95288000D01*
G75*
G02*
X71760000Y-95488000I-200000J0D01*
G01*
X71360000Y-95488000D01*
G75*
G02*
X71160000Y-95288000I0J200000D01*
G01*
X71160000Y-93688000D01*
G75*
G02*
X71360000Y-93488000I200000J0D01*
G01*
X71760000Y-93488000D01*
G75*
G02*
X71960000Y-93688000I0J-200000D01*
G01*
G37*
%TD*%
D15*
%TO.C,RN3*%
X82226000Y-93892000D03*
X81426000Y-93892000D03*
X80626000Y-93892000D03*
X79826000Y-93892000D03*
X82226000Y-95592000D03*
X79826000Y-95592000D03*
X81426000Y-95592000D03*
X80626000Y-95592000D03*
%TD*%
%TO.C,RN1*%
X73844000Y-58332000D03*
X73044000Y-58332000D03*
X72244000Y-58332000D03*
X71444000Y-58332000D03*
X73844000Y-60032000D03*
X71444000Y-60032000D03*
X73044000Y-60032000D03*
X72244000Y-60032000D03*
%TD*%
%TO.C,R6*%
G36*
G01*
X71799000Y-89937000D02*
X71799000Y-89387000D01*
G75*
G02*
X71999000Y-89187000I200000J0D01*
G01*
X72399000Y-89187000D01*
G75*
G02*
X72599000Y-89387000I0J-200000D01*
G01*
X72599000Y-89937000D01*
G75*
G02*
X72399000Y-90137000I-200000J0D01*
G01*
X71999000Y-90137000D01*
G75*
G02*
X71799000Y-89937000I0J200000D01*
G01*
G37*
G36*
G01*
X70149000Y-89937000D02*
X70149000Y-89387000D01*
G75*
G02*
X70349000Y-89187000I200000J0D01*
G01*
X70749000Y-89187000D01*
G75*
G02*
X70949000Y-89387000I0J-200000D01*
G01*
X70949000Y-89937000D01*
G75*
G02*
X70749000Y-90137000I-200000J0D01*
G01*
X70349000Y-90137000D01*
G75*
G02*
X70149000Y-89937000I0J200000D01*
G01*
G37*
%TD*%
%TO.C,R5*%
G36*
G01*
X82721000Y-81682000D02*
X82721000Y-81132000D01*
G75*
G02*
X82921000Y-80932000I200000J0D01*
G01*
X83321000Y-80932000D01*
G75*
G02*
X83521000Y-81132000I0J-200000D01*
G01*
X83521000Y-81682000D01*
G75*
G02*
X83321000Y-81882000I-200000J0D01*
G01*
X82921000Y-81882000D01*
G75*
G02*
X82721000Y-81682000I0J200000D01*
G01*
G37*
G36*
G01*
X81071000Y-81682000D02*
X81071000Y-81132000D01*
G75*
G02*
X81271000Y-80932000I200000J0D01*
G01*
X81671000Y-80932000D01*
G75*
G02*
X81871000Y-81132000I0J-200000D01*
G01*
X81871000Y-81682000D01*
G75*
G02*
X81671000Y-81882000I-200000J0D01*
G01*
X81271000Y-81882000D01*
G75*
G02*
X81071000Y-81682000I0J200000D01*
G01*
G37*
%TD*%
%TO.C,R4*%
G36*
G01*
X74999000Y-91680000D02*
X75369000Y-91680000D01*
G75*
G02*
X75504000Y-91815000I0J-135000D01*
G01*
X75504000Y-92085000D01*
G75*
G02*
X75369000Y-92220000I-135000J0D01*
G01*
X74999000Y-92220000D01*
G75*
G02*
X74864000Y-92085000I0J135000D01*
G01*
X74864000Y-91815000D01*
G75*
G02*
X74999000Y-91680000I135000J0D01*
G01*
G37*
G36*
G01*
X74999000Y-90660000D02*
X75369000Y-90660000D01*
G75*
G02*
X75504000Y-90795000I0J-135000D01*
G01*
X75504000Y-91065000D01*
G75*
G02*
X75369000Y-91200000I-135000J0D01*
G01*
X74999000Y-91200000D01*
G75*
G02*
X74864000Y-91065000I0J135000D01*
G01*
X74864000Y-90795000D01*
G75*
G02*
X74999000Y-90660000I135000J0D01*
G01*
G37*
%TD*%
%TO.C,R3*%
G36*
G01*
X73475000Y-91680000D02*
X73845000Y-91680000D01*
G75*
G02*
X73980000Y-91815000I0J-135000D01*
G01*
X73980000Y-92085000D01*
G75*
G02*
X73845000Y-92220000I-135000J0D01*
G01*
X73475000Y-92220000D01*
G75*
G02*
X73340000Y-92085000I0J135000D01*
G01*
X73340000Y-91815000D01*
G75*
G02*
X73475000Y-91680000I135000J0D01*
G01*
G37*
G36*
G01*
X73475000Y-90660000D02*
X73845000Y-90660000D01*
G75*
G02*
X73980000Y-90795000I0J-135000D01*
G01*
X73980000Y-91065000D01*
G75*
G02*
X73845000Y-91200000I-135000J0D01*
G01*
X73475000Y-91200000D01*
G75*
G02*
X73340000Y-91065000I0J135000D01*
G01*
X73340000Y-90795000D01*
G75*
G02*
X73475000Y-90660000I135000J0D01*
G01*
G37*
%TD*%
D11*
%TO.C,J7*%
X81788000Y-89662000D03*
D12*
X79248000Y-89662000D03*
%TD*%
D11*
%TO.C,J6*%
X81280000Y-67564000D03*
X81280000Y-65024000D03*
X81280000Y-62484000D03*
D12*
X81280000Y-59944000D03*
%TD*%
D11*
%TO.C,J5*%
X81788000Y-87122000D03*
D12*
X79248000Y-87122000D03*
%TD*%
%TO.C,J3*%
G36*
G01*
X72840000Y-52140000D02*
X72840000Y-49460000D01*
G75*
G02*
X73250000Y-49050000I410000J0D01*
G01*
X74070000Y-49050000D01*
G75*
G02*
X74480000Y-49460000I0J-410000D01*
G01*
X74480000Y-52140000D01*
G75*
G02*
X74070000Y-52550000I-410000J0D01*
G01*
X73250000Y-52550000D01*
G75*
G02*
X72840000Y-52140000I0J410000D01*
G01*
G37*
G36*
G01*
X75380000Y-52140000D02*
X75380000Y-49460000D01*
G75*
G02*
X75790000Y-49050000I410000J0D01*
G01*
X76610000Y-49050000D01*
G75*
G02*
X77020000Y-49460000I0J-410000D01*
G01*
X77020000Y-52140000D01*
G75*
G02*
X76610000Y-52550000I-410000J0D01*
G01*
X75790000Y-52550000D01*
G75*
G02*
X75380000Y-52140000I0J410000D01*
G01*
G37*
G36*
G01*
X77920000Y-52140000D02*
X77920000Y-49460000D01*
G75*
G02*
X78330000Y-49050000I410000J0D01*
G01*
X79150000Y-49050000D01*
G75*
G02*
X79560000Y-49460000I0J-410000D01*
G01*
X79560000Y-52140000D01*
G75*
G02*
X79150000Y-52550000I-410000J0D01*
G01*
X78330000Y-52550000D01*
G75*
G02*
X77920000Y-52140000I0J410000D01*
G01*
G37*
G36*
G01*
X80460000Y-52140000D02*
X80460000Y-49460000D01*
G75*
G02*
X80870000Y-49050000I410000J0D01*
G01*
X81690000Y-49050000D01*
G75*
G02*
X82100000Y-49460000I0J-410000D01*
G01*
X82100000Y-52140000D01*
G75*
G02*
X81690000Y-52550000I-410000J0D01*
G01*
X80870000Y-52550000D01*
G75*
G02*
X80460000Y-52140000I0J410000D01*
G01*
G37*
G36*
G01*
X70300000Y-52140000D02*
X70300000Y-49460000D01*
G75*
G02*
X70710000Y-49050000I410000J0D01*
G01*
X71530000Y-49050000D01*
G75*
G02*
X71940000Y-49460000I0J-410000D01*
G01*
X71940000Y-52140000D01*
G75*
G02*
X71530000Y-52550000I-410000J0D01*
G01*
X70710000Y-52550000D01*
G75*
G02*
X70300000Y-52140000I0J410000D01*
G01*
G37*
%TD*%
D16*
%TO.C,J2*%
X79400000Y-99090000D03*
X78600000Y-99090000D03*
X79400000Y-99090000D03*
X78600000Y-99090000D03*
X73000000Y-99090000D03*
X73000000Y-99090000D03*
X73800000Y-99090000D03*
X73800000Y-99090000D03*
D17*
X73310000Y-100150000D03*
X79090000Y-100150000D03*
D18*
X77950000Y-99090000D03*
X76950000Y-99090000D03*
X77450000Y-99090000D03*
X74950000Y-99090000D03*
X74450000Y-99090000D03*
X76450000Y-99090000D03*
X75950000Y-99090000D03*
X75450000Y-99090000D03*
D19*
X80520000Y-103840000D03*
X71880000Y-103840000D03*
D20*
X80520000Y-99670000D03*
X71880000Y-99670000D03*
%TD*%
%TO.C,D3*%
G36*
G01*
X70355750Y-71089000D02*
X70868250Y-71089000D01*
G75*
G02*
X71087000Y-71307750I0J-218750D01*
G01*
X71087000Y-71745250D01*
G75*
G02*
X70868250Y-71964000I-218750J0D01*
G01*
X70355750Y-71964000D01*
G75*
G02*
X70137000Y-71745250I0J218750D01*
G01*
X70137000Y-71307750D01*
G75*
G02*
X70355750Y-71089000I218750J0D01*
G01*
G37*
G36*
G01*
X70355750Y-69514000D02*
X70868250Y-69514000D01*
G75*
G02*
X71087000Y-69732750I0J-218750D01*
G01*
X71087000Y-70170250D01*
G75*
G02*
X70868250Y-70389000I-218750J0D01*
G01*
X70355750Y-70389000D01*
G75*
G02*
X70137000Y-70170250I0J218750D01*
G01*
X70137000Y-69732750D01*
G75*
G02*
X70355750Y-69514000I218750J0D01*
G01*
G37*
%TD*%
%TO.C,D2*%
G36*
G01*
X82044250Y-70389000D02*
X81531750Y-70389000D01*
G75*
G02*
X81313000Y-70170250I0J218750D01*
G01*
X81313000Y-69732750D01*
G75*
G02*
X81531750Y-69514000I218750J0D01*
G01*
X82044250Y-69514000D01*
G75*
G02*
X82263000Y-69732750I0J-218750D01*
G01*
X82263000Y-70170250D01*
G75*
G02*
X82044250Y-70389000I-218750J0D01*
G01*
G37*
G36*
G01*
X82044250Y-71964000D02*
X81531750Y-71964000D01*
G75*
G02*
X81313000Y-71745250I0J218750D01*
G01*
X81313000Y-71307750D01*
G75*
G02*
X81531750Y-71089000I218750J0D01*
G01*
X82044250Y-71089000D01*
G75*
G02*
X82263000Y-71307750I0J-218750D01*
G01*
X82263000Y-71745250D01*
G75*
G02*
X82044250Y-71964000I-218750J0D01*
G01*
G37*
%TD*%
%TO.C,D1*%
G36*
G01*
X71724000Y-87632250D02*
X71724000Y-87119750D01*
G75*
G02*
X71942750Y-86901000I218750J0D01*
G01*
X72380250Y-86901000D01*
G75*
G02*
X72599000Y-87119750I0J-218750D01*
G01*
X72599000Y-87632250D01*
G75*
G02*
X72380250Y-87851000I-218750J0D01*
G01*
X71942750Y-87851000D01*
G75*
G02*
X71724000Y-87632250I0J218750D01*
G01*
G37*
G36*
G01*
X70149000Y-87632250D02*
X70149000Y-87119750D01*
G75*
G02*
X70367750Y-86901000I218750J0D01*
G01*
X70805250Y-86901000D01*
G75*
G02*
X71024000Y-87119750I0J-218750D01*
G01*
X71024000Y-87632250D01*
G75*
G02*
X70805250Y-87851000I-218750J0D01*
G01*
X70367750Y-87851000D01*
G75*
G02*
X70149000Y-87632250I0J218750D01*
G01*
G37*
%TD*%
%TO.C,C7*%
G36*
G01*
X81209000Y-96778000D02*
X81209000Y-97278000D01*
G75*
G02*
X80984000Y-97503000I-225000J0D01*
G01*
X80534000Y-97503000D01*
G75*
G02*
X80309000Y-97278000I0J225000D01*
G01*
X80309000Y-96778000D01*
G75*
G02*
X80534000Y-96553000I225000J0D01*
G01*
X80984000Y-96553000D01*
G75*
G02*
X81209000Y-96778000I0J-225000D01*
G01*
G37*
G36*
G01*
X82759000Y-96778000D02*
X82759000Y-97278000D01*
G75*
G02*
X82534000Y-97503000I-225000J0D01*
G01*
X82084000Y-97503000D01*
G75*
G02*
X81859000Y-97278000I0J225000D01*
G01*
X81859000Y-96778000D01*
G75*
G02*
X82084000Y-96553000I225000J0D01*
G01*
X82534000Y-96553000D01*
G75*
G02*
X82759000Y-96778000I0J-225000D01*
G01*
G37*
%TD*%
%TO.C,C6*%
G36*
G01*
X76204000Y-64346000D02*
X76704000Y-64346000D01*
G75*
G02*
X76929000Y-64571000I0J-225000D01*
G01*
X76929000Y-65021000D01*
G75*
G02*
X76704000Y-65246000I-225000J0D01*
G01*
X76204000Y-65246000D01*
G75*
G02*
X75979000Y-65021000I0J225000D01*
G01*
X75979000Y-64571000D01*
G75*
G02*
X76204000Y-64346000I225000J0D01*
G01*
G37*
G36*
G01*
X76204000Y-62796000D02*
X76704000Y-62796000D01*
G75*
G02*
X76929000Y-63021000I0J-225000D01*
G01*
X76929000Y-63471000D01*
G75*
G02*
X76704000Y-63696000I-225000J0D01*
G01*
X76204000Y-63696000D01*
G75*
G02*
X75979000Y-63471000I0J225000D01*
G01*
X75979000Y-63021000D01*
G75*
G02*
X76204000Y-62796000I225000J0D01*
G01*
G37*
%TD*%
%TO.C,C5*%
G36*
G01*
X76704000Y-66731000D02*
X76204000Y-66731000D01*
G75*
G02*
X75979000Y-66506000I0J225000D01*
G01*
X75979000Y-66056000D01*
G75*
G02*
X76204000Y-65831000I225000J0D01*
G01*
X76704000Y-65831000D01*
G75*
G02*
X76929000Y-66056000I0J-225000D01*
G01*
X76929000Y-66506000D01*
G75*
G02*
X76704000Y-66731000I-225000J0D01*
G01*
G37*
G36*
G01*
X76704000Y-68281000D02*
X76204000Y-68281000D01*
G75*
G02*
X75979000Y-68056000I0J225000D01*
G01*
X75979000Y-67606000D01*
G75*
G02*
X76204000Y-67381000I225000J0D01*
G01*
X76704000Y-67381000D01*
G75*
G02*
X76929000Y-67606000I0J-225000D01*
G01*
X76929000Y-68056000D01*
G75*
G02*
X76704000Y-68281000I-225000J0D01*
G01*
G37*
%TD*%
%TO.C,C4*%
G36*
G01*
X71445000Y-68068000D02*
X71445000Y-67568000D01*
G75*
G02*
X71670000Y-67343000I225000J0D01*
G01*
X72120000Y-67343000D01*
G75*
G02*
X72345000Y-67568000I0J-225000D01*
G01*
X72345000Y-68068000D01*
G75*
G02*
X72120000Y-68293000I-225000J0D01*
G01*
X71670000Y-68293000D01*
G75*
G02*
X71445000Y-68068000I0J225000D01*
G01*
G37*
G36*
G01*
X69895000Y-68068000D02*
X69895000Y-67568000D01*
G75*
G02*
X70120000Y-67343000I225000J0D01*
G01*
X70570000Y-67343000D01*
G75*
G02*
X70795000Y-67568000I0J-225000D01*
G01*
X70795000Y-68068000D01*
G75*
G02*
X70570000Y-68293000I-225000J0D01*
G01*
X70120000Y-68293000D01*
G75*
G02*
X69895000Y-68068000I0J225000D01*
G01*
G37*
%TD*%
%TO.C,C3*%
G36*
G01*
X73843000Y-67568000D02*
X73843000Y-68068000D01*
G75*
G02*
X73618000Y-68293000I-225000J0D01*
G01*
X73168000Y-68293000D01*
G75*
G02*
X72943000Y-68068000I0J225000D01*
G01*
X72943000Y-67568000D01*
G75*
G02*
X73168000Y-67343000I225000J0D01*
G01*
X73618000Y-67343000D01*
G75*
G02*
X73843000Y-67568000I0J-225000D01*
G01*
G37*
G36*
G01*
X75393000Y-67568000D02*
X75393000Y-68068000D01*
G75*
G02*
X75168000Y-68293000I-225000J0D01*
G01*
X74718000Y-68293000D01*
G75*
G02*
X74493000Y-68068000I0J225000D01*
G01*
X74493000Y-67568000D01*
G75*
G02*
X74718000Y-67343000I225000J0D01*
G01*
X75168000Y-67343000D01*
G75*
G02*
X75393000Y-67568000I0J-225000D01*
G01*
G37*
%TD*%
M02*
