%TF.GenerationSoftware,KiCad,Pcbnew,(5.1.12)-1*%
%TF.CreationDate,2021-12-13T23:08:50+08:00*%
%TF.ProjectId,PCB_EK-Link_Lite_Dev,5043425f-454b-42d4-9c69-6e6b5f4c6974,rev?*%
%TF.SameCoordinates,Original*%
%TF.FileFunction,Legend,Bot*%
%TF.FilePolarity,Positive*%
%FSLAX46Y46*%
G04 Gerber Fmt 4.6, Leading zero omitted, Abs format (unit mm)*
G04 Created by KiCad (PCBNEW (5.1.12)-1) date 2021-12-13 23:08:50*
%MOMM*%
%LPD*%
G01*
G04 APERTURE LIST*
%ADD10C,0.100000*%
%ADD11C,0.120000*%
%ADD12C,0.150000*%
G04 APERTURE END LIST*
D10*
G36*
X69977000Y-82042000D02*
G01*
X69723000Y-82042000D01*
X69723000Y-81153000D01*
X69977000Y-81153000D01*
X69977000Y-82042000D01*
G37*
X69977000Y-82042000D02*
X69723000Y-82042000D01*
X69723000Y-81153000D01*
X69977000Y-81153000D01*
X69977000Y-82042000D01*
G36*
X70612000Y-82042000D02*
G01*
X70231000Y-82042000D01*
X70231000Y-81153000D01*
X70612000Y-81153000D01*
X70612000Y-82042000D01*
G37*
X70612000Y-82042000D02*
X70231000Y-82042000D01*
X70231000Y-81153000D01*
X70612000Y-81153000D01*
X70612000Y-82042000D01*
%TO.C,svg2mod*%
G36*
X69210237Y-62534006D02*
G01*
X69261037Y-62473681D01*
X69319775Y-62501462D01*
X69342000Y-62580837D01*
X69299931Y-62683231D01*
X69210237Y-62734031D01*
X69210237Y-62534006D01*
G37*
G36*
X70478518Y-65054956D02*
G01*
X69891672Y-64995425D01*
X69902388Y-64913669D01*
X69887703Y-64825166D01*
X69843650Y-64781906D01*
X69761100Y-64773969D01*
X69923025Y-64107219D01*
X69955172Y-64065150D01*
X69965888Y-63983394D01*
X69955172Y-63903225D01*
X69923025Y-63862744D01*
X69880956Y-63847663D01*
X69826188Y-63845281D01*
X69771419Y-63847663D01*
X69730144Y-63861950D01*
X69697600Y-63904019D01*
X69688075Y-63984188D01*
X69697600Y-64064356D01*
X69730938Y-64106425D01*
X69773006Y-64120713D01*
X69827775Y-64123094D01*
X69882544Y-64120713D01*
X69923025Y-64107219D01*
X69761100Y-64773969D01*
X68973700Y-64773969D01*
X69435663Y-64123094D01*
X69490431Y-64120713D01*
X69532500Y-64107219D01*
X69563456Y-64065150D01*
X69573775Y-63983394D01*
X69546788Y-63875444D01*
X69478525Y-63846869D01*
X69432488Y-63845281D01*
X69322950Y-63734950D01*
X69415025Y-63757969D01*
X69509481Y-63750031D01*
X69551550Y-63727806D01*
X69572188Y-63664306D01*
X69565838Y-63611919D01*
X69729350Y-63611919D01*
X69783325Y-63609537D01*
X69821425Y-63594456D01*
X69851191Y-63553578D01*
X69861113Y-63472219D01*
X69846428Y-63386097D01*
X69802375Y-63343631D01*
X69721413Y-63335694D01*
X69565838Y-63335694D01*
X69572188Y-63230125D01*
X69569806Y-63176150D01*
X69554725Y-63134081D01*
X69513847Y-63103125D01*
X69432488Y-63092806D01*
X69351922Y-63103522D01*
X69310250Y-63135669D01*
X69296756Y-63177737D01*
X69294375Y-63232506D01*
X69300725Y-63335694D01*
X69081650Y-63335694D01*
X69019737Y-63322200D01*
X69000687Y-63271400D01*
X68998306Y-63214250D01*
X68983225Y-63172181D01*
X68954826Y-62984856D01*
X69050606Y-63018194D01*
X69153087Y-63029306D01*
X69277530Y-63014931D01*
X69384157Y-62971803D01*
X69472969Y-62899925D01*
X69539556Y-62806527D01*
X69579508Y-62698842D01*
X69592825Y-62576869D01*
X69583102Y-62473880D01*
X69553931Y-62385575D01*
X69505314Y-62311955D01*
X69437250Y-62253019D01*
X69350930Y-62212537D01*
X69257069Y-62199044D01*
X69172137Y-62211148D01*
X69112606Y-62247462D01*
X69065775Y-62354619D01*
X69065775Y-62730856D01*
X68991162Y-62678469D01*
X68961000Y-62573694D01*
X68965762Y-62491541D01*
X68980050Y-62429231D01*
X68986400Y-62411769D01*
X69003862Y-62348269D01*
X68932425Y-62260956D01*
X68859400Y-62240319D01*
X68797587Y-62261452D01*
X68753434Y-62324853D01*
X68726943Y-62430521D01*
X68718112Y-62578456D01*
X68728233Y-62689383D01*
X68758594Y-62787212D01*
X68805623Y-62868373D01*
X68865750Y-62929294D01*
X68954826Y-62984856D01*
X68983225Y-63172181D01*
X68876862Y-63135669D01*
X68796297Y-63146781D01*
X68754625Y-63180119D01*
X68741131Y-63222187D01*
X68738750Y-63275369D01*
X68747040Y-63376616D01*
X68771911Y-63460224D01*
X68813362Y-63526194D01*
X68874569Y-63573819D01*
X68958707Y-63602394D01*
X69065775Y-63611919D01*
X69300725Y-63611919D01*
X69295962Y-63677006D01*
X69322950Y-63734950D01*
X69432488Y-63845281D01*
X68876862Y-63845281D01*
X68822094Y-63847663D01*
X68780025Y-63862744D01*
X68749069Y-63903622D01*
X68738750Y-63984981D01*
X68749466Y-64065547D01*
X68781612Y-64107219D01*
X68822887Y-64120713D01*
X68878450Y-64123094D01*
X69435663Y-64123094D01*
X68973700Y-64773969D01*
X68973700Y-64342169D01*
X68961794Y-64265969D01*
X68924487Y-64234219D01*
X68857019Y-64226281D01*
X68789550Y-64234219D01*
X68754625Y-64261206D01*
X68738750Y-64343756D01*
X68738750Y-64915256D01*
X68753831Y-65003363D01*
X68799075Y-65045431D01*
X68880037Y-65054956D01*
X69762688Y-65054956D01*
X69817456Y-65052575D01*
X69859525Y-65037494D01*
X69891672Y-64995425D01*
X70478518Y-65054956D01*
X70478518Y-65567586D01*
X70478518Y-66325265D01*
X69342000Y-65567586D01*
X68205482Y-66325265D01*
X68205482Y-65567586D01*
X68205482Y-65054956D01*
X68205482Y-62199044D01*
X68205482Y-61686414D01*
X69342000Y-60928735D01*
X70478518Y-61686414D01*
X70478518Y-62199044D01*
X70478518Y-65054956D01*
G37*
G36*
X72075543Y-74111525D02*
G01*
X71562913Y-74111525D01*
X71562913Y-73251100D01*
X69365812Y-73251100D01*
X69365812Y-72533550D01*
X68645087Y-72355750D01*
X71562913Y-72355750D01*
X71562913Y-71520725D01*
X68645087Y-71520725D01*
X68645087Y-72355750D01*
X69365812Y-72533550D01*
X68645087Y-72533550D01*
X68645087Y-74111525D01*
X71562913Y-74111525D01*
X72075543Y-74111525D01*
X72075543Y-74624155D01*
X72075543Y-75807081D01*
X68132457Y-74624155D01*
X68645087Y-70669825D01*
X68645087Y-71428650D01*
X71562913Y-71428650D01*
X71562913Y-70574575D01*
X70486588Y-70104675D01*
X71562913Y-70104675D01*
X71562913Y-69323625D01*
X68645087Y-69323625D01*
X68645087Y-70218975D01*
X69743637Y-70669825D01*
X68645087Y-70669825D01*
X68132457Y-74624155D01*
X68132457Y-74111525D01*
X68645087Y-68361600D01*
X68645087Y-69152175D01*
X71562913Y-69152175D01*
X71562913Y-68358425D01*
X70864413Y-68358425D01*
X71562913Y-68018700D01*
X71562913Y-67069375D01*
X70194488Y-67805975D01*
X68645087Y-66945550D01*
X68645087Y-67882175D01*
X69508687Y-68361600D01*
X68645087Y-68361600D01*
X68132457Y-74111525D01*
X68132457Y-66945550D01*
X68132457Y-66432919D01*
X72075543Y-66432919D01*
X72075543Y-66945550D01*
X72075543Y-74111525D01*
G37*
G36*
X70519925Y-75726925D02*
G01*
X69688075Y-75726925D01*
X69688075Y-77181075D01*
X70519925Y-77181075D01*
X70519925Y-75726925D01*
G37*
G36*
X72075543Y-82930325D02*
G01*
X71562913Y-82930325D01*
X71562913Y-81241225D01*
X70810438Y-81241225D01*
X70810438Y-82133400D01*
X70499288Y-82133400D01*
X70499288Y-81241225D01*
X69749987Y-81241225D01*
X69749987Y-82136575D01*
X69378512Y-82136575D01*
X69378512Y-81241225D01*
X68645087Y-80987225D01*
X71562913Y-80987225D01*
X71562913Y-80193475D01*
X70864413Y-80193475D01*
X71562913Y-79853750D01*
X71562913Y-78904425D01*
X70194488Y-79641025D01*
X68645087Y-78780600D01*
X68645087Y-79717225D01*
X69508687Y-80196650D01*
X68645087Y-80196650D01*
X68645087Y-80987225D01*
X69378512Y-81241225D01*
X68645087Y-81241225D01*
X68645087Y-82930325D01*
X71562913Y-82930325D01*
X72075543Y-82930325D01*
X72075543Y-83442956D01*
X68132457Y-83442956D01*
X68132457Y-82930325D01*
X68132457Y-78780600D01*
X68132457Y-78267970D01*
X68132457Y-77085044D01*
X72075543Y-78267970D01*
X72075543Y-78780600D01*
X72075543Y-82930325D01*
G37*
G36*
X81298256Y-55991125D02*
G01*
X81298256Y-55787925D01*
X81333181Y-55695850D01*
X81437956Y-55649813D01*
X81543525Y-55695850D01*
X81579244Y-55791100D01*
X81579244Y-55991125D01*
X81298256Y-55991125D01*
G37*
G36*
X82391911Y-57472263D02*
G01*
X81861819Y-57356375D01*
X81861819Y-56473725D01*
X81849913Y-56399113D01*
X81812606Y-56367363D01*
X81745931Y-56359425D01*
X81680050Y-56367363D01*
X81645919Y-56394350D01*
X81631631Y-56475313D01*
X81631631Y-56778525D01*
X80833119Y-56778525D01*
X80779144Y-56780906D01*
X80738662Y-56795194D01*
X80706119Y-56837263D01*
X80696594Y-56916638D01*
X80706119Y-56995219D01*
X80738662Y-57036494D01*
X80779938Y-57050781D01*
X80834706Y-57053163D01*
X81631631Y-57053163D01*
X81631631Y-57357963D01*
X81643538Y-57432575D01*
X81680844Y-57464325D01*
X81747519Y-57472263D01*
X81813400Y-57464325D01*
X81847531Y-57437338D01*
X81861819Y-57356375D01*
X82391911Y-57472263D01*
X82391911Y-57984893D01*
X80168089Y-57984893D01*
X80778438Y-55638876D01*
X80874217Y-55680151D01*
X81020444Y-55741888D01*
X81017269Y-55791100D01*
X81017269Y-55991125D01*
X80837881Y-55991125D01*
X80783112Y-55993506D01*
X80741044Y-56008588D01*
X80708897Y-56050656D01*
X80698181Y-56132413D01*
X80712866Y-56220519D01*
X80756919Y-56262588D01*
X80839469Y-56272113D01*
X81720531Y-56272113D01*
X81775300Y-56269731D01*
X81817369Y-56254650D01*
X81849516Y-56212581D01*
X81860231Y-56130825D01*
X81860231Y-55787925D01*
X81848942Y-55695674D01*
X81815076Y-55605186D01*
X81758631Y-55516463D01*
X81700688Y-55458519D01*
X81625281Y-55411688D01*
X81536381Y-55380731D01*
X81437956Y-55370412D01*
X81325420Y-55383642D01*
X81226995Y-55423329D01*
X81142681Y-55489475D01*
X81077594Y-55461958D01*
X80994515Y-55425975D01*
X80893444Y-55381525D01*
X80860106Y-55252937D01*
X80951387Y-55294212D01*
X80998417Y-55277147D01*
X81058544Y-55225950D01*
X81096644Y-55141812D01*
X81076800Y-55088631D01*
X81017269Y-55017987D01*
X80965675Y-54954487D01*
X80941069Y-54878287D01*
X80954474Y-54796267D01*
X80994691Y-54747054D01*
X81061719Y-54730650D01*
X81122837Y-54771131D01*
X81158556Y-54871938D01*
X81173042Y-54934644D01*
X81194275Y-55002112D01*
X81221064Y-55069581D01*
X81252219Y-55132287D01*
X81295280Y-55187652D01*
X81357788Y-55233094D01*
X81437361Y-55263455D01*
X81531619Y-55273575D01*
X81620783Y-55262022D01*
X81702010Y-55227361D01*
X81775300Y-55169594D01*
X81833067Y-55091894D01*
X81867728Y-54997438D01*
X81879281Y-54886225D01*
X81873130Y-54795142D01*
X81854675Y-54712394D01*
X81804669Y-54603650D01*
X81774506Y-54563962D01*
X81696719Y-54514750D01*
X81609406Y-54552850D01*
X81549875Y-54607619D01*
X81530031Y-54663975D01*
X81561781Y-54746525D01*
X81577656Y-54764781D01*
X81598294Y-54789387D01*
X81618931Y-54874319D01*
X81594325Y-54960044D01*
X81526063Y-54994175D01*
X81455419Y-54953694D01*
X81418906Y-54852887D01*
X81406802Y-54789784D01*
X81389538Y-54721125D01*
X81367511Y-54652466D01*
X81341119Y-54589362D01*
X81302027Y-54533998D01*
X81241900Y-54488556D01*
X81163120Y-54458195D01*
X81068069Y-54448075D01*
X80971033Y-54458394D01*
X80886300Y-54489350D01*
X80816648Y-54536975D01*
X80764856Y-54597300D01*
X80718113Y-54684965D01*
X80690067Y-54776511D01*
X80680719Y-54871938D01*
X80685283Y-54944566D01*
X80698975Y-55013225D01*
X80744219Y-55121175D01*
X80794225Y-55192612D01*
X80842644Y-55238650D01*
X80860106Y-55252937D01*
X80893444Y-55381525D01*
X80810894Y-55357712D01*
X80755331Y-55382319D01*
X80709294Y-55456138D01*
X80687069Y-55537894D01*
X80702150Y-55588694D01*
X80733106Y-55618063D01*
X80778438Y-55638876D01*
X80168089Y-57984893D01*
X80168089Y-57472263D01*
X80168089Y-53271737D01*
X81631631Y-53690837D01*
X80833119Y-53690837D01*
X80779144Y-53693219D01*
X80738662Y-53707506D01*
X80706119Y-53749575D01*
X80696594Y-53828950D01*
X80706119Y-53907531D01*
X80738662Y-53948806D01*
X80779938Y-53963094D01*
X80834706Y-53965475D01*
X81631631Y-53965475D01*
X81631631Y-54270275D01*
X81643538Y-54344887D01*
X81680844Y-54376637D01*
X81747519Y-54384575D01*
X81813400Y-54376637D01*
X81847531Y-54349650D01*
X81861819Y-54268687D01*
X81861819Y-53386037D01*
X81849913Y-53311425D01*
X81812606Y-53279675D01*
X81745931Y-53271737D01*
X81680050Y-53279675D01*
X81645919Y-53306662D01*
X81631631Y-53387625D01*
X81631631Y-53690837D01*
X80168089Y-53271737D01*
X80168089Y-52759107D01*
X82391911Y-52759107D01*
X82391911Y-53271737D01*
X82391911Y-57472263D01*
G37*
G36*
X79851911Y-57444437D02*
G01*
X79321819Y-57328550D01*
X79321819Y-56445900D01*
X79309913Y-56371287D01*
X79272606Y-56339537D01*
X79205931Y-56331600D01*
X79140050Y-56339537D01*
X78299469Y-56244287D01*
X79180531Y-56244287D01*
X79235300Y-56241906D01*
X79277369Y-56226825D01*
X79308325Y-56183962D01*
X79318644Y-56103000D01*
X79308325Y-56029181D01*
X79286894Y-55988700D01*
X79277369Y-55979175D01*
X78804294Y-55618812D01*
X78937453Y-55518038D01*
X79051182Y-55431614D01*
X79145479Y-55359542D01*
X79220346Y-55301820D01*
X79275781Y-55258450D01*
X79307928Y-55213007D01*
X79318644Y-55130656D01*
X79307928Y-55049495D01*
X79275781Y-55007625D01*
X79232919Y-54992543D01*
X79177356Y-54990162D01*
X78296294Y-54990162D01*
X78320106Y-54845700D01*
X78411387Y-54886975D01*
X78458417Y-54869909D01*
X78518544Y-54818712D01*
X78556644Y-54734575D01*
X78536800Y-54681393D01*
X78477269Y-54610750D01*
X78425675Y-54547250D01*
X78401069Y-54471050D01*
X78414474Y-54389029D01*
X78454691Y-54339816D01*
X78521719Y-54323412D01*
X78582837Y-54363893D01*
X78618556Y-54464700D01*
X78633042Y-54527406D01*
X78654275Y-54594875D01*
X78681064Y-54662343D01*
X78712219Y-54725050D01*
X78755280Y-54780414D01*
X78817788Y-54825856D01*
X78897361Y-54856217D01*
X78991619Y-54866337D01*
X79080783Y-54854784D01*
X79162010Y-54820123D01*
X79235300Y-54762356D01*
X79293067Y-54684657D01*
X79327728Y-54590200D01*
X79339281Y-54478987D01*
X79333130Y-54387904D01*
X79314675Y-54305156D01*
X79264669Y-54196412D01*
X79234506Y-54156725D01*
X79156719Y-54107512D01*
X79069406Y-54145612D01*
X79009875Y-54200381D01*
X78990031Y-54256737D01*
X79021781Y-54339287D01*
X79037656Y-54357543D01*
X79058294Y-54382150D01*
X79078931Y-54467081D01*
X79054325Y-54552806D01*
X78986063Y-54586937D01*
X78915419Y-54546456D01*
X78878906Y-54445650D01*
X78866802Y-54382547D01*
X78849538Y-54313887D01*
X78827511Y-54245228D01*
X78801119Y-54182125D01*
X78762027Y-54126761D01*
X78701900Y-54081318D01*
X78623120Y-54050957D01*
X78528069Y-54040837D01*
X78431033Y-54051156D01*
X78346300Y-54082112D01*
X78276648Y-54129737D01*
X78224856Y-54190062D01*
X78178113Y-54277727D01*
X78150067Y-54369273D01*
X78140719Y-54464700D01*
X78145283Y-54537328D01*
X78158975Y-54605987D01*
X78204219Y-54713937D01*
X78254225Y-54785375D01*
X78302644Y-54831412D01*
X78320106Y-54845700D01*
X78296294Y-54990162D01*
X78209378Y-55005243D01*
X78167706Y-55050487D01*
X78158181Y-55126687D01*
X78166119Y-55199712D01*
X78185169Y-55240987D01*
X78216919Y-55263212D01*
X78299469Y-55271150D01*
X78831281Y-55271150D01*
X78767583Y-55319965D01*
X78674912Y-55387037D01*
X78587798Y-55449347D01*
X78540769Y-55483875D01*
X78503462Y-55512450D01*
X78474887Y-55551343D01*
X78456631Y-55618018D01*
X78473300Y-55683106D01*
X78505844Y-55725175D01*
X78523306Y-55737875D01*
X78585417Y-55785103D01*
X78692375Y-55863287D01*
X78791792Y-55935518D01*
X78831281Y-55964887D01*
X78296294Y-55964887D01*
X78241525Y-55967268D01*
X78201044Y-55982350D01*
X78168897Y-56025212D01*
X78158181Y-56106175D01*
X78168897Y-56184756D01*
X78201044Y-56226825D01*
X78242319Y-56241906D01*
X78299469Y-56244287D01*
X79140050Y-56339537D01*
X79105919Y-56366525D01*
X79091631Y-56447487D01*
X79091631Y-56750700D01*
X78293119Y-56750700D01*
X78239144Y-56753081D01*
X78198662Y-56767368D01*
X78166119Y-56809437D01*
X78156594Y-56888812D01*
X78166119Y-56967393D01*
X78198662Y-57008668D01*
X78239938Y-57022956D01*
X78294706Y-57025337D01*
X79091631Y-57025337D01*
X79091631Y-57330137D01*
X79103538Y-57404750D01*
X79140844Y-57436500D01*
X79207519Y-57444437D01*
X79273400Y-57436500D01*
X79307531Y-57409512D01*
X79321819Y-57328550D01*
X79851911Y-57444437D01*
X79851911Y-57957067D01*
X77628089Y-57957067D01*
X77628089Y-57444437D01*
X77628089Y-54040837D01*
X77628089Y-53528207D01*
X78740000Y-52786933D01*
X79851911Y-53528207D01*
X79851911Y-54040837D01*
X79851911Y-57444437D01*
G37*
G36*
X76493688Y-54630064D02*
G01*
X76493688Y-54782464D01*
X75893612Y-54782464D01*
X75893612Y-54628477D01*
X75914845Y-54519733D01*
X75978544Y-54422102D01*
X76074389Y-54353045D01*
X76192062Y-54330027D01*
X76310133Y-54352450D01*
X76407169Y-54419720D01*
X76472058Y-54517153D01*
X76493688Y-54630064D01*
G37*
G36*
X77317468Y-57439939D02*
G01*
X76776263Y-57324052D01*
X76776263Y-56441402D01*
X76764356Y-56366789D01*
X76727050Y-56335039D01*
X76660375Y-56327102D01*
X76594494Y-56335039D01*
X76560363Y-56362027D01*
X76546075Y-56442989D01*
X76546075Y-56746202D01*
X75747562Y-56746202D01*
X75693587Y-56748583D01*
X75653106Y-56762870D01*
X75620562Y-56804939D01*
X75611037Y-56884314D01*
X75620562Y-56962895D01*
X75653106Y-57004170D01*
X75694381Y-57018458D01*
X75749150Y-57020839D01*
X76546075Y-57020839D01*
X76546075Y-57325639D01*
X76557981Y-57400252D01*
X76595288Y-57432002D01*
X76661963Y-57439939D01*
X76727844Y-57432002D01*
X76761975Y-57405014D01*
X76776263Y-57324052D01*
X77317468Y-57439939D01*
X77317468Y-57952569D01*
X75082532Y-57952569D01*
X75849162Y-56223914D01*
X76200000Y-55904827D01*
X76550838Y-56223914D01*
X76650850Y-56279477D01*
X76748481Y-56217564D01*
X76804838Y-56113583D01*
X76741338Y-56015952D01*
X76395263Y-55714327D01*
X76741338Y-55412702D01*
X76804838Y-55315070D01*
X76749275Y-55212677D01*
X76650850Y-55150764D01*
X76550838Y-55204739D01*
X76200000Y-55523827D01*
X75849162Y-55204739D01*
X75747562Y-55150764D01*
X75650725Y-55211883D01*
X75595162Y-55315070D01*
X75658662Y-55412702D01*
X76004737Y-55714327D01*
X75658662Y-56015952D01*
X75595162Y-56113583D01*
X75651519Y-56216770D01*
X75747562Y-56279477D01*
X75849162Y-56223914D01*
X75082532Y-57952569D01*
X75082532Y-57439939D01*
X75082532Y-54049039D01*
X75709959Y-54309538D01*
X75655884Y-54408410D01*
X75623440Y-54516310D01*
X75612625Y-54633239D01*
X75612625Y-54923752D01*
X75622547Y-55002333D01*
X75652312Y-55044402D01*
X75753912Y-55063452D01*
X76636563Y-55063452D01*
X76692125Y-55061070D01*
X76733400Y-55045989D01*
X76765547Y-55003920D01*
X76776263Y-54922164D01*
X76774675Y-54628477D01*
X76764307Y-54516856D01*
X76733202Y-54412180D01*
X76681360Y-54314449D01*
X76608781Y-54223664D01*
X76521072Y-54147266D01*
X76423838Y-54092695D01*
X76317078Y-54059953D01*
X76200794Y-54049039D01*
X76084063Y-54059705D01*
X75975964Y-54091703D01*
X75876497Y-54145033D01*
X75785662Y-54219695D01*
X75709959Y-54309538D01*
X75082532Y-54049039D01*
X75082532Y-53536409D01*
X76200000Y-52791431D01*
X77317468Y-53536409D01*
X77317468Y-54049039D01*
X77317468Y-57439939D01*
G37*
G36*
X73672700Y-57059733D02*
G01*
X73672700Y-56856533D01*
X73707625Y-56764458D01*
X73812400Y-56718420D01*
X73917969Y-56764458D01*
X73953688Y-56859708D01*
X73953688Y-57059733D01*
X73672700Y-57059733D01*
G37*
G36*
X73953688Y-54729283D02*
G01*
X73953688Y-54881683D01*
X73353612Y-54881683D01*
X73353612Y-54727695D01*
X73374845Y-54618952D01*
X73438544Y-54521320D01*
X73534389Y-54452264D01*
X73652062Y-54429245D01*
X73770133Y-54451669D01*
X73867169Y-54518939D01*
X73932058Y-54616372D01*
X73953688Y-54729283D01*
G37*
G36*
X74777468Y-57340720D02*
G01*
X74234675Y-57199433D01*
X74234675Y-56856533D01*
X74223386Y-56764282D01*
X74189519Y-56673794D01*
X74133075Y-56585070D01*
X74075131Y-56527127D01*
X73999725Y-56480295D01*
X73910825Y-56449339D01*
X73812400Y-56439020D01*
X73699864Y-56452250D01*
X73601439Y-56491937D01*
X73517125Y-56558083D01*
X73452037Y-56530566D01*
X73368958Y-56494583D01*
X73267887Y-56450133D01*
X73309162Y-56323133D01*
X73660000Y-56004045D01*
X74010838Y-56323133D01*
X74110850Y-56378695D01*
X74208481Y-56316783D01*
X74264838Y-56212802D01*
X74201338Y-56115170D01*
X73855263Y-55813545D01*
X74201338Y-55511920D01*
X74264838Y-55414289D01*
X74209275Y-55311895D01*
X74110850Y-55249983D01*
X74010838Y-55303958D01*
X73660000Y-55623045D01*
X73309162Y-55303958D01*
X73207562Y-55249983D01*
X73110725Y-55311102D01*
X73055162Y-55414289D01*
X73118662Y-55511920D01*
X73464737Y-55813545D01*
X73118662Y-56115170D01*
X73055162Y-56212802D01*
X73111519Y-56315989D01*
X73207562Y-56378695D01*
X73309162Y-56323133D01*
X73267887Y-56450133D01*
X73185337Y-56426320D01*
X73129775Y-56450927D01*
X73083737Y-56524745D01*
X73061512Y-56606502D01*
X73076594Y-56657302D01*
X73107550Y-56686670D01*
X73152882Y-56707484D01*
X73248661Y-56748759D01*
X73394887Y-56810495D01*
X73391712Y-56859708D01*
X73391712Y-57059733D01*
X73212325Y-57059733D01*
X73157556Y-57062114D01*
X73115487Y-57077195D01*
X73083341Y-57119264D01*
X73072625Y-57201020D01*
X73087309Y-57289127D01*
X73131362Y-57331195D01*
X73213912Y-57340720D01*
X74094975Y-57340720D01*
X74149744Y-57338339D01*
X74191813Y-57323258D01*
X74223959Y-57281189D01*
X74234675Y-57199433D01*
X74777468Y-57340720D01*
X74777468Y-57853351D01*
X72542532Y-57853351D01*
X72542532Y-57340720D01*
X72542532Y-54148258D01*
X73169959Y-54408757D01*
X73115884Y-54507628D01*
X73083440Y-54615529D01*
X73072625Y-54732458D01*
X73072625Y-55022970D01*
X73082547Y-55101552D01*
X73112312Y-55143620D01*
X73213912Y-55162670D01*
X74096563Y-55162670D01*
X74152125Y-55160289D01*
X74193400Y-55145208D01*
X74225547Y-55103139D01*
X74236263Y-55021383D01*
X74234675Y-54727695D01*
X74224307Y-54616074D01*
X74193202Y-54511399D01*
X74141360Y-54413668D01*
X74068781Y-54322883D01*
X73981072Y-54246485D01*
X73883838Y-54191914D01*
X73777078Y-54159172D01*
X73660794Y-54148258D01*
X73544063Y-54158924D01*
X73435964Y-54190922D01*
X73336497Y-54244252D01*
X73245662Y-54318914D01*
X73169959Y-54408757D01*
X72542532Y-54148258D01*
X72542532Y-53635628D01*
X73660000Y-52890649D01*
X74777468Y-53635628D01*
X74777468Y-54148258D01*
X74777468Y-57340720D01*
G37*
G36*
X71418450Y-54666577D02*
G01*
X71418450Y-54818977D01*
X70818375Y-54818977D01*
X70818375Y-54664989D01*
X70839608Y-54556245D01*
X70903306Y-54458614D01*
X70999152Y-54389558D01*
X71116825Y-54366539D01*
X71234895Y-54388963D01*
X71331931Y-54456233D01*
X71396820Y-54553666D01*
X71418450Y-54666577D01*
G37*
G36*
X72232705Y-57400252D02*
G01*
X71624974Y-57129583D01*
X71677808Y-57028777D01*
X71709508Y-56920033D01*
X71720075Y-56803352D01*
X71706317Y-56680761D01*
X71665042Y-56562757D01*
X71596250Y-56449339D01*
X71525606Y-56406477D01*
X71435913Y-56442989D01*
X71372809Y-56502124D01*
X71351775Y-56555702D01*
X71395431Y-56652539D01*
X71428173Y-56725564D01*
X71439088Y-56811289D01*
X71417855Y-56925192D01*
X71354156Y-57025602D01*
X71256128Y-57095849D01*
X71131906Y-57119264D01*
X71044947Y-57108681D01*
X70967159Y-57076931D01*
X70898544Y-57024014D01*
X70826511Y-56922414D01*
X70802500Y-56808114D01*
X70809644Y-56725167D01*
X70831075Y-56650952D01*
X71004112Y-56650952D01*
X71004112Y-56776364D01*
X71016812Y-56846214D01*
X71054119Y-56873202D01*
X71120794Y-56879552D01*
X71188263Y-56872408D01*
X71223188Y-56846214D01*
X71237475Y-56770014D01*
X71237475Y-56490614D01*
X71193025Y-56385839D01*
X71104125Y-56369964D01*
X70677087Y-56242964D01*
X71562913Y-56242964D01*
X71651019Y-56227883D01*
X71688325Y-56182639D01*
X71697850Y-56104852D01*
X71689119Y-56029445D01*
X71669275Y-55990552D01*
X71628000Y-55954039D01*
X71484728Y-55848559D01*
X71358654Y-55755425D01*
X71249778Y-55674639D01*
X71158100Y-55606200D01*
X71083620Y-55550109D01*
X71026337Y-55506364D01*
X71562913Y-55506364D01*
X71651019Y-55491283D01*
X71688325Y-55446039D01*
X71697850Y-55370633D01*
X71689913Y-55297608D01*
X71670863Y-55256333D01*
X71637525Y-55236489D01*
X71556563Y-55226964D01*
X70675500Y-55226964D01*
X70619938Y-55229345D01*
X70578662Y-55244427D01*
X70546516Y-55286495D01*
X70535800Y-55368252D01*
X70545325Y-55453977D01*
X70575487Y-55493664D01*
X70725065Y-55605936D01*
X70856299Y-55704625D01*
X70969187Y-55789733D01*
X71063732Y-55861259D01*
X71139932Y-55919202D01*
X71197788Y-55963564D01*
X70675500Y-55963564D01*
X70619938Y-55965945D01*
X70578662Y-55981027D01*
X70546516Y-56023095D01*
X70535800Y-56104852D01*
X70546516Y-56184227D01*
X70578662Y-56225502D01*
X70621525Y-56240583D01*
X70677087Y-56242964D01*
X71104125Y-56369964D01*
X70754875Y-56369964D01*
X70658037Y-56414414D01*
X70597613Y-56489424D01*
X70554453Y-56581102D01*
X70528557Y-56689449D01*
X70519925Y-56814464D01*
X70531087Y-56928863D01*
X70564573Y-57035524D01*
X70620384Y-57134445D01*
X70698519Y-57225627D01*
X70792429Y-57302025D01*
X70895567Y-57356595D01*
X71007932Y-57389338D01*
X71129525Y-57400252D01*
X71250522Y-57389139D01*
X71361102Y-57355802D01*
X71461263Y-57300239D01*
X71551006Y-57222452D01*
X71624974Y-57129583D01*
X72232705Y-57400252D01*
X72232705Y-57912882D01*
X70007295Y-57912882D01*
X70007295Y-57400252D01*
X70007295Y-54085552D01*
X70634721Y-54346051D01*
X70580647Y-54444922D01*
X70548202Y-54552822D01*
X70537387Y-54669752D01*
X70537387Y-54960264D01*
X70547309Y-55038845D01*
X70577075Y-55080914D01*
X70678675Y-55099964D01*
X71561325Y-55099964D01*
X71616888Y-55097583D01*
X71658163Y-55082502D01*
X71690309Y-55040433D01*
X71701025Y-54958677D01*
X71699438Y-54664989D01*
X71689069Y-54553368D01*
X71657964Y-54448692D01*
X71606122Y-54350962D01*
X71533544Y-54260177D01*
X71445834Y-54183778D01*
X71348600Y-54129208D01*
X71241841Y-54096466D01*
X71125556Y-54085552D01*
X71008825Y-54096218D01*
X70900727Y-54128216D01*
X70801260Y-54181546D01*
X70710425Y-54256208D01*
X70634721Y-54346051D01*
X70007295Y-54085552D01*
X70007295Y-53572922D01*
X71120000Y-52831118D01*
X72232705Y-53572922D01*
X72232705Y-54085552D01*
X72232705Y-57400252D01*
G37*
D11*
%TO.C,U1*%
X77324000Y-96810000D02*
X77324000Y-90800000D01*
X70504000Y-94560000D02*
X70504000Y-90800000D01*
X77324000Y-90800000D02*
X76064000Y-90800000D01*
X70504000Y-90800000D02*
X71764000Y-90800000D01*
%TO.C,RN2*%
X76258000Y-59582000D02*
X76258000Y-58782000D01*
X79698000Y-59582000D02*
X79698000Y-58782000D01*
%TO.C,R9*%
X82281500Y-74913258D02*
X82281500Y-74438742D01*
X83326500Y-74913258D02*
X83326500Y-74438742D01*
%TO.C,R8*%
X71613500Y-71039258D02*
X71613500Y-70564742D01*
X72658500Y-71039258D02*
X72658500Y-70564742D01*
%TO.C,R7*%
X80786500Y-70501742D02*
X80786500Y-70976258D01*
X79741500Y-70501742D02*
X79741500Y-70976258D01*
%TO.C,R2*%
X70626500Y-101870742D02*
X70626500Y-102345258D01*
X69581500Y-101870742D02*
X69581500Y-102345258D01*
%TO.C,R1*%
X82818500Y-101870742D02*
X82818500Y-102345258D01*
X81773500Y-101870742D02*
X81773500Y-102345258D01*
%TO.C,J3*%
X69400000Y-49260000D02*
X67000000Y-49260000D01*
X69900000Y-52410000D02*
X69900000Y-49760000D01*
X70300000Y-52760000D02*
X82100000Y-52760000D01*
X82500000Y-52360000D02*
X82500000Y-49710000D01*
X83000000Y-49260000D02*
X85400000Y-49260000D01*
X83050000Y-49260000D02*
G75*
G03*
X82500000Y-49710000I-50000J-500000D01*
G01*
X82100000Y-52760000D02*
G75*
G03*
X82500000Y-52360000I0J400000D01*
G01*
X69900000Y-52360000D02*
G75*
G03*
X70300000Y-52760000I400000J0D01*
G01*
X69900000Y-49760000D02*
G75*
G03*
X69400000Y-49260000I-500000J0D01*
G01*
%TO.C,C12*%
X77610580Y-76456000D02*
X77329420Y-76456000D01*
X77610580Y-75436000D02*
X77329420Y-75436000D01*
%TO.C,C11*%
X77610580Y-78234000D02*
X77329420Y-78234000D01*
X77610580Y-77214000D02*
X77329420Y-77214000D01*
%TO.C,C10*%
X74281420Y-73658000D02*
X74562580Y-73658000D01*
X74281420Y-74678000D02*
X74562580Y-74678000D01*
%TO.C,C9*%
X73912000Y-77102580D02*
X73912000Y-76821420D01*
X74932000Y-77102580D02*
X74932000Y-76821420D01*
%TO.C,C8*%
X77610580Y-74678000D02*
X77329420Y-74678000D01*
X77610580Y-73658000D02*
X77329420Y-73658000D01*
%TO.C,C2*%
X73159252Y-87857000D02*
X72636748Y-87857000D01*
X73159252Y-86387000D02*
X72636748Y-86387000D01*
%TO.C,C1*%
X69823000Y-97335748D02*
X69823000Y-97858252D01*
X68353000Y-97335748D02*
X68353000Y-97858252D01*
%TO.C,J4*%
D12*
X86693333Y-50462380D02*
X86693333Y-51176666D01*
X86740952Y-51319523D01*
X86836190Y-51414761D01*
X86979047Y-51462380D01*
X87074285Y-51462380D01*
X85788571Y-50795714D02*
X85788571Y-51462380D01*
X86026666Y-50414761D02*
X86264761Y-51129047D01*
X85645714Y-51129047D01*
%TO.C,J1*%
X66373333Y-102957380D02*
X66373333Y-103671666D01*
X66420952Y-103814523D01*
X66516190Y-103909761D01*
X66659047Y-103957380D01*
X66754285Y-103957380D01*
X65373333Y-103957380D02*
X65944761Y-103957380D01*
X65659047Y-103957380D02*
X65659047Y-102957380D01*
X65754285Y-103100238D01*
X65849523Y-103195476D01*
X65944761Y-103243095D01*
%TO.C,U1*%
X77723904Y-89266380D02*
X77723904Y-90075904D01*
X77676285Y-90171142D01*
X77628666Y-90218761D01*
X77533428Y-90266380D01*
X77342952Y-90266380D01*
X77247714Y-90218761D01*
X77200095Y-90171142D01*
X77152476Y-90075904D01*
X77152476Y-89266380D01*
X76152476Y-90266380D02*
X76723904Y-90266380D01*
X76438190Y-90266380D02*
X76438190Y-89266380D01*
X76533428Y-89409238D01*
X76628666Y-89504476D01*
X76723904Y-89552095D01*
%TO.C,RN2*%
X75830380Y-58491523D02*
X75354190Y-58158190D01*
X75830380Y-57920095D02*
X74830380Y-57920095D01*
X74830380Y-58301047D01*
X74878000Y-58396285D01*
X74925619Y-58443904D01*
X75020857Y-58491523D01*
X75163714Y-58491523D01*
X75258952Y-58443904D01*
X75306571Y-58396285D01*
X75354190Y-58301047D01*
X75354190Y-57920095D01*
X75830380Y-58920095D02*
X74830380Y-58920095D01*
X75830380Y-59491523D01*
X74830380Y-59491523D01*
X74925619Y-59920095D02*
X74878000Y-59967714D01*
X74830380Y-60062952D01*
X74830380Y-60301047D01*
X74878000Y-60396285D01*
X74925619Y-60443904D01*
X75020857Y-60491523D01*
X75116095Y-60491523D01*
X75258952Y-60443904D01*
X75830380Y-59872476D01*
X75830380Y-60491523D01*
%TO.C,R9*%
X83781619Y-74842666D02*
X84257809Y-75176000D01*
X83781619Y-75414095D02*
X84781619Y-75414095D01*
X84781619Y-75033142D01*
X84734000Y-74937904D01*
X84686380Y-74890285D01*
X84591142Y-74842666D01*
X84448285Y-74842666D01*
X84353047Y-74890285D01*
X84305428Y-74937904D01*
X84257809Y-75033142D01*
X84257809Y-75414095D01*
X83781619Y-74366476D02*
X83781619Y-74176000D01*
X83829238Y-74080761D01*
X83876857Y-74033142D01*
X84019714Y-73937904D01*
X84210190Y-73890285D01*
X84591142Y-73890285D01*
X84686380Y-73937904D01*
X84734000Y-73985523D01*
X84781619Y-74080761D01*
X84781619Y-74271238D01*
X84734000Y-74366476D01*
X84686380Y-74414095D01*
X84591142Y-74461714D01*
X84353047Y-74461714D01*
X84257809Y-74414095D01*
X84210190Y-74366476D01*
X84162571Y-74271238D01*
X84162571Y-74080761D01*
X84210190Y-73985523D01*
X84257809Y-73937904D01*
X84353047Y-73890285D01*
%TO.C,R8*%
X73699666Y-71889380D02*
X74033000Y-71413190D01*
X74271095Y-71889380D02*
X74271095Y-70889380D01*
X73890142Y-70889380D01*
X73794904Y-70937000D01*
X73747285Y-70984619D01*
X73699666Y-71079857D01*
X73699666Y-71222714D01*
X73747285Y-71317952D01*
X73794904Y-71365571D01*
X73890142Y-71413190D01*
X74271095Y-71413190D01*
X73128238Y-71317952D02*
X73223476Y-71270333D01*
X73271095Y-71222714D01*
X73318714Y-71127476D01*
X73318714Y-71079857D01*
X73271095Y-70984619D01*
X73223476Y-70937000D01*
X73128238Y-70889380D01*
X72937761Y-70889380D01*
X72842523Y-70937000D01*
X72794904Y-70984619D01*
X72747285Y-71079857D01*
X72747285Y-71127476D01*
X72794904Y-71222714D01*
X72842523Y-71270333D01*
X72937761Y-71317952D01*
X73128238Y-71317952D01*
X73223476Y-71365571D01*
X73271095Y-71413190D01*
X73318714Y-71508428D01*
X73318714Y-71698904D01*
X73271095Y-71794142D01*
X73223476Y-71841761D01*
X73128238Y-71889380D01*
X72937761Y-71889380D01*
X72842523Y-71841761D01*
X72794904Y-71794142D01*
X72747285Y-71698904D01*
X72747285Y-71508428D01*
X72794904Y-71413190D01*
X72842523Y-71365571D01*
X72937761Y-71317952D01*
%TO.C,R7*%
X81208619Y-71032666D02*
X81684809Y-71366000D01*
X81208619Y-71604095D02*
X82208619Y-71604095D01*
X82208619Y-71223142D01*
X82161000Y-71127904D01*
X82113380Y-71080285D01*
X82018142Y-71032666D01*
X81875285Y-71032666D01*
X81780047Y-71080285D01*
X81732428Y-71127904D01*
X81684809Y-71223142D01*
X81684809Y-71604095D01*
X82208619Y-70699333D02*
X82208619Y-70032666D01*
X81208619Y-70461238D01*
%TO.C,R2*%
X69651619Y-104560666D02*
X70127809Y-104894000D01*
X69651619Y-105132095D02*
X70651619Y-105132095D01*
X70651619Y-104751142D01*
X70604000Y-104655904D01*
X70556380Y-104608285D01*
X70461142Y-104560666D01*
X70318285Y-104560666D01*
X70223047Y-104608285D01*
X70175428Y-104655904D01*
X70127809Y-104751142D01*
X70127809Y-105132095D01*
X70556380Y-104179714D02*
X70604000Y-104132095D01*
X70651619Y-104036857D01*
X70651619Y-103798761D01*
X70604000Y-103703523D01*
X70556380Y-103655904D01*
X70461142Y-103608285D01*
X70365904Y-103608285D01*
X70223047Y-103655904D01*
X69651619Y-104227333D01*
X69651619Y-103608285D01*
%TO.C,R1*%
X81843619Y-104560666D02*
X82319809Y-104894000D01*
X81843619Y-105132095D02*
X82843619Y-105132095D01*
X82843619Y-104751142D01*
X82796000Y-104655904D01*
X82748380Y-104608285D01*
X82653142Y-104560666D01*
X82510285Y-104560666D01*
X82415047Y-104608285D01*
X82367428Y-104655904D01*
X82319809Y-104751142D01*
X82319809Y-105132095D01*
X81843619Y-103608285D02*
X81843619Y-104179714D01*
X81843619Y-103894000D02*
X82843619Y-103894000D01*
X82700761Y-103989238D01*
X82605523Y-104084476D01*
X82557904Y-104179714D01*
%TO.C,C12*%
X77858857Y-81891142D02*
X77906476Y-81938761D01*
X78049333Y-81986380D01*
X78144571Y-81986380D01*
X78287428Y-81938761D01*
X78382666Y-81843523D01*
X78430285Y-81748285D01*
X78477904Y-81557809D01*
X78477904Y-81414952D01*
X78430285Y-81224476D01*
X78382666Y-81129238D01*
X78287428Y-81034000D01*
X78144571Y-80986380D01*
X78049333Y-80986380D01*
X77906476Y-81034000D01*
X77858857Y-81081619D01*
X76906476Y-81986380D02*
X77477904Y-81986380D01*
X77192190Y-81986380D02*
X77192190Y-80986380D01*
X77287428Y-81129238D01*
X77382666Y-81224476D01*
X77477904Y-81272095D01*
X76525523Y-81081619D02*
X76477904Y-81034000D01*
X76382666Y-80986380D01*
X76144571Y-80986380D01*
X76049333Y-81034000D01*
X76001714Y-81081619D01*
X75954095Y-81176857D01*
X75954095Y-81272095D01*
X76001714Y-81414952D01*
X76573142Y-81986380D01*
X75954095Y-81986380D01*
%TO.C,C11*%
X77858857Y-83161142D02*
X77906476Y-83208761D01*
X78049333Y-83256380D01*
X78144571Y-83256380D01*
X78287428Y-83208761D01*
X78382666Y-83113523D01*
X78430285Y-83018285D01*
X78477904Y-82827809D01*
X78477904Y-82684952D01*
X78430285Y-82494476D01*
X78382666Y-82399238D01*
X78287428Y-82304000D01*
X78144571Y-82256380D01*
X78049333Y-82256380D01*
X77906476Y-82304000D01*
X77858857Y-82351619D01*
X76906476Y-83256380D02*
X77477904Y-83256380D01*
X77192190Y-83256380D02*
X77192190Y-82256380D01*
X77287428Y-82399238D01*
X77382666Y-82494476D01*
X77477904Y-82542095D01*
X75954095Y-83256380D02*
X76525523Y-83256380D01*
X76239809Y-83256380D02*
X76239809Y-82256380D01*
X76335047Y-82399238D01*
X76430285Y-82494476D01*
X76525523Y-82542095D01*
%TO.C,C10*%
X75318857Y-80367142D02*
X75366476Y-80414761D01*
X75509333Y-80462380D01*
X75604571Y-80462380D01*
X75747428Y-80414761D01*
X75842666Y-80319523D01*
X75890285Y-80224285D01*
X75937904Y-80033809D01*
X75937904Y-79890952D01*
X75890285Y-79700476D01*
X75842666Y-79605238D01*
X75747428Y-79510000D01*
X75604571Y-79462380D01*
X75509333Y-79462380D01*
X75366476Y-79510000D01*
X75318857Y-79557619D01*
X74366476Y-80462380D02*
X74937904Y-80462380D01*
X74652190Y-80462380D02*
X74652190Y-79462380D01*
X74747428Y-79605238D01*
X74842666Y-79700476D01*
X74937904Y-79748095D01*
X73747428Y-79462380D02*
X73652190Y-79462380D01*
X73556952Y-79510000D01*
X73509333Y-79557619D01*
X73461714Y-79652857D01*
X73414095Y-79843333D01*
X73414095Y-80081428D01*
X73461714Y-80271904D01*
X73509333Y-80367142D01*
X73556952Y-80414761D01*
X73652190Y-80462380D01*
X73747428Y-80462380D01*
X73842666Y-80414761D01*
X73890285Y-80367142D01*
X73937904Y-80271904D01*
X73985523Y-80081428D01*
X73985523Y-79843333D01*
X73937904Y-79652857D01*
X73890285Y-79557619D01*
X73842666Y-79510000D01*
X73747428Y-79462380D01*
%TO.C,C9*%
X74064857Y-82462666D02*
X74017238Y-82510285D01*
X73969619Y-82653142D01*
X73969619Y-82748380D01*
X74017238Y-82891238D01*
X74112476Y-82986476D01*
X74207714Y-83034095D01*
X74398190Y-83081714D01*
X74541047Y-83081714D01*
X74731523Y-83034095D01*
X74826761Y-82986476D01*
X74922000Y-82891238D01*
X74969619Y-82748380D01*
X74969619Y-82653142D01*
X74922000Y-82510285D01*
X74874380Y-82462666D01*
X73969619Y-81986476D02*
X73969619Y-81796000D01*
X74017238Y-81700761D01*
X74064857Y-81653142D01*
X74207714Y-81557904D01*
X74398190Y-81510285D01*
X74779142Y-81510285D01*
X74874380Y-81557904D01*
X74922000Y-81605523D01*
X74969619Y-81700761D01*
X74969619Y-81891238D01*
X74922000Y-81986476D01*
X74874380Y-82034095D01*
X74779142Y-82081714D01*
X74541047Y-82081714D01*
X74445809Y-82034095D01*
X74398190Y-81986476D01*
X74350571Y-81891238D01*
X74350571Y-81700761D01*
X74398190Y-81605523D01*
X74445809Y-81557904D01*
X74541047Y-81510285D01*
%TO.C,C8*%
X77395666Y-80367142D02*
X77443285Y-80414761D01*
X77586142Y-80462380D01*
X77681380Y-80462380D01*
X77824238Y-80414761D01*
X77919476Y-80319523D01*
X77967095Y-80224285D01*
X78014714Y-80033809D01*
X78014714Y-79890952D01*
X77967095Y-79700476D01*
X77919476Y-79605238D01*
X77824238Y-79510000D01*
X77681380Y-79462380D01*
X77586142Y-79462380D01*
X77443285Y-79510000D01*
X77395666Y-79557619D01*
X76824238Y-79890952D02*
X76919476Y-79843333D01*
X76967095Y-79795714D01*
X77014714Y-79700476D01*
X77014714Y-79652857D01*
X76967095Y-79557619D01*
X76919476Y-79510000D01*
X76824238Y-79462380D01*
X76633761Y-79462380D01*
X76538523Y-79510000D01*
X76490904Y-79557619D01*
X76443285Y-79652857D01*
X76443285Y-79700476D01*
X76490904Y-79795714D01*
X76538523Y-79843333D01*
X76633761Y-79890952D01*
X76824238Y-79890952D01*
X76919476Y-79938571D01*
X76967095Y-79986190D01*
X77014714Y-80081428D01*
X77014714Y-80271904D01*
X76967095Y-80367142D01*
X76919476Y-80414761D01*
X76824238Y-80462380D01*
X76633761Y-80462380D01*
X76538523Y-80414761D01*
X76490904Y-80367142D01*
X76443285Y-80271904D01*
X76443285Y-80081428D01*
X76490904Y-79986190D01*
X76538523Y-79938571D01*
X76633761Y-79890952D01*
%TO.C,C2*%
X73064666Y-85799142D02*
X73112285Y-85846761D01*
X73255142Y-85894380D01*
X73350380Y-85894380D01*
X73493238Y-85846761D01*
X73588476Y-85751523D01*
X73636095Y-85656285D01*
X73683714Y-85465809D01*
X73683714Y-85322952D01*
X73636095Y-85132476D01*
X73588476Y-85037238D01*
X73493238Y-84942000D01*
X73350380Y-84894380D01*
X73255142Y-84894380D01*
X73112285Y-84942000D01*
X73064666Y-84989619D01*
X72683714Y-84989619D02*
X72636095Y-84942000D01*
X72540857Y-84894380D01*
X72302761Y-84894380D01*
X72207523Y-84942000D01*
X72159904Y-84989619D01*
X72112285Y-85084857D01*
X72112285Y-85180095D01*
X72159904Y-85322952D01*
X72731333Y-85894380D01*
X72112285Y-85894380D01*
%TO.C,C1*%
X68349857Y-100242666D02*
X68302238Y-100290285D01*
X68254619Y-100433142D01*
X68254619Y-100528380D01*
X68302238Y-100671238D01*
X68397476Y-100766476D01*
X68492714Y-100814095D01*
X68683190Y-100861714D01*
X68826047Y-100861714D01*
X69016523Y-100814095D01*
X69111761Y-100766476D01*
X69207000Y-100671238D01*
X69254619Y-100528380D01*
X69254619Y-100433142D01*
X69207000Y-100290285D01*
X69159380Y-100242666D01*
X68254619Y-99290285D02*
X68254619Y-99861714D01*
X68254619Y-99576000D02*
X69254619Y-99576000D01*
X69111761Y-99671238D01*
X69016523Y-99766476D01*
X68968904Y-99861714D01*
%TD*%
M02*
