%TF.GenerationSoftware,KiCad,Pcbnew,(5.1.12)-1*%
%TF.CreationDate,2021-12-13T23:08:50+08:00*%
%TF.ProjectId,PCB_EK-Link_Lite_Dev,5043425f-454b-42d4-9c69-6e6b5f4c6974,rev?*%
%TF.SameCoordinates,Original*%
%TF.FileFunction,Soldermask,Bot*%
%TF.FilePolarity,Negative*%
%FSLAX46Y46*%
G04 Gerber Fmt 4.6, Leading zero omitted, Abs format (unit mm)*
G04 Created by KiCad (PCBNEW (5.1.12)-1) date 2021-12-13 23:08:50*
%MOMM*%
%LPD*%
G01*
G04 APERTURE LIST*
%ADD10C,0.100000*%
%ADD11O,1.700000X1.700000*%
%ADD12R,1.700000X1.700000*%
%ADD13R,1.500000X2.000000*%
%ADD14R,3.800000X2.000000*%
%ADD15R,0.400000X0.900000*%
%ADD16C,0.600000*%
%ADD17O,0.900000X1.700000*%
%ADD18O,0.900000X2.000000*%
G04 APERTURE END LIST*
D10*
G36*
X87122000Y-105283000D02*
G01*
X83693000Y-105283000D01*
X83693000Y-102997000D01*
X87122000Y-102997000D01*
X87122000Y-105283000D01*
G37*
X87122000Y-105283000D02*
X83693000Y-105283000D01*
X83693000Y-102997000D01*
X87122000Y-102997000D01*
X87122000Y-105283000D01*
D11*
%TO.C,J4*%
X86360000Y-101600000D03*
X86360000Y-99060000D03*
X86360000Y-96520000D03*
X86360000Y-93980000D03*
X86360000Y-91440000D03*
X86360000Y-88900000D03*
X86360000Y-86360000D03*
X86360000Y-83820000D03*
X86360000Y-81280000D03*
X86360000Y-78740000D03*
X86360000Y-76200000D03*
X86360000Y-73660000D03*
X86360000Y-71120000D03*
X86360000Y-68580000D03*
X86360000Y-66040000D03*
X86360000Y-63500000D03*
X86360000Y-60960000D03*
X86360000Y-58420000D03*
X86360000Y-55880000D03*
D12*
X86360000Y-53340000D03*
%TD*%
D11*
%TO.C,J1*%
X66040000Y-53340000D03*
X66040000Y-55880000D03*
X66040000Y-58420000D03*
X66040000Y-60960000D03*
X66040000Y-63500000D03*
X66040000Y-66040000D03*
X66040000Y-68580000D03*
X66040000Y-71120000D03*
X66040000Y-73660000D03*
X66040000Y-76200000D03*
X66040000Y-78740000D03*
X66040000Y-81280000D03*
X66040000Y-83820000D03*
X66040000Y-86360000D03*
X66040000Y-88900000D03*
X66040000Y-91440000D03*
X66040000Y-93980000D03*
X66040000Y-96520000D03*
X66040000Y-99060000D03*
D12*
X66040000Y-101600000D03*
%TD*%
D13*
%TO.C,U1*%
X76214000Y-95860000D03*
X71614000Y-95860000D03*
X73914000Y-95860000D03*
D14*
X73914000Y-89560000D03*
%TD*%
D15*
%TO.C,RN2*%
X79178000Y-60032000D03*
X78378000Y-60032000D03*
X77578000Y-60032000D03*
X76778000Y-60032000D03*
X79178000Y-58332000D03*
X76778000Y-58332000D03*
X78378000Y-58332000D03*
X77578000Y-58332000D03*
%TD*%
%TO.C,R9*%
G36*
G01*
X83079000Y-74251000D02*
X82529000Y-74251000D01*
G75*
G02*
X82329000Y-74051000I0J200000D01*
G01*
X82329000Y-73651000D01*
G75*
G02*
X82529000Y-73451000I200000J0D01*
G01*
X83079000Y-73451000D01*
G75*
G02*
X83279000Y-73651000I0J-200000D01*
G01*
X83279000Y-74051000D01*
G75*
G02*
X83079000Y-74251000I-200000J0D01*
G01*
G37*
G36*
G01*
X83079000Y-75901000D02*
X82529000Y-75901000D01*
G75*
G02*
X82329000Y-75701000I0J200000D01*
G01*
X82329000Y-75301000D01*
G75*
G02*
X82529000Y-75101000I200000J0D01*
G01*
X83079000Y-75101000D01*
G75*
G02*
X83279000Y-75301000I0J-200000D01*
G01*
X83279000Y-75701000D01*
G75*
G02*
X83079000Y-75901000I-200000J0D01*
G01*
G37*
%TD*%
%TO.C,R8*%
G36*
G01*
X72411000Y-70377000D02*
X71861000Y-70377000D01*
G75*
G02*
X71661000Y-70177000I0J200000D01*
G01*
X71661000Y-69777000D01*
G75*
G02*
X71861000Y-69577000I200000J0D01*
G01*
X72411000Y-69577000D01*
G75*
G02*
X72611000Y-69777000I0J-200000D01*
G01*
X72611000Y-70177000D01*
G75*
G02*
X72411000Y-70377000I-200000J0D01*
G01*
G37*
G36*
G01*
X72411000Y-72027000D02*
X71861000Y-72027000D01*
G75*
G02*
X71661000Y-71827000I0J200000D01*
G01*
X71661000Y-71427000D01*
G75*
G02*
X71861000Y-71227000I200000J0D01*
G01*
X72411000Y-71227000D01*
G75*
G02*
X72611000Y-71427000I0J-200000D01*
G01*
X72611000Y-71827000D01*
G75*
G02*
X72411000Y-72027000I-200000J0D01*
G01*
G37*
%TD*%
%TO.C,R7*%
G36*
G01*
X79989000Y-71164000D02*
X80539000Y-71164000D01*
G75*
G02*
X80739000Y-71364000I0J-200000D01*
G01*
X80739000Y-71764000D01*
G75*
G02*
X80539000Y-71964000I-200000J0D01*
G01*
X79989000Y-71964000D01*
G75*
G02*
X79789000Y-71764000I0J200000D01*
G01*
X79789000Y-71364000D01*
G75*
G02*
X79989000Y-71164000I200000J0D01*
G01*
G37*
G36*
G01*
X79989000Y-69514000D02*
X80539000Y-69514000D01*
G75*
G02*
X80739000Y-69714000I0J-200000D01*
G01*
X80739000Y-70114000D01*
G75*
G02*
X80539000Y-70314000I-200000J0D01*
G01*
X79989000Y-70314000D01*
G75*
G02*
X79789000Y-70114000I0J200000D01*
G01*
X79789000Y-69714000D01*
G75*
G02*
X79989000Y-69514000I200000J0D01*
G01*
G37*
%TD*%
%TO.C,R2*%
G36*
G01*
X69829000Y-102533000D02*
X70379000Y-102533000D01*
G75*
G02*
X70579000Y-102733000I0J-200000D01*
G01*
X70579000Y-103133000D01*
G75*
G02*
X70379000Y-103333000I-200000J0D01*
G01*
X69829000Y-103333000D01*
G75*
G02*
X69629000Y-103133000I0J200000D01*
G01*
X69629000Y-102733000D01*
G75*
G02*
X69829000Y-102533000I200000J0D01*
G01*
G37*
G36*
G01*
X69829000Y-100883000D02*
X70379000Y-100883000D01*
G75*
G02*
X70579000Y-101083000I0J-200000D01*
G01*
X70579000Y-101483000D01*
G75*
G02*
X70379000Y-101683000I-200000J0D01*
G01*
X69829000Y-101683000D01*
G75*
G02*
X69629000Y-101483000I0J200000D01*
G01*
X69629000Y-101083000D01*
G75*
G02*
X69829000Y-100883000I200000J0D01*
G01*
G37*
%TD*%
%TO.C,R1*%
G36*
G01*
X82021000Y-102533000D02*
X82571000Y-102533000D01*
G75*
G02*
X82771000Y-102733000I0J-200000D01*
G01*
X82771000Y-103133000D01*
G75*
G02*
X82571000Y-103333000I-200000J0D01*
G01*
X82021000Y-103333000D01*
G75*
G02*
X81821000Y-103133000I0J200000D01*
G01*
X81821000Y-102733000D01*
G75*
G02*
X82021000Y-102533000I200000J0D01*
G01*
G37*
G36*
G01*
X82021000Y-100883000D02*
X82571000Y-100883000D01*
G75*
G02*
X82771000Y-101083000I0J-200000D01*
G01*
X82771000Y-101483000D01*
G75*
G02*
X82571000Y-101683000I-200000J0D01*
G01*
X82021000Y-101683000D01*
G75*
G02*
X81821000Y-101483000I0J200000D01*
G01*
X81821000Y-101083000D01*
G75*
G02*
X82021000Y-100883000I200000J0D01*
G01*
G37*
%TD*%
D11*
%TO.C,J7*%
X81788000Y-89662000D03*
D12*
X79248000Y-89662000D03*
%TD*%
D11*
%TO.C,J6*%
X81280000Y-67564000D03*
X81280000Y-65024000D03*
X81280000Y-62484000D03*
D12*
X81280000Y-59944000D03*
%TD*%
D11*
%TO.C,J5*%
X81788000Y-87122000D03*
D12*
X79248000Y-87122000D03*
%TD*%
%TO.C,J3*%
G36*
G01*
X70300000Y-52140000D02*
X70300000Y-49460000D01*
G75*
G02*
X70710000Y-49050000I410000J0D01*
G01*
X71530000Y-49050000D01*
G75*
G02*
X71940000Y-49460000I0J-410000D01*
G01*
X71940000Y-52140000D01*
G75*
G02*
X71530000Y-52550000I-410000J0D01*
G01*
X70710000Y-52550000D01*
G75*
G02*
X70300000Y-52140000I0J410000D01*
G01*
G37*
G36*
G01*
X72840000Y-52140000D02*
X72840000Y-49460000D01*
G75*
G02*
X73250000Y-49050000I410000J0D01*
G01*
X74070000Y-49050000D01*
G75*
G02*
X74480000Y-49460000I0J-410000D01*
G01*
X74480000Y-52140000D01*
G75*
G02*
X74070000Y-52550000I-410000J0D01*
G01*
X73250000Y-52550000D01*
G75*
G02*
X72840000Y-52140000I0J410000D01*
G01*
G37*
G36*
G01*
X75380000Y-52140000D02*
X75380000Y-49460000D01*
G75*
G02*
X75790000Y-49050000I410000J0D01*
G01*
X76610000Y-49050000D01*
G75*
G02*
X77020000Y-49460000I0J-410000D01*
G01*
X77020000Y-52140000D01*
G75*
G02*
X76610000Y-52550000I-410000J0D01*
G01*
X75790000Y-52550000D01*
G75*
G02*
X75380000Y-52140000I0J410000D01*
G01*
G37*
G36*
G01*
X77920000Y-52140000D02*
X77920000Y-49460000D01*
G75*
G02*
X78330000Y-49050000I410000J0D01*
G01*
X79150000Y-49050000D01*
G75*
G02*
X79560000Y-49460000I0J-410000D01*
G01*
X79560000Y-52140000D01*
G75*
G02*
X79150000Y-52550000I-410000J0D01*
G01*
X78330000Y-52550000D01*
G75*
G02*
X77920000Y-52140000I0J410000D01*
G01*
G37*
G36*
G01*
X80460000Y-52140000D02*
X80460000Y-49460000D01*
G75*
G02*
X80870000Y-49050000I410000J0D01*
G01*
X81690000Y-49050000D01*
G75*
G02*
X82100000Y-49460000I0J-410000D01*
G01*
X82100000Y-52140000D01*
G75*
G02*
X81690000Y-52550000I-410000J0D01*
G01*
X80870000Y-52550000D01*
G75*
G02*
X80460000Y-52140000I0J410000D01*
G01*
G37*
%TD*%
D16*
%TO.C,J2*%
X73310000Y-100150000D03*
X79090000Y-100150000D03*
D17*
X80520000Y-103840000D03*
X71880000Y-103840000D03*
D18*
X80520000Y-99670000D03*
X71880000Y-99670000D03*
%TD*%
%TO.C,C12*%
G36*
G01*
X77145000Y-75696000D02*
X77145000Y-76196000D01*
G75*
G02*
X76920000Y-76421000I-225000J0D01*
G01*
X76470000Y-76421000D01*
G75*
G02*
X76245000Y-76196000I0J225000D01*
G01*
X76245000Y-75696000D01*
G75*
G02*
X76470000Y-75471000I225000J0D01*
G01*
X76920000Y-75471000D01*
G75*
G02*
X77145000Y-75696000I0J-225000D01*
G01*
G37*
G36*
G01*
X78695000Y-75696000D02*
X78695000Y-76196000D01*
G75*
G02*
X78470000Y-76421000I-225000J0D01*
G01*
X78020000Y-76421000D01*
G75*
G02*
X77795000Y-76196000I0J225000D01*
G01*
X77795000Y-75696000D01*
G75*
G02*
X78020000Y-75471000I225000J0D01*
G01*
X78470000Y-75471000D01*
G75*
G02*
X78695000Y-75696000I0J-225000D01*
G01*
G37*
%TD*%
%TO.C,C11*%
G36*
G01*
X77145000Y-77474000D02*
X77145000Y-77974000D01*
G75*
G02*
X76920000Y-78199000I-225000J0D01*
G01*
X76470000Y-78199000D01*
G75*
G02*
X76245000Y-77974000I0J225000D01*
G01*
X76245000Y-77474000D01*
G75*
G02*
X76470000Y-77249000I225000J0D01*
G01*
X76920000Y-77249000D01*
G75*
G02*
X77145000Y-77474000I0J-225000D01*
G01*
G37*
G36*
G01*
X78695000Y-77474000D02*
X78695000Y-77974000D01*
G75*
G02*
X78470000Y-78199000I-225000J0D01*
G01*
X78020000Y-78199000D01*
G75*
G02*
X77795000Y-77974000I0J225000D01*
G01*
X77795000Y-77474000D01*
G75*
G02*
X78020000Y-77249000I225000J0D01*
G01*
X78470000Y-77249000D01*
G75*
G02*
X78695000Y-77474000I0J-225000D01*
G01*
G37*
%TD*%
%TO.C,C10*%
G36*
G01*
X74747000Y-74418000D02*
X74747000Y-73918000D01*
G75*
G02*
X74972000Y-73693000I225000J0D01*
G01*
X75422000Y-73693000D01*
G75*
G02*
X75647000Y-73918000I0J-225000D01*
G01*
X75647000Y-74418000D01*
G75*
G02*
X75422000Y-74643000I-225000J0D01*
G01*
X74972000Y-74643000D01*
G75*
G02*
X74747000Y-74418000I0J225000D01*
G01*
G37*
G36*
G01*
X73197000Y-74418000D02*
X73197000Y-73918000D01*
G75*
G02*
X73422000Y-73693000I225000J0D01*
G01*
X73872000Y-73693000D01*
G75*
G02*
X74097000Y-73918000I0J-225000D01*
G01*
X74097000Y-74418000D01*
G75*
G02*
X73872000Y-74643000I-225000J0D01*
G01*
X73422000Y-74643000D01*
G75*
G02*
X73197000Y-74418000I0J225000D01*
G01*
G37*
%TD*%
%TO.C,C9*%
G36*
G01*
X74672000Y-76637000D02*
X74172000Y-76637000D01*
G75*
G02*
X73947000Y-76412000I0J225000D01*
G01*
X73947000Y-75962000D01*
G75*
G02*
X74172000Y-75737000I225000J0D01*
G01*
X74672000Y-75737000D01*
G75*
G02*
X74897000Y-75962000I0J-225000D01*
G01*
X74897000Y-76412000D01*
G75*
G02*
X74672000Y-76637000I-225000J0D01*
G01*
G37*
G36*
G01*
X74672000Y-78187000D02*
X74172000Y-78187000D01*
G75*
G02*
X73947000Y-77962000I0J225000D01*
G01*
X73947000Y-77512000D01*
G75*
G02*
X74172000Y-77287000I225000J0D01*
G01*
X74672000Y-77287000D01*
G75*
G02*
X74897000Y-77512000I0J-225000D01*
G01*
X74897000Y-77962000D01*
G75*
G02*
X74672000Y-78187000I-225000J0D01*
G01*
G37*
%TD*%
%TO.C,C8*%
G36*
G01*
X77145000Y-73918000D02*
X77145000Y-74418000D01*
G75*
G02*
X76920000Y-74643000I-225000J0D01*
G01*
X76470000Y-74643000D01*
G75*
G02*
X76245000Y-74418000I0J225000D01*
G01*
X76245000Y-73918000D01*
G75*
G02*
X76470000Y-73693000I225000J0D01*
G01*
X76920000Y-73693000D01*
G75*
G02*
X77145000Y-73918000I0J-225000D01*
G01*
G37*
G36*
G01*
X78695000Y-73918000D02*
X78695000Y-74418000D01*
G75*
G02*
X78470000Y-74643000I-225000J0D01*
G01*
X78020000Y-74643000D01*
G75*
G02*
X77795000Y-74418000I0J225000D01*
G01*
X77795000Y-73918000D01*
G75*
G02*
X78020000Y-73693000I225000J0D01*
G01*
X78470000Y-73693000D01*
G75*
G02*
X78695000Y-73918000I0J-225000D01*
G01*
G37*
%TD*%
%TO.C,C2*%
G36*
G01*
X72448000Y-86647000D02*
X72448000Y-87597000D01*
G75*
G02*
X72198000Y-87847000I-250000J0D01*
G01*
X71698000Y-87847000D01*
G75*
G02*
X71448000Y-87597000I0J250000D01*
G01*
X71448000Y-86647000D01*
G75*
G02*
X71698000Y-86397000I250000J0D01*
G01*
X72198000Y-86397000D01*
G75*
G02*
X72448000Y-86647000I0J-250000D01*
G01*
G37*
G36*
G01*
X74348000Y-86647000D02*
X74348000Y-87597000D01*
G75*
G02*
X74098000Y-87847000I-250000J0D01*
G01*
X73598000Y-87847000D01*
G75*
G02*
X73348000Y-87597000I0J250000D01*
G01*
X73348000Y-86647000D01*
G75*
G02*
X73598000Y-86397000I250000J0D01*
G01*
X74098000Y-86397000D01*
G75*
G02*
X74348000Y-86647000I0J-250000D01*
G01*
G37*
%TD*%
%TO.C,C1*%
G36*
G01*
X68613000Y-98047000D02*
X69563000Y-98047000D01*
G75*
G02*
X69813000Y-98297000I0J-250000D01*
G01*
X69813000Y-98797000D01*
G75*
G02*
X69563000Y-99047000I-250000J0D01*
G01*
X68613000Y-99047000D01*
G75*
G02*
X68363000Y-98797000I0J250000D01*
G01*
X68363000Y-98297000D01*
G75*
G02*
X68613000Y-98047000I250000J0D01*
G01*
G37*
G36*
G01*
X68613000Y-96147000D02*
X69563000Y-96147000D01*
G75*
G02*
X69813000Y-96397000I0J-250000D01*
G01*
X69813000Y-96897000D01*
G75*
G02*
X69563000Y-97147000I-250000J0D01*
G01*
X68613000Y-97147000D01*
G75*
G02*
X68363000Y-96897000I0J250000D01*
G01*
X68363000Y-96397000D01*
G75*
G02*
X68613000Y-96147000I250000J0D01*
G01*
G37*
%TD*%
M02*
