%TF.GenerationSoftware,KiCad,Pcbnew,(5.1.12)-1*%
%TF.CreationDate,2021-12-13T23:08:49+08:00*%
%TF.ProjectId,PCB_EK-Link_Lite_Dev,5043425f-454b-42d4-9c69-6e6b5f4c6974,rev?*%
%TF.SameCoordinates,Original*%
%TF.FileFunction,Copper,L3,Inr*%
%TF.FilePolarity,Positive*%
%FSLAX46Y46*%
G04 Gerber Fmt 4.6, Leading zero omitted, Abs format (unit mm)*
G04 Created by KiCad (PCBNEW (5.1.12)-1) date 2021-12-13 23:08:49*
%MOMM*%
%LPD*%
G01*
G04 APERTURE LIST*
%TA.AperFunction,NonConductor*%
%ADD10C,0.300000*%
%TD*%
%TA.AperFunction,ComponentPad*%
%ADD11O,1.700000X1.700000*%
%TD*%
%TA.AperFunction,ComponentPad*%
%ADD12R,1.700000X1.700000*%
%TD*%
%TA.AperFunction,ComponentPad*%
%ADD13O,0.900000X1.700000*%
%TD*%
%TA.AperFunction,ComponentPad*%
%ADD14O,0.900000X2.000000*%
%TD*%
%TA.AperFunction,ViaPad*%
%ADD15C,0.800000*%
%TD*%
%TA.AperFunction,Conductor*%
%ADD16C,0.457200*%
%TD*%
%TA.AperFunction,Conductor*%
%ADD17C,0.609600*%
%TD*%
%TA.AperFunction,Conductor*%
%ADD18C,0.203200*%
%TD*%
%TA.AperFunction,Conductor*%
%ADD19C,0.355600*%
%TD*%
%TA.AperFunction,Conductor*%
%ADD20C,0.152400*%
%TD*%
%TA.AperFunction,Conductor*%
%ADD21C,0.254000*%
%TD*%
%TA.AperFunction,Conductor*%
%ADD22C,0.100000*%
%TD*%
%TA.AperFunction,Conductor*%
%ADD23C,0.025400*%
%TD*%
G04 APERTURE END LIST*
D10*
X84153428Y-103588428D02*
X84224857Y-103517000D01*
X84367714Y-103445571D01*
X84724857Y-103445571D01*
X84867714Y-103517000D01*
X84939142Y-103588428D01*
X85010571Y-103731285D01*
X85010571Y-103874142D01*
X84939142Y-104088428D01*
X84082000Y-104945571D01*
X85010571Y-104945571D01*
D11*
%TO.N,GND*%
%TO.C,J4*%
X86360000Y-101600000D03*
%TO.N,/PA8*%
X86360000Y-99060000D03*
%TO.N,/UART1_TX*%
X86360000Y-96520000D03*
%TO.N,/UART1_RX*%
X86360000Y-93980000D03*
%TO.N,/USB_D-*%
X86360000Y-91440000D03*
%TO.N,/USB_D+*%
X86360000Y-88900000D03*
%TO.N,/PA15*%
X86360000Y-86360000D03*
%TO.N,/PB3*%
X86360000Y-83820000D03*
%TO.N,/PB4*%
X86360000Y-81280000D03*
%TO.N,/PB5*%
X86360000Y-78740000D03*
%TO.N,/PB6*%
X86360000Y-76200000D03*
%TO.N,/PB7*%
X86360000Y-73660000D03*
%TO.N,/LINK_nRST*%
X86360000Y-71120000D03*
%TO.N,/LINK_TDI*%
X86360000Y-68580000D03*
%TO.N,/PC13*%
X86360000Y-66040000D03*
%TO.N,/PC14*%
X86360000Y-63500000D03*
%TO.N,/PC15*%
X86360000Y-60960000D03*
%TO.N,+5V*%
X86360000Y-58420000D03*
%TO.N,GND*%
X86360000Y-55880000D03*
D12*
%TO.N,+3V3*%
X86360000Y-53340000D03*
%TD*%
D11*
%TO.N,/VBAT*%
%TO.C,J1*%
X66040000Y-53340000D03*
%TO.N,/LINK_TRST*%
X66040000Y-55880000D03*
%TO.N,/LINK_TCK*%
X66040000Y-58420000D03*
%TO.N,/LINK_TXD*%
X66040000Y-60960000D03*
%TO.N,/LINK_RXD*%
X66040000Y-63500000D03*
%TO.N,/LINK_TDO*%
X66040000Y-66040000D03*
%TO.N,/LINK_TMS*%
X66040000Y-68580000D03*
%TO.N,/PA6*%
X66040000Y-71120000D03*
%TO.N,/PA7*%
X66040000Y-73660000D03*
%TO.N,/PB0*%
X66040000Y-76200000D03*
%TO.N,/PB1*%
X66040000Y-78740000D03*
%TO.N,/PB10*%
X66040000Y-81280000D03*
%TO.N,/PB11*%
X66040000Y-83820000D03*
%TO.N,/PB12*%
X66040000Y-86360000D03*
%TO.N,/PB13*%
X66040000Y-88900000D03*
%TO.N,/PB14*%
X66040000Y-91440000D03*
%TO.N,/PB15*%
X66040000Y-93980000D03*
%TO.N,/NRST*%
X66040000Y-96520000D03*
%TO.N,+3V3*%
X66040000Y-99060000D03*
D12*
%TO.N,GND*%
X66040000Y-101600000D03*
%TD*%
D11*
%TO.N,/BOOT1*%
%TO.C,J7*%
X81788000Y-89662000D03*
D12*
%TO.N,+3V3*%
X79248000Y-89662000D03*
%TD*%
D11*
%TO.N,+3V3*%
%TO.C,J6*%
X81280000Y-67564000D03*
%TO.N,/SWDIO*%
X81280000Y-65024000D03*
%TO.N,/SWCLK*%
X81280000Y-62484000D03*
D12*
%TO.N,GND*%
X81280000Y-59944000D03*
%TD*%
D11*
%TO.N,/BOOT0*%
%TO.C,J5*%
X81788000Y-87122000D03*
D12*
%TO.N,+3V3*%
X79248000Y-87122000D03*
%TD*%
D13*
%TO.N,GND*%
%TO.C,J2*%
X80520000Y-103840000D03*
X71880000Y-103840000D03*
D14*
X80520000Y-99670000D03*
X71880000Y-99670000D03*
%TD*%
D15*
%TO.N,GND*%
X74930000Y-103251000D03*
X76200000Y-103251000D03*
X77470000Y-103251000D03*
X74930000Y-104521000D03*
X76200000Y-104521000D03*
X77470000Y-104521000D03*
X73406000Y-76200000D03*
X75438000Y-73152000D03*
X77470000Y-78740000D03*
X76708000Y-75057000D03*
X71755000Y-82296000D03*
X68798097Y-84133690D03*
X68451000Y-101602000D03*
X75679000Y-67831000D03*
X69850000Y-67056000D03*
X77597000Y-95885000D03*
X76708000Y-62230000D03*
X72390000Y-61849000D03*
X69977000Y-54102000D03*
X70993000Y-91186000D03*
%TO.N,+5V*%
X71628000Y-97917000D03*
X78613000Y-97917000D03*
%TO.N,+3V3*%
X72898000Y-93472000D03*
X73914000Y-88138000D03*
X73660000Y-78486000D03*
X74422000Y-73152000D03*
X78740000Y-78486000D03*
X78994000Y-73279000D03*
X82007379Y-92978802D03*
X69789600Y-71501000D03*
X82634801Y-53382199D03*
%TO.N,/PC14*%
X78740000Y-68834000D03*
%TO.N,/PC15*%
X77533500Y-68643500D03*
%TO.N,/NRST*%
X83224000Y-95592000D03*
X78232000Y-94742000D03*
X69596000Y-88646000D03*
X77089000Y-88519000D03*
X69850000Y-68961000D03*
%TO.N,/VBAT*%
X79248000Y-70739000D03*
%TO.N,Net-(D2-Pad1)*%
X80772000Y-72390000D03*
%TO.N,Net-(D3-Pad1)*%
X71374000Y-69977000D03*
%TO.N,/LINK_TRST*%
X75184000Y-70231000D03*
X80391000Y-57404000D03*
X75057000Y-57277000D03*
%TO.N,/LINK_TCK*%
X74168000Y-70231000D03*
X75565000Y-62230000D03*
X73533000Y-61341000D03*
X71186600Y-61079249D03*
%TO.N,/LINK_TXD*%
X73273571Y-69783786D03*
X69143438Y-64274414D03*
%TO.N,/LINK_RXD*%
X69024500Y-65468500D03*
%TO.N,/LINK_TDO*%
X68199000Y-67310000D03*
X69469000Y-61849000D03*
%TO.N,/LINK_TMS*%
X67754500Y-69850000D03*
X74803000Y-59309000D03*
X78359000Y-61468000D03*
%TO.N,Net-(J2-PadB5)*%
X77978000Y-100838000D03*
%TO.N,Net-(J2-PadA5)*%
X74930000Y-100838000D03*
%TO.N,/PA8*%
X74041000Y-85217000D03*
%TO.N,/UART1_TX*%
X76835000Y-84074000D03*
%TO.N,/UART1_RX*%
X76708000Y-82550000D03*
%TO.N,/USB_D-*%
X77851000Y-82931000D03*
%TO.N,/USB_D+*%
X79629000Y-82550000D03*
%TO.N,/PB5*%
X81788000Y-80518000D03*
X83785337Y-78520663D03*
%TO.N,/LINK_nRST*%
X84836000Y-72390000D03*
X83312000Y-61214000D03*
%TO.N,/LINK_TDI*%
X84963000Y-69850000D03*
X83566000Y-58420000D03*
X75692000Y-58420000D03*
X70231000Y-58420000D03*
%TO.N,/PC13*%
X80010000Y-68707000D03*
X82169000Y-68834000D03*
%TO.N,/BOOT0*%
X75692000Y-76835000D03*
%TO.N,/SWDIO*%
X80137000Y-81407000D03*
%TO.N,/SWCLK*%
X80362500Y-79473500D03*
%TO.N,/BOOT1*%
X69723000Y-77216000D03*
%TD*%
D16*
%TO.N,+5V*%
X84455000Y-60325000D02*
X86360000Y-58420000D01*
X71628000Y-97917000D02*
X77970998Y-97917000D01*
X77970998Y-97917000D02*
X77978000Y-97909998D01*
X84455000Y-96520000D02*
X84455000Y-81153000D01*
X77978000Y-97909998D02*
X82132332Y-97909998D01*
X82132332Y-97909998D02*
X82139334Y-97917000D01*
X82139334Y-97917000D02*
X83058000Y-97917000D01*
X83058000Y-97917000D02*
X84455000Y-96520000D01*
X84455000Y-81153000D02*
X82423000Y-79121000D01*
X82423000Y-79121000D02*
X82423000Y-75184000D01*
X82423000Y-75184000D02*
X83693000Y-73914000D01*
X83693000Y-73914000D02*
X83693000Y-64008000D01*
X83693000Y-64008000D02*
X84455000Y-63246000D01*
X84455000Y-63246000D02*
X84455000Y-60325000D01*
D17*
%TO.N,+3V3*%
X79146000Y-89560000D02*
X79248000Y-89662000D01*
D18*
X74422000Y-77737000D02*
X74409000Y-77737000D01*
X74409000Y-77737000D02*
X73660000Y-78486000D01*
D17*
X79248000Y-89662000D02*
X79248000Y-87122000D01*
D18*
X78996610Y-73281610D02*
X78994000Y-73279000D01*
X78994000Y-73279000D02*
X79077000Y-73196000D01*
D17*
X78867000Y-78613000D02*
X78740000Y-78486000D01*
D19*
X73660000Y-78486000D02*
X74295000Y-77851000D01*
X74422000Y-77724000D02*
X73660000Y-78486000D01*
X74422000Y-74676000D02*
X74422000Y-77724000D01*
X74422000Y-73152000D02*
X74422000Y-74676000D01*
D20*
X81280000Y-67564000D02*
X81788000Y-67564000D01*
X74422000Y-73152000D02*
X73406000Y-73152000D01*
X73406000Y-73152000D02*
X72771000Y-72517000D01*
D19*
X67267801Y-97832199D02*
X67267801Y-84116199D01*
X66040000Y-99060000D02*
X67267801Y-97832199D01*
X81280000Y-67564000D02*
X82296000Y-67564000D01*
X82296000Y-67564000D02*
X82507801Y-67352199D01*
X86317801Y-53382199D02*
X86360000Y-53340000D01*
X82507801Y-53382199D02*
X82634801Y-53382199D01*
D20*
X72771000Y-72517000D02*
X71813536Y-72517000D01*
D19*
X82507801Y-67352199D02*
X82507801Y-53382199D01*
D17*
X72898000Y-93472000D02*
X71882000Y-92456000D01*
X71882000Y-92456000D02*
X70612000Y-92456000D01*
X70612000Y-92456000D02*
X69596000Y-93472000D01*
X69596000Y-93472000D02*
X69596000Y-97282000D01*
X67818000Y-99060000D02*
X66040000Y-99060000D01*
X69596000Y-97282000D02*
X67818000Y-99060000D01*
D21*
X82007379Y-92978802D02*
X76058198Y-92978802D01*
X75565000Y-93472000D02*
X72898000Y-93472000D01*
X76058198Y-92978802D02*
X75565000Y-93472000D01*
D19*
X81795655Y-72517491D02*
X81795655Y-70111655D01*
X81034146Y-73279000D02*
X81795655Y-72517491D01*
X78994000Y-73279000D02*
X81034146Y-73279000D01*
X81280000Y-69596000D02*
X81280000Y-67564000D01*
X81795655Y-70111655D02*
X81280000Y-69596000D01*
X78994000Y-78232000D02*
X78740000Y-78486000D01*
X78994000Y-73279000D02*
X78994000Y-78232000D01*
D20*
X70797536Y-71501000D02*
X71813536Y-72517000D01*
X69789600Y-71501000D02*
X70797536Y-71501000D01*
D19*
X82634801Y-53382199D02*
X86317801Y-53382199D01*
D16*
X73660000Y-78486000D02*
X73660000Y-79248000D01*
X73660000Y-79248000D02*
X74549000Y-80137000D01*
X73025000Y-87249000D02*
X73025000Y-81661000D01*
X73025000Y-81661000D02*
X73088500Y-81597500D01*
X73088500Y-81597500D02*
X74549000Y-80137000D01*
X73914000Y-88138000D02*
X73025000Y-87249000D01*
X78740000Y-79375000D02*
X77978000Y-80137000D01*
X78740000Y-78486000D02*
X78740000Y-79375000D01*
X74549000Y-80137000D02*
X77978000Y-80137000D01*
X78994000Y-73279000D02*
X77724000Y-72009000D01*
X77724000Y-72009000D02*
X75057000Y-72009000D01*
X74422000Y-72644000D02*
X74422000Y-73152000D01*
X75057000Y-72009000D02*
X74422000Y-72644000D01*
D19*
%TO.N,/VBAT*%
X79248000Y-70612000D02*
X79248000Y-70739000D01*
X77604655Y-69992801D02*
X78628801Y-69992801D01*
X76581000Y-65913000D02*
X76581000Y-68969146D01*
X74422000Y-63754000D02*
X76581000Y-65913000D01*
X76581000Y-68969146D02*
X77604655Y-69992801D01*
X69723000Y-63754000D02*
X74422000Y-63754000D01*
X78628801Y-69992801D02*
X79248000Y-70612000D01*
X68453000Y-62484000D02*
X69723000Y-63754000D01*
X68453000Y-55753000D02*
X68453000Y-62484000D01*
X66040000Y-53340000D02*
X68453000Y-55753000D01*
%TD*%
D21*
%TO.N,+3V3*%
X75768200Y-66249673D02*
X75768200Y-66796000D01*
X75577061Y-66796000D01*
X75377102Y-66835774D01*
X75188744Y-66913795D01*
X75019226Y-67027063D01*
X74875063Y-67171226D01*
X74761795Y-67340744D01*
X74683774Y-67529102D01*
X74644000Y-67729061D01*
X74644000Y-67932939D01*
X74683774Y-68132898D01*
X74761795Y-68321256D01*
X74875063Y-68490774D01*
X75019226Y-68634937D01*
X75188744Y-68748205D01*
X75377102Y-68826226D01*
X75577061Y-68866000D01*
X75768201Y-68866000D01*
X75768201Y-68929216D01*
X75764268Y-68969146D01*
X75778570Y-69114352D01*
X75779962Y-69128483D01*
X75793485Y-69173063D01*
X75826438Y-69281695D01*
X75901912Y-69422897D01*
X75950325Y-69481888D01*
X76003484Y-69546663D01*
X76034495Y-69572113D01*
X77001688Y-70539307D01*
X77027138Y-70570318D01*
X77150903Y-70671889D01*
X77292105Y-70747363D01*
X77445318Y-70793840D01*
X77564732Y-70805601D01*
X77564734Y-70805601D01*
X77604655Y-70809533D01*
X77644575Y-70805601D01*
X78213000Y-70805601D01*
X78213000Y-70840939D01*
X78252774Y-71040898D01*
X78330795Y-71229256D01*
X78444063Y-71398774D01*
X78588226Y-71542937D01*
X78757744Y-71656205D01*
X78946102Y-71734226D01*
X79146061Y-71774000D01*
X79349939Y-71774000D01*
X79549898Y-71734226D01*
X79738256Y-71656205D01*
X79907774Y-71542937D01*
X80051937Y-71398774D01*
X80165205Y-71229256D01*
X80243226Y-71040898D01*
X80283000Y-70840939D01*
X80283000Y-70637061D01*
X80243226Y-70437102D01*
X80165205Y-70248744D01*
X80051937Y-70079226D01*
X79907774Y-69935063D01*
X79738256Y-69821795D01*
X79717515Y-69813204D01*
X79708566Y-69807897D01*
X79646865Y-69772298D01*
X79639553Y-69768143D01*
X79584464Y-69737324D01*
X79539705Y-69712097D01*
X79506735Y-69692513D01*
X79480668Y-69675573D01*
X79454874Y-69656880D01*
X79423217Y-69631290D01*
X79414336Y-69623375D01*
X79456059Y-69581652D01*
X79519744Y-69624205D01*
X79708102Y-69702226D01*
X79908061Y-69742000D01*
X80111939Y-69742000D01*
X80311898Y-69702226D01*
X80500256Y-69624205D01*
X80669774Y-69510937D01*
X80813937Y-69366774D01*
X80927205Y-69197256D01*
X81005226Y-69008898D01*
X81015558Y-68956956D01*
X81134000Y-68894787D01*
X81134000Y-68935939D01*
X81152998Y-69031449D01*
X81152998Y-69049000D01*
X81156489Y-69049000D01*
X81173774Y-69135898D01*
X81251795Y-69324256D01*
X81365063Y-69493774D01*
X81509226Y-69637937D01*
X81678744Y-69751205D01*
X81867102Y-69829226D01*
X82067061Y-69869000D01*
X82270939Y-69869000D01*
X82470898Y-69829226D01*
X82659256Y-69751205D01*
X82828774Y-69637937D01*
X82829400Y-69637311D01*
X82829400Y-73556285D01*
X81842346Y-74543341D01*
X81809389Y-74570388D01*
X81755928Y-74635531D01*
X81701469Y-74701889D01*
X81621279Y-74851916D01*
X81571896Y-75014706D01*
X81555222Y-75184000D01*
X81559401Y-75226430D01*
X81559400Y-79078580D01*
X81555222Y-79121000D01*
X81559400Y-79163419D01*
X81571896Y-79290294D01*
X81621278Y-79453083D01*
X81641958Y-79491773D01*
X81486102Y-79522774D01*
X81397500Y-79559474D01*
X81397500Y-79371561D01*
X81357726Y-79171602D01*
X81279705Y-78983244D01*
X81166437Y-78813726D01*
X81022274Y-78669563D01*
X80852756Y-78556295D01*
X80664398Y-78478274D01*
X80464439Y-78438500D01*
X80260561Y-78438500D01*
X80060602Y-78478274D01*
X79872244Y-78556295D01*
X79702726Y-78669563D01*
X79558563Y-78813726D01*
X79445295Y-78983244D01*
X79367274Y-79171602D01*
X79327500Y-79371561D01*
X79327500Y-79575439D01*
X79367274Y-79775398D01*
X79445295Y-79963756D01*
X79558563Y-80133274D01*
X79702726Y-80277437D01*
X79872244Y-80390705D01*
X79894558Y-80399948D01*
X79835102Y-80411774D01*
X79646744Y-80489795D01*
X79477226Y-80603063D01*
X79333063Y-80747226D01*
X79219795Y-80916744D01*
X79141774Y-81105102D01*
X79102000Y-81305061D01*
X79102000Y-81508939D01*
X79128057Y-81639936D01*
X78969226Y-81746063D01*
X78825063Y-81890226D01*
X78711795Y-82059744D01*
X78633774Y-82248102D01*
X78633449Y-82249738D01*
X78510774Y-82127063D01*
X78341256Y-82013795D01*
X78152898Y-81935774D01*
X77952939Y-81896000D01*
X77749061Y-81896000D01*
X77549102Y-81935774D01*
X77543830Y-81937958D01*
X77511937Y-81890226D01*
X77367774Y-81746063D01*
X77198256Y-81632795D01*
X77009898Y-81554774D01*
X76809939Y-81515000D01*
X76606061Y-81515000D01*
X76406102Y-81554774D01*
X76217744Y-81632795D01*
X76048226Y-81746063D01*
X75904063Y-81890226D01*
X75790795Y-82059744D01*
X75712774Y-82248102D01*
X75673000Y-82448061D01*
X75673000Y-82651939D01*
X75712774Y-82851898D01*
X75790795Y-83040256D01*
X75904063Y-83209774D01*
X76048226Y-83353937D01*
X76074078Y-83371211D01*
X76031063Y-83414226D01*
X75917795Y-83583744D01*
X75839774Y-83772102D01*
X75800000Y-83972061D01*
X75800000Y-84175939D01*
X75839774Y-84375898D01*
X75917795Y-84564256D01*
X76031063Y-84733774D01*
X76175226Y-84877937D01*
X76344744Y-84991205D01*
X76533102Y-85069226D01*
X76733061Y-85109000D01*
X76936939Y-85109000D01*
X77136898Y-85069226D01*
X77325256Y-84991205D01*
X77494774Y-84877937D01*
X77638937Y-84733774D01*
X77752205Y-84564256D01*
X77830226Y-84375898D01*
X77870000Y-84175939D01*
X77870000Y-83972061D01*
X77868794Y-83966000D01*
X77952939Y-83966000D01*
X78152898Y-83926226D01*
X78341256Y-83848205D01*
X78510774Y-83734937D01*
X78654937Y-83590774D01*
X78768205Y-83421256D01*
X78846226Y-83232898D01*
X78846551Y-83231262D01*
X78969226Y-83353937D01*
X79138744Y-83467205D01*
X79327102Y-83545226D01*
X79527061Y-83585000D01*
X79730939Y-83585000D01*
X79930898Y-83545226D01*
X80119256Y-83467205D01*
X80288774Y-83353937D01*
X80432937Y-83209774D01*
X80546205Y-83040256D01*
X80624226Y-82851898D01*
X80664000Y-82651939D01*
X80664000Y-82448061D01*
X80637943Y-82317064D01*
X80796774Y-82210937D01*
X80940937Y-82066774D01*
X81054205Y-81897256D01*
X81132226Y-81708898D01*
X81172000Y-81508939D01*
X81172000Y-81351186D01*
X81297744Y-81435205D01*
X81486102Y-81513226D01*
X81686061Y-81553000D01*
X81889939Y-81553000D01*
X82089898Y-81513226D01*
X82278256Y-81435205D01*
X82447774Y-81321937D01*
X82591937Y-81177774D01*
X82705205Y-81008256D01*
X82783226Y-80819898D01*
X82802697Y-80722010D01*
X83591401Y-81510715D01*
X83591400Y-94623906D01*
X83525898Y-94596774D01*
X83325939Y-94557000D01*
X83122061Y-94557000D01*
X82922102Y-94596774D01*
X82733744Y-94674795D01*
X82564226Y-94788063D01*
X82420063Y-94932226D01*
X82306795Y-95101744D01*
X82228774Y-95290102D01*
X82189000Y-95490061D01*
X82189000Y-95693939D01*
X82228774Y-95893898D01*
X82306795Y-96082256D01*
X82420063Y-96251774D01*
X82564226Y-96395937D01*
X82733744Y-96509205D01*
X82922102Y-96587226D01*
X83122061Y-96627000D01*
X83126686Y-96627000D01*
X82700287Y-97053400D01*
X82245845Y-97053400D01*
X82174752Y-97046398D01*
X82132332Y-97042220D01*
X82089912Y-97046398D01*
X79173003Y-97046398D01*
X79103256Y-96999795D01*
X78914898Y-96921774D01*
X78714939Y-96882000D01*
X78511061Y-96882000D01*
X78311102Y-96921774D01*
X78122744Y-96999795D01*
X78052997Y-97046398D01*
X78020417Y-97046398D01*
X77977999Y-97042220D01*
X77935582Y-97046398D01*
X77935580Y-97046398D01*
X77864487Y-97053400D01*
X72421036Y-97053400D01*
X72344542Y-97052669D01*
X72288764Y-97050671D01*
X72250282Y-97047823D01*
X72226688Y-97044861D01*
X72213368Y-97042334D01*
X72203570Y-97039768D01*
X72189853Y-97035181D01*
X72166262Y-97025795D01*
X72138959Y-97013628D01*
X72118256Y-96999795D01*
X71929898Y-96921774D01*
X71729939Y-96882000D01*
X71526061Y-96882000D01*
X71326102Y-96921774D01*
X71137744Y-96999795D01*
X70968226Y-97113063D01*
X70824063Y-97257226D01*
X70710795Y-97426744D01*
X70632774Y-97615102D01*
X70593000Y-97815061D01*
X70593000Y-98018939D01*
X70632774Y-98218898D01*
X70710795Y-98407256D01*
X70824063Y-98576774D01*
X70899677Y-98652388D01*
X70872741Y-98702781D01*
X70810700Y-98907304D01*
X70795000Y-99066707D01*
X70795000Y-100273294D01*
X70810700Y-100432697D01*
X70872742Y-100637220D01*
X70973492Y-100825710D01*
X71109079Y-100990922D01*
X71274291Y-101126509D01*
X71462781Y-101227259D01*
X71667304Y-101289300D01*
X71880000Y-101310249D01*
X72092697Y-101289300D01*
X72297220Y-101227259D01*
X72485710Y-101126509D01*
X72650922Y-100990922D01*
X72734025Y-100889661D01*
X72867111Y-100978586D01*
X73037271Y-101049068D01*
X73217911Y-101085000D01*
X73402089Y-101085000D01*
X73582729Y-101049068D01*
X73752889Y-100978586D01*
X73895000Y-100883631D01*
X73895000Y-100939939D01*
X73934774Y-101139898D01*
X74012795Y-101328256D01*
X74126063Y-101497774D01*
X74270226Y-101641937D01*
X74439744Y-101755205D01*
X74628102Y-101833226D01*
X74828061Y-101873000D01*
X75031939Y-101873000D01*
X75231898Y-101833226D01*
X75420256Y-101755205D01*
X75589774Y-101641937D01*
X75733937Y-101497774D01*
X75847205Y-101328256D01*
X75925226Y-101139898D01*
X75965000Y-100939939D01*
X75965000Y-100736061D01*
X75925226Y-100536102D01*
X75847205Y-100347744D01*
X75733937Y-100178226D01*
X75589774Y-100034063D01*
X75420256Y-99920795D01*
X75231898Y-99842774D01*
X75031939Y-99803000D01*
X74828061Y-99803000D01*
X74628102Y-99842774D01*
X74439744Y-99920795D01*
X74270226Y-100034063D01*
X74245000Y-100059289D01*
X74245000Y-100057911D01*
X74209068Y-99877271D01*
X74138586Y-99707111D01*
X74036262Y-99553972D01*
X73906028Y-99423738D01*
X73752889Y-99321414D01*
X73582729Y-99250932D01*
X73402089Y-99215000D01*
X73217911Y-99215000D01*
X73037271Y-99250932D01*
X72965000Y-99280867D01*
X72965000Y-99066706D01*
X72949300Y-98907303D01*
X72910865Y-98780600D01*
X77928578Y-98780600D01*
X77970998Y-98784778D01*
X78013418Y-98780600D01*
X78038780Y-98778102D01*
X78122744Y-98834205D01*
X78311102Y-98912226D01*
X78511061Y-98952000D01*
X78714939Y-98952000D01*
X78914898Y-98912226D01*
X79103256Y-98834205D01*
X79193961Y-98773598D01*
X79491259Y-98773598D01*
X79450700Y-98907304D01*
X79435000Y-99066707D01*
X79435000Y-99280867D01*
X79362729Y-99250932D01*
X79182089Y-99215000D01*
X78997911Y-99215000D01*
X78817271Y-99250932D01*
X78647111Y-99321414D01*
X78493972Y-99423738D01*
X78363738Y-99553972D01*
X78261414Y-99707111D01*
X78210905Y-99829051D01*
X78079939Y-99803000D01*
X77876061Y-99803000D01*
X77676102Y-99842774D01*
X77487744Y-99920795D01*
X77318226Y-100034063D01*
X77174063Y-100178226D01*
X77060795Y-100347744D01*
X76982774Y-100536102D01*
X76943000Y-100736061D01*
X76943000Y-100939939D01*
X76982774Y-101139898D01*
X77060795Y-101328256D01*
X77174063Y-101497774D01*
X77318226Y-101641937D01*
X77487744Y-101755205D01*
X77676102Y-101833226D01*
X77876061Y-101873000D01*
X78079939Y-101873000D01*
X78279898Y-101833226D01*
X78468256Y-101755205D01*
X78637774Y-101641937D01*
X78781937Y-101497774D01*
X78895205Y-101328256D01*
X78973226Y-101139898D01*
X78984670Y-101082366D01*
X78997911Y-101085000D01*
X79182089Y-101085000D01*
X79362729Y-101049068D01*
X79532889Y-100978586D01*
X79665975Y-100889661D01*
X79749079Y-100990922D01*
X79914291Y-101126509D01*
X80102781Y-101227259D01*
X80307304Y-101289300D01*
X80520000Y-101310249D01*
X80732697Y-101289300D01*
X80937220Y-101227259D01*
X81125710Y-101126509D01*
X81290922Y-100990922D01*
X81426509Y-100825710D01*
X81527259Y-100637220D01*
X81589300Y-100432697D01*
X81605000Y-100273294D01*
X81605000Y-99066706D01*
X81589300Y-98907303D01*
X81548741Y-98773598D01*
X82025821Y-98773598D01*
X82096914Y-98780600D01*
X82096916Y-98780600D01*
X82139333Y-98784778D01*
X82181751Y-98780600D01*
X83015580Y-98780600D01*
X83058000Y-98784778D01*
X83100420Y-98780600D01*
X83227295Y-98768104D01*
X83390084Y-98718722D01*
X83540112Y-98638531D01*
X83671612Y-98530612D01*
X83698663Y-98497650D01*
X85023184Y-97173131D01*
X85044010Y-97223411D01*
X85206525Y-97466632D01*
X85413368Y-97673475D01*
X85587760Y-97790000D01*
X85413368Y-97906525D01*
X85206525Y-98113368D01*
X85044010Y-98356589D01*
X84932068Y-98626842D01*
X84875000Y-98913740D01*
X84875000Y-99206260D01*
X84932068Y-99493158D01*
X85044010Y-99763411D01*
X85206525Y-100006632D01*
X85413368Y-100213475D01*
X85587760Y-100330000D01*
X85413368Y-100446525D01*
X85206525Y-100653368D01*
X85044010Y-100896589D01*
X84932068Y-101166842D01*
X84875000Y-101453740D01*
X84875000Y-101746260D01*
X84932068Y-102033158D01*
X85044010Y-102303411D01*
X85159998Y-102477000D01*
X83082715Y-102477000D01*
X83082715Y-105258000D01*
X80901811Y-105258000D01*
X80937220Y-105247259D01*
X81125710Y-105146509D01*
X81290922Y-105010922D01*
X81426509Y-104845710D01*
X81527259Y-104657220D01*
X81589300Y-104452696D01*
X81605000Y-104293293D01*
X81605000Y-103386706D01*
X81589300Y-103227303D01*
X81527259Y-103022780D01*
X81426509Y-102834290D01*
X81290922Y-102669078D01*
X81125710Y-102533491D01*
X80937219Y-102432741D01*
X80732696Y-102370700D01*
X80520000Y-102349751D01*
X80307303Y-102370700D01*
X80102780Y-102432741D01*
X79914290Y-102533491D01*
X79749078Y-102669078D01*
X79613491Y-102834290D01*
X79512741Y-103022781D01*
X79450700Y-103227304D01*
X79435000Y-103386707D01*
X79435000Y-104293294D01*
X79450700Y-104452697D01*
X79512742Y-104657220D01*
X79613492Y-104845710D01*
X79749079Y-105010922D01*
X79914291Y-105146509D01*
X80102781Y-105247259D01*
X80138190Y-105258000D01*
X78196711Y-105258000D01*
X78273937Y-105180774D01*
X78387205Y-105011256D01*
X78465226Y-104822898D01*
X78505000Y-104622939D01*
X78505000Y-104419061D01*
X78465226Y-104219102D01*
X78387205Y-104030744D01*
X78290490Y-103886000D01*
X78387205Y-103741256D01*
X78465226Y-103552898D01*
X78505000Y-103352939D01*
X78505000Y-103149061D01*
X78465226Y-102949102D01*
X78387205Y-102760744D01*
X78273937Y-102591226D01*
X78129774Y-102447063D01*
X77960256Y-102333795D01*
X77771898Y-102255774D01*
X77571939Y-102216000D01*
X77368061Y-102216000D01*
X77168102Y-102255774D01*
X76979744Y-102333795D01*
X76835000Y-102430510D01*
X76690256Y-102333795D01*
X76501898Y-102255774D01*
X76301939Y-102216000D01*
X76098061Y-102216000D01*
X75898102Y-102255774D01*
X75709744Y-102333795D01*
X75565000Y-102430510D01*
X75420256Y-102333795D01*
X75231898Y-102255774D01*
X75031939Y-102216000D01*
X74828061Y-102216000D01*
X74628102Y-102255774D01*
X74439744Y-102333795D01*
X74270226Y-102447063D01*
X74126063Y-102591226D01*
X74012795Y-102760744D01*
X73934774Y-102949102D01*
X73895000Y-103149061D01*
X73895000Y-103352939D01*
X73934774Y-103552898D01*
X74012795Y-103741256D01*
X74109510Y-103886000D01*
X74012795Y-104030744D01*
X73934774Y-104219102D01*
X73895000Y-104419061D01*
X73895000Y-104622939D01*
X73934774Y-104822898D01*
X74012795Y-105011256D01*
X74126063Y-105180774D01*
X74203289Y-105258000D01*
X72261811Y-105258000D01*
X72297220Y-105247259D01*
X72485710Y-105146509D01*
X72650922Y-105010922D01*
X72786509Y-104845710D01*
X72887259Y-104657220D01*
X72949300Y-104452696D01*
X72965000Y-104293293D01*
X72965000Y-103386706D01*
X72949300Y-103227303D01*
X72887259Y-103022780D01*
X72786509Y-102834290D01*
X72650922Y-102669078D01*
X72485710Y-102533491D01*
X72297219Y-102432741D01*
X72092696Y-102370700D01*
X71880000Y-102349751D01*
X71667303Y-102370700D01*
X71462780Y-102432741D01*
X71274290Y-102533491D01*
X71109078Y-102669078D01*
X70973491Y-102834290D01*
X70872741Y-103022781D01*
X70810700Y-103227304D01*
X70795000Y-103386707D01*
X70795000Y-104293294D01*
X70810700Y-104452697D01*
X70872742Y-104657220D01*
X70973492Y-104845710D01*
X71109079Y-105010922D01*
X71274291Y-105146509D01*
X71462781Y-105247259D01*
X71498190Y-105258000D01*
X66072165Y-105258000D01*
X65922129Y-105243289D01*
X65808751Y-105209058D01*
X65704178Y-105153456D01*
X65612397Y-105078602D01*
X65536900Y-104987342D01*
X65480572Y-104883163D01*
X65445548Y-104770020D01*
X65429989Y-104621980D01*
X65429976Y-103088072D01*
X66890000Y-103088072D01*
X67014482Y-103075812D01*
X67134180Y-103039502D01*
X67244494Y-102980537D01*
X67341185Y-102901185D01*
X67420537Y-102804494D01*
X67479502Y-102694180D01*
X67515812Y-102574482D01*
X67528072Y-102450000D01*
X67528072Y-102078440D01*
X67533795Y-102092256D01*
X67647063Y-102261774D01*
X67791226Y-102405937D01*
X67960744Y-102519205D01*
X68149102Y-102597226D01*
X68349061Y-102637000D01*
X68552939Y-102637000D01*
X68752898Y-102597226D01*
X68941256Y-102519205D01*
X69110774Y-102405937D01*
X69254937Y-102261774D01*
X69368205Y-102092256D01*
X69446226Y-101903898D01*
X69486000Y-101703939D01*
X69486000Y-101500061D01*
X69446226Y-101300102D01*
X69368205Y-101111744D01*
X69254937Y-100942226D01*
X69110774Y-100798063D01*
X68941256Y-100684795D01*
X68752898Y-100606774D01*
X68552939Y-100567000D01*
X68349061Y-100567000D01*
X68149102Y-100606774D01*
X67960744Y-100684795D01*
X67791226Y-100798063D01*
X67647063Y-100942226D01*
X67533795Y-101111744D01*
X67528072Y-101125560D01*
X67528072Y-100750000D01*
X67515812Y-100625518D01*
X67479502Y-100505820D01*
X67420537Y-100395506D01*
X67341185Y-100298815D01*
X67244494Y-100219463D01*
X67134180Y-100160498D01*
X67053534Y-100136034D01*
X67137588Y-100060269D01*
X67311641Y-99826920D01*
X67436825Y-99564099D01*
X67481476Y-99416890D01*
X67360155Y-99187000D01*
X66167000Y-99187000D01*
X66167000Y-99207000D01*
X65913000Y-99207000D01*
X65913000Y-99187000D01*
X65893000Y-99187000D01*
X65893000Y-98933000D01*
X65913000Y-98933000D01*
X65913000Y-98913000D01*
X66167000Y-98913000D01*
X66167000Y-98933000D01*
X67360155Y-98933000D01*
X67481476Y-98703110D01*
X67436825Y-98555901D01*
X67311641Y-98293080D01*
X67137588Y-98059731D01*
X66921355Y-97864822D01*
X66804466Y-97795195D01*
X66986632Y-97673475D01*
X67193475Y-97466632D01*
X67355990Y-97223411D01*
X67467932Y-96953158D01*
X67525000Y-96666260D01*
X67525000Y-96373740D01*
X67467932Y-96086842D01*
X67355990Y-95816589D01*
X67333588Y-95783061D01*
X76562000Y-95783061D01*
X76562000Y-95986939D01*
X76601774Y-96186898D01*
X76679795Y-96375256D01*
X76793063Y-96544774D01*
X76937226Y-96688937D01*
X77106744Y-96802205D01*
X77295102Y-96880226D01*
X77495061Y-96920000D01*
X77698939Y-96920000D01*
X77898898Y-96880226D01*
X78087256Y-96802205D01*
X78256774Y-96688937D01*
X78400937Y-96544774D01*
X78514205Y-96375256D01*
X78592226Y-96186898D01*
X78632000Y-95986939D01*
X78632000Y-95783061D01*
X78616109Y-95703173D01*
X78722256Y-95659205D01*
X78891774Y-95545937D01*
X79035937Y-95401774D01*
X79149205Y-95232256D01*
X79227226Y-95043898D01*
X79267000Y-94843939D01*
X79267000Y-94640061D01*
X79227226Y-94440102D01*
X79149205Y-94251744D01*
X79035937Y-94082226D01*
X78891774Y-93938063D01*
X78722256Y-93824795D01*
X78533898Y-93746774D01*
X78333939Y-93707000D01*
X78130061Y-93707000D01*
X77930102Y-93746774D01*
X77741744Y-93824795D01*
X77572226Y-93938063D01*
X77428063Y-94082226D01*
X77314795Y-94251744D01*
X77236774Y-94440102D01*
X77197000Y-94640061D01*
X77197000Y-94843939D01*
X77212891Y-94923827D01*
X77106744Y-94967795D01*
X76937226Y-95081063D01*
X76793063Y-95225226D01*
X76679795Y-95394744D01*
X76601774Y-95583102D01*
X76562000Y-95783061D01*
X67333588Y-95783061D01*
X67193475Y-95573368D01*
X66986632Y-95366525D01*
X66812240Y-95250000D01*
X66986632Y-95133475D01*
X67193475Y-94926632D01*
X67355990Y-94683411D01*
X67467932Y-94413158D01*
X67525000Y-94126260D01*
X67525000Y-93833740D01*
X67467932Y-93546842D01*
X67355990Y-93276589D01*
X67193475Y-93033368D01*
X66986632Y-92826525D01*
X66812240Y-92710000D01*
X66986632Y-92593475D01*
X67193475Y-92386632D01*
X67355990Y-92143411D01*
X67467932Y-91873158D01*
X67525000Y-91586260D01*
X67525000Y-91293740D01*
X67483292Y-91084061D01*
X69958000Y-91084061D01*
X69958000Y-91287939D01*
X69997774Y-91487898D01*
X70075795Y-91676256D01*
X70189063Y-91845774D01*
X70333226Y-91989937D01*
X70502744Y-92103205D01*
X70691102Y-92181226D01*
X70891061Y-92221000D01*
X71094939Y-92221000D01*
X71294898Y-92181226D01*
X71483256Y-92103205D01*
X71652774Y-91989937D01*
X71796937Y-91845774D01*
X71910205Y-91676256D01*
X71988226Y-91487898D01*
X72028000Y-91287939D01*
X72028000Y-91084061D01*
X71988226Y-90884102D01*
X71910205Y-90695744D01*
X71796937Y-90526226D01*
X71782711Y-90512000D01*
X77759928Y-90512000D01*
X77772188Y-90636482D01*
X77808498Y-90756180D01*
X77867463Y-90866494D01*
X77946815Y-90963185D01*
X78043506Y-91042537D01*
X78153820Y-91101502D01*
X78273518Y-91137812D01*
X78398000Y-91150072D01*
X78962250Y-91147000D01*
X79121000Y-90988250D01*
X79121000Y-89789000D01*
X77921750Y-89789000D01*
X77763000Y-89947750D01*
X77759928Y-90512000D01*
X71782711Y-90512000D01*
X71652774Y-90382063D01*
X71483256Y-90268795D01*
X71294898Y-90190774D01*
X71094939Y-90151000D01*
X70891061Y-90151000D01*
X70691102Y-90190774D01*
X70502744Y-90268795D01*
X70333226Y-90382063D01*
X70189063Y-90526226D01*
X70075795Y-90695744D01*
X69997774Y-90884102D01*
X69958000Y-91084061D01*
X67483292Y-91084061D01*
X67467932Y-91006842D01*
X67355990Y-90736589D01*
X67193475Y-90493368D01*
X66986632Y-90286525D01*
X66812240Y-90170000D01*
X66986632Y-90053475D01*
X67193475Y-89846632D01*
X67355990Y-89603411D01*
X67467932Y-89333158D01*
X67525000Y-89046260D01*
X67525000Y-88753740D01*
X67483292Y-88544061D01*
X68561000Y-88544061D01*
X68561000Y-88747939D01*
X68600774Y-88947898D01*
X68678795Y-89136256D01*
X68792063Y-89305774D01*
X68936226Y-89449937D01*
X69105744Y-89563205D01*
X69294102Y-89641226D01*
X69494061Y-89681000D01*
X69697939Y-89681000D01*
X69897898Y-89641226D01*
X70086256Y-89563205D01*
X70255774Y-89449937D01*
X70399937Y-89305774D01*
X70513205Y-89136256D01*
X70591226Y-88947898D01*
X70631000Y-88747939D01*
X70631000Y-88544061D01*
X70605739Y-88417061D01*
X76054000Y-88417061D01*
X76054000Y-88620939D01*
X76093774Y-88820898D01*
X76171795Y-89009256D01*
X76285063Y-89178774D01*
X76429226Y-89322937D01*
X76598744Y-89436205D01*
X76787102Y-89514226D01*
X76987061Y-89554000D01*
X77190939Y-89554000D01*
X77390898Y-89514226D01*
X77579256Y-89436205D01*
X77748774Y-89322937D01*
X77762634Y-89309077D01*
X77763000Y-89376250D01*
X77921750Y-89535000D01*
X79121000Y-89535000D01*
X79121000Y-87249000D01*
X77921750Y-87249000D01*
X77763000Y-87407750D01*
X77761259Y-87727548D01*
X77748774Y-87715063D01*
X77579256Y-87601795D01*
X77390898Y-87523774D01*
X77190939Y-87484000D01*
X76987061Y-87484000D01*
X76787102Y-87523774D01*
X76598744Y-87601795D01*
X76429226Y-87715063D01*
X76285063Y-87859226D01*
X76171795Y-88028744D01*
X76093774Y-88217102D01*
X76054000Y-88417061D01*
X70605739Y-88417061D01*
X70591226Y-88344102D01*
X70513205Y-88155744D01*
X70399937Y-87986226D01*
X70255774Y-87842063D01*
X70086256Y-87728795D01*
X69897898Y-87650774D01*
X69697939Y-87611000D01*
X69494061Y-87611000D01*
X69294102Y-87650774D01*
X69105744Y-87728795D01*
X68936226Y-87842063D01*
X68792063Y-87986226D01*
X68678795Y-88155744D01*
X68600774Y-88344102D01*
X68561000Y-88544061D01*
X67483292Y-88544061D01*
X67467932Y-88466842D01*
X67355990Y-88196589D01*
X67193475Y-87953368D01*
X66986632Y-87746525D01*
X66812240Y-87630000D01*
X66986632Y-87513475D01*
X67193475Y-87306632D01*
X67355990Y-87063411D01*
X67467932Y-86793158D01*
X67525000Y-86506260D01*
X67525000Y-86272000D01*
X77759928Y-86272000D01*
X77763000Y-86836250D01*
X77921750Y-86995000D01*
X79121000Y-86995000D01*
X79121000Y-85795750D01*
X79375000Y-85795750D01*
X79375000Y-86995000D01*
X79395000Y-86995000D01*
X79395000Y-87249000D01*
X79375000Y-87249000D01*
X79375000Y-89535000D01*
X79395000Y-89535000D01*
X79395000Y-89789000D01*
X79375000Y-89789000D01*
X79375000Y-90988250D01*
X79533750Y-91147000D01*
X80098000Y-91150072D01*
X80222482Y-91137812D01*
X80342180Y-91101502D01*
X80452494Y-91042537D01*
X80549185Y-90963185D01*
X80628537Y-90866494D01*
X80687502Y-90756180D01*
X80709513Y-90683620D01*
X80841368Y-90815475D01*
X81084589Y-90977990D01*
X81354842Y-91089932D01*
X81641740Y-91147000D01*
X81934260Y-91147000D01*
X82221158Y-91089932D01*
X82491411Y-90977990D01*
X82734632Y-90815475D01*
X82941475Y-90608632D01*
X83103990Y-90365411D01*
X83215932Y-90095158D01*
X83273000Y-89808260D01*
X83273000Y-89515740D01*
X83215932Y-89228842D01*
X83103990Y-88958589D01*
X82941475Y-88715368D01*
X82734632Y-88508525D01*
X82560240Y-88392000D01*
X82734632Y-88275475D01*
X82941475Y-88068632D01*
X83103990Y-87825411D01*
X83215932Y-87555158D01*
X83273000Y-87268260D01*
X83273000Y-86975740D01*
X83215932Y-86688842D01*
X83103990Y-86418589D01*
X82941475Y-86175368D01*
X82734632Y-85968525D01*
X82491411Y-85806010D01*
X82221158Y-85694068D01*
X81934260Y-85637000D01*
X81641740Y-85637000D01*
X81354842Y-85694068D01*
X81084589Y-85806010D01*
X80841368Y-85968525D01*
X80709513Y-86100380D01*
X80687502Y-86027820D01*
X80628537Y-85917506D01*
X80549185Y-85820815D01*
X80452494Y-85741463D01*
X80342180Y-85682498D01*
X80222482Y-85646188D01*
X80098000Y-85633928D01*
X79533750Y-85637000D01*
X79375000Y-85795750D01*
X79121000Y-85795750D01*
X78962250Y-85637000D01*
X78398000Y-85633928D01*
X78273518Y-85646188D01*
X78153820Y-85682498D01*
X78043506Y-85741463D01*
X77946815Y-85820815D01*
X77867463Y-85917506D01*
X77808498Y-86027820D01*
X77772188Y-86147518D01*
X77759928Y-86272000D01*
X67525000Y-86272000D01*
X67525000Y-86213740D01*
X67467932Y-85926842D01*
X67355990Y-85656589D01*
X67193475Y-85413368D01*
X66986632Y-85206525D01*
X66812240Y-85090000D01*
X66986632Y-84973475D01*
X67193475Y-84766632D01*
X67355990Y-84523411D01*
X67467932Y-84253158D01*
X67511972Y-84031751D01*
X67763097Y-84031751D01*
X67763097Y-84235629D01*
X67802871Y-84435588D01*
X67880892Y-84623946D01*
X67994160Y-84793464D01*
X68138323Y-84937627D01*
X68307841Y-85050895D01*
X68496199Y-85128916D01*
X68696158Y-85168690D01*
X68900036Y-85168690D01*
X69099995Y-85128916D01*
X69133443Y-85115061D01*
X73006000Y-85115061D01*
X73006000Y-85318939D01*
X73045774Y-85518898D01*
X73123795Y-85707256D01*
X73237063Y-85876774D01*
X73381226Y-86020937D01*
X73550744Y-86134205D01*
X73739102Y-86212226D01*
X73939061Y-86252000D01*
X74142939Y-86252000D01*
X74342898Y-86212226D01*
X74531256Y-86134205D01*
X74700774Y-86020937D01*
X74844937Y-85876774D01*
X74958205Y-85707256D01*
X75036226Y-85518898D01*
X75076000Y-85318939D01*
X75076000Y-85115061D01*
X75036226Y-84915102D01*
X74958205Y-84726744D01*
X74844937Y-84557226D01*
X74700774Y-84413063D01*
X74531256Y-84299795D01*
X74342898Y-84221774D01*
X74142939Y-84182000D01*
X73939061Y-84182000D01*
X73739102Y-84221774D01*
X73550744Y-84299795D01*
X73381226Y-84413063D01*
X73237063Y-84557226D01*
X73123795Y-84726744D01*
X73045774Y-84915102D01*
X73006000Y-85115061D01*
X69133443Y-85115061D01*
X69288353Y-85050895D01*
X69457871Y-84937627D01*
X69602034Y-84793464D01*
X69715302Y-84623946D01*
X69793323Y-84435588D01*
X69833097Y-84235629D01*
X69833097Y-84031751D01*
X69793323Y-83831792D01*
X69715302Y-83643434D01*
X69602034Y-83473916D01*
X69457871Y-83329753D01*
X69288353Y-83216485D01*
X69099995Y-83138464D01*
X68900036Y-83098690D01*
X68696158Y-83098690D01*
X68496199Y-83138464D01*
X68307841Y-83216485D01*
X68138323Y-83329753D01*
X67994160Y-83473916D01*
X67880892Y-83643434D01*
X67802871Y-83831792D01*
X67763097Y-84031751D01*
X67511972Y-84031751D01*
X67525000Y-83966260D01*
X67525000Y-83673740D01*
X67467932Y-83386842D01*
X67355990Y-83116589D01*
X67193475Y-82873368D01*
X66986632Y-82666525D01*
X66812240Y-82550000D01*
X66986632Y-82433475D01*
X67193475Y-82226632D01*
X67215238Y-82194061D01*
X70720000Y-82194061D01*
X70720000Y-82397939D01*
X70759774Y-82597898D01*
X70837795Y-82786256D01*
X70951063Y-82955774D01*
X71095226Y-83099937D01*
X71264744Y-83213205D01*
X71453102Y-83291226D01*
X71653061Y-83331000D01*
X71856939Y-83331000D01*
X72056898Y-83291226D01*
X72245256Y-83213205D01*
X72414774Y-83099937D01*
X72558937Y-82955774D01*
X72672205Y-82786256D01*
X72750226Y-82597898D01*
X72790000Y-82397939D01*
X72790000Y-82194061D01*
X72750226Y-81994102D01*
X72672205Y-81805744D01*
X72558937Y-81636226D01*
X72414774Y-81492063D01*
X72245256Y-81378795D01*
X72056898Y-81300774D01*
X71856939Y-81261000D01*
X71653061Y-81261000D01*
X71453102Y-81300774D01*
X71264744Y-81378795D01*
X71095226Y-81492063D01*
X70951063Y-81636226D01*
X70837795Y-81805744D01*
X70759774Y-81994102D01*
X70720000Y-82194061D01*
X67215238Y-82194061D01*
X67355990Y-81983411D01*
X67467932Y-81713158D01*
X67525000Y-81426260D01*
X67525000Y-81133740D01*
X67467932Y-80846842D01*
X67355990Y-80576589D01*
X67193475Y-80333368D01*
X66986632Y-80126525D01*
X66812240Y-80010000D01*
X66986632Y-79893475D01*
X67193475Y-79686632D01*
X67355990Y-79443411D01*
X67467932Y-79173158D01*
X67525000Y-78886260D01*
X67525000Y-78638061D01*
X76435000Y-78638061D01*
X76435000Y-78841939D01*
X76474774Y-79041898D01*
X76552795Y-79230256D01*
X76666063Y-79399774D01*
X76810226Y-79543937D01*
X76979744Y-79657205D01*
X77168102Y-79735226D01*
X77368061Y-79775000D01*
X77571939Y-79775000D01*
X77771898Y-79735226D01*
X77960256Y-79657205D01*
X78129774Y-79543937D01*
X78273937Y-79399774D01*
X78387205Y-79230256D01*
X78465226Y-79041898D01*
X78505000Y-78841939D01*
X78505000Y-78638061D01*
X78465226Y-78438102D01*
X78387205Y-78249744D01*
X78273937Y-78080226D01*
X78129774Y-77936063D01*
X77960256Y-77822795D01*
X77771898Y-77744774D01*
X77571939Y-77705000D01*
X77368061Y-77705000D01*
X77168102Y-77744774D01*
X76979744Y-77822795D01*
X76810226Y-77936063D01*
X76666063Y-78080226D01*
X76552795Y-78249744D01*
X76474774Y-78438102D01*
X76435000Y-78638061D01*
X67525000Y-78638061D01*
X67525000Y-78593740D01*
X67467932Y-78306842D01*
X67355990Y-78036589D01*
X67193475Y-77793368D01*
X66986632Y-77586525D01*
X66812240Y-77470000D01*
X66986632Y-77353475D01*
X67193475Y-77146632D01*
X67215238Y-77114061D01*
X68688000Y-77114061D01*
X68688000Y-77317939D01*
X68727774Y-77517898D01*
X68805795Y-77706256D01*
X68919063Y-77875774D01*
X69063226Y-78019937D01*
X69232744Y-78133205D01*
X69421102Y-78211226D01*
X69621061Y-78251000D01*
X69824939Y-78251000D01*
X70024898Y-78211226D01*
X70213256Y-78133205D01*
X70382774Y-78019937D01*
X70526937Y-77875774D01*
X70640205Y-77706256D01*
X70718226Y-77517898D01*
X70758000Y-77317939D01*
X70758000Y-77114061D01*
X70718226Y-76914102D01*
X70640205Y-76725744D01*
X70526937Y-76556226D01*
X70382774Y-76412063D01*
X70213256Y-76298795D01*
X70024898Y-76220774D01*
X69824939Y-76181000D01*
X69621061Y-76181000D01*
X69421102Y-76220774D01*
X69232744Y-76298795D01*
X69063226Y-76412063D01*
X68919063Y-76556226D01*
X68805795Y-76725744D01*
X68727774Y-76914102D01*
X68688000Y-77114061D01*
X67215238Y-77114061D01*
X67355990Y-76903411D01*
X67467932Y-76633158D01*
X67525000Y-76346260D01*
X67525000Y-76098061D01*
X72371000Y-76098061D01*
X72371000Y-76301939D01*
X72410774Y-76501898D01*
X72488795Y-76690256D01*
X72602063Y-76859774D01*
X72746226Y-77003937D01*
X72915744Y-77117205D01*
X73104102Y-77195226D01*
X73304061Y-77235000D01*
X73507939Y-77235000D01*
X73707898Y-77195226D01*
X73896256Y-77117205D01*
X74065774Y-77003937D01*
X74209937Y-76859774D01*
X74294603Y-76733061D01*
X74657000Y-76733061D01*
X74657000Y-76936939D01*
X74696774Y-77136898D01*
X74774795Y-77325256D01*
X74888063Y-77494774D01*
X75032226Y-77638937D01*
X75201744Y-77752205D01*
X75390102Y-77830226D01*
X75590061Y-77870000D01*
X75793939Y-77870000D01*
X75993898Y-77830226D01*
X76182256Y-77752205D01*
X76351774Y-77638937D01*
X76495937Y-77494774D01*
X76609205Y-77325256D01*
X76687226Y-77136898D01*
X76727000Y-76936939D01*
X76727000Y-76733061D01*
X76687226Y-76533102D01*
X76609205Y-76344744D01*
X76495937Y-76175226D01*
X76351774Y-76031063D01*
X76346495Y-76027536D01*
X76406102Y-76052226D01*
X76606061Y-76092000D01*
X76809939Y-76092000D01*
X77009898Y-76052226D01*
X77198256Y-75974205D01*
X77367774Y-75860937D01*
X77511937Y-75716774D01*
X77625205Y-75547256D01*
X77703226Y-75358898D01*
X77743000Y-75158939D01*
X77743000Y-74955061D01*
X77703226Y-74755102D01*
X77625205Y-74566744D01*
X77511937Y-74397226D01*
X77367774Y-74253063D01*
X77198256Y-74139795D01*
X77009898Y-74061774D01*
X76809939Y-74022000D01*
X76606061Y-74022000D01*
X76406102Y-74061774D01*
X76217744Y-74139795D01*
X76048226Y-74253063D01*
X75904063Y-74397226D01*
X75790795Y-74566744D01*
X75712774Y-74755102D01*
X75673000Y-74955061D01*
X75673000Y-75158939D01*
X75712774Y-75358898D01*
X75790795Y-75547256D01*
X75904063Y-75716774D01*
X76048226Y-75860937D01*
X76053505Y-75864464D01*
X75993898Y-75839774D01*
X75793939Y-75800000D01*
X75590061Y-75800000D01*
X75390102Y-75839774D01*
X75201744Y-75917795D01*
X75032226Y-76031063D01*
X74888063Y-76175226D01*
X74774795Y-76344744D01*
X74696774Y-76533102D01*
X74657000Y-76733061D01*
X74294603Y-76733061D01*
X74323205Y-76690256D01*
X74401226Y-76501898D01*
X74441000Y-76301939D01*
X74441000Y-76098061D01*
X74401226Y-75898102D01*
X74323205Y-75709744D01*
X74209937Y-75540226D01*
X74065774Y-75396063D01*
X73896256Y-75282795D01*
X73707898Y-75204774D01*
X73507939Y-75165000D01*
X73304061Y-75165000D01*
X73104102Y-75204774D01*
X72915744Y-75282795D01*
X72746226Y-75396063D01*
X72602063Y-75540226D01*
X72488795Y-75709744D01*
X72410774Y-75898102D01*
X72371000Y-76098061D01*
X67525000Y-76098061D01*
X67525000Y-76053740D01*
X67467932Y-75766842D01*
X67355990Y-75496589D01*
X67193475Y-75253368D01*
X66986632Y-75046525D01*
X66812240Y-74930000D01*
X66986632Y-74813475D01*
X67193475Y-74606632D01*
X67355990Y-74363411D01*
X67467932Y-74093158D01*
X67525000Y-73806260D01*
X67525000Y-73513740D01*
X67467932Y-73226842D01*
X67394708Y-73050061D01*
X74403000Y-73050061D01*
X74403000Y-73253939D01*
X74442774Y-73453898D01*
X74520795Y-73642256D01*
X74634063Y-73811774D01*
X74778226Y-73955937D01*
X74947744Y-74069205D01*
X75136102Y-74147226D01*
X75336061Y-74187000D01*
X75539939Y-74187000D01*
X75739898Y-74147226D01*
X75928256Y-74069205D01*
X76097774Y-73955937D01*
X76241937Y-73811774D01*
X76355205Y-73642256D01*
X76433226Y-73453898D01*
X76473000Y-73253939D01*
X76473000Y-73050061D01*
X76433226Y-72850102D01*
X76355205Y-72661744D01*
X76241937Y-72492226D01*
X76097774Y-72348063D01*
X76007975Y-72288061D01*
X79737000Y-72288061D01*
X79737000Y-72491939D01*
X79776774Y-72691898D01*
X79854795Y-72880256D01*
X79968063Y-73049774D01*
X80112226Y-73193937D01*
X80281744Y-73307205D01*
X80470102Y-73385226D01*
X80670061Y-73425000D01*
X80873939Y-73425000D01*
X81073898Y-73385226D01*
X81262256Y-73307205D01*
X81431774Y-73193937D01*
X81575937Y-73049774D01*
X81689205Y-72880256D01*
X81767226Y-72691898D01*
X81807000Y-72491939D01*
X81807000Y-72288061D01*
X81767226Y-72088102D01*
X81689205Y-71899744D01*
X81575937Y-71730226D01*
X81431774Y-71586063D01*
X81262256Y-71472795D01*
X81073898Y-71394774D01*
X80873939Y-71355000D01*
X80670061Y-71355000D01*
X80470102Y-71394774D01*
X80281744Y-71472795D01*
X80112226Y-71586063D01*
X79968063Y-71730226D01*
X79854795Y-71899744D01*
X79776774Y-72088102D01*
X79737000Y-72288061D01*
X76007975Y-72288061D01*
X75928256Y-72234795D01*
X75739898Y-72156774D01*
X75539939Y-72117000D01*
X75336061Y-72117000D01*
X75136102Y-72156774D01*
X74947744Y-72234795D01*
X74778226Y-72348063D01*
X74634063Y-72492226D01*
X74520795Y-72661744D01*
X74442774Y-72850102D01*
X74403000Y-73050061D01*
X67394708Y-73050061D01*
X67355990Y-72956589D01*
X67193475Y-72713368D01*
X66986632Y-72506525D01*
X66812240Y-72390000D01*
X66986632Y-72273475D01*
X67193475Y-72066632D01*
X67355990Y-71823411D01*
X67467932Y-71553158D01*
X67525000Y-71266260D01*
X67525000Y-70973740D01*
X67501366Y-70854926D01*
X67652561Y-70885000D01*
X67856439Y-70885000D01*
X68056398Y-70845226D01*
X68244756Y-70767205D01*
X68414274Y-70653937D01*
X68558437Y-70509774D01*
X68671705Y-70340256D01*
X68749726Y-70151898D01*
X68789500Y-69951939D01*
X68789500Y-69748061D01*
X68749726Y-69548102D01*
X68671705Y-69359744D01*
X68558437Y-69190226D01*
X68414274Y-69046063D01*
X68244756Y-68932795D01*
X68056398Y-68854774D01*
X67856439Y-68815000D01*
X67652561Y-68815000D01*
X67501366Y-68845074D01*
X67525000Y-68726260D01*
X67525000Y-68433740D01*
X67467932Y-68146842D01*
X67393814Y-67967905D01*
X67395063Y-67969774D01*
X67539226Y-68113937D01*
X67708744Y-68227205D01*
X67897102Y-68305226D01*
X68097061Y-68345000D01*
X68300939Y-68345000D01*
X68500898Y-68305226D01*
X68689256Y-68227205D01*
X68858774Y-68113937D01*
X69002937Y-67969774D01*
X69116205Y-67800256D01*
X69120405Y-67790116D01*
X69190226Y-67859937D01*
X69359744Y-67973205D01*
X69444953Y-68008500D01*
X69359744Y-68043795D01*
X69190226Y-68157063D01*
X69046063Y-68301226D01*
X68932795Y-68470744D01*
X68854774Y-68659102D01*
X68815000Y-68859061D01*
X68815000Y-69062939D01*
X68854774Y-69262898D01*
X68932795Y-69451256D01*
X69046063Y-69620774D01*
X69190226Y-69764937D01*
X69359744Y-69878205D01*
X69548102Y-69956226D01*
X69748061Y-69996000D01*
X69951939Y-69996000D01*
X70151898Y-69956226D01*
X70339000Y-69878725D01*
X70339000Y-70078939D01*
X70378774Y-70278898D01*
X70456795Y-70467256D01*
X70570063Y-70636774D01*
X70714226Y-70780937D01*
X70883744Y-70894205D01*
X71072102Y-70972226D01*
X71272061Y-71012000D01*
X71475939Y-71012000D01*
X71675898Y-70972226D01*
X71864256Y-70894205D01*
X72033774Y-70780937D01*
X72177937Y-70636774D01*
X72291205Y-70467256D01*
X72365546Y-70287781D01*
X72469634Y-70443560D01*
X72613797Y-70587723D01*
X72783315Y-70700991D01*
X72971673Y-70779012D01*
X73171632Y-70818786D01*
X73315962Y-70818786D01*
X73364063Y-70890774D01*
X73508226Y-71034937D01*
X73677744Y-71148205D01*
X73866102Y-71226226D01*
X74066061Y-71266000D01*
X74269939Y-71266000D01*
X74469898Y-71226226D01*
X74658256Y-71148205D01*
X74676000Y-71136349D01*
X74693744Y-71148205D01*
X74882102Y-71226226D01*
X75082061Y-71266000D01*
X75285939Y-71266000D01*
X75485898Y-71226226D01*
X75674256Y-71148205D01*
X75843774Y-71034937D01*
X75987937Y-70890774D01*
X76101205Y-70721256D01*
X76179226Y-70532898D01*
X76219000Y-70332939D01*
X76219000Y-70129061D01*
X76179226Y-69929102D01*
X76101205Y-69740744D01*
X75987937Y-69571226D01*
X75843774Y-69427063D01*
X75674256Y-69313795D01*
X75485898Y-69235774D01*
X75285939Y-69196000D01*
X75082061Y-69196000D01*
X74882102Y-69235774D01*
X74693744Y-69313795D01*
X74676000Y-69325651D01*
X74658256Y-69313795D01*
X74469898Y-69235774D01*
X74269939Y-69196000D01*
X74125609Y-69196000D01*
X74077508Y-69124012D01*
X73933345Y-68979849D01*
X73763827Y-68866581D01*
X73575469Y-68788560D01*
X73375510Y-68748786D01*
X73171632Y-68748786D01*
X72971673Y-68788560D01*
X72783315Y-68866581D01*
X72613797Y-68979849D01*
X72469634Y-69124012D01*
X72356366Y-69293530D01*
X72282025Y-69473005D01*
X72177937Y-69317226D01*
X72033774Y-69173063D01*
X71864256Y-69059795D01*
X71675898Y-68981774D01*
X71475939Y-68942000D01*
X71272061Y-68942000D01*
X71072102Y-68981774D01*
X70885000Y-69059275D01*
X70885000Y-68859061D01*
X70845226Y-68659102D01*
X70767205Y-68470744D01*
X70653937Y-68301226D01*
X70509774Y-68157063D01*
X70340256Y-68043795D01*
X70255047Y-68008500D01*
X70340256Y-67973205D01*
X70509774Y-67859937D01*
X70653937Y-67715774D01*
X70767205Y-67546256D01*
X70845226Y-67357898D01*
X70885000Y-67157939D01*
X70885000Y-66954061D01*
X70845226Y-66754102D01*
X70767205Y-66565744D01*
X70653937Y-66396226D01*
X70509774Y-66252063D01*
X70340256Y-66138795D01*
X70151898Y-66060774D01*
X69951939Y-66021000D01*
X69900115Y-66021000D01*
X69941705Y-65958756D01*
X70019726Y-65770398D01*
X70059500Y-65570439D01*
X70059500Y-65366561D01*
X70019726Y-65166602D01*
X69941705Y-64978244D01*
X69926330Y-64955233D01*
X69947375Y-64934188D01*
X70060643Y-64764670D01*
X70138664Y-64576312D01*
X70140556Y-64566800D01*
X74085328Y-64566800D01*
X75768200Y-66249673D01*
%TA.AperFunction,Conductor*%
D22*
G36*
X75768200Y-66249673D02*
G01*
X75768200Y-66796000D01*
X75577061Y-66796000D01*
X75377102Y-66835774D01*
X75188744Y-66913795D01*
X75019226Y-67027063D01*
X74875063Y-67171226D01*
X74761795Y-67340744D01*
X74683774Y-67529102D01*
X74644000Y-67729061D01*
X74644000Y-67932939D01*
X74683774Y-68132898D01*
X74761795Y-68321256D01*
X74875063Y-68490774D01*
X75019226Y-68634937D01*
X75188744Y-68748205D01*
X75377102Y-68826226D01*
X75577061Y-68866000D01*
X75768201Y-68866000D01*
X75768201Y-68929216D01*
X75764268Y-68969146D01*
X75778570Y-69114352D01*
X75779962Y-69128483D01*
X75793485Y-69173063D01*
X75826438Y-69281695D01*
X75901912Y-69422897D01*
X75950325Y-69481888D01*
X76003484Y-69546663D01*
X76034495Y-69572113D01*
X77001688Y-70539307D01*
X77027138Y-70570318D01*
X77150903Y-70671889D01*
X77292105Y-70747363D01*
X77445318Y-70793840D01*
X77564732Y-70805601D01*
X77564734Y-70805601D01*
X77604655Y-70809533D01*
X77644575Y-70805601D01*
X78213000Y-70805601D01*
X78213000Y-70840939D01*
X78252774Y-71040898D01*
X78330795Y-71229256D01*
X78444063Y-71398774D01*
X78588226Y-71542937D01*
X78757744Y-71656205D01*
X78946102Y-71734226D01*
X79146061Y-71774000D01*
X79349939Y-71774000D01*
X79549898Y-71734226D01*
X79738256Y-71656205D01*
X79907774Y-71542937D01*
X80051937Y-71398774D01*
X80165205Y-71229256D01*
X80243226Y-71040898D01*
X80283000Y-70840939D01*
X80283000Y-70637061D01*
X80243226Y-70437102D01*
X80165205Y-70248744D01*
X80051937Y-70079226D01*
X79907774Y-69935063D01*
X79738256Y-69821795D01*
X79717515Y-69813204D01*
X79708566Y-69807897D01*
X79646865Y-69772298D01*
X79639553Y-69768143D01*
X79584464Y-69737324D01*
X79539705Y-69712097D01*
X79506735Y-69692513D01*
X79480668Y-69675573D01*
X79454874Y-69656880D01*
X79423217Y-69631290D01*
X79414336Y-69623375D01*
X79456059Y-69581652D01*
X79519744Y-69624205D01*
X79708102Y-69702226D01*
X79908061Y-69742000D01*
X80111939Y-69742000D01*
X80311898Y-69702226D01*
X80500256Y-69624205D01*
X80669774Y-69510937D01*
X80813937Y-69366774D01*
X80927205Y-69197256D01*
X81005226Y-69008898D01*
X81015558Y-68956956D01*
X81134000Y-68894787D01*
X81134000Y-68935939D01*
X81152998Y-69031449D01*
X81152998Y-69049000D01*
X81156489Y-69049000D01*
X81173774Y-69135898D01*
X81251795Y-69324256D01*
X81365063Y-69493774D01*
X81509226Y-69637937D01*
X81678744Y-69751205D01*
X81867102Y-69829226D01*
X82067061Y-69869000D01*
X82270939Y-69869000D01*
X82470898Y-69829226D01*
X82659256Y-69751205D01*
X82828774Y-69637937D01*
X82829400Y-69637311D01*
X82829400Y-73556285D01*
X81842346Y-74543341D01*
X81809389Y-74570388D01*
X81755928Y-74635531D01*
X81701469Y-74701889D01*
X81621279Y-74851916D01*
X81571896Y-75014706D01*
X81555222Y-75184000D01*
X81559401Y-75226430D01*
X81559400Y-79078580D01*
X81555222Y-79121000D01*
X81559400Y-79163419D01*
X81571896Y-79290294D01*
X81621278Y-79453083D01*
X81641958Y-79491773D01*
X81486102Y-79522774D01*
X81397500Y-79559474D01*
X81397500Y-79371561D01*
X81357726Y-79171602D01*
X81279705Y-78983244D01*
X81166437Y-78813726D01*
X81022274Y-78669563D01*
X80852756Y-78556295D01*
X80664398Y-78478274D01*
X80464439Y-78438500D01*
X80260561Y-78438500D01*
X80060602Y-78478274D01*
X79872244Y-78556295D01*
X79702726Y-78669563D01*
X79558563Y-78813726D01*
X79445295Y-78983244D01*
X79367274Y-79171602D01*
X79327500Y-79371561D01*
X79327500Y-79575439D01*
X79367274Y-79775398D01*
X79445295Y-79963756D01*
X79558563Y-80133274D01*
X79702726Y-80277437D01*
X79872244Y-80390705D01*
X79894558Y-80399948D01*
X79835102Y-80411774D01*
X79646744Y-80489795D01*
X79477226Y-80603063D01*
X79333063Y-80747226D01*
X79219795Y-80916744D01*
X79141774Y-81105102D01*
X79102000Y-81305061D01*
X79102000Y-81508939D01*
X79128057Y-81639936D01*
X78969226Y-81746063D01*
X78825063Y-81890226D01*
X78711795Y-82059744D01*
X78633774Y-82248102D01*
X78633449Y-82249738D01*
X78510774Y-82127063D01*
X78341256Y-82013795D01*
X78152898Y-81935774D01*
X77952939Y-81896000D01*
X77749061Y-81896000D01*
X77549102Y-81935774D01*
X77543830Y-81937958D01*
X77511937Y-81890226D01*
X77367774Y-81746063D01*
X77198256Y-81632795D01*
X77009898Y-81554774D01*
X76809939Y-81515000D01*
X76606061Y-81515000D01*
X76406102Y-81554774D01*
X76217744Y-81632795D01*
X76048226Y-81746063D01*
X75904063Y-81890226D01*
X75790795Y-82059744D01*
X75712774Y-82248102D01*
X75673000Y-82448061D01*
X75673000Y-82651939D01*
X75712774Y-82851898D01*
X75790795Y-83040256D01*
X75904063Y-83209774D01*
X76048226Y-83353937D01*
X76074078Y-83371211D01*
X76031063Y-83414226D01*
X75917795Y-83583744D01*
X75839774Y-83772102D01*
X75800000Y-83972061D01*
X75800000Y-84175939D01*
X75839774Y-84375898D01*
X75917795Y-84564256D01*
X76031063Y-84733774D01*
X76175226Y-84877937D01*
X76344744Y-84991205D01*
X76533102Y-85069226D01*
X76733061Y-85109000D01*
X76936939Y-85109000D01*
X77136898Y-85069226D01*
X77325256Y-84991205D01*
X77494774Y-84877937D01*
X77638937Y-84733774D01*
X77752205Y-84564256D01*
X77830226Y-84375898D01*
X77870000Y-84175939D01*
X77870000Y-83972061D01*
X77868794Y-83966000D01*
X77952939Y-83966000D01*
X78152898Y-83926226D01*
X78341256Y-83848205D01*
X78510774Y-83734937D01*
X78654937Y-83590774D01*
X78768205Y-83421256D01*
X78846226Y-83232898D01*
X78846551Y-83231262D01*
X78969226Y-83353937D01*
X79138744Y-83467205D01*
X79327102Y-83545226D01*
X79527061Y-83585000D01*
X79730939Y-83585000D01*
X79930898Y-83545226D01*
X80119256Y-83467205D01*
X80288774Y-83353937D01*
X80432937Y-83209774D01*
X80546205Y-83040256D01*
X80624226Y-82851898D01*
X80664000Y-82651939D01*
X80664000Y-82448061D01*
X80637943Y-82317064D01*
X80796774Y-82210937D01*
X80940937Y-82066774D01*
X81054205Y-81897256D01*
X81132226Y-81708898D01*
X81172000Y-81508939D01*
X81172000Y-81351186D01*
X81297744Y-81435205D01*
X81486102Y-81513226D01*
X81686061Y-81553000D01*
X81889939Y-81553000D01*
X82089898Y-81513226D01*
X82278256Y-81435205D01*
X82447774Y-81321937D01*
X82591937Y-81177774D01*
X82705205Y-81008256D01*
X82783226Y-80819898D01*
X82802697Y-80722010D01*
X83591401Y-81510715D01*
X83591400Y-94623906D01*
X83525898Y-94596774D01*
X83325939Y-94557000D01*
X83122061Y-94557000D01*
X82922102Y-94596774D01*
X82733744Y-94674795D01*
X82564226Y-94788063D01*
X82420063Y-94932226D01*
X82306795Y-95101744D01*
X82228774Y-95290102D01*
X82189000Y-95490061D01*
X82189000Y-95693939D01*
X82228774Y-95893898D01*
X82306795Y-96082256D01*
X82420063Y-96251774D01*
X82564226Y-96395937D01*
X82733744Y-96509205D01*
X82922102Y-96587226D01*
X83122061Y-96627000D01*
X83126686Y-96627000D01*
X82700287Y-97053400D01*
X82245845Y-97053400D01*
X82174752Y-97046398D01*
X82132332Y-97042220D01*
X82089912Y-97046398D01*
X79173003Y-97046398D01*
X79103256Y-96999795D01*
X78914898Y-96921774D01*
X78714939Y-96882000D01*
X78511061Y-96882000D01*
X78311102Y-96921774D01*
X78122744Y-96999795D01*
X78052997Y-97046398D01*
X78020417Y-97046398D01*
X77977999Y-97042220D01*
X77935582Y-97046398D01*
X77935580Y-97046398D01*
X77864487Y-97053400D01*
X72421036Y-97053400D01*
X72344542Y-97052669D01*
X72288764Y-97050671D01*
X72250282Y-97047823D01*
X72226688Y-97044861D01*
X72213368Y-97042334D01*
X72203570Y-97039768D01*
X72189853Y-97035181D01*
X72166262Y-97025795D01*
X72138959Y-97013628D01*
X72118256Y-96999795D01*
X71929898Y-96921774D01*
X71729939Y-96882000D01*
X71526061Y-96882000D01*
X71326102Y-96921774D01*
X71137744Y-96999795D01*
X70968226Y-97113063D01*
X70824063Y-97257226D01*
X70710795Y-97426744D01*
X70632774Y-97615102D01*
X70593000Y-97815061D01*
X70593000Y-98018939D01*
X70632774Y-98218898D01*
X70710795Y-98407256D01*
X70824063Y-98576774D01*
X70899677Y-98652388D01*
X70872741Y-98702781D01*
X70810700Y-98907304D01*
X70795000Y-99066707D01*
X70795000Y-100273294D01*
X70810700Y-100432697D01*
X70872742Y-100637220D01*
X70973492Y-100825710D01*
X71109079Y-100990922D01*
X71274291Y-101126509D01*
X71462781Y-101227259D01*
X71667304Y-101289300D01*
X71880000Y-101310249D01*
X72092697Y-101289300D01*
X72297220Y-101227259D01*
X72485710Y-101126509D01*
X72650922Y-100990922D01*
X72734025Y-100889661D01*
X72867111Y-100978586D01*
X73037271Y-101049068D01*
X73217911Y-101085000D01*
X73402089Y-101085000D01*
X73582729Y-101049068D01*
X73752889Y-100978586D01*
X73895000Y-100883631D01*
X73895000Y-100939939D01*
X73934774Y-101139898D01*
X74012795Y-101328256D01*
X74126063Y-101497774D01*
X74270226Y-101641937D01*
X74439744Y-101755205D01*
X74628102Y-101833226D01*
X74828061Y-101873000D01*
X75031939Y-101873000D01*
X75231898Y-101833226D01*
X75420256Y-101755205D01*
X75589774Y-101641937D01*
X75733937Y-101497774D01*
X75847205Y-101328256D01*
X75925226Y-101139898D01*
X75965000Y-100939939D01*
X75965000Y-100736061D01*
X75925226Y-100536102D01*
X75847205Y-100347744D01*
X75733937Y-100178226D01*
X75589774Y-100034063D01*
X75420256Y-99920795D01*
X75231898Y-99842774D01*
X75031939Y-99803000D01*
X74828061Y-99803000D01*
X74628102Y-99842774D01*
X74439744Y-99920795D01*
X74270226Y-100034063D01*
X74245000Y-100059289D01*
X74245000Y-100057911D01*
X74209068Y-99877271D01*
X74138586Y-99707111D01*
X74036262Y-99553972D01*
X73906028Y-99423738D01*
X73752889Y-99321414D01*
X73582729Y-99250932D01*
X73402089Y-99215000D01*
X73217911Y-99215000D01*
X73037271Y-99250932D01*
X72965000Y-99280867D01*
X72965000Y-99066706D01*
X72949300Y-98907303D01*
X72910865Y-98780600D01*
X77928578Y-98780600D01*
X77970998Y-98784778D01*
X78013418Y-98780600D01*
X78038780Y-98778102D01*
X78122744Y-98834205D01*
X78311102Y-98912226D01*
X78511061Y-98952000D01*
X78714939Y-98952000D01*
X78914898Y-98912226D01*
X79103256Y-98834205D01*
X79193961Y-98773598D01*
X79491259Y-98773598D01*
X79450700Y-98907304D01*
X79435000Y-99066707D01*
X79435000Y-99280867D01*
X79362729Y-99250932D01*
X79182089Y-99215000D01*
X78997911Y-99215000D01*
X78817271Y-99250932D01*
X78647111Y-99321414D01*
X78493972Y-99423738D01*
X78363738Y-99553972D01*
X78261414Y-99707111D01*
X78210905Y-99829051D01*
X78079939Y-99803000D01*
X77876061Y-99803000D01*
X77676102Y-99842774D01*
X77487744Y-99920795D01*
X77318226Y-100034063D01*
X77174063Y-100178226D01*
X77060795Y-100347744D01*
X76982774Y-100536102D01*
X76943000Y-100736061D01*
X76943000Y-100939939D01*
X76982774Y-101139898D01*
X77060795Y-101328256D01*
X77174063Y-101497774D01*
X77318226Y-101641937D01*
X77487744Y-101755205D01*
X77676102Y-101833226D01*
X77876061Y-101873000D01*
X78079939Y-101873000D01*
X78279898Y-101833226D01*
X78468256Y-101755205D01*
X78637774Y-101641937D01*
X78781937Y-101497774D01*
X78895205Y-101328256D01*
X78973226Y-101139898D01*
X78984670Y-101082366D01*
X78997911Y-101085000D01*
X79182089Y-101085000D01*
X79362729Y-101049068D01*
X79532889Y-100978586D01*
X79665975Y-100889661D01*
X79749079Y-100990922D01*
X79914291Y-101126509D01*
X80102781Y-101227259D01*
X80307304Y-101289300D01*
X80520000Y-101310249D01*
X80732697Y-101289300D01*
X80937220Y-101227259D01*
X81125710Y-101126509D01*
X81290922Y-100990922D01*
X81426509Y-100825710D01*
X81527259Y-100637220D01*
X81589300Y-100432697D01*
X81605000Y-100273294D01*
X81605000Y-99066706D01*
X81589300Y-98907303D01*
X81548741Y-98773598D01*
X82025821Y-98773598D01*
X82096914Y-98780600D01*
X82096916Y-98780600D01*
X82139333Y-98784778D01*
X82181751Y-98780600D01*
X83015580Y-98780600D01*
X83058000Y-98784778D01*
X83100420Y-98780600D01*
X83227295Y-98768104D01*
X83390084Y-98718722D01*
X83540112Y-98638531D01*
X83671612Y-98530612D01*
X83698663Y-98497650D01*
X85023184Y-97173131D01*
X85044010Y-97223411D01*
X85206525Y-97466632D01*
X85413368Y-97673475D01*
X85587760Y-97790000D01*
X85413368Y-97906525D01*
X85206525Y-98113368D01*
X85044010Y-98356589D01*
X84932068Y-98626842D01*
X84875000Y-98913740D01*
X84875000Y-99206260D01*
X84932068Y-99493158D01*
X85044010Y-99763411D01*
X85206525Y-100006632D01*
X85413368Y-100213475D01*
X85587760Y-100330000D01*
X85413368Y-100446525D01*
X85206525Y-100653368D01*
X85044010Y-100896589D01*
X84932068Y-101166842D01*
X84875000Y-101453740D01*
X84875000Y-101746260D01*
X84932068Y-102033158D01*
X85044010Y-102303411D01*
X85159998Y-102477000D01*
X83082715Y-102477000D01*
X83082715Y-105258000D01*
X80901811Y-105258000D01*
X80937220Y-105247259D01*
X81125710Y-105146509D01*
X81290922Y-105010922D01*
X81426509Y-104845710D01*
X81527259Y-104657220D01*
X81589300Y-104452696D01*
X81605000Y-104293293D01*
X81605000Y-103386706D01*
X81589300Y-103227303D01*
X81527259Y-103022780D01*
X81426509Y-102834290D01*
X81290922Y-102669078D01*
X81125710Y-102533491D01*
X80937219Y-102432741D01*
X80732696Y-102370700D01*
X80520000Y-102349751D01*
X80307303Y-102370700D01*
X80102780Y-102432741D01*
X79914290Y-102533491D01*
X79749078Y-102669078D01*
X79613491Y-102834290D01*
X79512741Y-103022781D01*
X79450700Y-103227304D01*
X79435000Y-103386707D01*
X79435000Y-104293294D01*
X79450700Y-104452697D01*
X79512742Y-104657220D01*
X79613492Y-104845710D01*
X79749079Y-105010922D01*
X79914291Y-105146509D01*
X80102781Y-105247259D01*
X80138190Y-105258000D01*
X78196711Y-105258000D01*
X78273937Y-105180774D01*
X78387205Y-105011256D01*
X78465226Y-104822898D01*
X78505000Y-104622939D01*
X78505000Y-104419061D01*
X78465226Y-104219102D01*
X78387205Y-104030744D01*
X78290490Y-103886000D01*
X78387205Y-103741256D01*
X78465226Y-103552898D01*
X78505000Y-103352939D01*
X78505000Y-103149061D01*
X78465226Y-102949102D01*
X78387205Y-102760744D01*
X78273937Y-102591226D01*
X78129774Y-102447063D01*
X77960256Y-102333795D01*
X77771898Y-102255774D01*
X77571939Y-102216000D01*
X77368061Y-102216000D01*
X77168102Y-102255774D01*
X76979744Y-102333795D01*
X76835000Y-102430510D01*
X76690256Y-102333795D01*
X76501898Y-102255774D01*
X76301939Y-102216000D01*
X76098061Y-102216000D01*
X75898102Y-102255774D01*
X75709744Y-102333795D01*
X75565000Y-102430510D01*
X75420256Y-102333795D01*
X75231898Y-102255774D01*
X75031939Y-102216000D01*
X74828061Y-102216000D01*
X74628102Y-102255774D01*
X74439744Y-102333795D01*
X74270226Y-102447063D01*
X74126063Y-102591226D01*
X74012795Y-102760744D01*
X73934774Y-102949102D01*
X73895000Y-103149061D01*
X73895000Y-103352939D01*
X73934774Y-103552898D01*
X74012795Y-103741256D01*
X74109510Y-103886000D01*
X74012795Y-104030744D01*
X73934774Y-104219102D01*
X73895000Y-104419061D01*
X73895000Y-104622939D01*
X73934774Y-104822898D01*
X74012795Y-105011256D01*
X74126063Y-105180774D01*
X74203289Y-105258000D01*
X72261811Y-105258000D01*
X72297220Y-105247259D01*
X72485710Y-105146509D01*
X72650922Y-105010922D01*
X72786509Y-104845710D01*
X72887259Y-104657220D01*
X72949300Y-104452696D01*
X72965000Y-104293293D01*
X72965000Y-103386706D01*
X72949300Y-103227303D01*
X72887259Y-103022780D01*
X72786509Y-102834290D01*
X72650922Y-102669078D01*
X72485710Y-102533491D01*
X72297219Y-102432741D01*
X72092696Y-102370700D01*
X71880000Y-102349751D01*
X71667303Y-102370700D01*
X71462780Y-102432741D01*
X71274290Y-102533491D01*
X71109078Y-102669078D01*
X70973491Y-102834290D01*
X70872741Y-103022781D01*
X70810700Y-103227304D01*
X70795000Y-103386707D01*
X70795000Y-104293294D01*
X70810700Y-104452697D01*
X70872742Y-104657220D01*
X70973492Y-104845710D01*
X71109079Y-105010922D01*
X71274291Y-105146509D01*
X71462781Y-105247259D01*
X71498190Y-105258000D01*
X66072165Y-105258000D01*
X65922129Y-105243289D01*
X65808751Y-105209058D01*
X65704178Y-105153456D01*
X65612397Y-105078602D01*
X65536900Y-104987342D01*
X65480572Y-104883163D01*
X65445548Y-104770020D01*
X65429989Y-104621980D01*
X65429976Y-103088072D01*
X66890000Y-103088072D01*
X67014482Y-103075812D01*
X67134180Y-103039502D01*
X67244494Y-102980537D01*
X67341185Y-102901185D01*
X67420537Y-102804494D01*
X67479502Y-102694180D01*
X67515812Y-102574482D01*
X67528072Y-102450000D01*
X67528072Y-102078440D01*
X67533795Y-102092256D01*
X67647063Y-102261774D01*
X67791226Y-102405937D01*
X67960744Y-102519205D01*
X68149102Y-102597226D01*
X68349061Y-102637000D01*
X68552939Y-102637000D01*
X68752898Y-102597226D01*
X68941256Y-102519205D01*
X69110774Y-102405937D01*
X69254937Y-102261774D01*
X69368205Y-102092256D01*
X69446226Y-101903898D01*
X69486000Y-101703939D01*
X69486000Y-101500061D01*
X69446226Y-101300102D01*
X69368205Y-101111744D01*
X69254937Y-100942226D01*
X69110774Y-100798063D01*
X68941256Y-100684795D01*
X68752898Y-100606774D01*
X68552939Y-100567000D01*
X68349061Y-100567000D01*
X68149102Y-100606774D01*
X67960744Y-100684795D01*
X67791226Y-100798063D01*
X67647063Y-100942226D01*
X67533795Y-101111744D01*
X67528072Y-101125560D01*
X67528072Y-100750000D01*
X67515812Y-100625518D01*
X67479502Y-100505820D01*
X67420537Y-100395506D01*
X67341185Y-100298815D01*
X67244494Y-100219463D01*
X67134180Y-100160498D01*
X67053534Y-100136034D01*
X67137588Y-100060269D01*
X67311641Y-99826920D01*
X67436825Y-99564099D01*
X67481476Y-99416890D01*
X67360155Y-99187000D01*
X66167000Y-99187000D01*
X66167000Y-99207000D01*
X65913000Y-99207000D01*
X65913000Y-99187000D01*
X65893000Y-99187000D01*
X65893000Y-98933000D01*
X65913000Y-98933000D01*
X65913000Y-98913000D01*
X66167000Y-98913000D01*
X66167000Y-98933000D01*
X67360155Y-98933000D01*
X67481476Y-98703110D01*
X67436825Y-98555901D01*
X67311641Y-98293080D01*
X67137588Y-98059731D01*
X66921355Y-97864822D01*
X66804466Y-97795195D01*
X66986632Y-97673475D01*
X67193475Y-97466632D01*
X67355990Y-97223411D01*
X67467932Y-96953158D01*
X67525000Y-96666260D01*
X67525000Y-96373740D01*
X67467932Y-96086842D01*
X67355990Y-95816589D01*
X67333588Y-95783061D01*
X76562000Y-95783061D01*
X76562000Y-95986939D01*
X76601774Y-96186898D01*
X76679795Y-96375256D01*
X76793063Y-96544774D01*
X76937226Y-96688937D01*
X77106744Y-96802205D01*
X77295102Y-96880226D01*
X77495061Y-96920000D01*
X77698939Y-96920000D01*
X77898898Y-96880226D01*
X78087256Y-96802205D01*
X78256774Y-96688937D01*
X78400937Y-96544774D01*
X78514205Y-96375256D01*
X78592226Y-96186898D01*
X78632000Y-95986939D01*
X78632000Y-95783061D01*
X78616109Y-95703173D01*
X78722256Y-95659205D01*
X78891774Y-95545937D01*
X79035937Y-95401774D01*
X79149205Y-95232256D01*
X79227226Y-95043898D01*
X79267000Y-94843939D01*
X79267000Y-94640061D01*
X79227226Y-94440102D01*
X79149205Y-94251744D01*
X79035937Y-94082226D01*
X78891774Y-93938063D01*
X78722256Y-93824795D01*
X78533898Y-93746774D01*
X78333939Y-93707000D01*
X78130061Y-93707000D01*
X77930102Y-93746774D01*
X77741744Y-93824795D01*
X77572226Y-93938063D01*
X77428063Y-94082226D01*
X77314795Y-94251744D01*
X77236774Y-94440102D01*
X77197000Y-94640061D01*
X77197000Y-94843939D01*
X77212891Y-94923827D01*
X77106744Y-94967795D01*
X76937226Y-95081063D01*
X76793063Y-95225226D01*
X76679795Y-95394744D01*
X76601774Y-95583102D01*
X76562000Y-95783061D01*
X67333588Y-95783061D01*
X67193475Y-95573368D01*
X66986632Y-95366525D01*
X66812240Y-95250000D01*
X66986632Y-95133475D01*
X67193475Y-94926632D01*
X67355990Y-94683411D01*
X67467932Y-94413158D01*
X67525000Y-94126260D01*
X67525000Y-93833740D01*
X67467932Y-93546842D01*
X67355990Y-93276589D01*
X67193475Y-93033368D01*
X66986632Y-92826525D01*
X66812240Y-92710000D01*
X66986632Y-92593475D01*
X67193475Y-92386632D01*
X67355990Y-92143411D01*
X67467932Y-91873158D01*
X67525000Y-91586260D01*
X67525000Y-91293740D01*
X67483292Y-91084061D01*
X69958000Y-91084061D01*
X69958000Y-91287939D01*
X69997774Y-91487898D01*
X70075795Y-91676256D01*
X70189063Y-91845774D01*
X70333226Y-91989937D01*
X70502744Y-92103205D01*
X70691102Y-92181226D01*
X70891061Y-92221000D01*
X71094939Y-92221000D01*
X71294898Y-92181226D01*
X71483256Y-92103205D01*
X71652774Y-91989937D01*
X71796937Y-91845774D01*
X71910205Y-91676256D01*
X71988226Y-91487898D01*
X72028000Y-91287939D01*
X72028000Y-91084061D01*
X71988226Y-90884102D01*
X71910205Y-90695744D01*
X71796937Y-90526226D01*
X71782711Y-90512000D01*
X77759928Y-90512000D01*
X77772188Y-90636482D01*
X77808498Y-90756180D01*
X77867463Y-90866494D01*
X77946815Y-90963185D01*
X78043506Y-91042537D01*
X78153820Y-91101502D01*
X78273518Y-91137812D01*
X78398000Y-91150072D01*
X78962250Y-91147000D01*
X79121000Y-90988250D01*
X79121000Y-89789000D01*
X77921750Y-89789000D01*
X77763000Y-89947750D01*
X77759928Y-90512000D01*
X71782711Y-90512000D01*
X71652774Y-90382063D01*
X71483256Y-90268795D01*
X71294898Y-90190774D01*
X71094939Y-90151000D01*
X70891061Y-90151000D01*
X70691102Y-90190774D01*
X70502744Y-90268795D01*
X70333226Y-90382063D01*
X70189063Y-90526226D01*
X70075795Y-90695744D01*
X69997774Y-90884102D01*
X69958000Y-91084061D01*
X67483292Y-91084061D01*
X67467932Y-91006842D01*
X67355990Y-90736589D01*
X67193475Y-90493368D01*
X66986632Y-90286525D01*
X66812240Y-90170000D01*
X66986632Y-90053475D01*
X67193475Y-89846632D01*
X67355990Y-89603411D01*
X67467932Y-89333158D01*
X67525000Y-89046260D01*
X67525000Y-88753740D01*
X67483292Y-88544061D01*
X68561000Y-88544061D01*
X68561000Y-88747939D01*
X68600774Y-88947898D01*
X68678795Y-89136256D01*
X68792063Y-89305774D01*
X68936226Y-89449937D01*
X69105744Y-89563205D01*
X69294102Y-89641226D01*
X69494061Y-89681000D01*
X69697939Y-89681000D01*
X69897898Y-89641226D01*
X70086256Y-89563205D01*
X70255774Y-89449937D01*
X70399937Y-89305774D01*
X70513205Y-89136256D01*
X70591226Y-88947898D01*
X70631000Y-88747939D01*
X70631000Y-88544061D01*
X70605739Y-88417061D01*
X76054000Y-88417061D01*
X76054000Y-88620939D01*
X76093774Y-88820898D01*
X76171795Y-89009256D01*
X76285063Y-89178774D01*
X76429226Y-89322937D01*
X76598744Y-89436205D01*
X76787102Y-89514226D01*
X76987061Y-89554000D01*
X77190939Y-89554000D01*
X77390898Y-89514226D01*
X77579256Y-89436205D01*
X77748774Y-89322937D01*
X77762634Y-89309077D01*
X77763000Y-89376250D01*
X77921750Y-89535000D01*
X79121000Y-89535000D01*
X79121000Y-87249000D01*
X77921750Y-87249000D01*
X77763000Y-87407750D01*
X77761259Y-87727548D01*
X77748774Y-87715063D01*
X77579256Y-87601795D01*
X77390898Y-87523774D01*
X77190939Y-87484000D01*
X76987061Y-87484000D01*
X76787102Y-87523774D01*
X76598744Y-87601795D01*
X76429226Y-87715063D01*
X76285063Y-87859226D01*
X76171795Y-88028744D01*
X76093774Y-88217102D01*
X76054000Y-88417061D01*
X70605739Y-88417061D01*
X70591226Y-88344102D01*
X70513205Y-88155744D01*
X70399937Y-87986226D01*
X70255774Y-87842063D01*
X70086256Y-87728795D01*
X69897898Y-87650774D01*
X69697939Y-87611000D01*
X69494061Y-87611000D01*
X69294102Y-87650774D01*
X69105744Y-87728795D01*
X68936226Y-87842063D01*
X68792063Y-87986226D01*
X68678795Y-88155744D01*
X68600774Y-88344102D01*
X68561000Y-88544061D01*
X67483292Y-88544061D01*
X67467932Y-88466842D01*
X67355990Y-88196589D01*
X67193475Y-87953368D01*
X66986632Y-87746525D01*
X66812240Y-87630000D01*
X66986632Y-87513475D01*
X67193475Y-87306632D01*
X67355990Y-87063411D01*
X67467932Y-86793158D01*
X67525000Y-86506260D01*
X67525000Y-86272000D01*
X77759928Y-86272000D01*
X77763000Y-86836250D01*
X77921750Y-86995000D01*
X79121000Y-86995000D01*
X79121000Y-85795750D01*
X79375000Y-85795750D01*
X79375000Y-86995000D01*
X79395000Y-86995000D01*
X79395000Y-87249000D01*
X79375000Y-87249000D01*
X79375000Y-89535000D01*
X79395000Y-89535000D01*
X79395000Y-89789000D01*
X79375000Y-89789000D01*
X79375000Y-90988250D01*
X79533750Y-91147000D01*
X80098000Y-91150072D01*
X80222482Y-91137812D01*
X80342180Y-91101502D01*
X80452494Y-91042537D01*
X80549185Y-90963185D01*
X80628537Y-90866494D01*
X80687502Y-90756180D01*
X80709513Y-90683620D01*
X80841368Y-90815475D01*
X81084589Y-90977990D01*
X81354842Y-91089932D01*
X81641740Y-91147000D01*
X81934260Y-91147000D01*
X82221158Y-91089932D01*
X82491411Y-90977990D01*
X82734632Y-90815475D01*
X82941475Y-90608632D01*
X83103990Y-90365411D01*
X83215932Y-90095158D01*
X83273000Y-89808260D01*
X83273000Y-89515740D01*
X83215932Y-89228842D01*
X83103990Y-88958589D01*
X82941475Y-88715368D01*
X82734632Y-88508525D01*
X82560240Y-88392000D01*
X82734632Y-88275475D01*
X82941475Y-88068632D01*
X83103990Y-87825411D01*
X83215932Y-87555158D01*
X83273000Y-87268260D01*
X83273000Y-86975740D01*
X83215932Y-86688842D01*
X83103990Y-86418589D01*
X82941475Y-86175368D01*
X82734632Y-85968525D01*
X82491411Y-85806010D01*
X82221158Y-85694068D01*
X81934260Y-85637000D01*
X81641740Y-85637000D01*
X81354842Y-85694068D01*
X81084589Y-85806010D01*
X80841368Y-85968525D01*
X80709513Y-86100380D01*
X80687502Y-86027820D01*
X80628537Y-85917506D01*
X80549185Y-85820815D01*
X80452494Y-85741463D01*
X80342180Y-85682498D01*
X80222482Y-85646188D01*
X80098000Y-85633928D01*
X79533750Y-85637000D01*
X79375000Y-85795750D01*
X79121000Y-85795750D01*
X78962250Y-85637000D01*
X78398000Y-85633928D01*
X78273518Y-85646188D01*
X78153820Y-85682498D01*
X78043506Y-85741463D01*
X77946815Y-85820815D01*
X77867463Y-85917506D01*
X77808498Y-86027820D01*
X77772188Y-86147518D01*
X77759928Y-86272000D01*
X67525000Y-86272000D01*
X67525000Y-86213740D01*
X67467932Y-85926842D01*
X67355990Y-85656589D01*
X67193475Y-85413368D01*
X66986632Y-85206525D01*
X66812240Y-85090000D01*
X66986632Y-84973475D01*
X67193475Y-84766632D01*
X67355990Y-84523411D01*
X67467932Y-84253158D01*
X67511972Y-84031751D01*
X67763097Y-84031751D01*
X67763097Y-84235629D01*
X67802871Y-84435588D01*
X67880892Y-84623946D01*
X67994160Y-84793464D01*
X68138323Y-84937627D01*
X68307841Y-85050895D01*
X68496199Y-85128916D01*
X68696158Y-85168690D01*
X68900036Y-85168690D01*
X69099995Y-85128916D01*
X69133443Y-85115061D01*
X73006000Y-85115061D01*
X73006000Y-85318939D01*
X73045774Y-85518898D01*
X73123795Y-85707256D01*
X73237063Y-85876774D01*
X73381226Y-86020937D01*
X73550744Y-86134205D01*
X73739102Y-86212226D01*
X73939061Y-86252000D01*
X74142939Y-86252000D01*
X74342898Y-86212226D01*
X74531256Y-86134205D01*
X74700774Y-86020937D01*
X74844937Y-85876774D01*
X74958205Y-85707256D01*
X75036226Y-85518898D01*
X75076000Y-85318939D01*
X75076000Y-85115061D01*
X75036226Y-84915102D01*
X74958205Y-84726744D01*
X74844937Y-84557226D01*
X74700774Y-84413063D01*
X74531256Y-84299795D01*
X74342898Y-84221774D01*
X74142939Y-84182000D01*
X73939061Y-84182000D01*
X73739102Y-84221774D01*
X73550744Y-84299795D01*
X73381226Y-84413063D01*
X73237063Y-84557226D01*
X73123795Y-84726744D01*
X73045774Y-84915102D01*
X73006000Y-85115061D01*
X69133443Y-85115061D01*
X69288353Y-85050895D01*
X69457871Y-84937627D01*
X69602034Y-84793464D01*
X69715302Y-84623946D01*
X69793323Y-84435588D01*
X69833097Y-84235629D01*
X69833097Y-84031751D01*
X69793323Y-83831792D01*
X69715302Y-83643434D01*
X69602034Y-83473916D01*
X69457871Y-83329753D01*
X69288353Y-83216485D01*
X69099995Y-83138464D01*
X68900036Y-83098690D01*
X68696158Y-83098690D01*
X68496199Y-83138464D01*
X68307841Y-83216485D01*
X68138323Y-83329753D01*
X67994160Y-83473916D01*
X67880892Y-83643434D01*
X67802871Y-83831792D01*
X67763097Y-84031751D01*
X67511972Y-84031751D01*
X67525000Y-83966260D01*
X67525000Y-83673740D01*
X67467932Y-83386842D01*
X67355990Y-83116589D01*
X67193475Y-82873368D01*
X66986632Y-82666525D01*
X66812240Y-82550000D01*
X66986632Y-82433475D01*
X67193475Y-82226632D01*
X67215238Y-82194061D01*
X70720000Y-82194061D01*
X70720000Y-82397939D01*
X70759774Y-82597898D01*
X70837795Y-82786256D01*
X70951063Y-82955774D01*
X71095226Y-83099937D01*
X71264744Y-83213205D01*
X71453102Y-83291226D01*
X71653061Y-83331000D01*
X71856939Y-83331000D01*
X72056898Y-83291226D01*
X72245256Y-83213205D01*
X72414774Y-83099937D01*
X72558937Y-82955774D01*
X72672205Y-82786256D01*
X72750226Y-82597898D01*
X72790000Y-82397939D01*
X72790000Y-82194061D01*
X72750226Y-81994102D01*
X72672205Y-81805744D01*
X72558937Y-81636226D01*
X72414774Y-81492063D01*
X72245256Y-81378795D01*
X72056898Y-81300774D01*
X71856939Y-81261000D01*
X71653061Y-81261000D01*
X71453102Y-81300774D01*
X71264744Y-81378795D01*
X71095226Y-81492063D01*
X70951063Y-81636226D01*
X70837795Y-81805744D01*
X70759774Y-81994102D01*
X70720000Y-82194061D01*
X67215238Y-82194061D01*
X67355990Y-81983411D01*
X67467932Y-81713158D01*
X67525000Y-81426260D01*
X67525000Y-81133740D01*
X67467932Y-80846842D01*
X67355990Y-80576589D01*
X67193475Y-80333368D01*
X66986632Y-80126525D01*
X66812240Y-80010000D01*
X66986632Y-79893475D01*
X67193475Y-79686632D01*
X67355990Y-79443411D01*
X67467932Y-79173158D01*
X67525000Y-78886260D01*
X67525000Y-78638061D01*
X76435000Y-78638061D01*
X76435000Y-78841939D01*
X76474774Y-79041898D01*
X76552795Y-79230256D01*
X76666063Y-79399774D01*
X76810226Y-79543937D01*
X76979744Y-79657205D01*
X77168102Y-79735226D01*
X77368061Y-79775000D01*
X77571939Y-79775000D01*
X77771898Y-79735226D01*
X77960256Y-79657205D01*
X78129774Y-79543937D01*
X78273937Y-79399774D01*
X78387205Y-79230256D01*
X78465226Y-79041898D01*
X78505000Y-78841939D01*
X78505000Y-78638061D01*
X78465226Y-78438102D01*
X78387205Y-78249744D01*
X78273937Y-78080226D01*
X78129774Y-77936063D01*
X77960256Y-77822795D01*
X77771898Y-77744774D01*
X77571939Y-77705000D01*
X77368061Y-77705000D01*
X77168102Y-77744774D01*
X76979744Y-77822795D01*
X76810226Y-77936063D01*
X76666063Y-78080226D01*
X76552795Y-78249744D01*
X76474774Y-78438102D01*
X76435000Y-78638061D01*
X67525000Y-78638061D01*
X67525000Y-78593740D01*
X67467932Y-78306842D01*
X67355990Y-78036589D01*
X67193475Y-77793368D01*
X66986632Y-77586525D01*
X66812240Y-77470000D01*
X66986632Y-77353475D01*
X67193475Y-77146632D01*
X67215238Y-77114061D01*
X68688000Y-77114061D01*
X68688000Y-77317939D01*
X68727774Y-77517898D01*
X68805795Y-77706256D01*
X68919063Y-77875774D01*
X69063226Y-78019937D01*
X69232744Y-78133205D01*
X69421102Y-78211226D01*
X69621061Y-78251000D01*
X69824939Y-78251000D01*
X70024898Y-78211226D01*
X70213256Y-78133205D01*
X70382774Y-78019937D01*
X70526937Y-77875774D01*
X70640205Y-77706256D01*
X70718226Y-77517898D01*
X70758000Y-77317939D01*
X70758000Y-77114061D01*
X70718226Y-76914102D01*
X70640205Y-76725744D01*
X70526937Y-76556226D01*
X70382774Y-76412063D01*
X70213256Y-76298795D01*
X70024898Y-76220774D01*
X69824939Y-76181000D01*
X69621061Y-76181000D01*
X69421102Y-76220774D01*
X69232744Y-76298795D01*
X69063226Y-76412063D01*
X68919063Y-76556226D01*
X68805795Y-76725744D01*
X68727774Y-76914102D01*
X68688000Y-77114061D01*
X67215238Y-77114061D01*
X67355990Y-76903411D01*
X67467932Y-76633158D01*
X67525000Y-76346260D01*
X67525000Y-76098061D01*
X72371000Y-76098061D01*
X72371000Y-76301939D01*
X72410774Y-76501898D01*
X72488795Y-76690256D01*
X72602063Y-76859774D01*
X72746226Y-77003937D01*
X72915744Y-77117205D01*
X73104102Y-77195226D01*
X73304061Y-77235000D01*
X73507939Y-77235000D01*
X73707898Y-77195226D01*
X73896256Y-77117205D01*
X74065774Y-77003937D01*
X74209937Y-76859774D01*
X74294603Y-76733061D01*
X74657000Y-76733061D01*
X74657000Y-76936939D01*
X74696774Y-77136898D01*
X74774795Y-77325256D01*
X74888063Y-77494774D01*
X75032226Y-77638937D01*
X75201744Y-77752205D01*
X75390102Y-77830226D01*
X75590061Y-77870000D01*
X75793939Y-77870000D01*
X75993898Y-77830226D01*
X76182256Y-77752205D01*
X76351774Y-77638937D01*
X76495937Y-77494774D01*
X76609205Y-77325256D01*
X76687226Y-77136898D01*
X76727000Y-76936939D01*
X76727000Y-76733061D01*
X76687226Y-76533102D01*
X76609205Y-76344744D01*
X76495937Y-76175226D01*
X76351774Y-76031063D01*
X76346495Y-76027536D01*
X76406102Y-76052226D01*
X76606061Y-76092000D01*
X76809939Y-76092000D01*
X77009898Y-76052226D01*
X77198256Y-75974205D01*
X77367774Y-75860937D01*
X77511937Y-75716774D01*
X77625205Y-75547256D01*
X77703226Y-75358898D01*
X77743000Y-75158939D01*
X77743000Y-74955061D01*
X77703226Y-74755102D01*
X77625205Y-74566744D01*
X77511937Y-74397226D01*
X77367774Y-74253063D01*
X77198256Y-74139795D01*
X77009898Y-74061774D01*
X76809939Y-74022000D01*
X76606061Y-74022000D01*
X76406102Y-74061774D01*
X76217744Y-74139795D01*
X76048226Y-74253063D01*
X75904063Y-74397226D01*
X75790795Y-74566744D01*
X75712774Y-74755102D01*
X75673000Y-74955061D01*
X75673000Y-75158939D01*
X75712774Y-75358898D01*
X75790795Y-75547256D01*
X75904063Y-75716774D01*
X76048226Y-75860937D01*
X76053505Y-75864464D01*
X75993898Y-75839774D01*
X75793939Y-75800000D01*
X75590061Y-75800000D01*
X75390102Y-75839774D01*
X75201744Y-75917795D01*
X75032226Y-76031063D01*
X74888063Y-76175226D01*
X74774795Y-76344744D01*
X74696774Y-76533102D01*
X74657000Y-76733061D01*
X74294603Y-76733061D01*
X74323205Y-76690256D01*
X74401226Y-76501898D01*
X74441000Y-76301939D01*
X74441000Y-76098061D01*
X74401226Y-75898102D01*
X74323205Y-75709744D01*
X74209937Y-75540226D01*
X74065774Y-75396063D01*
X73896256Y-75282795D01*
X73707898Y-75204774D01*
X73507939Y-75165000D01*
X73304061Y-75165000D01*
X73104102Y-75204774D01*
X72915744Y-75282795D01*
X72746226Y-75396063D01*
X72602063Y-75540226D01*
X72488795Y-75709744D01*
X72410774Y-75898102D01*
X72371000Y-76098061D01*
X67525000Y-76098061D01*
X67525000Y-76053740D01*
X67467932Y-75766842D01*
X67355990Y-75496589D01*
X67193475Y-75253368D01*
X66986632Y-75046525D01*
X66812240Y-74930000D01*
X66986632Y-74813475D01*
X67193475Y-74606632D01*
X67355990Y-74363411D01*
X67467932Y-74093158D01*
X67525000Y-73806260D01*
X67525000Y-73513740D01*
X67467932Y-73226842D01*
X67394708Y-73050061D01*
X74403000Y-73050061D01*
X74403000Y-73253939D01*
X74442774Y-73453898D01*
X74520795Y-73642256D01*
X74634063Y-73811774D01*
X74778226Y-73955937D01*
X74947744Y-74069205D01*
X75136102Y-74147226D01*
X75336061Y-74187000D01*
X75539939Y-74187000D01*
X75739898Y-74147226D01*
X75928256Y-74069205D01*
X76097774Y-73955937D01*
X76241937Y-73811774D01*
X76355205Y-73642256D01*
X76433226Y-73453898D01*
X76473000Y-73253939D01*
X76473000Y-73050061D01*
X76433226Y-72850102D01*
X76355205Y-72661744D01*
X76241937Y-72492226D01*
X76097774Y-72348063D01*
X76007975Y-72288061D01*
X79737000Y-72288061D01*
X79737000Y-72491939D01*
X79776774Y-72691898D01*
X79854795Y-72880256D01*
X79968063Y-73049774D01*
X80112226Y-73193937D01*
X80281744Y-73307205D01*
X80470102Y-73385226D01*
X80670061Y-73425000D01*
X80873939Y-73425000D01*
X81073898Y-73385226D01*
X81262256Y-73307205D01*
X81431774Y-73193937D01*
X81575937Y-73049774D01*
X81689205Y-72880256D01*
X81767226Y-72691898D01*
X81807000Y-72491939D01*
X81807000Y-72288061D01*
X81767226Y-72088102D01*
X81689205Y-71899744D01*
X81575937Y-71730226D01*
X81431774Y-71586063D01*
X81262256Y-71472795D01*
X81073898Y-71394774D01*
X80873939Y-71355000D01*
X80670061Y-71355000D01*
X80470102Y-71394774D01*
X80281744Y-71472795D01*
X80112226Y-71586063D01*
X79968063Y-71730226D01*
X79854795Y-71899744D01*
X79776774Y-72088102D01*
X79737000Y-72288061D01*
X76007975Y-72288061D01*
X75928256Y-72234795D01*
X75739898Y-72156774D01*
X75539939Y-72117000D01*
X75336061Y-72117000D01*
X75136102Y-72156774D01*
X74947744Y-72234795D01*
X74778226Y-72348063D01*
X74634063Y-72492226D01*
X74520795Y-72661744D01*
X74442774Y-72850102D01*
X74403000Y-73050061D01*
X67394708Y-73050061D01*
X67355990Y-72956589D01*
X67193475Y-72713368D01*
X66986632Y-72506525D01*
X66812240Y-72390000D01*
X66986632Y-72273475D01*
X67193475Y-72066632D01*
X67355990Y-71823411D01*
X67467932Y-71553158D01*
X67525000Y-71266260D01*
X67525000Y-70973740D01*
X67501366Y-70854926D01*
X67652561Y-70885000D01*
X67856439Y-70885000D01*
X68056398Y-70845226D01*
X68244756Y-70767205D01*
X68414274Y-70653937D01*
X68558437Y-70509774D01*
X68671705Y-70340256D01*
X68749726Y-70151898D01*
X68789500Y-69951939D01*
X68789500Y-69748061D01*
X68749726Y-69548102D01*
X68671705Y-69359744D01*
X68558437Y-69190226D01*
X68414274Y-69046063D01*
X68244756Y-68932795D01*
X68056398Y-68854774D01*
X67856439Y-68815000D01*
X67652561Y-68815000D01*
X67501366Y-68845074D01*
X67525000Y-68726260D01*
X67525000Y-68433740D01*
X67467932Y-68146842D01*
X67393814Y-67967905D01*
X67395063Y-67969774D01*
X67539226Y-68113937D01*
X67708744Y-68227205D01*
X67897102Y-68305226D01*
X68097061Y-68345000D01*
X68300939Y-68345000D01*
X68500898Y-68305226D01*
X68689256Y-68227205D01*
X68858774Y-68113937D01*
X69002937Y-67969774D01*
X69116205Y-67800256D01*
X69120405Y-67790116D01*
X69190226Y-67859937D01*
X69359744Y-67973205D01*
X69444953Y-68008500D01*
X69359744Y-68043795D01*
X69190226Y-68157063D01*
X69046063Y-68301226D01*
X68932795Y-68470744D01*
X68854774Y-68659102D01*
X68815000Y-68859061D01*
X68815000Y-69062939D01*
X68854774Y-69262898D01*
X68932795Y-69451256D01*
X69046063Y-69620774D01*
X69190226Y-69764937D01*
X69359744Y-69878205D01*
X69548102Y-69956226D01*
X69748061Y-69996000D01*
X69951939Y-69996000D01*
X70151898Y-69956226D01*
X70339000Y-69878725D01*
X70339000Y-70078939D01*
X70378774Y-70278898D01*
X70456795Y-70467256D01*
X70570063Y-70636774D01*
X70714226Y-70780937D01*
X70883744Y-70894205D01*
X71072102Y-70972226D01*
X71272061Y-71012000D01*
X71475939Y-71012000D01*
X71675898Y-70972226D01*
X71864256Y-70894205D01*
X72033774Y-70780937D01*
X72177937Y-70636774D01*
X72291205Y-70467256D01*
X72365546Y-70287781D01*
X72469634Y-70443560D01*
X72613797Y-70587723D01*
X72783315Y-70700991D01*
X72971673Y-70779012D01*
X73171632Y-70818786D01*
X73315962Y-70818786D01*
X73364063Y-70890774D01*
X73508226Y-71034937D01*
X73677744Y-71148205D01*
X73866102Y-71226226D01*
X74066061Y-71266000D01*
X74269939Y-71266000D01*
X74469898Y-71226226D01*
X74658256Y-71148205D01*
X74676000Y-71136349D01*
X74693744Y-71148205D01*
X74882102Y-71226226D01*
X75082061Y-71266000D01*
X75285939Y-71266000D01*
X75485898Y-71226226D01*
X75674256Y-71148205D01*
X75843774Y-71034937D01*
X75987937Y-70890774D01*
X76101205Y-70721256D01*
X76179226Y-70532898D01*
X76219000Y-70332939D01*
X76219000Y-70129061D01*
X76179226Y-69929102D01*
X76101205Y-69740744D01*
X75987937Y-69571226D01*
X75843774Y-69427063D01*
X75674256Y-69313795D01*
X75485898Y-69235774D01*
X75285939Y-69196000D01*
X75082061Y-69196000D01*
X74882102Y-69235774D01*
X74693744Y-69313795D01*
X74676000Y-69325651D01*
X74658256Y-69313795D01*
X74469898Y-69235774D01*
X74269939Y-69196000D01*
X74125609Y-69196000D01*
X74077508Y-69124012D01*
X73933345Y-68979849D01*
X73763827Y-68866581D01*
X73575469Y-68788560D01*
X73375510Y-68748786D01*
X73171632Y-68748786D01*
X72971673Y-68788560D01*
X72783315Y-68866581D01*
X72613797Y-68979849D01*
X72469634Y-69124012D01*
X72356366Y-69293530D01*
X72282025Y-69473005D01*
X72177937Y-69317226D01*
X72033774Y-69173063D01*
X71864256Y-69059795D01*
X71675898Y-68981774D01*
X71475939Y-68942000D01*
X71272061Y-68942000D01*
X71072102Y-68981774D01*
X70885000Y-69059275D01*
X70885000Y-68859061D01*
X70845226Y-68659102D01*
X70767205Y-68470744D01*
X70653937Y-68301226D01*
X70509774Y-68157063D01*
X70340256Y-68043795D01*
X70255047Y-68008500D01*
X70340256Y-67973205D01*
X70509774Y-67859937D01*
X70653937Y-67715774D01*
X70767205Y-67546256D01*
X70845226Y-67357898D01*
X70885000Y-67157939D01*
X70885000Y-66954061D01*
X70845226Y-66754102D01*
X70767205Y-66565744D01*
X70653937Y-66396226D01*
X70509774Y-66252063D01*
X70340256Y-66138795D01*
X70151898Y-66060774D01*
X69951939Y-66021000D01*
X69900115Y-66021000D01*
X69941705Y-65958756D01*
X70019726Y-65770398D01*
X70059500Y-65570439D01*
X70059500Y-65366561D01*
X70019726Y-65166602D01*
X69941705Y-64978244D01*
X69926330Y-64955233D01*
X69947375Y-64934188D01*
X70060643Y-64764670D01*
X70138664Y-64576312D01*
X70140556Y-64566800D01*
X74085328Y-64566800D01*
X75768200Y-66249673D01*
G37*
%TD.AperFunction*%
D21*
X86220966Y-47697003D02*
X86443657Y-47810985D01*
X86639968Y-47966052D01*
X86802424Y-48156298D01*
X86928361Y-48380762D01*
X86970001Y-48499434D01*
X86970001Y-51853235D01*
X86645750Y-51855000D01*
X86487000Y-52013750D01*
X86487000Y-53213000D01*
X86507000Y-53213000D01*
X86507000Y-53467000D01*
X86487000Y-53467000D01*
X86487000Y-53487000D01*
X86233000Y-53487000D01*
X86233000Y-53467000D01*
X85033750Y-53467000D01*
X84875000Y-53625750D01*
X84871928Y-54190000D01*
X84884188Y-54314482D01*
X84920498Y-54434180D01*
X84979463Y-54544494D01*
X85058815Y-54641185D01*
X85155506Y-54720537D01*
X85265820Y-54779502D01*
X85338380Y-54801513D01*
X85206525Y-54933368D01*
X85044010Y-55176589D01*
X84932068Y-55446842D01*
X84875000Y-55733740D01*
X84875000Y-56026260D01*
X84932068Y-56313158D01*
X85044010Y-56583411D01*
X85206525Y-56826632D01*
X85413368Y-57033475D01*
X85587760Y-57150000D01*
X85413368Y-57266525D01*
X85206525Y-57473368D01*
X85044010Y-57716589D01*
X84932068Y-57986842D01*
X84917755Y-58058799D01*
X84899631Y-58117249D01*
X84889190Y-58154998D01*
X84853407Y-58301867D01*
X84847723Y-58327491D01*
X84821039Y-58460737D01*
X84820015Y-58465964D01*
X84798418Y-58578714D01*
X84779629Y-58661450D01*
X84761648Y-58719377D01*
X84740474Y-58767913D01*
X84706995Y-58824522D01*
X84648448Y-58901669D01*
X84545371Y-59013315D01*
X83874346Y-59684341D01*
X83841389Y-59711388D01*
X83744619Y-59829303D01*
X83733469Y-59842889D01*
X83653279Y-59992916D01*
X83603896Y-60155706D01*
X83597996Y-60215611D01*
X83413939Y-60179000D01*
X83210061Y-60179000D01*
X83010102Y-60218774D01*
X82821744Y-60296795D01*
X82768072Y-60332657D01*
X82768072Y-59094000D01*
X82767174Y-59084885D01*
X82906226Y-59223937D01*
X83075744Y-59337205D01*
X83264102Y-59415226D01*
X83464061Y-59455000D01*
X83667939Y-59455000D01*
X83867898Y-59415226D01*
X84056256Y-59337205D01*
X84225774Y-59223937D01*
X84369937Y-59079774D01*
X84483205Y-58910256D01*
X84561226Y-58721898D01*
X84601000Y-58521939D01*
X84601000Y-58318061D01*
X84561226Y-58118102D01*
X84483205Y-57929744D01*
X84369937Y-57760226D01*
X84225774Y-57616063D01*
X84056256Y-57502795D01*
X83867898Y-57424774D01*
X83667939Y-57385000D01*
X83464061Y-57385000D01*
X83264102Y-57424774D01*
X83075744Y-57502795D01*
X82906226Y-57616063D01*
X82762063Y-57760226D01*
X82648795Y-57929744D01*
X82570774Y-58118102D01*
X82531000Y-58318061D01*
X82531000Y-58521939D01*
X82549944Y-58617176D01*
X82484494Y-58563463D01*
X82374180Y-58504498D01*
X82254482Y-58468188D01*
X82130000Y-58455928D01*
X80430000Y-58455928D01*
X80305518Y-58468188D01*
X80185820Y-58504498D01*
X80075506Y-58563463D01*
X79978815Y-58642815D01*
X79899463Y-58739506D01*
X79840498Y-58849820D01*
X79804188Y-58969518D01*
X79791928Y-59094000D01*
X79791928Y-60794000D01*
X79804188Y-60918482D01*
X79840498Y-61038180D01*
X79899463Y-61148494D01*
X79978815Y-61245185D01*
X80075506Y-61324537D01*
X80185820Y-61383502D01*
X80258380Y-61405513D01*
X80126525Y-61537368D01*
X79964010Y-61780589D01*
X79852068Y-62050842D01*
X79795000Y-62337740D01*
X79795000Y-62630260D01*
X79852068Y-62917158D01*
X79964010Y-63187411D01*
X80126525Y-63430632D01*
X80333368Y-63637475D01*
X80507760Y-63754000D01*
X80333368Y-63870525D01*
X80126525Y-64077368D01*
X79964010Y-64320589D01*
X79852068Y-64590842D01*
X79795000Y-64877740D01*
X79795000Y-65170260D01*
X79852068Y-65457158D01*
X79964010Y-65727411D01*
X80126525Y-65970632D01*
X80333368Y-66177475D01*
X80515534Y-66299195D01*
X80398645Y-66368822D01*
X80182412Y-66563731D01*
X80008359Y-66797080D01*
X79883175Y-67059901D01*
X79838524Y-67207110D01*
X79959845Y-67437000D01*
X81153000Y-67437000D01*
X81153000Y-67417000D01*
X81407000Y-67417000D01*
X81407000Y-67437000D01*
X82600155Y-67437000D01*
X82721476Y-67207110D01*
X82676825Y-67059901D01*
X82551641Y-66797080D01*
X82377588Y-66563731D01*
X82161355Y-66368822D01*
X82044466Y-66299195D01*
X82226632Y-66177475D01*
X82433475Y-65970632D01*
X82595990Y-65727411D01*
X82707932Y-65457158D01*
X82765000Y-65170260D01*
X82765000Y-64877740D01*
X82707932Y-64590842D01*
X82595990Y-64320589D01*
X82433475Y-64077368D01*
X82226632Y-63870525D01*
X82052240Y-63754000D01*
X82226632Y-63637475D01*
X82433475Y-63430632D01*
X82595990Y-63187411D01*
X82707932Y-62917158D01*
X82765000Y-62630260D01*
X82765000Y-62337740D01*
X82708922Y-62055820D01*
X82821744Y-62131205D01*
X83010102Y-62209226D01*
X83210061Y-62249000D01*
X83413939Y-62249000D01*
X83591400Y-62213701D01*
X83591400Y-62888286D01*
X83112345Y-63367341D01*
X83079389Y-63394388D01*
X83016945Y-63470477D01*
X82971469Y-63525889D01*
X82891279Y-63675916D01*
X82841896Y-63838706D01*
X82825222Y-64008000D01*
X82829401Y-64050430D01*
X82829401Y-68030690D01*
X82828774Y-68030063D01*
X82712024Y-67952053D01*
X82721476Y-67920890D01*
X82600155Y-67691000D01*
X81407000Y-67691000D01*
X81407000Y-67711000D01*
X81153000Y-67711000D01*
X81153000Y-67691000D01*
X80207459Y-67691000D01*
X80111939Y-67672000D01*
X79908061Y-67672000D01*
X79708102Y-67711774D01*
X79519744Y-67789795D01*
X79350226Y-67903063D01*
X79293941Y-67959348D01*
X79230256Y-67916795D01*
X79041898Y-67838774D01*
X78841939Y-67799000D01*
X78638061Y-67799000D01*
X78438102Y-67838774D01*
X78264425Y-67910714D01*
X78193274Y-67839563D01*
X78023756Y-67726295D01*
X77835398Y-67648274D01*
X77635439Y-67608500D01*
X77431561Y-67608500D01*
X77393800Y-67616011D01*
X77393800Y-65952920D01*
X77397732Y-65912999D01*
X77393800Y-65873077D01*
X77382039Y-65753663D01*
X77335562Y-65600450D01*
X77260088Y-65459248D01*
X77158517Y-65335483D01*
X77127507Y-65310034D01*
X75024971Y-63207499D01*
X74999517Y-63176483D01*
X74875752Y-63074912D01*
X74734550Y-62999438D01*
X74581337Y-62952961D01*
X74461923Y-62941200D01*
X74461920Y-62941200D01*
X74422000Y-62937268D01*
X74382080Y-62941200D01*
X70059673Y-62941200D01*
X69906521Y-62788049D01*
X69959256Y-62766205D01*
X70128774Y-62652937D01*
X70272937Y-62508774D01*
X70386205Y-62339256D01*
X70464226Y-62150898D01*
X70504000Y-61950939D01*
X70504000Y-61860360D01*
X70526826Y-61883186D01*
X70696344Y-61996454D01*
X70884702Y-62074475D01*
X71084661Y-62114249D01*
X71288539Y-62114249D01*
X71383718Y-62095317D01*
X71394774Y-62150898D01*
X71472795Y-62339256D01*
X71586063Y-62508774D01*
X71730226Y-62652937D01*
X71899744Y-62766205D01*
X72088102Y-62844226D01*
X72288061Y-62884000D01*
X72491939Y-62884000D01*
X72691898Y-62844226D01*
X72880256Y-62766205D01*
X73049774Y-62652937D01*
X73193937Y-62508774D01*
X73300064Y-62349943D01*
X73431061Y-62376000D01*
X73634939Y-62376000D01*
X73834898Y-62336226D01*
X74023256Y-62258205D01*
X74192774Y-62144937D01*
X74209650Y-62128061D01*
X74530000Y-62128061D01*
X74530000Y-62331939D01*
X74569774Y-62531898D01*
X74647795Y-62720256D01*
X74761063Y-62889774D01*
X74905226Y-63033937D01*
X75074744Y-63147205D01*
X75263102Y-63225226D01*
X75463061Y-63265000D01*
X75666939Y-63265000D01*
X75866898Y-63225226D01*
X76055256Y-63147205D01*
X76136500Y-63092920D01*
X76217744Y-63147205D01*
X76406102Y-63225226D01*
X76606061Y-63265000D01*
X76809939Y-63265000D01*
X77009898Y-63225226D01*
X77198256Y-63147205D01*
X77367774Y-63033937D01*
X77511937Y-62889774D01*
X77625205Y-62720256D01*
X77703226Y-62531898D01*
X77743000Y-62331939D01*
X77743000Y-62301186D01*
X77868744Y-62385205D01*
X78057102Y-62463226D01*
X78257061Y-62503000D01*
X78460939Y-62503000D01*
X78660898Y-62463226D01*
X78849256Y-62385205D01*
X79018774Y-62271937D01*
X79162937Y-62127774D01*
X79276205Y-61958256D01*
X79354226Y-61769898D01*
X79394000Y-61569939D01*
X79394000Y-61366061D01*
X79354226Y-61166102D01*
X79276205Y-60977744D01*
X79162937Y-60808226D01*
X79018774Y-60664063D01*
X78849256Y-60550795D01*
X78660898Y-60472774D01*
X78460939Y-60433000D01*
X78257061Y-60433000D01*
X78057102Y-60472774D01*
X77868744Y-60550795D01*
X77699226Y-60664063D01*
X77555063Y-60808226D01*
X77441795Y-60977744D01*
X77363774Y-61166102D01*
X77324000Y-61366061D01*
X77324000Y-61396814D01*
X77198256Y-61312795D01*
X77009898Y-61234774D01*
X76809939Y-61195000D01*
X76606061Y-61195000D01*
X76406102Y-61234774D01*
X76217744Y-61312795D01*
X76136500Y-61367080D01*
X76055256Y-61312795D01*
X75866898Y-61234774D01*
X75666939Y-61195000D01*
X75463061Y-61195000D01*
X75263102Y-61234774D01*
X75074744Y-61312795D01*
X74905226Y-61426063D01*
X74761063Y-61570226D01*
X74647795Y-61739744D01*
X74569774Y-61928102D01*
X74530000Y-62128061D01*
X74209650Y-62128061D01*
X74336937Y-62000774D01*
X74450205Y-61831256D01*
X74528226Y-61642898D01*
X74568000Y-61442939D01*
X74568000Y-61239061D01*
X74528226Y-61039102D01*
X74450205Y-60850744D01*
X74336937Y-60681226D01*
X74192774Y-60537063D01*
X74023256Y-60423795D01*
X73834898Y-60345774D01*
X73634939Y-60306000D01*
X73431061Y-60306000D01*
X73231102Y-60345774D01*
X73042744Y-60423795D01*
X72873226Y-60537063D01*
X72729063Y-60681226D01*
X72622936Y-60840057D01*
X72491939Y-60814000D01*
X72288061Y-60814000D01*
X72192882Y-60832932D01*
X72181826Y-60777351D01*
X72103805Y-60588993D01*
X71990537Y-60419475D01*
X71846374Y-60275312D01*
X71676856Y-60162044D01*
X71488498Y-60084023D01*
X71288539Y-60044249D01*
X71084661Y-60044249D01*
X70884702Y-60084023D01*
X70696344Y-60162044D01*
X70526826Y-60275312D01*
X70382663Y-60419475D01*
X70269395Y-60588993D01*
X70191374Y-60777351D01*
X70151600Y-60977310D01*
X70151600Y-61067889D01*
X70128774Y-61045063D01*
X69959256Y-60931795D01*
X69770898Y-60853774D01*
X69570939Y-60814000D01*
X69367061Y-60814000D01*
X69265800Y-60834142D01*
X69265800Y-58794387D01*
X69313795Y-58910256D01*
X69427063Y-59079774D01*
X69571226Y-59223937D01*
X69740744Y-59337205D01*
X69929102Y-59415226D01*
X70129061Y-59455000D01*
X70332939Y-59455000D01*
X70532898Y-59415226D01*
X70721256Y-59337205D01*
X70890774Y-59223937D01*
X70907650Y-59207061D01*
X73768000Y-59207061D01*
X73768000Y-59410939D01*
X73807774Y-59610898D01*
X73885795Y-59799256D01*
X73999063Y-59968774D01*
X74143226Y-60112937D01*
X74312744Y-60226205D01*
X74501102Y-60304226D01*
X74701061Y-60344000D01*
X74904939Y-60344000D01*
X75104898Y-60304226D01*
X75293256Y-60226205D01*
X75462774Y-60112937D01*
X75606937Y-59968774D01*
X75720205Y-59799256D01*
X75798226Y-59610898D01*
X75830690Y-59447690D01*
X75993898Y-59415226D01*
X76182256Y-59337205D01*
X76351774Y-59223937D01*
X76495937Y-59079774D01*
X76609205Y-58910256D01*
X76687226Y-58721898D01*
X76727000Y-58521939D01*
X76727000Y-58318061D01*
X76687226Y-58118102D01*
X76609205Y-57929744D01*
X76495937Y-57760226D01*
X76351774Y-57616063D01*
X76182256Y-57502795D01*
X76076109Y-57458827D01*
X76092000Y-57378939D01*
X76092000Y-57302061D01*
X79356000Y-57302061D01*
X79356000Y-57505939D01*
X79395774Y-57705898D01*
X79473795Y-57894256D01*
X79587063Y-58063774D01*
X79731226Y-58207937D01*
X79900744Y-58321205D01*
X80089102Y-58399226D01*
X80289061Y-58439000D01*
X80492939Y-58439000D01*
X80692898Y-58399226D01*
X80881256Y-58321205D01*
X81050774Y-58207937D01*
X81194937Y-58063774D01*
X81308205Y-57894256D01*
X81386226Y-57705898D01*
X81426000Y-57505939D01*
X81426000Y-57302061D01*
X81386226Y-57102102D01*
X81308205Y-56913744D01*
X81194937Y-56744226D01*
X81050774Y-56600063D01*
X80881256Y-56486795D01*
X80692898Y-56408774D01*
X80492939Y-56369000D01*
X80289061Y-56369000D01*
X80089102Y-56408774D01*
X79900744Y-56486795D01*
X79731226Y-56600063D01*
X79587063Y-56744226D01*
X79473795Y-56913744D01*
X79395774Y-57102102D01*
X79356000Y-57302061D01*
X76092000Y-57302061D01*
X76092000Y-57175061D01*
X76052226Y-56975102D01*
X75974205Y-56786744D01*
X75860937Y-56617226D01*
X75716774Y-56473063D01*
X75547256Y-56359795D01*
X75358898Y-56281774D01*
X75158939Y-56242000D01*
X74955061Y-56242000D01*
X74755102Y-56281774D01*
X74566744Y-56359795D01*
X74397226Y-56473063D01*
X74253063Y-56617226D01*
X74139795Y-56786744D01*
X74061774Y-56975102D01*
X74022000Y-57175061D01*
X74022000Y-57378939D01*
X74061774Y-57578898D01*
X74139795Y-57767256D01*
X74253063Y-57936774D01*
X74397226Y-58080937D01*
X74566744Y-58194205D01*
X74672891Y-58238173D01*
X74664310Y-58281310D01*
X74501102Y-58313774D01*
X74312744Y-58391795D01*
X74143226Y-58505063D01*
X73999063Y-58649226D01*
X73885795Y-58818744D01*
X73807774Y-59007102D01*
X73768000Y-59207061D01*
X70907650Y-59207061D01*
X71034937Y-59079774D01*
X71148205Y-58910256D01*
X71226226Y-58721898D01*
X71266000Y-58521939D01*
X71266000Y-58318061D01*
X71226226Y-58118102D01*
X71148205Y-57929744D01*
X71034937Y-57760226D01*
X70890774Y-57616063D01*
X70721256Y-57502795D01*
X70532898Y-57424774D01*
X70332939Y-57385000D01*
X70129061Y-57385000D01*
X69929102Y-57424774D01*
X69740744Y-57502795D01*
X69571226Y-57616063D01*
X69427063Y-57760226D01*
X69313795Y-57929744D01*
X69265800Y-58045613D01*
X69265800Y-55792920D01*
X69269732Y-55752999D01*
X69265800Y-55713077D01*
X69254039Y-55593663D01*
X69207562Y-55440450D01*
X69132089Y-55299249D01*
X69132088Y-55299247D01*
X69089535Y-55247397D01*
X69030517Y-55175483D01*
X68999502Y-55150030D01*
X67849533Y-54000061D01*
X68942000Y-54000061D01*
X68942000Y-54203939D01*
X68981774Y-54403898D01*
X69059795Y-54592256D01*
X69173063Y-54761774D01*
X69317226Y-54905937D01*
X69486744Y-55019205D01*
X69675102Y-55097226D01*
X69875061Y-55137000D01*
X70078939Y-55137000D01*
X70278898Y-55097226D01*
X70467256Y-55019205D01*
X70636774Y-54905937D01*
X70780937Y-54761774D01*
X70894205Y-54592256D01*
X70972226Y-54403898D01*
X71012000Y-54203939D01*
X71012000Y-54000061D01*
X70972226Y-53800102D01*
X70894205Y-53611744D01*
X70780937Y-53442226D01*
X70636774Y-53298063D01*
X70467256Y-53184795D01*
X70278898Y-53106774D01*
X70078939Y-53067000D01*
X69875061Y-53067000D01*
X69675102Y-53106774D01*
X69486744Y-53184795D01*
X69317226Y-53298063D01*
X69173063Y-53442226D01*
X69059795Y-53611744D01*
X68981774Y-53800102D01*
X68942000Y-54000061D01*
X67849533Y-54000061D01*
X67820018Y-53970546D01*
X67720473Y-53861455D01*
X67668559Y-53790137D01*
X67641350Y-53740132D01*
X67624646Y-53695997D01*
X67610083Y-53637494D01*
X67595143Y-53548823D01*
X67578313Y-53429705D01*
X67576361Y-53416840D01*
X67554054Y-53279361D01*
X67547390Y-53244492D01*
X67514080Y-53093240D01*
X67501774Y-53046062D01*
X67483794Y-52986586D01*
X67467932Y-52906842D01*
X67355990Y-52636589D01*
X67258043Y-52490000D01*
X84871928Y-52490000D01*
X84875000Y-53054250D01*
X85033750Y-53213000D01*
X86233000Y-53213000D01*
X86233000Y-52013750D01*
X86074250Y-51855000D01*
X85510000Y-51851928D01*
X85385518Y-51864188D01*
X85265820Y-51900498D01*
X85155506Y-51959463D01*
X85058815Y-52038815D01*
X84979463Y-52135506D01*
X84920498Y-52245820D01*
X84884188Y-52365518D01*
X84871928Y-52490000D01*
X67258043Y-52490000D01*
X67193475Y-52393368D01*
X66986632Y-52186525D01*
X66743411Y-52024010D01*
X66473158Y-51912068D01*
X66186260Y-51855000D01*
X65893740Y-51855000D01*
X65606842Y-51912068D01*
X65429551Y-51985504D01*
X65429522Y-48509022D01*
X65498084Y-48326379D01*
X65629822Y-48113705D01*
X65800358Y-47930671D01*
X66003205Y-47784242D01*
X66230621Y-47680005D01*
X66396001Y-47640532D01*
X66396000Y-48862580D01*
X66392807Y-48895000D01*
X66405550Y-49024383D01*
X66443290Y-49148793D01*
X66504575Y-49263450D01*
X66587052Y-49363948D01*
X66687550Y-49446425D01*
X66802207Y-49507710D01*
X66926617Y-49545450D01*
X67056000Y-49558193D01*
X67088419Y-49555000D01*
X85311581Y-49555000D01*
X85344000Y-49558193D01*
X85376419Y-49555000D01*
X85473383Y-49545450D01*
X85597793Y-49507710D01*
X85712450Y-49446425D01*
X85812948Y-49363948D01*
X85895425Y-49263450D01*
X85956710Y-49148793D01*
X85994450Y-49024383D01*
X86007193Y-48895000D01*
X86004000Y-48862581D01*
X86004000Y-47635177D01*
X86220966Y-47697003D01*
%TA.AperFunction,Conductor*%
D22*
G36*
X86220966Y-47697003D02*
G01*
X86443657Y-47810985D01*
X86639968Y-47966052D01*
X86802424Y-48156298D01*
X86928361Y-48380762D01*
X86970001Y-48499434D01*
X86970001Y-51853235D01*
X86645750Y-51855000D01*
X86487000Y-52013750D01*
X86487000Y-53213000D01*
X86507000Y-53213000D01*
X86507000Y-53467000D01*
X86487000Y-53467000D01*
X86487000Y-53487000D01*
X86233000Y-53487000D01*
X86233000Y-53467000D01*
X85033750Y-53467000D01*
X84875000Y-53625750D01*
X84871928Y-54190000D01*
X84884188Y-54314482D01*
X84920498Y-54434180D01*
X84979463Y-54544494D01*
X85058815Y-54641185D01*
X85155506Y-54720537D01*
X85265820Y-54779502D01*
X85338380Y-54801513D01*
X85206525Y-54933368D01*
X85044010Y-55176589D01*
X84932068Y-55446842D01*
X84875000Y-55733740D01*
X84875000Y-56026260D01*
X84932068Y-56313158D01*
X85044010Y-56583411D01*
X85206525Y-56826632D01*
X85413368Y-57033475D01*
X85587760Y-57150000D01*
X85413368Y-57266525D01*
X85206525Y-57473368D01*
X85044010Y-57716589D01*
X84932068Y-57986842D01*
X84917755Y-58058799D01*
X84899631Y-58117249D01*
X84889190Y-58154998D01*
X84853407Y-58301867D01*
X84847723Y-58327491D01*
X84821039Y-58460737D01*
X84820015Y-58465964D01*
X84798418Y-58578714D01*
X84779629Y-58661450D01*
X84761648Y-58719377D01*
X84740474Y-58767913D01*
X84706995Y-58824522D01*
X84648448Y-58901669D01*
X84545371Y-59013315D01*
X83874346Y-59684341D01*
X83841389Y-59711388D01*
X83744619Y-59829303D01*
X83733469Y-59842889D01*
X83653279Y-59992916D01*
X83603896Y-60155706D01*
X83597996Y-60215611D01*
X83413939Y-60179000D01*
X83210061Y-60179000D01*
X83010102Y-60218774D01*
X82821744Y-60296795D01*
X82768072Y-60332657D01*
X82768072Y-59094000D01*
X82767174Y-59084885D01*
X82906226Y-59223937D01*
X83075744Y-59337205D01*
X83264102Y-59415226D01*
X83464061Y-59455000D01*
X83667939Y-59455000D01*
X83867898Y-59415226D01*
X84056256Y-59337205D01*
X84225774Y-59223937D01*
X84369937Y-59079774D01*
X84483205Y-58910256D01*
X84561226Y-58721898D01*
X84601000Y-58521939D01*
X84601000Y-58318061D01*
X84561226Y-58118102D01*
X84483205Y-57929744D01*
X84369937Y-57760226D01*
X84225774Y-57616063D01*
X84056256Y-57502795D01*
X83867898Y-57424774D01*
X83667939Y-57385000D01*
X83464061Y-57385000D01*
X83264102Y-57424774D01*
X83075744Y-57502795D01*
X82906226Y-57616063D01*
X82762063Y-57760226D01*
X82648795Y-57929744D01*
X82570774Y-58118102D01*
X82531000Y-58318061D01*
X82531000Y-58521939D01*
X82549944Y-58617176D01*
X82484494Y-58563463D01*
X82374180Y-58504498D01*
X82254482Y-58468188D01*
X82130000Y-58455928D01*
X80430000Y-58455928D01*
X80305518Y-58468188D01*
X80185820Y-58504498D01*
X80075506Y-58563463D01*
X79978815Y-58642815D01*
X79899463Y-58739506D01*
X79840498Y-58849820D01*
X79804188Y-58969518D01*
X79791928Y-59094000D01*
X79791928Y-60794000D01*
X79804188Y-60918482D01*
X79840498Y-61038180D01*
X79899463Y-61148494D01*
X79978815Y-61245185D01*
X80075506Y-61324537D01*
X80185820Y-61383502D01*
X80258380Y-61405513D01*
X80126525Y-61537368D01*
X79964010Y-61780589D01*
X79852068Y-62050842D01*
X79795000Y-62337740D01*
X79795000Y-62630260D01*
X79852068Y-62917158D01*
X79964010Y-63187411D01*
X80126525Y-63430632D01*
X80333368Y-63637475D01*
X80507760Y-63754000D01*
X80333368Y-63870525D01*
X80126525Y-64077368D01*
X79964010Y-64320589D01*
X79852068Y-64590842D01*
X79795000Y-64877740D01*
X79795000Y-65170260D01*
X79852068Y-65457158D01*
X79964010Y-65727411D01*
X80126525Y-65970632D01*
X80333368Y-66177475D01*
X80515534Y-66299195D01*
X80398645Y-66368822D01*
X80182412Y-66563731D01*
X80008359Y-66797080D01*
X79883175Y-67059901D01*
X79838524Y-67207110D01*
X79959845Y-67437000D01*
X81153000Y-67437000D01*
X81153000Y-67417000D01*
X81407000Y-67417000D01*
X81407000Y-67437000D01*
X82600155Y-67437000D01*
X82721476Y-67207110D01*
X82676825Y-67059901D01*
X82551641Y-66797080D01*
X82377588Y-66563731D01*
X82161355Y-66368822D01*
X82044466Y-66299195D01*
X82226632Y-66177475D01*
X82433475Y-65970632D01*
X82595990Y-65727411D01*
X82707932Y-65457158D01*
X82765000Y-65170260D01*
X82765000Y-64877740D01*
X82707932Y-64590842D01*
X82595990Y-64320589D01*
X82433475Y-64077368D01*
X82226632Y-63870525D01*
X82052240Y-63754000D01*
X82226632Y-63637475D01*
X82433475Y-63430632D01*
X82595990Y-63187411D01*
X82707932Y-62917158D01*
X82765000Y-62630260D01*
X82765000Y-62337740D01*
X82708922Y-62055820D01*
X82821744Y-62131205D01*
X83010102Y-62209226D01*
X83210061Y-62249000D01*
X83413939Y-62249000D01*
X83591400Y-62213701D01*
X83591400Y-62888286D01*
X83112345Y-63367341D01*
X83079389Y-63394388D01*
X83016945Y-63470477D01*
X82971469Y-63525889D01*
X82891279Y-63675916D01*
X82841896Y-63838706D01*
X82825222Y-64008000D01*
X82829401Y-64050430D01*
X82829401Y-68030690D01*
X82828774Y-68030063D01*
X82712024Y-67952053D01*
X82721476Y-67920890D01*
X82600155Y-67691000D01*
X81407000Y-67691000D01*
X81407000Y-67711000D01*
X81153000Y-67711000D01*
X81153000Y-67691000D01*
X80207459Y-67691000D01*
X80111939Y-67672000D01*
X79908061Y-67672000D01*
X79708102Y-67711774D01*
X79519744Y-67789795D01*
X79350226Y-67903063D01*
X79293941Y-67959348D01*
X79230256Y-67916795D01*
X79041898Y-67838774D01*
X78841939Y-67799000D01*
X78638061Y-67799000D01*
X78438102Y-67838774D01*
X78264425Y-67910714D01*
X78193274Y-67839563D01*
X78023756Y-67726295D01*
X77835398Y-67648274D01*
X77635439Y-67608500D01*
X77431561Y-67608500D01*
X77393800Y-67616011D01*
X77393800Y-65952920D01*
X77397732Y-65912999D01*
X77393800Y-65873077D01*
X77382039Y-65753663D01*
X77335562Y-65600450D01*
X77260088Y-65459248D01*
X77158517Y-65335483D01*
X77127507Y-65310034D01*
X75024971Y-63207499D01*
X74999517Y-63176483D01*
X74875752Y-63074912D01*
X74734550Y-62999438D01*
X74581337Y-62952961D01*
X74461923Y-62941200D01*
X74461920Y-62941200D01*
X74422000Y-62937268D01*
X74382080Y-62941200D01*
X70059673Y-62941200D01*
X69906521Y-62788049D01*
X69959256Y-62766205D01*
X70128774Y-62652937D01*
X70272937Y-62508774D01*
X70386205Y-62339256D01*
X70464226Y-62150898D01*
X70504000Y-61950939D01*
X70504000Y-61860360D01*
X70526826Y-61883186D01*
X70696344Y-61996454D01*
X70884702Y-62074475D01*
X71084661Y-62114249D01*
X71288539Y-62114249D01*
X71383718Y-62095317D01*
X71394774Y-62150898D01*
X71472795Y-62339256D01*
X71586063Y-62508774D01*
X71730226Y-62652937D01*
X71899744Y-62766205D01*
X72088102Y-62844226D01*
X72288061Y-62884000D01*
X72491939Y-62884000D01*
X72691898Y-62844226D01*
X72880256Y-62766205D01*
X73049774Y-62652937D01*
X73193937Y-62508774D01*
X73300064Y-62349943D01*
X73431061Y-62376000D01*
X73634939Y-62376000D01*
X73834898Y-62336226D01*
X74023256Y-62258205D01*
X74192774Y-62144937D01*
X74209650Y-62128061D01*
X74530000Y-62128061D01*
X74530000Y-62331939D01*
X74569774Y-62531898D01*
X74647795Y-62720256D01*
X74761063Y-62889774D01*
X74905226Y-63033937D01*
X75074744Y-63147205D01*
X75263102Y-63225226D01*
X75463061Y-63265000D01*
X75666939Y-63265000D01*
X75866898Y-63225226D01*
X76055256Y-63147205D01*
X76136500Y-63092920D01*
X76217744Y-63147205D01*
X76406102Y-63225226D01*
X76606061Y-63265000D01*
X76809939Y-63265000D01*
X77009898Y-63225226D01*
X77198256Y-63147205D01*
X77367774Y-63033937D01*
X77511937Y-62889774D01*
X77625205Y-62720256D01*
X77703226Y-62531898D01*
X77743000Y-62331939D01*
X77743000Y-62301186D01*
X77868744Y-62385205D01*
X78057102Y-62463226D01*
X78257061Y-62503000D01*
X78460939Y-62503000D01*
X78660898Y-62463226D01*
X78849256Y-62385205D01*
X79018774Y-62271937D01*
X79162937Y-62127774D01*
X79276205Y-61958256D01*
X79354226Y-61769898D01*
X79394000Y-61569939D01*
X79394000Y-61366061D01*
X79354226Y-61166102D01*
X79276205Y-60977744D01*
X79162937Y-60808226D01*
X79018774Y-60664063D01*
X78849256Y-60550795D01*
X78660898Y-60472774D01*
X78460939Y-60433000D01*
X78257061Y-60433000D01*
X78057102Y-60472774D01*
X77868744Y-60550795D01*
X77699226Y-60664063D01*
X77555063Y-60808226D01*
X77441795Y-60977744D01*
X77363774Y-61166102D01*
X77324000Y-61366061D01*
X77324000Y-61396814D01*
X77198256Y-61312795D01*
X77009898Y-61234774D01*
X76809939Y-61195000D01*
X76606061Y-61195000D01*
X76406102Y-61234774D01*
X76217744Y-61312795D01*
X76136500Y-61367080D01*
X76055256Y-61312795D01*
X75866898Y-61234774D01*
X75666939Y-61195000D01*
X75463061Y-61195000D01*
X75263102Y-61234774D01*
X75074744Y-61312795D01*
X74905226Y-61426063D01*
X74761063Y-61570226D01*
X74647795Y-61739744D01*
X74569774Y-61928102D01*
X74530000Y-62128061D01*
X74209650Y-62128061D01*
X74336937Y-62000774D01*
X74450205Y-61831256D01*
X74528226Y-61642898D01*
X74568000Y-61442939D01*
X74568000Y-61239061D01*
X74528226Y-61039102D01*
X74450205Y-60850744D01*
X74336937Y-60681226D01*
X74192774Y-60537063D01*
X74023256Y-60423795D01*
X73834898Y-60345774D01*
X73634939Y-60306000D01*
X73431061Y-60306000D01*
X73231102Y-60345774D01*
X73042744Y-60423795D01*
X72873226Y-60537063D01*
X72729063Y-60681226D01*
X72622936Y-60840057D01*
X72491939Y-60814000D01*
X72288061Y-60814000D01*
X72192882Y-60832932D01*
X72181826Y-60777351D01*
X72103805Y-60588993D01*
X71990537Y-60419475D01*
X71846374Y-60275312D01*
X71676856Y-60162044D01*
X71488498Y-60084023D01*
X71288539Y-60044249D01*
X71084661Y-60044249D01*
X70884702Y-60084023D01*
X70696344Y-60162044D01*
X70526826Y-60275312D01*
X70382663Y-60419475D01*
X70269395Y-60588993D01*
X70191374Y-60777351D01*
X70151600Y-60977310D01*
X70151600Y-61067889D01*
X70128774Y-61045063D01*
X69959256Y-60931795D01*
X69770898Y-60853774D01*
X69570939Y-60814000D01*
X69367061Y-60814000D01*
X69265800Y-60834142D01*
X69265800Y-58794387D01*
X69313795Y-58910256D01*
X69427063Y-59079774D01*
X69571226Y-59223937D01*
X69740744Y-59337205D01*
X69929102Y-59415226D01*
X70129061Y-59455000D01*
X70332939Y-59455000D01*
X70532898Y-59415226D01*
X70721256Y-59337205D01*
X70890774Y-59223937D01*
X70907650Y-59207061D01*
X73768000Y-59207061D01*
X73768000Y-59410939D01*
X73807774Y-59610898D01*
X73885795Y-59799256D01*
X73999063Y-59968774D01*
X74143226Y-60112937D01*
X74312744Y-60226205D01*
X74501102Y-60304226D01*
X74701061Y-60344000D01*
X74904939Y-60344000D01*
X75104898Y-60304226D01*
X75293256Y-60226205D01*
X75462774Y-60112937D01*
X75606937Y-59968774D01*
X75720205Y-59799256D01*
X75798226Y-59610898D01*
X75830690Y-59447690D01*
X75993898Y-59415226D01*
X76182256Y-59337205D01*
X76351774Y-59223937D01*
X76495937Y-59079774D01*
X76609205Y-58910256D01*
X76687226Y-58721898D01*
X76727000Y-58521939D01*
X76727000Y-58318061D01*
X76687226Y-58118102D01*
X76609205Y-57929744D01*
X76495937Y-57760226D01*
X76351774Y-57616063D01*
X76182256Y-57502795D01*
X76076109Y-57458827D01*
X76092000Y-57378939D01*
X76092000Y-57302061D01*
X79356000Y-57302061D01*
X79356000Y-57505939D01*
X79395774Y-57705898D01*
X79473795Y-57894256D01*
X79587063Y-58063774D01*
X79731226Y-58207937D01*
X79900744Y-58321205D01*
X80089102Y-58399226D01*
X80289061Y-58439000D01*
X80492939Y-58439000D01*
X80692898Y-58399226D01*
X80881256Y-58321205D01*
X81050774Y-58207937D01*
X81194937Y-58063774D01*
X81308205Y-57894256D01*
X81386226Y-57705898D01*
X81426000Y-57505939D01*
X81426000Y-57302061D01*
X81386226Y-57102102D01*
X81308205Y-56913744D01*
X81194937Y-56744226D01*
X81050774Y-56600063D01*
X80881256Y-56486795D01*
X80692898Y-56408774D01*
X80492939Y-56369000D01*
X80289061Y-56369000D01*
X80089102Y-56408774D01*
X79900744Y-56486795D01*
X79731226Y-56600063D01*
X79587063Y-56744226D01*
X79473795Y-56913744D01*
X79395774Y-57102102D01*
X79356000Y-57302061D01*
X76092000Y-57302061D01*
X76092000Y-57175061D01*
X76052226Y-56975102D01*
X75974205Y-56786744D01*
X75860937Y-56617226D01*
X75716774Y-56473063D01*
X75547256Y-56359795D01*
X75358898Y-56281774D01*
X75158939Y-56242000D01*
X74955061Y-56242000D01*
X74755102Y-56281774D01*
X74566744Y-56359795D01*
X74397226Y-56473063D01*
X74253063Y-56617226D01*
X74139795Y-56786744D01*
X74061774Y-56975102D01*
X74022000Y-57175061D01*
X74022000Y-57378939D01*
X74061774Y-57578898D01*
X74139795Y-57767256D01*
X74253063Y-57936774D01*
X74397226Y-58080937D01*
X74566744Y-58194205D01*
X74672891Y-58238173D01*
X74664310Y-58281310D01*
X74501102Y-58313774D01*
X74312744Y-58391795D01*
X74143226Y-58505063D01*
X73999063Y-58649226D01*
X73885795Y-58818744D01*
X73807774Y-59007102D01*
X73768000Y-59207061D01*
X70907650Y-59207061D01*
X71034937Y-59079774D01*
X71148205Y-58910256D01*
X71226226Y-58721898D01*
X71266000Y-58521939D01*
X71266000Y-58318061D01*
X71226226Y-58118102D01*
X71148205Y-57929744D01*
X71034937Y-57760226D01*
X70890774Y-57616063D01*
X70721256Y-57502795D01*
X70532898Y-57424774D01*
X70332939Y-57385000D01*
X70129061Y-57385000D01*
X69929102Y-57424774D01*
X69740744Y-57502795D01*
X69571226Y-57616063D01*
X69427063Y-57760226D01*
X69313795Y-57929744D01*
X69265800Y-58045613D01*
X69265800Y-55792920D01*
X69269732Y-55752999D01*
X69265800Y-55713077D01*
X69254039Y-55593663D01*
X69207562Y-55440450D01*
X69132089Y-55299249D01*
X69132088Y-55299247D01*
X69089535Y-55247397D01*
X69030517Y-55175483D01*
X68999502Y-55150030D01*
X67849533Y-54000061D01*
X68942000Y-54000061D01*
X68942000Y-54203939D01*
X68981774Y-54403898D01*
X69059795Y-54592256D01*
X69173063Y-54761774D01*
X69317226Y-54905937D01*
X69486744Y-55019205D01*
X69675102Y-55097226D01*
X69875061Y-55137000D01*
X70078939Y-55137000D01*
X70278898Y-55097226D01*
X70467256Y-55019205D01*
X70636774Y-54905937D01*
X70780937Y-54761774D01*
X70894205Y-54592256D01*
X70972226Y-54403898D01*
X71012000Y-54203939D01*
X71012000Y-54000061D01*
X70972226Y-53800102D01*
X70894205Y-53611744D01*
X70780937Y-53442226D01*
X70636774Y-53298063D01*
X70467256Y-53184795D01*
X70278898Y-53106774D01*
X70078939Y-53067000D01*
X69875061Y-53067000D01*
X69675102Y-53106774D01*
X69486744Y-53184795D01*
X69317226Y-53298063D01*
X69173063Y-53442226D01*
X69059795Y-53611744D01*
X68981774Y-53800102D01*
X68942000Y-54000061D01*
X67849533Y-54000061D01*
X67820018Y-53970546D01*
X67720473Y-53861455D01*
X67668559Y-53790137D01*
X67641350Y-53740132D01*
X67624646Y-53695997D01*
X67610083Y-53637494D01*
X67595143Y-53548823D01*
X67578313Y-53429705D01*
X67576361Y-53416840D01*
X67554054Y-53279361D01*
X67547390Y-53244492D01*
X67514080Y-53093240D01*
X67501774Y-53046062D01*
X67483794Y-52986586D01*
X67467932Y-52906842D01*
X67355990Y-52636589D01*
X67258043Y-52490000D01*
X84871928Y-52490000D01*
X84875000Y-53054250D01*
X85033750Y-53213000D01*
X86233000Y-53213000D01*
X86233000Y-52013750D01*
X86074250Y-51855000D01*
X85510000Y-51851928D01*
X85385518Y-51864188D01*
X85265820Y-51900498D01*
X85155506Y-51959463D01*
X85058815Y-52038815D01*
X84979463Y-52135506D01*
X84920498Y-52245820D01*
X84884188Y-52365518D01*
X84871928Y-52490000D01*
X67258043Y-52490000D01*
X67193475Y-52393368D01*
X66986632Y-52186525D01*
X66743411Y-52024010D01*
X66473158Y-51912068D01*
X66186260Y-51855000D01*
X65893740Y-51855000D01*
X65606842Y-51912068D01*
X65429551Y-51985504D01*
X65429522Y-48509022D01*
X65498084Y-48326379D01*
X65629822Y-48113705D01*
X65800358Y-47930671D01*
X66003205Y-47784242D01*
X66230621Y-47680005D01*
X66396001Y-47640532D01*
X66396000Y-48862580D01*
X66392807Y-48895000D01*
X66405550Y-49024383D01*
X66443290Y-49148793D01*
X66504575Y-49263450D01*
X66587052Y-49363948D01*
X66687550Y-49446425D01*
X66802207Y-49507710D01*
X66926617Y-49545450D01*
X67056000Y-49558193D01*
X67088419Y-49555000D01*
X85311581Y-49555000D01*
X85344000Y-49558193D01*
X85376419Y-49555000D01*
X85473383Y-49545450D01*
X85597793Y-49507710D01*
X85712450Y-49446425D01*
X85812948Y-49363948D01*
X85895425Y-49263450D01*
X85956710Y-49148793D01*
X85994450Y-49024383D01*
X86007193Y-48895000D01*
X86004000Y-48862581D01*
X86004000Y-47635177D01*
X86220966Y-47697003D01*
G37*
%TD.AperFunction*%
%TD*%
D23*
%TO.N,+5V*%
X86626430Y-59213509D02*
X86471303Y-59261609D01*
X86325076Y-59297236D01*
X86192078Y-59323870D01*
X86068790Y-59347486D01*
X86068366Y-59347574D01*
X85951056Y-59374215D01*
X85950104Y-59374471D01*
X85835108Y-59410166D01*
X85833795Y-59410654D01*
X85717343Y-59461456D01*
X85715956Y-59462166D01*
X85594279Y-59534126D01*
X85593066Y-59534940D01*
X85462393Y-59634108D01*
X85461456Y-59634894D01*
X85326986Y-59759045D01*
X85020955Y-59453014D01*
X85145105Y-59318543D01*
X85145891Y-59317606D01*
X85245059Y-59186933D01*
X85245873Y-59185720D01*
X85317833Y-59064043D01*
X85318543Y-59062656D01*
X85369345Y-58946204D01*
X85369833Y-58944891D01*
X85405528Y-58829895D01*
X85405784Y-58828943D01*
X85432425Y-58711633D01*
X85432513Y-58711209D01*
X85456129Y-58587921D01*
X85482763Y-58454923D01*
X85518390Y-58308696D01*
X85566490Y-58153570D01*
X86647564Y-58132436D01*
X86626430Y-59213509D01*
%TA.AperFunction,Conductor*%
D22*
G36*
X86626430Y-59213509D02*
G01*
X86471303Y-59261609D01*
X86325076Y-59297236D01*
X86192078Y-59323870D01*
X86068790Y-59347486D01*
X86068366Y-59347574D01*
X85951056Y-59374215D01*
X85950104Y-59374471D01*
X85835108Y-59410166D01*
X85833795Y-59410654D01*
X85717343Y-59461456D01*
X85715956Y-59462166D01*
X85594279Y-59534126D01*
X85593066Y-59534940D01*
X85462393Y-59634108D01*
X85461456Y-59634894D01*
X85326986Y-59759045D01*
X85020955Y-59453014D01*
X85145105Y-59318543D01*
X85145891Y-59317606D01*
X85245059Y-59186933D01*
X85245873Y-59185720D01*
X85317833Y-59064043D01*
X85318543Y-59062656D01*
X85369345Y-58946204D01*
X85369833Y-58944891D01*
X85405528Y-58829895D01*
X85405784Y-58828943D01*
X85432425Y-58711633D01*
X85432513Y-58711209D01*
X85456129Y-58587921D01*
X85482763Y-58454923D01*
X85518390Y-58308696D01*
X85566490Y-58153570D01*
X86647564Y-58132436D01*
X86626430Y-59213509D01*
G37*
%TD.AperFunction*%
%TD*%
D23*
%TO.N,+5V*%
X71858415Y-97597707D02*
X71858698Y-97597837D01*
X71914389Y-97622654D01*
X71914863Y-97622854D01*
X71966922Y-97643566D01*
X71967590Y-97643810D01*
X72018203Y-97660734D01*
X72019012Y-97660975D01*
X72070365Y-97674427D01*
X72071216Y-97674619D01*
X72125496Y-97684916D01*
X72126281Y-97685040D01*
X72185676Y-97692497D01*
X72186321Y-97692561D01*
X72253018Y-97697496D01*
X72253500Y-97697523D01*
X72329684Y-97700252D01*
X72330018Y-97700259D01*
X72405300Y-97700979D01*
X72405300Y-98133021D01*
X72330018Y-98133740D01*
X72329684Y-98133747D01*
X72253500Y-98136476D01*
X72253018Y-98136503D01*
X72186321Y-98141438D01*
X72185676Y-98141502D01*
X72126281Y-98148959D01*
X72125496Y-98149083D01*
X72071216Y-98159380D01*
X72070365Y-98159572D01*
X72019012Y-98173024D01*
X72018203Y-98173265D01*
X71967590Y-98190189D01*
X71966922Y-98190433D01*
X71914863Y-98211145D01*
X71914389Y-98211345D01*
X71858698Y-98236162D01*
X71858415Y-98236292D01*
X71804831Y-98261762D01*
X71446322Y-97917000D01*
X71804831Y-97572238D01*
X71858415Y-97597707D01*
%TA.AperFunction,Conductor*%
D22*
G36*
X71858415Y-97597707D02*
G01*
X71858698Y-97597837D01*
X71914389Y-97622654D01*
X71914863Y-97622854D01*
X71966922Y-97643566D01*
X71967590Y-97643810D01*
X72018203Y-97660734D01*
X72019012Y-97660975D01*
X72070365Y-97674427D01*
X72071216Y-97674619D01*
X72125496Y-97684916D01*
X72126281Y-97685040D01*
X72185676Y-97692497D01*
X72186321Y-97692561D01*
X72253018Y-97697496D01*
X72253500Y-97697523D01*
X72329684Y-97700252D01*
X72330018Y-97700259D01*
X72405300Y-97700979D01*
X72405300Y-98133021D01*
X72330018Y-98133740D01*
X72329684Y-98133747D01*
X72253500Y-98136476D01*
X72253018Y-98136503D01*
X72186321Y-98141438D01*
X72185676Y-98141502D01*
X72126281Y-98148959D01*
X72125496Y-98149083D01*
X72071216Y-98159380D01*
X72070365Y-98159572D01*
X72019012Y-98173024D01*
X72018203Y-98173265D01*
X71967590Y-98190189D01*
X71966922Y-98190433D01*
X71914863Y-98211145D01*
X71914389Y-98211345D01*
X71858698Y-98236162D01*
X71858415Y-98236292D01*
X71804831Y-98261762D01*
X71446322Y-97917000D01*
X71804831Y-97572238D01*
X71858415Y-97597707D01*
G37*
%TD.AperFunction*%
%TD*%
D23*
%TO.N,/VBAT*%
X78940662Y-70068808D02*
X78941038Y-70069157D01*
X79003689Y-70124996D01*
X79004155Y-70125392D01*
X79060706Y-70171106D01*
X79061238Y-70171513D01*
X79113677Y-70209514D01*
X79114209Y-70209879D01*
X79164523Y-70242576D01*
X79164957Y-70242846D01*
X79215136Y-70272653D01*
X79215386Y-70272798D01*
X79267418Y-70302124D01*
X79267453Y-70302143D01*
X79323254Y-70333361D01*
X79384725Y-70368826D01*
X79446472Y-70406445D01*
X79344346Y-70893026D01*
X78862050Y-70771941D01*
X78856024Y-70713452D01*
X78856021Y-70713424D01*
X78849674Y-70653129D01*
X78849634Y-70652791D01*
X78842376Y-70598015D01*
X78842262Y-70597307D01*
X78832590Y-70546526D01*
X78832340Y-70545464D01*
X78818754Y-70497153D01*
X78818315Y-70495862D01*
X78799312Y-70448497D01*
X78798696Y-70447185D01*
X78772773Y-70399243D01*
X78772073Y-70398098D01*
X78737730Y-70348054D01*
X78737057Y-70347159D01*
X78692791Y-70293488D01*
X78692215Y-70292837D01*
X78645020Y-70242991D01*
X78878900Y-70009111D01*
X78940662Y-70068808D01*
%TA.AperFunction,Conductor*%
D22*
G36*
X78940662Y-70068808D02*
G01*
X78941038Y-70069157D01*
X79003689Y-70124996D01*
X79004155Y-70125392D01*
X79060706Y-70171106D01*
X79061238Y-70171513D01*
X79113677Y-70209514D01*
X79114209Y-70209879D01*
X79164523Y-70242576D01*
X79164957Y-70242846D01*
X79215136Y-70272653D01*
X79215386Y-70272798D01*
X79267418Y-70302124D01*
X79267453Y-70302143D01*
X79323254Y-70333361D01*
X79384725Y-70368826D01*
X79446472Y-70406445D01*
X79344346Y-70893026D01*
X78862050Y-70771941D01*
X78856024Y-70713452D01*
X78856021Y-70713424D01*
X78849674Y-70653129D01*
X78849634Y-70652791D01*
X78842376Y-70598015D01*
X78842262Y-70597307D01*
X78832590Y-70546526D01*
X78832340Y-70545464D01*
X78818754Y-70497153D01*
X78818315Y-70495862D01*
X78799312Y-70448497D01*
X78798696Y-70447185D01*
X78772773Y-70399243D01*
X78772073Y-70398098D01*
X78737730Y-70348054D01*
X78737057Y-70347159D01*
X78692791Y-70293488D01*
X78692215Y-70292837D01*
X78645020Y-70242991D01*
X78878900Y-70009111D01*
X78940662Y-70068808D01*
G37*
%TD.AperFunction*%
%TD*%
D23*
%TO.N,/VBAT*%
X66833440Y-53073568D02*
X66881644Y-53233023D01*
X66914772Y-53383452D01*
X66937001Y-53520449D01*
X66954990Y-53647766D01*
X66955042Y-53648099D01*
X66975454Y-53769249D01*
X66975653Y-53770207D01*
X67005173Y-53888799D01*
X67005619Y-53890227D01*
X67050951Y-54010000D01*
X67051673Y-54011574D01*
X67119520Y-54136265D01*
X67120408Y-54137669D01*
X67217475Y-54271017D01*
X67218362Y-54272103D01*
X67343175Y-54408884D01*
X67108884Y-54643175D01*
X66972103Y-54518362D01*
X66971017Y-54517475D01*
X66837669Y-54420408D01*
X66836265Y-54419520D01*
X66711574Y-54351673D01*
X66710000Y-54350951D01*
X66590227Y-54305619D01*
X66588799Y-54305173D01*
X66470207Y-54275653D01*
X66469249Y-54275454D01*
X66348099Y-54255042D01*
X66347766Y-54254990D01*
X66220449Y-54237001D01*
X66083452Y-54214772D01*
X65933023Y-54181644D01*
X65773568Y-54133440D01*
X65752436Y-53052436D01*
X66833440Y-53073568D01*
%TA.AperFunction,Conductor*%
D22*
G36*
X66833440Y-53073568D02*
G01*
X66881644Y-53233023D01*
X66914772Y-53383452D01*
X66937001Y-53520449D01*
X66954990Y-53647766D01*
X66955042Y-53648099D01*
X66975454Y-53769249D01*
X66975653Y-53770207D01*
X67005173Y-53888799D01*
X67005619Y-53890227D01*
X67050951Y-54010000D01*
X67051673Y-54011574D01*
X67119520Y-54136265D01*
X67120408Y-54137669D01*
X67217475Y-54271017D01*
X67218362Y-54272103D01*
X67343175Y-54408884D01*
X67108884Y-54643175D01*
X66972103Y-54518362D01*
X66971017Y-54517475D01*
X66837669Y-54420408D01*
X66836265Y-54419520D01*
X66711574Y-54351673D01*
X66710000Y-54350951D01*
X66590227Y-54305619D01*
X66588799Y-54305173D01*
X66470207Y-54275653D01*
X66469249Y-54275454D01*
X66348099Y-54255042D01*
X66347766Y-54254990D01*
X66220449Y-54237001D01*
X66083452Y-54214772D01*
X65933023Y-54181644D01*
X65773568Y-54133440D01*
X65752436Y-53052436D01*
X66833440Y-53073568D01*
G37*
%TD.AperFunction*%
%TD*%
M02*
