%TF.GenerationSoftware,KiCad,Pcbnew,(6.0.1)*%
%TF.CreationDate,2022-01-25T13:59:19+08:00*%
%TF.ProjectId,PCB_OLED_OEL1M4033FPC_A1_E,5043425f-4f4c-4454-945f-4f454c314d34,1.1*%
%TF.SameCoordinates,Original*%
%TF.FileFunction,Legend,Bot*%
%TF.FilePolarity,Positive*%
%FSLAX46Y46*%
G04 Gerber Fmt 4.6, Leading zero omitted, Abs format (unit mm)*
G04 Created by KiCad (PCBNEW (6.0.1)) date 2022-01-25 13:59:19*
%MOMM*%
%LPD*%
G01*
G04 APERTURE LIST*
G04 Aperture macros list*
%AMRoundRect*
0 Rectangle with rounded corners*
0 $1 Rounding radius*
0 $2 $3 $4 $5 $6 $7 $8 $9 X,Y pos of 4 corners*
0 Add a 4 corners polygon primitive as box body*
4,1,4,$2,$3,$4,$5,$6,$7,$8,$9,$2,$3,0*
0 Add four circle primitives for the rounded corners*
1,1,$1+$1,$2,$3*
1,1,$1+$1,$4,$5*
1,1,$1+$1,$6,$7*
1,1,$1+$1,$8,$9*
0 Add four rect primitives between the rounded corners*
20,1,$1+$1,$2,$3,$4,$5,0*
20,1,$1+$1,$4,$5,$6,$7,0*
20,1,$1+$1,$6,$7,$8,$9,0*
20,1,$1+$1,$8,$9,$2,$3,0*%
%AMFreePoly0*
4,1,6,1.000000,0.000000,0.500000,-0.750000,-0.500000,-0.750000,-0.500000,0.750000,0.500000,0.750000,1.000000,0.000000,1.000000,0.000000,$1*%
G04 Aperture macros list end*
%ADD10C,0.300000*%
%ADD11C,0.120000*%
%ADD12C,0.150000*%
%ADD13C,0.500000*%
%ADD14C,0.420000*%
%ADD15C,3.100000*%
%ADD16C,4.500000*%
%ADD17RoundRect,0.225000X-0.225000X-0.250000X0.225000X-0.250000X0.225000X0.250000X-0.225000X0.250000X0*%
%ADD18RoundRect,0.250000X0.250000X0.475000X-0.250000X0.475000X-0.250000X-0.475000X0.250000X-0.475000X0*%
%ADD19R,1.000000X1.500000*%
%ADD20RoundRect,0.200000X0.275000X-0.200000X0.275000X0.200000X-0.275000X0.200000X-0.275000X-0.200000X0*%
%ADD21RoundRect,0.200000X0.200000X0.275000X-0.200000X0.275000X-0.200000X-0.275000X0.200000X-0.275000X0*%
%ADD22R,1.200000X0.900000*%
%ADD23R,1.700000X1.700000*%
%ADD24O,1.700000X1.700000*%
%ADD25R,0.800000X1.000000*%
%ADD26C,0.900000*%
%ADD27R,1.500000X0.700000*%
%ADD28RoundRect,0.250000X-0.250000X-0.475000X0.250000X-0.475000X0.250000X0.475000X-0.250000X0.475000X0*%
%ADD29R,2.800000X0.400000*%
%ADD30RoundRect,0.200000X-0.200000X-0.275000X0.200000X-0.275000X0.200000X0.275000X-0.200000X0.275000X0*%
%ADD31R,1.500000X1.500000*%
%ADD32FreePoly0,270.000000*%
%ADD33FreePoly0,90.000000*%
%ADD34RoundRect,0.250000X-0.375000X-0.850000X0.375000X-0.850000X0.375000X0.850000X-0.375000X0.850000X0*%
%ADD35RoundRect,0.150000X0.512500X0.150000X-0.512500X0.150000X-0.512500X-0.150000X0.512500X-0.150000X0*%
G04 APERTURE END LIST*
D10*
X119173571Y-58336571D02*
X119173571Y-56836571D01*
X119173571Y-57550857D02*
X118316428Y-57550857D01*
X118316428Y-58336571D02*
X118316428Y-56836571D01*
X124035714Y-52607142D02*
X123821428Y-52678571D01*
X123464285Y-52678571D01*
X123321428Y-52607142D01*
X123250000Y-52535714D01*
X123178571Y-52392857D01*
X123178571Y-52250000D01*
X123250000Y-52107142D01*
X123321428Y-52035714D01*
X123464285Y-51964285D01*
X123750000Y-51892857D01*
X123892857Y-51821428D01*
X123964285Y-51750000D01*
X124035714Y-51607142D01*
X124035714Y-51464285D01*
X123964285Y-51321428D01*
X123892857Y-51250000D01*
X123750000Y-51178571D01*
X123392857Y-51178571D01*
X123178571Y-51250000D01*
X122535714Y-52678571D02*
X122535714Y-51178571D01*
X121964285Y-51178571D01*
X121821428Y-51250000D01*
X121750000Y-51321428D01*
X121678571Y-51464285D01*
X121678571Y-51678571D01*
X121750000Y-51821428D01*
X121821428Y-51892857D01*
X121964285Y-51964285D01*
X122535714Y-51964285D01*
X121035714Y-52678571D02*
X121035714Y-51178571D01*
D11*
X109302428Y-38042809D02*
X109188142Y-38080904D01*
X108997666Y-38080904D01*
X108921476Y-38042809D01*
X108883380Y-38004714D01*
X108845285Y-37928523D01*
X108845285Y-37852333D01*
X108883380Y-37776142D01*
X108921476Y-37738047D01*
X108997666Y-37699952D01*
X109150047Y-37661857D01*
X109226238Y-37623761D01*
X109264333Y-37585666D01*
X109302428Y-37509476D01*
X109302428Y-37433285D01*
X109264333Y-37357095D01*
X109226238Y-37319000D01*
X109150047Y-37280904D01*
X108959571Y-37280904D01*
X108845285Y-37319000D01*
X108502428Y-38080904D02*
X108502428Y-37280904D01*
X108311952Y-37280904D01*
X108197666Y-37319000D01*
X108121476Y-37395190D01*
X108083380Y-37471380D01*
X108045285Y-37623761D01*
X108045285Y-37738047D01*
X108083380Y-37890428D01*
X108121476Y-37966619D01*
X108197666Y-38042809D01*
X108311952Y-38080904D01*
X108502428Y-38080904D01*
X107740523Y-37852333D02*
X107359571Y-37852333D01*
X107816714Y-38080904D02*
X107550047Y-37280904D01*
X107283380Y-38080904D01*
D12*
X99377285Y-59618619D02*
X99329666Y-59571000D01*
X99234428Y-59523380D01*
X98996333Y-59523380D01*
X98901095Y-59571000D01*
X98853476Y-59618619D01*
X98805857Y-59713857D01*
X98805857Y-59809095D01*
X98853476Y-59951952D01*
X99424904Y-60523380D01*
X98805857Y-60523380D01*
X98424904Y-59618619D02*
X98377285Y-59571000D01*
X98282047Y-59523380D01*
X98043952Y-59523380D01*
X97948714Y-59571000D01*
X97901095Y-59618619D01*
X97853476Y-59713857D01*
X97853476Y-59809095D01*
X97901095Y-59951952D01*
X98472523Y-60523380D01*
X97853476Y-60523380D01*
X97234428Y-59523380D02*
X97139190Y-59523380D01*
X97043952Y-59571000D01*
X96996333Y-59618619D01*
X96948714Y-59713857D01*
X96901095Y-59904333D01*
X96901095Y-60142428D01*
X96948714Y-60332904D01*
X96996333Y-60428142D01*
X97043952Y-60475761D01*
X97139190Y-60523380D01*
X97234428Y-60523380D01*
X97329666Y-60475761D01*
X97377285Y-60428142D01*
X97424904Y-60332904D01*
X97472523Y-60142428D01*
X97472523Y-59904333D01*
X97424904Y-59713857D01*
X97377285Y-59618619D01*
X97329666Y-59571000D01*
X97234428Y-59523380D01*
X95996333Y-59523380D02*
X96472523Y-59523380D01*
X96520142Y-59999571D01*
X96472523Y-59951952D01*
X96377285Y-59904333D01*
X96139190Y-59904333D01*
X96043952Y-59951952D01*
X95996333Y-59999571D01*
X95948714Y-60094809D01*
X95948714Y-60332904D01*
X95996333Y-60428142D01*
X96043952Y-60475761D01*
X96139190Y-60523380D01*
X96377285Y-60523380D01*
X96472523Y-60475761D01*
X96520142Y-60428142D01*
D10*
X124725857Y-40223809D02*
X125487761Y-40223809D01*
X125487761Y-38623809D01*
X124192523Y-39385714D02*
X123659190Y-39385714D01*
X123430619Y-40223809D02*
X124192523Y-40223809D01*
X124192523Y-38623809D01*
X123430619Y-38623809D01*
X122897285Y-38623809D02*
X121830619Y-40223809D01*
X121830619Y-38623809D02*
X122897285Y-40223809D01*
X121297285Y-40147619D02*
X121068714Y-40223809D01*
X120687761Y-40223809D01*
X120535380Y-40147619D01*
X120459190Y-40071428D01*
X120383000Y-39919047D01*
X120383000Y-39766666D01*
X120459190Y-39614285D01*
X120535380Y-39538095D01*
X120687761Y-39461904D01*
X120992523Y-39385714D01*
X121144904Y-39309523D01*
X121221095Y-39233333D01*
X121297285Y-39080952D01*
X121297285Y-38928571D01*
X121221095Y-38776190D01*
X121144904Y-38700000D01*
X120992523Y-38623809D01*
X120611571Y-38623809D01*
X120383000Y-38700000D01*
X119697285Y-40223809D02*
X119697285Y-38623809D01*
X118630619Y-38623809D02*
X118325857Y-38623809D01*
X118173476Y-38700000D01*
X118021095Y-38852380D01*
X117944904Y-39157142D01*
X117944904Y-39690476D01*
X118021095Y-39995238D01*
X118173476Y-40147619D01*
X118325857Y-40223809D01*
X118630619Y-40223809D01*
X118783000Y-40147619D01*
X118935380Y-39995238D01*
X119011571Y-39690476D01*
X119011571Y-39157142D01*
X118935380Y-38852380D01*
X118783000Y-38700000D01*
X118630619Y-38623809D01*
X117259190Y-40223809D02*
X117259190Y-38623809D01*
X116344904Y-40223809D01*
X116344904Y-38623809D01*
X115583000Y-40071428D02*
X115506809Y-40147619D01*
X115583000Y-40223809D01*
X115659190Y-40147619D01*
X115583000Y-40071428D01*
X115583000Y-40223809D01*
X113906809Y-40071428D02*
X113983000Y-40147619D01*
X114211571Y-40223809D01*
X114363952Y-40223809D01*
X114592523Y-40147619D01*
X114744904Y-39995238D01*
X114821095Y-39842857D01*
X114897285Y-39538095D01*
X114897285Y-39309523D01*
X114821095Y-39004761D01*
X114744904Y-38852380D01*
X114592523Y-38700000D01*
X114363952Y-38623809D01*
X114211571Y-38623809D01*
X113983000Y-38700000D01*
X113906809Y-38776190D01*
X112916333Y-38623809D02*
X112611571Y-38623809D01*
X112459190Y-38700000D01*
X112306809Y-38852380D01*
X112230619Y-39157142D01*
X112230619Y-39690476D01*
X112306809Y-39995238D01*
X112459190Y-40147619D01*
X112611571Y-40223809D01*
X112916333Y-40223809D01*
X113068714Y-40147619D01*
X113221095Y-39995238D01*
X113297285Y-39690476D01*
X113297285Y-39157142D01*
X113221095Y-38852380D01*
X113068714Y-38700000D01*
X112916333Y-38623809D01*
X111544904Y-40223809D02*
X111544904Y-38623809D01*
X111011571Y-39766666D01*
X110478238Y-38623809D01*
X110478238Y-40223809D01*
D11*
X119564047Y-38080904D02*
X119564047Y-37280904D01*
X119106904Y-38080904D01*
X119106904Y-37280904D01*
X118268809Y-38004714D02*
X118306904Y-38042809D01*
X118421190Y-38080904D01*
X118497380Y-38080904D01*
X118611666Y-38042809D01*
X118687857Y-37966619D01*
X118725952Y-37890428D01*
X118764047Y-37738047D01*
X118764047Y-37623761D01*
X118725952Y-37471380D01*
X118687857Y-37395190D01*
X118611666Y-37319000D01*
X118497380Y-37280904D01*
X118421190Y-37280904D01*
X118306904Y-37319000D01*
X118268809Y-37357095D01*
X117925952Y-38004714D02*
X117887857Y-38042809D01*
X117925952Y-38080904D01*
X117964047Y-38042809D01*
X117925952Y-38004714D01*
X117925952Y-38080904D01*
D10*
X117355714Y-56106142D02*
X117141428Y-56177571D01*
X116784285Y-56177571D01*
X116641428Y-56106142D01*
X116570000Y-56034714D01*
X116498571Y-55891857D01*
X116498571Y-55749000D01*
X116570000Y-55606142D01*
X116641428Y-55534714D01*
X116784285Y-55463285D01*
X117070000Y-55391857D01*
X117212857Y-55320428D01*
X117284285Y-55249000D01*
X117355714Y-55106142D01*
X117355714Y-54963285D01*
X117284285Y-54820428D01*
X117212857Y-54749000D01*
X117070000Y-54677571D01*
X116712857Y-54677571D01*
X116498571Y-54749000D01*
X115927142Y-55749000D02*
X115212857Y-55749000D01*
X116070000Y-56177571D02*
X115570000Y-54677571D01*
X115070000Y-56177571D01*
X114284285Y-54677571D02*
X114141428Y-54677571D01*
X113998571Y-54749000D01*
X113927142Y-54820428D01*
X113855714Y-54963285D01*
X113784285Y-55249000D01*
X113784285Y-55606142D01*
X113855714Y-55891857D01*
X113927142Y-56034714D01*
X113998571Y-56106142D01*
X114141428Y-56177571D01*
X114284285Y-56177571D01*
X114427142Y-56106142D01*
X114498571Y-56034714D01*
X114570000Y-55891857D01*
X114641428Y-55606142D01*
X114641428Y-55249000D01*
X114570000Y-54963285D01*
X114498571Y-54820428D01*
X114427142Y-54749000D01*
X114284285Y-54677571D01*
D11*
X112013857Y-37055000D02*
X111213857Y-37055000D01*
X111366238Y-38080904D02*
X111632904Y-37699952D01*
X111823380Y-38080904D02*
X111823380Y-37280904D01*
X111518619Y-37280904D01*
X111442428Y-37319000D01*
X111404333Y-37357095D01*
X111366238Y-37433285D01*
X111366238Y-37547571D01*
X111404333Y-37623761D01*
X111442428Y-37661857D01*
X111518619Y-37699952D01*
X111823380Y-37699952D01*
X111213857Y-37055000D02*
X110490047Y-37055000D01*
X111023380Y-37661857D02*
X110756714Y-37661857D01*
X110642428Y-38080904D02*
X111023380Y-38080904D01*
X111023380Y-37280904D01*
X110642428Y-37280904D01*
X110490047Y-37055000D02*
X109728142Y-37055000D01*
X110337666Y-38042809D02*
X110223380Y-38080904D01*
X110032904Y-38080904D01*
X109956714Y-38042809D01*
X109918619Y-38004714D01*
X109880523Y-37928523D01*
X109880523Y-37852333D01*
X109918619Y-37776142D01*
X109956714Y-37738047D01*
X110032904Y-37699952D01*
X110185285Y-37661857D01*
X110261476Y-37623761D01*
X110299571Y-37585666D01*
X110337666Y-37509476D01*
X110337666Y-37433285D01*
X110299571Y-37357095D01*
X110261476Y-37319000D01*
X110185285Y-37280904D01*
X109994809Y-37280904D01*
X109880523Y-37319000D01*
D10*
X109013428Y-56177571D02*
X109013428Y-54677571D01*
X108299142Y-56177571D02*
X108299142Y-54677571D01*
X107799142Y-55749000D01*
X107299142Y-54677571D01*
X107299142Y-56177571D01*
X106656285Y-54820428D02*
X106584857Y-54749000D01*
X106442000Y-54677571D01*
X106084857Y-54677571D01*
X105942000Y-54749000D01*
X105870571Y-54820428D01*
X105799142Y-54963285D01*
X105799142Y-55106142D01*
X105870571Y-55320428D01*
X106727714Y-56177571D01*
X105799142Y-56177571D01*
D11*
X96069095Y-51574238D02*
X95497666Y-51574238D01*
X95383380Y-51612333D01*
X95307190Y-51688523D01*
X95269095Y-51802809D01*
X95269095Y-51879000D01*
X95269095Y-50812333D02*
X95269095Y-51193285D01*
X96069095Y-51193285D01*
X95345285Y-50088523D02*
X95307190Y-50126619D01*
X95269095Y-50240904D01*
X95269095Y-50317095D01*
X95307190Y-50431380D01*
X95383380Y-50507571D01*
X95459571Y-50545666D01*
X95611952Y-50583761D01*
X95726238Y-50583761D01*
X95878619Y-50545666D01*
X95954809Y-50507571D01*
X96031000Y-50431380D01*
X96069095Y-50317095D01*
X96069095Y-50240904D01*
X96031000Y-50126619D01*
X95992904Y-50088523D01*
X96069095Y-49517095D02*
X95497666Y-49517095D01*
X95383380Y-49555190D01*
X95307190Y-49631380D01*
X95269095Y-49745666D01*
X95269095Y-49821857D01*
X95269095Y-48755190D02*
X95269095Y-49136142D01*
X96069095Y-49136142D01*
X95345285Y-48031380D02*
X95307190Y-48069476D01*
X95269095Y-48183761D01*
X95269095Y-48259952D01*
X95307190Y-48374238D01*
X95383380Y-48450428D01*
X95459571Y-48488523D01*
X95611952Y-48526619D01*
X95726238Y-48526619D01*
X95878619Y-48488523D01*
X95954809Y-48450428D01*
X96031000Y-48374238D01*
X96069095Y-48259952D01*
X96069095Y-48183761D01*
X96031000Y-48069476D01*
X95992904Y-48031380D01*
X96069095Y-47459952D02*
X95497666Y-47459952D01*
X95383380Y-47498047D01*
X95307190Y-47574238D01*
X95269095Y-47688523D01*
X95269095Y-47764714D01*
X95269095Y-46698047D02*
X95269095Y-47079000D01*
X96069095Y-47079000D01*
X95345285Y-45974238D02*
X95307190Y-46012333D01*
X95269095Y-46126619D01*
X95269095Y-46202809D01*
X95307190Y-46317095D01*
X95383380Y-46393285D01*
X95459571Y-46431380D01*
X95611952Y-46469476D01*
X95726238Y-46469476D01*
X95878619Y-46431380D01*
X95954809Y-46393285D01*
X96031000Y-46317095D01*
X96069095Y-46202809D01*
X96069095Y-46126619D01*
X96031000Y-46012333D01*
X95992904Y-45974238D01*
X96069095Y-45402809D02*
X95497666Y-45402809D01*
X95383380Y-45440904D01*
X95307190Y-45517095D01*
X95269095Y-45631380D01*
X95269095Y-45707571D01*
X95269095Y-44640904D02*
X95269095Y-45021857D01*
X96069095Y-45021857D01*
X95345285Y-43917095D02*
X95307190Y-43955190D01*
X95269095Y-44069476D01*
X95269095Y-44145666D01*
X95307190Y-44259952D01*
X95383380Y-44336142D01*
X95459571Y-44374238D01*
X95611952Y-44412333D01*
X95726238Y-44412333D01*
X95878619Y-44374238D01*
X95954809Y-44336142D01*
X96031000Y-44259952D01*
X96069095Y-44145666D01*
X96069095Y-44069476D01*
X96031000Y-43955190D01*
X95992904Y-43917095D01*
X114420523Y-38080904D02*
X114420523Y-37280904D01*
X114230047Y-37280904D01*
X114115761Y-37319000D01*
X114039571Y-37395190D01*
X114001476Y-37471380D01*
X113963380Y-37623761D01*
X113963380Y-37738047D01*
X114001476Y-37890428D01*
X114039571Y-37966619D01*
X114115761Y-38042809D01*
X114230047Y-38080904D01*
X114420523Y-38080904D01*
X113163380Y-38004714D02*
X113201476Y-38042809D01*
X113315761Y-38080904D01*
X113391952Y-38080904D01*
X113506238Y-38042809D01*
X113582428Y-37966619D01*
X113620523Y-37890428D01*
X113658619Y-37738047D01*
X113658619Y-37623761D01*
X113620523Y-37471380D01*
X113582428Y-37395190D01*
X113506238Y-37319000D01*
X113391952Y-37280904D01*
X113315761Y-37280904D01*
X113201476Y-37319000D01*
X113163380Y-37357095D01*
X112858619Y-37547571D02*
X112287190Y-37547571D01*
X112630047Y-37204714D02*
X112858619Y-38233285D01*
X112363380Y-37890428D02*
X112934809Y-37890428D01*
X112591952Y-38233285D02*
X112363380Y-37204714D01*
D12*
X123490380Y-59523380D02*
X123299904Y-59523380D01*
X123204666Y-59571000D01*
X123109428Y-59666238D01*
X123061809Y-59856714D01*
X123061809Y-60190047D01*
X123109428Y-60380523D01*
X123204666Y-60475761D01*
X123299904Y-60523380D01*
X123490380Y-60523380D01*
X123585619Y-60475761D01*
X123680857Y-60380523D01*
X123728476Y-60190047D01*
X123728476Y-59856714D01*
X123680857Y-59666238D01*
X123585619Y-59571000D01*
X123490380Y-59523380D01*
X122109428Y-60523380D02*
X122680857Y-60523380D01*
X122395142Y-60523380D02*
X122395142Y-59523380D01*
X122490380Y-59666238D01*
X122585619Y-59761476D01*
X122680857Y-59809095D01*
X121204666Y-60523380D02*
X121680857Y-60523380D01*
X121680857Y-59523380D01*
X120347523Y-60523380D02*
X120918952Y-60523380D01*
X120633238Y-60523380D02*
X120633238Y-59523380D01*
X120728476Y-59666238D01*
X120823714Y-59761476D01*
X120918952Y-59809095D01*
X119918952Y-60523380D02*
X119918952Y-59523380D01*
X119585619Y-60237666D01*
X119252285Y-59523380D01*
X119252285Y-60523380D01*
X118347523Y-59856714D02*
X118347523Y-60523380D01*
X118585619Y-59475761D02*
X118823714Y-60190047D01*
X118204666Y-60190047D01*
X117633238Y-59523380D02*
X117538000Y-59523380D01*
X117442761Y-59571000D01*
X117395142Y-59618619D01*
X117347523Y-59713857D01*
X117299904Y-59904333D01*
X117299904Y-60142428D01*
X117347523Y-60332904D01*
X117395142Y-60428142D01*
X117442761Y-60475761D01*
X117538000Y-60523380D01*
X117633238Y-60523380D01*
X117728476Y-60475761D01*
X117776095Y-60428142D01*
X117823714Y-60332904D01*
X117871333Y-60142428D01*
X117871333Y-59904333D01*
X117823714Y-59713857D01*
X117776095Y-59618619D01*
X117728476Y-59571000D01*
X117633238Y-59523380D01*
X116966571Y-59523380D02*
X116347523Y-59523380D01*
X116680857Y-59904333D01*
X116538000Y-59904333D01*
X116442761Y-59951952D01*
X116395142Y-59999571D01*
X116347523Y-60094809D01*
X116347523Y-60332904D01*
X116395142Y-60428142D01*
X116442761Y-60475761D01*
X116538000Y-60523380D01*
X116823714Y-60523380D01*
X116918952Y-60475761D01*
X116966571Y-60428142D01*
X116014190Y-59523380D02*
X115395142Y-59523380D01*
X115728476Y-59904333D01*
X115585619Y-59904333D01*
X115490380Y-59951952D01*
X115442761Y-59999571D01*
X115395142Y-60094809D01*
X115395142Y-60332904D01*
X115442761Y-60428142D01*
X115490380Y-60475761D01*
X115585619Y-60523380D01*
X115871333Y-60523380D01*
X115966571Y-60475761D01*
X116014190Y-60428142D01*
X114633238Y-59999571D02*
X114966571Y-59999571D01*
X114966571Y-60523380D02*
X114966571Y-59523380D01*
X114490380Y-59523380D01*
X114109428Y-60523380D02*
X114109428Y-59523380D01*
X113728476Y-59523380D01*
X113633238Y-59571000D01*
X113585619Y-59618619D01*
X113538000Y-59713857D01*
X113538000Y-59856714D01*
X113585619Y-59951952D01*
X113633238Y-59999571D01*
X113728476Y-60047190D01*
X114109428Y-60047190D01*
X112538000Y-60428142D02*
X112585619Y-60475761D01*
X112728476Y-60523380D01*
X112823714Y-60523380D01*
X112966571Y-60475761D01*
X113061809Y-60380523D01*
X113109428Y-60285285D01*
X113157047Y-60094809D01*
X113157047Y-59951952D01*
X113109428Y-59761476D01*
X113061809Y-59666238D01*
X112966571Y-59571000D01*
X112823714Y-59523380D01*
X112728476Y-59523380D01*
X112585619Y-59571000D01*
X112538000Y-59618619D01*
X112109428Y-60142428D02*
X111347523Y-60142428D01*
X110918952Y-60237666D02*
X110442761Y-60237666D01*
X111014190Y-60523380D02*
X110680857Y-59523380D01*
X110347523Y-60523380D01*
X109490380Y-60523380D02*
X110061809Y-60523380D01*
X109776095Y-60523380D02*
X109776095Y-59523380D01*
X109871333Y-59666238D01*
X109966571Y-59761476D01*
X110061809Y-59809095D01*
X109061809Y-60142428D02*
X108299904Y-60142428D01*
X107823714Y-59999571D02*
X107490380Y-59999571D01*
X107347523Y-60523380D02*
X107823714Y-60523380D01*
X107823714Y-59523380D01*
X107347523Y-59523380D01*
X106299904Y-59523380D02*
X105966571Y-60523380D01*
X105633238Y-59523380D01*
X104776095Y-60523380D02*
X105347523Y-60523380D01*
X105061809Y-60523380D02*
X105061809Y-59523380D01*
X105157047Y-59666238D01*
X105252285Y-59761476D01*
X105347523Y-59809095D01*
X104347523Y-60428142D02*
X104299904Y-60475761D01*
X104347523Y-60523380D01*
X104395142Y-60475761D01*
X104347523Y-60428142D01*
X104347523Y-60523380D01*
X103347523Y-60523380D02*
X103918952Y-60523380D01*
X103633238Y-60523380D02*
X103633238Y-59523380D01*
X103728476Y-59666238D01*
X103823714Y-59761476D01*
X103918952Y-59809095D01*
D11*
X103987476Y-37280904D02*
X103492238Y-37280904D01*
X103758904Y-37585666D01*
X103644619Y-37585666D01*
X103568428Y-37623761D01*
X103530333Y-37661857D01*
X103492238Y-37738047D01*
X103492238Y-37928523D01*
X103530333Y-38004714D01*
X103568428Y-38042809D01*
X103644619Y-38080904D01*
X103873190Y-38080904D01*
X103949380Y-38042809D01*
X103987476Y-38004714D01*
X103263666Y-37280904D02*
X102997000Y-38080904D01*
X102730333Y-37280904D01*
X102539857Y-37280904D02*
X102044619Y-37280904D01*
X102311285Y-37585666D01*
X102197000Y-37585666D01*
X102120809Y-37623761D01*
X102082714Y-37661857D01*
X102044619Y-37738047D01*
X102044619Y-37928523D01*
X102082714Y-38004714D01*
X102120809Y-38042809D01*
X102197000Y-38080904D01*
X102425571Y-38080904D01*
X102501761Y-38042809D01*
X102539857Y-38004714D01*
D10*
X123964285Y-43678571D02*
X123964285Y-42178571D01*
X123321428Y-42321428D02*
X123250000Y-42250000D01*
X123107142Y-42178571D01*
X122750000Y-42178571D01*
X122607142Y-42250000D01*
X122535714Y-42321428D01*
X122464285Y-42464285D01*
X122464285Y-42607142D01*
X122535714Y-42821428D01*
X123392857Y-43678571D01*
X122464285Y-43678571D01*
X120964285Y-43535714D02*
X121035714Y-43607142D01*
X121250000Y-43678571D01*
X121392857Y-43678571D01*
X121607142Y-43607142D01*
X121750000Y-43464285D01*
X121821428Y-43321428D01*
X121892857Y-43035714D01*
X121892857Y-42821428D01*
X121821428Y-42535714D01*
X121750000Y-42392857D01*
X121607142Y-42250000D01*
X121392857Y-42178571D01*
X121250000Y-42178571D01*
X121035714Y-42250000D01*
X120964285Y-42321428D01*
D11*
X116738333Y-38004714D02*
X116776428Y-38042809D01*
X116890714Y-38080904D01*
X116966904Y-38080904D01*
X117081190Y-38042809D01*
X117157380Y-37966619D01*
X117195476Y-37890428D01*
X117233571Y-37738047D01*
X117233571Y-37623761D01*
X117195476Y-37471380D01*
X117157380Y-37395190D01*
X117081190Y-37319000D01*
X116966904Y-37280904D01*
X116890714Y-37280904D01*
X116776428Y-37319000D01*
X116738333Y-37357095D01*
X116433571Y-38042809D02*
X116319285Y-38080904D01*
X116128809Y-38080904D01*
X116052619Y-38042809D01*
X116014523Y-38004714D01*
X115976428Y-37928523D01*
X115976428Y-37852333D01*
X116014523Y-37776142D01*
X116052619Y-37738047D01*
X116128809Y-37699952D01*
X116281190Y-37661857D01*
X116357380Y-37623761D01*
X116395476Y-37585666D01*
X116433571Y-37509476D01*
X116433571Y-37433285D01*
X116395476Y-37357095D01*
X116357380Y-37319000D01*
X116281190Y-37280904D01*
X116090714Y-37280904D01*
X115976428Y-37319000D01*
X115671666Y-37547571D02*
X115100238Y-37547571D01*
X115443095Y-37204714D02*
X115671666Y-38233285D01*
X115176428Y-37890428D02*
X115747857Y-37890428D01*
X115405000Y-38233285D02*
X115176428Y-37204714D01*
X100939523Y-37319000D02*
X101015714Y-37280904D01*
X101130000Y-37280904D01*
X101244285Y-37319000D01*
X101320476Y-37395190D01*
X101358571Y-37471380D01*
X101396666Y-37623761D01*
X101396666Y-37738047D01*
X101358571Y-37890428D01*
X101320476Y-37966619D01*
X101244285Y-38042809D01*
X101130000Y-38080904D01*
X101053809Y-38080904D01*
X100939523Y-38042809D01*
X100901428Y-38004714D01*
X100901428Y-37738047D01*
X101053809Y-37738047D01*
X100558571Y-38080904D02*
X100558571Y-37280904D01*
X100101428Y-38080904D01*
X100101428Y-37280904D01*
X99720476Y-38080904D02*
X99720476Y-37280904D01*
X99530000Y-37280904D01*
X99415714Y-37319000D01*
X99339523Y-37395190D01*
X99301428Y-37471380D01*
X99263333Y-37623761D01*
X99263333Y-37738047D01*
X99301428Y-37890428D01*
X99339523Y-37966619D01*
X99415714Y-38042809D01*
X99530000Y-38080904D01*
X99720476Y-38080904D01*
D10*
X112184714Y-58336571D02*
X112899000Y-58336571D01*
X112899000Y-56836571D01*
D11*
X106616380Y-38042809D02*
X106502095Y-38080904D01*
X106311619Y-38080904D01*
X106235428Y-38042809D01*
X106197333Y-38004714D01*
X106159238Y-37928523D01*
X106159238Y-37852333D01*
X106197333Y-37776142D01*
X106235428Y-37738047D01*
X106311619Y-37699952D01*
X106464000Y-37661857D01*
X106540190Y-37623761D01*
X106578285Y-37585666D01*
X106616380Y-37509476D01*
X106616380Y-37433285D01*
X106578285Y-37357095D01*
X106540190Y-37319000D01*
X106464000Y-37280904D01*
X106273523Y-37280904D01*
X106159238Y-37319000D01*
X105359238Y-38004714D02*
X105397333Y-38042809D01*
X105511619Y-38080904D01*
X105587809Y-38080904D01*
X105702095Y-38042809D01*
X105778285Y-37966619D01*
X105816380Y-37890428D01*
X105854476Y-37738047D01*
X105854476Y-37623761D01*
X105816380Y-37471380D01*
X105778285Y-37395190D01*
X105702095Y-37319000D01*
X105587809Y-37280904D01*
X105511619Y-37280904D01*
X105397333Y-37319000D01*
X105359238Y-37357095D01*
X104635428Y-38080904D02*
X105016380Y-38080904D01*
X105016380Y-37280904D01*
D12*
%TO.C,C2*%
X111865666Y-51825142D02*
X111913285Y-51872761D01*
X112056142Y-51920380D01*
X112151380Y-51920380D01*
X112294238Y-51872761D01*
X112389476Y-51777523D01*
X112437095Y-51682285D01*
X112484714Y-51491809D01*
X112484714Y-51348952D01*
X112437095Y-51158476D01*
X112389476Y-51063238D01*
X112294238Y-50968000D01*
X112151380Y-50920380D01*
X112056142Y-50920380D01*
X111913285Y-50968000D01*
X111865666Y-51015619D01*
X111484714Y-51015619D02*
X111437095Y-50968000D01*
X111341857Y-50920380D01*
X111103761Y-50920380D01*
X111008523Y-50968000D01*
X110960904Y-51015619D01*
X110913285Y-51110857D01*
X110913285Y-51206095D01*
X110960904Y-51348952D01*
X111532333Y-51920380D01*
X110913285Y-51920380D01*
%TO.C,C1*%
X118977666Y-47601142D02*
X119025285Y-47648761D01*
X119168142Y-47696380D01*
X119263380Y-47696380D01*
X119406238Y-47648761D01*
X119501476Y-47553523D01*
X119549095Y-47458285D01*
X119596714Y-47267809D01*
X119596714Y-47124952D01*
X119549095Y-46934476D01*
X119501476Y-46839238D01*
X119406238Y-46744000D01*
X119263380Y-46696380D01*
X119168142Y-46696380D01*
X119025285Y-46744000D01*
X118977666Y-46791619D01*
X118025285Y-47696380D02*
X118596714Y-47696380D01*
X118311000Y-47696380D02*
X118311000Y-46696380D01*
X118406238Y-46839238D01*
X118501476Y-46934476D01*
X118596714Y-46982095D01*
%TO.C,R3*%
X102782666Y-50744380D02*
X103116000Y-50268190D01*
X103354095Y-50744380D02*
X103354095Y-49744380D01*
X102973142Y-49744380D01*
X102877904Y-49792000D01*
X102830285Y-49839619D01*
X102782666Y-49934857D01*
X102782666Y-50077714D01*
X102830285Y-50172952D01*
X102877904Y-50220571D01*
X102973142Y-50268190D01*
X103354095Y-50268190D01*
X102449333Y-49744380D02*
X101830285Y-49744380D01*
X102163619Y-50125333D01*
X102020761Y-50125333D01*
X101925523Y-50172952D01*
X101877904Y-50220571D01*
X101830285Y-50315809D01*
X101830285Y-50553904D01*
X101877904Y-50649142D01*
X101925523Y-50696761D01*
X102020761Y-50744380D01*
X102306476Y-50744380D01*
X102401714Y-50696761D01*
X102449333Y-50649142D01*
%TO.C,R4*%
X105068666Y-50744380D02*
X105402000Y-50268190D01*
X105640095Y-50744380D02*
X105640095Y-49744380D01*
X105259142Y-49744380D01*
X105163904Y-49792000D01*
X105116285Y-49839619D01*
X105068666Y-49934857D01*
X105068666Y-50077714D01*
X105116285Y-50172952D01*
X105163904Y-50220571D01*
X105259142Y-50268190D01*
X105640095Y-50268190D01*
X104211523Y-50077714D02*
X104211523Y-50744380D01*
X104449619Y-49696761D02*
X104687714Y-50411047D01*
X104068666Y-50411047D01*
%TO.C,R1*%
X118405666Y-52065180D02*
X118739000Y-51588990D01*
X118977095Y-52065180D02*
X118977095Y-51065180D01*
X118596142Y-51065180D01*
X118500904Y-51112800D01*
X118453285Y-51160419D01*
X118405666Y-51255657D01*
X118405666Y-51398514D01*
X118453285Y-51493752D01*
X118500904Y-51541371D01*
X118596142Y-51588990D01*
X118977095Y-51588990D01*
X117453285Y-52065180D02*
X118024714Y-52065180D01*
X117739000Y-52065180D02*
X117739000Y-51065180D01*
X117834238Y-51208038D01*
X117929476Y-51303276D01*
X118024714Y-51350895D01*
%TO.C,C3*%
X106211666Y-43029142D02*
X106259285Y-43076761D01*
X106402142Y-43124380D01*
X106497380Y-43124380D01*
X106640238Y-43076761D01*
X106735476Y-42981523D01*
X106783095Y-42886285D01*
X106830714Y-42695809D01*
X106830714Y-42552952D01*
X106783095Y-42362476D01*
X106735476Y-42267238D01*
X106640238Y-42172000D01*
X106497380Y-42124380D01*
X106402142Y-42124380D01*
X106259285Y-42172000D01*
X106211666Y-42219619D01*
X105878333Y-42124380D02*
X105259285Y-42124380D01*
X105592619Y-42505333D01*
X105449761Y-42505333D01*
X105354523Y-42552952D01*
X105306904Y-42600571D01*
X105259285Y-42695809D01*
X105259285Y-42933904D01*
X105306904Y-43029142D01*
X105354523Y-43076761D01*
X105449761Y-43124380D01*
X105735476Y-43124380D01*
X105830714Y-43076761D01*
X105878333Y-43029142D01*
%TO.C,D1*%
X118374095Y-43886380D02*
X118374095Y-42886380D01*
X118136000Y-42886380D01*
X117993142Y-42934000D01*
X117897904Y-43029238D01*
X117850285Y-43124476D01*
X117802666Y-43314952D01*
X117802666Y-43457809D01*
X117850285Y-43648285D01*
X117897904Y-43743523D01*
X117993142Y-43838761D01*
X118136000Y-43886380D01*
X118374095Y-43886380D01*
X116850285Y-43886380D02*
X117421714Y-43886380D01*
X117136000Y-43886380D02*
X117136000Y-42886380D01*
X117231238Y-43029238D01*
X117326476Y-43124476D01*
X117421714Y-43172095D01*
%TO.C,J1*%
X98628333Y-34952380D02*
X98628333Y-35666666D01*
X98675952Y-35809523D01*
X98771190Y-35904761D01*
X98914047Y-35952380D01*
X99009285Y-35952380D01*
X97628333Y-35952380D02*
X98199761Y-35952380D01*
X97914047Y-35952380D02*
X97914047Y-34952380D01*
X98009285Y-35095238D01*
X98104523Y-35190476D01*
X98199761Y-35238095D01*
%TO.C,C4*%
X101512666Y-41251142D02*
X101560285Y-41298761D01*
X101703142Y-41346380D01*
X101798380Y-41346380D01*
X101941238Y-41298761D01*
X102036476Y-41203523D01*
X102084095Y-41108285D01*
X102131714Y-40917809D01*
X102131714Y-40774952D01*
X102084095Y-40584476D01*
X102036476Y-40489238D01*
X101941238Y-40394000D01*
X101798380Y-40346380D01*
X101703142Y-40346380D01*
X101560285Y-40394000D01*
X101512666Y-40441619D01*
X100655523Y-40679714D02*
X100655523Y-41346380D01*
X100893619Y-40298761D02*
X101131714Y-41013047D01*
X100512666Y-41013047D01*
%TO.C,J2*%
X97869333Y-38441380D02*
X97869333Y-39155666D01*
X97916952Y-39298523D01*
X98012190Y-39393761D01*
X98155047Y-39441380D01*
X98250285Y-39441380D01*
X97440761Y-38536619D02*
X97393142Y-38489000D01*
X97297904Y-38441380D01*
X97059809Y-38441380D01*
X96964571Y-38489000D01*
X96916952Y-38536619D01*
X96869333Y-38631857D01*
X96869333Y-38727095D01*
X96916952Y-38869952D01*
X97488380Y-39441380D01*
X96869333Y-39441380D01*
%TO.C,R2*%
X118405666Y-50388780D02*
X118739000Y-49912590D01*
X118977095Y-50388780D02*
X118977095Y-49388780D01*
X118596142Y-49388780D01*
X118500904Y-49436400D01*
X118453285Y-49484019D01*
X118405666Y-49579257D01*
X118405666Y-49722114D01*
X118453285Y-49817352D01*
X118500904Y-49864971D01*
X118596142Y-49912590D01*
X118977095Y-49912590D01*
X118024714Y-49484019D02*
X117977095Y-49436400D01*
X117881857Y-49388780D01*
X117643761Y-49388780D01*
X117548523Y-49436400D01*
X117500904Y-49484019D01*
X117453285Y-49579257D01*
X117453285Y-49674495D01*
X117500904Y-49817352D01*
X118072333Y-50388780D01*
X117453285Y-50388780D01*
%TO.C,R5*%
X103861666Y-46078380D02*
X104195000Y-45602190D01*
X104433095Y-46078380D02*
X104433095Y-45078380D01*
X104052142Y-45078380D01*
X103956904Y-45126000D01*
X103909285Y-45173619D01*
X103861666Y-45268857D01*
X103861666Y-45411714D01*
X103909285Y-45506952D01*
X103956904Y-45554571D01*
X104052142Y-45602190D01*
X104433095Y-45602190D01*
X102956904Y-45078380D02*
X103433095Y-45078380D01*
X103480714Y-45554571D01*
X103433095Y-45506952D01*
X103337857Y-45459333D01*
X103099761Y-45459333D01*
X103004523Y-45506952D01*
X102956904Y-45554571D01*
X102909285Y-45649809D01*
X102909285Y-45887904D01*
X102956904Y-45983142D01*
X103004523Y-46030761D01*
X103099761Y-46078380D01*
X103337857Y-46078380D01*
X103433095Y-46030761D01*
X103480714Y-45983142D01*
%TO.C,L1*%
X108878666Y-43632380D02*
X109354857Y-43632380D01*
X109354857Y-42632380D01*
X108021523Y-43632380D02*
X108592952Y-43632380D01*
X108307238Y-43632380D02*
X108307238Y-42632380D01*
X108402476Y-42775238D01*
X108497714Y-42870476D01*
X108592952Y-42918095D01*
%TO.C,U1*%
X109346904Y-46442380D02*
X109346904Y-47251904D01*
X109299285Y-47347142D01*
X109251666Y-47394761D01*
X109156428Y-47442380D01*
X108965952Y-47442380D01*
X108870714Y-47394761D01*
X108823095Y-47347142D01*
X108775476Y-47251904D01*
X108775476Y-46442380D01*
X107775476Y-47442380D02*
X108346904Y-47442380D01*
X108061190Y-47442380D02*
X108061190Y-46442380D01*
X108156428Y-46585238D01*
X108251666Y-46680476D01*
X108346904Y-46728095D01*
D11*
%TO.C,C2*%
X111558420Y-49528000D02*
X111839580Y-49528000D01*
X111558420Y-50548000D02*
X111839580Y-50548000D01*
%TO.C,C1*%
X116405252Y-46509000D02*
X115882748Y-46509000D01*
X116405252Y-47979000D02*
X115882748Y-47979000D01*
%TO.C,JP3*%
X108842000Y-56658000D02*
X106042000Y-56658000D01*
X106042000Y-56658000D02*
X106042000Y-58658000D01*
X108842000Y-58658000D02*
X108842000Y-56658000D01*
X106042000Y-58658000D02*
X108842000Y-58658000D01*
%TO.C,R3*%
X102093500Y-48561258D02*
X102093500Y-48086742D01*
X103138500Y-48561258D02*
X103138500Y-48086742D01*
%TO.C,R4*%
X104379500Y-48561258D02*
X104379500Y-48086742D01*
X105424500Y-48561258D02*
X105424500Y-48086742D01*
%TO.C,R1*%
X116063258Y-51064900D02*
X115588742Y-51064900D01*
X116063258Y-52109900D02*
X115588742Y-52109900D01*
%TO.C,C3*%
X103555220Y-42136600D02*
X103836380Y-42136600D01*
X103555220Y-43156600D02*
X103836380Y-43156600D01*
%TO.C,D1*%
X116636000Y-45684000D02*
X114636000Y-45684000D01*
X114636000Y-45684000D02*
X114636000Y-41784000D01*
X116636000Y-45684000D02*
X116636000Y-41784000D01*
%TO.C,J1*%
X101895000Y-34170000D02*
X119735000Y-34170000D01*
X101895000Y-36830000D02*
X119735000Y-36830000D01*
X119735000Y-34170000D02*
X119735000Y-36830000D01*
X99295000Y-34170000D02*
X99295000Y-35500000D01*
X100625000Y-34170000D02*
X99295000Y-34170000D01*
X101895000Y-34170000D02*
X101895000Y-36830000D01*
%TO.C,SW1*%
X124880000Y-45900000D02*
X124880000Y-47600000D01*
X126720000Y-50950000D02*
X125930000Y-50950000D01*
X129020000Y-47400000D02*
X129230000Y-47200000D01*
X129230000Y-46300000D02*
X129230000Y-47200000D01*
X125930000Y-44050000D02*
X126720000Y-44050000D01*
X127730000Y-46100000D02*
X129020000Y-46100000D01*
X124880000Y-48900000D02*
X124880000Y-49100000D01*
X129020000Y-47400000D02*
X127730000Y-47400000D01*
X127730000Y-44650000D02*
X127730000Y-50350000D01*
X129020000Y-46100000D02*
X129230000Y-46300000D01*
%TO.C,C4*%
X103624748Y-40159000D02*
X104147252Y-40159000D01*
X103624748Y-41629000D02*
X104147252Y-41629000D01*
%TO.C,G\u002A\u002A\u002A*%
G36*
X104064353Y-57794052D02*
G01*
X104020625Y-57867020D01*
X103963144Y-57928550D01*
X103895950Y-57973615D01*
X103823078Y-57997188D01*
X103816238Y-57998443D01*
X103805816Y-58001582D01*
X103793719Y-58007264D01*
X103778808Y-58016572D01*
X103759944Y-58030591D01*
X103735987Y-58050407D01*
X103705799Y-58077103D01*
X103668239Y-58111763D01*
X103622168Y-58155474D01*
X103566448Y-58209318D01*
X103499939Y-58274380D01*
X103421501Y-58351746D01*
X103329996Y-58442499D01*
X103224284Y-58547725D01*
X103103225Y-58668506D01*
X102965681Y-58805929D01*
X102810513Y-58961078D01*
X102716290Y-59055243D01*
X102587377Y-59183860D01*
X102464547Y-59306161D01*
X102349067Y-59420895D01*
X102242204Y-59526813D01*
X102145226Y-59622664D01*
X102059401Y-59707198D01*
X101985995Y-59779166D01*
X101926277Y-59837317D01*
X101881513Y-59880401D01*
X101852971Y-59907168D01*
X101841919Y-59916369D01*
X101838326Y-59913947D01*
X101817934Y-59895765D01*
X101781177Y-59861075D01*
X101729626Y-59811420D01*
X101664855Y-59748339D01*
X101588436Y-59673371D01*
X101501942Y-59588058D01*
X101406944Y-59493940D01*
X101305016Y-59392556D01*
X101197731Y-59285447D01*
X100566914Y-58654524D01*
X100706104Y-58514858D01*
X100845295Y-58375192D01*
X101337029Y-58866795D01*
X101828762Y-59358397D01*
X102585881Y-58601190D01*
X103343001Y-57843984D01*
X101901718Y-57843984D01*
X101901718Y-57649924D01*
X103566942Y-57649924D01*
X103573384Y-57707000D01*
X103597073Y-57759662D01*
X103638019Y-57802728D01*
X103696234Y-57831016D01*
X103716320Y-57836592D01*
X103747996Y-57842361D01*
X103774261Y-57838827D01*
X103808705Y-57825298D01*
X103828035Y-57815625D01*
X103878607Y-57774059D01*
X103910571Y-57720762D01*
X103922491Y-57661322D01*
X103912928Y-57601323D01*
X103880447Y-57546355D01*
X103878883Y-57544588D01*
X103823846Y-57498781D01*
X103763372Y-57478910D01*
X103696962Y-57484808D01*
X103650988Y-57504019D01*
X103605755Y-57543252D01*
X103577736Y-57593614D01*
X103566942Y-57649924D01*
X101901718Y-57649924D01*
X101901718Y-57405594D01*
X103276635Y-57405594D01*
X102542706Y-56671666D01*
X101808777Y-55937737D01*
X101312855Y-56433527D01*
X101212847Y-56533449D01*
X101119268Y-56626720D01*
X101041487Y-56703836D01*
X100977963Y-56766201D01*
X100927153Y-56815220D01*
X100887518Y-56852298D01*
X100857515Y-56878839D01*
X100835605Y-56896248D01*
X100820244Y-56905928D01*
X100809893Y-56909285D01*
X100803010Y-56907722D01*
X100798054Y-56902644D01*
X100782610Y-56883541D01*
X100752990Y-56849418D01*
X100713763Y-56805521D01*
X100669255Y-56756752D01*
X100559335Y-56637533D01*
X101134213Y-56089369D01*
X101225512Y-56002306D01*
X101327959Y-55904597D01*
X101424796Y-55812223D01*
X101514077Y-55727039D01*
X101593858Y-55650904D01*
X101662190Y-55585674D01*
X101717130Y-55533206D01*
X101756731Y-55495357D01*
X101779047Y-55473985D01*
X101849001Y-55406765D01*
X102801989Y-56359684D01*
X102874576Y-56432249D01*
X103024510Y-56581997D01*
X103157258Y-56714337D01*
X103273868Y-56830281D01*
X103375392Y-56930839D01*
X103462879Y-57017022D01*
X103537380Y-57089841D01*
X103599944Y-57150307D01*
X103651623Y-57199430D01*
X103693466Y-57238223D01*
X103726524Y-57267696D01*
X103751846Y-57288859D01*
X103770483Y-57302724D01*
X103783484Y-57310302D01*
X103791902Y-57312603D01*
X103813658Y-57313855D01*
X103883273Y-57333733D01*
X103948979Y-57374425D01*
X104006925Y-57431555D01*
X104053261Y-57500746D01*
X104084135Y-57577624D01*
X104095698Y-57657813D01*
X104095364Y-57661322D01*
X104090290Y-57714672D01*
X104064353Y-57794052D01*
G37*
G36*
X101817181Y-56568670D02*
G01*
X101814025Y-56619597D01*
X101809363Y-56698823D01*
X101804549Y-56784185D01*
X101800233Y-56864306D01*
X101797677Y-56907333D01*
X101791250Y-56979607D01*
X101783476Y-57026647D01*
X101774446Y-57047799D01*
X101764622Y-57053661D01*
X101732782Y-57070851D01*
X101681602Y-57097733D01*
X101613545Y-57133036D01*
X101531077Y-57175487D01*
X101436661Y-57223815D01*
X101332762Y-57276748D01*
X101221845Y-57333013D01*
X101132589Y-57378164D01*
X101028069Y-57430957D01*
X100932917Y-57478930D01*
X100849520Y-57520883D01*
X100780267Y-57555617D01*
X100727546Y-57581934D01*
X100693744Y-57598633D01*
X100681251Y-57604514D01*
X100686779Y-57598114D01*
X100708898Y-57574754D01*
X100746030Y-57536198D01*
X100796192Y-57484469D01*
X100857401Y-57421586D01*
X100927675Y-57349572D01*
X101005030Y-57270447D01*
X101087483Y-57186234D01*
X101173051Y-57098953D01*
X101259751Y-57010625D01*
X101345599Y-56923273D01*
X101428614Y-56838916D01*
X101506812Y-56759577D01*
X101578210Y-56687277D01*
X101640824Y-56624037D01*
X101692672Y-56571878D01*
X101731771Y-56532822D01*
X101756138Y-56508889D01*
X101825282Y-56442467D01*
X101817181Y-56568670D01*
G37*
G36*
X99459682Y-56464384D02*
G01*
X99488756Y-56490873D01*
X99533035Y-56532950D01*
X99590922Y-56589049D01*
X99660820Y-56657605D01*
X99741134Y-56737054D01*
X99830266Y-56825831D01*
X99926620Y-56922372D01*
X100028601Y-57025111D01*
X100606477Y-57608841D01*
X100048527Y-57325777D01*
X99939739Y-57270557D01*
X99834167Y-57216909D01*
X99738253Y-57168108D01*
X99654336Y-57125347D01*
X99584758Y-57089821D01*
X99531858Y-57062723D01*
X99497978Y-57045247D01*
X99485457Y-57038586D01*
X99485091Y-57037809D01*
X99482438Y-57019282D01*
X99478703Y-56979823D01*
X99474192Y-56924115D01*
X99469214Y-56856838D01*
X99464077Y-56782674D01*
X99459086Y-56706303D01*
X99454552Y-56632408D01*
X99450780Y-56565670D01*
X99448079Y-56510770D01*
X99446756Y-56472389D01*
X99447119Y-56455208D01*
X99447409Y-56455045D01*
X99459682Y-56464384D01*
G37*
G36*
X100697797Y-57716367D02*
G01*
X100730586Y-57732159D01*
X100782453Y-57757929D01*
X100851003Y-57792462D01*
X100933842Y-57834547D01*
X101028573Y-57882970D01*
X101132802Y-57936519D01*
X101244134Y-57993982D01*
X101788799Y-58275730D01*
X101797445Y-58448429D01*
X101800885Y-58514664D01*
X101805641Y-58600950D01*
X101810444Y-58683334D01*
X101814648Y-58750497D01*
X101823206Y-58879866D01*
X101500695Y-58551229D01*
X101481627Y-58531801D01*
X101388508Y-58436973D01*
X101288905Y-58335612D01*
X101187835Y-58232820D01*
X101090315Y-58133697D01*
X101001361Y-58043345D01*
X100925990Y-57966865D01*
X100921945Y-57962762D01*
X100856547Y-57895958D01*
X100798607Y-57835925D01*
X100750386Y-57785072D01*
X100714143Y-57745809D01*
X100692139Y-57720544D01*
X100686632Y-57711686D01*
X100697797Y-57716367D01*
G37*
G36*
X105083312Y-57658000D02*
G01*
X103715889Y-59025472D01*
X102348466Y-60392943D01*
X102301112Y-60353954D01*
X102286917Y-60341961D01*
X102248905Y-60308593D01*
X102202295Y-60266624D01*
X102154124Y-60222353D01*
X102054490Y-60129741D01*
X104518750Y-57664607D01*
X102060914Y-55206771D01*
X102203952Y-55064176D01*
X102346990Y-54921582D01*
X105083312Y-57658000D01*
G37*
G36*
X100500240Y-57791951D02*
G01*
X100497347Y-57795009D01*
X100467103Y-57826619D01*
X100420802Y-57874602D01*
X100360664Y-57936676D01*
X100288905Y-58010562D01*
X100207743Y-58093976D01*
X100119395Y-58184639D01*
X100026079Y-58280269D01*
X99930011Y-58378585D01*
X99899097Y-58410187D01*
X99808551Y-58502593D01*
X99724335Y-58588311D01*
X99648195Y-58665577D01*
X99581876Y-58732630D01*
X99527124Y-58787707D01*
X99485684Y-58829048D01*
X99459301Y-58854889D01*
X99449720Y-58863470D01*
X99449308Y-58859438D01*
X99449737Y-58833876D01*
X99451571Y-58788778D01*
X99454533Y-58728752D01*
X99458347Y-58658405D01*
X99462738Y-58582343D01*
X99467427Y-58505174D01*
X99472139Y-58431505D01*
X99476598Y-58365942D01*
X99480527Y-58313093D01*
X99483650Y-58277564D01*
X99485690Y-58263962D01*
X99485725Y-58263936D01*
X99498857Y-58256862D01*
X99532465Y-58239338D01*
X99583438Y-58212970D01*
X99648661Y-58179366D01*
X99725021Y-58140133D01*
X99809406Y-58096877D01*
X99860913Y-58070490D01*
X99966931Y-58016116D01*
X100076796Y-57959698D01*
X100183633Y-57904770D01*
X100280564Y-57854867D01*
X100360713Y-57813522D01*
X100593193Y-57693423D01*
X100500240Y-57791951D01*
G37*
%TO.C,J2*%
X99165000Y-57150000D02*
X99165000Y-55200000D01*
X100205000Y-55200000D02*
X100205000Y-39800000D01*
X97101000Y-55200000D02*
X97101000Y-39800000D01*
X99165000Y-39800000D02*
X100205000Y-39800000D01*
X99165000Y-55200000D02*
X100205000Y-55200000D01*
X99165000Y-55200000D02*
X97101000Y-55200000D01*
X94165000Y-37850000D02*
X99165000Y-37850000D01*
X94165000Y-57150000D02*
X99165000Y-57150000D01*
X99165000Y-37850000D02*
X99165000Y-39800000D01*
X99165000Y-39800000D02*
X97101000Y-39800000D01*
X94165000Y-57150000D02*
X94165000Y-37850000D01*
D13*
X95415000Y-56150000D02*
G75*
G03*
X95415000Y-56150000I-250000J0D01*
G01*
X95415000Y-38850000D02*
G75*
G03*
X95415000Y-38850000I-250000J0D01*
G01*
D11*
X99725000Y-55500000D02*
X99425000Y-55900000D01*
X99425000Y-55900000D02*
X100025000Y-55900000D01*
X100025000Y-55900000D02*
X99725000Y-55500000D01*
G36*
X100025000Y-55900000D02*
G01*
X99425000Y-55900000D01*
X99725000Y-55500000D01*
X100025000Y-55900000D01*
G37*
X100025000Y-55900000D02*
X99425000Y-55900000D01*
X99725000Y-55500000D01*
X100025000Y-55900000D01*
%TO.C,R2*%
X115588742Y-50433500D02*
X116063258Y-50433500D01*
X115588742Y-49388500D02*
X116063258Y-49388500D01*
%TO.C,R5*%
X103457742Y-44718500D02*
X103932258Y-44718500D01*
X103457742Y-43673500D02*
X103932258Y-43673500D01*
%TO.C,JP2*%
X122700000Y-46100000D02*
X123000000Y-45800000D01*
X123000000Y-46400000D02*
X122700000Y-46100000D01*
X120500000Y-44750000D02*
X120500000Y-50250000D01*
X122450000Y-50250000D02*
X122450000Y-44750000D01*
X122450000Y-44750000D02*
X120500000Y-44750000D01*
X123000000Y-45800000D02*
X123000000Y-46400000D01*
X120500000Y-50250000D02*
X122450000Y-50250000D01*
%TO.C,L1*%
X111310748Y-44290000D02*
X111833252Y-44290000D01*
X111310748Y-42070000D02*
X111833252Y-42070000D01*
%TO.C,U1*%
X111572000Y-45430000D02*
X113372000Y-45430000D01*
X111572000Y-48550000D02*
X110772000Y-48550000D01*
X111572000Y-45430000D02*
X110772000Y-45430000D01*
X111572000Y-48550000D02*
X112372000Y-48550000D01*
%TO.C,JP1*%
X117620000Y-58658000D02*
X117620000Y-56658000D01*
X113520000Y-58658000D02*
X117620000Y-58658000D01*
X116870000Y-58858000D02*
X116570000Y-59158000D01*
X113520000Y-56658000D02*
X113520000Y-58658000D01*
X117620000Y-56658000D02*
X113520000Y-56658000D01*
X117170000Y-59158000D02*
X116570000Y-59158000D01*
X116870000Y-58858000D02*
X117170000Y-59158000D01*
%TD*%
%LPC*%
D14*
X103969000Y-57658000D02*
G75*
G03*
X103969000Y-57658000I-210000J0D01*
G01*
D15*
%TO.C,REF\u002A\u002A*%
X92500000Y-59000000D03*
D16*
X92500000Y-59000000D03*
%TD*%
D15*
%TO.C,REF\u002A\u002A*%
X126500000Y-59000000D03*
D16*
X126500000Y-59000000D03*
%TD*%
%TO.C,REF\u002A\u002A*%
X126500000Y-36000000D03*
D15*
X126500000Y-36000000D03*
%TD*%
%TO.C,REF\u002A\u002A*%
X92500000Y-36000000D03*
D16*
X92500000Y-36000000D03*
%TD*%
D17*
%TO.C,C2*%
X110924000Y-50038000D03*
X112474000Y-50038000D03*
%TD*%
D18*
%TO.C,C1*%
X117094000Y-47244000D03*
X115194000Y-47244000D03*
%TD*%
D19*
%TO.C,JP3*%
X108092000Y-57658000D03*
X106792000Y-57658000D03*
%TD*%
D20*
%TO.C,R3*%
X102616000Y-49149000D03*
X102616000Y-47499000D03*
%TD*%
%TO.C,R4*%
X104902000Y-49149000D03*
X104902000Y-47499000D03*
%TD*%
D21*
%TO.C,R1*%
X116651000Y-51587400D03*
X115001000Y-51587400D03*
%TD*%
D17*
%TO.C,C3*%
X102920800Y-42646600D03*
X104470800Y-42646600D03*
%TD*%
D22*
%TO.C,D1*%
X115636000Y-45084000D03*
X115636000Y-41784000D03*
%TD*%
D23*
%TO.C,J1*%
X100625000Y-35500000D03*
D24*
X103165000Y-35500000D03*
X105705000Y-35500000D03*
X108245000Y-35500000D03*
X110785000Y-35500000D03*
X113325000Y-35500000D03*
X115865000Y-35500000D03*
X118405000Y-35500000D03*
%TD*%
D25*
%TO.C,SW1*%
X125220000Y-43850000D03*
X125220000Y-51150000D03*
X127430000Y-43850000D03*
D26*
X126330000Y-49000000D03*
D25*
X127430000Y-51150000D03*
D26*
X126330000Y-46000000D03*
D27*
X124570000Y-45250000D03*
X124570000Y-48250000D03*
X124570000Y-49750000D03*
%TD*%
D28*
%TO.C,C4*%
X102936000Y-40894000D03*
X104836000Y-40894000D03*
%TD*%
D29*
%TO.C,J2*%
X98625000Y-54850000D03*
X98625000Y-54150000D03*
X98625000Y-53450000D03*
X98625000Y-52750000D03*
X98625000Y-52050000D03*
X98625000Y-51350000D03*
X98625000Y-50650000D03*
X98625000Y-49950000D03*
X98625000Y-49250000D03*
X98625000Y-48550000D03*
X98625000Y-47850000D03*
X98625000Y-47150000D03*
X98625000Y-46450000D03*
X98625000Y-45750000D03*
X98625000Y-45050000D03*
X98625000Y-44350000D03*
X98625000Y-43650000D03*
X98625000Y-42950000D03*
X98625000Y-42250000D03*
X98625000Y-41550000D03*
X98625000Y-40850000D03*
X98625000Y-40150000D03*
%TD*%
D30*
%TO.C,R2*%
X115001000Y-49911000D03*
X116651000Y-49911000D03*
%TD*%
%TO.C,R5*%
X102870000Y-44196000D03*
X104520000Y-44196000D03*
%TD*%
D31*
%TO.C,JP2*%
X121500000Y-48700000D03*
X121500000Y-46300000D03*
D32*
X121500000Y-45500000D03*
D33*
X121500000Y-49500000D03*
%TD*%
D34*
%TO.C,L1*%
X110497000Y-43180000D03*
X112647000Y-43180000D03*
%TD*%
D35*
%TO.C,U1*%
X112709500Y-46040000D03*
X112709500Y-46990000D03*
X112709500Y-47940000D03*
X110434500Y-47940000D03*
X110434500Y-46990000D03*
X110434501Y-46039989D03*
%TD*%
D19*
%TO.C,JP1*%
X116870000Y-57658000D03*
X115570000Y-57658000D03*
X114270000Y-57658000D03*
%TD*%
M02*
