%TF.GenerationSoftware,KiCad,Pcbnew,(6.0.1)*%
%TF.CreationDate,2022-01-25T13:59:19+08:00*%
%TF.ProjectId,PCB_OLED_OEL1M4033FPC_A1_E,5043425f-4f4c-4454-945f-4f454c314d34,1.1*%
%TF.SameCoordinates,Original*%
%TF.FileFunction,Paste,Bot*%
%TF.FilePolarity,Positive*%
%FSLAX46Y46*%
G04 Gerber Fmt 4.6, Leading zero omitted, Abs format (unit mm)*
G04 Created by KiCad (PCBNEW (6.0.1)) date 2022-01-25 13:59:19*
%MOMM*%
%LPD*%
G01*
G04 APERTURE LIST*
G04 Aperture macros list*
%AMRoundRect*
0 Rectangle with rounded corners*
0 $1 Rounding radius*
0 $2 $3 $4 $5 $6 $7 $8 $9 X,Y pos of 4 corners*
0 Add a 4 corners polygon primitive as box body*
4,1,4,$2,$3,$4,$5,$6,$7,$8,$9,$2,$3,0*
0 Add four circle primitives for the rounded corners*
1,1,$1+$1,$2,$3*
1,1,$1+$1,$4,$5*
1,1,$1+$1,$6,$7*
1,1,$1+$1,$8,$9*
0 Add four rect primitives between the rounded corners*
20,1,$1+$1,$2,$3,$4,$5,0*
20,1,$1+$1,$4,$5,$6,$7,0*
20,1,$1+$1,$6,$7,$8,$9,0*
20,1,$1+$1,$8,$9,$2,$3,0*%
G04 Aperture macros list end*
%ADD10RoundRect,0.225000X-0.225000X-0.250000X0.225000X-0.250000X0.225000X0.250000X-0.225000X0.250000X0*%
%ADD11RoundRect,0.250000X0.250000X0.475000X-0.250000X0.475000X-0.250000X-0.475000X0.250000X-0.475000X0*%
%ADD12RoundRect,0.200000X0.275000X-0.200000X0.275000X0.200000X-0.275000X0.200000X-0.275000X-0.200000X0*%
%ADD13RoundRect,0.200000X0.200000X0.275000X-0.200000X0.275000X-0.200000X-0.275000X0.200000X-0.275000X0*%
%ADD14R,1.200000X0.900000*%
%ADD15R,0.800000X1.000000*%
%ADD16R,1.500000X0.700000*%
%ADD17RoundRect,0.250000X-0.250000X-0.475000X0.250000X-0.475000X0.250000X0.475000X-0.250000X0.475000X0*%
%ADD18R,2.800000X0.400000*%
%ADD19RoundRect,0.200000X-0.200000X-0.275000X0.200000X-0.275000X0.200000X0.275000X-0.200000X0.275000X0*%
%ADD20RoundRect,0.250000X-0.375000X-0.850000X0.375000X-0.850000X0.375000X0.850000X-0.375000X0.850000X0*%
%ADD21RoundRect,0.150000X0.512500X0.150000X-0.512500X0.150000X-0.512500X-0.150000X0.512500X-0.150000X0*%
G04 APERTURE END LIST*
D10*
%TO.C,C2*%
X110924000Y-50038000D03*
X112474000Y-50038000D03*
%TD*%
D11*
%TO.C,C1*%
X117094000Y-47244000D03*
X115194000Y-47244000D03*
%TD*%
D12*
%TO.C,R3*%
X102616000Y-49149000D03*
X102616000Y-47499000D03*
%TD*%
%TO.C,R4*%
X104902000Y-49149000D03*
X104902000Y-47499000D03*
%TD*%
D13*
%TO.C,R1*%
X116651000Y-51587400D03*
X115001000Y-51587400D03*
%TD*%
D10*
%TO.C,C3*%
X102920800Y-42646600D03*
X104470800Y-42646600D03*
%TD*%
D14*
%TO.C,D1*%
X115636000Y-45084000D03*
X115636000Y-41784000D03*
%TD*%
D15*
%TO.C,SW1*%
X125220000Y-43850000D03*
X125220000Y-51150000D03*
X127430000Y-43850000D03*
X127430000Y-51150000D03*
D16*
X124570000Y-45250000D03*
X124570000Y-48250000D03*
X124570000Y-49750000D03*
%TD*%
D17*
%TO.C,C4*%
X102936000Y-40894000D03*
X104836000Y-40894000D03*
%TD*%
D18*
%TO.C,J2*%
X98625000Y-54850000D03*
X98625000Y-54150000D03*
X98625000Y-53450000D03*
X98625000Y-52750000D03*
X98625000Y-52050000D03*
X98625000Y-51350000D03*
X98625000Y-50650000D03*
X98625000Y-49950000D03*
X98625000Y-49250000D03*
X98625000Y-48550000D03*
X98625000Y-47850000D03*
X98625000Y-47150000D03*
X98625000Y-46450000D03*
X98625000Y-45750000D03*
X98625000Y-45050000D03*
X98625000Y-44350000D03*
X98625000Y-43650000D03*
X98625000Y-42950000D03*
X98625000Y-42250000D03*
X98625000Y-41550000D03*
X98625000Y-40850000D03*
X98625000Y-40150000D03*
%TD*%
D19*
%TO.C,R2*%
X115001000Y-49911000D03*
X116651000Y-49911000D03*
%TD*%
%TO.C,R5*%
X102870000Y-44196000D03*
X104520000Y-44196000D03*
%TD*%
D20*
%TO.C,L1*%
X110497000Y-43180000D03*
X112647000Y-43180000D03*
%TD*%
D21*
%TO.C,U1*%
X112709500Y-46040000D03*
X112709500Y-46990000D03*
X112709500Y-47940000D03*
X110434500Y-47940000D03*
X110434500Y-46990000D03*
X110434501Y-46039989D03*
%TD*%
M02*
