M48
; DRILL file {KiCad (6.0.1)} date Sat Jan 22 22:47:01 2022
; FORMAT={-:-/ absolute / metric / decimal}
; #@! TF.CreationDate,2022-01-22T22:47:01+08:00
; #@! TF.GenerationSoftware,Kicad,Pcbnew,(6.0.1)
; #@! TF.FileFunction,Plated,1,2,PTH
FMAT,2
METRIC
; #@! TA.AperFunction,Plated,PTH,ViaDrill
T1C0.400
; #@! TA.AperFunction,Plated,PTH,ComponentDrill
T2C1.000
; #@! TA.AperFunction,Plated,PTH,ComponentDrill
T3C2.700
%
G90
G05
T1
X90.424Y-55.753
X90.551Y-39.37
X92.202Y-40.513
X92.202Y-54.483
X93.853Y-53.721
X93.98Y-41.402
X94.869Y-43.434
X94.869Y-46.228
X94.869Y-49.022
X94.869Y-51.816
X96.266Y-47.879
X96.508Y-33.782
X96.52Y-36.322
X96.52Y-55.753
X96.52Y-61.214
X98.841Y-33.782
X98.852Y-61.214
X100.711Y-43.561
X100.838Y-42.545
X101.173Y-33.782
X101.184Y-61.214
X101.219Y-39.243
X101.473Y-46.451
X101.498Y-44.995
X101.6Y-51.359
X101.6Y-52.781
X102.032Y-42.621
X102.489Y-45.659
X103.505Y-33.782
X103.517Y-61.214
X103.759Y-54.229
X103.759Y-57.658
X104.606Y-51.35
X104.648Y-52.832
X105.837Y-33.782
X105.849Y-61.214
X106.873Y-45.659
X106.934Y-48.006
X106.934Y-49.022
X107.346Y-46.54
X107.95Y-48.006
X107.95Y-49.022
X108.169Y-33.782
X108.181Y-61.214
X108.524Y-44.577
X108.966Y-51.308
X109.474Y-41.402
X110.49Y-40.513
X110.502Y-33.782
X110.513Y-61.214
X111.125Y-52.197
X111.125Y-55.753
X111.125Y-57.658
X112.458Y-48.895
X112.834Y-33.782
X112.845Y-61.214
X113.284Y-52.324
X113.538Y-50.038
X114.046Y-46.99
X114.109Y-45.085
X114.173Y-39.243
X114.935Y-53.34
X114.998Y-48.636
X115.166Y-33.782
X115.177Y-61.214
X116.27Y-48.64
X117.221Y-42.418
X117.498Y-33.782
X117.51Y-61.214
X118.491Y-39.243
X119.125Y-48.64
X119.83Y-33.782
X119.842Y-61.214
X120.396Y-41.148
X120.396Y-43.942
X120.523Y-51.181
X122.162Y-33.782
X122.174Y-36.703
X122.174Y-55.753
X122.174Y-61.214
X122.936Y-45.466
X126.492Y-40.64
X126.492Y-54.356
T2
X100.625Y-35.5
X103.165Y-35.5
X105.705Y-35.5
X108.245Y-35.5
X110.785Y-35.5
X113.325Y-35.5
X115.865Y-35.5
X118.405Y-35.5
T3
X92.5Y-36.0
X92.5Y-59.0
X126.5Y-36.0
X126.5Y-59.0
T0
M30
