%TF.GenerationSoftware,KiCad,Pcbnew,(6.0.1)*%
%TF.CreationDate,2022-01-25T13:59:18+08:00*%
%TF.ProjectId,PCB_OLED_OEL1M4033FPC_A1_E,5043425f-4f4c-4454-945f-4f454c314d34,1.1*%
%TF.SameCoordinates,Original*%
%TF.FileFunction,Copper,L1,Top*%
%TF.FilePolarity,Positive*%
%FSLAX46Y46*%
G04 Gerber Fmt 4.6, Leading zero omitted, Abs format (unit mm)*
G04 Created by KiCad (PCBNEW (6.0.1)) date 2022-01-25 13:59:18*
%MOMM*%
%LPD*%
G01*
G04 APERTURE LIST*
%TA.AperFunction,ConnectorPad*%
%ADD10C,4.500000*%
%TD*%
%TA.AperFunction,ComponentPad*%
%ADD11C,3.100000*%
%TD*%
%TA.AperFunction,ComponentPad*%
%ADD12R,1.700000X1.700000*%
%TD*%
%TA.AperFunction,ComponentPad*%
%ADD13O,1.700000X1.700000*%
%TD*%
%TA.AperFunction,ViaPad*%
%ADD14C,0.800000*%
%TD*%
%TA.AperFunction,ViaPad*%
%ADD15C,0.700000*%
%TD*%
%TA.AperFunction,Conductor*%
%ADD16C,0.609600*%
%TD*%
%TA.AperFunction,Conductor*%
%ADD17C,0.254000*%
%TD*%
%TA.AperFunction,Conductor*%
%ADD18C,0.457200*%
%TD*%
%TA.AperFunction,Conductor*%
%ADD19C,0.762000*%
%TD*%
%TA.AperFunction,Conductor*%
%ADD20C,0.203200*%
%TD*%
G04 APERTURE END LIST*
D10*
%TO.P,REF\u002A\u002A,1*%
%TO.N,N/C*%
X92500000Y-59000000D03*
D11*
X92500000Y-59000000D03*
%TD*%
D10*
%TO.P,REF\u002A\u002A,1*%
%TO.N,N/C*%
X126500000Y-59000000D03*
D11*
X126500000Y-59000000D03*
%TD*%
%TO.P,REF\u002A\u002A,1*%
%TO.N,N/C*%
X126500000Y-36000000D03*
D10*
X126500000Y-36000000D03*
%TD*%
D11*
%TO.P,REF\u002A\u002A,1*%
%TO.N,N/C*%
X92500000Y-36000000D03*
D10*
X92500000Y-36000000D03*
%TD*%
D12*
%TO.P,J1,1,Pin_1*%
%TO.N,GND*%
X100625000Y-35500000D03*
D13*
%TO.P,J1,2,Pin_2*%
%TO.N,+3V3*%
X103165000Y-35500000D03*
%TO.P,J1,3,Pin_3*%
%TO.N,SCL*%
X105705000Y-35500000D03*
%TO.P,J1,4,Pin_4*%
%TO.N,SDA*%
X108245000Y-35500000D03*
%TO.P,J1,5,Pin_5*%
%TO.N,~{RES}*%
X110785000Y-35500000D03*
%TO.P,J1,6,Pin_6*%
%TO.N,DC#*%
X113325000Y-35500000D03*
%TO.P,J1,7,Pin_7*%
%TO.N,~{CS#}*%
X115865000Y-35500000D03*
%TO.P,J1,8,Pin_8*%
%TO.N,unconnected-(J1-Pad8)*%
X118405000Y-35500000D03*
%TD*%
D14*
%TO.N,VPP*%
X114109250Y-45085000D03*
X101219000Y-39243000D03*
%TO.N,GND*%
X112458250Y-48895000D03*
X115177448Y-61214000D03*
X96266000Y-47879000D03*
X126492000Y-40640000D03*
X119124625Y-48639625D03*
X118491000Y-39243000D03*
X96520000Y-55753000D03*
X93853000Y-53721000D03*
X93980000Y-41402000D03*
X117498086Y-33782000D03*
X103759000Y-57658000D03*
X101172819Y-33782000D03*
X120396000Y-41148000D03*
X108169362Y-33782000D03*
X114173000Y-39243000D03*
D15*
X101600000Y-52781200D03*
D14*
X92202000Y-40513000D03*
X103516543Y-61214000D03*
X112833724Y-33782000D03*
X126492000Y-54356000D03*
X113538000Y-50038000D03*
X96520000Y-36322000D03*
X92202000Y-54483000D03*
X105848724Y-61214000D03*
X120523000Y-51181000D03*
X103505000Y-33782000D03*
X98852181Y-61214000D03*
X119841810Y-61214000D03*
X114046000Y-46990000D03*
X110513086Y-61214000D03*
X104648000Y-52832000D03*
X119830267Y-33782000D03*
X96520000Y-61214000D03*
X120396000Y-43942000D03*
X117221000Y-42418000D03*
X114998250Y-48636209D03*
X108966000Y-51308000D03*
X115165905Y-33782000D03*
X105837181Y-33782000D03*
X117509629Y-61214000D03*
X116269625Y-48639625D03*
X112845267Y-61214000D03*
X94869000Y-43434000D03*
X108180905Y-61214000D03*
X101184362Y-61214000D03*
X90551000Y-39370000D03*
X94869000Y-49022000D03*
X96508457Y-33782000D03*
X122162457Y-33782000D03*
X122174000Y-61214000D03*
X110501543Y-33782000D03*
X122174000Y-36703000D03*
X98840638Y-33782000D03*
X122174000Y-55753000D03*
X94869000Y-46228000D03*
X109474000Y-41402000D03*
X111125000Y-52197000D03*
D15*
X101600000Y-51358800D03*
D14*
X94869000Y-51816000D03*
X104606000Y-51350000D03*
X90424000Y-55753000D03*
X111125000Y-55753000D03*
X111125000Y-57658000D03*
%TO.N,+3V3*%
X102032253Y-42620747D03*
X107950000Y-49022000D03*
X107950000Y-48006000D03*
X106934000Y-49022000D03*
X114935000Y-53340000D03*
X122936000Y-45466000D03*
X106934000Y-48006000D03*
%TO.N,~{RES}*%
X102489000Y-45659100D03*
X106873100Y-45659100D03*
%TO.N,DC#*%
X107345968Y-46539669D03*
X113284000Y-52324000D03*
X101473000Y-46451100D03*
%TO.N,~{CS#}*%
X101498127Y-44995444D03*
X108524100Y-44577000D03*
%TO.N,/IM2*%
X100711000Y-43561000D03*
X103759000Y-54229000D03*
%TO.N,/IM1*%
X110490000Y-40513000D03*
X100838000Y-42545000D03*
%TD*%
D16*
%TO.N,VPP*%
X105537000Y-39243000D02*
X101219000Y-39243000D01*
X111442250Y-38989000D02*
X105791000Y-38989000D01*
X105791000Y-38989000D02*
X105537000Y-39243000D01*
X114109250Y-41656000D02*
X111442250Y-38989000D01*
X114109250Y-45085000D02*
X114109250Y-41656000D01*
D17*
%TO.N,GND*%
X110998000Y-41783000D02*
X111760000Y-41021000D01*
X111760000Y-40513000D02*
X110998000Y-39751000D01*
D18*
X113538000Y-50038000D02*
X113596459Y-50038000D01*
D17*
X109474000Y-41402000D02*
X109855000Y-41783000D01*
D18*
X113596459Y-50038000D02*
X114998250Y-48636209D01*
X113538000Y-50038000D02*
X112903000Y-50038000D01*
X116269625Y-48639625D02*
X119124625Y-48639625D01*
X112458250Y-49593250D02*
X112458250Y-48895000D01*
X116268250Y-48641000D02*
X116269625Y-48639625D01*
X119126000Y-48641000D02*
X119124625Y-48639625D01*
D17*
X110998000Y-39751000D02*
X108458000Y-39751000D01*
X111760000Y-41021000D02*
X111760000Y-40513000D01*
X108458000Y-39751000D02*
X107569000Y-40640000D01*
D18*
X112903000Y-50038000D02*
X112458250Y-49593250D01*
D17*
X109855000Y-41783000D02*
X110998000Y-41783000D01*
D18*
X115062000Y-48641000D02*
X116268250Y-48641000D01*
D19*
%TO.N,+3V3*%
X102032253Y-42620747D02*
X102032253Y-42088253D01*
X103124000Y-37973000D02*
X104394000Y-37973000D01*
X122936000Y-40767000D02*
X122936000Y-45466000D01*
X106934000Y-49022000D02*
X106934000Y-48514000D01*
X99568000Y-39624000D02*
X99568000Y-38735000D01*
X109220000Y-53340000D02*
X107442000Y-51562000D01*
X100330000Y-37973000D02*
X103124000Y-37973000D01*
X122936000Y-51308000D02*
X120904000Y-53340000D01*
X104394000Y-37973000D02*
X120142000Y-37973000D01*
X103165000Y-37932000D02*
X103124000Y-37973000D01*
X120142000Y-37973000D02*
X122936000Y-40767000D01*
X122936000Y-45466000D02*
X122936000Y-51308000D01*
X107442000Y-51562000D02*
X106934000Y-51054000D01*
X106934000Y-48514000D02*
X107442000Y-48514000D01*
X107950000Y-48006000D02*
X106934000Y-48006000D01*
X106934000Y-48514000D02*
X106934000Y-48006000D01*
X114935000Y-53340000D02*
X109220000Y-53340000D01*
X120904000Y-53340000D02*
X114935000Y-53340000D01*
X103165000Y-35500000D02*
X103165000Y-37932000D01*
X99568000Y-38735000D02*
X100330000Y-37973000D01*
X107442000Y-48514000D02*
X107950000Y-48006000D01*
X106934000Y-51054000D02*
X106934000Y-49022000D01*
X106934000Y-49022000D02*
X107950000Y-49022000D01*
X107950000Y-49022000D02*
X107950000Y-48006000D01*
X102032253Y-42088253D02*
X99568000Y-39624000D01*
D20*
%TO.N,~{RES}*%
X102489000Y-45659100D02*
X102555100Y-45593000D01*
X102555100Y-45593000D02*
X106807000Y-45593000D01*
X106807000Y-45593000D02*
X106873100Y-45659100D01*
%TO.N,DC#*%
X102198589Y-46360211D02*
X107166510Y-46360211D01*
X101569100Y-46355000D02*
X102193378Y-46355000D01*
X101473000Y-46451100D02*
X101569100Y-46355000D01*
X107166510Y-46360211D02*
X107345968Y-46539669D01*
X102193378Y-46355000D02*
X102198589Y-46360211D01*
X107499669Y-46539669D02*
X107345968Y-46539669D01*
X113284000Y-52324000D02*
X107499669Y-46539669D01*
%TO.N,~{CS#}*%
X108524100Y-44637900D02*
X108524100Y-44577000D01*
X101498127Y-44995444D02*
X101535571Y-44958000D01*
X106807000Y-44958000D02*
X108204000Y-44958000D01*
X101535571Y-44958000D02*
X106807000Y-44958000D01*
X108204000Y-44958000D02*
X108331000Y-44831000D01*
X108331000Y-44831000D02*
X108524100Y-44637900D01*
%TO.N,/IM2*%
X101346000Y-53721000D02*
X101854000Y-54229000D01*
X100711000Y-53086000D02*
X101346000Y-53721000D01*
X101854000Y-54229000D02*
X103759000Y-54229000D01*
X100711000Y-43561000D02*
X100711000Y-53086000D01*
%TO.N,/IM1*%
X109093000Y-40513000D02*
X106172000Y-43434000D01*
X106172000Y-43434000D02*
X101727000Y-43434000D01*
X101727000Y-43434000D02*
X100838000Y-42545000D01*
X110490000Y-40513000D02*
X109093000Y-40513000D01*
%TD*%
%TA.AperFunction,Conductor*%
%TO.N,VPP*%
G36*
X101400565Y-38886242D02*
G01*
X101405543Y-38888480D01*
X101429906Y-38899434D01*
X101430043Y-38899486D01*
X101430052Y-38899490D01*
X101448422Y-38906497D01*
X101466327Y-38913327D01*
X101502819Y-38924862D01*
X101502953Y-38924896D01*
X101502970Y-38924901D01*
X101536877Y-38933534D01*
X101539582Y-38934223D01*
X101539734Y-38934253D01*
X101539738Y-38934254D01*
X101547129Y-38935717D01*
X101576820Y-38941593D01*
X101614731Y-38947156D01*
X101653519Y-38951097D01*
X101673689Y-38952362D01*
X101693282Y-38953592D01*
X101693304Y-38953593D01*
X101693383Y-38953598D01*
X101693457Y-38953600D01*
X101693473Y-38953601D01*
X101715292Y-38954261D01*
X101734526Y-38954843D01*
X101743923Y-38954881D01*
X101777048Y-38955016D01*
X101777147Y-38955016D01*
X101777237Y-38955015D01*
X101801461Y-38954624D01*
X101821450Y-38954301D01*
X101867634Y-38952881D01*
X101915901Y-38950940D01*
X101966453Y-38948662D01*
X102019490Y-38946231D01*
X102019522Y-38946230D01*
X102075146Y-38943832D01*
X102075214Y-38943829D01*
X102133803Y-38941643D01*
X102133900Y-38941640D01*
X102174800Y-38940453D01*
X102195475Y-38939853D01*
X102195561Y-38939851D01*
X102208831Y-38939604D01*
X102260428Y-38938645D01*
X102260570Y-38938643D01*
X102297999Y-38938401D01*
X102317224Y-38938276D01*
X102325519Y-38941649D01*
X102329000Y-38949976D01*
X102329000Y-39536024D01*
X102325573Y-39544297D01*
X102317225Y-39547724D01*
X102288715Y-39547539D01*
X102260570Y-39547356D01*
X102260428Y-39547354D01*
X102208831Y-39546395D01*
X102195561Y-39546148D01*
X102195475Y-39546146D01*
X102174800Y-39545546D01*
X102133900Y-39544359D01*
X102133803Y-39544356D01*
X102075214Y-39542170D01*
X102075146Y-39542167D01*
X102019522Y-39539769D01*
X102019490Y-39539768D01*
X101966453Y-39537337D01*
X101915901Y-39535059D01*
X101912345Y-39534916D01*
X101867634Y-39533118D01*
X101821450Y-39531698D01*
X101801461Y-39531375D01*
X101777237Y-39530984D01*
X101777147Y-39530983D01*
X101777048Y-39530983D01*
X101743923Y-39531118D01*
X101734526Y-39531156D01*
X101716648Y-39531697D01*
X101693473Y-39532398D01*
X101693457Y-39532399D01*
X101693383Y-39532401D01*
X101693304Y-39532406D01*
X101693282Y-39532407D01*
X101673689Y-39533637D01*
X101653519Y-39534902D01*
X101614731Y-39538843D01*
X101576820Y-39544406D01*
X101547129Y-39550282D01*
X101539738Y-39551745D01*
X101539734Y-39551746D01*
X101539582Y-39551776D01*
X101539428Y-39551815D01*
X101539429Y-39551815D01*
X101502970Y-39561098D01*
X101502953Y-39561103D01*
X101502819Y-39561137D01*
X101466327Y-39572672D01*
X101448422Y-39579502D01*
X101430052Y-39586509D01*
X101430043Y-39586513D01*
X101429906Y-39586565D01*
X101429762Y-39586630D01*
X101429759Y-39586631D01*
X101400565Y-39599758D01*
X101391614Y-39600025D01*
X101387657Y-39597520D01*
X101027769Y-39251433D01*
X101024181Y-39243229D01*
X101027769Y-39234567D01*
X101387657Y-38888480D01*
X101395996Y-38885215D01*
X101400565Y-38886242D01*
G37*
%TD.AperFunction*%
%TD*%
%TA.AperFunction,Conductor*%
%TO.N,VPP*%
G36*
X114410547Y-43978427D02*
G01*
X114413974Y-43986776D01*
X114413606Y-44043429D01*
X114413604Y-44043571D01*
X114412397Y-44108473D01*
X114410607Y-44170174D01*
X114408420Y-44228785D01*
X114406018Y-44284509D01*
X114403587Y-44337546D01*
X114401309Y-44388098D01*
X114399368Y-44436365D01*
X114397948Y-44482549D01*
X114397947Y-44482634D01*
X114397234Y-44526762D01*
X114397233Y-44526852D01*
X114397406Y-44569473D01*
X114398651Y-44610616D01*
X114401152Y-44650480D01*
X114405093Y-44689268D01*
X114410656Y-44727179D01*
X114418026Y-44764417D01*
X114418065Y-44764570D01*
X114427348Y-44801029D01*
X114427353Y-44801046D01*
X114427387Y-44801180D01*
X114438922Y-44837672D01*
X114452815Y-44874093D01*
X114452880Y-44874237D01*
X114452881Y-44874240D01*
X114466008Y-44903435D01*
X114466275Y-44912386D01*
X114463770Y-44916343D01*
X114117683Y-45276231D01*
X114109479Y-45279819D01*
X114100817Y-45276231D01*
X113754730Y-44916343D01*
X113751465Y-44908004D01*
X113752492Y-44903435D01*
X113765618Y-44874240D01*
X113765619Y-44874237D01*
X113765684Y-44874093D01*
X113779577Y-44837672D01*
X113791112Y-44801180D01*
X113791146Y-44801046D01*
X113791151Y-44801029D01*
X113800434Y-44764570D01*
X113800473Y-44764417D01*
X113807843Y-44727179D01*
X113813406Y-44689268D01*
X113817347Y-44650480D01*
X113819848Y-44610616D01*
X113821093Y-44569473D01*
X113821266Y-44526852D01*
X113820551Y-44482549D01*
X113819131Y-44436365D01*
X113817190Y-44388098D01*
X113814912Y-44337546D01*
X113812481Y-44284509D01*
X113810079Y-44228785D01*
X113807892Y-44170174D01*
X113806102Y-44108473D01*
X113804895Y-44043571D01*
X113804893Y-44043429D01*
X113804526Y-43986776D01*
X113807899Y-43978481D01*
X113816226Y-43975000D01*
X114402274Y-43975000D01*
X114410547Y-43978427D01*
G37*
%TD.AperFunction*%
%TD*%
%TA.AperFunction,Conductor*%
%TO.N,+3V3*%
G36*
X103173433Y-35083769D02*
G01*
X103924383Y-35864665D01*
X103927648Y-35873004D01*
X103926507Y-35877818D01*
X103878031Y-35979302D01*
X103830961Y-36081295D01*
X103788547Y-36177463D01*
X103750549Y-36268786D01*
X103716724Y-36356243D01*
X103686831Y-36440813D01*
X103660630Y-36523475D01*
X103637877Y-36605209D01*
X103618333Y-36686993D01*
X103601754Y-36769807D01*
X103587901Y-36854630D01*
X103576531Y-36942441D01*
X103567403Y-37034220D01*
X103560276Y-37130944D01*
X103560272Y-37131022D01*
X103554908Y-37233594D01*
X103551057Y-37343149D01*
X103551056Y-37343195D01*
X103548482Y-37460588D01*
X103548481Y-37460652D01*
X103546942Y-37586890D01*
X103546195Y-37723034D01*
X103546016Y-37858315D01*
X103542578Y-37866584D01*
X103534316Y-37870000D01*
X102795684Y-37870000D01*
X102787411Y-37866573D01*
X102783984Y-37858316D01*
X102783804Y-37723034D01*
X102783804Y-37722970D01*
X102783057Y-37586890D01*
X102781517Y-37460588D01*
X102778942Y-37343149D01*
X102775091Y-37233594D01*
X102769727Y-37131022D01*
X102769723Y-37130944D01*
X102762596Y-37034220D01*
X102753468Y-36942441D01*
X102742098Y-36854630D01*
X102728245Y-36769807D01*
X102711666Y-36686993D01*
X102692122Y-36605209D01*
X102669369Y-36523475D01*
X102643168Y-36440813D01*
X102613275Y-36356243D01*
X102579450Y-36268786D01*
X102541452Y-36177463D01*
X102499038Y-36081295D01*
X102451968Y-35979302D01*
X102403493Y-35877818D01*
X102403019Y-35868876D01*
X102405617Y-35864665D01*
X103156567Y-35083769D01*
X103164771Y-35080181D01*
X103173433Y-35083769D01*
G37*
%TD.AperFunction*%
%TD*%
%TA.AperFunction,Conductor*%
%TO.N,~{RES}*%
G36*
X102609586Y-45277687D02*
G01*
X102663030Y-45293823D01*
X102663192Y-45293874D01*
X102719467Y-45311761D01*
X102719610Y-45311807D01*
X102771861Y-45329155D01*
X102771975Y-45329194D01*
X102820464Y-45345849D01*
X102820538Y-45345874D01*
X102866213Y-45361908D01*
X102909494Y-45377214D01*
X102950990Y-45391751D01*
X102991310Y-45405475D01*
X102991321Y-45405478D01*
X102991334Y-45405483D01*
X103030987Y-45418321D01*
X103031029Y-45418334D01*
X103031063Y-45418345D01*
X103070859Y-45430318D01*
X103070918Y-45430334D01*
X103111216Y-45441328D01*
X103111229Y-45441331D01*
X103111305Y-45441352D01*
X103132158Y-45446378D01*
X103152889Y-45451375D01*
X103152914Y-45451381D01*
X103153011Y-45451404D01*
X103153101Y-45451423D01*
X103153107Y-45451424D01*
X103195446Y-45460196D01*
X103196586Y-45460432D01*
X103196689Y-45460450D01*
X103196711Y-45460454D01*
X103219932Y-45464468D01*
X103242639Y-45468394D01*
X103242705Y-45468403D01*
X103242710Y-45468404D01*
X103260689Y-45470911D01*
X103291780Y-45475247D01*
X103291868Y-45475256D01*
X103291896Y-45475260D01*
X103344500Y-45480937D01*
X103344537Y-45480941D01*
X103344616Y-45480949D01*
X103344688Y-45480955D01*
X103344702Y-45480956D01*
X103400599Y-45485366D01*
X103401757Y-45485457D01*
X103415666Y-45486191D01*
X103463789Y-45488729D01*
X103463808Y-45488730D01*
X103463815Y-45488730D01*
X103463837Y-45488731D01*
X103531390Y-45490725D01*
X103593507Y-45491294D01*
X103601749Y-45494797D01*
X103605100Y-45502994D01*
X103605100Y-45682977D01*
X103601673Y-45691250D01*
X103593478Y-45694677D01*
X103537981Y-45695047D01*
X103476037Y-45696450D01*
X103475972Y-45696453D01*
X103475965Y-45696453D01*
X103428742Y-45698471D01*
X103418806Y-45698895D01*
X103378084Y-45701644D01*
X103365928Y-45702464D01*
X103365920Y-45702465D01*
X103365826Y-45702471D01*
X103316638Y-45707266D01*
X103316563Y-45707276D01*
X103316554Y-45707277D01*
X103270874Y-45713355D01*
X103270857Y-45713358D01*
X103270779Y-45713368D01*
X103270694Y-45713383D01*
X103270680Y-45713385D01*
X103246089Y-45717674D01*
X103227790Y-45720866D01*
X103187208Y-45729849D01*
X103148573Y-45740403D01*
X103148447Y-45740444D01*
X103148435Y-45740448D01*
X103129300Y-45746740D01*
X103111424Y-45752617D01*
X103091744Y-45760224D01*
X103075444Y-45766524D01*
X103075433Y-45766529D01*
X103075300Y-45766580D01*
X103059066Y-45773793D01*
X103039869Y-45782322D01*
X103039848Y-45782332D01*
X103039740Y-45782380D01*
X103004282Y-45800105D01*
X103004189Y-45800156D01*
X103004178Y-45800162D01*
X102968543Y-45819801D01*
X102968467Y-45819843D01*
X102931832Y-45841682D01*
X102893917Y-45865711D01*
X102893902Y-45865721D01*
X102893880Y-45865735D01*
X102859884Y-45888287D01*
X102854260Y-45892018D01*
X102854230Y-45892038D01*
X102854229Y-45892039D01*
X102812402Y-45920692D01*
X102767880Y-45951819D01*
X102726880Y-45980793D01*
X102718147Y-45982769D01*
X102713520Y-45980892D01*
X102423666Y-45782380D01*
X102301766Y-45698894D01*
X102296876Y-45691392D01*
X102298990Y-45682258D01*
X102596817Y-45281905D01*
X102604504Y-45277312D01*
X102609586Y-45277687D01*
G37*
%TD.AperFunction*%
%TD*%
%TA.AperFunction,Conductor*%
%TO.N,~{RES}*%
G36*
X106761425Y-45278577D02*
G01*
X106765283Y-45281905D01*
X107063110Y-45682258D01*
X107065299Y-45690941D01*
X107060334Y-45698894D01*
X106938434Y-45782380D01*
X106648581Y-45980891D01*
X106639820Y-45982739D01*
X106635219Y-45980793D01*
X106594219Y-45951819D01*
X106594208Y-45951811D01*
X106549790Y-45920757D01*
X106549789Y-45920756D01*
X106549697Y-45920692D01*
X106507870Y-45892039D01*
X106507869Y-45892038D01*
X106507839Y-45892018D01*
X106502215Y-45888287D01*
X106468219Y-45865735D01*
X106468197Y-45865721D01*
X106468182Y-45865711D01*
X106430267Y-45841682D01*
X106393632Y-45819843D01*
X106393556Y-45819801D01*
X106357921Y-45800162D01*
X106357910Y-45800156D01*
X106357817Y-45800105D01*
X106322359Y-45782380D01*
X106322251Y-45782332D01*
X106322230Y-45782322D01*
X106303033Y-45773793D01*
X106286799Y-45766580D01*
X106286666Y-45766529D01*
X106286655Y-45766524D01*
X106270355Y-45760224D01*
X106250675Y-45752617D01*
X106232799Y-45746740D01*
X106213664Y-45740448D01*
X106213652Y-45740444D01*
X106213526Y-45740403D01*
X106174891Y-45729849D01*
X106134309Y-45720866D01*
X106116010Y-45717674D01*
X106091419Y-45713385D01*
X106091405Y-45713383D01*
X106091320Y-45713368D01*
X106091242Y-45713358D01*
X106091225Y-45713355D01*
X106045545Y-45707277D01*
X106045536Y-45707276D01*
X106045461Y-45707266D01*
X105996273Y-45702471D01*
X105996179Y-45702465D01*
X105996171Y-45702464D01*
X105984015Y-45701644D01*
X105943293Y-45698895D01*
X105933357Y-45698471D01*
X105886134Y-45696453D01*
X105886127Y-45696453D01*
X105886062Y-45696450D01*
X105824118Y-45695047D01*
X105768622Y-45694677D01*
X105760372Y-45691195D01*
X105757000Y-45682977D01*
X105757000Y-45502994D01*
X105760427Y-45494721D01*
X105768593Y-45491294D01*
X105830709Y-45490725D01*
X105898262Y-45488731D01*
X105898284Y-45488730D01*
X105898291Y-45488730D01*
X105898310Y-45488729D01*
X105946433Y-45486191D01*
X105960342Y-45485457D01*
X105961500Y-45485366D01*
X106017397Y-45480956D01*
X106017411Y-45480955D01*
X106017483Y-45480949D01*
X106017562Y-45480941D01*
X106017599Y-45480937D01*
X106070203Y-45475260D01*
X106070231Y-45475256D01*
X106070319Y-45475247D01*
X106101410Y-45470911D01*
X106119389Y-45468404D01*
X106119394Y-45468403D01*
X106119460Y-45468394D01*
X106142167Y-45464468D01*
X106165388Y-45460454D01*
X106165410Y-45460450D01*
X106165513Y-45460432D01*
X106166653Y-45460196D01*
X106208992Y-45451424D01*
X106208998Y-45451423D01*
X106209088Y-45451404D01*
X106209185Y-45451381D01*
X106209210Y-45451375D01*
X106229941Y-45446378D01*
X106250794Y-45441352D01*
X106250870Y-45441331D01*
X106250883Y-45441328D01*
X106291181Y-45430334D01*
X106291240Y-45430318D01*
X106331036Y-45418345D01*
X106331070Y-45418334D01*
X106331112Y-45418321D01*
X106370765Y-45405483D01*
X106370778Y-45405478D01*
X106370789Y-45405475D01*
X106411109Y-45391751D01*
X106452605Y-45377214D01*
X106495886Y-45361908D01*
X106541561Y-45345874D01*
X106541635Y-45345849D01*
X106590124Y-45329194D01*
X106590238Y-45329155D01*
X106642489Y-45311807D01*
X106642632Y-45311761D01*
X106698907Y-45293874D01*
X106699069Y-45293823D01*
X106752514Y-45277687D01*
X106761425Y-45278577D01*
G37*
%TD.AperFunction*%
%TD*%
%TA.AperFunction,Conductor*%
%TO.N,DC#*%
G36*
X107350785Y-46143124D02*
G01*
X107353545Y-46147484D01*
X107524907Y-46629003D01*
X107251323Y-46714475D01*
X107036851Y-46781479D01*
X107027932Y-46780675D01*
X107024181Y-46777564D01*
X106996964Y-46743112D01*
X106965813Y-46705875D01*
X106965779Y-46705837D01*
X106965766Y-46705822D01*
X106935516Y-46672102D01*
X106935512Y-46672098D01*
X106935436Y-46672013D01*
X106927348Y-46663719D01*
X106905646Y-46641462D01*
X106905639Y-46641455D01*
X106905555Y-46641369D01*
X106903413Y-46639377D01*
X106875990Y-46613882D01*
X106875991Y-46613882D01*
X106875890Y-46613789D01*
X106846160Y-46589116D01*
X106846005Y-46589003D01*
X106816257Y-46567320D01*
X106816250Y-46567315D01*
X106816085Y-46567195D01*
X106785387Y-46547870D01*
X106785200Y-46547770D01*
X106753973Y-46531085D01*
X106753963Y-46531080D01*
X106753785Y-46530985D01*
X106721000Y-46516385D01*
X106686752Y-46503915D01*
X106666958Y-46498142D01*
X106650919Y-46493464D01*
X106650908Y-46493461D01*
X106650760Y-46493418D01*
X106650591Y-46493379D01*
X106612921Y-46484779D01*
X106612923Y-46484779D01*
X106612746Y-46484739D01*
X106612591Y-46484712D01*
X106612586Y-46484711D01*
X106572541Y-46477741D01*
X106572522Y-46477738D01*
X106572429Y-46477722D01*
X106557603Y-46475817D01*
X106529602Y-46472220D01*
X106529591Y-46472219D01*
X106529530Y-46472211D01*
X106483769Y-46468052D01*
X106483692Y-46468047D01*
X106483675Y-46468046D01*
X106434901Y-46465090D01*
X106434896Y-46465090D01*
X106434867Y-46465088D01*
X106434842Y-46465087D01*
X106434820Y-46465086D01*
X106411561Y-46464231D01*
X106382542Y-46463163D01*
X106360678Y-46462757D01*
X106326541Y-46462123D01*
X106326516Y-46462123D01*
X106278148Y-46461872D01*
X106269894Y-46458402D01*
X106266510Y-46450172D01*
X106266510Y-46270177D01*
X106269937Y-46261904D01*
X106278075Y-46258478D01*
X106344781Y-46257709D01*
X106344808Y-46257708D01*
X106344837Y-46257708D01*
X106344872Y-46257707D01*
X106344902Y-46257706D01*
X106416568Y-46255131D01*
X106416590Y-46255130D01*
X106416646Y-46255128D01*
X106416675Y-46255126D01*
X106416702Y-46255125D01*
X106476800Y-46251419D01*
X106482601Y-46251061D01*
X106482676Y-46251054D01*
X106482695Y-46251053D01*
X106543278Y-46245707D01*
X106543299Y-46245705D01*
X106543365Y-46245699D01*
X106543452Y-46245689D01*
X106543481Y-46245686D01*
X106576612Y-46241876D01*
X106599600Y-46239232D01*
X106599637Y-46239227D01*
X106599660Y-46239224D01*
X106651915Y-46231861D01*
X106651921Y-46231860D01*
X106651971Y-46231853D01*
X106673497Y-46228306D01*
X106679876Y-46229041D01*
X106716338Y-46244144D01*
X106873100Y-46264782D01*
X107029862Y-46244144D01*
X107175941Y-46183636D01*
X107176551Y-46183168D01*
X107176556Y-46183165D01*
X107228078Y-46143631D01*
X107234852Y-46141218D01*
X107243346Y-46140966D01*
X107282708Y-46139796D01*
X107283040Y-46139791D01*
X107308073Y-46139756D01*
X107342508Y-46139709D01*
X107350785Y-46143124D01*
G37*
%TD.AperFunction*%
%TD*%
%TA.AperFunction,Conductor*%
%TO.N,DC#*%
G36*
X101565589Y-46061957D02*
G01*
X101621277Y-46074554D01*
X101621434Y-46074591D01*
X101679978Y-46089001D01*
X101680102Y-46089032D01*
X101713257Y-46097825D01*
X101734196Y-46103378D01*
X101734312Y-46103409D01*
X101784656Y-46117629D01*
X101831853Y-46131633D01*
X101831957Y-46131665D01*
X101876439Y-46145313D01*
X101876486Y-46145327D01*
X101919190Y-46158628D01*
X101960597Y-46171455D01*
X102001340Y-46183726D01*
X102042054Y-46195359D01*
X102057404Y-46199414D01*
X102083325Y-46206261D01*
X102083346Y-46206266D01*
X102083372Y-46206273D01*
X102125928Y-46216385D01*
X102126033Y-46216407D01*
X102126065Y-46216414D01*
X102170261Y-46225594D01*
X102170282Y-46225598D01*
X102170354Y-46225613D01*
X102217285Y-46233877D01*
X102267354Y-46241093D01*
X102321194Y-46247181D01*
X102321268Y-46247187D01*
X102321296Y-46247190D01*
X102356141Y-46250108D01*
X102379439Y-46252059D01*
X102379502Y-46252063D01*
X102379508Y-46252063D01*
X102401679Y-46253319D01*
X102402544Y-46253400D01*
X102488240Y-46264682D01*
X102489000Y-46264782D01*
X102538688Y-46258240D01*
X102540314Y-46258143D01*
X102564290Y-46258383D01*
X102575359Y-46258495D01*
X102583597Y-46262005D01*
X102586941Y-46270194D01*
X102586941Y-46450178D01*
X102583514Y-46458451D01*
X102575309Y-46461878D01*
X102521291Y-46462187D01*
X102460537Y-46463393D01*
X102404261Y-46465546D01*
X102404165Y-46465552D01*
X102404163Y-46465552D01*
X102352134Y-46468755D01*
X102352109Y-46468757D01*
X102352044Y-46468761D01*
X102351937Y-46468771D01*
X102351933Y-46468771D01*
X102303588Y-46473146D01*
X102303585Y-46473146D01*
X102303467Y-46473157D01*
X102303366Y-46473170D01*
X102303363Y-46473170D01*
X102258232Y-46478833D01*
X102258229Y-46478833D01*
X102258113Y-46478848D01*
X102236261Y-46482496D01*
X102215713Y-46485927D01*
X102215708Y-46485928D01*
X102215564Y-46485952D01*
X102215437Y-46485979D01*
X102215428Y-46485981D01*
X102206073Y-46487992D01*
X102175401Y-46494585D01*
X102165479Y-46497255D01*
X102137382Y-46504815D01*
X102137370Y-46504819D01*
X102137205Y-46504863D01*
X102100559Y-46516903D01*
X102100401Y-46516965D01*
X102100398Y-46516966D01*
X102065218Y-46530754D01*
X102065212Y-46530757D01*
X102065045Y-46530822D01*
X102064892Y-46530892D01*
X102064873Y-46530900D01*
X102030401Y-46546663D01*
X102030244Y-46546735D01*
X101995737Y-46564760D01*
X101961108Y-46585013D01*
X101925936Y-46607611D01*
X101925870Y-46607657D01*
X101889849Y-46632638D01*
X101889827Y-46632653D01*
X101889805Y-46632669D01*
X101889781Y-46632687D01*
X101889768Y-46632696D01*
X101852296Y-46660304D01*
X101812991Y-46690634D01*
X101771471Y-46723774D01*
X101733604Y-46754707D01*
X101725029Y-46757287D01*
X101720309Y-46755754D01*
X101289150Y-46504383D01*
X101283729Y-46497255D01*
X101285173Y-46487992D01*
X101423832Y-46270194D01*
X101553140Y-46067085D01*
X101560473Y-46061947D01*
X101565589Y-46061957D01*
G37*
%TD.AperFunction*%
%TD*%
%TA.AperFunction,Conductor*%
%TO.N,DC#*%
G36*
X107675401Y-46314806D02*
G01*
X107679137Y-46318307D01*
X107711380Y-46365711D01*
X107711496Y-46365884D01*
X107716251Y-46373178D01*
X107744555Y-46416600D01*
X107744646Y-46416744D01*
X107754386Y-46432323D01*
X107774385Y-46464316D01*
X107774492Y-46464490D01*
X107801470Y-46509369D01*
X107801559Y-46509520D01*
X107826269Y-46552053D01*
X107826335Y-46552168D01*
X107849317Y-46592780D01*
X107849355Y-46592848D01*
X107871176Y-46632021D01*
X107871175Y-46632021D01*
X107871179Y-46632026D01*
X107892287Y-46670018D01*
X107913204Y-46707227D01*
X107918854Y-46717017D01*
X107934406Y-46743963D01*
X107934446Y-46744032D01*
X107956531Y-46780821D01*
X107979975Y-46817981D01*
X108005297Y-46855896D01*
X108005332Y-46855945D01*
X108032976Y-46894900D01*
X108032992Y-46894922D01*
X108033015Y-46894954D01*
X108063645Y-46935541D01*
X108063678Y-46935582D01*
X108092463Y-46971500D01*
X108097707Y-46978044D01*
X108135717Y-47022847D01*
X108178193Y-47070339D01*
X108225653Y-47120905D01*
X108225709Y-47120962D01*
X108270507Y-47166660D01*
X108273851Y-47174966D01*
X108270425Y-47183123D01*
X108143155Y-47310393D01*
X108134882Y-47313820D01*
X108126661Y-47310444D01*
X108088823Y-47273059D01*
X108045487Y-47231491D01*
X108004556Y-47193714D01*
X107983189Y-47174932D01*
X107965739Y-47159594D01*
X107965664Y-47159528D01*
X107965611Y-47159484D01*
X107965591Y-47159467D01*
X107944708Y-47142191D01*
X107928443Y-47128735D01*
X107892528Y-47101136D01*
X107892451Y-47101082D01*
X107892439Y-47101073D01*
X107857669Y-47076616D01*
X107857551Y-47076533D01*
X107857429Y-47076456D01*
X107857419Y-47076449D01*
X107823278Y-47054811D01*
X107823144Y-47054726D01*
X107788943Y-47035518D01*
X107788786Y-47035441D01*
X107754743Y-47018790D01*
X107754737Y-47018787D01*
X107754579Y-47018710D01*
X107719685Y-47004102D01*
X107719523Y-47004045D01*
X107719518Y-47004043D01*
X107684032Y-46991545D01*
X107683896Y-46991497D01*
X107646843Y-46980696D01*
X107646714Y-46980665D01*
X107646709Y-46980664D01*
X107608270Y-46971526D01*
X107608161Y-46971500D01*
X107585459Y-46967153D01*
X107567609Y-46963734D01*
X107567592Y-46963731D01*
X107567482Y-46963710D01*
X107567381Y-46963695D01*
X107567372Y-46963693D01*
X107524485Y-46957135D01*
X107524483Y-46957135D01*
X107524439Y-46957128D01*
X107488270Y-46952725D01*
X107478708Y-46951561D01*
X107478701Y-46951560D01*
X107478666Y-46951556D01*
X107429796Y-46946794D01*
X107377462Y-46942643D01*
X107377372Y-46942637D01*
X107329389Y-46939445D01*
X107321362Y-46935477D01*
X107318962Y-46931141D01*
X107254245Y-46716002D01*
X107171688Y-46441556D01*
X107666534Y-46313560D01*
X107675401Y-46314806D01*
G37*
%TD.AperFunction*%
%TD*%
%TA.AperFunction,Conductor*%
%TO.N,DC#*%
G36*
X112579227Y-51475410D02*
G01*
X112616143Y-51511729D01*
X112620706Y-51516218D01*
X112667270Y-51560349D01*
X112711046Y-51600027D01*
X112752434Y-51635616D01*
X112791831Y-51667481D01*
X112791861Y-51667504D01*
X112791883Y-51667521D01*
X112829534Y-51695908D01*
X112829556Y-51695924D01*
X112829637Y-51695985D01*
X112829727Y-51696048D01*
X112829744Y-51696060D01*
X112845699Y-51707175D01*
X112866252Y-51721494D01*
X112866337Y-51721549D01*
X112866350Y-51721557D01*
X112901981Y-51744312D01*
X112902002Y-51744325D01*
X112902073Y-51744370D01*
X112937500Y-51764979D01*
X112952654Y-51772979D01*
X112972858Y-51783646D01*
X112972875Y-51783655D01*
X112972931Y-51783684D01*
X113008766Y-51800850D01*
X113008835Y-51800880D01*
X113045332Y-51816809D01*
X113045356Y-51816819D01*
X113045404Y-51816840D01*
X113045450Y-51816858D01*
X113045468Y-51816866D01*
X113083183Y-51831996D01*
X113083243Y-51832020D01*
X113083289Y-51832037D01*
X113083322Y-51832050D01*
X113122645Y-51846738D01*
X113122660Y-51846743D01*
X113122683Y-51846752D01*
X113164121Y-51861401D01*
X113198546Y-51873126D01*
X113207938Y-51876325D01*
X113207959Y-51876332D01*
X113254586Y-51891907D01*
X113254593Y-51891909D01*
X113254598Y-51891911D01*
X113304391Y-51908484D01*
X113304424Y-51908495D01*
X113357781Y-51926432D01*
X113357850Y-51926455D01*
X113407530Y-51943499D01*
X113414242Y-51949424D01*
X113415430Y-51954336D01*
X113425183Y-52453256D01*
X113421918Y-52461595D01*
X113413256Y-52465183D01*
X113022302Y-52457541D01*
X112914336Y-52455430D01*
X112906132Y-52451842D01*
X112903498Y-52447529D01*
X112886455Y-52397850D01*
X112886432Y-52397781D01*
X112868495Y-52344424D01*
X112868484Y-52344391D01*
X112851911Y-52294598D01*
X112851909Y-52294593D01*
X112836332Y-52247959D01*
X112821401Y-52204121D01*
X112806752Y-52162683D01*
X112792020Y-52123243D01*
X112776840Y-52085404D01*
X112760850Y-52048766D01*
X112743684Y-52012931D01*
X112743655Y-52012875D01*
X112743646Y-52012858D01*
X112725024Y-51977586D01*
X112724979Y-51977500D01*
X112704370Y-51942073D01*
X112704325Y-51942002D01*
X112704312Y-51941981D01*
X112681557Y-51906350D01*
X112681549Y-51906337D01*
X112681494Y-51906252D01*
X112669223Y-51888638D01*
X112656060Y-51869744D01*
X112656048Y-51869727D01*
X112655985Y-51869637D01*
X112655924Y-51869556D01*
X112655908Y-51869534D01*
X112627521Y-51831883D01*
X112627504Y-51831861D01*
X112627481Y-51831831D01*
X112595616Y-51792434D01*
X112588060Y-51783646D01*
X112571961Y-51764925D01*
X112560027Y-51751046D01*
X112520349Y-51707270D01*
X112476218Y-51660706D01*
X112471729Y-51656143D01*
X112435410Y-51619227D01*
X112432050Y-51610927D01*
X112435477Y-51602749D01*
X112562749Y-51475477D01*
X112571022Y-51472050D01*
X112579227Y-51475410D01*
G37*
%TD.AperFunction*%
%TD*%
%TA.AperFunction,Conductor*%
%TO.N,~{CS#}*%
G36*
X101646463Y-44623925D02*
G01*
X101698008Y-44643618D01*
X101733791Y-44657703D01*
X101752609Y-44665110D01*
X101752692Y-44665143D01*
X101803284Y-44685505D01*
X101803332Y-44685524D01*
X101850626Y-44704800D01*
X101895122Y-44722950D01*
X101937382Y-44739960D01*
X101937406Y-44739969D01*
X101937408Y-44739970D01*
X101978069Y-44755853D01*
X102017692Y-44770594D01*
X102056741Y-44784146D01*
X102056761Y-44784153D01*
X102056863Y-44784188D01*
X102096168Y-44796628D01*
X102136193Y-44807910D01*
X102136307Y-44807938D01*
X102136315Y-44807940D01*
X102177414Y-44818001D01*
X102177423Y-44818003D01*
X102177525Y-44818028D01*
X102220750Y-44826976D01*
X102266454Y-44834749D01*
X102266542Y-44834761D01*
X102266549Y-44834762D01*
X102293190Y-44838363D01*
X102315223Y-44841342D01*
X102315336Y-44841354D01*
X102315364Y-44841357D01*
X102352764Y-44845213D01*
X102367644Y-44846748D01*
X102367749Y-44846756D01*
X102367751Y-44846756D01*
X102424262Y-44850959D01*
X102424265Y-44850959D01*
X102424303Y-44850962D01*
X102449188Y-44852183D01*
X102485739Y-44853977D01*
X102485761Y-44853978D01*
X102485786Y-44853979D01*
X102495875Y-44854253D01*
X102552668Y-44855793D01*
X102552680Y-44855793D01*
X102613969Y-44856303D01*
X102622213Y-44859799D01*
X102625571Y-44868003D01*
X102625571Y-45047981D01*
X102622144Y-45056254D01*
X102613953Y-45059681D01*
X102588357Y-45059861D01*
X102556318Y-45060085D01*
X102543070Y-45060397D01*
X102541276Y-45060300D01*
X102489000Y-45053418D01*
X102378159Y-45068010D01*
X102377868Y-45068044D01*
X102340193Y-45071740D01*
X102329035Y-45072834D01*
X102329022Y-45072836D01*
X102328915Y-45072846D01*
X102328812Y-45072860D01*
X102328783Y-45072863D01*
X102302207Y-45076387D01*
X102281949Y-45079073D01*
X102281862Y-45079088D01*
X102281855Y-45079089D01*
X102238020Y-45086632D01*
X102238007Y-45086635D01*
X102237929Y-45086648D01*
X102222306Y-45090026D01*
X102196474Y-45095610D01*
X102196459Y-45095614D01*
X102196351Y-45095637D01*
X102156714Y-45106106D01*
X102118512Y-45118122D01*
X102118399Y-45118163D01*
X102118397Y-45118164D01*
X102081362Y-45131708D01*
X102081345Y-45131715D01*
X102081243Y-45131752D01*
X102044403Y-45147061D01*
X102007488Y-45164116D01*
X101969994Y-45182984D01*
X101931420Y-45203731D01*
X101931365Y-45203762D01*
X101931347Y-45203772D01*
X101891259Y-45226424D01*
X101849010Y-45251128D01*
X101804169Y-45277911D01*
X101756232Y-45306838D01*
X101711678Y-45333758D01*
X101702824Y-45335103D01*
X101698323Y-45332884D01*
X101563826Y-45225403D01*
X101308472Y-45021342D01*
X101304148Y-45013500D01*
X101306928Y-45004546D01*
X101633442Y-44627198D01*
X101641447Y-44623184D01*
X101646463Y-44623925D01*
G37*
%TD.AperFunction*%
%TD*%
%TA.AperFunction,Conductor*%
%TO.N,~{CS#}*%
G36*
X108646386Y-44425342D02*
G01*
X108650868Y-44433577D01*
X108693766Y-44930660D01*
X108691063Y-44939197D01*
X108686947Y-44942319D01*
X108630751Y-44967842D01*
X108630421Y-44967986D01*
X108571184Y-44992722D01*
X108570798Y-44992875D01*
X108515346Y-45013751D01*
X108514911Y-45013905D01*
X108462665Y-45031213D01*
X108462195Y-45031357D01*
X108412545Y-45045400D01*
X108412049Y-45045528D01*
X108364416Y-45056596D01*
X108363893Y-45056704D01*
X108322607Y-45064196D01*
X108317675Y-45065091D01*
X108317117Y-45065178D01*
X108271761Y-45071166D01*
X108271235Y-45071224D01*
X108226044Y-45075112D01*
X108225584Y-45075143D01*
X108211755Y-45075769D01*
X108180003Y-45077206D01*
X108179605Y-45077217D01*
X108136158Y-45077703D01*
X108133069Y-45077737D01*
X108132761Y-45077737D01*
X108129186Y-45077682D01*
X108084557Y-45076992D01*
X108084336Y-45076986D01*
X108034074Y-45075259D01*
X108033941Y-45075254D01*
X107980828Y-45072823D01*
X107980773Y-45072820D01*
X107924439Y-45069977D01*
X107864232Y-45067006D01*
X107799625Y-45064196D01*
X107730039Y-45061833D01*
X107654893Y-45060206D01*
X107585218Y-45059687D01*
X107576971Y-45056198D01*
X107573606Y-45047987D01*
X107573606Y-44867943D01*
X107577033Y-44859670D01*
X107585147Y-44856244D01*
X107622636Y-44855736D01*
X107622654Y-44855735D01*
X107622689Y-44855735D01*
X107622727Y-44855733D01*
X107622738Y-44855733D01*
X107653212Y-44854391D01*
X107669179Y-44853688D01*
X107713139Y-44850175D01*
X107713245Y-44850162D01*
X107713266Y-44850160D01*
X107754504Y-44845130D01*
X107754515Y-44845128D01*
X107754633Y-44845114D01*
X107754757Y-44845093D01*
X107754769Y-44845091D01*
X107793542Y-44838454D01*
X107793549Y-44838453D01*
X107793722Y-44838423D01*
X107793889Y-44838385D01*
X107793903Y-44838382D01*
X107814278Y-44833721D01*
X107830471Y-44830018D01*
X107864943Y-44819818D01*
X107897200Y-44807740D01*
X107927306Y-44793701D01*
X107955323Y-44777619D01*
X107981315Y-44759412D01*
X108005345Y-44738998D01*
X108027476Y-44716293D01*
X108047771Y-44691215D01*
X108047905Y-44691016D01*
X108066163Y-44663876D01*
X108066168Y-44663868D01*
X108066293Y-44663682D01*
X108083105Y-44633611D01*
X108098271Y-44600920D01*
X108111853Y-44565526D01*
X108123915Y-44527347D01*
X108132533Y-44493990D01*
X108137920Y-44486837D01*
X108142399Y-44485309D01*
X108637750Y-44422975D01*
X108646386Y-44425342D01*
G37*
%TD.AperFunction*%
%TD*%
%TA.AperFunction,Conductor*%
%TO.N,/IM2*%
G36*
X103590544Y-53874673D02*
G01*
X103662904Y-53944258D01*
X103865417Y-54139005D01*
X103950231Y-54220567D01*
X103953819Y-54228771D01*
X103950231Y-54237433D01*
X103831330Y-54351774D01*
X103590544Y-54583327D01*
X103582205Y-54586592D01*
X103577294Y-54585404D01*
X103530114Y-54562326D01*
X103504482Y-54549592D01*
X103479667Y-54537263D01*
X103479636Y-54537248D01*
X103432672Y-54513741D01*
X103388682Y-54491780D01*
X103347126Y-54471340D01*
X103307466Y-54452397D01*
X103269160Y-54434926D01*
X103262202Y-54431952D01*
X103231706Y-54418918D01*
X103231692Y-54418912D01*
X103231670Y-54418903D01*
X103194457Y-54404303D01*
X103194365Y-54404271D01*
X103194350Y-54404265D01*
X103181719Y-54399816D01*
X103156979Y-54391102D01*
X103118699Y-54379275D01*
X103118571Y-54379241D01*
X103118560Y-54379238D01*
X103079217Y-54368834D01*
X103079205Y-54368831D01*
X103079076Y-54368797D01*
X103037570Y-54359643D01*
X103037437Y-54359619D01*
X103037421Y-54359616D01*
X102993780Y-54351814D01*
X102993755Y-54351810D01*
X102993643Y-54351790D01*
X102946754Y-54345213D01*
X102919083Y-54342288D01*
X102896479Y-54339899D01*
X102896462Y-54339897D01*
X102896363Y-54339887D01*
X102896257Y-54339879D01*
X102841974Y-54335790D01*
X102841968Y-54335790D01*
X102841933Y-54335787D01*
X102841896Y-54335785D01*
X102841893Y-54335785D01*
X102782943Y-54332889D01*
X102782901Y-54332887D01*
X102750855Y-54332028D01*
X102718790Y-54331168D01*
X102705086Y-54331056D01*
X102660605Y-54330694D01*
X102652360Y-54327199D01*
X102649000Y-54318994D01*
X102649000Y-54139005D01*
X102652427Y-54130732D01*
X102660604Y-54127305D01*
X102718790Y-54126831D01*
X102750855Y-54125971D01*
X102782901Y-54125112D01*
X102782943Y-54125110D01*
X102841893Y-54122214D01*
X102841896Y-54122214D01*
X102841933Y-54122212D01*
X102841968Y-54122209D01*
X102841974Y-54122209D01*
X102896257Y-54118120D01*
X102896258Y-54118120D01*
X102896363Y-54118112D01*
X102896462Y-54118102D01*
X102896479Y-54118100D01*
X102919083Y-54115711D01*
X102946754Y-54112786D01*
X102993643Y-54106209D01*
X102993755Y-54106189D01*
X102993780Y-54106185D01*
X103037421Y-54098383D01*
X103037437Y-54098380D01*
X103037570Y-54098356D01*
X103079076Y-54089202D01*
X103079205Y-54089168D01*
X103079217Y-54089165D01*
X103118560Y-54078761D01*
X103118571Y-54078758D01*
X103118699Y-54078724D01*
X103156979Y-54066897D01*
X103181719Y-54058183D01*
X103194350Y-54053734D01*
X103194365Y-54053728D01*
X103194457Y-54053696D01*
X103231670Y-54039096D01*
X103231692Y-54039087D01*
X103231706Y-54039081D01*
X103269113Y-54023093D01*
X103269160Y-54023073D01*
X103279640Y-54018293D01*
X103307421Y-54005623D01*
X103307444Y-54005612D01*
X103307466Y-54005602D01*
X103347126Y-53986659D01*
X103388682Y-53966219D01*
X103432672Y-53944258D01*
X103479636Y-53920751D01*
X103479667Y-53920736D01*
X103530114Y-53895673D01*
X103530179Y-53895641D01*
X103577293Y-53872596D01*
X103586231Y-53872039D01*
X103590544Y-53874673D01*
G37*
%TD.AperFunction*%
%TD*%
%TA.AperFunction,Conductor*%
%TO.N,/IM2*%
G36*
X100719433Y-43369769D02*
G01*
X101065327Y-43729456D01*
X101068592Y-43737795D01*
X101067404Y-43742706D01*
X101044326Y-43789885D01*
X101019248Y-43840363D01*
X100995741Y-43887327D01*
X100973780Y-43931317D01*
X100953340Y-43972873D01*
X100934397Y-44012533D01*
X100916926Y-44050839D01*
X100900903Y-44088329D01*
X100886303Y-44125542D01*
X100873102Y-44163020D01*
X100861275Y-44201300D01*
X100850797Y-44240923D01*
X100841643Y-44282429D01*
X100833790Y-44326356D01*
X100827213Y-44373245D01*
X100821887Y-44423636D01*
X100821879Y-44423741D01*
X100821879Y-44423742D01*
X100817790Y-44478025D01*
X100817785Y-44478106D01*
X100814888Y-44537078D01*
X100813168Y-44601209D01*
X100812694Y-44659395D01*
X100809199Y-44667640D01*
X100800994Y-44671000D01*
X100621005Y-44671000D01*
X100612732Y-44667573D01*
X100609305Y-44659395D01*
X100608831Y-44601209D01*
X100607111Y-44537078D01*
X100604214Y-44478106D01*
X100604209Y-44478025D01*
X100600120Y-44423742D01*
X100600120Y-44423741D01*
X100600112Y-44423636D01*
X100594786Y-44373245D01*
X100588209Y-44326356D01*
X100580356Y-44282429D01*
X100571202Y-44240923D01*
X100560724Y-44201300D01*
X100548897Y-44163020D01*
X100535696Y-44125542D01*
X100521096Y-44088329D01*
X100505073Y-44050839D01*
X100487602Y-44012533D01*
X100468659Y-43972873D01*
X100448219Y-43931317D01*
X100426258Y-43887327D01*
X100402751Y-43840363D01*
X100377673Y-43789885D01*
X100354596Y-43742707D01*
X100354039Y-43733769D01*
X100356673Y-43729456D01*
X100702567Y-43369769D01*
X100710771Y-43366181D01*
X100719433Y-43369769D01*
G37*
%TD.AperFunction*%
%TD*%
%TA.AperFunction,Conductor*%
%TO.N,/IM1*%
G36*
X101099698Y-42411459D02*
G01*
X101207664Y-42413570D01*
X101215868Y-42417158D01*
X101218502Y-42421472D01*
X101235544Y-42471150D01*
X101235567Y-42471218D01*
X101253493Y-42524542D01*
X101253504Y-42524575D01*
X101270088Y-42574401D01*
X101270090Y-42574406D01*
X101285667Y-42621040D01*
X101300598Y-42664878D01*
X101315247Y-42706316D01*
X101329979Y-42745756D01*
X101345159Y-42783595D01*
X101361149Y-42820233D01*
X101378315Y-42856068D01*
X101378344Y-42856124D01*
X101378353Y-42856141D01*
X101389020Y-42876345D01*
X101397020Y-42891499D01*
X101417629Y-42926926D01*
X101417674Y-42926997D01*
X101417687Y-42927018D01*
X101440442Y-42962649D01*
X101440505Y-42962747D01*
X101440573Y-42962844D01*
X101461350Y-42992667D01*
X101466014Y-42999362D01*
X101466075Y-42999443D01*
X101466091Y-42999465D01*
X101494478Y-43037116D01*
X101494495Y-43037138D01*
X101494518Y-43037168D01*
X101526383Y-43076565D01*
X101561972Y-43117953D01*
X101601650Y-43161729D01*
X101645781Y-43208293D01*
X101645847Y-43208360D01*
X101686590Y-43249773D01*
X101689950Y-43258073D01*
X101686523Y-43266251D01*
X101559251Y-43393523D01*
X101550978Y-43396950D01*
X101542773Y-43393590D01*
X101501360Y-43352847D01*
X101501293Y-43352781D01*
X101454729Y-43308650D01*
X101410953Y-43268972D01*
X101369565Y-43233383D01*
X101330168Y-43201518D01*
X101330138Y-43201495D01*
X101330116Y-43201478D01*
X101292465Y-43173091D01*
X101292443Y-43173075D01*
X101292362Y-43173014D01*
X101292272Y-43172951D01*
X101292255Y-43172939D01*
X101273361Y-43159776D01*
X101255747Y-43147505D01*
X101255662Y-43147450D01*
X101255649Y-43147442D01*
X101220018Y-43124687D01*
X101219997Y-43124674D01*
X101219926Y-43124629D01*
X101184499Y-43104020D01*
X101169345Y-43096020D01*
X101149141Y-43085353D01*
X101149124Y-43085344D01*
X101149068Y-43085315D01*
X101113233Y-43068149D01*
X101105427Y-43064742D01*
X101076667Y-43052190D01*
X101076643Y-43052180D01*
X101076595Y-43052159D01*
X101076549Y-43052141D01*
X101076531Y-43052133D01*
X101038816Y-43037003D01*
X101038810Y-43037001D01*
X101038756Y-43036979D01*
X101038710Y-43036962D01*
X101038677Y-43036949D01*
X100999354Y-43022261D01*
X100999339Y-43022256D01*
X100999316Y-43022247D01*
X100957878Y-43007598D01*
X100914040Y-42992667D01*
X100883773Y-42982557D01*
X100883003Y-42982269D01*
X100868475Y-42976251D01*
X100868473Y-42976250D01*
X100867762Y-42975956D01*
X100867003Y-42975856D01*
X100866999Y-42975855D01*
X100862643Y-42975282D01*
X100860475Y-42974783D01*
X100817575Y-42960504D01*
X100817542Y-42960493D01*
X100764218Y-42942567D01*
X100764150Y-42942544D01*
X100714472Y-42925502D01*
X100707758Y-42919576D01*
X100706570Y-42914664D01*
X100706116Y-42891413D01*
X100701687Y-42664878D01*
X100696817Y-42415744D01*
X100700082Y-42407405D01*
X100708744Y-42403817D01*
X101099698Y-42411459D01*
G37*
%TD.AperFunction*%
%TD*%
%TA.AperFunction,Conductor*%
%TO.N,/IM1*%
G36*
X110321544Y-40158673D02*
G01*
X110393904Y-40228258D01*
X110596417Y-40423005D01*
X110681231Y-40504567D01*
X110684819Y-40512771D01*
X110681231Y-40521433D01*
X110562330Y-40635774D01*
X110321544Y-40867327D01*
X110313205Y-40870592D01*
X110308294Y-40869404D01*
X110261114Y-40846326D01*
X110235482Y-40833592D01*
X110210667Y-40821263D01*
X110210636Y-40821248D01*
X110163672Y-40797741D01*
X110119682Y-40775780D01*
X110078126Y-40755340D01*
X110038466Y-40736397D01*
X110000160Y-40718926D01*
X109993202Y-40715952D01*
X109962706Y-40702918D01*
X109962692Y-40702912D01*
X109962670Y-40702903D01*
X109925457Y-40688303D01*
X109925365Y-40688271D01*
X109925350Y-40688265D01*
X109912719Y-40683816D01*
X109887979Y-40675102D01*
X109849699Y-40663275D01*
X109849571Y-40663241D01*
X109849560Y-40663238D01*
X109810217Y-40652834D01*
X109810205Y-40652831D01*
X109810076Y-40652797D01*
X109768570Y-40643643D01*
X109768437Y-40643619D01*
X109768421Y-40643616D01*
X109724780Y-40635814D01*
X109724755Y-40635810D01*
X109724643Y-40635790D01*
X109677754Y-40629213D01*
X109650083Y-40626288D01*
X109627479Y-40623899D01*
X109627462Y-40623897D01*
X109627363Y-40623887D01*
X109627257Y-40623879D01*
X109572974Y-40619790D01*
X109572968Y-40619790D01*
X109572933Y-40619787D01*
X109572896Y-40619785D01*
X109572893Y-40619785D01*
X109513943Y-40616889D01*
X109513901Y-40616887D01*
X109481855Y-40616028D01*
X109449790Y-40615168D01*
X109436086Y-40615056D01*
X109391605Y-40614694D01*
X109383360Y-40611199D01*
X109380000Y-40602994D01*
X109380000Y-40423005D01*
X109383427Y-40414732D01*
X109391604Y-40411305D01*
X109449790Y-40410831D01*
X109481855Y-40409971D01*
X109513901Y-40409112D01*
X109513943Y-40409110D01*
X109572893Y-40406214D01*
X109572896Y-40406214D01*
X109572933Y-40406212D01*
X109572968Y-40406209D01*
X109572974Y-40406209D01*
X109627257Y-40402120D01*
X109627258Y-40402120D01*
X109627363Y-40402112D01*
X109627462Y-40402102D01*
X109627479Y-40402100D01*
X109650083Y-40399711D01*
X109677754Y-40396786D01*
X109724643Y-40390209D01*
X109724755Y-40390189D01*
X109724780Y-40390185D01*
X109768421Y-40382383D01*
X109768437Y-40382380D01*
X109768570Y-40382356D01*
X109810076Y-40373202D01*
X109810205Y-40373168D01*
X109810217Y-40373165D01*
X109849560Y-40362761D01*
X109849571Y-40362758D01*
X109849699Y-40362724D01*
X109887979Y-40350897D01*
X109912719Y-40342183D01*
X109925350Y-40337734D01*
X109925365Y-40337728D01*
X109925457Y-40337696D01*
X109962670Y-40323096D01*
X109962692Y-40323087D01*
X109962706Y-40323081D01*
X110000113Y-40307093D01*
X110000160Y-40307073D01*
X110010640Y-40302293D01*
X110038421Y-40289623D01*
X110038444Y-40289612D01*
X110038466Y-40289602D01*
X110078126Y-40270659D01*
X110119682Y-40250219D01*
X110163672Y-40228258D01*
X110210636Y-40204751D01*
X110210667Y-40204736D01*
X110261114Y-40179673D01*
X110261179Y-40179641D01*
X110308293Y-40156596D01*
X110317231Y-40156039D01*
X110321544Y-40158673D01*
G37*
%TD.AperFunction*%
%TD*%
%TA.AperFunction,Conductor*%
%TO.N,GND*%
G36*
X125498684Y-33400213D02*
G01*
X125535229Y-33450513D01*
X125535229Y-33512687D01*
X125498684Y-33562987D01*
X125480230Y-33573609D01*
X125293628Y-33656105D01*
X125293623Y-33656108D01*
X125290858Y-33657330D01*
X125288256Y-33658878D01*
X125266723Y-33671689D01*
X125018174Y-33819559D01*
X124766955Y-34013373D01*
X124764793Y-34015501D01*
X124764791Y-34015503D01*
X124748409Y-34031630D01*
X124540840Y-34235964D01*
X124343104Y-34484108D01*
X124341521Y-34486677D01*
X124341519Y-34486679D01*
X124329130Y-34506778D01*
X124176611Y-34754210D01*
X124175343Y-34756961D01*
X124175339Y-34756968D01*
X124165363Y-34778608D01*
X124043773Y-35042357D01*
X124032555Y-35077193D01*
X123962066Y-35296086D01*
X123946515Y-35344376D01*
X123916405Y-35500000D01*
X123888138Y-35646104D01*
X123886244Y-35655892D01*
X123874429Y-35822764D01*
X123867647Y-35918560D01*
X123863835Y-35972393D01*
X123879611Y-36289294D01*
X123907140Y-36449506D01*
X123926456Y-36561915D01*
X123933344Y-36602004D01*
X123957366Y-36682327D01*
X123983739Y-36770512D01*
X124024256Y-36905993D01*
X124025462Y-36908761D01*
X124025465Y-36908768D01*
X124061934Y-36992440D01*
X124151031Y-37196860D01*
X124152559Y-37199459D01*
X124152564Y-37199469D01*
X124228129Y-37328009D01*
X124311830Y-37470389D01*
X124313670Y-37472800D01*
X124313672Y-37472803D01*
X124416913Y-37608081D01*
X124504326Y-37722619D01*
X124506429Y-37724778D01*
X124506437Y-37724787D01*
X124619557Y-37840907D01*
X124725730Y-37949897D01*
X124972835Y-38148930D01*
X125242062Y-38316834D01*
X125244808Y-38318118D01*
X125244811Y-38318119D01*
X125420179Y-38400081D01*
X125529510Y-38451179D01*
X125532383Y-38452121D01*
X125532391Y-38452124D01*
X125828150Y-38549079D01*
X125828153Y-38549080D01*
X125831015Y-38550018D01*
X126142212Y-38611918D01*
X126458591Y-38635985D01*
X126461624Y-38635850D01*
X126461630Y-38635850D01*
X126772545Y-38622003D01*
X126772550Y-38622002D01*
X126775569Y-38621868D01*
X126778547Y-38621372D01*
X126778550Y-38621372D01*
X127085579Y-38570269D01*
X127085584Y-38570268D01*
X127088557Y-38569773D01*
X127091447Y-38568925D01*
X127091452Y-38568924D01*
X127263141Y-38518555D01*
X127393018Y-38480453D01*
X127684544Y-38355204D01*
X127958912Y-38195839D01*
X127961335Y-38194010D01*
X128209737Y-38006485D01*
X128209741Y-38006482D01*
X128212146Y-38004666D01*
X128440580Y-37784455D01*
X128640904Y-37538396D01*
X128694066Y-37454140D01*
X128767278Y-37338105D01*
X128810216Y-37270052D01*
X128889594Y-37102505D01*
X128927487Y-37022523D01*
X128970166Y-36977311D01*
X129031270Y-36965821D01*
X129087457Y-36992440D01*
X129117267Y-37047002D01*
X129119000Y-37065594D01*
X129119000Y-57938842D01*
X129099787Y-57997973D01*
X129049487Y-58034518D01*
X128987313Y-58034518D01*
X128937013Y-57997973D01*
X128926605Y-57980000D01*
X128837548Y-57781376D01*
X128836307Y-57778608D01*
X128672652Y-57506778D01*
X128477525Y-57256577D01*
X128253753Y-57031630D01*
X128211035Y-56997954D01*
X128006957Y-56837071D01*
X128006952Y-56837068D01*
X128004578Y-56835196D01*
X128001999Y-56833625D01*
X128001992Y-56833620D01*
X127736183Y-56671689D01*
X127733608Y-56670120D01*
X127730869Y-56668875D01*
X127730864Y-56668872D01*
X127447518Y-56540043D01*
X127444769Y-56538793D01*
X127142245Y-56443117D01*
X127139279Y-56442559D01*
X127139270Y-56442557D01*
X126833391Y-56385037D01*
X126833387Y-56385036D01*
X126830417Y-56384478D01*
X126827408Y-56384281D01*
X126827402Y-56384280D01*
X126516828Y-56363924D01*
X126516825Y-56363924D01*
X126513804Y-56363726D01*
X126383231Y-56370912D01*
X126200018Y-56380994D01*
X126200012Y-56380995D01*
X126196990Y-56381161D01*
X125884566Y-56436531D01*
X125881667Y-56437414D01*
X125881665Y-56437415D01*
X125833171Y-56452195D01*
X125581056Y-56529034D01*
X125578278Y-56530262D01*
X125578273Y-56530264D01*
X125293628Y-56656105D01*
X125293623Y-56656108D01*
X125290858Y-56657330D01*
X125288256Y-56658878D01*
X125266723Y-56671689D01*
X125018174Y-56819559D01*
X124766955Y-57013373D01*
X124764793Y-57015501D01*
X124764791Y-57015503D01*
X124748409Y-57031630D01*
X124540840Y-57235964D01*
X124343104Y-57484108D01*
X124341521Y-57486677D01*
X124341519Y-57486679D01*
X124329130Y-57506778D01*
X124176611Y-57754210D01*
X124175343Y-57756961D01*
X124175339Y-57756968D01*
X124165363Y-57778608D01*
X124043773Y-58042357D01*
X123946515Y-58344376D01*
X123886244Y-58655892D01*
X123863835Y-58972393D01*
X123879611Y-59289294D01*
X123933344Y-59602004D01*
X124024256Y-59905993D01*
X124151031Y-60196860D01*
X124152559Y-60199459D01*
X124152564Y-60199469D01*
X124256967Y-60377064D01*
X124311830Y-60470389D01*
X124313670Y-60472800D01*
X124313672Y-60472803D01*
X124416913Y-60608081D01*
X124504326Y-60722619D01*
X124506429Y-60724778D01*
X124506437Y-60724787D01*
X124619557Y-60840907D01*
X124725730Y-60949897D01*
X124972835Y-61148930D01*
X125242062Y-61316834D01*
X125244808Y-61318118D01*
X125244811Y-61318119D01*
X125478339Y-61427263D01*
X125523773Y-61469705D01*
X125535583Y-61530747D01*
X125509258Y-61587073D01*
X125454853Y-61617168D01*
X125435744Y-61619000D01*
X93559542Y-61619000D01*
X93500411Y-61599787D01*
X93463866Y-61549487D01*
X93463866Y-61487313D01*
X93500411Y-61437013D01*
X93519831Y-61425970D01*
X93681760Y-61356400D01*
X93684544Y-61355204D01*
X93958912Y-61195839D01*
X94018923Y-61150535D01*
X94209737Y-61006485D01*
X94209741Y-61006482D01*
X94212146Y-61004666D01*
X94440580Y-60784455D01*
X94640904Y-60538396D01*
X94810216Y-60270052D01*
X94946064Y-59983311D01*
X95039278Y-59703914D01*
X95045521Y-59685203D01*
X95045523Y-59685195D01*
X95046480Y-59682327D01*
X95110009Y-59371459D01*
X95135732Y-59055211D01*
X95136310Y-59000000D01*
X95117216Y-58683282D01*
X95112767Y-58658918D01*
X95060755Y-58374130D01*
X95060755Y-58374128D01*
X95060211Y-58371152D01*
X94966120Y-58068131D01*
X94955861Y-58045249D01*
X94837548Y-57781376D01*
X94836307Y-57778608D01*
X94672652Y-57506778D01*
X94477525Y-57256577D01*
X94253753Y-57031630D01*
X94211035Y-56997954D01*
X94006957Y-56837071D01*
X94006952Y-56837068D01*
X94004578Y-56835196D01*
X94001999Y-56833625D01*
X94001992Y-56833620D01*
X93736183Y-56671689D01*
X93733608Y-56670120D01*
X93730869Y-56668875D01*
X93730864Y-56668872D01*
X93447518Y-56540043D01*
X93444769Y-56538793D01*
X93142245Y-56443117D01*
X93139279Y-56442559D01*
X93139270Y-56442557D01*
X92833391Y-56385037D01*
X92833387Y-56385036D01*
X92830417Y-56384478D01*
X92827408Y-56384281D01*
X92827402Y-56384280D01*
X92516828Y-56363924D01*
X92516825Y-56363924D01*
X92513804Y-56363726D01*
X92383231Y-56370912D01*
X92200018Y-56380994D01*
X92200012Y-56380995D01*
X92196990Y-56381161D01*
X91884566Y-56436531D01*
X91881667Y-56437414D01*
X91881665Y-56437415D01*
X91833171Y-56452195D01*
X91581056Y-56529034D01*
X91578278Y-56530262D01*
X91578273Y-56530264D01*
X91293628Y-56656105D01*
X91293623Y-56656108D01*
X91290858Y-56657330D01*
X91288256Y-56658878D01*
X91266723Y-56671689D01*
X91018174Y-56819559D01*
X90766955Y-57013373D01*
X90764793Y-57015501D01*
X90764791Y-57015503D01*
X90748409Y-57031630D01*
X90540840Y-57235964D01*
X90343104Y-57484108D01*
X90341521Y-57486677D01*
X90341519Y-57486679D01*
X90329130Y-57506778D01*
X90176611Y-57754210D01*
X90175343Y-57756961D01*
X90175339Y-57756968D01*
X90072959Y-57979048D01*
X90030755Y-58024704D01*
X89969776Y-58036834D01*
X89913313Y-58010804D01*
X89882933Y-57956557D01*
X89881000Y-57936931D01*
X89881000Y-56521315D01*
X89881394Y-56512425D01*
X89884142Y-56481445D01*
X89884842Y-56473559D01*
X89882401Y-56462927D01*
X89879852Y-56441187D01*
X89879258Y-56363893D01*
X89878121Y-56216213D01*
X89878772Y-56203989D01*
X89907413Y-55954074D01*
X89909542Y-55942033D01*
X89968342Y-55697428D01*
X89971915Y-55685748D01*
X90059994Y-55450112D01*
X90064971Y-55438927D01*
X90181019Y-55215757D01*
X90187319Y-55205256D01*
X90329635Y-54997823D01*
X90337155Y-54988178D01*
X90503610Y-54799584D01*
X90512257Y-54790913D01*
X90534769Y-54770934D01*
X90700394Y-54623941D01*
X90710031Y-54616385D01*
X90760396Y-54581627D01*
X90917060Y-54473509D01*
X90927533Y-54467186D01*
X91126870Y-54362837D01*
X91147241Y-54354859D01*
X91157772Y-54352009D01*
X91164402Y-54347680D01*
X91168351Y-54345910D01*
X91171170Y-54344326D01*
X91360287Y-54254096D01*
X91668121Y-54107224D01*
X91700191Y-54091923D01*
X91700192Y-54091922D01*
X91701285Y-54091401D01*
X92232301Y-53806253D01*
X92749141Y-53496150D01*
X92828498Y-53443241D01*
X93172787Y-53213694D01*
X93250632Y-53161793D01*
X93251596Y-53161081D01*
X93251607Y-53161074D01*
X93584631Y-52915359D01*
X93723273Y-52813065D01*
X93725990Y-52811327D01*
X93729412Y-52808674D01*
X93736350Y-52804862D01*
X93741771Y-52799092D01*
X93748026Y-52794243D01*
X93748240Y-52794519D01*
X93752982Y-52790204D01*
X93759963Y-52785696D01*
X93765111Y-52779166D01*
X93765113Y-52779164D01*
X93786488Y-52752051D01*
X93792173Y-52745448D01*
X93813570Y-52722674D01*
X93813570Y-52722673D01*
X93818990Y-52716905D01*
X93822362Y-52709745D01*
X93826359Y-52703866D01*
X93833223Y-52692766D01*
X93833340Y-52692617D01*
X93838489Y-52686086D01*
X93851411Y-52649290D01*
X93855313Y-52639766D01*
X93867033Y-52614877D01*
X93867034Y-52614875D01*
X93870405Y-52607715D01*
X93871539Y-52598759D01*
X93876425Y-52578061D01*
X93878419Y-52572384D01*
X93878420Y-52572380D01*
X93880516Y-52566411D01*
X93881000Y-52560823D01*
X93881000Y-52530358D01*
X93881797Y-52517724D01*
X93884568Y-52495838D01*
X93884568Y-52495836D01*
X93885562Y-52487983D01*
X93882777Y-52473363D01*
X93881000Y-52454538D01*
X93881000Y-42545462D01*
X93882777Y-42526637D01*
X93884081Y-42519794D01*
X93884081Y-42519791D01*
X93885562Y-42512017D01*
X93881797Y-42482276D01*
X93881441Y-42476628D01*
X93881342Y-42476636D01*
X93881000Y-42472496D01*
X93881000Y-42468351D01*
X93877290Y-42446062D01*
X93876722Y-42442178D01*
X93871401Y-42400147D01*
X93871400Y-42400142D01*
X93870405Y-42392285D01*
X93867842Y-42386843D01*
X93867341Y-42384641D01*
X93866807Y-42383080D01*
X93865442Y-42374881D01*
X93841354Y-42330237D01*
X93838875Y-42325324D01*
X93822364Y-42290260D01*
X93822364Y-42290259D01*
X93818990Y-42283095D01*
X93813569Y-42277324D01*
X93812762Y-42276138D01*
X93810169Y-42271871D01*
X93809160Y-42270570D01*
X93805212Y-42263254D01*
X93770827Y-42231469D01*
X93765798Y-42226481D01*
X93741771Y-42200907D01*
X93741768Y-42200905D01*
X93736350Y-42195138D01*
X93729414Y-42191327D01*
X93723154Y-42186474D01*
X93723362Y-42186205D01*
X93718177Y-42182799D01*
X93712070Y-42177154D01*
X93709455Y-42175998D01*
X93707723Y-42173836D01*
X93706946Y-42174889D01*
X93251607Y-41838926D01*
X93251596Y-41838919D01*
X93250632Y-41838207D01*
X92749141Y-41503850D01*
X92232301Y-41193747D01*
X91701285Y-40908599D01*
X91171168Y-40655673D01*
X91168351Y-40654090D01*
X91164402Y-40652320D01*
X91157772Y-40647991D01*
X91147241Y-40645141D01*
X91126870Y-40637163D01*
X90927533Y-40532814D01*
X90917060Y-40526491D01*
X90710031Y-40383615D01*
X90700394Y-40376059D01*
X90512257Y-40209087D01*
X90503610Y-40200416D01*
X90492192Y-40187479D01*
X90337155Y-40011822D01*
X90329635Y-40002177D01*
X90187318Y-39794742D01*
X90181019Y-39784243D01*
X90160516Y-39744813D01*
X90083761Y-39597208D01*
X98800776Y-39597208D01*
X98801250Y-39603034D01*
X98805169Y-39651216D01*
X98805500Y-39659372D01*
X98805500Y-39668525D01*
X98805840Y-39671439D01*
X98808857Y-39697325D01*
X98809203Y-39700816D01*
X98815191Y-39774426D01*
X98816992Y-39779985D01*
X98818137Y-39785716D01*
X98818012Y-39785741D01*
X98818754Y-39789144D01*
X98818878Y-39789115D01*
X98820222Y-39794803D01*
X98820899Y-39800607D01*
X98822892Y-39806097D01*
X98822892Y-39806098D01*
X98846087Y-39869998D01*
X98847228Y-39873320D01*
X98869987Y-39943575D01*
X98873022Y-39948576D01*
X98875452Y-39953884D01*
X98875336Y-39953937D01*
X98876843Y-39957081D01*
X98876956Y-39957024D01*
X98879573Y-39962251D01*
X98881566Y-39967741D01*
X98884768Y-39972625D01*
X98884770Y-39972629D01*
X98922050Y-40029491D01*
X98923911Y-40032439D01*
X98930453Y-40043220D01*
X98956590Y-40086291D01*
X98962227Y-40095581D01*
X98965193Y-40098939D01*
X98969667Y-40104005D01*
X98969542Y-40104115D01*
X98971949Y-40107191D01*
X98972101Y-40107064D01*
X98975850Y-40111547D01*
X98979054Y-40116435D01*
X98983296Y-40120454D01*
X98983299Y-40120457D01*
X99035806Y-40170197D01*
X99037757Y-40172095D01*
X100535630Y-41669968D01*
X100563856Y-41725366D01*
X100554130Y-41786774D01*
X100507565Y-41831899D01*
X100503148Y-41833403D01*
X100353816Y-41925273D01*
X100349804Y-41929202D01*
X100349800Y-41929205D01*
X100235830Y-42040814D01*
X100228549Y-42047944D01*
X100133572Y-42195319D01*
X100073606Y-42360074D01*
X100072902Y-42365649D01*
X100072901Y-42365652D01*
X100052565Y-42526637D01*
X100051632Y-42534020D01*
X100068741Y-42708511D01*
X100124083Y-42874876D01*
X100126997Y-42879687D01*
X100126998Y-42879690D01*
X100146265Y-42911503D01*
X100160463Y-42972034D01*
X100136370Y-43029351D01*
X100130602Y-43035493D01*
X100101549Y-43063944D01*
X100006572Y-43211319D01*
X99946606Y-43376074D01*
X99924632Y-43550020D01*
X99941741Y-43724511D01*
X99997083Y-43890876D01*
X100015397Y-43921115D01*
X100025169Y-43937251D01*
X100029487Y-43945160D01*
X100033972Y-43954329D01*
X100035423Y-43957295D01*
X100036462Y-43959402D01*
X100061540Y-44009880D01*
X100062047Y-44010896D01*
X100085376Y-44057505D01*
X100098939Y-44084673D01*
X100106677Y-44100173D01*
X100106940Y-44100704D01*
X100125560Y-44138559D01*
X100126066Y-44139604D01*
X100141957Y-44172875D01*
X100142709Y-44174484D01*
X100156045Y-44203722D01*
X100157012Y-44205912D01*
X100161645Y-44216753D01*
X100167912Y-44231417D01*
X100169054Y-44234205D01*
X100177911Y-44256778D01*
X100179148Y-44260101D01*
X100186417Y-44280738D01*
X100187648Y-44284465D01*
X100193775Y-44304297D01*
X100194914Y-44308269D01*
X100200310Y-44328671D01*
X100201293Y-44332729D01*
X100206214Y-44355043D01*
X100207005Y-44359006D01*
X100211566Y-44384521D01*
X100212161Y-44388249D01*
X100216338Y-44418029D01*
X100216756Y-44421427D01*
X100220465Y-44456518D01*
X100220730Y-44459454D01*
X100221894Y-44474897D01*
X100223818Y-44500437D01*
X100223981Y-44503059D01*
X100226307Y-44550414D01*
X100226392Y-44552652D01*
X100227848Y-44606936D01*
X100227881Y-44608836D01*
X100227897Y-44610855D01*
X100227900Y-44611652D01*
X100227900Y-53020612D01*
X100226548Y-53032717D01*
X100226661Y-53032726D01*
X100226087Y-53039864D01*
X100224504Y-53046858D01*
X100224948Y-53054013D01*
X100227707Y-53098484D01*
X100227900Y-53104713D01*
X100227900Y-53120689D01*
X100228408Y-53124236D01*
X100228408Y-53124237D01*
X100229417Y-53131282D01*
X100230240Y-53139313D01*
X100233073Y-53184974D01*
X100235506Y-53191714D01*
X100235507Y-53191717D01*
X100236259Y-53193801D01*
X100241219Y-53213691D01*
X100242550Y-53222984D01*
X100245516Y-53229508D01*
X100245517Y-53229511D01*
X100261483Y-53264626D01*
X100264526Y-53272100D01*
X100280062Y-53315134D01*
X100285598Y-53322712D01*
X100295941Y-53340413D01*
X100299826Y-53348957D01*
X100325626Y-53378899D01*
X100329689Y-53383614D01*
X100334711Y-53389940D01*
X100340482Y-53397840D01*
X100342782Y-53400988D01*
X100353707Y-53411913D01*
X100358783Y-53417380D01*
X100385479Y-53448363D01*
X100385482Y-53448366D01*
X100390156Y-53453790D01*
X100396675Y-53458015D01*
X100413091Y-53471297D01*
X100977782Y-54035988D01*
X101466161Y-54524368D01*
X101473763Y-54533882D01*
X101473849Y-54533808D01*
X101478493Y-54539264D01*
X101482318Y-54545327D01*
X101487691Y-54550072D01*
X101521083Y-54579563D01*
X101525624Y-54583831D01*
X101536925Y-54595132D01*
X101539790Y-54597279D01*
X101539792Y-54597281D01*
X101545497Y-54601557D01*
X101551745Y-54606643D01*
X101586040Y-54636931D01*
X101592522Y-54639974D01*
X101592526Y-54639977D01*
X101594538Y-54640921D01*
X101612116Y-54651483D01*
X101619618Y-54657106D01*
X101626328Y-54659622D01*
X101626329Y-54659622D01*
X101662444Y-54673161D01*
X101669884Y-54676296D01*
X101711303Y-54695742D01*
X101718382Y-54696844D01*
X101718384Y-54696845D01*
X101720575Y-54697186D01*
X101740413Y-54702390D01*
X101749194Y-54705682D01*
X101794797Y-54709071D01*
X101802816Y-54709992D01*
X101812520Y-54711503D01*
X101812533Y-54711504D01*
X101816361Y-54712100D01*
X101831834Y-54712100D01*
X101839289Y-54712377D01*
X101880045Y-54715406D01*
X101880047Y-54715406D01*
X101887195Y-54715937D01*
X101894785Y-54714317D01*
X101915785Y-54712100D01*
X102708478Y-54712100D01*
X102709279Y-54712103D01*
X102710118Y-54712110D01*
X102711190Y-54712118D01*
X102713013Y-54712150D01*
X102728566Y-54712567D01*
X102740627Y-54712891D01*
X102740646Y-54712891D01*
X102759676Y-54713401D01*
X102767321Y-54713606D01*
X102769560Y-54713691D01*
X102784811Y-54714440D01*
X102816968Y-54716020D01*
X102819533Y-54716179D01*
X102860557Y-54719270D01*
X102863546Y-54719541D01*
X102879036Y-54721179D01*
X102879036Y-54721178D01*
X102888657Y-54722195D01*
X102898572Y-54723243D01*
X102901935Y-54723656D01*
X102931765Y-54727840D01*
X102935465Y-54728430D01*
X102961015Y-54732998D01*
X102964951Y-54733783D01*
X102987295Y-54738712D01*
X102991300Y-54739683D01*
X103011722Y-54745082D01*
X103015688Y-54746219D01*
X103035548Y-54752355D01*
X103039272Y-54753586D01*
X103055140Y-54759175D01*
X103055145Y-54759177D01*
X103059883Y-54760846D01*
X103063200Y-54762080D01*
X103085768Y-54770934D01*
X103088564Y-54772080D01*
X103112412Y-54782273D01*
X103112431Y-54782280D01*
X103112465Y-54782295D01*
X103114114Y-54783000D01*
X103116208Y-54783923D01*
X103145584Y-54797322D01*
X103147105Y-54798032D01*
X103180396Y-54813933D01*
X103181440Y-54814439D01*
X103219295Y-54833059D01*
X103219761Y-54833290D01*
X103262494Y-54854623D01*
X103308988Y-54877895D01*
X103309255Y-54878027D01*
X103309803Y-54878297D01*
X103310135Y-54878485D01*
X103310143Y-54878470D01*
X103334958Y-54890799D01*
X103334967Y-54890804D01*
X103335123Y-54890882D01*
X103360450Y-54903464D01*
X103360599Y-54903538D01*
X103360735Y-54903605D01*
X103362703Y-54904575D01*
X103362703Y-54904576D01*
X103373374Y-54910661D01*
X103404410Y-54930970D01*
X103409679Y-54932930D01*
X103409682Y-54932931D01*
X103563474Y-54990125D01*
X103568742Y-54992084D01*
X103574312Y-54992827D01*
X103574315Y-54992828D01*
X103736953Y-55014529D01*
X103736954Y-55014529D01*
X103742530Y-55015273D01*
X103829833Y-55007328D01*
X103911535Y-54999892D01*
X103911536Y-54999892D01*
X103917137Y-54999382D01*
X104083884Y-54945203D01*
X104088717Y-54942322D01*
X104229655Y-54858306D01*
X104229657Y-54858304D01*
X104234484Y-54855427D01*
X104333804Y-54760846D01*
X104357382Y-54738393D01*
X104357383Y-54738392D01*
X104361452Y-54734517D01*
X104370315Y-54721178D01*
X104411212Y-54659622D01*
X104458477Y-54588482D01*
X104520737Y-54424581D01*
X104529415Y-54362838D01*
X104544697Y-54254096D01*
X104545138Y-54250959D01*
X104545445Y-54229000D01*
X104525901Y-54054764D01*
X104505310Y-53995635D01*
X104470093Y-53894502D01*
X104470091Y-53894498D01*
X104468242Y-53889188D01*
X104375332Y-53740501D01*
X104354269Y-53719290D01*
X104283464Y-53647991D01*
X104251789Y-53616094D01*
X104231675Y-53603329D01*
X104108505Y-53525162D01*
X104108502Y-53525160D01*
X104103755Y-53522148D01*
X104098461Y-53520263D01*
X104098457Y-53520261D01*
X103943884Y-53465221D01*
X103943885Y-53465221D01*
X103938585Y-53463334D01*
X103764490Y-53442574D01*
X103758895Y-53443162D01*
X103758892Y-53443162D01*
X103595713Y-53460313D01*
X103595710Y-53460314D01*
X103590122Y-53460901D01*
X103584800Y-53462713D01*
X103584799Y-53462713D01*
X103429470Y-53515591D01*
X103429468Y-53515592D01*
X103424148Y-53517403D01*
X103380967Y-53543969D01*
X103372464Y-53548649D01*
X103362773Y-53553389D01*
X103361897Y-53553819D01*
X103361832Y-53553851D01*
X103360595Y-53554463D01*
X103310148Y-53579526D01*
X103310122Y-53579474D01*
X103309807Y-53579701D01*
X103309103Y-53580047D01*
X103262494Y-53603376D01*
X103219761Y-53624709D01*
X103219295Y-53624940D01*
X103181403Y-53643578D01*
X103180360Y-53644083D01*
X103147112Y-53659964D01*
X103145518Y-53660709D01*
X103121544Y-53671642D01*
X103121539Y-53671645D01*
X103116350Y-53674012D01*
X103114136Y-53674990D01*
X103088561Y-53685921D01*
X103085766Y-53687066D01*
X103063216Y-53695913D01*
X103059914Y-53697142D01*
X103055142Y-53698823D01*
X103055140Y-53698824D01*
X103039272Y-53704413D01*
X103035548Y-53705644D01*
X103015688Y-53711780D01*
X103011722Y-53712917D01*
X102991300Y-53718316D01*
X102987295Y-53719287D01*
X102964951Y-53724216D01*
X102961015Y-53725001D01*
X102935465Y-53729569D01*
X102931765Y-53730159D01*
X102901935Y-53734343D01*
X102898572Y-53734756D01*
X102888657Y-53735804D01*
X102879036Y-53736821D01*
X102879036Y-53736820D01*
X102863546Y-53738458D01*
X102860557Y-53738729D01*
X102819533Y-53741820D01*
X102816968Y-53741979D01*
X102785433Y-53743528D01*
X102769560Y-53744308D01*
X102767321Y-53744393D01*
X102759676Y-53744598D01*
X102740646Y-53745108D01*
X102740627Y-53745108D01*
X102728580Y-53745431D01*
X102713014Y-53745849D01*
X102711189Y-53745881D01*
X102709988Y-53745890D01*
X102709145Y-53745897D01*
X102708347Y-53745900D01*
X102095777Y-53745900D01*
X102036646Y-53726687D01*
X102024642Y-53716435D01*
X101663074Y-53354868D01*
X101223565Y-52915359D01*
X101195339Y-52859961D01*
X101194100Y-52844224D01*
X101194100Y-47317271D01*
X101213313Y-47258140D01*
X101263613Y-47221595D01*
X101308005Y-47217555D01*
X101450953Y-47236629D01*
X101450954Y-47236629D01*
X101456530Y-47237373D01*
X101543834Y-47229427D01*
X101625535Y-47221992D01*
X101625536Y-47221992D01*
X101631137Y-47221482D01*
X101797884Y-47167303D01*
X101948484Y-47077527D01*
X101952551Y-47073654D01*
X101952555Y-47073651D01*
X101992909Y-47035222D01*
X101998627Y-47030176D01*
X102010414Y-47020547D01*
X102011224Y-47019894D01*
X102047598Y-46990861D01*
X102048847Y-46989880D01*
X102080827Y-46965202D01*
X102082587Y-46963876D01*
X102110245Y-46943499D01*
X102112583Y-46941827D01*
X102136110Y-46925511D01*
X102139039Y-46923555D01*
X102158572Y-46911006D01*
X102162155Y-46908808D01*
X102178158Y-46899448D01*
X102182358Y-46897125D01*
X102195458Y-46890283D01*
X102200181Y-46887971D01*
X102211367Y-46882856D01*
X102216479Y-46880688D01*
X102224564Y-46877519D01*
X102226991Y-46876568D01*
X102232283Y-46874662D01*
X102243654Y-46870926D01*
X102248918Y-46869355D01*
X102256482Y-46867320D01*
X102262516Y-46865696D01*
X102267489Y-46864493D01*
X102284742Y-46860785D01*
X102289297Y-46859916D01*
X102299002Y-46858295D01*
X102299010Y-46858293D01*
X102305815Y-46857157D01*
X102311202Y-46856258D01*
X102315232Y-46855669D01*
X102342672Y-46852226D01*
X102346079Y-46851858D01*
X102379529Y-46848830D01*
X102382351Y-46848616D01*
X102422152Y-46846166D01*
X102424438Y-46846052D01*
X102457263Y-46844796D01*
X102470636Y-46844285D01*
X102472485Y-46844231D01*
X102517834Y-46843331D01*
X102519830Y-46843311D01*
X106332194Y-46843311D01*
X106334062Y-46843328D01*
X106353598Y-46843691D01*
X106353604Y-46843691D01*
X106371095Y-46844015D01*
X106372904Y-46844066D01*
X106397548Y-46844973D01*
X106397565Y-46844974D01*
X106415142Y-46845620D01*
X106417500Y-46845734D01*
X106448614Y-46847620D01*
X106453482Y-46847915D01*
X106456500Y-46848144D01*
X106486150Y-46850839D01*
X106489847Y-46851244D01*
X106509059Y-46853712D01*
X106513239Y-46854249D01*
X106517633Y-46854913D01*
X106535071Y-46857948D01*
X106540188Y-46858977D01*
X106552022Y-46861678D01*
X106557815Y-46863183D01*
X106560295Y-46863907D01*
X106560374Y-46863931D01*
X106564953Y-46865266D01*
X106571208Y-46867314D01*
X106574874Y-46868649D01*
X106581353Y-46871268D01*
X106582999Y-46872001D01*
X106589442Y-46875150D01*
X106590700Y-46875822D01*
X106596878Y-46879410D01*
X106599241Y-46880897D01*
X106604922Y-46884749D01*
X106609527Y-46888106D01*
X106614501Y-46891976D01*
X106622144Y-46898319D01*
X106626382Y-46902042D01*
X106637504Y-46912382D01*
X106641027Y-46915823D01*
X106654562Y-46929705D01*
X106654601Y-46929746D01*
X106655651Y-46930822D01*
X106658529Y-46933898D01*
X106676652Y-46954100D01*
X106678911Y-46956707D01*
X106685455Y-46964529D01*
X106695467Y-46976498D01*
X106704353Y-46988931D01*
X106719960Y-47014701D01*
X106719963Y-47014705D01*
X106722876Y-47019515D01*
X106781928Y-47080665D01*
X106809182Y-47136545D01*
X106798386Y-47197775D01*
X106753661Y-47240965D01*
X106741984Y-47245778D01*
X106705670Y-47258140D01*
X106604473Y-47292590D01*
X106604471Y-47292591D01*
X106599148Y-47294403D01*
X106449816Y-47386273D01*
X106445804Y-47390202D01*
X106445800Y-47390205D01*
X106328569Y-47505007D01*
X106324549Y-47508944D01*
X106229572Y-47656319D01*
X106169606Y-47821074D01*
X106147632Y-47995020D01*
X106164741Y-48169511D01*
X106166517Y-48174849D01*
X106167686Y-48180350D01*
X106167338Y-48180424D01*
X106171500Y-48206124D01*
X106171500Y-48486829D01*
X106171307Y-48493058D01*
X106167432Y-48555516D01*
X106168422Y-48561277D01*
X106170047Y-48570734D01*
X106171500Y-48587771D01*
X106171500Y-48819915D01*
X106169456Y-48837055D01*
X106169606Y-48837074D01*
X106147632Y-49011020D01*
X106164741Y-49185511D01*
X106166517Y-49190849D01*
X106167686Y-49196350D01*
X106167338Y-49196424D01*
X106171500Y-49222124D01*
X106171500Y-50988546D01*
X106170356Y-51003675D01*
X106166776Y-51027208D01*
X106167250Y-51033034D01*
X106171169Y-51081216D01*
X106171500Y-51089372D01*
X106171500Y-51098525D01*
X106171840Y-51101439D01*
X106174857Y-51127325D01*
X106175203Y-51130816D01*
X106181191Y-51204426D01*
X106182992Y-51209985D01*
X106184137Y-51215716D01*
X106184012Y-51215741D01*
X106184754Y-51219144D01*
X106184878Y-51219115D01*
X106186222Y-51224803D01*
X106186899Y-51230607D01*
X106188892Y-51236097D01*
X106188892Y-51236098D01*
X106212087Y-51299998D01*
X106213228Y-51303320D01*
X106235987Y-51373575D01*
X106239022Y-51378576D01*
X106241452Y-51383884D01*
X106241336Y-51383937D01*
X106242843Y-51387081D01*
X106242956Y-51387024D01*
X106245573Y-51392251D01*
X106247566Y-51397741D01*
X106250768Y-51402625D01*
X106250770Y-51402629D01*
X106288050Y-51459491D01*
X106289911Y-51462439D01*
X106291687Y-51465366D01*
X106321928Y-51515200D01*
X106328227Y-51525581D01*
X106331193Y-51528939D01*
X106335667Y-51534005D01*
X106335542Y-51534115D01*
X106337949Y-51537191D01*
X106338101Y-51537064D01*
X106341850Y-51541549D01*
X106345054Y-51546435D01*
X106349293Y-51550451D01*
X106349295Y-51550453D01*
X106401814Y-51600204D01*
X106403764Y-51602102D01*
X108634554Y-53832892D01*
X108644436Y-53844391D01*
X108658546Y-53863564D01*
X108667533Y-53871199D01*
X108699839Y-53898645D01*
X108705840Y-53904178D01*
X108712315Y-53910653D01*
X108714612Y-53912471D01*
X108714614Y-53912472D01*
X108735081Y-53928665D01*
X108737797Y-53930892D01*
X108794051Y-53978684D01*
X108799263Y-53981345D01*
X108804120Y-53984585D01*
X108804049Y-53984692D01*
X108806975Y-53986571D01*
X108807042Y-53986462D01*
X108812019Y-53989536D01*
X108816600Y-53993160D01*
X108821893Y-53995634D01*
X108821895Y-53995635D01*
X108883469Y-54024413D01*
X108886623Y-54025954D01*
X108952404Y-54059543D01*
X108958078Y-54060931D01*
X108963560Y-54062970D01*
X108963515Y-54063090D01*
X108966797Y-54064245D01*
X108966838Y-54064123D01*
X108972379Y-54065966D01*
X108977680Y-54068444D01*
X109049999Y-54083487D01*
X109053376Y-54084250D01*
X109125112Y-54101804D01*
X109129583Y-54102081D01*
X109129587Y-54102082D01*
X109136330Y-54102500D01*
X109136315Y-54102743D01*
X109140189Y-54103196D01*
X109140212Y-54102942D01*
X109146034Y-54103462D01*
X109151757Y-54104652D01*
X109157600Y-54104494D01*
X109157602Y-54104494D01*
X109229910Y-54102537D01*
X109232631Y-54102500D01*
X114733685Y-54102500D01*
X114746990Y-54103384D01*
X114912953Y-54125529D01*
X114912954Y-54125529D01*
X114918530Y-54126273D01*
X115005834Y-54118327D01*
X115087535Y-54110892D01*
X115087536Y-54110892D01*
X115093137Y-54110382D01*
X115098486Y-54108644D01*
X115098491Y-54108643D01*
X115102242Y-54107424D01*
X115133328Y-54102500D01*
X120838546Y-54102500D01*
X120853675Y-54103644D01*
X120877208Y-54107224D01*
X120924417Y-54103384D01*
X120931216Y-54102831D01*
X120939372Y-54102500D01*
X120948525Y-54102500D01*
X120963640Y-54100738D01*
X120977325Y-54099143D01*
X120980816Y-54098797D01*
X121000947Y-54097159D01*
X121054426Y-54092809D01*
X121059985Y-54091008D01*
X121065716Y-54089863D01*
X121065741Y-54089988D01*
X121069144Y-54089246D01*
X121069115Y-54089122D01*
X121074803Y-54087778D01*
X121080607Y-54087101D01*
X121128725Y-54069635D01*
X121149998Y-54061913D01*
X121153320Y-54060772D01*
X121171866Y-54054764D01*
X121223575Y-54038013D01*
X121228576Y-54034978D01*
X121233884Y-54032548D01*
X121233937Y-54032664D01*
X121237081Y-54031157D01*
X121237024Y-54031044D01*
X121242251Y-54028427D01*
X121247741Y-54026434D01*
X121252625Y-54023232D01*
X121252629Y-54023230D01*
X121309491Y-53985950D01*
X121312439Y-53984089D01*
X121343683Y-53965129D01*
X121371752Y-53948097D01*
X121371756Y-53948094D01*
X121375581Y-53945773D01*
X121384005Y-53938333D01*
X121384115Y-53938458D01*
X121387191Y-53936051D01*
X121387064Y-53935899D01*
X121391549Y-53932150D01*
X121396435Y-53928946D01*
X121425140Y-53898645D01*
X121450204Y-53872186D01*
X121452102Y-53870236D01*
X123428892Y-51893446D01*
X123440391Y-51883564D01*
X123459564Y-51869454D01*
X123494645Y-51828161D01*
X123500178Y-51822160D01*
X123506653Y-51815685D01*
X123508472Y-51813386D01*
X123524665Y-51792919D01*
X123526893Y-51790202D01*
X123574684Y-51733949D01*
X123577345Y-51728737D01*
X123580585Y-51723880D01*
X123580692Y-51723951D01*
X123582571Y-51721025D01*
X123582462Y-51720958D01*
X123585536Y-51715981D01*
X123589160Y-51711400D01*
X123620422Y-51644511D01*
X123621962Y-51641360D01*
X123652885Y-51580802D01*
X123652886Y-51580800D01*
X123655543Y-51575596D01*
X123656932Y-51569920D01*
X123658970Y-51564440D01*
X123659090Y-51564485D01*
X123660246Y-51561201D01*
X123660124Y-51561160D01*
X123661966Y-51555623D01*
X123664444Y-51550321D01*
X123667202Y-51537064D01*
X123674610Y-51501443D01*
X123679485Y-51478006D01*
X123680248Y-51474631D01*
X123697804Y-51402888D01*
X123698124Y-51397741D01*
X123698500Y-51391670D01*
X123698737Y-51391685D01*
X123699192Y-51387811D01*
X123698942Y-51387789D01*
X123699462Y-51381967D01*
X123700652Y-51376244D01*
X123699778Y-51343928D01*
X123698537Y-51298090D01*
X123698500Y-51295369D01*
X123698500Y-48953311D01*
X125494901Y-48953311D01*
X125495186Y-48958751D01*
X125495186Y-48958752D01*
X125498336Y-49018856D01*
X125504356Y-49133725D01*
X125552332Y-49307900D01*
X125636590Y-49467711D01*
X125640108Y-49471874D01*
X125690406Y-49531393D01*
X125753200Y-49605700D01*
X125757523Y-49609005D01*
X125757526Y-49609008D01*
X125809085Y-49648427D01*
X125896721Y-49715429D01*
X126060456Y-49791780D01*
X126236767Y-49831190D01*
X126240886Y-49831420D01*
X126240891Y-49831421D01*
X126240905Y-49831421D01*
X126242311Y-49831500D01*
X126375134Y-49831500D01*
X126377828Y-49831207D01*
X126377834Y-49831207D01*
X126504192Y-49817480D01*
X126509605Y-49816892D01*
X126514768Y-49815154D01*
X126514770Y-49815154D01*
X126675661Y-49761008D01*
X126675662Y-49761008D01*
X126680831Y-49759268D01*
X126749959Y-49717732D01*
X126831018Y-49669027D01*
X126831020Y-49669025D01*
X126835689Y-49666220D01*
X126839646Y-49662478D01*
X126839650Y-49662475D01*
X126962992Y-49545835D01*
X126962993Y-49545834D01*
X126966953Y-49542089D01*
X127068500Y-49392667D01*
X127135592Y-49224925D01*
X127165099Y-49046689D01*
X127162938Y-49005444D01*
X127155929Y-48871716D01*
X127155644Y-48866275D01*
X127107668Y-48692100D01*
X127023410Y-48532289D01*
X126906800Y-48394300D01*
X126902477Y-48390995D01*
X126902474Y-48390992D01*
X126823971Y-48330973D01*
X126763279Y-48284571D01*
X126599544Y-48208220D01*
X126423233Y-48168810D01*
X126419116Y-48168580D01*
X126419110Y-48168579D01*
X126419099Y-48168579D01*
X126417689Y-48168500D01*
X126284866Y-48168500D01*
X126282172Y-48168793D01*
X126282166Y-48168793D01*
X126175783Y-48180350D01*
X126150395Y-48183108D01*
X126145232Y-48184846D01*
X126145230Y-48184846D01*
X126082004Y-48206124D01*
X125979169Y-48240732D01*
X125974496Y-48243540D01*
X125828982Y-48330973D01*
X125828980Y-48330975D01*
X125824311Y-48333780D01*
X125820354Y-48337522D01*
X125820350Y-48337525D01*
X125763811Y-48390992D01*
X125693047Y-48457911D01*
X125591500Y-48607333D01*
X125524408Y-48775075D01*
X125494901Y-48953311D01*
X123698500Y-48953311D01*
X123698500Y-45953311D01*
X125494901Y-45953311D01*
X125504356Y-46133725D01*
X125552332Y-46307900D01*
X125554871Y-46312716D01*
X125554872Y-46312718D01*
X125586594Y-46372884D01*
X125636590Y-46467711D01*
X125640108Y-46471874D01*
X125733222Y-46582059D01*
X125753200Y-46605700D01*
X125757523Y-46609005D01*
X125757526Y-46609008D01*
X125799321Y-46640962D01*
X125896721Y-46715429D01*
X126060456Y-46791780D01*
X126236767Y-46831190D01*
X126240886Y-46831420D01*
X126240891Y-46831421D01*
X126240905Y-46831421D01*
X126242311Y-46831500D01*
X126375134Y-46831500D01*
X126377828Y-46831207D01*
X126377834Y-46831207D01*
X126504192Y-46817480D01*
X126509605Y-46816892D01*
X126514768Y-46815154D01*
X126514770Y-46815154D01*
X126675661Y-46761008D01*
X126675662Y-46761008D01*
X126680831Y-46759268D01*
X126749959Y-46717732D01*
X126831018Y-46669027D01*
X126831020Y-46669025D01*
X126835689Y-46666220D01*
X126839646Y-46662478D01*
X126839650Y-46662475D01*
X126962992Y-46545835D01*
X126962993Y-46545834D01*
X126966953Y-46542089D01*
X127058674Y-46407126D01*
X127065440Y-46397170D01*
X127065441Y-46397168D01*
X127068500Y-46392667D01*
X127135592Y-46224925D01*
X127165099Y-46046689D01*
X127155644Y-45866275D01*
X127107668Y-45692100D01*
X127104938Y-45686921D01*
X127040575Y-45564846D01*
X127023410Y-45532289D01*
X126970065Y-45469164D01*
X126910315Y-45398459D01*
X126910313Y-45398457D01*
X126906800Y-45394300D01*
X126902477Y-45390995D01*
X126902474Y-45390992D01*
X126809141Y-45319635D01*
X126763279Y-45284571D01*
X126599544Y-45208220D01*
X126423233Y-45168810D01*
X126419116Y-45168580D01*
X126419110Y-45168579D01*
X126419099Y-45168579D01*
X126417689Y-45168500D01*
X126284866Y-45168500D01*
X126282172Y-45168793D01*
X126282166Y-45168793D01*
X126167286Y-45181273D01*
X126150395Y-45183108D01*
X126145232Y-45184846D01*
X126145230Y-45184846D01*
X126079309Y-45207031D01*
X125979169Y-45240732D01*
X125974496Y-45243540D01*
X125828982Y-45330973D01*
X125828980Y-45330975D01*
X125824311Y-45333780D01*
X125820354Y-45337522D01*
X125820350Y-45337525D01*
X125697797Y-45453419D01*
X125693047Y-45457911D01*
X125591500Y-45607333D01*
X125524408Y-45775075D01*
X125494901Y-45953311D01*
X123698500Y-45953311D01*
X123698500Y-45663187D01*
X123699479Y-45649186D01*
X123721697Y-45491096D01*
X123722138Y-45487959D01*
X123722445Y-45466000D01*
X123702901Y-45291764D01*
X123701050Y-45286448D01*
X123701000Y-45286229D01*
X123698500Y-45263940D01*
X123698500Y-40832454D01*
X123699644Y-40817323D01*
X123700137Y-40814086D01*
X123703224Y-40793792D01*
X123698831Y-40739784D01*
X123698500Y-40731628D01*
X123698500Y-40722475D01*
X123695143Y-40693675D01*
X123694797Y-40690184D01*
X123693159Y-40670053D01*
X123688809Y-40616574D01*
X123687008Y-40611015D01*
X123685863Y-40605284D01*
X123685988Y-40605259D01*
X123685246Y-40601856D01*
X123685122Y-40601885D01*
X123683778Y-40596197D01*
X123683101Y-40590393D01*
X123661829Y-40531789D01*
X123657913Y-40521002D01*
X123656772Y-40517680D01*
X123635814Y-40452986D01*
X123634013Y-40447425D01*
X123630978Y-40442424D01*
X123628548Y-40437116D01*
X123628664Y-40437063D01*
X123627157Y-40433919D01*
X123627044Y-40433976D01*
X123624427Y-40428749D01*
X123622434Y-40423259D01*
X123619232Y-40418375D01*
X123619230Y-40418371D01*
X123581950Y-40361509D01*
X123580089Y-40358561D01*
X123541773Y-40295419D01*
X123534333Y-40286995D01*
X123534458Y-40286885D01*
X123532051Y-40283809D01*
X123531899Y-40283936D01*
X123528150Y-40279451D01*
X123524946Y-40274565D01*
X123520707Y-40270549D01*
X123520705Y-40270547D01*
X123468186Y-40220796D01*
X123466236Y-40218898D01*
X120727446Y-37480108D01*
X120717564Y-37468609D01*
X120703454Y-37449436D01*
X120662161Y-37414355D01*
X120656160Y-37408822D01*
X120649685Y-37402347D01*
X120647386Y-37400528D01*
X120626919Y-37384335D01*
X120624202Y-37382107D01*
X120615445Y-37374667D01*
X120567949Y-37334316D01*
X120562737Y-37331655D01*
X120557880Y-37328415D01*
X120557951Y-37328308D01*
X120555025Y-37326429D01*
X120554958Y-37326538D01*
X120549981Y-37323464D01*
X120545400Y-37319840D01*
X120540107Y-37317366D01*
X120540105Y-37317365D01*
X120478515Y-37288580D01*
X120475360Y-37287038D01*
X120414802Y-37256115D01*
X120414800Y-37256114D01*
X120409596Y-37253457D01*
X120403920Y-37252068D01*
X120398440Y-37250030D01*
X120398485Y-37249910D01*
X120395201Y-37248754D01*
X120395160Y-37248876D01*
X120389623Y-37247034D01*
X120384321Y-37244556D01*
X120378593Y-37243365D01*
X120378591Y-37243364D01*
X120349880Y-37237392D01*
X120312006Y-37229515D01*
X120308631Y-37228752D01*
X120255187Y-37215674D01*
X120241241Y-37212261D01*
X120241239Y-37212261D01*
X120236888Y-37211196D01*
X120232417Y-37210919D01*
X120232413Y-37210918D01*
X120225670Y-37210500D01*
X120225685Y-37210263D01*
X120221811Y-37209808D01*
X120221789Y-37210058D01*
X120215967Y-37209538D01*
X120210244Y-37208348D01*
X120204401Y-37208506D01*
X120204399Y-37208506D01*
X120132090Y-37210463D01*
X120129369Y-37210500D01*
X104044732Y-37210500D01*
X103985601Y-37191287D01*
X103949056Y-37140987D01*
X103944404Y-37102508D01*
X103946920Y-37068369D01*
X103947142Y-37065808D01*
X103954956Y-36987240D01*
X103955295Y-36984278D01*
X103964723Y-36911464D01*
X103965205Y-36908166D01*
X103976386Y-36839707D01*
X103977028Y-36836176D01*
X103990173Y-36770512D01*
X103990963Y-36766911D01*
X104006378Y-36702407D01*
X104007308Y-36698812D01*
X104025382Y-36633883D01*
X104026399Y-36630464D01*
X104047632Y-36563477D01*
X104048681Y-36560349D01*
X104073596Y-36489860D01*
X104074601Y-36487142D01*
X104103705Y-36411889D01*
X104104650Y-36409536D01*
X104138365Y-36328506D01*
X104139200Y-36326557D01*
X104177909Y-36238788D01*
X104178613Y-36237228D01*
X104222623Y-36141866D01*
X104223148Y-36140747D01*
X104226901Y-36132889D01*
X104231122Y-36125655D01*
X104230866Y-36125507D01*
X104233065Y-36121699D01*
X104235584Y-36118102D01*
X104326652Y-35922807D01*
X104337828Y-35881097D01*
X104371690Y-35828953D01*
X104429735Y-35806672D01*
X104489790Y-35822764D01*
X104528918Y-35871082D01*
X104532172Y-35881096D01*
X104543348Y-35922807D01*
X104634416Y-36118102D01*
X104636931Y-36121694D01*
X104636934Y-36121699D01*
X104755494Y-36291020D01*
X104758013Y-36294617D01*
X104910383Y-36446987D01*
X104913977Y-36449504D01*
X104913980Y-36449506D01*
X105083301Y-36568066D01*
X105083306Y-36568069D01*
X105086898Y-36570584D01*
X105282193Y-36661652D01*
X105286440Y-36662790D01*
X105486087Y-36716285D01*
X105486090Y-36716285D01*
X105490335Y-36717423D01*
X105705000Y-36736204D01*
X105919665Y-36717423D01*
X105923910Y-36716285D01*
X105923913Y-36716285D01*
X106123560Y-36662790D01*
X106127807Y-36661652D01*
X106323102Y-36570584D01*
X106326694Y-36568069D01*
X106326699Y-36568066D01*
X106496020Y-36449506D01*
X106496023Y-36449504D01*
X106499617Y-36446987D01*
X106651987Y-36294617D01*
X106654506Y-36291020D01*
X106773066Y-36121699D01*
X106773069Y-36121694D01*
X106775584Y-36118102D01*
X106866652Y-35922807D01*
X106877828Y-35881097D01*
X106911690Y-35828953D01*
X106969735Y-35806672D01*
X107029790Y-35822764D01*
X107068918Y-35871082D01*
X107072172Y-35881096D01*
X107083348Y-35922807D01*
X107174416Y-36118102D01*
X107176931Y-36121694D01*
X107176934Y-36121699D01*
X107295494Y-36291020D01*
X107298013Y-36294617D01*
X107450383Y-36446987D01*
X107453977Y-36449504D01*
X107453980Y-36449506D01*
X107623301Y-36568066D01*
X107623306Y-36568069D01*
X107626898Y-36570584D01*
X107822193Y-36661652D01*
X107826440Y-36662790D01*
X108026087Y-36716285D01*
X108026090Y-36716285D01*
X108030335Y-36717423D01*
X108245000Y-36736204D01*
X108459665Y-36717423D01*
X108463910Y-36716285D01*
X108463913Y-36716285D01*
X108663560Y-36662790D01*
X108667807Y-36661652D01*
X108863102Y-36570584D01*
X108866694Y-36568069D01*
X108866699Y-36568066D01*
X109036020Y-36449506D01*
X109036023Y-36449504D01*
X109039617Y-36446987D01*
X109191987Y-36294617D01*
X109194506Y-36291020D01*
X109313066Y-36121699D01*
X109313069Y-36121694D01*
X109315584Y-36118102D01*
X109406652Y-35922807D01*
X109417828Y-35881097D01*
X109451690Y-35828953D01*
X109509735Y-35806672D01*
X109569790Y-35822764D01*
X109608918Y-35871082D01*
X109612172Y-35881096D01*
X109623348Y-35922807D01*
X109714416Y-36118102D01*
X109716931Y-36121694D01*
X109716934Y-36121699D01*
X109835494Y-36291020D01*
X109838013Y-36294617D01*
X109990383Y-36446987D01*
X109993977Y-36449504D01*
X109993980Y-36449506D01*
X110163301Y-36568066D01*
X110163306Y-36568069D01*
X110166898Y-36570584D01*
X110362193Y-36661652D01*
X110366440Y-36662790D01*
X110566087Y-36716285D01*
X110566090Y-36716285D01*
X110570335Y-36717423D01*
X110785000Y-36736204D01*
X110999665Y-36717423D01*
X111003910Y-36716285D01*
X111003913Y-36716285D01*
X111203560Y-36662790D01*
X111207807Y-36661652D01*
X111403102Y-36570584D01*
X111406694Y-36568069D01*
X111406699Y-36568066D01*
X111576020Y-36449506D01*
X111576023Y-36449504D01*
X111579617Y-36446987D01*
X111731987Y-36294617D01*
X111734506Y-36291020D01*
X111853066Y-36121699D01*
X111853069Y-36121694D01*
X111855584Y-36118102D01*
X111946652Y-35922807D01*
X111957828Y-35881097D01*
X111991690Y-35828953D01*
X112049735Y-35806672D01*
X112109790Y-35822764D01*
X112148918Y-35871082D01*
X112152172Y-35881096D01*
X112163348Y-35922807D01*
X112254416Y-36118102D01*
X112256931Y-36121694D01*
X112256934Y-36121699D01*
X112375494Y-36291020D01*
X112378013Y-36294617D01*
X112530383Y-36446987D01*
X112533977Y-36449504D01*
X112533980Y-36449506D01*
X112703301Y-36568066D01*
X112703306Y-36568069D01*
X112706898Y-36570584D01*
X112902193Y-36661652D01*
X112906440Y-36662790D01*
X113106087Y-36716285D01*
X113106090Y-36716285D01*
X113110335Y-36717423D01*
X113325000Y-36736204D01*
X113539665Y-36717423D01*
X113543910Y-36716285D01*
X113543913Y-36716285D01*
X113743560Y-36662790D01*
X113747807Y-36661652D01*
X113943102Y-36570584D01*
X113946694Y-36568069D01*
X113946699Y-36568066D01*
X114116020Y-36449506D01*
X114116023Y-36449504D01*
X114119617Y-36446987D01*
X114271987Y-36294617D01*
X114274506Y-36291020D01*
X114393066Y-36121699D01*
X114393069Y-36121694D01*
X114395584Y-36118102D01*
X114486652Y-35922807D01*
X114497828Y-35881097D01*
X114531690Y-35828953D01*
X114589735Y-35806672D01*
X114649790Y-35822764D01*
X114688918Y-35871082D01*
X114692172Y-35881096D01*
X114703348Y-35922807D01*
X114794416Y-36118102D01*
X114796931Y-36121694D01*
X114796934Y-36121699D01*
X114915494Y-36291020D01*
X114918013Y-36294617D01*
X115070383Y-36446987D01*
X115073977Y-36449504D01*
X115073980Y-36449506D01*
X115243301Y-36568066D01*
X115243306Y-36568069D01*
X115246898Y-36570584D01*
X115442193Y-36661652D01*
X115446440Y-36662790D01*
X115646087Y-36716285D01*
X115646090Y-36716285D01*
X115650335Y-36717423D01*
X115865000Y-36736204D01*
X116079665Y-36717423D01*
X116083910Y-36716285D01*
X116083913Y-36716285D01*
X116283560Y-36662790D01*
X116287807Y-36661652D01*
X116483102Y-36570584D01*
X116486694Y-36568069D01*
X116486699Y-36568066D01*
X116656020Y-36449506D01*
X116656023Y-36449504D01*
X116659617Y-36446987D01*
X116811987Y-36294617D01*
X116814506Y-36291020D01*
X116933066Y-36121699D01*
X116933069Y-36121694D01*
X116935584Y-36118102D01*
X117026652Y-35922807D01*
X117037828Y-35881097D01*
X117071690Y-35828953D01*
X117129735Y-35806672D01*
X117189790Y-35822764D01*
X117228918Y-35871082D01*
X117232172Y-35881096D01*
X117243348Y-35922807D01*
X117334416Y-36118102D01*
X117336931Y-36121694D01*
X117336934Y-36121699D01*
X117455494Y-36291020D01*
X117458013Y-36294617D01*
X117610383Y-36446987D01*
X117613977Y-36449504D01*
X117613980Y-36449506D01*
X117783301Y-36568066D01*
X117783306Y-36568069D01*
X117786898Y-36570584D01*
X117982193Y-36661652D01*
X117986440Y-36662790D01*
X118186087Y-36716285D01*
X118186090Y-36716285D01*
X118190335Y-36717423D01*
X118405000Y-36736204D01*
X118619665Y-36717423D01*
X118623910Y-36716285D01*
X118623913Y-36716285D01*
X118823560Y-36662790D01*
X118827807Y-36661652D01*
X119023102Y-36570584D01*
X119026694Y-36568069D01*
X119026699Y-36568066D01*
X119196020Y-36449506D01*
X119196023Y-36449504D01*
X119199617Y-36446987D01*
X119351987Y-36294617D01*
X119354506Y-36291020D01*
X119473066Y-36121699D01*
X119473069Y-36121694D01*
X119475584Y-36118102D01*
X119566652Y-35922807D01*
X119622423Y-35714665D01*
X119641204Y-35500000D01*
X119622423Y-35285335D01*
X119566652Y-35077193D01*
X119475584Y-34881898D01*
X119473069Y-34878306D01*
X119473066Y-34878301D01*
X119354506Y-34708980D01*
X119354504Y-34708977D01*
X119351987Y-34705383D01*
X119199617Y-34553013D01*
X119196023Y-34550496D01*
X119196020Y-34550494D01*
X119026699Y-34431934D01*
X119026694Y-34431931D01*
X119023102Y-34429416D01*
X118827807Y-34338348D01*
X118823560Y-34337210D01*
X118623913Y-34283715D01*
X118623910Y-34283715D01*
X118619665Y-34282577D01*
X118405000Y-34263796D01*
X118190335Y-34282577D01*
X118186090Y-34283715D01*
X118186087Y-34283715D01*
X117986440Y-34337210D01*
X117982193Y-34338348D01*
X117786898Y-34429416D01*
X117783306Y-34431931D01*
X117783301Y-34431934D01*
X117613980Y-34550494D01*
X117613977Y-34550496D01*
X117610383Y-34553013D01*
X117458013Y-34705383D01*
X117455496Y-34708977D01*
X117455494Y-34708980D01*
X117336934Y-34878301D01*
X117336931Y-34878306D01*
X117334416Y-34881898D01*
X117243348Y-35077193D01*
X117242210Y-35081440D01*
X117232172Y-35118903D01*
X117198310Y-35171047D01*
X117140265Y-35193328D01*
X117080210Y-35177236D01*
X117041082Y-35128918D01*
X117037828Y-35118903D01*
X117027790Y-35081440D01*
X117026652Y-35077193D01*
X116935584Y-34881898D01*
X116933069Y-34878306D01*
X116933066Y-34878301D01*
X116814506Y-34708980D01*
X116814504Y-34708977D01*
X116811987Y-34705383D01*
X116659617Y-34553013D01*
X116656023Y-34550496D01*
X116656020Y-34550494D01*
X116486699Y-34431934D01*
X116486694Y-34431931D01*
X116483102Y-34429416D01*
X116287807Y-34338348D01*
X116283560Y-34337210D01*
X116083913Y-34283715D01*
X116083910Y-34283715D01*
X116079665Y-34282577D01*
X115865000Y-34263796D01*
X115650335Y-34282577D01*
X115646090Y-34283715D01*
X115646087Y-34283715D01*
X115446440Y-34337210D01*
X115442193Y-34338348D01*
X115246898Y-34429416D01*
X115243306Y-34431931D01*
X115243301Y-34431934D01*
X115073980Y-34550494D01*
X115073977Y-34550496D01*
X115070383Y-34553013D01*
X114918013Y-34705383D01*
X114915496Y-34708977D01*
X114915494Y-34708980D01*
X114796934Y-34878301D01*
X114796931Y-34878306D01*
X114794416Y-34881898D01*
X114703348Y-35077193D01*
X114702210Y-35081440D01*
X114692172Y-35118903D01*
X114658310Y-35171047D01*
X114600265Y-35193328D01*
X114540210Y-35177236D01*
X114501082Y-35128918D01*
X114497828Y-35118903D01*
X114487790Y-35081440D01*
X114486652Y-35077193D01*
X114395584Y-34881898D01*
X114393069Y-34878306D01*
X114393066Y-34878301D01*
X114274506Y-34708980D01*
X114274504Y-34708977D01*
X114271987Y-34705383D01*
X114119617Y-34553013D01*
X114116023Y-34550496D01*
X114116020Y-34550494D01*
X113946699Y-34431934D01*
X113946694Y-34431931D01*
X113943102Y-34429416D01*
X113747807Y-34338348D01*
X113743560Y-34337210D01*
X113543913Y-34283715D01*
X113543910Y-34283715D01*
X113539665Y-34282577D01*
X113325000Y-34263796D01*
X113110335Y-34282577D01*
X113106090Y-34283715D01*
X113106087Y-34283715D01*
X112906440Y-34337210D01*
X112902193Y-34338348D01*
X112706898Y-34429416D01*
X112703306Y-34431931D01*
X112703301Y-34431934D01*
X112533980Y-34550494D01*
X112533977Y-34550496D01*
X112530383Y-34553013D01*
X112378013Y-34705383D01*
X112375496Y-34708977D01*
X112375494Y-34708980D01*
X112256934Y-34878301D01*
X112256931Y-34878306D01*
X112254416Y-34881898D01*
X112163348Y-35077193D01*
X112162210Y-35081440D01*
X112152172Y-35118903D01*
X112118310Y-35171047D01*
X112060265Y-35193328D01*
X112000210Y-35177236D01*
X111961082Y-35128918D01*
X111957828Y-35118903D01*
X111947790Y-35081440D01*
X111946652Y-35077193D01*
X111855584Y-34881898D01*
X111853069Y-34878306D01*
X111853066Y-34878301D01*
X111734506Y-34708980D01*
X111734504Y-34708977D01*
X111731987Y-34705383D01*
X111579617Y-34553013D01*
X111576023Y-34550496D01*
X111576020Y-34550494D01*
X111406699Y-34431934D01*
X111406694Y-34431931D01*
X111403102Y-34429416D01*
X111207807Y-34338348D01*
X111203560Y-34337210D01*
X111003913Y-34283715D01*
X111003910Y-34283715D01*
X110999665Y-34282577D01*
X110785000Y-34263796D01*
X110570335Y-34282577D01*
X110566090Y-34283715D01*
X110566087Y-34283715D01*
X110366440Y-34337210D01*
X110362193Y-34338348D01*
X110166898Y-34429416D01*
X110163306Y-34431931D01*
X110163301Y-34431934D01*
X109993980Y-34550494D01*
X109993977Y-34550496D01*
X109990383Y-34553013D01*
X109838013Y-34705383D01*
X109835496Y-34708977D01*
X109835494Y-34708980D01*
X109716934Y-34878301D01*
X109716931Y-34878306D01*
X109714416Y-34881898D01*
X109623348Y-35077193D01*
X109622210Y-35081440D01*
X109612172Y-35118903D01*
X109578310Y-35171047D01*
X109520265Y-35193328D01*
X109460210Y-35177236D01*
X109421082Y-35128918D01*
X109417828Y-35118903D01*
X109407790Y-35081440D01*
X109406652Y-35077193D01*
X109315584Y-34881898D01*
X109313069Y-34878306D01*
X109313066Y-34878301D01*
X109194506Y-34708980D01*
X109194504Y-34708977D01*
X109191987Y-34705383D01*
X109039617Y-34553013D01*
X109036023Y-34550496D01*
X109036020Y-34550494D01*
X108866699Y-34431934D01*
X108866694Y-34431931D01*
X108863102Y-34429416D01*
X108667807Y-34338348D01*
X108663560Y-34337210D01*
X108463913Y-34283715D01*
X108463910Y-34283715D01*
X108459665Y-34282577D01*
X108245000Y-34263796D01*
X108030335Y-34282577D01*
X108026090Y-34283715D01*
X108026087Y-34283715D01*
X107826440Y-34337210D01*
X107822193Y-34338348D01*
X107626898Y-34429416D01*
X107623306Y-34431931D01*
X107623301Y-34431934D01*
X107453980Y-34550494D01*
X107453977Y-34550496D01*
X107450383Y-34553013D01*
X107298013Y-34705383D01*
X107295496Y-34708977D01*
X107295494Y-34708980D01*
X107176934Y-34878301D01*
X107176931Y-34878306D01*
X107174416Y-34881898D01*
X107083348Y-35077193D01*
X107082210Y-35081440D01*
X107072172Y-35118903D01*
X107038310Y-35171047D01*
X106980265Y-35193328D01*
X106920210Y-35177236D01*
X106881082Y-35128918D01*
X106877828Y-35118903D01*
X106867790Y-35081440D01*
X106866652Y-35077193D01*
X106775584Y-34881898D01*
X106773069Y-34878306D01*
X106773066Y-34878301D01*
X106654506Y-34708980D01*
X106654504Y-34708977D01*
X106651987Y-34705383D01*
X106499617Y-34553013D01*
X106496023Y-34550496D01*
X106496020Y-34550494D01*
X106326699Y-34431934D01*
X106326694Y-34431931D01*
X106323102Y-34429416D01*
X106127807Y-34338348D01*
X106123560Y-34337210D01*
X105923913Y-34283715D01*
X105923910Y-34283715D01*
X105919665Y-34282577D01*
X105705000Y-34263796D01*
X105490335Y-34282577D01*
X105486090Y-34283715D01*
X105486087Y-34283715D01*
X105286440Y-34337210D01*
X105282193Y-34338348D01*
X105086898Y-34429416D01*
X105083306Y-34431931D01*
X105083301Y-34431934D01*
X104913980Y-34550494D01*
X104913977Y-34550496D01*
X104910383Y-34553013D01*
X104758013Y-34705383D01*
X104755496Y-34708977D01*
X104755494Y-34708980D01*
X104636934Y-34878301D01*
X104636931Y-34878306D01*
X104634416Y-34881898D01*
X104543348Y-35077193D01*
X104542210Y-35081440D01*
X104532172Y-35118903D01*
X104498310Y-35171047D01*
X104440265Y-35193328D01*
X104380210Y-35177236D01*
X104341082Y-35128918D01*
X104337828Y-35118903D01*
X104327790Y-35081440D01*
X104326652Y-35077193D01*
X104235584Y-34881898D01*
X104233069Y-34878306D01*
X104233066Y-34878301D01*
X104114506Y-34708980D01*
X104114504Y-34708977D01*
X104111987Y-34705383D01*
X103959617Y-34553013D01*
X103956023Y-34550496D01*
X103956020Y-34550494D01*
X103786699Y-34431934D01*
X103786694Y-34431931D01*
X103783102Y-34429416D01*
X103587807Y-34338348D01*
X103583560Y-34337210D01*
X103383913Y-34283715D01*
X103383910Y-34283715D01*
X103379665Y-34282577D01*
X103165000Y-34263796D01*
X102950335Y-34282577D01*
X102946090Y-34283715D01*
X102946087Y-34283715D01*
X102746440Y-34337210D01*
X102742193Y-34338348D01*
X102546898Y-34429416D01*
X102543306Y-34431931D01*
X102543301Y-34431934D01*
X102373980Y-34550494D01*
X102373977Y-34550496D01*
X102370383Y-34553013D01*
X102218013Y-34705383D01*
X102215496Y-34708977D01*
X102215494Y-34708980D01*
X102096934Y-34878301D01*
X102096931Y-34878306D01*
X102094416Y-34881898D01*
X102003348Y-35077193D01*
X101947577Y-35285335D01*
X101928796Y-35500000D01*
X101947577Y-35714665D01*
X102003348Y-35922807D01*
X102094416Y-36118102D01*
X102096935Y-36121699D01*
X102099131Y-36125502D01*
X102098871Y-36125652D01*
X102103098Y-36132889D01*
X102106796Y-36140631D01*
X102107362Y-36141836D01*
X102151386Y-36237228D01*
X102152090Y-36238788D01*
X102190799Y-36326557D01*
X102191634Y-36328506D01*
X102225349Y-36409536D01*
X102226294Y-36411889D01*
X102255398Y-36487142D01*
X102256403Y-36489860D01*
X102281318Y-36560349D01*
X102282367Y-36563477D01*
X102303600Y-36630464D01*
X102304617Y-36633883D01*
X102322691Y-36698812D01*
X102323621Y-36702407D01*
X102339036Y-36766911D01*
X102339826Y-36770512D01*
X102352971Y-36836176D01*
X102353613Y-36839707D01*
X102364794Y-36908166D01*
X102365276Y-36911464D01*
X102374704Y-36984278D01*
X102375043Y-36987240D01*
X102382857Y-37065808D01*
X102383079Y-37068369D01*
X102385594Y-37102507D01*
X102370780Y-37162889D01*
X102323303Y-37203032D01*
X102285267Y-37210500D01*
X100395454Y-37210500D01*
X100380325Y-37209356D01*
X100356792Y-37205776D01*
X100312779Y-37209356D01*
X100302784Y-37210169D01*
X100294628Y-37210500D01*
X100285475Y-37210500D01*
X100271685Y-37212108D01*
X100256675Y-37213857D01*
X100253184Y-37214203D01*
X100233053Y-37215841D01*
X100179574Y-37220191D01*
X100174015Y-37221992D01*
X100168284Y-37223137D01*
X100168259Y-37223012D01*
X100164856Y-37223754D01*
X100164885Y-37223878D01*
X100159197Y-37225222D01*
X100153393Y-37225899D01*
X100147903Y-37227892D01*
X100147902Y-37227892D01*
X100084002Y-37251087D01*
X100080680Y-37252228D01*
X100010425Y-37274987D01*
X100005424Y-37278022D01*
X100000116Y-37280452D01*
X100000063Y-37280336D01*
X99996919Y-37281843D01*
X99996976Y-37281956D01*
X99991749Y-37284573D01*
X99986259Y-37286566D01*
X99981375Y-37289768D01*
X99981371Y-37289770D01*
X99924509Y-37327050D01*
X99921561Y-37328911D01*
X99912654Y-37334316D01*
X99862248Y-37364903D01*
X99862244Y-37364906D01*
X99858419Y-37367227D01*
X99849995Y-37374667D01*
X99849885Y-37374542D01*
X99846809Y-37376949D01*
X99846936Y-37377101D01*
X99842451Y-37380850D01*
X99837565Y-37384054D01*
X99833549Y-37388293D01*
X99833547Y-37388295D01*
X99783796Y-37440814D01*
X99781898Y-37442764D01*
X99075108Y-38149554D01*
X99063609Y-38159436D01*
X99044436Y-38173546D01*
X99040652Y-38177999D01*
X99040653Y-38177999D01*
X99009355Y-38214839D01*
X99003822Y-38220840D01*
X98997347Y-38227315D01*
X98995529Y-38229612D01*
X98995528Y-38229614D01*
X98979335Y-38250081D01*
X98977108Y-38252797D01*
X98929316Y-38309051D01*
X98926655Y-38314263D01*
X98923415Y-38319120D01*
X98923308Y-38319049D01*
X98921429Y-38321975D01*
X98921538Y-38322042D01*
X98918464Y-38327019D01*
X98914840Y-38331600D01*
X98912366Y-38336893D01*
X98912365Y-38336895D01*
X98883580Y-38398485D01*
X98882040Y-38401637D01*
X98848457Y-38467404D01*
X98847068Y-38473080D01*
X98845030Y-38478560D01*
X98844910Y-38478515D01*
X98843754Y-38481799D01*
X98843876Y-38481840D01*
X98842034Y-38487377D01*
X98839556Y-38492679D01*
X98825383Y-38560823D01*
X98824518Y-38564980D01*
X98823752Y-38568369D01*
X98806196Y-38640112D01*
X98805500Y-38651330D01*
X98805263Y-38651315D01*
X98804808Y-38655189D01*
X98805058Y-38655211D01*
X98804538Y-38661033D01*
X98803348Y-38666756D01*
X98803506Y-38672599D01*
X98803506Y-38672601D01*
X98805463Y-38744910D01*
X98805500Y-38747631D01*
X98805500Y-39558546D01*
X98804356Y-39573675D01*
X98800776Y-39597208D01*
X90083761Y-39597208D01*
X90064971Y-39561073D01*
X90059993Y-39549885D01*
X90018559Y-39439038D01*
X89971915Y-39314252D01*
X89968342Y-39302572D01*
X89909542Y-39057967D01*
X89907413Y-39045926D01*
X89881365Y-38818636D01*
X89878772Y-38796007D01*
X89878121Y-38783784D01*
X89879102Y-38656410D01*
X89879718Y-38576296D01*
X89880806Y-38566436D01*
X89880516Y-38566411D01*
X89880813Y-38562978D01*
X89881000Y-38560823D01*
X89881000Y-38554575D01*
X89882697Y-38539604D01*
X89883071Y-38534154D01*
X89884842Y-38526441D01*
X89881394Y-38487575D01*
X89881000Y-38478685D01*
X89881000Y-37059908D01*
X89900213Y-37000777D01*
X89950513Y-36964232D01*
X90012687Y-36964232D01*
X90062987Y-37000777D01*
X90073821Y-37019713D01*
X90151031Y-37196860D01*
X90152559Y-37199459D01*
X90152564Y-37199469D01*
X90228129Y-37328009D01*
X90311830Y-37470389D01*
X90313670Y-37472800D01*
X90313672Y-37472803D01*
X90416913Y-37608081D01*
X90504326Y-37722619D01*
X90506429Y-37724778D01*
X90506437Y-37724787D01*
X90619557Y-37840907D01*
X90725730Y-37949897D01*
X90972835Y-38148930D01*
X91242062Y-38316834D01*
X91244808Y-38318118D01*
X91244811Y-38318119D01*
X91420179Y-38400081D01*
X91529510Y-38451179D01*
X91532383Y-38452121D01*
X91532391Y-38452124D01*
X91828150Y-38549079D01*
X91828153Y-38549080D01*
X91831015Y-38550018D01*
X92142212Y-38611918D01*
X92458591Y-38635985D01*
X92461624Y-38635850D01*
X92461630Y-38635850D01*
X92772545Y-38622003D01*
X92772550Y-38622002D01*
X92775569Y-38621868D01*
X92778547Y-38621372D01*
X92778550Y-38621372D01*
X93085579Y-38570269D01*
X93085584Y-38570268D01*
X93088557Y-38569773D01*
X93091447Y-38568925D01*
X93091452Y-38568924D01*
X93263141Y-38518555D01*
X93393018Y-38480453D01*
X93684544Y-38355204D01*
X93958912Y-38195839D01*
X93961335Y-38194010D01*
X94209737Y-38006485D01*
X94209741Y-38006482D01*
X94212146Y-38004666D01*
X94440580Y-37784455D01*
X94640904Y-37538396D01*
X94694066Y-37454140D01*
X94767278Y-37338105D01*
X94810216Y-37270052D01*
X94818078Y-37253457D01*
X94944771Y-36986041D01*
X94944773Y-36986036D01*
X94946064Y-36983311D01*
X94995152Y-36836176D01*
X95045521Y-36685203D01*
X95045523Y-36685195D01*
X95046480Y-36682327D01*
X95110009Y-36371459D01*
X95110529Y-36365068D01*
X99571800Y-36365068D01*
X99572765Y-36374864D01*
X99581657Y-36419568D01*
X99589095Y-36437524D01*
X99622996Y-36488260D01*
X99636740Y-36502004D01*
X99687476Y-36535905D01*
X99705432Y-36543343D01*
X99750136Y-36552235D01*
X99759932Y-36553200D01*
X100507467Y-36553200D01*
X100520357Y-36549012D01*
X100523400Y-36544823D01*
X100523400Y-36537267D01*
X100726600Y-36537267D01*
X100730788Y-36550157D01*
X100734977Y-36553200D01*
X101490068Y-36553200D01*
X101499864Y-36552235D01*
X101544568Y-36543343D01*
X101562524Y-36535905D01*
X101613260Y-36502004D01*
X101627004Y-36488260D01*
X101660905Y-36437524D01*
X101668343Y-36419568D01*
X101677235Y-36374864D01*
X101678200Y-36365068D01*
X101678200Y-35617533D01*
X101674012Y-35604643D01*
X101669823Y-35601600D01*
X100742533Y-35601600D01*
X100729643Y-35605788D01*
X100726600Y-35609977D01*
X100726600Y-36537267D01*
X100523400Y-36537267D01*
X100523400Y-35617533D01*
X100519212Y-35604643D01*
X100515023Y-35601600D01*
X99587733Y-35601600D01*
X99574843Y-35605788D01*
X99571800Y-35609977D01*
X99571800Y-36365068D01*
X95110529Y-36365068D01*
X95128732Y-36141271D01*
X95135588Y-36056987D01*
X95135589Y-36056974D01*
X95135732Y-36055211D01*
X95136310Y-36000000D01*
X95117216Y-35683282D01*
X95112767Y-35658918D01*
X95062278Y-35382467D01*
X99571800Y-35382467D01*
X99575988Y-35395357D01*
X99580177Y-35398400D01*
X100507467Y-35398400D01*
X100520357Y-35394212D01*
X100523400Y-35390023D01*
X100523400Y-35382467D01*
X100726600Y-35382467D01*
X100730788Y-35395357D01*
X100734977Y-35398400D01*
X101662267Y-35398400D01*
X101675157Y-35394212D01*
X101678200Y-35390023D01*
X101678200Y-34634932D01*
X101677235Y-34625136D01*
X101668343Y-34580432D01*
X101660905Y-34562476D01*
X101627004Y-34511740D01*
X101613260Y-34497996D01*
X101562524Y-34464095D01*
X101544568Y-34456657D01*
X101499864Y-34447765D01*
X101490068Y-34446800D01*
X100742533Y-34446800D01*
X100729643Y-34450988D01*
X100726600Y-34455177D01*
X100726600Y-35382467D01*
X100523400Y-35382467D01*
X100523400Y-34462733D01*
X100519212Y-34449843D01*
X100515023Y-34446800D01*
X99759932Y-34446800D01*
X99750136Y-34447765D01*
X99705432Y-34456657D01*
X99687476Y-34464095D01*
X99636740Y-34497996D01*
X99622996Y-34511740D01*
X99589095Y-34562476D01*
X99581657Y-34580432D01*
X99572765Y-34625136D01*
X99571800Y-34634932D01*
X99571800Y-35382467D01*
X95062278Y-35382467D01*
X95060755Y-35374130D01*
X95060755Y-35374128D01*
X95060211Y-35371152D01*
X94966120Y-35068131D01*
X94955861Y-35045249D01*
X94837548Y-34781376D01*
X94836307Y-34778608D01*
X94698971Y-34550494D01*
X94674214Y-34509372D01*
X94674212Y-34509369D01*
X94672652Y-34506778D01*
X94629143Y-34450988D01*
X94479396Y-34258976D01*
X94479395Y-34258975D01*
X94477525Y-34256577D01*
X94253753Y-34031630D01*
X94211035Y-33997954D01*
X94006957Y-33837071D01*
X94006952Y-33837068D01*
X94004578Y-33835196D01*
X94001999Y-33833625D01*
X94001992Y-33833620D01*
X93736183Y-33671689D01*
X93733608Y-33670120D01*
X93730869Y-33668875D01*
X93730864Y-33668872D01*
X93520397Y-33573179D01*
X93474521Y-33531214D01*
X93462072Y-33470299D01*
X93487806Y-33413700D01*
X93541892Y-33383037D01*
X93562035Y-33381000D01*
X125439553Y-33381000D01*
X125498684Y-33400213D01*
G37*
%TD.AperFunction*%
%TA.AperFunction,Conductor*%
G36*
X108884235Y-48607441D02*
G01*
X112199554Y-51922761D01*
X112200041Y-51923252D01*
X112200134Y-51923346D01*
X112201523Y-51924758D01*
X112202714Y-51925992D01*
X112236316Y-51961446D01*
X112240137Y-51965477D01*
X112241622Y-51967080D01*
X112273518Y-52002268D01*
X112275196Y-52004169D01*
X112283072Y-52013329D01*
X112283084Y-52013343D01*
X112299183Y-52032064D01*
X112302025Y-52035368D01*
X112303910Y-52037629D01*
X112326124Y-52065094D01*
X112328206Y-52067761D01*
X112346309Y-52091771D01*
X112348528Y-52094831D01*
X112356606Y-52106427D01*
X112356608Y-52106428D01*
X112363373Y-52116140D01*
X112365590Y-52119464D01*
X112377890Y-52138724D01*
X112380050Y-52142265D01*
X112390684Y-52160544D01*
X112392648Y-52164087D01*
X112402383Y-52182525D01*
X112404130Y-52185998D01*
X112413571Y-52205706D01*
X112415045Y-52208927D01*
X112424766Y-52231200D01*
X112425934Y-52233989D01*
X112436248Y-52259702D01*
X112437119Y-52261952D01*
X112448360Y-52292046D01*
X112448968Y-52293718D01*
X112461259Y-52328486D01*
X112461631Y-52329556D01*
X112475315Y-52369735D01*
X112475427Y-52370068D01*
X112490375Y-52414817D01*
X112490376Y-52414931D01*
X112490409Y-52414920D01*
X112500464Y-52445130D01*
X112500908Y-52507303D01*
X112464723Y-52557863D01*
X112405012Y-52577500D01*
X109577508Y-52577500D01*
X109518377Y-52558287D01*
X109506373Y-52548035D01*
X107725965Y-50767627D01*
X107697739Y-50712229D01*
X107696500Y-50696492D01*
X107696500Y-49891560D01*
X107715713Y-49832429D01*
X107766013Y-49795884D01*
X107810405Y-49791844D01*
X107840682Y-49795884D01*
X107927953Y-49807529D01*
X107927954Y-49807529D01*
X107933530Y-49808273D01*
X108020833Y-49800328D01*
X108102535Y-49792892D01*
X108102536Y-49792892D01*
X108108137Y-49792382D01*
X108274884Y-49738203D01*
X108318642Y-49712118D01*
X108420655Y-49651306D01*
X108420657Y-49651304D01*
X108425484Y-49648427D01*
X108552452Y-49527517D01*
X108649477Y-49381482D01*
X108711737Y-49217581D01*
X108714711Y-49196424D01*
X108735697Y-49047096D01*
X108736138Y-49043959D01*
X108736445Y-49022000D01*
X108716901Y-48847764D01*
X108715050Y-48842448D01*
X108715000Y-48842229D01*
X108712500Y-48819940D01*
X108712500Y-48678576D01*
X108731713Y-48619445D01*
X108782013Y-48582900D01*
X108844187Y-48582900D01*
X108884235Y-48607441D01*
G37*
%TD.AperFunction*%
%TA.AperFunction,Conductor*%
G36*
X119843623Y-38754713D02*
G01*
X119855627Y-38764965D01*
X122144035Y-41053373D01*
X122172261Y-41108771D01*
X122173500Y-41124508D01*
X122173500Y-45263915D01*
X122171456Y-45281055D01*
X122171606Y-45281074D01*
X122150407Y-45448888D01*
X122149632Y-45455020D01*
X122166741Y-45629511D01*
X122168517Y-45634849D01*
X122169686Y-45640350D01*
X122169338Y-45640424D01*
X122173500Y-45666124D01*
X122173500Y-50950492D01*
X122154287Y-51009623D01*
X122144035Y-51021627D01*
X120617627Y-52548035D01*
X120562229Y-52576261D01*
X120546492Y-52577500D01*
X115136977Y-52577500D01*
X115116977Y-52575186D01*
X115114585Y-52574334D01*
X114940490Y-52553574D01*
X114934895Y-52554162D01*
X114934892Y-52554162D01*
X114771713Y-52571313D01*
X114771710Y-52571314D01*
X114766122Y-52571901D01*
X114760801Y-52573713D01*
X114755305Y-52574921D01*
X114755069Y-52573848D01*
X114733021Y-52577500D01*
X114153324Y-52577500D01*
X114094193Y-52558287D01*
X114057648Y-52507987D01*
X114053703Y-52462899D01*
X114060445Y-52414931D01*
X114070138Y-52345959D01*
X114070445Y-52324000D01*
X114050901Y-52149764D01*
X114011869Y-52037678D01*
X113995093Y-51989502D01*
X113995091Y-51989498D01*
X113993242Y-51984188D01*
X113900332Y-51835501D01*
X113776789Y-51711094D01*
X113768928Y-51706105D01*
X113633505Y-51620162D01*
X113633502Y-51620160D01*
X113628755Y-51617148D01*
X113623461Y-51615263D01*
X113623457Y-51615261D01*
X113468885Y-51560221D01*
X113468883Y-51560221D01*
X113463585Y-51558334D01*
X113458000Y-51557668D01*
X113457663Y-51557589D01*
X113448582Y-51555004D01*
X113440013Y-51552124D01*
X113425828Y-51547355D01*
X113424907Y-51547047D01*
X113424874Y-51547036D01*
X113424713Y-51546981D01*
X113424713Y-51546982D01*
X113374920Y-51530409D01*
X113374818Y-51530375D01*
X113329960Y-51515391D01*
X113329396Y-51515200D01*
X113321390Y-51512473D01*
X113321382Y-51512470D01*
X113321382Y-51512471D01*
X113289553Y-51501630D01*
X113288460Y-51501250D01*
X113253712Y-51488966D01*
X113252043Y-51488359D01*
X113221963Y-51477124D01*
X113219706Y-51476250D01*
X113193991Y-51465934D01*
X113191206Y-51464768D01*
X113168899Y-51455032D01*
X113165679Y-51453558D01*
X113146031Y-51444146D01*
X113142524Y-51442382D01*
X113130538Y-51436054D01*
X113130527Y-51436048D01*
X113124130Y-51432671D01*
X113120510Y-51430664D01*
X113102260Y-51420047D01*
X113098732Y-51417896D01*
X113079447Y-51405580D01*
X113076117Y-51403357D01*
X113063520Y-51394581D01*
X113063490Y-51394560D01*
X113063484Y-51394556D01*
X113054845Y-51388538D01*
X113051789Y-51386323D01*
X113027776Y-51368218D01*
X113025078Y-51366111D01*
X113023777Y-51365059D01*
X112997612Y-51343896D01*
X112995373Y-51342028D01*
X112964227Y-51315247D01*
X112962273Y-51313522D01*
X112943739Y-51296723D01*
X112927058Y-51281602D01*
X112925487Y-51280146D01*
X112885993Y-51242716D01*
X112884758Y-51241523D01*
X112883346Y-51240134D01*
X112883252Y-51240041D01*
X112882761Y-51239554D01*
X108514520Y-46871314D01*
X108513915Y-46870703D01*
X108501383Y-46857919D01*
X108499917Y-46856391D01*
X108498535Y-46854918D01*
X108490212Y-46846051D01*
X108459928Y-46813785D01*
X108458295Y-46812002D01*
X108423897Y-46773541D01*
X108422170Y-46771559D01*
X108413219Y-46761008D01*
X108392583Y-46736684D01*
X108390846Y-46734578D01*
X108389779Y-46733247D01*
X108389770Y-46733236D01*
X108365309Y-46702712D01*
X108363543Y-46700441D01*
X108341344Y-46671027D01*
X108339670Y-46668740D01*
X108319949Y-46640950D01*
X108318340Y-46638614D01*
X108300282Y-46611575D01*
X108298859Y-46609382D01*
X108281621Y-46582059D01*
X108280452Y-46580161D01*
X108263239Y-46551489D01*
X108262404Y-46550070D01*
X108248838Y-46526565D01*
X108244522Y-46519086D01*
X108244015Y-46518197D01*
X108224888Y-46484172D01*
X108218055Y-46471874D01*
X108204228Y-46446986D01*
X108204367Y-46446909D01*
X108204167Y-46446531D01*
X108204020Y-46446613D01*
X108182199Y-46407440D01*
X108182023Y-46407126D01*
X108181946Y-46406988D01*
X108181908Y-46406920D01*
X108180906Y-46405137D01*
X108157924Y-46364525D01*
X108156781Y-46362520D01*
X108156715Y-46362405D01*
X108155708Y-46360662D01*
X108130998Y-46318129D01*
X108129788Y-46316060D01*
X108129699Y-46315909D01*
X108128012Y-46313075D01*
X108101034Y-46268196D01*
X108099038Y-46264913D01*
X108098931Y-46264739D01*
X108097457Y-46262362D01*
X108077458Y-46230369D01*
X108077444Y-46230347D01*
X108067704Y-46214768D01*
X108067369Y-46214236D01*
X108066766Y-46213275D01*
X108066724Y-46213209D01*
X108066633Y-46213065D01*
X108063734Y-46208548D01*
X108035430Y-46165126D01*
X108035420Y-46165110D01*
X108030665Y-46157816D01*
X108027943Y-46153700D01*
X108027827Y-46153527D01*
X108026413Y-46151433D01*
X108017941Y-46138977D01*
X108009542Y-46126629D01*
X108007410Y-46123361D01*
X107965278Y-46055936D01*
X107962300Y-46051170D01*
X107838757Y-45926763D01*
X107696972Y-45836783D01*
X107657342Y-45788878D01*
X107651257Y-45737844D01*
X107654297Y-45716218D01*
X107659238Y-45681059D01*
X107659545Y-45659100D01*
X107647928Y-45555532D01*
X107660430Y-45494627D01*
X107706343Y-45452703D01*
X107751316Y-45443776D01*
X107784467Y-45444902D01*
X107785421Y-45444939D01*
X107824957Y-45446658D01*
X107846327Y-45447587D01*
X107846664Y-45447602D01*
X107905261Y-45450494D01*
X107905276Y-45450495D01*
X107905373Y-45450500D01*
X107961569Y-45453336D01*
X107961569Y-45453340D01*
X107961615Y-45453334D01*
X107962802Y-45453394D01*
X107963306Y-45453420D01*
X107963408Y-45453425D01*
X108016521Y-45455856D01*
X108016585Y-45455859D01*
X108018377Y-45455933D01*
X108019628Y-45455985D01*
X108019679Y-45455987D01*
X108019729Y-45455989D01*
X108019761Y-45455990D01*
X108020991Y-45456034D01*
X108071253Y-45457761D01*
X108073996Y-45457846D01*
X108074164Y-45457851D01*
X108074251Y-45457853D01*
X108078476Y-45457942D01*
X108078485Y-45457942D01*
X108078667Y-45457946D01*
X108107274Y-45458388D01*
X108123287Y-45458636D01*
X108123305Y-45458636D01*
X108123325Y-45458637D01*
X108124414Y-45458654D01*
X108126747Y-45458690D01*
X108126812Y-45458691D01*
X108126900Y-45458692D01*
X108131087Y-45458724D01*
X108132624Y-45458736D01*
X108132637Y-45458736D01*
X108132761Y-45458737D01*
X108133069Y-45458737D01*
X108134106Y-45458731D01*
X108137119Y-45458715D01*
X108137171Y-45458714D01*
X108137262Y-45458714D01*
X108140351Y-45458680D01*
X108140389Y-45458680D01*
X108140420Y-45458679D01*
X108183867Y-45458193D01*
X108184020Y-45458190D01*
X108184023Y-45458190D01*
X108189898Y-45458077D01*
X108190042Y-45458074D01*
X108190131Y-45458072D01*
X108190195Y-45458070D01*
X108190293Y-45458068D01*
X108190290Y-45458068D01*
X108190351Y-45458066D01*
X108190529Y-45458061D01*
X108197228Y-45457816D01*
X108228980Y-45456379D01*
X108228994Y-45456379D01*
X108242578Y-45455764D01*
X108242647Y-45455761D01*
X108242813Y-45455753D01*
X108242965Y-45455744D01*
X108243053Y-45455740D01*
X108250925Y-45455297D01*
X108250985Y-45455293D01*
X108251202Y-45455281D01*
X108251662Y-45455250D01*
X108258703Y-45454710D01*
X108258788Y-45454703D01*
X108258847Y-45454698D01*
X108303700Y-45450839D01*
X108303748Y-45450835D01*
X108303894Y-45450822D01*
X108304061Y-45450806D01*
X108304100Y-45450802D01*
X108312630Y-45449965D01*
X108312681Y-45449960D01*
X108312993Y-45449929D01*
X108313519Y-45449871D01*
X108313795Y-45449838D01*
X108313861Y-45449830D01*
X108317574Y-45449379D01*
X108321629Y-45448888D01*
X108321862Y-45448857D01*
X108321920Y-45448850D01*
X108346411Y-45445616D01*
X108366985Y-45442900D01*
X108367192Y-45442870D01*
X108367230Y-45442865D01*
X108370192Y-45442439D01*
X108375811Y-45441630D01*
X108376369Y-45441543D01*
X108376744Y-45441480D01*
X108376761Y-45441477D01*
X108385391Y-45440022D01*
X108385452Y-45440011D01*
X108385703Y-45439969D01*
X108385947Y-45439925D01*
X108386014Y-45439913D01*
X108390635Y-45439074D01*
X108431618Y-45431637D01*
X108431620Y-45431637D01*
X108431921Y-45431582D01*
X108440944Y-45429831D01*
X108441467Y-45429723D01*
X108441837Y-45429642D01*
X108441855Y-45429638D01*
X108450220Y-45427803D01*
X108450237Y-45427799D01*
X108450648Y-45427709D01*
X108451056Y-45427614D01*
X108451079Y-45427609D01*
X108469134Y-45423414D01*
X108498281Y-45416641D01*
X108507253Y-45414442D01*
X108507492Y-45414380D01*
X108507506Y-45414377D01*
X108507556Y-45414364D01*
X108507749Y-45414314D01*
X108507923Y-45414267D01*
X108507991Y-45414249D01*
X108516040Y-45412072D01*
X108516068Y-45412064D01*
X108516239Y-45412018D01*
X108516433Y-45411963D01*
X108516484Y-45411949D01*
X108534725Y-45406789D01*
X108565889Y-45397975D01*
X108573806Y-45395643D01*
X108573999Y-45395584D01*
X108574052Y-45395568D01*
X108574126Y-45395545D01*
X108574132Y-45395543D01*
X108574276Y-45395499D01*
X108582479Y-45392884D01*
X108582631Y-45392834D01*
X108582673Y-45392820D01*
X108608301Y-45384330D01*
X108634725Y-45375576D01*
X108634996Y-45375483D01*
X108635050Y-45375465D01*
X108641779Y-45373159D01*
X108641834Y-45373140D01*
X108642061Y-45373062D01*
X108642496Y-45372908D01*
X108649583Y-45370320D01*
X108705035Y-45349444D01*
X108705315Y-45349336D01*
X108711056Y-45347118D01*
X108711089Y-45347105D01*
X108711190Y-45347066D01*
X108711576Y-45346913D01*
X108717995Y-45344301D01*
X108718232Y-45344202D01*
X108718271Y-45344186D01*
X108777064Y-45319635D01*
X108777232Y-45319565D01*
X108777408Y-45319490D01*
X108782583Y-45317281D01*
X108782651Y-45317252D01*
X108782800Y-45317188D01*
X108782995Y-45317103D01*
X108783048Y-45317080D01*
X108783079Y-45317066D01*
X108783130Y-45317044D01*
X108788304Y-45314740D01*
X108788376Y-45314707D01*
X108788475Y-45314663D01*
X108797254Y-45310676D01*
X108807763Y-45306597D01*
X108843638Y-45294940D01*
X108848984Y-45293203D01*
X108869331Y-45281074D01*
X108994755Y-45206306D01*
X108994757Y-45206304D01*
X108999584Y-45203427D01*
X109097591Y-45110096D01*
X109122482Y-45086393D01*
X109122483Y-45086392D01*
X109126552Y-45082517D01*
X109132198Y-45074020D01*
X109158573Y-45034321D01*
X109223577Y-44936482D01*
X109285837Y-44772581D01*
X109295787Y-44701787D01*
X109309797Y-44602096D01*
X109310238Y-44598959D01*
X109310545Y-44577000D01*
X109291001Y-44402764D01*
X109273293Y-44351912D01*
X109235193Y-44242502D01*
X109235191Y-44242498D01*
X109233342Y-44237188D01*
X109140432Y-44088501D01*
X109131935Y-44079944D01*
X109020855Y-43968088D01*
X109016889Y-43964094D01*
X108955505Y-43925138D01*
X108873605Y-43873162D01*
X108873602Y-43873160D01*
X108868855Y-43870148D01*
X108863561Y-43868263D01*
X108863557Y-43868261D01*
X108708984Y-43813221D01*
X108708985Y-43813221D01*
X108703685Y-43811334D01*
X108529590Y-43790574D01*
X108523995Y-43791162D01*
X108523992Y-43791162D01*
X108360813Y-43808313D01*
X108360810Y-43808314D01*
X108355222Y-43808901D01*
X108349900Y-43810713D01*
X108349899Y-43810713D01*
X108194573Y-43863590D01*
X108194571Y-43863591D01*
X108189248Y-43865403D01*
X108039916Y-43957273D01*
X108035904Y-43961202D01*
X108035900Y-43961205D01*
X107922993Y-44071773D01*
X107914649Y-44079944D01*
X107911603Y-44084671D01*
X107911601Y-44084673D01*
X107876201Y-44139604D01*
X107819672Y-44227319D01*
X107807740Y-44260101D01*
X107774287Y-44352014D01*
X107759706Y-44392074D01*
X107759277Y-44395467D01*
X107727115Y-44447745D01*
X107669926Y-44471414D01*
X107647382Y-44473215D01*
X107643802Y-44473436D01*
X107636498Y-44473758D01*
X107636451Y-44473760D01*
X107636450Y-44473760D01*
X107613236Y-44474782D01*
X107610175Y-44474870D01*
X107610060Y-44474872D01*
X107608612Y-44474891D01*
X107607260Y-44474900D01*
X102567574Y-44474900D01*
X102566743Y-44474897D01*
X102565948Y-44474890D01*
X102560299Y-44474843D01*
X102558467Y-44474811D01*
X102527830Y-44473979D01*
X102506227Y-44473393D01*
X102506218Y-44473393D01*
X102503424Y-44473317D01*
X102501340Y-44473260D01*
X102499157Y-44473176D01*
X102483985Y-44472432D01*
X102467866Y-44471641D01*
X102467860Y-44471641D01*
X102455169Y-44471018D01*
X102449060Y-44470718D01*
X102446533Y-44470562D01*
X102402750Y-44467306D01*
X102399891Y-44467052D01*
X102391862Y-44466224D01*
X102391840Y-44466222D01*
X102384037Y-44465418D01*
X102361893Y-44463135D01*
X102358742Y-44462759D01*
X102344343Y-44460811D01*
X102344274Y-44460803D01*
X102344239Y-44460798D01*
X102344217Y-44460796D01*
X102325618Y-44458282D01*
X102322270Y-44457770D01*
X102293093Y-44452807D01*
X102289575Y-44452144D01*
X102263222Y-44446690D01*
X102259744Y-44445905D01*
X102234820Y-44439804D01*
X102231552Y-44438943D01*
X102214824Y-44434228D01*
X102206918Y-44431999D01*
X102203861Y-44431085D01*
X102189577Y-44426565D01*
X102178125Y-44422940D01*
X102175531Y-44422080D01*
X102147624Y-44412394D01*
X102145578Y-44411659D01*
X102114584Y-44400128D01*
X102113062Y-44399548D01*
X102106765Y-44397088D01*
X102078146Y-44385909D01*
X102077392Y-44385609D01*
X102038188Y-44369830D01*
X101994526Y-44352020D01*
X101994529Y-44352014D01*
X101994429Y-44351977D01*
X101994428Y-44351980D01*
X101994346Y-44351946D01*
X101994341Y-44351945D01*
X101994258Y-44351911D01*
X101994233Y-44351900D01*
X101962823Y-44339098D01*
X101947134Y-44332704D01*
X101946387Y-44332404D01*
X101945609Y-44332091D01*
X101945539Y-44332055D01*
X101945538Y-44332058D01*
X101894946Y-44311696D01*
X101893456Y-44311100D01*
X101893373Y-44311067D01*
X101892155Y-44310585D01*
X101873337Y-44303178D01*
X101873337Y-44303177D01*
X101862607Y-44298954D01*
X101852750Y-44293944D01*
X101852688Y-44294072D01*
X101847630Y-44291605D01*
X101842882Y-44288592D01*
X101677712Y-44229778D01*
X101503617Y-44209018D01*
X101498022Y-44209606D01*
X101498019Y-44209606D01*
X101443197Y-44215369D01*
X101430025Y-44216753D01*
X101369209Y-44203826D01*
X101327606Y-44157622D01*
X101321107Y-44095788D01*
X101329500Y-44071773D01*
X101336623Y-44057505D01*
X101359952Y-44010896D01*
X101360459Y-44009880D01*
X101385451Y-43959574D01*
X101391754Y-43948662D01*
X101407367Y-43925163D01*
X101407391Y-43925127D01*
X101410478Y-43920481D01*
X101411432Y-43921115D01*
X101451500Y-43881332D01*
X101512943Y-43871825D01*
X101532147Y-43876926D01*
X101535460Y-43878168D01*
X101542891Y-43881299D01*
X101577812Y-43897695D01*
X101577815Y-43897696D01*
X101584303Y-43900742D01*
X101593578Y-43902186D01*
X101613401Y-43907387D01*
X101615478Y-43908165D01*
X101615479Y-43908165D01*
X101622195Y-43910683D01*
X101667807Y-43914072D01*
X101675827Y-43914992D01*
X101689361Y-43917100D01*
X101704821Y-43917100D01*
X101712276Y-43917377D01*
X101753047Y-43920407D01*
X101753049Y-43920407D01*
X101760196Y-43920938D01*
X101767797Y-43919315D01*
X101788792Y-43917100D01*
X106106612Y-43917100D01*
X106118717Y-43918452D01*
X106118726Y-43918339D01*
X106125864Y-43918913D01*
X106132858Y-43920496D01*
X106184484Y-43917293D01*
X106190713Y-43917100D01*
X106206689Y-43917100D01*
X106210236Y-43916592D01*
X106210237Y-43916592D01*
X106217282Y-43915583D01*
X106225313Y-43914760D01*
X106263824Y-43912371D01*
X106263827Y-43912370D01*
X106270974Y-43911927D01*
X106277714Y-43909494D01*
X106277717Y-43909493D01*
X106279801Y-43908741D01*
X106299691Y-43903781D01*
X106308984Y-43902450D01*
X106315508Y-43899484D01*
X106315511Y-43899483D01*
X106350626Y-43883517D01*
X106358100Y-43880474D01*
X106378354Y-43873162D01*
X106394390Y-43867373D01*
X106394392Y-43867372D01*
X106401134Y-43864938D01*
X106408712Y-43859402D01*
X106426413Y-43849059D01*
X106434957Y-43845174D01*
X106469614Y-43815311D01*
X106475940Y-43810289D01*
X106483840Y-43804518D01*
X106483843Y-43804515D01*
X106486988Y-43802218D01*
X106497913Y-43791293D01*
X106503380Y-43786217D01*
X106534363Y-43759521D01*
X106534366Y-43759518D01*
X106539790Y-43754844D01*
X106544015Y-43748325D01*
X106557297Y-43731909D01*
X109263641Y-41025565D01*
X109319039Y-40997339D01*
X109334776Y-40996100D01*
X109439478Y-40996100D01*
X109440279Y-40996103D01*
X109441118Y-40996110D01*
X109442190Y-40996118D01*
X109444013Y-40996150D01*
X109459566Y-40996567D01*
X109471627Y-40996891D01*
X109471646Y-40996891D01*
X109490676Y-40997401D01*
X109498321Y-40997606D01*
X109500560Y-40997691D01*
X109516433Y-40998471D01*
X109547968Y-41000020D01*
X109550533Y-41000179D01*
X109591557Y-41003270D01*
X109594546Y-41003541D01*
X109610036Y-41005179D01*
X109610036Y-41005178D01*
X109619657Y-41006195D01*
X109629572Y-41007243D01*
X109632935Y-41007656D01*
X109662765Y-41011840D01*
X109666465Y-41012430D01*
X109692015Y-41016998D01*
X109695951Y-41017783D01*
X109718295Y-41022712D01*
X109722300Y-41023683D01*
X109742722Y-41029082D01*
X109746688Y-41030219D01*
X109766548Y-41036355D01*
X109770272Y-41037586D01*
X109786140Y-41043175D01*
X109786145Y-41043177D01*
X109790883Y-41044846D01*
X109794200Y-41046080D01*
X109816768Y-41054934D01*
X109819564Y-41056080D01*
X109843412Y-41066273D01*
X109843431Y-41066280D01*
X109843465Y-41066295D01*
X109845114Y-41067000D01*
X109847208Y-41067923D01*
X109876584Y-41081322D01*
X109878105Y-41082032D01*
X109911396Y-41097933D01*
X109912440Y-41098439D01*
X109950295Y-41117059D01*
X109950761Y-41117290D01*
X109993494Y-41138623D01*
X110039988Y-41161895D01*
X110040255Y-41162027D01*
X110040803Y-41162297D01*
X110041135Y-41162485D01*
X110041143Y-41162470D01*
X110065958Y-41174799D01*
X110065967Y-41174804D01*
X110066123Y-41174882D01*
X110091450Y-41187464D01*
X110091599Y-41187538D01*
X110091735Y-41187605D01*
X110093703Y-41188575D01*
X110093703Y-41188576D01*
X110104374Y-41194661D01*
X110110712Y-41198808D01*
X110135410Y-41214970D01*
X110140679Y-41216930D01*
X110140682Y-41216931D01*
X110236194Y-41252451D01*
X110299742Y-41276084D01*
X110305312Y-41276827D01*
X110305315Y-41276828D01*
X110467953Y-41298529D01*
X110467954Y-41298529D01*
X110473530Y-41299273D01*
X110560834Y-41291327D01*
X110642535Y-41283892D01*
X110642536Y-41283892D01*
X110648137Y-41283382D01*
X110814884Y-41229203D01*
X110819717Y-41226322D01*
X110960655Y-41142306D01*
X110960657Y-41142304D01*
X110965484Y-41139427D01*
X111064804Y-41044846D01*
X111088382Y-41022393D01*
X111088383Y-41022392D01*
X111092452Y-41018517D01*
X111101315Y-41005178D01*
X111165481Y-40908599D01*
X111189477Y-40872482D01*
X111251737Y-40708581D01*
X111276138Y-40534959D01*
X111276445Y-40513000D01*
X111256901Y-40338764D01*
X111241807Y-40295419D01*
X111201093Y-40178502D01*
X111201091Y-40178498D01*
X111199242Y-40173188D01*
X111106332Y-40024501D01*
X111093564Y-40011643D01*
X111015857Y-39933393D01*
X110982789Y-39900094D01*
X110920932Y-39860838D01*
X110881302Y-39812933D01*
X110877399Y-39750881D01*
X110910714Y-39698386D01*
X110974838Y-39675300D01*
X111116305Y-39675300D01*
X111175436Y-39694513D01*
X111187440Y-39704765D01*
X113393485Y-41910810D01*
X113421711Y-41966208D01*
X113422950Y-41981945D01*
X113422950Y-44677582D01*
X113409027Y-44724886D01*
X113410370Y-44725553D01*
X113407868Y-44730592D01*
X113404822Y-44735319D01*
X113402900Y-44740601D01*
X113402898Y-44740604D01*
X113389345Y-44777841D01*
X113344856Y-44900074D01*
X113344152Y-44905649D01*
X113344151Y-44905652D01*
X113339665Y-44941168D01*
X113322882Y-45074020D01*
X113339991Y-45248511D01*
X113363627Y-45319565D01*
X113389746Y-45398080D01*
X113395333Y-45414876D01*
X113398246Y-45419686D01*
X113398247Y-45419688D01*
X113466441Y-45532289D01*
X113486158Y-45564846D01*
X113607951Y-45690966D01*
X113612654Y-45694044D01*
X113612657Y-45694046D01*
X113744698Y-45780451D01*
X113754660Y-45786970D01*
X113918992Y-45848084D01*
X113924562Y-45848827D01*
X113924565Y-45848828D01*
X114087203Y-45870529D01*
X114087204Y-45870529D01*
X114092780Y-45871273D01*
X114205405Y-45861023D01*
X114261785Y-45855892D01*
X114261786Y-45855892D01*
X114267387Y-45855382D01*
X114434134Y-45801203D01*
X114438967Y-45798322D01*
X114579905Y-45714306D01*
X114579907Y-45714304D01*
X114584734Y-45711427D01*
X114650093Y-45649186D01*
X114707632Y-45594393D01*
X114707633Y-45594392D01*
X114711702Y-45590517D01*
X114808727Y-45444482D01*
X114870987Y-45280581D01*
X114876282Y-45242909D01*
X114894947Y-45110096D01*
X114895388Y-45106959D01*
X114895695Y-45085000D01*
X114876151Y-44910764D01*
X114828031Y-44772581D01*
X114820343Y-44750503D01*
X114820342Y-44750502D01*
X114818492Y-44745188D01*
X114815511Y-44740418D01*
X114815509Y-44740413D01*
X114810837Y-44732937D01*
X114795550Y-44679627D01*
X114795550Y-41683286D01*
X114795783Y-41676444D01*
X114799231Y-41625868D01*
X114799231Y-41625865D01*
X114799643Y-41619818D01*
X114788906Y-41558294D01*
X114788137Y-41553085D01*
X114781363Y-41497111D01*
X114780635Y-41491092D01*
X114778493Y-41485425D01*
X114778492Y-41485419D01*
X114777573Y-41482988D01*
X114772575Y-41464720D01*
X114772128Y-41462158D01*
X114771085Y-41456181D01*
X114745986Y-41399005D01*
X114743996Y-41394130D01*
X114724062Y-41341375D01*
X114724062Y-41341374D01*
X114721919Y-41335704D01*
X114717005Y-41328555D01*
X114707800Y-41312015D01*
X114706752Y-41309628D01*
X114704317Y-41304080D01*
X114700631Y-41299276D01*
X114700629Y-41299273D01*
X114666304Y-41254540D01*
X114663209Y-41250280D01*
X114646743Y-41226322D01*
X114627833Y-41198808D01*
X114582306Y-41158245D01*
X114578093Y-41154268D01*
X113454778Y-40030953D01*
X112331059Y-38907235D01*
X112302833Y-38851837D01*
X112312559Y-38790429D01*
X112356523Y-38746465D01*
X112402194Y-38735500D01*
X119784492Y-38735500D01*
X119843623Y-38754713D01*
G37*
%TD.AperFunction*%
%TA.AperFunction,Conductor*%
G36*
X110050584Y-39694513D02*
G01*
X110087129Y-39744813D01*
X110087129Y-39806987D01*
X110050584Y-39857287D01*
X110036480Y-39865860D01*
X109993587Y-39887329D01*
X109993542Y-39887352D01*
X109993494Y-39887376D01*
X109950761Y-39908709D01*
X109950295Y-39908940D01*
X109912403Y-39927578D01*
X109911360Y-39928083D01*
X109878112Y-39943964D01*
X109876518Y-39944709D01*
X109852544Y-39955642D01*
X109852539Y-39955645D01*
X109847350Y-39958012D01*
X109845136Y-39958990D01*
X109819561Y-39969921D01*
X109816766Y-39971066D01*
X109794216Y-39979913D01*
X109790914Y-39981142D01*
X109786142Y-39982823D01*
X109786140Y-39982824D01*
X109770272Y-39988413D01*
X109766548Y-39989644D01*
X109746688Y-39995780D01*
X109742722Y-39996917D01*
X109722300Y-40002316D01*
X109718295Y-40003287D01*
X109695951Y-40008216D01*
X109692015Y-40009001D01*
X109666465Y-40013569D01*
X109662765Y-40014159D01*
X109632935Y-40018343D01*
X109629572Y-40018756D01*
X109619657Y-40019804D01*
X109610036Y-40020821D01*
X109610036Y-40020820D01*
X109594546Y-40022458D01*
X109591557Y-40022729D01*
X109550533Y-40025820D01*
X109547968Y-40025979D01*
X109516433Y-40027528D01*
X109500560Y-40028308D01*
X109498321Y-40028393D01*
X109490676Y-40028598D01*
X109471646Y-40029108D01*
X109471627Y-40029108D01*
X109459580Y-40029431D01*
X109444014Y-40029849D01*
X109442189Y-40029881D01*
X109440988Y-40029890D01*
X109440145Y-40029897D01*
X109439347Y-40029900D01*
X109158388Y-40029900D01*
X109146283Y-40028548D01*
X109146274Y-40028661D01*
X109139136Y-40028087D01*
X109132142Y-40026504D01*
X109080516Y-40029707D01*
X109074287Y-40029900D01*
X109058311Y-40029900D01*
X109054764Y-40030408D01*
X109054763Y-40030408D01*
X109047718Y-40031417D01*
X109039687Y-40032240D01*
X109001179Y-40034629D01*
X109001178Y-40034629D01*
X108994026Y-40035073D01*
X108987284Y-40037507D01*
X108985197Y-40038260D01*
X108965307Y-40043220D01*
X108956016Y-40044550D01*
X108917181Y-40062207D01*
X108914372Y-40063484D01*
X108906893Y-40066528D01*
X108863866Y-40082061D01*
X108858077Y-40086290D01*
X108858075Y-40086291D01*
X108856288Y-40087597D01*
X108838588Y-40097940D01*
X108836568Y-40098859D01*
X108830043Y-40101826D01*
X108795384Y-40131690D01*
X108789072Y-40136702D01*
X108781154Y-40142486D01*
X108781148Y-40142491D01*
X108778012Y-40144782D01*
X108767087Y-40155707D01*
X108761620Y-40160783D01*
X108730637Y-40187479D01*
X108730634Y-40187482D01*
X108725210Y-40192156D01*
X108720987Y-40198672D01*
X108707703Y-40215091D01*
X106001359Y-42921435D01*
X105945961Y-42949661D01*
X105930224Y-42950900D01*
X102888483Y-42950900D01*
X102829352Y-42931687D01*
X102792807Y-42881387D01*
X102791044Y-42825280D01*
X102791992Y-42821587D01*
X102793990Y-42816328D01*
X102818391Y-42642706D01*
X102818698Y-42620747D01*
X102799154Y-42446511D01*
X102797303Y-42441195D01*
X102797253Y-42440976D01*
X102794753Y-42418687D01*
X102794753Y-42153707D01*
X102795897Y-42138576D01*
X102798598Y-42120822D01*
X102799477Y-42115045D01*
X102795084Y-42061037D01*
X102794753Y-42052881D01*
X102794753Y-42043728D01*
X102791396Y-42014928D01*
X102791050Y-42011437D01*
X102788651Y-41981945D01*
X102785062Y-41937827D01*
X102783261Y-41932268D01*
X102782116Y-41926537D01*
X102782241Y-41926512D01*
X102781499Y-41923109D01*
X102781375Y-41923138D01*
X102780031Y-41917450D01*
X102779354Y-41911646D01*
X102754166Y-41842255D01*
X102753025Y-41838933D01*
X102736128Y-41786774D01*
X102730266Y-41768678D01*
X102727231Y-41763677D01*
X102724801Y-41758369D01*
X102724917Y-41758316D01*
X102723410Y-41755172D01*
X102723297Y-41755229D01*
X102720680Y-41750002D01*
X102718687Y-41744512D01*
X102715485Y-41739628D01*
X102715483Y-41739624D01*
X102678203Y-41682762D01*
X102676342Y-41679814D01*
X102657382Y-41648570D01*
X102640350Y-41620501D01*
X102640347Y-41620497D01*
X102638026Y-41616672D01*
X102630586Y-41608248D01*
X102630711Y-41608138D01*
X102628304Y-41605062D01*
X102628152Y-41605189D01*
X102624403Y-41600704D01*
X102621199Y-41595818D01*
X102616960Y-41591802D01*
X102616958Y-41591800D01*
X102564439Y-41542049D01*
X102562489Y-41540151D01*
X101216057Y-40193719D01*
X101187831Y-40138321D01*
X101197557Y-40076913D01*
X101241521Y-40032949D01*
X101278074Y-40022398D01*
X101371535Y-40013892D01*
X101371536Y-40013892D01*
X101377137Y-40013382D01*
X101543884Y-39959203D01*
X101548714Y-39956324D01*
X101548718Y-39956322D01*
X101570245Y-39943489D01*
X101621757Y-39929300D01*
X105509719Y-39929300D01*
X105516561Y-39929533D01*
X105567132Y-39932981D01*
X105567136Y-39932981D01*
X105573182Y-39933393D01*
X105618867Y-39925420D01*
X105634698Y-39922657D01*
X105639908Y-39921888D01*
X105674944Y-39917648D01*
X105701908Y-39914385D01*
X105707580Y-39912242D01*
X105707583Y-39912241D01*
X105710022Y-39911319D01*
X105728277Y-39906325D01*
X105736819Y-39904834D01*
X105742368Y-39902398D01*
X105742372Y-39902397D01*
X105793996Y-39879735D01*
X105798873Y-39877745D01*
X105857296Y-39855669D01*
X105862293Y-39852234D01*
X105862300Y-39852231D01*
X105864451Y-39850753D01*
X105880985Y-39841550D01*
X105888921Y-39838066D01*
X105893734Y-39834373D01*
X105938459Y-39800055D01*
X105942719Y-39796960D01*
X105954133Y-39789115D01*
X105994192Y-39761583D01*
X106034755Y-39716056D01*
X106038732Y-39711843D01*
X106045810Y-39704765D01*
X106101208Y-39676539D01*
X106116945Y-39675300D01*
X109991453Y-39675300D01*
X110050584Y-39694513D01*
G37*
%TD.AperFunction*%
%TD*%
M02*
