%TF.GenerationSoftware,KiCad,Pcbnew,(5.1.12)-1*%
%TF.CreationDate,2021-12-13T16:15:41+08:00*%
%TF.ProjectId,PCB_EK-Link_Lite,5043425f-454b-42d4-9c69-6e6b5f4c6974,rev?*%
%TF.SameCoordinates,Original*%
%TF.FileFunction,Legend,Bot*%
%TF.FilePolarity,Positive*%
%FSLAX46Y46*%
G04 Gerber Fmt 4.6, Leading zero omitted, Abs format (unit mm)*
G04 Created by KiCad (PCBNEW (5.1.12)-1) date 2021-12-13 16:15:41*
%MOMM*%
%LPD*%
G01*
G04 APERTURE LIST*
%ADD10C,0.100000*%
%ADD11C,0.120000*%
G04 APERTURE END LIST*
D10*
%TO.C,svg2mod*%
G36*
X73261592Y-78054805D02*
G01*
X73061394Y-78054805D01*
X72970680Y-78020396D01*
X72925323Y-77917169D01*
X72970680Y-77813161D01*
X73064523Y-77777970D01*
X73261592Y-77777970D01*
X73261592Y-78054805D01*
G37*
G36*
X70849835Y-79775009D02*
G01*
X70997796Y-79775009D01*
X70997796Y-80357606D01*
X70848294Y-80357606D01*
X70742717Y-80336992D01*
X70647930Y-80275148D01*
X70580885Y-80182095D01*
X70558537Y-80067849D01*
X70580307Y-79953217D01*
X70645618Y-79859008D01*
X70740213Y-79796009D01*
X70849835Y-79775009D01*
G37*
G36*
X70965582Y-77777970D02*
G01*
X71115729Y-77777970D01*
X71115729Y-78369177D01*
X70964018Y-78369177D01*
X70856881Y-78348258D01*
X70760693Y-78285500D01*
X70692657Y-78191072D01*
X70669978Y-78075137D01*
X70692070Y-77958812D01*
X70758346Y-77863210D01*
X70854339Y-77799280D01*
X70965582Y-77777970D01*
G37*
G36*
X70827626Y-75780551D02*
G01*
X70980026Y-75780551D01*
X70980026Y-76380626D01*
X70826038Y-76380626D01*
X70717294Y-76359393D01*
X70619663Y-76295694D01*
X70550607Y-76199849D01*
X70527588Y-76082176D01*
X70550012Y-75964105D01*
X70617282Y-75867069D01*
X70714715Y-75802180D01*
X70827626Y-75780551D01*
G37*
G36*
X73577869Y-74966295D02*
G01*
X74090499Y-74966295D01*
X74090499Y-83148705D01*
X73358263Y-82588812D01*
X73446036Y-82529735D01*
X73488952Y-82482262D01*
X73526550Y-82421876D01*
X73543261Y-82382378D01*
X73546299Y-82367187D01*
X73563010Y-82285153D01*
X73525791Y-82219071D01*
X73414134Y-82197043D01*
X73333620Y-82212235D01*
X73288046Y-82291230D01*
X73204493Y-82364149D01*
X73140689Y-82373263D01*
X73022196Y-82340602D01*
X72984218Y-82266924D01*
X73021437Y-82194765D01*
X73109547Y-82163622D01*
X73178668Y-82160584D01*
X73218165Y-82145393D01*
X73248928Y-82106275D01*
X73259182Y-82028419D01*
X73245130Y-81943727D01*
X73202974Y-81902330D01*
X73123979Y-81894735D01*
X73037388Y-81879923D01*
X73008524Y-81835488D01*
X73038907Y-81774723D01*
X73123219Y-81745859D01*
X73209050Y-81764089D01*
X73248548Y-81800548D01*
X73257663Y-81818778D01*
X73300199Y-81875745D01*
X73357926Y-81894735D01*
X73441479Y-81867390D01*
X73498446Y-81819917D01*
X73517435Y-81765608D01*
X73482495Y-81662306D01*
X73449074Y-81614454D01*
X73386030Y-81554448D01*
X73285767Y-81507354D01*
X73217595Y-81491403D01*
X73142208Y-81486086D01*
X73026416Y-81497902D01*
X72928178Y-81533348D01*
X72847495Y-81592426D01*
X72787574Y-81666273D01*
X72751621Y-81746028D01*
X72739636Y-81831690D01*
X72752802Y-81912120D01*
X72792300Y-81976177D01*
X72858129Y-82023861D01*
X72858129Y-82034495D01*
X72813315Y-82067157D01*
X72765462Y-82116529D01*
X72727863Y-82184890D01*
X72715330Y-82262366D01*
X72728834Y-82364402D01*
X72769344Y-82453778D01*
X72836861Y-82530494D01*
X72924803Y-82589150D01*
X73026585Y-82624343D01*
X73142208Y-82636074D01*
X73256988Y-82624259D01*
X73358263Y-82588812D01*
X74090499Y-83148705D01*
X73577869Y-83148705D01*
X70246601Y-83148705D01*
X69733970Y-83148705D01*
X67006501Y-79057500D01*
X69733970Y-74966295D01*
X71397538Y-75561476D01*
X71388013Y-75642438D01*
X71258632Y-75582113D01*
X71243551Y-75540838D01*
X71201482Y-75508691D01*
X71119726Y-75497976D01*
X70826038Y-75499563D01*
X70714417Y-75509931D01*
X70609741Y-75541037D01*
X70512011Y-75592878D01*
X70421226Y-75665457D01*
X70344827Y-75753166D01*
X70290257Y-75850401D01*
X70257515Y-75957160D01*
X70246601Y-76073444D01*
X70257267Y-76190175D01*
X70289265Y-76298274D01*
X70342595Y-76397741D01*
X70417257Y-76488576D01*
X70507099Y-76564280D01*
X70605971Y-76618354D01*
X70713871Y-76650798D01*
X70830801Y-76661613D01*
X71121313Y-76661613D01*
X71199894Y-76651691D01*
X71241963Y-76621926D01*
X71261013Y-76520326D01*
X71261013Y-75637676D01*
X71258632Y-75582113D01*
X71388013Y-75642438D01*
X71388013Y-76523501D01*
X71390394Y-76579063D01*
X71405476Y-76620338D01*
X71447544Y-76652485D01*
X71529301Y-76663201D01*
X71615026Y-76653676D01*
X71654713Y-76623513D01*
X71766985Y-76473935D01*
X71865674Y-76342702D01*
X71950782Y-76229813D01*
X72022308Y-76135269D01*
X72080251Y-76059069D01*
X72124613Y-76001213D01*
X72124613Y-76523501D01*
X71253365Y-77499571D01*
X70964018Y-77501135D01*
X70854046Y-77511350D01*
X70750917Y-77541995D01*
X70654631Y-77593071D01*
X70565188Y-77664577D01*
X70489918Y-77750990D01*
X70436154Y-77846787D01*
X70403896Y-77951969D01*
X70393143Y-78066535D01*
X70403652Y-78181541D01*
X70435177Y-78288042D01*
X70487719Y-78386039D01*
X70561277Y-78475531D01*
X70649792Y-78550116D01*
X70747203Y-78603391D01*
X70853508Y-78635357D01*
X70968710Y-78646012D01*
X71254929Y-78646012D01*
X71332349Y-78636236D01*
X71373796Y-78606911D01*
X71392564Y-78506812D01*
X71392564Y-77637206D01*
X71390218Y-77582465D01*
X71375360Y-77541800D01*
X71333913Y-77510128D01*
X71253365Y-77499571D01*
X72124613Y-76523501D01*
X72126994Y-76579063D01*
X72142076Y-76620338D01*
X72184144Y-76652485D01*
X72265901Y-76663201D01*
X72345276Y-76652485D01*
X72386551Y-76620338D01*
X72401632Y-76577476D01*
X72404013Y-76521913D01*
X72404013Y-75636088D01*
X72388932Y-75547982D01*
X72343688Y-75510676D01*
X72265901Y-75501151D01*
X72190494Y-75509882D01*
X72151601Y-75529726D01*
X72115088Y-75571001D01*
X72009608Y-75714272D01*
X71916474Y-75840346D01*
X71835688Y-75949222D01*
X71767249Y-76040901D01*
X71711158Y-76115381D01*
X71667413Y-76172663D01*
X71667413Y-75636088D01*
X71652332Y-75547982D01*
X71607088Y-75510676D01*
X71531682Y-75501151D01*
X71458657Y-75509088D01*
X71417382Y-75528138D01*
X71397538Y-75561476D01*
X69733970Y-74966295D01*
X70246601Y-74966295D01*
X72964401Y-75478926D01*
X72841810Y-75492684D01*
X72723806Y-75533959D01*
X72610388Y-75602751D01*
X72567526Y-75673394D01*
X72604038Y-75763088D01*
X72663172Y-75826191D01*
X72716751Y-75847226D01*
X72813588Y-75803569D01*
X72886613Y-75770827D01*
X72972338Y-75759913D01*
X73086241Y-75781146D01*
X73186651Y-75844844D01*
X73256897Y-75942872D01*
X73280313Y-76067094D01*
X73269730Y-76154054D01*
X73237980Y-76231842D01*
X73185063Y-76300457D01*
X73083463Y-76372490D01*
X72969163Y-76396501D01*
X72886216Y-76389357D01*
X72812001Y-76367926D01*
X72812001Y-76194888D01*
X72937413Y-76194888D01*
X73007263Y-76182188D01*
X73034251Y-76144882D01*
X73040601Y-76078207D01*
X73033457Y-76010738D01*
X73007263Y-75975813D01*
X72931063Y-75961526D01*
X72651663Y-75961526D01*
X72546888Y-76005976D01*
X72531013Y-76094876D01*
X72531013Y-76444126D01*
X72575463Y-76540963D01*
X72650472Y-76601387D01*
X72033821Y-77874940D01*
X71736653Y-77533980D01*
X71640465Y-77471418D01*
X71539584Y-77526159D01*
X71478587Y-77623130D01*
X71531764Y-77721664D01*
X71846136Y-78067317D01*
X71531764Y-78412970D01*
X71478587Y-78513068D01*
X71538802Y-78608475D01*
X71640465Y-78663216D01*
X71133427Y-79500664D01*
X70848294Y-79502205D01*
X70739924Y-79512272D01*
X70638297Y-79542471D01*
X70543413Y-79592803D01*
X70455272Y-79663267D01*
X70381099Y-79748422D01*
X70328118Y-79842824D01*
X70296329Y-79946474D01*
X70285733Y-80059372D01*
X70296089Y-80172703D01*
X70327155Y-80277653D01*
X70378931Y-80374223D01*
X70451419Y-80462412D01*
X70538645Y-80535911D01*
X70634636Y-80588410D01*
X70739394Y-80619909D01*
X70852918Y-80630409D01*
X71134969Y-80630409D01*
X71211261Y-80620776D01*
X71252105Y-80591878D01*
X71270600Y-80493237D01*
X71270600Y-79636295D01*
X71268288Y-79582351D01*
X71253646Y-79542278D01*
X71212802Y-79511068D01*
X71133427Y-79500664D01*
X71640465Y-78663216D01*
X71736653Y-78600654D01*
X72033821Y-78259694D01*
X71902517Y-79870567D01*
X71609677Y-79534572D01*
X71514890Y-79472921D01*
X71415478Y-79526866D01*
X71355369Y-79622424D01*
X71407772Y-79719523D01*
X71717566Y-80060142D01*
X71407772Y-80400761D01*
X71355369Y-80499402D01*
X71414708Y-80593419D01*
X71514890Y-80647363D01*
X71609677Y-80585713D01*
X71902517Y-80249718D01*
X71600282Y-81519507D01*
X71533060Y-81565841D01*
X71510653Y-81616732D01*
X71533440Y-81689651D01*
X71404313Y-81765608D01*
X71369373Y-81662306D01*
X71335952Y-81614454D01*
X71272908Y-81554448D01*
X71172645Y-81507354D01*
X71104473Y-81491403D01*
X71029086Y-81486086D01*
X70913294Y-81497902D01*
X70815056Y-81533348D01*
X70734373Y-81592426D01*
X70674452Y-81666273D01*
X70638499Y-81746028D01*
X70626514Y-81831690D01*
X70639680Y-81912120D01*
X70679178Y-81976177D01*
X70745007Y-82023861D01*
X70745007Y-82034495D01*
X70700193Y-82067157D01*
X70652340Y-82116529D01*
X70614741Y-82184890D01*
X70602208Y-82262366D01*
X70615712Y-82364402D01*
X70656222Y-82453778D01*
X70723739Y-82530494D01*
X70811681Y-82589150D01*
X70913463Y-82624343D01*
X71029086Y-82636074D01*
X71143866Y-82624259D01*
X71245141Y-82588812D01*
X71332914Y-82529735D01*
X71375830Y-82482262D01*
X71413428Y-82421876D01*
X71430139Y-82382378D01*
X71433177Y-82367187D01*
X71449888Y-82285153D01*
X71412669Y-82219071D01*
X71301012Y-82197043D01*
X71220498Y-82212235D01*
X71174923Y-82291230D01*
X71091371Y-82364149D01*
X71027567Y-82373263D01*
X70909074Y-82340602D01*
X70871096Y-82266924D01*
X70908315Y-82194765D01*
X70996425Y-82163622D01*
X71065546Y-82160584D01*
X71105043Y-82145393D01*
X71135806Y-82106275D01*
X71146060Y-82028419D01*
X71132008Y-81943727D01*
X71089852Y-81902330D01*
X71010857Y-81894735D01*
X70924266Y-81879923D01*
X70895402Y-81835488D01*
X70925785Y-81774723D01*
X71010097Y-81745859D01*
X71095928Y-81764089D01*
X71135426Y-81800548D01*
X71144541Y-81818778D01*
X71187077Y-81875745D01*
X71244804Y-81894735D01*
X71328357Y-81867390D01*
X71385324Y-81819917D01*
X71404313Y-81765608D01*
X71533440Y-81689651D01*
X71952723Y-82540369D01*
X72003614Y-82594298D01*
X72074254Y-82614806D01*
X72089445Y-82614806D01*
X72161604Y-82594298D01*
X72212495Y-82540369D01*
X72631778Y-81689651D01*
X72654565Y-81616732D01*
X72632157Y-81565841D01*
X72564935Y-81519507D01*
X72488219Y-81493682D01*
X72447962Y-81499759D01*
X72422136Y-81521027D01*
X72397071Y-81561284D01*
X72376752Y-81603820D01*
X72338584Y-81687372D01*
X72289781Y-81794661D01*
X72237561Y-81908407D01*
X72185151Y-82022152D01*
X72135779Y-82129442D01*
X72081849Y-82245656D01*
X71778022Y-81580273D01*
X71756754Y-81534699D01*
X71689912Y-81493682D01*
X71600282Y-81519507D01*
X71902517Y-80249718D01*
X72195357Y-80585713D01*
X72290145Y-80647363D01*
X72390327Y-80592648D01*
X72451207Y-80499402D01*
X72397262Y-80400761D01*
X72087469Y-80060142D01*
X72397262Y-79719523D01*
X72451207Y-79622424D01*
X72391097Y-79527636D01*
X72290145Y-79472921D01*
X72195357Y-79534572D01*
X71902517Y-79870567D01*
X72033821Y-78259694D01*
X72330988Y-78600654D01*
X72427177Y-78663216D01*
X72528839Y-78607693D01*
X72590619Y-78513068D01*
X72535877Y-78412970D01*
X72221505Y-78067317D01*
X72535877Y-77721664D01*
X72590619Y-77623130D01*
X72529621Y-77526941D01*
X72427177Y-77471418D01*
X72330988Y-77533980D01*
X72033821Y-77874940D01*
X72650472Y-76601387D01*
X72742151Y-76644547D01*
X72850497Y-76670444D01*
X72975513Y-76679076D01*
X73089912Y-76667913D01*
X72881356Y-77545623D01*
X72793944Y-77601233D01*
X72736856Y-77658321D01*
X72690717Y-77732613D01*
X72660218Y-77820199D01*
X72650052Y-77917169D01*
X72663086Y-78028042D01*
X72702187Y-78125013D01*
X72767355Y-78208081D01*
X72740245Y-78272206D01*
X72704794Y-78354058D01*
X72661000Y-78453635D01*
X72637540Y-78534965D01*
X72661782Y-78589706D01*
X72734510Y-78635063D01*
X72815058Y-78656960D01*
X72865108Y-78642101D01*
X72894042Y-78611603D01*
X72914549Y-78566941D01*
X72955214Y-78472577D01*
X73016037Y-78328512D01*
X73064523Y-78331640D01*
X73261592Y-78331640D01*
X73261592Y-78508376D01*
X73263938Y-78562335D01*
X73278796Y-78603782D01*
X73320243Y-78635454D01*
X73400791Y-78646012D01*
X73465357Y-79500664D01*
X72608415Y-79500664D01*
X72535976Y-79512224D01*
X72505151Y-79548443D01*
X72497444Y-79613176D01*
X72505151Y-79677139D01*
X72531352Y-79710276D01*
X72609957Y-79724147D01*
X72904338Y-79724147D01*
X72904338Y-80499402D01*
X72906649Y-80551805D01*
X72920521Y-80591107D01*
X72961364Y-80622703D01*
X73038427Y-80631951D01*
X73114720Y-80622703D01*
X73154793Y-80591107D01*
X73168664Y-80551034D01*
X73170976Y-80497861D01*
X73170976Y-79724147D01*
X73466898Y-79724147D01*
X73539338Y-79712588D01*
X73570163Y-79676368D01*
X73577869Y-79611635D01*
X73570163Y-79547673D01*
X73543961Y-79514536D01*
X73465357Y-79500664D01*
X73400791Y-78646012D01*
X73487595Y-78631544D01*
X73529042Y-78588142D01*
X73538427Y-78506812D01*
X73538427Y-77638770D01*
X73536080Y-77584811D01*
X73521222Y-77543364D01*
X73479775Y-77511692D01*
X73399227Y-77501135D01*
X73061394Y-77501135D01*
X72970506Y-77512257D01*
X72881356Y-77545623D01*
X73089912Y-76667913D01*
X73196572Y-76634427D01*
X73295494Y-76578617D01*
X73386676Y-76500482D01*
X73463074Y-76406571D01*
X73517644Y-76303433D01*
X73550387Y-76191068D01*
X73561301Y-76069476D01*
X73550188Y-75948478D01*
X73516851Y-75837899D01*
X73461288Y-75737738D01*
X73383501Y-75647994D01*
X73290632Y-75574027D01*
X73189826Y-75521193D01*
X73081082Y-75489492D01*
X72964401Y-75478926D01*
X70246601Y-74966295D01*
X73577869Y-74966295D01*
G37*
G36*
X79851911Y-58403684D02*
G01*
X79321819Y-58287797D01*
X79321819Y-57405147D01*
X79309913Y-57330534D01*
X79272606Y-57298784D01*
X79205931Y-57290847D01*
X79140050Y-57298784D01*
X78299469Y-57203534D01*
X79180531Y-57203534D01*
X79235300Y-57201153D01*
X79277369Y-57186072D01*
X79308325Y-57143209D01*
X79318644Y-57062247D01*
X79308325Y-56988428D01*
X79286894Y-56947947D01*
X79277369Y-56938422D01*
X78804294Y-56578059D01*
X78937453Y-56477285D01*
X79051182Y-56390861D01*
X79145479Y-56318789D01*
X79220346Y-56261067D01*
X79275781Y-56217697D01*
X79307928Y-56172254D01*
X79318644Y-56089903D01*
X79307928Y-56008742D01*
X79275781Y-55966872D01*
X79232919Y-55951790D01*
X79177356Y-55949409D01*
X78296294Y-55949409D01*
X78320106Y-55804947D01*
X78411387Y-55846222D01*
X78458417Y-55829156D01*
X78518544Y-55777959D01*
X78556644Y-55693822D01*
X78536800Y-55640640D01*
X78477269Y-55569997D01*
X78425675Y-55506497D01*
X78401069Y-55430297D01*
X78414474Y-55348276D01*
X78454691Y-55299063D01*
X78521719Y-55282659D01*
X78582837Y-55323140D01*
X78618556Y-55423947D01*
X78633042Y-55486653D01*
X78654275Y-55554122D01*
X78681064Y-55621590D01*
X78712219Y-55684297D01*
X78755280Y-55739661D01*
X78817788Y-55785103D01*
X78897361Y-55815464D01*
X78991619Y-55825584D01*
X79080783Y-55814031D01*
X79162010Y-55779370D01*
X79235300Y-55721603D01*
X79293067Y-55643903D01*
X79327728Y-55549447D01*
X79339281Y-55438234D01*
X79333130Y-55347151D01*
X79314675Y-55264403D01*
X79264669Y-55155659D01*
X79234506Y-55115972D01*
X79156719Y-55066759D01*
X79069406Y-55104859D01*
X79009875Y-55159628D01*
X78990031Y-55215984D01*
X79021781Y-55298534D01*
X79037656Y-55316790D01*
X79058294Y-55341397D01*
X79078931Y-55426328D01*
X79054325Y-55512053D01*
X78986063Y-55546184D01*
X78915419Y-55505703D01*
X78878906Y-55404897D01*
X78866802Y-55341793D01*
X78849538Y-55273134D01*
X78827511Y-55204475D01*
X78801119Y-55141372D01*
X78762027Y-55086007D01*
X78701900Y-55040565D01*
X78623120Y-55010204D01*
X78528069Y-55000084D01*
X78431033Y-55010403D01*
X78346300Y-55041359D01*
X78276648Y-55088984D01*
X78224856Y-55149309D01*
X78178113Y-55236974D01*
X78150067Y-55328520D01*
X78140719Y-55423947D01*
X78145283Y-55496575D01*
X78158975Y-55565234D01*
X78204219Y-55673184D01*
X78254225Y-55744622D01*
X78302644Y-55790659D01*
X78320106Y-55804947D01*
X78296294Y-55949409D01*
X78209378Y-55964490D01*
X78167706Y-56009734D01*
X78158181Y-56085934D01*
X78166119Y-56158959D01*
X78185169Y-56200234D01*
X78216919Y-56222459D01*
X78299469Y-56230397D01*
X78831281Y-56230397D01*
X78767583Y-56279212D01*
X78674912Y-56346284D01*
X78587798Y-56408593D01*
X78540769Y-56443122D01*
X78503462Y-56471697D01*
X78474887Y-56510590D01*
X78456631Y-56577265D01*
X78473300Y-56642353D01*
X78505844Y-56684422D01*
X78523306Y-56697122D01*
X78585417Y-56744350D01*
X78692375Y-56822534D01*
X78791792Y-56894765D01*
X78831281Y-56924134D01*
X78296294Y-56924134D01*
X78241525Y-56926515D01*
X78201044Y-56941597D01*
X78168897Y-56984459D01*
X78158181Y-57065422D01*
X78168897Y-57144003D01*
X78201044Y-57186072D01*
X78242319Y-57201153D01*
X78299469Y-57203534D01*
X79140050Y-57298784D01*
X79105919Y-57325772D01*
X79091631Y-57406734D01*
X79091631Y-57709947D01*
X78293119Y-57709947D01*
X78239144Y-57712328D01*
X78198662Y-57726615D01*
X78166119Y-57768684D01*
X78156594Y-57848059D01*
X78166119Y-57926640D01*
X78198662Y-57967915D01*
X78239938Y-57982203D01*
X78294706Y-57984584D01*
X79091631Y-57984584D01*
X79091631Y-58289384D01*
X79103538Y-58363997D01*
X79140844Y-58395747D01*
X79207519Y-58403684D01*
X79273400Y-58395747D01*
X79307531Y-58368759D01*
X79321819Y-58287797D01*
X79851911Y-58403684D01*
X79851911Y-58916314D01*
X77628089Y-58916314D01*
X77628089Y-58403684D01*
X77628089Y-54097590D01*
X77628089Y-53584960D01*
X78740000Y-52843686D01*
X79851911Y-53584960D01*
X79851911Y-54097590D01*
X79851911Y-58403684D01*
G37*
G36*
X76493688Y-55595661D02*
G01*
X76493688Y-55748061D01*
X75893612Y-55748061D01*
X75893612Y-55594074D01*
X75914845Y-55485330D01*
X75978544Y-55387699D01*
X76074389Y-55318642D01*
X76192062Y-55295624D01*
X76310133Y-55318047D01*
X76407169Y-55385317D01*
X76472058Y-55482750D01*
X76493688Y-55595661D01*
G37*
G36*
X77317468Y-58405536D02*
G01*
X76776263Y-58289649D01*
X76776263Y-57406999D01*
X76764356Y-57332386D01*
X76727050Y-57300636D01*
X76660375Y-57292699D01*
X76594494Y-57300636D01*
X76560363Y-57327624D01*
X76546075Y-57408586D01*
X76546075Y-57711799D01*
X75747562Y-57711799D01*
X75693587Y-57714180D01*
X75653106Y-57728467D01*
X75620562Y-57770536D01*
X75611037Y-57849911D01*
X75620562Y-57928492D01*
X75653106Y-57969767D01*
X75694381Y-57984055D01*
X75749150Y-57986436D01*
X76546075Y-57986436D01*
X76546075Y-58291236D01*
X76557981Y-58365849D01*
X76595288Y-58397599D01*
X76661963Y-58405536D01*
X76727844Y-58397599D01*
X76761975Y-58370611D01*
X76776263Y-58289649D01*
X77317468Y-58405536D01*
X77317468Y-58918166D01*
X75082532Y-58918166D01*
X75849162Y-57189511D01*
X76200000Y-56870424D01*
X76550838Y-57189511D01*
X76650850Y-57245074D01*
X76748481Y-57183161D01*
X76804838Y-57079180D01*
X76741338Y-56981549D01*
X76395263Y-56679924D01*
X76741338Y-56378299D01*
X76804838Y-56280667D01*
X76749275Y-56178274D01*
X76650850Y-56116361D01*
X76550838Y-56170336D01*
X76200000Y-56489424D01*
X75849162Y-56170336D01*
X75747562Y-56116361D01*
X75650725Y-56177480D01*
X75595162Y-56280667D01*
X75658662Y-56378299D01*
X76004737Y-56679924D01*
X75658662Y-56981549D01*
X75595162Y-57079180D01*
X75651519Y-57182367D01*
X75747562Y-57245074D01*
X75849162Y-57189511D01*
X75082532Y-58918166D01*
X75082532Y-58405536D01*
X75082532Y-54099442D01*
X76084063Y-55025302D01*
X75975964Y-55057300D01*
X75876497Y-55110630D01*
X75785662Y-55185292D01*
X75709959Y-55275135D01*
X75655884Y-55374006D01*
X75623440Y-55481907D01*
X75612625Y-55598836D01*
X75612625Y-55889349D01*
X75622547Y-55967930D01*
X75652312Y-56009999D01*
X75753912Y-56029049D01*
X76636563Y-56029049D01*
X76692125Y-56026667D01*
X76733400Y-56011586D01*
X76765547Y-55969517D01*
X76776263Y-55887761D01*
X76774675Y-55594074D01*
X76764307Y-55482453D01*
X76733202Y-55377777D01*
X76681360Y-55280046D01*
X76608781Y-55189261D01*
X76521072Y-55112863D01*
X76423838Y-55058292D01*
X76317078Y-55025550D01*
X76200794Y-55014636D01*
X76084063Y-55025302D01*
X75082532Y-54099442D01*
X75082532Y-53586812D01*
X76200000Y-52841834D01*
X77317468Y-53586812D01*
X77317468Y-54099442D01*
X77317468Y-58405536D01*
G37*
G36*
X73672700Y-58124549D02*
G01*
X73672700Y-57921349D01*
X73707625Y-57829274D01*
X73812400Y-57783236D01*
X73917969Y-57829274D01*
X73953688Y-57924524D01*
X73953688Y-58124549D01*
X73672700Y-58124549D01*
G37*
G36*
X73953688Y-55794099D02*
G01*
X73953688Y-55946499D01*
X73353612Y-55946499D01*
X73353612Y-55792511D01*
X73374845Y-55683767D01*
X73438544Y-55586136D01*
X73534389Y-55517080D01*
X73652062Y-55494061D01*
X73770133Y-55516485D01*
X73867169Y-55583755D01*
X73932058Y-55681188D01*
X73953688Y-55794099D01*
G37*
G36*
X74777468Y-58405536D02*
G01*
X74234675Y-58264249D01*
X74234675Y-57921349D01*
X74223386Y-57829097D01*
X74189519Y-57738610D01*
X74133075Y-57649886D01*
X74075131Y-57591942D01*
X73999725Y-57545111D01*
X73910825Y-57514155D01*
X73812400Y-57503836D01*
X73699864Y-57517065D01*
X73601439Y-57556753D01*
X73517125Y-57622899D01*
X73452037Y-57595382D01*
X73368958Y-57559399D01*
X73267887Y-57514949D01*
X73309162Y-57387949D01*
X73660000Y-57068861D01*
X74010838Y-57387949D01*
X74110850Y-57443511D01*
X74208481Y-57381599D01*
X74264838Y-57277617D01*
X74201338Y-57179986D01*
X73855263Y-56878361D01*
X74201338Y-56576736D01*
X74264838Y-56479105D01*
X74209275Y-56376711D01*
X74110850Y-56314799D01*
X74010838Y-56368774D01*
X73660000Y-56687861D01*
X73309162Y-56368774D01*
X73207562Y-56314799D01*
X73110725Y-56375917D01*
X73055162Y-56479105D01*
X73118662Y-56576736D01*
X73464737Y-56878361D01*
X73118662Y-57179986D01*
X73055162Y-57277617D01*
X73111519Y-57380805D01*
X73207562Y-57443511D01*
X73309162Y-57387949D01*
X73267887Y-57514949D01*
X73185337Y-57491136D01*
X73129775Y-57515742D01*
X73083737Y-57589561D01*
X73061512Y-57671317D01*
X73076594Y-57722117D01*
X73107550Y-57751486D01*
X73152882Y-57772300D01*
X73248661Y-57813575D01*
X73394887Y-57875311D01*
X73391712Y-57924524D01*
X73391712Y-58124549D01*
X73212325Y-58124549D01*
X73157556Y-58126930D01*
X73115487Y-58142011D01*
X73083341Y-58184080D01*
X73072625Y-58265836D01*
X73087309Y-58353942D01*
X73131362Y-58396011D01*
X73213912Y-58405536D01*
X74094975Y-58405536D01*
X74149744Y-58403155D01*
X74191813Y-58388074D01*
X74223959Y-58346005D01*
X74234675Y-58264249D01*
X74777468Y-58405536D01*
X74777468Y-58918166D01*
X72542532Y-58918166D01*
X72542532Y-58405536D01*
X72542532Y-54099442D01*
X73544063Y-55223740D01*
X73435964Y-55255738D01*
X73336497Y-55309068D01*
X73245662Y-55383730D01*
X73169959Y-55473572D01*
X73115884Y-55572444D01*
X73083440Y-55680344D01*
X73072625Y-55797274D01*
X73072625Y-56087786D01*
X73082547Y-56166367D01*
X73112312Y-56208436D01*
X73213912Y-56227486D01*
X74096563Y-56227486D01*
X74152125Y-56225105D01*
X74193400Y-56210024D01*
X74225547Y-56167955D01*
X74236263Y-56086199D01*
X74234675Y-55792511D01*
X74224307Y-55680890D01*
X74193202Y-55576214D01*
X74141360Y-55478484D01*
X74068781Y-55387699D01*
X73981072Y-55311300D01*
X73883838Y-55256730D01*
X73777078Y-55223988D01*
X73660794Y-55213074D01*
X73544063Y-55223740D01*
X72542532Y-54099442D01*
X72542532Y-53586812D01*
X73660000Y-52841834D01*
X74777468Y-53586812D01*
X74777468Y-54099442D01*
X74777468Y-58405536D01*
G37*
G36*
X71418450Y-55670274D02*
G01*
X71418450Y-55822674D01*
X70818375Y-55822674D01*
X70818375Y-55668686D01*
X70839608Y-55559942D01*
X70903306Y-55462311D01*
X70999152Y-55393255D01*
X71116825Y-55370236D01*
X71234895Y-55392660D01*
X71331931Y-55459930D01*
X71396820Y-55557363D01*
X71418450Y-55670274D01*
G37*
G36*
X72232705Y-58403949D02*
G01*
X71624974Y-58133280D01*
X71677808Y-58032474D01*
X71709508Y-57923730D01*
X71720075Y-57807049D01*
X71706317Y-57684458D01*
X71665042Y-57566454D01*
X71596250Y-57453036D01*
X71525606Y-57410174D01*
X71435913Y-57446686D01*
X71372809Y-57505820D01*
X71351775Y-57559399D01*
X71395431Y-57656236D01*
X71428173Y-57729261D01*
X71439088Y-57814986D01*
X71417855Y-57928889D01*
X71354156Y-58029299D01*
X71256128Y-58099545D01*
X71131906Y-58122961D01*
X71044947Y-58112378D01*
X70967159Y-58080628D01*
X70898544Y-58027711D01*
X70826511Y-57926111D01*
X70802500Y-57811811D01*
X70809644Y-57728864D01*
X70831075Y-57654649D01*
X71004112Y-57654649D01*
X71004112Y-57780061D01*
X71016812Y-57849911D01*
X71054119Y-57876899D01*
X71120794Y-57883249D01*
X71188263Y-57876105D01*
X71223188Y-57849911D01*
X71237475Y-57773711D01*
X71237475Y-57494311D01*
X71193025Y-57389536D01*
X71104125Y-57373661D01*
X70677087Y-57246661D01*
X71562913Y-57246661D01*
X71651019Y-57231580D01*
X71688325Y-57186336D01*
X71697850Y-57108549D01*
X71689119Y-57033142D01*
X71669275Y-56994249D01*
X71628000Y-56957736D01*
X71484728Y-56852256D01*
X71358654Y-56759122D01*
X71249778Y-56678336D01*
X71158100Y-56609897D01*
X71083620Y-56553806D01*
X71026337Y-56510061D01*
X71562913Y-56510061D01*
X71651019Y-56494980D01*
X71688325Y-56449736D01*
X71697850Y-56374330D01*
X71689913Y-56301305D01*
X71670863Y-56260030D01*
X71637525Y-56240186D01*
X71556563Y-56230661D01*
X70675500Y-56230661D01*
X70619938Y-56233042D01*
X70578662Y-56248124D01*
X70546516Y-56290192D01*
X70535800Y-56371949D01*
X70545325Y-56457674D01*
X70575487Y-56497361D01*
X70725065Y-56609633D01*
X70856299Y-56708322D01*
X70969187Y-56793430D01*
X71063732Y-56864956D01*
X71139932Y-56922899D01*
X71197788Y-56967261D01*
X70675500Y-56967261D01*
X70619938Y-56969642D01*
X70578662Y-56984724D01*
X70546516Y-57026792D01*
X70535800Y-57108549D01*
X70546516Y-57187924D01*
X70578662Y-57229199D01*
X70621525Y-57244280D01*
X70677087Y-57246661D01*
X71104125Y-57373661D01*
X70754875Y-57373661D01*
X70658037Y-57418111D01*
X70597613Y-57493120D01*
X70554453Y-57584799D01*
X70528557Y-57693145D01*
X70519925Y-57818161D01*
X70531087Y-57932560D01*
X70564573Y-58039220D01*
X70620384Y-58138142D01*
X70698519Y-58229324D01*
X70792429Y-58305722D01*
X70895567Y-58360292D01*
X71007932Y-58393035D01*
X71129525Y-58403949D01*
X71250522Y-58392836D01*
X71361102Y-58359499D01*
X71461263Y-58303936D01*
X71551006Y-58226149D01*
X71624974Y-58133280D01*
X72232705Y-58403949D01*
X72232705Y-58916579D01*
X70007295Y-58916579D01*
X70007295Y-58403949D01*
X70007295Y-54097855D01*
X71008825Y-55099915D01*
X70900727Y-55131913D01*
X70801260Y-55185243D01*
X70710425Y-55259905D01*
X70634721Y-55349747D01*
X70580647Y-55448619D01*
X70548202Y-55556519D01*
X70537387Y-55673449D01*
X70537387Y-55963961D01*
X70547309Y-56042542D01*
X70577075Y-56084611D01*
X70678675Y-56103661D01*
X71561325Y-56103661D01*
X71616888Y-56101280D01*
X71658163Y-56086199D01*
X71690309Y-56044130D01*
X71701025Y-55962374D01*
X71699438Y-55668686D01*
X71689069Y-55557065D01*
X71657964Y-55452389D01*
X71606122Y-55354659D01*
X71533544Y-55263874D01*
X71445834Y-55187475D01*
X71348600Y-55132905D01*
X71241841Y-55100163D01*
X71125556Y-55089249D01*
X71008825Y-55099915D01*
X70007295Y-54097855D01*
X70007295Y-53585225D01*
X71120000Y-52843421D01*
X72232705Y-53585225D01*
X72232705Y-54097855D01*
X72232705Y-58403949D01*
G37*
G36*
X81298256Y-56922547D02*
G01*
X81298256Y-56719347D01*
X81333181Y-56627272D01*
X81437956Y-56581234D01*
X81543525Y-56627272D01*
X81579244Y-56722522D01*
X81579244Y-56922547D01*
X81298256Y-56922547D01*
G37*
G36*
X82391911Y-58403684D02*
G01*
X81861819Y-58287797D01*
X81861819Y-57405147D01*
X81849913Y-57330534D01*
X81812606Y-57298784D01*
X81745931Y-57290847D01*
X81680050Y-57298784D01*
X81645919Y-57325772D01*
X81631631Y-57406734D01*
X81631631Y-57709947D01*
X80833119Y-57709947D01*
X80779144Y-57712328D01*
X80738662Y-57726615D01*
X80706119Y-57768684D01*
X80696594Y-57848059D01*
X80706119Y-57926640D01*
X80738662Y-57967915D01*
X80779938Y-57982203D01*
X80834706Y-57984584D01*
X81631631Y-57984584D01*
X81631631Y-58289384D01*
X81643538Y-58363997D01*
X81680844Y-58395747D01*
X81747519Y-58403684D01*
X81813400Y-58395747D01*
X81847531Y-58368759D01*
X81861819Y-58287797D01*
X82391911Y-58403684D01*
X82391911Y-58916314D01*
X80168089Y-58916314D01*
X80778438Y-56570298D01*
X80874217Y-56611573D01*
X81020444Y-56673309D01*
X81017269Y-56722522D01*
X81017269Y-56922547D01*
X80837881Y-56922547D01*
X80783112Y-56924928D01*
X80741044Y-56940009D01*
X80708897Y-56982078D01*
X80698181Y-57063834D01*
X80712866Y-57151940D01*
X80756919Y-57194009D01*
X80839469Y-57203534D01*
X81720531Y-57203534D01*
X81775300Y-57201153D01*
X81817369Y-57186072D01*
X81849516Y-57144003D01*
X81860231Y-57062247D01*
X81860231Y-56719347D01*
X81848942Y-56627095D01*
X81815076Y-56536608D01*
X81758631Y-56447884D01*
X81700688Y-56389940D01*
X81625281Y-56343109D01*
X81536381Y-56312153D01*
X81437956Y-56301834D01*
X81325420Y-56315063D01*
X81226995Y-56354751D01*
X81142681Y-56420897D01*
X81077594Y-56393380D01*
X80994515Y-56357397D01*
X80893444Y-56312947D01*
X80860106Y-56184359D01*
X80951387Y-56225634D01*
X80998417Y-56208568D01*
X81058544Y-56157372D01*
X81096644Y-56073234D01*
X81076800Y-56020053D01*
X81017269Y-55949409D01*
X80965675Y-55885909D01*
X80941069Y-55809709D01*
X80954474Y-55727688D01*
X80994691Y-55678476D01*
X81061719Y-55662072D01*
X81122837Y-55702553D01*
X81158556Y-55803359D01*
X81173042Y-55866065D01*
X81194275Y-55933534D01*
X81221064Y-56001003D01*
X81252219Y-56063709D01*
X81295280Y-56119073D01*
X81357788Y-56164515D01*
X81437361Y-56194876D01*
X81531619Y-56204997D01*
X81620783Y-56193443D01*
X81702010Y-56158783D01*
X81775300Y-56101015D01*
X81833067Y-56023316D01*
X81867728Y-55928860D01*
X81879281Y-55817647D01*
X81873130Y-55726564D01*
X81854675Y-55643815D01*
X81804669Y-55535072D01*
X81774506Y-55495384D01*
X81696719Y-55446172D01*
X81609406Y-55484272D01*
X81549875Y-55539040D01*
X81530031Y-55595397D01*
X81561781Y-55677947D01*
X81577656Y-55696203D01*
X81598294Y-55720809D01*
X81618931Y-55805740D01*
X81594325Y-55891465D01*
X81526063Y-55925597D01*
X81455419Y-55885115D01*
X81418906Y-55784309D01*
X81406802Y-55721206D01*
X81389538Y-55652547D01*
X81367511Y-55583887D01*
X81341119Y-55520784D01*
X81302027Y-55465420D01*
X81241900Y-55419978D01*
X81163120Y-55389617D01*
X81068069Y-55379497D01*
X80971033Y-55389815D01*
X80886300Y-55420772D01*
X80816648Y-55468397D01*
X80764856Y-55528722D01*
X80718113Y-55616387D01*
X80690067Y-55707933D01*
X80680719Y-55803359D01*
X80685283Y-55875987D01*
X80698975Y-55944647D01*
X80744219Y-56052597D01*
X80794225Y-56124034D01*
X80842644Y-56170072D01*
X80860106Y-56184359D01*
X80893444Y-56312947D01*
X80810894Y-56289134D01*
X80755331Y-56313740D01*
X80709294Y-56387559D01*
X80687069Y-56469315D01*
X80702150Y-56520115D01*
X80733106Y-56549484D01*
X80778438Y-56570298D01*
X80168089Y-58916314D01*
X80168089Y-58403684D01*
X80168089Y-54097590D01*
X81631631Y-54622259D01*
X80833119Y-54622259D01*
X80779144Y-54624640D01*
X80738662Y-54638928D01*
X80706119Y-54680997D01*
X80696594Y-54760372D01*
X80706119Y-54838953D01*
X80738662Y-54880228D01*
X80779938Y-54894515D01*
X80834706Y-54896897D01*
X81631631Y-54896897D01*
X81631631Y-55201697D01*
X81643538Y-55276309D01*
X81680844Y-55308059D01*
X81747519Y-55315997D01*
X81813400Y-55308059D01*
X81847531Y-55281072D01*
X81861819Y-55200109D01*
X81861819Y-54317459D01*
X81849913Y-54242847D01*
X81812606Y-54211097D01*
X81745931Y-54203159D01*
X81680050Y-54211097D01*
X81645919Y-54238084D01*
X81631631Y-54319047D01*
X81631631Y-54622259D01*
X80168089Y-54097590D01*
X80168089Y-53584960D01*
X81280000Y-52843686D01*
X82391911Y-53584960D01*
X82391911Y-54097590D01*
X82391911Y-58403684D01*
G37*
D11*
%TO.C,J3*%
X69400000Y-49260000D02*
X67000000Y-49260000D01*
X69900000Y-52410000D02*
X69900000Y-49760000D01*
X70300000Y-52760000D02*
X82100000Y-52760000D01*
X82500000Y-52360000D02*
X82500000Y-49710000D01*
X83000000Y-49260000D02*
X85400000Y-49260000D01*
X83050000Y-49260000D02*
G75*
G03*
X82500000Y-49710000I-50000J-500000D01*
G01*
X82100000Y-52760000D02*
G75*
G03*
X82500000Y-52360000I0J400000D01*
G01*
X69900000Y-52360000D02*
G75*
G03*
X70300000Y-52760000I400000J0D01*
G01*
X69900000Y-49760000D02*
G75*
G03*
X69400000Y-49260000I-500000J0D01*
G01*
D10*
%TO.C,svg2mod*%
G36*
X81092543Y-87311825D02*
G01*
X80579913Y-87311825D01*
X80579913Y-85622725D01*
X79827438Y-85622725D01*
X79827438Y-86514900D01*
X79516288Y-86514900D01*
X79516288Y-85622725D01*
X78766987Y-85622725D01*
X78766987Y-86518075D01*
X78395512Y-86518075D01*
X78395512Y-85622725D01*
X77662087Y-85368725D01*
X80579913Y-85368725D01*
X80579913Y-84574975D01*
X79881413Y-84574975D01*
X80579913Y-84235250D01*
X80579913Y-83285925D01*
X79211488Y-84022525D01*
X77662087Y-83162100D01*
X77662087Y-84098725D01*
X78525687Y-84578150D01*
X77662087Y-84578150D01*
X77662087Y-85368725D01*
X78395512Y-85622725D01*
X77662087Y-85622725D01*
X77662087Y-87311825D01*
X80579913Y-87311825D01*
X81092543Y-87311825D01*
X81092543Y-87824456D01*
X77149457Y-87824456D01*
X77149457Y-87311825D01*
X77149457Y-83162100D01*
X77149457Y-82649470D01*
X77149457Y-81466544D01*
X81092543Y-82649470D01*
X81092543Y-83162100D01*
X81092543Y-87311825D01*
G37*
G36*
X79536925Y-80108425D02*
G01*
X78705075Y-80108425D01*
X78705075Y-81562575D01*
X79536925Y-81562575D01*
X79536925Y-80108425D01*
G37*
G36*
X81092543Y-78493025D02*
G01*
X80579913Y-78493025D01*
X80579913Y-77632600D01*
X78382812Y-77632600D01*
X78382812Y-76915050D01*
X77662087Y-76737250D01*
X80579913Y-76737250D01*
X80579913Y-75902225D01*
X77662087Y-75902225D01*
X77662087Y-76737250D01*
X78382812Y-76915050D01*
X77662087Y-76915050D01*
X77662087Y-78493025D01*
X80579913Y-78493025D01*
X81092543Y-78493025D01*
X81092543Y-79005655D01*
X81092543Y-80188581D01*
X77149457Y-79005655D01*
X77662087Y-75051325D01*
X77662087Y-75810150D01*
X80579913Y-75810150D01*
X80579913Y-74956075D01*
X79503588Y-74486175D01*
X80579913Y-74486175D01*
X80579913Y-73705125D01*
X77662087Y-73705125D01*
X77662087Y-74600475D01*
X78760637Y-75051325D01*
X77662087Y-75051325D01*
X77149457Y-79005655D01*
X77149457Y-78493025D01*
X77662087Y-72743100D01*
X77662087Y-73533675D01*
X80579913Y-73533675D01*
X80579913Y-72739925D01*
X79881413Y-72739925D01*
X80579913Y-72400200D01*
X80579913Y-71450875D01*
X79211488Y-72187475D01*
X77662087Y-71327050D01*
X77662087Y-72263675D01*
X78525687Y-72743100D01*
X77662087Y-72743100D01*
X77149457Y-78493025D01*
X77149457Y-71327050D01*
X77149457Y-70814419D01*
X81092543Y-70814419D01*
X81092543Y-71327050D01*
X81092543Y-78493025D01*
G37*
G36*
X79495518Y-69436456D02*
G01*
X78908672Y-69376925D01*
X78919388Y-69295169D01*
X78904703Y-69206666D01*
X78860650Y-69163406D01*
X78778100Y-69155469D01*
X78940025Y-68488719D01*
X78972172Y-68446650D01*
X78982888Y-68364894D01*
X78972172Y-68284725D01*
X78940025Y-68244244D01*
X78897956Y-68229163D01*
X78843188Y-68226781D01*
X78788419Y-68229163D01*
X78747144Y-68243450D01*
X78714600Y-68285519D01*
X78705075Y-68365688D01*
X78714600Y-68445856D01*
X78747938Y-68487925D01*
X78790006Y-68502213D01*
X78844775Y-68504594D01*
X78899544Y-68502213D01*
X78940025Y-68488719D01*
X78778100Y-69155469D01*
X77990700Y-69155469D01*
X78452663Y-68504594D01*
X78507431Y-68502213D01*
X78549500Y-68488719D01*
X78580456Y-68446650D01*
X78590775Y-68364894D01*
X78563788Y-68256944D01*
X78495525Y-68228369D01*
X78449488Y-68226781D01*
X78339950Y-68116450D01*
X78432025Y-68139469D01*
X78526481Y-68131531D01*
X78568550Y-68109306D01*
X78589188Y-68045806D01*
X78582838Y-67993419D01*
X78746350Y-67993419D01*
X78800325Y-67991037D01*
X78838425Y-67975956D01*
X78868191Y-67935078D01*
X78878113Y-67853719D01*
X78863428Y-67767597D01*
X78819375Y-67725131D01*
X78738413Y-67717194D01*
X78582838Y-67717194D01*
X78589188Y-67611625D01*
X78586806Y-67557650D01*
X78571725Y-67515581D01*
X78530847Y-67484625D01*
X78449488Y-67474306D01*
X78368922Y-67485022D01*
X78327250Y-67517169D01*
X78313756Y-67559237D01*
X78311375Y-67614006D01*
X78317725Y-67717194D01*
X78098650Y-67717194D01*
X78036737Y-67703700D01*
X78017687Y-67652900D01*
X78015306Y-67595750D01*
X78000225Y-67553681D01*
X77971826Y-67366356D01*
X78067606Y-67399694D01*
X78170087Y-67410806D01*
X78294530Y-67396431D01*
X78401157Y-67353303D01*
X78489969Y-67281425D01*
X78556556Y-67188027D01*
X78596508Y-67080342D01*
X78609825Y-66958369D01*
X78600102Y-66855380D01*
X78570931Y-66767075D01*
X78522314Y-66693455D01*
X78454250Y-66634519D01*
X78367930Y-66594037D01*
X78274069Y-66580544D01*
X78189137Y-66592648D01*
X78129606Y-66628962D01*
X78082775Y-66736119D01*
X78082775Y-67112356D01*
X78008162Y-67059969D01*
X77978000Y-66955194D01*
X77982762Y-66873041D01*
X77997050Y-66810731D01*
X78003400Y-66793269D01*
X78020862Y-66729769D01*
X77949425Y-66642456D01*
X77876400Y-66621819D01*
X77814587Y-66642952D01*
X77770434Y-66706353D01*
X77743943Y-66812021D01*
X77735112Y-66959956D01*
X77745233Y-67070883D01*
X77775594Y-67168712D01*
X77822623Y-67249873D01*
X77882750Y-67310794D01*
X77971826Y-67366356D01*
X78000225Y-67553681D01*
X77893862Y-67517169D01*
X77813297Y-67528281D01*
X77771625Y-67561619D01*
X77758131Y-67603687D01*
X77755750Y-67656869D01*
X77764040Y-67758116D01*
X77788911Y-67841724D01*
X77830362Y-67907694D01*
X77891569Y-67955319D01*
X77975707Y-67983894D01*
X78082775Y-67993419D01*
X78317725Y-67993419D01*
X78312962Y-68058506D01*
X78339950Y-68116450D01*
X78449488Y-68226781D01*
X77893862Y-68226781D01*
X77839094Y-68229163D01*
X77797025Y-68244244D01*
X77766069Y-68285122D01*
X77755750Y-68366481D01*
X77766466Y-68447047D01*
X77798612Y-68488719D01*
X77839887Y-68502213D01*
X77895450Y-68504594D01*
X78452663Y-68504594D01*
X77990700Y-69155469D01*
X77990700Y-68723669D01*
X77978794Y-68647469D01*
X77941487Y-68615719D01*
X77874019Y-68607781D01*
X77806550Y-68615719D01*
X77771625Y-68642706D01*
X77755750Y-68725256D01*
X77755750Y-69296756D01*
X77770831Y-69384863D01*
X77816075Y-69426931D01*
X77897037Y-69436456D01*
X78779688Y-69436456D01*
X78834456Y-69434075D01*
X78876525Y-69418994D01*
X78908672Y-69376925D01*
X79495518Y-69436456D01*
X79495518Y-69949086D01*
X79495518Y-70706765D01*
X78359000Y-69949086D01*
X77222482Y-70706765D01*
X77222482Y-69949086D01*
X77222482Y-69436456D01*
X77222482Y-66580544D01*
X77222482Y-66067914D01*
X78359000Y-65310235D01*
X79495518Y-66067914D01*
X79495518Y-66580544D01*
X79495518Y-69436456D01*
G37*
G36*
X78227237Y-66915506D02*
G01*
X78278037Y-66855181D01*
X78336775Y-66882962D01*
X78359000Y-66962337D01*
X78316931Y-67064731D01*
X78227237Y-67115531D01*
X78227237Y-66915506D01*
G37*
%TD*%
M02*
