M48
; DRILL file {KiCad (5.1.12)-1} date 12/13/21 16:15:50
; FORMAT={-:-/ absolute / metric / decimal}
; #@! TF.CreationDate,2021-12-13T16:15:50+08:00
; #@! TF.GenerationSoftware,Kicad,Pcbnew,(5.1.12)-1
; #@! TF.FileFunction,Plated,1,2,PTH
FMAT,2
METRIC
T1C0.400
T2C0.600
T3C1.000
%
G90
G05
T1
X65.659Y-73.279
X66.04Y-91.186
X66.294Y-100.076
X66.548Y-92.71
X66.548Y-98.298
X66.929Y-50.927
X66.929Y-57.404
X67.056Y-60.833
X67.056Y-62.992
X67.056Y-103.124
X67.31Y-85.979
X67.691Y-65.659
X67.818Y-95.885
X68.326Y-76.2
X68.453Y-50.927
X68.453Y-57.404
X68.58Y-69.088
X68.58Y-71.247
X68.707Y-59.817
X69.088Y-92.964
X69.342Y-80.01
X69.977Y-72.771
X70.231Y-85.598
X70.421Y-83.757
X70.548Y-80.328
X71.374Y-92.075
X71.506Y-71.369
X72.009Y-63.119
X72.037Y-81.505
X72.136Y-53.975
X72.263Y-73.914
X72.644Y-69.088
X73.025Y-85.471
X73.152Y-62.23
X73.279Y-71.822
X73.406Y-55.499
X73.66Y-93.98
X73.914Y-60.579
X73.914Y-80.264
X73.914Y-97.536
X74.295Y-75.311
X74.422Y-89.789
X74.489Y-71.822
X74.549Y-76.708
X74.93Y-67.056
X74.93Y-79.629
X75.184Y-103.124
X75.184Y-104.14
X75.438Y-72.136
X75.438Y-96.012
X75.565Y-75.692
X75.565Y-78.105
X75.946Y-62.103
X76.2Y-58.928
X76.2Y-103.124
X76.2Y-104.14
X77.216Y-103.124
X77.216Y-104.14
X77.343Y-76.454
X77.47Y-78.74
X77.724Y-96.012
X77.851Y-58.42
X77.95Y-80.419
X78.232Y-75.692
X78.232Y-86.995
X78.232Y-89.027
X78.613Y-97.536
X78.74Y-83.82
X78.95Y-72.434
X78.994Y-80.645
X79.375Y-53.594
X79.629Y-66.548
X79.629Y-84.328
X79.629Y-86.614
X79.629Y-88.84
X79.911Y-82.141
X80.362Y-74.323
X80.391Y-54.864
X80.518Y-56.388
X81.28Y-61.468
X81.28Y-92.964
X82.042Y-75.311
X82.169Y-80.137
X82.169Y-96.52
X82.296Y-70.104
X82.55Y-92.075
X83.629Y-57.404
X83.629Y-62.42
X83.693Y-83.947
X83.82Y-50.927
X84.836Y-74.549
X85.344Y-103.124
X86.106Y-50.927
X86.106Y-57.404
X86.106Y-62.42
X86.36Y-95.25
X86.36Y-100.076
X86.55Y-80.118
X86.55Y-85.344
T3
X66.294Y-75.184
X66.294Y-77.724
X66.294Y-80.264
X66.294Y-82.804
X82.55Y-86.868
X82.55Y-89.408
X84.836Y-64.008
X84.836Y-66.548
X84.836Y-69.088
X84.836Y-71.628
X85.09Y-86.868
X85.09Y-89.408
T2
G00X71.88Y-100.22
M15
G01X71.88Y-99.12
M16
G05
G00X71.88Y-104.24
M15
G01X71.88Y-103.44
M16
G05
G00X80.52Y-100.22
M15
G01X80.52Y-99.12
M16
G05
G00X80.52Y-104.24
M15
G01X80.52Y-103.44
M16
G05
T0
M30
