%TF.GenerationSoftware,KiCad,Pcbnew,(5.1.12)-1*%
%TF.CreationDate,2021-12-13T16:15:41+08:00*%
%TF.ProjectId,PCB_EK-Link_Lite,5043425f-454b-42d4-9c69-6e6b5f4c6974,rev?*%
%TF.SameCoordinates,Original*%
%TF.FileFunction,Soldermask,Bot*%
%TF.FilePolarity,Negative*%
%FSLAX46Y46*%
G04 Gerber Fmt 4.6, Leading zero omitted, Abs format (unit mm)*
G04 Created by KiCad (PCBNEW (5.1.12)-1) date 2021-12-13 16:15:41*
%MOMM*%
%LPD*%
G01*
G04 APERTURE LIST*
%ADD10O,1.700000X1.700000*%
%ADD11R,1.700000X1.700000*%
%ADD12C,0.600000*%
%ADD13O,0.900000X1.700000*%
%ADD14O,0.900000X2.000000*%
G04 APERTURE END LIST*
D10*
%TO.C,J6*%
X85090000Y-89408000D03*
D11*
X82550000Y-89408000D03*
%TD*%
D10*
%TO.C,J5*%
X85090000Y-86868000D03*
D11*
X82550000Y-86868000D03*
%TD*%
D10*
%TO.C,J4*%
X84836000Y-64008000D03*
X84836000Y-66548000D03*
X84836000Y-69088000D03*
D11*
X84836000Y-71628000D03*
%TD*%
%TO.C,J3*%
G36*
G01*
X70300000Y-52140000D02*
X70300000Y-49460000D01*
G75*
G02*
X70710000Y-49050000I410000J0D01*
G01*
X71530000Y-49050000D01*
G75*
G02*
X71940000Y-49460000I0J-410000D01*
G01*
X71940000Y-52140000D01*
G75*
G02*
X71530000Y-52550000I-410000J0D01*
G01*
X70710000Y-52550000D01*
G75*
G02*
X70300000Y-52140000I0J410000D01*
G01*
G37*
G36*
G01*
X72840000Y-52140000D02*
X72840000Y-49460000D01*
G75*
G02*
X73250000Y-49050000I410000J0D01*
G01*
X74070000Y-49050000D01*
G75*
G02*
X74480000Y-49460000I0J-410000D01*
G01*
X74480000Y-52140000D01*
G75*
G02*
X74070000Y-52550000I-410000J0D01*
G01*
X73250000Y-52550000D01*
G75*
G02*
X72840000Y-52140000I0J410000D01*
G01*
G37*
G36*
G01*
X75380000Y-52140000D02*
X75380000Y-49460000D01*
G75*
G02*
X75790000Y-49050000I410000J0D01*
G01*
X76610000Y-49050000D01*
G75*
G02*
X77020000Y-49460000I0J-410000D01*
G01*
X77020000Y-52140000D01*
G75*
G02*
X76610000Y-52550000I-410000J0D01*
G01*
X75790000Y-52550000D01*
G75*
G02*
X75380000Y-52140000I0J410000D01*
G01*
G37*
G36*
G01*
X77920000Y-52140000D02*
X77920000Y-49460000D01*
G75*
G02*
X78330000Y-49050000I410000J0D01*
G01*
X79150000Y-49050000D01*
G75*
G02*
X79560000Y-49460000I0J-410000D01*
G01*
X79560000Y-52140000D01*
G75*
G02*
X79150000Y-52550000I-410000J0D01*
G01*
X78330000Y-52550000D01*
G75*
G02*
X77920000Y-52140000I0J410000D01*
G01*
G37*
G36*
G01*
X80460000Y-52140000D02*
X80460000Y-49460000D01*
G75*
G02*
X80870000Y-49050000I410000J0D01*
G01*
X81690000Y-49050000D01*
G75*
G02*
X82100000Y-49460000I0J-410000D01*
G01*
X82100000Y-52140000D01*
G75*
G02*
X81690000Y-52550000I-410000J0D01*
G01*
X80870000Y-52550000D01*
G75*
G02*
X80460000Y-52140000I0J410000D01*
G01*
G37*
%TD*%
D10*
%TO.C,J2*%
X66294000Y-82804000D03*
X66294000Y-80264000D03*
X66294000Y-77724000D03*
D11*
X66294000Y-75184000D03*
%TD*%
D12*
%TO.C,J1*%
X73310000Y-100150000D03*
X79090000Y-100150000D03*
D13*
X80520000Y-103840000D03*
X71880000Y-103840000D03*
D14*
X80520000Y-99670000D03*
X71880000Y-99670000D03*
%TD*%
M02*
