%TF.GenerationSoftware,KiCad,Pcbnew,(6.0.4)*%
%TF.CreationDate,2022-04-23T23:59:38+08:00*%
%TF.ProjectId,USBC_PD_TEST,55534243-5f50-4445-9f54-4553542e6b69,V0.9*%
%TF.SameCoordinates,Original*%
%TF.FileFunction,Copper,L4,Bot*%
%TF.FilePolarity,Positive*%
%FSLAX46Y46*%
G04 Gerber Fmt 4.6, Leading zero omitted, Abs format (unit mm)*
G04 Created by KiCad (PCBNEW (6.0.4)) date 2022-04-23 23:59:38*
%MOMM*%
%LPD*%
G01*
G04 APERTURE LIST*
%TA.AperFunction,NonConductor*%
%ADD10C,0.200000*%
%TD*%
%ADD11C,0.300000*%
%TA.AperFunction,NonConductor*%
%ADD12C,0.300000*%
%TD*%
%TA.AperFunction,ComponentPad*%
%ADD13C,1.800000*%
%TD*%
%TA.AperFunction,ComponentPad*%
%ADD14R,1.700000X1.700000*%
%TD*%
%TA.AperFunction,ComponentPad*%
%ADD15O,1.700000X1.700000*%
%TD*%
%TA.AperFunction,ComponentPad*%
%ADD16C,6.400000*%
%TD*%
%TA.AperFunction,ComponentPad*%
%ADD17C,0.800000*%
%TD*%
%TA.AperFunction,ComponentPad*%
%ADD18O,2.000000X0.900000*%
%TD*%
%TA.AperFunction,ComponentPad*%
%ADD19O,1.700000X0.900000*%
%TD*%
%TA.AperFunction,SMDPad,CuDef*%
%ADD20R,1.000000X0.380000*%
%TD*%
%TA.AperFunction,SMDPad,CuDef*%
%ADD21R,1.150000X0.700000*%
%TD*%
%TA.AperFunction,ComponentPad*%
%ADD22C,4.800000*%
%TD*%
%TA.AperFunction,ViaPad*%
%ADD23C,0.800000*%
%TD*%
%TA.AperFunction,ViaPad*%
%ADD24C,0.600000*%
%TD*%
%TA.AperFunction,Conductor*%
%ADD25C,0.355600*%
%TD*%
%TA.AperFunction,Conductor*%
%ADD26C,1.270000*%
%TD*%
%TA.AperFunction,Conductor*%
%ADD27C,0.203200*%
%TD*%
%TA.AperFunction,Conductor*%
%ADD28C,0.254000*%
%TD*%
G04 APERTURE END LIST*
D10*
X106333000Y-77533500D02*
X108492000Y-77533500D01*
X108492000Y-77533500D02*
X108492000Y-80200500D01*
X108492000Y-80200500D02*
X106333000Y-80200500D01*
X106333000Y-80200500D02*
X106333000Y-77533500D01*
D11*
D12*
X107777571Y-79672571D02*
X106920428Y-79672571D01*
X107349000Y-79672571D02*
X107349000Y-78172571D01*
X107206142Y-78386857D01*
X107063285Y-78529714D01*
X106920428Y-78601142D01*
D13*
%TO.P,TP8,1,1*%
%TO.N,/SBU2*%
X97934000Y-67564000D03*
%TD*%
%TO.P,TP2,1,1*%
%TO.N,VBUS*%
X95284000Y-47879000D03*
%TD*%
D14*
%TO.P,J2,1,Pin_1*%
%TO.N,/USB_D-*%
X112158000Y-61214000D03*
D15*
%TO.P,J2,2,Pin_2*%
%TO.N,/USB_D+*%
X112158000Y-63754000D03*
%TD*%
D16*
%TO.P,H2,1*%
%TO.N,N/C*%
X119734007Y-47484005D03*
D17*
X119734000Y-45084000D03*
X119734000Y-49884000D03*
X122134000Y-47484000D03*
X121431056Y-49181056D03*
X117334000Y-47484000D03*
X118036944Y-49181056D03*
X118036944Y-45786944D03*
X121431056Y-45786944D03*
%TD*%
D18*
%TO.P,J1,S1,SHIELD*%
%TO.N,Earth*%
X118528999Y-58164000D03*
D19*
X122698999Y-66804000D03*
X122698999Y-58164000D03*
D18*
X118528999Y-66804000D03*
%TD*%
D17*
%TO.P,H4,1*%
%TO.N,N/C*%
X118036944Y-79181056D03*
X119734000Y-79884000D03*
X122134000Y-77484000D03*
X121431056Y-75786944D03*
X117334000Y-77484000D03*
D16*
X119734007Y-77483995D03*
D17*
X118036944Y-75786944D03*
X121431056Y-79181056D03*
X119734000Y-75084000D03*
%TD*%
D20*
%TO.P,P1,B1,GND*%
%TO.N,GND*%
X76273993Y-59734000D03*
%TO.P,P1,B2,TX2+*%
%TO.N,unconnected-(P1-PadB2)*%
X76273993Y-60234000D03*
%TO.P,P1,B3,TX2-*%
%TO.N,unconnected-(P1-PadB3)*%
X76273993Y-60734000D03*
%TO.P,P1,B4,VBUS*%
%TO.N,VBUS*%
X76273993Y-61234000D03*
%TO.P,P1,B5,VCONN*%
%TO.N,/VCONN*%
X76273993Y-61734000D03*
%TO.P,P1,B8,SBU2*%
%TO.N,/SBU2*%
X76273993Y-63234000D03*
%TO.P,P1,B9,VBUS*%
%TO.N,VBUS*%
X76273993Y-63734000D03*
%TO.P,P1,B10,RX1-*%
%TO.N,unconnected-(P1-PadB10)*%
X76273993Y-64234000D03*
%TO.P,P1,B11,RX1+*%
%TO.N,unconnected-(P1-PadB11)*%
X76273993Y-64734000D03*
%TO.P,P1,B12,GND*%
%TO.N,GND*%
X76273993Y-65234000D03*
D21*
%TO.P,P1,S1,SHIELD*%
%TO.N,Earth*%
X77113993Y-59064000D03*
%TD*%
D13*
%TO.P,TP4,1,1*%
%TO.N,/VCONN*%
X97934000Y-57404000D03*
%TD*%
%TO.P,TP3,1,1*%
%TO.N,/CC*%
X103014000Y-67564000D03*
%TD*%
%TO.P,TP5,1,1*%
%TO.N,/USB_D-*%
X108729000Y-60579000D03*
%TD*%
D17*
%TO.P,H3,1*%
%TO.N,N/C*%
X81234000Y-75084000D03*
X79536944Y-79181056D03*
D16*
X81234008Y-77483995D03*
D17*
X82931056Y-75786944D03*
X79536944Y-75786944D03*
X82931056Y-79181056D03*
X81234000Y-79884000D03*
X83634000Y-77484000D03*
X78834000Y-77484000D03*
%TD*%
D22*
%TO.P,TP1,1,1*%
%TO.N,VBUS*%
X100728000Y-47879000D03*
%TD*%
D13*
%TO.P,TP6,1,1*%
%TO.N,/USB_D+*%
X108729000Y-64389000D03*
%TD*%
%TO.P,TP10,1,1*%
%TO.N,GND*%
X95284000Y-77724000D03*
%TD*%
D17*
%TO.P,H1,1*%
%TO.N,N/C*%
X81234000Y-45084000D03*
X82931056Y-45786944D03*
X78834000Y-47484000D03*
X81234000Y-49884000D03*
X82931056Y-49181056D03*
X79536944Y-45786944D03*
D16*
X81234008Y-47484005D03*
D17*
X83634000Y-47484000D03*
X79536944Y-49181056D03*
%TD*%
D22*
%TO.P,TP9,1,1*%
%TO.N,GND*%
X100982000Y-76962000D03*
%TD*%
D13*
%TO.P,TP7,1,1*%
%TO.N,/SBU1*%
X103014000Y-57404000D03*
%TD*%
D23*
%TO.N,GND*%
X116095000Y-67818000D03*
X115460000Y-55626000D03*
X101617000Y-64770000D03*
X78774000Y-65913000D03*
X78774000Y-59055000D03*
X78901000Y-66675000D03*
X114571000Y-69342000D03*
X108322600Y-74930000D03*
X94225600Y-74930000D03*
X116095000Y-69342000D03*
X100728000Y-63754000D03*
D24*
X85742000Y-66802000D03*
X89696000Y-57023000D03*
D23*
X79536000Y-65913000D03*
X79663000Y-67437000D03*
X116222000Y-57912000D03*
X101617000Y-60198000D03*
X95698800Y-70739000D03*
X79663000Y-58293000D03*
X80298000Y-59055000D03*
X104665000Y-59563000D03*
X105350800Y-70739000D03*
X92295200Y-74930000D03*
X106951000Y-66167000D03*
X115333000Y-68580000D03*
X96156000Y-74930000D03*
D24*
X92744000Y-57023000D03*
D23*
X115333000Y-67818000D03*
X80425000Y-56769000D03*
X79663000Y-57531000D03*
X116222000Y-56388000D03*
X80425000Y-68199000D03*
X116222000Y-55626000D03*
X101490000Y-70739000D03*
X97629200Y-70739000D03*
X79663000Y-56769000D03*
D24*
X92744000Y-68072000D03*
D23*
X78901000Y-58293000D03*
X99559600Y-70739000D03*
X105046000Y-63754000D03*
X78901000Y-57531000D03*
X90364800Y-74930000D03*
X104461800Y-74930000D03*
X110507000Y-66167000D03*
X88434400Y-74930000D03*
X103420400Y-70739000D03*
X80425000Y-58293000D03*
X104665000Y-65405000D03*
X110253000Y-74930000D03*
X115460000Y-57150000D03*
X110253000Y-62484000D03*
X79663000Y-66675000D03*
X112183400Y-74930000D03*
X115460000Y-56388000D03*
X106951000Y-58801000D03*
X80425000Y-67437000D03*
X106392200Y-74930000D03*
X114571000Y-68580000D03*
X78901000Y-56769000D03*
X78901000Y-68199000D03*
D24*
X89696000Y-68072000D03*
D23*
X106570000Y-62484000D03*
X80425000Y-57531000D03*
X79536000Y-59055000D03*
X100728000Y-61214000D03*
X114698000Y-55626000D03*
X115333000Y-69342000D03*
X79663000Y-68199000D03*
X105046000Y-61214000D03*
X116222000Y-57150000D03*
X80298000Y-65913000D03*
X116095000Y-67056000D03*
X110507000Y-58801000D03*
X114113800Y-74930000D03*
X80425000Y-66675000D03*
X86504000Y-74930000D03*
X78901000Y-67437000D03*
X116095000Y-68580000D03*
X114698000Y-56388000D03*
%TO.N,VBUS*%
X96460800Y-55372000D03*
X82076000Y-56388000D03*
X82838000Y-64770000D03*
X112539000Y-68199000D03*
X111269000Y-51943000D03*
X82076000Y-68580000D03*
X105808000Y-50419000D03*
X115587000Y-59817000D03*
X82838000Y-58674000D03*
X82838000Y-60198000D03*
X82838000Y-59436000D03*
X82076000Y-67056000D03*
X82076000Y-66294000D03*
X82838000Y-67818000D03*
X82076000Y-57150000D03*
X82076000Y-65532000D03*
X112539000Y-56769000D03*
X82838000Y-68580000D03*
X82076000Y-60198000D03*
X114063000Y-66675000D03*
X82838000Y-65532000D03*
X109872000Y-50419000D03*
X114571000Y-58801000D03*
X106570000Y-54483000D03*
X114571000Y-66167000D03*
X82838000Y-67056000D03*
X92600000Y-55372000D03*
X115079000Y-65659000D03*
X104639600Y-54483000D03*
X87545400Y-50800000D03*
X113555000Y-57785000D03*
X82838000Y-57150000D03*
X90669600Y-55372000D03*
X88739200Y-55372000D03*
X82076000Y-67818000D03*
X112031000Y-68707000D03*
X115587000Y-65151000D03*
X113047000Y-57277000D03*
X82838000Y-66294000D03*
X82838000Y-57912000D03*
X102709200Y-54483000D03*
X82076000Y-64770000D03*
X82076000Y-57912000D03*
X113047000Y-67691000D03*
X82076000Y-58674000D03*
X89475800Y-50800000D03*
X100778800Y-54483000D03*
X98848400Y-54483000D03*
X113555000Y-67183000D03*
X112031000Y-56261000D03*
X107967000Y-50419000D03*
X82838000Y-56388000D03*
X94530400Y-55372000D03*
X82076000Y-59436000D03*
X115079000Y-59309000D03*
X93336600Y-50800000D03*
X114063000Y-58293000D03*
X91406200Y-50800000D03*
%TO.N,/USB_D-*%
X119837257Y-62760117D03*
X116476000Y-62032900D03*
D24*
%TO.N,Earth*%
X77249993Y-58166000D03*
X107222000Y-46609000D03*
X77250000Y-67437000D03*
D23*
X123715000Y-63246000D03*
D24*
X91728000Y-79629000D03*
X77250000Y-66802000D03*
D23*
X122826000Y-63246000D03*
D24*
X86521000Y-79629000D03*
X77250000Y-68072000D03*
D23*
X122826000Y-62484000D03*
D24*
X110397000Y-46609000D03*
X77250000Y-57531000D03*
D23*
X123715000Y-61722000D03*
D24*
X87156000Y-45212000D03*
D23*
X123715000Y-62484000D03*
X122826000Y-61722000D03*
D24*
X91855000Y-45212000D03*
X77250000Y-56896000D03*
X116493000Y-81280000D03*
%TD*%
D25*
%TO.N,GND*%
X78095000Y-65234000D02*
X78901000Y-66040000D01*
X76274000Y-65234000D02*
X78095000Y-65234000D01*
X76274000Y-59734000D02*
X78095000Y-59734000D01*
X78901000Y-58928000D02*
X78901000Y-58674000D01*
X78901000Y-66040000D02*
X78901000Y-66294000D01*
X78095000Y-59734000D02*
X78901000Y-58928000D01*
D26*
%TO.N,VBUS*%
X113047000Y-57277000D02*
X115079000Y-59309000D01*
D25*
X76274000Y-61234000D02*
X80278000Y-61234000D01*
X76274000Y-63734000D02*
X80278000Y-63734000D01*
D26*
X115079000Y-65659000D02*
X113047000Y-67691000D01*
X115079000Y-59309000D02*
X115079000Y-65659000D01*
D27*
%TO.N,/USB_D-*%
X116476000Y-62230000D02*
X119307140Y-62230000D01*
X119837200Y-62760117D02*
G75*
G03*
X119307140Y-62230000I-530100J17D01*
G01*
D28*
%TO.N,/VCONN*%
X93604000Y-61734000D02*
X76274000Y-61734000D01*
X97934000Y-57404000D02*
X93604000Y-61734000D01*
%TO.N,/SBU2*%
X93604000Y-63234000D02*
X76274000Y-63234000D01*
X97934000Y-67564000D02*
X93604000Y-63234000D01*
%TD*%
%TA.AperFunction,Conductor*%
%TO.N,/USB_D-*%
G36*
X116805793Y-61807998D02*
G01*
X116809262Y-61811123D01*
X116862950Y-61883751D01*
X116863089Y-61883911D01*
X116863097Y-61883921D01*
X116898397Y-61924557D01*
X116919556Y-61948915D01*
X116919776Y-61949119D01*
X116919781Y-61949124D01*
X116966125Y-61992071D01*
X116976365Y-62001561D01*
X116976686Y-62001787D01*
X116976688Y-62001788D01*
X117034999Y-62042734D01*
X117035003Y-62042736D01*
X117035357Y-62042985D01*
X117098511Y-62074481D01*
X117140279Y-62088263D01*
X117167474Y-62097236D01*
X117167477Y-62097237D01*
X117167808Y-62097346D01*
X117212228Y-62106256D01*
X117244965Y-62112823D01*
X117244968Y-62112824D01*
X117245225Y-62112875D01*
X117245476Y-62112902D01*
X117245481Y-62112903D01*
X117284449Y-62117127D01*
X117332743Y-62122363D01*
X117432342Y-62127106D01*
X117534434Y-62128268D01*
X117542667Y-62131789D01*
X117546000Y-62139967D01*
X117546000Y-62320175D01*
X117542573Y-62328448D01*
X117534579Y-62331872D01*
X117394761Y-62335205D01*
X117394750Y-62335206D01*
X117394606Y-62335209D01*
X117330645Y-62340044D01*
X117266840Y-62344868D01*
X117266833Y-62344869D01*
X117266684Y-62344880D01*
X117208909Y-62352247D01*
X117157056Y-62358859D01*
X117157038Y-62358862D01*
X117156926Y-62358876D01*
X117156803Y-62358897D01*
X117156790Y-62358899D01*
X117111469Y-62366656D01*
X117060022Y-62375461D01*
X117059926Y-62375480D01*
X117059908Y-62375483D01*
X117027719Y-62381765D01*
X116970666Y-62392900D01*
X116883762Y-62409415D01*
X116883367Y-62409484D01*
X116793661Y-62423346D01*
X116793036Y-62423424D01*
X116706409Y-62431846D01*
X116695167Y-62432939D01*
X116694399Y-62432988D01*
X116582916Y-62436457D01*
X116582167Y-62436457D01*
X116575498Y-62436237D01*
X116459675Y-62432412D01*
X116451519Y-62428714D01*
X116448856Y-62424087D01*
X116448657Y-62423426D01*
X116305236Y-61946414D01*
X116306136Y-61937505D01*
X116313513Y-61931718D01*
X116796926Y-61806750D01*
X116805793Y-61807998D01*
G37*
%TD.AperFunction*%
%TD*%
%TA.AperFunction,Conductor*%
%TO.N,/VCONN*%
G36*
X76792573Y-61627927D02*
G01*
X76796000Y-61636200D01*
X76796000Y-61849190D01*
X76792573Y-61857463D01*
X76784190Y-61860889D01*
X76733952Y-61860418D01*
X76733787Y-61860416D01*
X76707598Y-61859801D01*
X76678895Y-61859126D01*
X76630028Y-61857805D01*
X76629830Y-61857802D01*
X76586106Y-61857139D01*
X76586089Y-61857139D01*
X76586018Y-61857138D01*
X76576612Y-61857293D01*
X76545821Y-61857802D01*
X76545805Y-61857803D01*
X76545666Y-61857805D01*
X76545529Y-61857815D01*
X76545522Y-61857815D01*
X76528292Y-61859035D01*
X76507774Y-61860487D01*
X76507581Y-61860515D01*
X76507575Y-61860516D01*
X76471406Y-61865828D01*
X76471404Y-61865828D01*
X76471141Y-61865867D01*
X76470886Y-61865928D01*
X76470876Y-61865930D01*
X76434844Y-61874558D01*
X76434836Y-61874560D01*
X76434570Y-61874624D01*
X76396859Y-61887441D01*
X76396625Y-61887544D01*
X76396624Y-61887544D01*
X76363979Y-61901857D01*
X76355026Y-61902041D01*
X76351171Y-61899575D01*
X76187762Y-61742433D01*
X76184174Y-61734229D01*
X76187762Y-61725567D01*
X76289463Y-61627767D01*
X76297573Y-61624500D01*
X76784300Y-61624500D01*
X76792573Y-61627927D01*
G37*
%TD.AperFunction*%
%TD*%
%TA.AperFunction,Conductor*%
%TO.N,/VCONN*%
G36*
X98248372Y-57089305D02*
G01*
X98251960Y-57097967D01*
X98229519Y-58245864D01*
X98225931Y-58254068D01*
X98221480Y-58256748D01*
X97969635Y-58339668D01*
X97969345Y-58339759D01*
X97742434Y-58407991D01*
X97742344Y-58408018D01*
X97540831Y-58466848D01*
X97540809Y-58466855D01*
X97540774Y-58466865D01*
X97357681Y-58524049D01*
X97185954Y-58587362D01*
X97018485Y-58664597D01*
X97018251Y-58664733D01*
X97018249Y-58664734D01*
X96986089Y-58683418D01*
X96848161Y-58763549D01*
X96667873Y-58892011D01*
X96470511Y-59057777D01*
X96470377Y-59057904D01*
X96470372Y-59057909D01*
X96257233Y-59260771D01*
X96248878Y-59263992D01*
X96240894Y-59260569D01*
X96077431Y-59097106D01*
X96074004Y-59088833D01*
X96077229Y-59080767D01*
X96099227Y-59057655D01*
X96256882Y-58892011D01*
X96280090Y-58867627D01*
X96280095Y-58867622D01*
X96280222Y-58867488D01*
X96445988Y-58670126D01*
X96574450Y-58489838D01*
X96673402Y-58319514D01*
X96750637Y-58152045D01*
X96813950Y-57980318D01*
X96871134Y-57797225D01*
X96929981Y-57595655D01*
X96998240Y-57368654D01*
X96998331Y-57368364D01*
X97081251Y-57116520D01*
X97087093Y-57109734D01*
X97092135Y-57108481D01*
X98240033Y-57086040D01*
X98248372Y-57089305D01*
G37*
%TD.AperFunction*%
%TD*%
%TA.AperFunction,Conductor*%
%TO.N,/SBU2*%
G36*
X76363978Y-63066142D02*
G01*
X76396859Y-63080558D01*
X76434570Y-63093375D01*
X76434836Y-63093439D01*
X76434844Y-63093441D01*
X76470876Y-63102069D01*
X76470886Y-63102071D01*
X76471141Y-63102132D01*
X76471404Y-63102171D01*
X76471406Y-63102171D01*
X76507575Y-63107483D01*
X76507581Y-63107484D01*
X76507774Y-63107512D01*
X76527003Y-63108873D01*
X76545522Y-63110184D01*
X76545529Y-63110184D01*
X76545666Y-63110194D01*
X76545805Y-63110196D01*
X76545821Y-63110197D01*
X76576612Y-63110706D01*
X76586018Y-63110861D01*
X76586089Y-63110860D01*
X76586106Y-63110860D01*
X76630028Y-63110194D01*
X76630398Y-63110184D01*
X76678895Y-63108873D01*
X76707598Y-63108198D01*
X76733787Y-63107583D01*
X76733953Y-63107581D01*
X76784191Y-63107111D01*
X76792495Y-63110460D01*
X76796000Y-63118810D01*
X76796000Y-63331800D01*
X76792573Y-63340073D01*
X76784300Y-63343500D01*
X76297573Y-63343500D01*
X76289463Y-63340233D01*
X76187762Y-63242433D01*
X76184174Y-63234229D01*
X76187762Y-63225567D01*
X76307043Y-63110860D01*
X76351172Y-63068424D01*
X76359510Y-63065159D01*
X76363978Y-63066142D01*
G37*
%TD.AperFunction*%
%TD*%
%TA.AperFunction,Conductor*%
%TO.N,/SBU2*%
G36*
X96257232Y-65707229D02*
G01*
X96470511Y-65910222D01*
X96667873Y-66075988D01*
X96848161Y-66204450D01*
X96986089Y-66284581D01*
X97008669Y-66297699D01*
X97018485Y-66303402D01*
X97185954Y-66380637D01*
X97357681Y-66443950D01*
X97540774Y-66501134D01*
X97540809Y-66501144D01*
X97540831Y-66501151D01*
X97742344Y-66559981D01*
X97742434Y-66560008D01*
X97969345Y-66628240D01*
X97969635Y-66628331D01*
X98221480Y-66711252D01*
X98228266Y-66717094D01*
X98229519Y-66722136D01*
X98251960Y-67870033D01*
X98248695Y-67878372D01*
X98240033Y-67881960D01*
X97092136Y-67859519D01*
X97083932Y-67855931D01*
X97081252Y-67851480D01*
X96998331Y-67599635D01*
X96998240Y-67599345D01*
X96930006Y-67372427D01*
X96929979Y-67372337D01*
X96871163Y-67170872D01*
X96871153Y-67170840D01*
X96871134Y-67170774D01*
X96813950Y-66987681D01*
X96750637Y-66815954D01*
X96673402Y-66648485D01*
X96574450Y-66478161D01*
X96445988Y-66297873D01*
X96280222Y-66100511D01*
X96257007Y-66076119D01*
X96099226Y-65910344D01*
X96077229Y-65887233D01*
X96074008Y-65878878D01*
X96077431Y-65870894D01*
X96240894Y-65707431D01*
X96249167Y-65704004D01*
X96257232Y-65707229D01*
G37*
%TD.AperFunction*%
%TD*%
%TA.AperFunction,Conductor*%
%TO.N,VBUS*%
G36*
X97570000Y-54991000D02*
G01*
X96684427Y-55876573D01*
X96676154Y-55880000D01*
X86140000Y-55880000D01*
X84997000Y-57150000D01*
X82330000Y-55880000D01*
X82330000Y-54487846D01*
X82333427Y-54479573D01*
X86644573Y-50168427D01*
X86652846Y-50165000D01*
X96554000Y-50165000D01*
X97570000Y-49276000D01*
X97570000Y-54991000D01*
G37*
%TD.AperFunction*%
%TD*%
%TA.AperFunction,Conductor*%
%TO.N,VBUS*%
G36*
X103143793Y-44580427D02*
G01*
X103144508Y-44581210D01*
X104408288Y-46097746D01*
X104411000Y-46105236D01*
X104411000Y-48895000D01*
X105300000Y-49784000D01*
X108602000Y-49784000D01*
X108602000Y-54991000D01*
X97172000Y-54991000D01*
X97172000Y-50008634D01*
X99317751Y-50008634D01*
X99318166Y-50009636D01*
X99357350Y-50038105D01*
X99357971Y-50038500D01*
X99638774Y-50192872D01*
X99639435Y-50193183D01*
X99937361Y-50311141D01*
X99938063Y-50311369D01*
X100248421Y-50391055D01*
X100249148Y-50391194D01*
X100567055Y-50431354D01*
X100567783Y-50431400D01*
X100888217Y-50431400D01*
X100888945Y-50431354D01*
X101206852Y-50391194D01*
X101207579Y-50391055D01*
X101517937Y-50311369D01*
X101518639Y-50311141D01*
X101816565Y-50193183D01*
X101817226Y-50192872D01*
X102098029Y-50038500D01*
X102098650Y-50038105D01*
X102137330Y-50010002D01*
X102138260Y-50008484D01*
X102138007Y-50007428D01*
X100729646Y-48599066D01*
X100728000Y-48598384D01*
X100726354Y-48599066D01*
X99318433Y-50006988D01*
X99317751Y-50008634D01*
X97172000Y-50008634D01*
X97172000Y-47879366D01*
X98170576Y-47879366D01*
X98190696Y-48199165D01*
X98190788Y-48199895D01*
X98250832Y-48514654D01*
X98251014Y-48515361D01*
X98350031Y-48820105D01*
X98350304Y-48820794D01*
X98486733Y-49110721D01*
X98487090Y-49111371D01*
X98598477Y-49286889D01*
X98599935Y-49287914D01*
X98600819Y-49287760D01*
X100007934Y-47880646D01*
X100008616Y-47879000D01*
X101447384Y-47879000D01*
X101448066Y-47880646D01*
X102854630Y-49287209D01*
X102856276Y-49287891D01*
X102857106Y-49287547D01*
X102968910Y-49111371D01*
X102969267Y-49110721D01*
X103105696Y-48820794D01*
X103105969Y-48820105D01*
X103204986Y-48515361D01*
X103205168Y-48514654D01*
X103265212Y-48199895D01*
X103265304Y-48199165D01*
X103285424Y-47879366D01*
X103285424Y-47878634D01*
X103265304Y-47558835D01*
X103265212Y-47558105D01*
X103205168Y-47243346D01*
X103204986Y-47242639D01*
X103105969Y-46937895D01*
X103105696Y-46937206D01*
X102969267Y-46647279D01*
X102968910Y-46646629D01*
X102857523Y-46471111D01*
X102856065Y-46470086D01*
X102855181Y-46470240D01*
X101448066Y-47877354D01*
X101447384Y-47879000D01*
X100008616Y-47879000D01*
X100007934Y-47877354D01*
X98601370Y-46470791D01*
X98599724Y-46470109D01*
X98598894Y-46470453D01*
X98487090Y-46646629D01*
X98486733Y-46647279D01*
X98350304Y-46937206D01*
X98350031Y-46937895D01*
X98251014Y-47242639D01*
X98250832Y-47243346D01*
X98190788Y-47558105D01*
X98190696Y-47558835D01*
X98170576Y-47878634D01*
X98170576Y-47879366D01*
X97172000Y-47879366D01*
X97172000Y-46105846D01*
X97175427Y-46097573D01*
X97523484Y-45749516D01*
X99317740Y-45749516D01*
X99317993Y-45750572D01*
X100726354Y-47158934D01*
X100728000Y-47159616D01*
X100729646Y-47158934D01*
X102137567Y-45751012D01*
X102138249Y-45749366D01*
X102137834Y-45748364D01*
X102098650Y-45719895D01*
X102098029Y-45719500D01*
X101817226Y-45565128D01*
X101816565Y-45564817D01*
X101518639Y-45446859D01*
X101517937Y-45446631D01*
X101207579Y-45366945D01*
X101206852Y-45366806D01*
X100888945Y-45326646D01*
X100888216Y-45326600D01*
X100567784Y-45326600D01*
X100567055Y-45326646D01*
X100249148Y-45366806D01*
X100248421Y-45366945D01*
X99938063Y-45446631D01*
X99937361Y-45446859D01*
X99639435Y-45564817D01*
X99638774Y-45565128D01*
X99357971Y-45719500D01*
X99357350Y-45719895D01*
X99318670Y-45747998D01*
X99317740Y-45749516D01*
X97523484Y-45749516D01*
X98692573Y-44580427D01*
X98700846Y-44577000D01*
X103135520Y-44577000D01*
X103143793Y-44580427D01*
G37*
%TD.AperFunction*%
%TD*%
%TA.AperFunction,Conductor*%
%TO.N,VBUS*%
G36*
X85124000Y-60320154D02*
G01*
X85120573Y-60328427D01*
X84746427Y-60702573D01*
X84738154Y-60706000D01*
X82584000Y-60706000D01*
X82582774Y-60707472D01*
X82582773Y-60707472D01*
X82003758Y-61402290D01*
X81995829Y-61406452D01*
X81994770Y-61406500D01*
X76929510Y-61406500D01*
X76921237Y-61403073D01*
X76919781Y-61401298D01*
X76919186Y-61400407D01*
X76919185Y-61400406D01*
X76918545Y-61399448D01*
X76852224Y-61355133D01*
X76851095Y-61354908D01*
X76851094Y-61354908D01*
X76794310Y-61343613D01*
X76794308Y-61343613D01*
X76793741Y-61343500D01*
X76742000Y-61343500D01*
X76742000Y-61124500D01*
X76793741Y-61124500D01*
X76794308Y-61124387D01*
X76794310Y-61124387D01*
X76851094Y-61113092D01*
X76851095Y-61113092D01*
X76852224Y-61112867D01*
X76918545Y-61068552D01*
X76962860Y-61002231D01*
X76967410Y-60979356D01*
X76972385Y-60971910D01*
X76973647Y-60971177D01*
X76996000Y-60960000D01*
X77122151Y-60707698D01*
X77124343Y-60704657D01*
X77246573Y-60582427D01*
X77254846Y-60579000D01*
X80298000Y-60579000D01*
X81441000Y-58674000D01*
X81441000Y-55764700D01*
X81444427Y-55756427D01*
X81452700Y-55753000D01*
X85124000Y-55753000D01*
X85124000Y-60320154D01*
G37*
%TD.AperFunction*%
%TD*%
%TA.AperFunction,Conductor*%
%TO.N,VBUS*%
G36*
X110129488Y-49787890D02*
G01*
X113425011Y-53463666D01*
X113428000Y-53471476D01*
X113428000Y-56769000D01*
X116090962Y-59431962D01*
X116093323Y-59437662D01*
X114695051Y-60823784D01*
X110635911Y-56769000D01*
X108856000Y-54991000D01*
X108475000Y-54991000D01*
X108475000Y-49784000D01*
X110120777Y-49784000D01*
X110129488Y-49787890D01*
G37*
%TD.AperFunction*%
%TD*%
%TA.AperFunction,Conductor*%
%TO.N,VBUS*%
G36*
X116090962Y-59431962D02*
G01*
X116094389Y-59440235D01*
X116094301Y-59441667D01*
X115841000Y-61495671D01*
X115836019Y-63465468D01*
X115836065Y-63465832D01*
X115836065Y-63465838D01*
X116094288Y-65526320D01*
X116091917Y-65534955D01*
X116090952Y-65536048D01*
X111907921Y-69719079D01*
X111899648Y-69722506D01*
X111898484Y-69722448D01*
X110642421Y-69596842D01*
X110634530Y-69592609D01*
X110632164Y-69587738D01*
X110381393Y-68459270D01*
X110382943Y-68450451D01*
X110384541Y-68448459D01*
X113682000Y-65151000D01*
X113682000Y-59817000D01*
X111779848Y-57914848D01*
X111777469Y-57910125D01*
X112031000Y-56896000D01*
X113174000Y-56515000D01*
X116090962Y-59431962D01*
G37*
%TD.AperFunction*%
%TD*%
%TA.AperFunction,Conductor*%
%TO.N,VBUS*%
G36*
X82003043Y-63564927D02*
G01*
X82003758Y-63565710D01*
X82336342Y-63964811D01*
X82584000Y-64262000D01*
X84865154Y-64262000D01*
X84873427Y-64265427D01*
X85120573Y-64512573D01*
X85124000Y-64520846D01*
X85124000Y-68956154D01*
X85120573Y-68964427D01*
X84873427Y-69211573D01*
X84865154Y-69215000D01*
X81699846Y-69215000D01*
X81691573Y-69211573D01*
X81444427Y-68964427D01*
X81441000Y-68956154D01*
X81441000Y-66294000D01*
X80377108Y-64520846D01*
X80299197Y-64390994D01*
X80299196Y-64390993D01*
X80298000Y-64389000D01*
X77254846Y-64389000D01*
X77246573Y-64385573D01*
X77124343Y-64263343D01*
X77122151Y-64260302D01*
X76996000Y-64008000D01*
X76973652Y-63996826D01*
X76967785Y-63990062D01*
X76967410Y-63988644D01*
X76963085Y-63966900D01*
X76962860Y-63965769D01*
X76918545Y-63899448D01*
X76852224Y-63855133D01*
X76851095Y-63854908D01*
X76851094Y-63854908D01*
X76794310Y-63843613D01*
X76794308Y-63843613D01*
X76793741Y-63843500D01*
X76742000Y-63843500D01*
X76742000Y-63624500D01*
X76793741Y-63624500D01*
X76794308Y-63624387D01*
X76794310Y-63624387D01*
X76851094Y-63613092D01*
X76851095Y-63613092D01*
X76852224Y-63612867D01*
X76918545Y-63568552D01*
X76919781Y-63566702D01*
X76927225Y-63561725D01*
X76929510Y-63561500D01*
X81994770Y-63561500D01*
X82003043Y-63564927D01*
G37*
%TD.AperFunction*%
%TD*%
%TA.AperFunction,Conductor*%
%TO.N,GND*%
G36*
X81043000Y-69088000D02*
G01*
X81932000Y-69977000D01*
X85488000Y-69977000D01*
X86246573Y-69218427D01*
X86254846Y-69215000D01*
X96658691Y-69215000D01*
X96667495Y-69218995D01*
X97553000Y-70231000D01*
X104538000Y-70231000D01*
X104538000Y-79623746D01*
X104534073Y-79632491D01*
X103398324Y-80642045D01*
X103390551Y-80645000D01*
X98573499Y-80645000D01*
X98565661Y-80641987D01*
X98337634Y-80436236D01*
X97446835Y-79632461D01*
X97442974Y-79623833D01*
X97442974Y-79623746D01*
X97440336Y-79091634D01*
X99571751Y-79091634D01*
X99572166Y-79092636D01*
X99611350Y-79121105D01*
X99611971Y-79121500D01*
X99892774Y-79275872D01*
X99893435Y-79276183D01*
X100191361Y-79394141D01*
X100192063Y-79394369D01*
X100502421Y-79474055D01*
X100503148Y-79474194D01*
X100821055Y-79514354D01*
X100821783Y-79514400D01*
X101142217Y-79514400D01*
X101142945Y-79514354D01*
X101460852Y-79474194D01*
X101461579Y-79474055D01*
X101771937Y-79394369D01*
X101772639Y-79394141D01*
X102070565Y-79276183D01*
X102071226Y-79275872D01*
X102352029Y-79121500D01*
X102352650Y-79121105D01*
X102391330Y-79093002D01*
X102392260Y-79091484D01*
X102392007Y-79090428D01*
X100983646Y-77682066D01*
X100982000Y-77681384D01*
X100980354Y-77682066D01*
X99572433Y-79089988D01*
X99571751Y-79091634D01*
X97440336Y-79091634D01*
X97429780Y-76962366D01*
X98424576Y-76962366D01*
X98444696Y-77282165D01*
X98444788Y-77282895D01*
X98504832Y-77597654D01*
X98505014Y-77598361D01*
X98604031Y-77903105D01*
X98604304Y-77903794D01*
X98740733Y-78193721D01*
X98741090Y-78194371D01*
X98852477Y-78369889D01*
X98853935Y-78370914D01*
X98854819Y-78370760D01*
X100261934Y-76963646D01*
X100262616Y-76962000D01*
X101701384Y-76962000D01*
X101702066Y-76963646D01*
X103108630Y-78370209D01*
X103110276Y-78370891D01*
X103111106Y-78370547D01*
X103222910Y-78194371D01*
X103223267Y-78193721D01*
X103359696Y-77903794D01*
X103359969Y-77903105D01*
X103458986Y-77598361D01*
X103459168Y-77597654D01*
X103519212Y-77282895D01*
X103519304Y-77282165D01*
X103539424Y-76962366D01*
X103539424Y-76961634D01*
X103519304Y-76641835D01*
X103519212Y-76641105D01*
X103459168Y-76326346D01*
X103458986Y-76325639D01*
X103359969Y-76020895D01*
X103359696Y-76020206D01*
X103223267Y-75730279D01*
X103222910Y-75729629D01*
X103111523Y-75554111D01*
X103110065Y-75553086D01*
X103109181Y-75553240D01*
X101702066Y-76960354D01*
X101701384Y-76962000D01*
X100262616Y-76962000D01*
X100261934Y-76960354D01*
X98855370Y-75553791D01*
X98853724Y-75553109D01*
X98852894Y-75553453D01*
X98741090Y-75729629D01*
X98740733Y-75730279D01*
X98604304Y-76020206D01*
X98604031Y-76020895D01*
X98505014Y-76325639D01*
X98504832Y-76326346D01*
X98444788Y-76641105D01*
X98444696Y-76641835D01*
X98424576Y-76961634D01*
X98424576Y-76962366D01*
X97429780Y-76962366D01*
X97426000Y-76200000D01*
X96664000Y-75438000D01*
X86254701Y-75438000D01*
X86246606Y-75434747D01*
X85618191Y-74832516D01*
X99571740Y-74832516D01*
X99571993Y-74833572D01*
X100980354Y-76241934D01*
X100982000Y-76242616D01*
X100983646Y-76241934D01*
X102391567Y-74834012D01*
X102392249Y-74832366D01*
X102391834Y-74831364D01*
X102352650Y-74802895D01*
X102352029Y-74802500D01*
X102071226Y-74648128D01*
X102070565Y-74647817D01*
X101772639Y-74529859D01*
X101771937Y-74529631D01*
X101461579Y-74449945D01*
X101460852Y-74449806D01*
X101142945Y-74409646D01*
X101142216Y-74409600D01*
X100821784Y-74409600D01*
X100821055Y-74409646D01*
X100503148Y-74449806D01*
X100502421Y-74449945D01*
X100192063Y-74529631D01*
X100191361Y-74529859D01*
X99893435Y-74647817D01*
X99892774Y-74648128D01*
X99611971Y-74802500D01*
X99611350Y-74802895D01*
X99572670Y-74830998D01*
X99571740Y-74832516D01*
X85618191Y-74832516D01*
X83203634Y-72518566D01*
X83202000Y-72517000D01*
X80984201Y-72517000D01*
X80976106Y-72513747D01*
X80470196Y-72028917D01*
X79458375Y-71059255D01*
X79454903Y-71052563D01*
X79330136Y-70229096D01*
X79138000Y-68961000D01*
X81043000Y-68961000D01*
X81043000Y-69088000D01*
G37*
%TD.AperFunction*%
%TD*%
%TA.AperFunction,Conductor*%
%TO.N,GND*%
G36*
X80555427Y-55883427D02*
G01*
X81056573Y-56384573D01*
X81060000Y-56392846D01*
X81060000Y-58670689D01*
X81058264Y-58676821D01*
X80047426Y-60319432D01*
X80040172Y-60324682D01*
X80037462Y-60325000D01*
X77254846Y-60325000D01*
X77246573Y-60321573D01*
X77124343Y-60199343D01*
X77122151Y-60196302D01*
X76996000Y-59944000D01*
X76954567Y-59944000D01*
X76946294Y-59940573D01*
X76944842Y-59938804D01*
X76918545Y-59899448D01*
X76852224Y-59855133D01*
X76851095Y-59854908D01*
X76851094Y-59854908D01*
X76794310Y-59843613D01*
X76794308Y-59843613D01*
X76793741Y-59843500D01*
X76742000Y-59843500D01*
X76742000Y-59614500D01*
X77708741Y-59614500D01*
X77709308Y-59614387D01*
X77709310Y-59614387D01*
X77766094Y-59603092D01*
X77766095Y-59603092D01*
X77767224Y-59602867D01*
X77823937Y-59564972D01*
X77830437Y-59563000D01*
X78012000Y-59563000D01*
X78266000Y-59309000D01*
X78266000Y-56392846D01*
X78269427Y-56384573D01*
X78770573Y-55883427D01*
X78778846Y-55880000D01*
X80547154Y-55880000D01*
X80555427Y-55883427D01*
G37*
%TD.AperFunction*%
%TD*%
%TA.AperFunction,Conductor*%
%TO.N,GND*%
G36*
X116727074Y-68901690D02*
G01*
X116727073Y-68901695D01*
X116666215Y-72950445D01*
X116663213Y-72958096D01*
X114383706Y-75490881D01*
X114374832Y-75494753D01*
X112691341Y-75469213D01*
X110634000Y-75438000D01*
X105317000Y-75438000D01*
X104428000Y-76327000D01*
X104411000Y-70231000D01*
X112412000Y-70231000D01*
X112413622Y-70229503D01*
X113934200Y-68825893D01*
X113934200Y-68825892D01*
X113936000Y-68824231D01*
X114063000Y-68707000D01*
X116730000Y-68707000D01*
X116727074Y-68901690D01*
G37*
%TD.AperFunction*%
%TD*%
%TA.AperFunction,Conductor*%
%TO.N,GND*%
G36*
X116352427Y-54867427D02*
G01*
X116980573Y-55495573D01*
X116984000Y-55503846D01*
X116984000Y-58547000D01*
X117492000Y-59055000D01*
X118474018Y-59742413D01*
X118478775Y-59749682D01*
X118484232Y-59776743D01*
X118484592Y-59777450D01*
X118484593Y-59777452D01*
X118548114Y-59902120D01*
X118552706Y-59911132D01*
X118553248Y-59911721D01*
X118553249Y-59911723D01*
X118610275Y-59973738D01*
X118654798Y-60022156D01*
X118782985Y-60101635D01*
X118783748Y-60101857D01*
X118783751Y-60101858D01*
X118876800Y-60128891D01*
X118927824Y-60143715D01*
X118928425Y-60143759D01*
X118928430Y-60143760D01*
X118938318Y-60144486D01*
X118938328Y-60144486D01*
X118938514Y-60144500D01*
X119046784Y-60144500D01*
X119123949Y-60133929D01*
X119157644Y-60129314D01*
X119157645Y-60129314D01*
X119158431Y-60129206D01*
X119159157Y-60128892D01*
X119159160Y-60128891D01*
X119239177Y-60094264D01*
X119296854Y-60069305D01*
X119414069Y-59974386D01*
X119432166Y-59948922D01*
X119439751Y-59944164D01*
X119441702Y-59944000D01*
X121314037Y-59944000D01*
X121322449Y-59947569D01*
X121806713Y-60448599D01*
X121810000Y-60456730D01*
X121810000Y-64511270D01*
X121806713Y-64519401D01*
X121322655Y-65020219D01*
X121322450Y-65020431D01*
X121314037Y-65024000D01*
X119440203Y-65024000D01*
X119431591Y-65020219D01*
X119363742Y-64946433D01*
X119363740Y-64946432D01*
X119363200Y-64945844D01*
X119235013Y-64866365D01*
X119234250Y-64866143D01*
X119234247Y-64866142D01*
X119129602Y-64835740D01*
X119090174Y-64824285D01*
X119089573Y-64824241D01*
X119089568Y-64824240D01*
X119079680Y-64823514D01*
X119079670Y-64823514D01*
X119079484Y-64823500D01*
X118971214Y-64823500D01*
X118894049Y-64834071D01*
X118860354Y-64838686D01*
X118860353Y-64838686D01*
X118859567Y-64838794D01*
X118858841Y-64839108D01*
X118858838Y-64839109D01*
X118778821Y-64873736D01*
X118721144Y-64898695D01*
X118603929Y-64993614D01*
X118603470Y-64994260D01*
X118603468Y-64994262D01*
X118552572Y-65065880D01*
X118516557Y-65116558D01*
X118465466Y-65258468D01*
X118465269Y-65258397D01*
X118461627Y-65264298D01*
X117970670Y-65657064D01*
X117492000Y-66040000D01*
X116984000Y-66675000D01*
X116983811Y-66676639D01*
X116727106Y-68901411D01*
X116727105Y-68901422D01*
X116660845Y-69475674D01*
X116095000Y-69977000D01*
X114444000Y-69977000D01*
X113936000Y-69469000D01*
X113936000Y-68203846D01*
X113939427Y-68195573D01*
X116476000Y-65659000D01*
X116728802Y-63636580D01*
X116733229Y-63628797D01*
X116739634Y-63626358D01*
X120537677Y-63373155D01*
X120540000Y-63373000D01*
X120540000Y-61595000D01*
X118258932Y-61442929D01*
X116739634Y-61341642D01*
X116731607Y-61337673D01*
X116728802Y-61331419D01*
X116571078Y-60069621D01*
X116476000Y-59309000D01*
X113939427Y-56772427D01*
X113936000Y-56764154D01*
X113936000Y-55376846D01*
X113939427Y-55368573D01*
X114440573Y-54867427D01*
X114448846Y-54864000D01*
X116344154Y-54864000D01*
X116352427Y-54867427D01*
G37*
%TD.AperFunction*%
%TD*%
%TA.AperFunction,Conductor*%
%TO.N,GND*%
G36*
X80045735Y-64646427D02*
G01*
X80047426Y-64648568D01*
X81058264Y-66291179D01*
X81060000Y-66297311D01*
X81060000Y-69076300D01*
X81056573Y-69084573D01*
X81048300Y-69088000D01*
X78277700Y-69088000D01*
X78269427Y-69084573D01*
X78266000Y-69076300D01*
X78266000Y-65659000D01*
X78012000Y-65405000D01*
X76742000Y-65405000D01*
X76742000Y-65124500D01*
X76793741Y-65124500D01*
X76794308Y-65124387D01*
X76794310Y-65124387D01*
X76851094Y-65113092D01*
X76851095Y-65113092D01*
X76852224Y-65112867D01*
X76918545Y-65068552D01*
X76944840Y-65029199D01*
X76952284Y-65024225D01*
X76954567Y-65024000D01*
X76996000Y-65024000D01*
X77122151Y-64771698D01*
X77124343Y-64768657D01*
X77246573Y-64646427D01*
X77254846Y-64643000D01*
X80037462Y-64643000D01*
X80045735Y-64646427D01*
G37*
%TD.AperFunction*%
%TD*%
%TA.AperFunction,Conductor*%
%TO.N,GND*%
G36*
X108699453Y-55380922D02*
G01*
X111497726Y-58176191D01*
X111498924Y-58177596D01*
X111506551Y-58188145D01*
X113292073Y-59973667D01*
X113295500Y-59981940D01*
X113295500Y-60083698D01*
X113292073Y-60091971D01*
X113283800Y-60095398D01*
X113275534Y-60091978D01*
X113233286Y-60049803D01*
X113233283Y-60049801D01*
X113232601Y-60049120D01*
X113148155Y-60007842D01*
X113119314Y-59993744D01*
X113119312Y-59993743D01*
X113118497Y-59993345D01*
X113044158Y-59982500D01*
X111271842Y-59982500D01*
X111271417Y-59982563D01*
X111271411Y-59982563D01*
X111207741Y-59991936D01*
X111196856Y-59993538D01*
X111196036Y-59993941D01*
X111196035Y-59993941D01*
X111083720Y-60049085D01*
X111083718Y-60049086D01*
X111082849Y-60049513D01*
X111082165Y-60050199D01*
X111082164Y-60050199D01*
X110993803Y-60138714D01*
X110993801Y-60138717D01*
X110993120Y-60139399D01*
X110992696Y-60140267D01*
X110992695Y-60140268D01*
X110966801Y-60193243D01*
X110937345Y-60253503D01*
X110926500Y-60327842D01*
X110926500Y-62100158D01*
X110926563Y-62100583D01*
X110926563Y-62100589D01*
X110929692Y-62121844D01*
X110937538Y-62175144D01*
X110937941Y-62175964D01*
X110937941Y-62175965D01*
X110967961Y-62237107D01*
X110993513Y-62289151D01*
X110994199Y-62289835D01*
X110994199Y-62289836D01*
X111082714Y-62378197D01*
X111082717Y-62378199D01*
X111083399Y-62378880D01*
X111084267Y-62379304D01*
X111084268Y-62379305D01*
X111196686Y-62434256D01*
X111196688Y-62434257D01*
X111197503Y-62434655D01*
X111271842Y-62445500D01*
X113044158Y-62445500D01*
X113044583Y-62445437D01*
X113044589Y-62445437D01*
X113116943Y-62434786D01*
X113119144Y-62434462D01*
X113119965Y-62434059D01*
X113232280Y-62378915D01*
X113232282Y-62378914D01*
X113233151Y-62378487D01*
X113275520Y-62336044D01*
X113283790Y-62332610D01*
X113292066Y-62336030D01*
X113295500Y-62344310D01*
X113295500Y-63226623D01*
X113292073Y-63234896D01*
X113283800Y-63238323D01*
X113275527Y-63234896D01*
X113273196Y-63231568D01*
X113249235Y-63180184D01*
X113228584Y-63135898D01*
X113104987Y-62959383D01*
X112952617Y-62807013D01*
X112776102Y-62683416D01*
X112688253Y-62642451D01*
X112581271Y-62592564D01*
X112581267Y-62592563D01*
X112580807Y-62592348D01*
X112580311Y-62592215D01*
X112580308Y-62592214D01*
X112373159Y-62536709D01*
X112373155Y-62536708D01*
X112372665Y-62536577D01*
X112372161Y-62536533D01*
X112372156Y-62536532D01*
X112158514Y-62517841D01*
X112158000Y-62517796D01*
X112157486Y-62517841D01*
X111943844Y-62536532D01*
X111943839Y-62536533D01*
X111943335Y-62536577D01*
X111942845Y-62536708D01*
X111942841Y-62536709D01*
X111735692Y-62592214D01*
X111735689Y-62592215D01*
X111735193Y-62592348D01*
X111734733Y-62592563D01*
X111734729Y-62592564D01*
X111627747Y-62642451D01*
X111539898Y-62683416D01*
X111363383Y-62807013D01*
X111211013Y-62959383D01*
X111087416Y-63135898D01*
X110996348Y-63331193D01*
X110996215Y-63331689D01*
X110996214Y-63331692D01*
X110955433Y-63483893D01*
X110940577Y-63539335D01*
X110940533Y-63539839D01*
X110940532Y-63539844D01*
X110922976Y-63740512D01*
X110921796Y-63754000D01*
X110921841Y-63754514D01*
X110939833Y-63960158D01*
X110940577Y-63968665D01*
X110996348Y-64176807D01*
X111087416Y-64372102D01*
X111211013Y-64548617D01*
X111363383Y-64700987D01*
X111539898Y-64824584D01*
X111627747Y-64865549D01*
X111734729Y-64915436D01*
X111734733Y-64915437D01*
X111735193Y-64915652D01*
X111735689Y-64915785D01*
X111735692Y-64915786D01*
X111942841Y-64971291D01*
X111942845Y-64971292D01*
X111943335Y-64971423D01*
X111943839Y-64971467D01*
X111943844Y-64971468D01*
X112157486Y-64990159D01*
X112158000Y-64990204D01*
X112158514Y-64990159D01*
X112372156Y-64971468D01*
X112372161Y-64971467D01*
X112372665Y-64971423D01*
X112373155Y-64971292D01*
X112373159Y-64971291D01*
X112580308Y-64915786D01*
X112580311Y-64915785D01*
X112580807Y-64915652D01*
X112581267Y-64915437D01*
X112581271Y-64915436D01*
X112688253Y-64865549D01*
X112776102Y-64824584D01*
X112952617Y-64700987D01*
X113104987Y-64548617D01*
X113228584Y-64372102D01*
X113273196Y-64276432D01*
X113279798Y-64270383D01*
X113288745Y-64270773D01*
X113294794Y-64277375D01*
X113295500Y-64281377D01*
X113295500Y-64986060D01*
X113292073Y-64994333D01*
X110111244Y-68175162D01*
X110083060Y-68206609D01*
X110081462Y-68208601D01*
X110081329Y-68208800D01*
X110081322Y-68208809D01*
X110053934Y-68249681D01*
X110044627Y-68263570D01*
X110044383Y-68264260D01*
X110044382Y-68264263D01*
X110027069Y-68313312D01*
X110024309Y-68317691D01*
X108622427Y-69719573D01*
X108614154Y-69723000D01*
X97829309Y-69723000D01*
X97820504Y-69719005D01*
X96936666Y-68708904D01*
X96935000Y-68707000D01*
X86271846Y-68707000D01*
X86263573Y-68703573D01*
X85635427Y-68075427D01*
X85632000Y-68067154D01*
X85632000Y-63754200D01*
X85635427Y-63745927D01*
X85643700Y-63742500D01*
X93388527Y-63742500D01*
X93396800Y-63745927D01*
X95781146Y-66130273D01*
X95782560Y-66131985D01*
X95797266Y-66153697D01*
X95977039Y-66342578D01*
X95989038Y-66355184D01*
X95991734Y-66358017D01*
X95992218Y-66358558D01*
X96139840Y-66534319D01*
X96140410Y-66535055D01*
X96248952Y-66687387D01*
X96249540Y-66688299D01*
X96329779Y-66826413D01*
X96330287Y-66827390D01*
X96393082Y-66963548D01*
X96393435Y-66964401D01*
X96447836Y-67111955D01*
X96448026Y-67112514D01*
X96498227Y-67273246D01*
X96501107Y-67282468D01*
X96501160Y-67282645D01*
X96558967Y-67480652D01*
X96559850Y-67483634D01*
X96628111Y-67710642D01*
X96629470Y-67715063D01*
X96629561Y-67715353D01*
X96631218Y-67720508D01*
X96631218Y-67720509D01*
X96714034Y-67972035D01*
X96714139Y-67972353D01*
X96714280Y-67972660D01*
X96719916Y-67984951D01*
X96720582Y-67986800D01*
X96725184Y-68003973D01*
X96725399Y-68004433D01*
X96725400Y-68004437D01*
X96763610Y-68086377D01*
X96819949Y-68207197D01*
X96820244Y-68207618D01*
X96820245Y-68207620D01*
X96820932Y-68208601D01*
X96948564Y-68390879D01*
X97107121Y-68549436D01*
X97290802Y-68678051D01*
X97352884Y-68707000D01*
X97493563Y-68772600D01*
X97493567Y-68772601D01*
X97494027Y-68772816D01*
X97494523Y-68772949D01*
X97494526Y-68772950D01*
X97710126Y-68830720D01*
X97710130Y-68830721D01*
X97710620Y-68830852D01*
X97711124Y-68830896D01*
X97711129Y-68830897D01*
X97933486Y-68850350D01*
X97934000Y-68850395D01*
X97934514Y-68850350D01*
X98156871Y-68830897D01*
X98156876Y-68830896D01*
X98157380Y-68830852D01*
X98157870Y-68830721D01*
X98157874Y-68830720D01*
X98373474Y-68772950D01*
X98373477Y-68772949D01*
X98373973Y-68772816D01*
X98374433Y-68772601D01*
X98374437Y-68772600D01*
X98515116Y-68707000D01*
X98577198Y-68678051D01*
X98760879Y-68549436D01*
X98919436Y-68390879D01*
X99047068Y-68208601D01*
X99047755Y-68207620D01*
X99047756Y-68207618D01*
X99048051Y-68207197D01*
X99104390Y-68086377D01*
X99142600Y-68004437D01*
X99142601Y-68004433D01*
X99142816Y-68003973D01*
X99142950Y-68003474D01*
X99200720Y-67787874D01*
X99200721Y-67787870D01*
X99200852Y-67787380D01*
X99203778Y-67753945D01*
X99220350Y-67564514D01*
X99220395Y-67564000D01*
X101727605Y-67564000D01*
X101727650Y-67564514D01*
X101744223Y-67753945D01*
X101747148Y-67787380D01*
X101747279Y-67787870D01*
X101747280Y-67787874D01*
X101805050Y-68003474D01*
X101805184Y-68003973D01*
X101805399Y-68004433D01*
X101805400Y-68004437D01*
X101843610Y-68086377D01*
X101899949Y-68207197D01*
X101900244Y-68207618D01*
X101900245Y-68207620D01*
X101900932Y-68208601D01*
X102028564Y-68390879D01*
X102187121Y-68549436D01*
X102370802Y-68678051D01*
X102432884Y-68707000D01*
X102573563Y-68772600D01*
X102573567Y-68772601D01*
X102574027Y-68772816D01*
X102574523Y-68772949D01*
X102574526Y-68772950D01*
X102790126Y-68830720D01*
X102790130Y-68830721D01*
X102790620Y-68830852D01*
X102791124Y-68830896D01*
X102791129Y-68830897D01*
X103013486Y-68850350D01*
X103014000Y-68850395D01*
X103014514Y-68850350D01*
X103236871Y-68830897D01*
X103236876Y-68830896D01*
X103237380Y-68830852D01*
X103237870Y-68830721D01*
X103237874Y-68830720D01*
X103453474Y-68772950D01*
X103453477Y-68772949D01*
X103453973Y-68772816D01*
X103454433Y-68772601D01*
X103454437Y-68772600D01*
X103595116Y-68707000D01*
X103657198Y-68678051D01*
X103840879Y-68549436D01*
X103999436Y-68390879D01*
X104127068Y-68208601D01*
X104127755Y-68207620D01*
X104127756Y-68207618D01*
X104128051Y-68207197D01*
X104184390Y-68086377D01*
X104222600Y-68004437D01*
X104222601Y-68004433D01*
X104222816Y-68003973D01*
X104222950Y-68003474D01*
X104280720Y-67787874D01*
X104280721Y-67787870D01*
X104280852Y-67787380D01*
X104283778Y-67753945D01*
X104300350Y-67564514D01*
X104300395Y-67564000D01*
X104280852Y-67340620D01*
X104265327Y-67282677D01*
X104222950Y-67124526D01*
X104222949Y-67124523D01*
X104222816Y-67124027D01*
X104220447Y-67118945D01*
X104147983Y-66963548D01*
X104128051Y-66920803D01*
X103999436Y-66737121D01*
X103840879Y-66578564D01*
X103657198Y-66449949D01*
X103460617Y-66358282D01*
X103454437Y-66355400D01*
X103454433Y-66355399D01*
X103453973Y-66355184D01*
X103453477Y-66355051D01*
X103453474Y-66355050D01*
X103237874Y-66297280D01*
X103237870Y-66297279D01*
X103237380Y-66297148D01*
X103236876Y-66297104D01*
X103236871Y-66297103D01*
X103014514Y-66277650D01*
X103014000Y-66277605D01*
X103013486Y-66277650D01*
X102791129Y-66297103D01*
X102791124Y-66297104D01*
X102790620Y-66297148D01*
X102790130Y-66297279D01*
X102790126Y-66297280D01*
X102574526Y-66355050D01*
X102574523Y-66355051D01*
X102574027Y-66355184D01*
X102573567Y-66355399D01*
X102573563Y-66355400D01*
X102567383Y-66358282D01*
X102370803Y-66449949D01*
X102370382Y-66450244D01*
X102370380Y-66450245D01*
X102322251Y-66483945D01*
X102187121Y-66578564D01*
X102028564Y-66737121D01*
X101899949Y-66920803D01*
X101880017Y-66963548D01*
X101807554Y-67118945D01*
X101805184Y-67124027D01*
X101805051Y-67124523D01*
X101805050Y-67124526D01*
X101762674Y-67282677D01*
X101747148Y-67340620D01*
X101727605Y-67564000D01*
X99220395Y-67564000D01*
X99200852Y-67340620D01*
X99185327Y-67282677D01*
X99142950Y-67124526D01*
X99142949Y-67124523D01*
X99142816Y-67124027D01*
X99140447Y-67118945D01*
X99067983Y-66963548D01*
X99048051Y-66920803D01*
X98919436Y-66737121D01*
X98760879Y-66578564D01*
X98577198Y-66449949D01*
X98380617Y-66358282D01*
X98374437Y-66355400D01*
X98374433Y-66355399D01*
X98373973Y-66355184D01*
X98373477Y-66355051D01*
X98373474Y-66355050D01*
X98360964Y-66351698D01*
X98353618Y-66349729D01*
X98351209Y-66348788D01*
X98349720Y-66348006D01*
X98342353Y-66344139D01*
X98271668Y-66320866D01*
X98090509Y-66261218D01*
X98090508Y-66261218D01*
X98085353Y-66259561D01*
X98085063Y-66259470D01*
X98080642Y-66258111D01*
X97853731Y-66189879D01*
X97850749Y-66188996D01*
X97652720Y-66131182D01*
X97652570Y-66131137D01*
X97571359Y-66105774D01*
X97482506Y-66078023D01*
X97481947Y-66077833D01*
X97334401Y-66023435D01*
X97333548Y-66023082D01*
X97197390Y-65960287D01*
X97196413Y-65959779D01*
X97058299Y-65879540D01*
X97057387Y-65878952D01*
X96905055Y-65770410D01*
X96904319Y-65769840D01*
X96728550Y-65622211D01*
X96728009Y-65621727D01*
X96523748Y-65427316D01*
X96523733Y-65427303D01*
X96523694Y-65427265D01*
X96509486Y-65414398D01*
X96495511Y-65405911D01*
X96493311Y-65404184D01*
X95478127Y-64389000D01*
X107442605Y-64389000D01*
X107442650Y-64389514D01*
X107456570Y-64548617D01*
X107462148Y-64612380D01*
X107462279Y-64612870D01*
X107462280Y-64612874D01*
X107519008Y-64824584D01*
X107520184Y-64828973D01*
X107614949Y-65032197D01*
X107615244Y-65032618D01*
X107615245Y-65032620D01*
X107650741Y-65083313D01*
X107743564Y-65215879D01*
X107902121Y-65374436D01*
X108085802Y-65503051D01*
X108177157Y-65545650D01*
X108288563Y-65597600D01*
X108288567Y-65597601D01*
X108289027Y-65597816D01*
X108289523Y-65597949D01*
X108289526Y-65597950D01*
X108505126Y-65655720D01*
X108505130Y-65655721D01*
X108505620Y-65655852D01*
X108506124Y-65655896D01*
X108506129Y-65655897D01*
X108728486Y-65675350D01*
X108729000Y-65675395D01*
X108729514Y-65675350D01*
X108951871Y-65655897D01*
X108951876Y-65655896D01*
X108952380Y-65655852D01*
X108952870Y-65655721D01*
X108952874Y-65655720D01*
X109168474Y-65597950D01*
X109168477Y-65597949D01*
X109168973Y-65597816D01*
X109169433Y-65597601D01*
X109169437Y-65597600D01*
X109280843Y-65545650D01*
X109372198Y-65503051D01*
X109555879Y-65374436D01*
X109714436Y-65215879D01*
X109807259Y-65083313D01*
X109842755Y-65032620D01*
X109842756Y-65032618D01*
X109843051Y-65032197D01*
X109937816Y-64828973D01*
X109938992Y-64824584D01*
X109995720Y-64612874D01*
X109995721Y-64612870D01*
X109995852Y-64612380D01*
X110001431Y-64548617D01*
X110015350Y-64389514D01*
X110015395Y-64389000D01*
X110011355Y-64342824D01*
X109995897Y-64166129D01*
X109995896Y-64166124D01*
X109995852Y-64165620D01*
X109953576Y-64007842D01*
X109937950Y-63949526D01*
X109937949Y-63949523D01*
X109937816Y-63949027D01*
X109918849Y-63908351D01*
X109847113Y-63754514D01*
X109843051Y-63745803D01*
X109714436Y-63562121D01*
X109555879Y-63403564D01*
X109372198Y-63274949D01*
X109268562Y-63226623D01*
X109169437Y-63180400D01*
X109169433Y-63180399D01*
X109168973Y-63180184D01*
X109168477Y-63180051D01*
X109168474Y-63180050D01*
X108952874Y-63122280D01*
X108952870Y-63122279D01*
X108952380Y-63122148D01*
X108951876Y-63122104D01*
X108951871Y-63122103D01*
X108729514Y-63102650D01*
X108729000Y-63102605D01*
X108728486Y-63102650D01*
X108506129Y-63122103D01*
X108506124Y-63122104D01*
X108505620Y-63122148D01*
X108505130Y-63122279D01*
X108505126Y-63122280D01*
X108289526Y-63180050D01*
X108289523Y-63180051D01*
X108289027Y-63180184D01*
X108288567Y-63180399D01*
X108288563Y-63180400D01*
X108189438Y-63226623D01*
X108085803Y-63274949D01*
X108085382Y-63275244D01*
X108085380Y-63275245D01*
X108034687Y-63310741D01*
X107902121Y-63403564D01*
X107743564Y-63562121D01*
X107614949Y-63745803D01*
X107610887Y-63754514D01*
X107539152Y-63908351D01*
X107520184Y-63949027D01*
X107520051Y-63949523D01*
X107520050Y-63949526D01*
X107504425Y-64007842D01*
X107462148Y-64165620D01*
X107462104Y-64166124D01*
X107462103Y-64166129D01*
X107446645Y-64342824D01*
X107442605Y-64389000D01*
X95478127Y-64389000D01*
X94004790Y-62915663D01*
X94003168Y-62913633D01*
X93995669Y-62901748D01*
X93995224Y-62901042D01*
X93994603Y-62900494D01*
X93994600Y-62900490D01*
X93952221Y-62863063D01*
X93951693Y-62862566D01*
X93937745Y-62848618D01*
X93925686Y-62839580D01*
X93924987Y-62839010D01*
X93886049Y-62804622D01*
X93885295Y-62804268D01*
X93868377Y-62796325D01*
X93866332Y-62795096D01*
X93851374Y-62783885D01*
X93851372Y-62783884D01*
X93850705Y-62783384D01*
X93849925Y-62783091D01*
X93849922Y-62783090D01*
X93802071Y-62765152D01*
X93801206Y-62764788D01*
X93754956Y-62743074D01*
X93754200Y-62742719D01*
X93734905Y-62739715D01*
X93732599Y-62739109D01*
X93714316Y-62732255D01*
X93662524Y-62728407D01*
X93661596Y-62728300D01*
X93643614Y-62725500D01*
X93623849Y-62725500D01*
X93622982Y-62725468D01*
X93619941Y-62725242D01*
X93569059Y-62721461D01*
X93568245Y-62721635D01*
X93568242Y-62721635D01*
X93551346Y-62725242D01*
X93548904Y-62725500D01*
X77261700Y-62725500D01*
X77253427Y-62722073D01*
X77250000Y-62713800D01*
X77250000Y-62254200D01*
X77253427Y-62245927D01*
X77261700Y-62242500D01*
X93545696Y-62242500D01*
X93548278Y-62242788D01*
X93562800Y-62246074D01*
X93563624Y-62246023D01*
X93563626Y-62246023D01*
X93620054Y-62242522D01*
X93620778Y-62242500D01*
X93640513Y-62242500D01*
X93655418Y-62240366D01*
X93656337Y-62240272D01*
X93674602Y-62239138D01*
X93707345Y-62237107D01*
X93707348Y-62237106D01*
X93708177Y-62237055D01*
X93708959Y-62236773D01*
X93708962Y-62236772D01*
X93726542Y-62230425D01*
X93728857Y-62229848D01*
X93737293Y-62228640D01*
X93748187Y-62227080D01*
X93748941Y-62226737D01*
X93748945Y-62226736D01*
X93795467Y-62205583D01*
X93796337Y-62205229D01*
X93819622Y-62196823D01*
X93845181Y-62187596D01*
X93845850Y-62187107D01*
X93845856Y-62187104D01*
X93860951Y-62176077D01*
X93863009Y-62174874D01*
X93880028Y-62167135D01*
X93880029Y-62167134D01*
X93880782Y-62166792D01*
X93901256Y-62149151D01*
X93920131Y-62132888D01*
X93920866Y-62132305D01*
X93935184Y-62121844D01*
X93935185Y-62121843D01*
X93935552Y-62121575D01*
X93949522Y-62107605D01*
X93950158Y-62107014D01*
X93990497Y-62072256D01*
X93990498Y-62072255D01*
X93991127Y-62071713D01*
X94000982Y-62056509D01*
X94002526Y-62054601D01*
X95478128Y-60579000D01*
X107442605Y-60579000D01*
X107462148Y-60802380D01*
X107462279Y-60802870D01*
X107462280Y-60802874D01*
X107510784Y-60983893D01*
X107520184Y-61018973D01*
X107520399Y-61019433D01*
X107520400Y-61019437D01*
X107554124Y-61091757D01*
X107614949Y-61222197D01*
X107743564Y-61405879D01*
X107902121Y-61564436D01*
X108085802Y-61693051D01*
X108177157Y-61735650D01*
X108288563Y-61787600D01*
X108288567Y-61787601D01*
X108289027Y-61787816D01*
X108289523Y-61787949D01*
X108289526Y-61787950D01*
X108505126Y-61845720D01*
X108505130Y-61845721D01*
X108505620Y-61845852D01*
X108506124Y-61845896D01*
X108506129Y-61845897D01*
X108728486Y-61865350D01*
X108729000Y-61865395D01*
X108729514Y-61865350D01*
X108951871Y-61845897D01*
X108951876Y-61845896D01*
X108952380Y-61845852D01*
X108952870Y-61845721D01*
X108952874Y-61845720D01*
X109168474Y-61787950D01*
X109168477Y-61787949D01*
X109168973Y-61787816D01*
X109169433Y-61787601D01*
X109169437Y-61787600D01*
X109280843Y-61735650D01*
X109372198Y-61693051D01*
X109555879Y-61564436D01*
X109714436Y-61405879D01*
X109843051Y-61222197D01*
X109903876Y-61091757D01*
X109937600Y-61019437D01*
X109937601Y-61019433D01*
X109937816Y-61018973D01*
X109947216Y-60983893D01*
X109995720Y-60802874D01*
X109995721Y-60802870D01*
X109995852Y-60802380D01*
X110015395Y-60579000D01*
X109995852Y-60355620D01*
X109995440Y-60354080D01*
X109937950Y-60139526D01*
X109937949Y-60139523D01*
X109937816Y-60139027D01*
X109917472Y-60095398D01*
X109869822Y-59993214D01*
X109843051Y-59935803D01*
X109840988Y-59932856D01*
X109714731Y-59752543D01*
X109714436Y-59752121D01*
X109555879Y-59593564D01*
X109372198Y-59464949D01*
X109267820Y-59416277D01*
X109169437Y-59370400D01*
X109169433Y-59370399D01*
X109168973Y-59370184D01*
X109168477Y-59370051D01*
X109168474Y-59370050D01*
X108952874Y-59312280D01*
X108952870Y-59312279D01*
X108952380Y-59312148D01*
X108951876Y-59312104D01*
X108951871Y-59312103D01*
X108729514Y-59292650D01*
X108729000Y-59292605D01*
X108728486Y-59292650D01*
X108506129Y-59312103D01*
X108506124Y-59312104D01*
X108505620Y-59312148D01*
X108505130Y-59312279D01*
X108505126Y-59312280D01*
X108289526Y-59370050D01*
X108289523Y-59370051D01*
X108289027Y-59370184D01*
X108288567Y-59370399D01*
X108288563Y-59370400D01*
X108190180Y-59416277D01*
X108085803Y-59464949D01*
X107902121Y-59593564D01*
X107743564Y-59752121D01*
X107743269Y-59752543D01*
X107617013Y-59932856D01*
X107614949Y-59935803D01*
X107588178Y-59993214D01*
X107540529Y-60095398D01*
X107520184Y-60139027D01*
X107520051Y-60139523D01*
X107520050Y-60139526D01*
X107462561Y-60354080D01*
X107462148Y-60355620D01*
X107442605Y-60579000D01*
X95478128Y-60579000D01*
X96500275Y-59556853D01*
X96501987Y-59555439D01*
X96523301Y-59541002D01*
X96523697Y-59540734D01*
X96728019Y-59346264D01*
X96728556Y-59345783D01*
X96904319Y-59198159D01*
X96905055Y-59197589D01*
X97057387Y-59089047D01*
X97058299Y-59088459D01*
X97196412Y-59008220D01*
X97197389Y-59007712D01*
X97333548Y-58944917D01*
X97334401Y-58944564D01*
X97481955Y-58890163D01*
X97482514Y-58889973D01*
X97627472Y-58844699D01*
X97652495Y-58836884D01*
X97652645Y-58836839D01*
X97850659Y-58779030D01*
X97853641Y-58778147D01*
X98080642Y-58709888D01*
X98085063Y-58708529D01*
X98085353Y-58708438D01*
X98085416Y-58708418D01*
X98085420Y-58708417D01*
X98090451Y-58706799D01*
X98090507Y-58706781D01*
X98292205Y-58640372D01*
X98342046Y-58623962D01*
X98342050Y-58623960D01*
X98342352Y-58623861D01*
X98342639Y-58623729D01*
X98342645Y-58623727D01*
X98354947Y-58618085D01*
X98356796Y-58617419D01*
X98373474Y-58612950D01*
X98373477Y-58612949D01*
X98373973Y-58612816D01*
X98374433Y-58612601D01*
X98374437Y-58612600D01*
X98485843Y-58560650D01*
X98577198Y-58518051D01*
X98760879Y-58389436D01*
X98919436Y-58230879D01*
X99048051Y-58047197D01*
X99090666Y-57955809D01*
X99142600Y-57844437D01*
X99142601Y-57844433D01*
X99142816Y-57843973D01*
X99143166Y-57842667D01*
X99200720Y-57627874D01*
X99200721Y-57627870D01*
X99200852Y-57627380D01*
X99208027Y-57545377D01*
X99220350Y-57404514D01*
X99220395Y-57404000D01*
X101727605Y-57404000D01*
X101727650Y-57404514D01*
X101739974Y-57545377D01*
X101747148Y-57627380D01*
X101747279Y-57627870D01*
X101747280Y-57627874D01*
X101804834Y-57842667D01*
X101805184Y-57843973D01*
X101805399Y-57844433D01*
X101805400Y-57844437D01*
X101857334Y-57955809D01*
X101899949Y-58047197D01*
X102028564Y-58230879D01*
X102187121Y-58389436D01*
X102370802Y-58518051D01*
X102462157Y-58560650D01*
X102573563Y-58612600D01*
X102573567Y-58612601D01*
X102574027Y-58612816D01*
X102574523Y-58612949D01*
X102574526Y-58612950D01*
X102790126Y-58670720D01*
X102790130Y-58670721D01*
X102790620Y-58670852D01*
X102791124Y-58670896D01*
X102791129Y-58670897D01*
X103013486Y-58690350D01*
X103014000Y-58690395D01*
X103014514Y-58690350D01*
X103236871Y-58670897D01*
X103236876Y-58670896D01*
X103237380Y-58670852D01*
X103237870Y-58670721D01*
X103237874Y-58670720D01*
X103453474Y-58612950D01*
X103453477Y-58612949D01*
X103453973Y-58612816D01*
X103454433Y-58612601D01*
X103454437Y-58612600D01*
X103565843Y-58560650D01*
X103657198Y-58518051D01*
X103840879Y-58389436D01*
X103999436Y-58230879D01*
X104128051Y-58047197D01*
X104170666Y-57955809D01*
X104222600Y-57844437D01*
X104222601Y-57844433D01*
X104222816Y-57843973D01*
X104223166Y-57842667D01*
X104280720Y-57627874D01*
X104280721Y-57627870D01*
X104280852Y-57627380D01*
X104288027Y-57545377D01*
X104300350Y-57404514D01*
X104300395Y-57404000D01*
X104299131Y-57389557D01*
X104280897Y-57181129D01*
X104280896Y-57181124D01*
X104280852Y-57180620D01*
X104274578Y-57157203D01*
X104222950Y-56964526D01*
X104222949Y-56964523D01*
X104222816Y-56964027D01*
X104191095Y-56896000D01*
X104128268Y-56761269D01*
X104128051Y-56760803D01*
X103999436Y-56577121D01*
X103840879Y-56418564D01*
X103657198Y-56289949D01*
X103515343Y-56223801D01*
X103454437Y-56195400D01*
X103454433Y-56195399D01*
X103453973Y-56195184D01*
X103453477Y-56195051D01*
X103453474Y-56195050D01*
X103237874Y-56137280D01*
X103237870Y-56137279D01*
X103237380Y-56137148D01*
X103236876Y-56137104D01*
X103236871Y-56137103D01*
X103014514Y-56117650D01*
X103014000Y-56117605D01*
X103013486Y-56117650D01*
X102791129Y-56137103D01*
X102791124Y-56137104D01*
X102790620Y-56137148D01*
X102790130Y-56137279D01*
X102790126Y-56137280D01*
X102574526Y-56195050D01*
X102574523Y-56195051D01*
X102574027Y-56195184D01*
X102573567Y-56195399D01*
X102573563Y-56195400D01*
X102462191Y-56247334D01*
X102370803Y-56289949D01*
X102187121Y-56418564D01*
X102028564Y-56577121D01*
X101899949Y-56760803D01*
X101899732Y-56761269D01*
X101836906Y-56896000D01*
X101805184Y-56964027D01*
X101805051Y-56964523D01*
X101805050Y-56964526D01*
X101753423Y-57157203D01*
X101747148Y-57180620D01*
X101747104Y-57181124D01*
X101747103Y-57181129D01*
X101728869Y-57389557D01*
X101727605Y-57404000D01*
X99220395Y-57404000D01*
X99219131Y-57389557D01*
X99200897Y-57181129D01*
X99200896Y-57181124D01*
X99200852Y-57180620D01*
X99194578Y-57157203D01*
X99142950Y-56964526D01*
X99142949Y-56964523D01*
X99142816Y-56964027D01*
X99111095Y-56896000D01*
X99048268Y-56761269D01*
X99048051Y-56760803D01*
X98919436Y-56577121D01*
X98760879Y-56418564D01*
X98577198Y-56289949D01*
X98435343Y-56223801D01*
X98374437Y-56195400D01*
X98374433Y-56195399D01*
X98373973Y-56195184D01*
X98373477Y-56195051D01*
X98373474Y-56195050D01*
X98157874Y-56137280D01*
X98157870Y-56137279D01*
X98157380Y-56137148D01*
X98156876Y-56137104D01*
X98156871Y-56137103D01*
X97934514Y-56117650D01*
X97934000Y-56117605D01*
X97933486Y-56117650D01*
X97711129Y-56137103D01*
X97711124Y-56137104D01*
X97710620Y-56137148D01*
X97710130Y-56137279D01*
X97710126Y-56137280D01*
X97494526Y-56195050D01*
X97494523Y-56195051D01*
X97494027Y-56195184D01*
X97493567Y-56195399D01*
X97493563Y-56195400D01*
X97382191Y-56247334D01*
X97290803Y-56289949D01*
X97107121Y-56418564D01*
X96948564Y-56577121D01*
X96819949Y-56760803D01*
X96819732Y-56761269D01*
X96756906Y-56896000D01*
X96725184Y-56964027D01*
X96725051Y-56964523D01*
X96725050Y-56964526D01*
X96719732Y-56984373D01*
X96718790Y-56986783D01*
X96714368Y-56995206D01*
X96714362Y-56995221D01*
X96714138Y-56995647D01*
X96713985Y-56996113D01*
X96631218Y-57247490D01*
X96631218Y-57247491D01*
X96629561Y-57252646D01*
X96629470Y-57252936D01*
X96628111Y-57257357D01*
X96559852Y-57484358D01*
X96558969Y-57487340D01*
X96518086Y-57627380D01*
X96501170Y-57685322D01*
X96501115Y-57685504D01*
X96475803Y-57766547D01*
X96448026Y-57855485D01*
X96447836Y-57856044D01*
X96393435Y-58003598D01*
X96393082Y-58004451D01*
X96330287Y-58140609D01*
X96329779Y-58141586D01*
X96249540Y-58279700D01*
X96248952Y-58280612D01*
X96140410Y-58432944D01*
X96139840Y-58433680D01*
X95997205Y-58603503D01*
X95992218Y-58609440D01*
X95991737Y-58609977D01*
X95819266Y-58791189D01*
X95797268Y-58814301D01*
X95797248Y-58814323D01*
X95797221Y-58814352D01*
X95784759Y-58828114D01*
X95784387Y-58828525D01*
X95784098Y-58829001D01*
X95775902Y-58842498D01*
X95774174Y-58844699D01*
X93396800Y-61222073D01*
X93388527Y-61225500D01*
X85516700Y-61225500D01*
X85508427Y-61222073D01*
X85505000Y-61213800D01*
X85505000Y-60354080D01*
X85505160Y-60352154D01*
X85509217Y-60327842D01*
X85510500Y-60320154D01*
X85510500Y-57161693D01*
X85513503Y-57153866D01*
X85745583Y-56896000D01*
X86308647Y-56270373D01*
X86317344Y-56266500D01*
X96676154Y-56266500D01*
X96697499Y-56265838D01*
X96699533Y-56265775D01*
X96700112Y-56265757D01*
X96700674Y-56265627D01*
X96823594Y-56237186D01*
X96823595Y-56237186D01*
X96824069Y-56237076D01*
X96832342Y-56233649D01*
X96832453Y-56233599D01*
X96832469Y-56233592D01*
X96853649Y-56224039D01*
X96853651Y-56224038D01*
X96854176Y-56223801D01*
X96957724Y-56149870D01*
X97726667Y-55380927D01*
X97734940Y-55377500D01*
X108691185Y-55377500D01*
X108699453Y-55380922D01*
G37*
%TD.AperFunction*%
%TD*%
%TA.AperFunction,Conductor*%
%TO.N,Earth*%
G36*
X122220278Y-42992639D02*
G01*
X122252724Y-42997691D01*
X122253550Y-42997583D01*
X122280124Y-42994108D01*
X122282406Y-42994034D01*
X122523400Y-43009830D01*
X122524918Y-43010030D01*
X122784045Y-43061574D01*
X122785511Y-43061966D01*
X123035700Y-43146894D01*
X123037108Y-43147478D01*
X123152629Y-43204446D01*
X123274062Y-43264330D01*
X123275387Y-43265095D01*
X123385904Y-43338940D01*
X123495063Y-43411878D01*
X123496269Y-43412803D01*
X123686429Y-43579569D01*
X123694910Y-43587007D01*
X123695993Y-43588090D01*
X123855904Y-43770432D01*
X123870194Y-43786727D01*
X123871125Y-43787941D01*
X124017905Y-44007613D01*
X124018670Y-44008938D01*
X124066651Y-44106234D01*
X124130151Y-44234999D01*
X124135521Y-44245889D01*
X124136106Y-44247300D01*
X124214978Y-44479648D01*
X124221032Y-44497483D01*
X124221428Y-44498961D01*
X124272970Y-44758082D01*
X124273170Y-44759600D01*
X124288588Y-44994831D01*
X124288474Y-44997396D01*
X124287323Y-45004792D01*
X124285309Y-45017724D01*
X124285417Y-45018550D01*
X124290401Y-45056664D01*
X124290500Y-45058181D01*
X124290500Y-79903479D01*
X124290361Y-79905278D01*
X124285309Y-79937724D01*
X124285417Y-79938550D01*
X124288892Y-79965124D01*
X124288966Y-79967406D01*
X124273170Y-80208400D01*
X124272970Y-80209918D01*
X124221428Y-80469039D01*
X124221034Y-80470511D01*
X124136107Y-80720697D01*
X124135521Y-80722111D01*
X124018670Y-80959062D01*
X124017905Y-80960387D01*
X123974171Y-81025840D01*
X123885534Y-81158495D01*
X123871125Y-81180059D01*
X123870197Y-81181269D01*
X123703431Y-81371429D01*
X123695993Y-81379910D01*
X123694910Y-81380993D01*
X123593028Y-81470342D01*
X123496273Y-81555194D01*
X123495063Y-81556122D01*
X123385904Y-81629060D01*
X123275387Y-81702905D01*
X123274062Y-81703670D01*
X123152629Y-81763554D01*
X123037108Y-81820522D01*
X123035700Y-81821106D01*
X122785511Y-81906034D01*
X122784045Y-81906426D01*
X122536692Y-81955628D01*
X122524918Y-81957970D01*
X122523400Y-81958170D01*
X122288169Y-81973588D01*
X122285604Y-81973474D01*
X122271019Y-81971203D01*
X122265276Y-81970309D01*
X122264450Y-81970417D01*
X122226336Y-81975401D01*
X122224819Y-81975500D01*
X78814521Y-81975500D01*
X78812721Y-81975361D01*
X78780276Y-81970309D01*
X78779450Y-81970417D01*
X78752876Y-81973892D01*
X78750594Y-81973966D01*
X78509600Y-81958170D01*
X78508082Y-81957970D01*
X78496308Y-81955628D01*
X78248955Y-81906426D01*
X78247489Y-81906034D01*
X77997300Y-81821106D01*
X77995892Y-81820522D01*
X77880371Y-81763554D01*
X77758938Y-81703670D01*
X77757613Y-81702905D01*
X77647096Y-81629060D01*
X77537937Y-81556122D01*
X77536727Y-81555194D01*
X77439973Y-81470342D01*
X77338090Y-81380993D01*
X77337007Y-81379910D01*
X77329569Y-81371429D01*
X77162803Y-81181269D01*
X77161875Y-81180059D01*
X77147467Y-81158495D01*
X77058829Y-81025840D01*
X77015095Y-80960387D01*
X77014330Y-80959062D01*
X76897479Y-80722111D01*
X76896893Y-80720697D01*
X76811966Y-80470511D01*
X76811572Y-80469039D01*
X76760030Y-80209918D01*
X76759830Y-80208400D01*
X76747087Y-80013984D01*
X76744604Y-79976104D01*
X76744741Y-79973400D01*
X76746025Y-79965773D01*
X76747576Y-79956552D01*
X76747729Y-79944000D01*
X76742618Y-79908311D01*
X76742500Y-79906652D01*
X76742500Y-77483995D01*
X77520419Y-77483995D01*
X77540762Y-77872171D01*
X77601570Y-78256094D01*
X77702175Y-78631557D01*
X77727463Y-78697434D01*
X77798208Y-78881730D01*
X77841476Y-78994448D01*
X77841606Y-78994704D01*
X77841610Y-78994712D01*
X77909220Y-79127403D01*
X78017946Y-79340789D01*
X78018110Y-79341041D01*
X78018112Y-79341045D01*
X78203385Y-79626342D01*
X78229651Y-79666788D01*
X78474274Y-79968871D01*
X78749132Y-80243729D01*
X79051215Y-80488352D01*
X79377213Y-80700057D01*
X79377470Y-80700188D01*
X79377477Y-80700192D01*
X79723291Y-80876393D01*
X79723299Y-80876397D01*
X79723555Y-80876527D01*
X79723828Y-80876632D01*
X79723833Y-80876634D01*
X79751700Y-80887331D01*
X80086446Y-81015828D01*
X80461909Y-81116433D01*
X80678090Y-81150673D01*
X80845528Y-81177193D01*
X80845531Y-81177193D01*
X80845832Y-81177241D01*
X81234008Y-81197584D01*
X81622184Y-81177241D01*
X81622485Y-81177193D01*
X81622488Y-81177193D01*
X81789926Y-81150673D01*
X82006107Y-81116433D01*
X82381570Y-81015828D01*
X82716316Y-80887331D01*
X82744183Y-80876634D01*
X82744188Y-80876632D01*
X82744461Y-80876527D01*
X82744717Y-80876397D01*
X82744725Y-80876393D01*
X83090539Y-80700192D01*
X83090546Y-80700188D01*
X83090803Y-80700057D01*
X83416801Y-80488352D01*
X83718884Y-80243729D01*
X83993742Y-79968871D01*
X84238365Y-79666788D01*
X84264631Y-79626342D01*
X84449904Y-79341045D01*
X84449906Y-79341041D01*
X84450070Y-79340789D01*
X84558796Y-79127403D01*
X84626406Y-78994712D01*
X84626410Y-78994704D01*
X84626540Y-78994448D01*
X84669809Y-78881730D01*
X84740553Y-78697434D01*
X84765841Y-78631557D01*
X84866446Y-78256094D01*
X84927254Y-77872171D01*
X84936829Y-77689469D01*
X93871095Y-77689469D01*
X93884427Y-77920697D01*
X93935346Y-78146642D01*
X94022484Y-78361237D01*
X94022736Y-78361648D01*
X94078294Y-78452310D01*
X94143501Y-78558719D01*
X94295147Y-78733784D01*
X94473349Y-78881730D01*
X94673322Y-78998584D01*
X94889694Y-79081209D01*
X95116656Y-79127385D01*
X95117137Y-79127403D01*
X95117140Y-79127403D01*
X95217788Y-79131093D01*
X95348113Y-79135872D01*
X95348588Y-79135811D01*
X95348592Y-79135811D01*
X95577372Y-79106503D01*
X95577374Y-79106503D01*
X95577847Y-79106442D01*
X95799690Y-79039886D01*
X96007684Y-78937991D01*
X96086222Y-78881971D01*
X96195857Y-78803770D01*
X96195862Y-78803766D01*
X96196243Y-78803494D01*
X96360303Y-78640005D01*
X96495458Y-78451917D01*
X96598078Y-78244280D01*
X96665408Y-78022671D01*
X96695640Y-77793041D01*
X96697327Y-77724000D01*
X96678349Y-77493167D01*
X96621925Y-77268533D01*
X96529570Y-77056131D01*
X96403764Y-76861665D01*
X96247887Y-76690358D01*
X96066123Y-76546810D01*
X96065710Y-76546582D01*
X96065707Y-76546580D01*
X95863776Y-76435108D01*
X95863772Y-76435106D01*
X95863355Y-76434876D01*
X95862907Y-76434717D01*
X95862904Y-76434716D01*
X95645483Y-76357723D01*
X95645482Y-76357723D01*
X95645028Y-76357562D01*
X95644558Y-76357478D01*
X95644553Y-76357477D01*
X95417472Y-76317028D01*
X95417006Y-76316945D01*
X95416532Y-76316939D01*
X95416530Y-76316939D01*
X95293081Y-76315431D01*
X95185411Y-76314116D01*
X94956464Y-76349150D01*
X94736314Y-76421106D01*
X94530872Y-76528052D01*
X94345655Y-76667117D01*
X94345326Y-76667462D01*
X94345323Y-76667464D01*
X94302863Y-76711896D01*
X94185639Y-76834564D01*
X94055119Y-77025899D01*
X93957602Y-77235981D01*
X93957474Y-77236443D01*
X93957472Y-77236448D01*
X93948445Y-77268999D01*
X93895707Y-77459169D01*
X93871095Y-77689469D01*
X84936829Y-77689469D01*
X84947597Y-77483995D01*
X84927254Y-77095819D01*
X84866446Y-76711896D01*
X84765841Y-76336433D01*
X84639837Y-76008182D01*
X84626647Y-75973820D01*
X84626645Y-75973815D01*
X84626540Y-75973542D01*
X84626410Y-75973286D01*
X84626406Y-75973278D01*
X84450205Y-75627465D01*
X84450201Y-75627458D01*
X84450070Y-75627201D01*
X84238365Y-75301202D01*
X83993742Y-74999119D01*
X83718884Y-74724261D01*
X83416801Y-74479638D01*
X83090803Y-74267933D01*
X83090546Y-74267802D01*
X83090539Y-74267798D01*
X82744725Y-74091597D01*
X82744717Y-74091593D01*
X82744461Y-74091463D01*
X82744188Y-74091358D01*
X82744183Y-74091356D01*
X82381859Y-73952273D01*
X82381860Y-73952273D01*
X82381570Y-73952162D01*
X82006107Y-73851557D01*
X81723660Y-73806821D01*
X81622488Y-73790797D01*
X81622485Y-73790797D01*
X81622184Y-73790749D01*
X81234008Y-73770406D01*
X80845832Y-73790749D01*
X80845531Y-73790797D01*
X80845528Y-73790797D01*
X80744356Y-73806821D01*
X80461909Y-73851557D01*
X80086446Y-73952162D01*
X80086156Y-73952273D01*
X80086157Y-73952273D01*
X79723833Y-74091356D01*
X79723828Y-74091358D01*
X79723555Y-74091463D01*
X79723299Y-74091593D01*
X79723291Y-74091597D01*
X79377478Y-74267798D01*
X79377471Y-74267802D01*
X79377214Y-74267933D01*
X79051215Y-74479638D01*
X78749132Y-74724261D01*
X78474274Y-74999119D01*
X78229651Y-75301202D01*
X78017946Y-75627201D01*
X78017815Y-75627458D01*
X78017811Y-75627465D01*
X77841610Y-75973278D01*
X77841606Y-75973286D01*
X77841476Y-75973542D01*
X77841371Y-75973815D01*
X77841369Y-75973820D01*
X77828179Y-76008182D01*
X77702175Y-76336433D01*
X77601570Y-76711896D01*
X77540762Y-77095819D01*
X77520419Y-77483995D01*
X76742500Y-77483995D01*
X76742500Y-65944200D01*
X76745927Y-65935927D01*
X76754200Y-65932500D01*
X76822127Y-65932500D01*
X76822428Y-65932467D01*
X76822434Y-65932467D01*
X76861838Y-65928186D01*
X76884309Y-65925745D01*
X76884995Y-65925488D01*
X76885003Y-65925486D01*
X76896849Y-65921045D01*
X76900956Y-65920300D01*
X77740800Y-65920300D01*
X77749073Y-65923727D01*
X77752500Y-65932000D01*
X77752500Y-69076300D01*
X77752509Y-69076461D01*
X77752509Y-69076475D01*
X77753998Y-69104245D01*
X77755443Y-69131202D01*
X77791592Y-69272818D01*
X77795019Y-69281091D01*
X77847621Y-69377424D01*
X77947213Y-69484398D01*
X78072909Y-69558981D01*
X78073294Y-69559140D01*
X78073297Y-69559142D01*
X78075754Y-69560159D01*
X78081182Y-69562408D01*
X78081325Y-69562458D01*
X78081329Y-69562460D01*
X78132490Y-69580510D01*
X78132495Y-69580511D01*
X78133030Y-69580700D01*
X78277700Y-69601500D01*
X78705624Y-69601500D01*
X78713897Y-69604927D01*
X78717192Y-69611447D01*
X78731488Y-69705800D01*
X78947198Y-71129488D01*
X78950937Y-71151053D01*
X78999099Y-71289047D01*
X79002571Y-71295739D01*
X79013024Y-71314881D01*
X79013317Y-71315256D01*
X79013320Y-71315260D01*
X79102826Y-71429669D01*
X79103082Y-71429996D01*
X80620813Y-72884488D01*
X80620905Y-72884568D01*
X80657736Y-72916607D01*
X80657739Y-72916609D01*
X80658155Y-72916971D01*
X80784636Y-72990215D01*
X80785032Y-72990374D01*
X80792588Y-72993411D01*
X80792605Y-72993417D01*
X80792731Y-72993468D01*
X80792859Y-72993512D01*
X80792874Y-72993518D01*
X80839006Y-73009518D01*
X80839531Y-73009700D01*
X80984201Y-73030500D01*
X82990972Y-73030500D01*
X82999067Y-73033753D01*
X84762876Y-74724069D01*
X85042341Y-74991890D01*
X85262898Y-75203257D01*
X85891313Y-75805488D01*
X85891405Y-75805568D01*
X85928236Y-75837607D01*
X85928239Y-75837609D01*
X85928655Y-75837971D01*
X86055136Y-75911215D01*
X86055532Y-75911374D01*
X86063088Y-75914411D01*
X86063105Y-75914417D01*
X86063231Y-75914468D01*
X86063359Y-75914512D01*
X86063374Y-75914518D01*
X86102281Y-75928012D01*
X86110031Y-75930700D01*
X86254701Y-75951500D01*
X96446456Y-75951500D01*
X96454729Y-75954927D01*
X96910150Y-76410348D01*
X96913577Y-76418563D01*
X96913591Y-76421327D01*
X96916286Y-76964912D01*
X96926842Y-79094180D01*
X96929480Y-79626292D01*
X96928889Y-79626295D01*
X96928889Y-79626342D01*
X96929640Y-79626291D01*
X96932398Y-79667026D01*
X96934158Y-79693032D01*
X96974264Y-79833579D01*
X96974432Y-79833954D01*
X96974434Y-79833960D01*
X96977871Y-79841640D01*
X96978125Y-79842207D01*
X96978212Y-79842372D01*
X96978217Y-79842382D01*
X96978651Y-79843203D01*
X97009361Y-79901346D01*
X97102836Y-80013705D01*
X97103144Y-80013983D01*
X97103145Y-80013984D01*
X98221568Y-81023147D01*
X98221591Y-81023167D01*
X98221662Y-81023231D01*
X98221735Y-81023291D01*
X98221755Y-81023309D01*
X98253427Y-81049627D01*
X98253839Y-81049969D01*
X98381411Y-81121293D01*
X98383248Y-81121999D01*
X98389126Y-81124259D01*
X98389138Y-81124263D01*
X98389249Y-81124306D01*
X98428829Y-81137700D01*
X98573499Y-81158500D01*
X103390551Y-81158500D01*
X103390673Y-81158495D01*
X103390687Y-81158495D01*
X103429873Y-81156972D01*
X103429877Y-81156971D01*
X103430404Y-81156951D01*
X103448032Y-81153000D01*
X105571000Y-81153000D01*
X115604000Y-81153000D01*
X115604000Y-77483995D01*
X116020418Y-77483995D01*
X116040761Y-77872171D01*
X116101569Y-78256094D01*
X116202174Y-78631557D01*
X116227462Y-78697434D01*
X116298207Y-78881730D01*
X116341475Y-78994448D01*
X116341605Y-78994704D01*
X116341609Y-78994712D01*
X116409219Y-79127403D01*
X116517945Y-79340789D01*
X116518109Y-79341041D01*
X116518111Y-79341045D01*
X116703384Y-79626342D01*
X116729650Y-79666788D01*
X116974273Y-79968871D01*
X117249131Y-80243729D01*
X117551214Y-80488352D01*
X117877212Y-80700057D01*
X117877469Y-80700188D01*
X117877476Y-80700192D01*
X118223290Y-80876393D01*
X118223298Y-80876397D01*
X118223554Y-80876527D01*
X118223827Y-80876632D01*
X118223832Y-80876634D01*
X118251699Y-80887331D01*
X118586445Y-81015828D01*
X118961908Y-81116433D01*
X119178089Y-81150673D01*
X119345527Y-81177193D01*
X119345530Y-81177193D01*
X119345831Y-81177241D01*
X119734007Y-81197584D01*
X120122183Y-81177241D01*
X120122484Y-81177193D01*
X120122487Y-81177193D01*
X120289925Y-81150673D01*
X120506106Y-81116433D01*
X120881569Y-81015828D01*
X121216315Y-80887331D01*
X121244182Y-80876634D01*
X121244187Y-80876632D01*
X121244460Y-80876527D01*
X121244716Y-80876397D01*
X121244724Y-80876393D01*
X121590538Y-80700192D01*
X121590545Y-80700188D01*
X121590802Y-80700057D01*
X121916800Y-80488352D01*
X122218883Y-80243729D01*
X122493741Y-79968871D01*
X122738364Y-79666788D01*
X122764630Y-79626342D01*
X122949903Y-79341045D01*
X122949905Y-79341041D01*
X122950069Y-79340789D01*
X123058795Y-79127403D01*
X123126405Y-78994712D01*
X123126409Y-78994704D01*
X123126539Y-78994448D01*
X123169808Y-78881730D01*
X123240552Y-78697434D01*
X123265840Y-78631557D01*
X123366445Y-78256094D01*
X123427253Y-77872171D01*
X123447596Y-77483995D01*
X123427253Y-77095819D01*
X123366445Y-76711896D01*
X123265840Y-76336433D01*
X123139836Y-76008182D01*
X123126646Y-75973820D01*
X123126644Y-75973815D01*
X123126539Y-75973542D01*
X123126409Y-75973286D01*
X123126405Y-75973278D01*
X122950204Y-75627465D01*
X122950200Y-75627458D01*
X122950069Y-75627201D01*
X122738364Y-75301202D01*
X122493741Y-74999119D01*
X122218883Y-74724261D01*
X121916800Y-74479638D01*
X121590802Y-74267933D01*
X121590545Y-74267802D01*
X121590538Y-74267798D01*
X121244724Y-74091597D01*
X121244716Y-74091593D01*
X121244460Y-74091463D01*
X121244187Y-74091358D01*
X121244182Y-74091356D01*
X120881858Y-73952273D01*
X120881859Y-73952273D01*
X120881569Y-73952162D01*
X120506106Y-73851557D01*
X120223659Y-73806821D01*
X120122487Y-73790797D01*
X120122484Y-73790797D01*
X120122183Y-73790749D01*
X119734007Y-73770406D01*
X119345831Y-73790749D01*
X119345530Y-73790797D01*
X119345527Y-73790797D01*
X119244355Y-73806821D01*
X118961908Y-73851557D01*
X118586445Y-73952162D01*
X118586155Y-73952273D01*
X118586156Y-73952273D01*
X118223832Y-74091356D01*
X118223827Y-74091358D01*
X118223554Y-74091463D01*
X118223298Y-74091593D01*
X118223290Y-74091597D01*
X117877477Y-74267798D01*
X117877470Y-74267802D01*
X117877213Y-74267933D01*
X117551214Y-74479638D01*
X117249131Y-74724261D01*
X116974273Y-74999119D01*
X116729650Y-75301202D01*
X116517945Y-75627201D01*
X116517814Y-75627458D01*
X116517810Y-75627465D01*
X116341609Y-75973278D01*
X116341605Y-75973286D01*
X116341475Y-75973542D01*
X116341370Y-75973815D01*
X116341368Y-75973820D01*
X116328178Y-76008182D01*
X116202174Y-76336433D01*
X116101569Y-76711896D01*
X116040761Y-77095819D01*
X116020418Y-77483995D01*
X115604000Y-77483995D01*
X115604000Y-76581000D01*
X105571000Y-76581000D01*
X105571000Y-81153000D01*
X103448032Y-81153000D01*
X103573023Y-81124986D01*
X103573410Y-81124839D01*
X103573413Y-81124838D01*
X103576516Y-81123658D01*
X103580796Y-81122031D01*
X103580861Y-81122003D01*
X103580872Y-81121999D01*
X103617041Y-81106614D01*
X103617528Y-81106407D01*
X103739475Y-81025840D01*
X103739788Y-81025562D01*
X104875069Y-80016424D01*
X104875073Y-80016421D01*
X104875224Y-80016286D01*
X104875363Y-80016145D01*
X104875376Y-80016132D01*
X104915984Y-79974745D01*
X104924271Y-79966299D01*
X105002510Y-79842846D01*
X105006437Y-79834101D01*
X105030700Y-79768416D01*
X105051500Y-79623746D01*
X105051500Y-76434544D01*
X105054927Y-76426271D01*
X105526271Y-75954927D01*
X105534544Y-75951500D01*
X110629988Y-75951500D01*
X110630165Y-75951501D01*
X114366829Y-76008191D01*
X114366835Y-76008191D01*
X114367042Y-76008194D01*
X114367257Y-76008182D01*
X114367261Y-76008182D01*
X114438647Y-76004228D01*
X114438649Y-76004228D01*
X114439275Y-76004193D01*
X114439880Y-76004027D01*
X114439883Y-76004026D01*
X114579784Y-75965514D01*
X114580191Y-75965402D01*
X114584657Y-75963453D01*
X114588887Y-75961608D01*
X114588895Y-75961604D01*
X114589065Y-75961530D01*
X114589225Y-75961446D01*
X114589234Y-75961442D01*
X114652596Y-75928301D01*
X114652598Y-75928300D01*
X114653148Y-75928012D01*
X114765388Y-75834394D01*
X114791332Y-75805568D01*
X117044830Y-73301681D01*
X117044895Y-73301609D01*
X117069029Y-73272732D01*
X117069287Y-73272278D01*
X117141033Y-73146011D01*
X117141037Y-73146003D01*
X117141234Y-73145656D01*
X117142435Y-73142596D01*
X117144202Y-73138093D01*
X117144209Y-73138073D01*
X117144236Y-73138005D01*
X117156685Y-73102503D01*
X117179657Y-72958163D01*
X117240120Y-68935643D01*
X117240196Y-68934483D01*
X117395766Y-67586212D01*
X117400119Y-67578387D01*
X117408730Y-67575931D01*
X117414100Y-67577970D01*
X117508735Y-67644233D01*
X117509760Y-67644806D01*
X117687297Y-67721633D01*
X117688409Y-67721986D01*
X117877904Y-67761574D01*
X117878795Y-67761690D01*
X117884565Y-67761992D01*
X117884870Y-67762000D01*
X118272672Y-67762000D01*
X118274317Y-67761318D01*
X118274999Y-67759673D01*
X118782999Y-67759673D01*
X118783681Y-67761318D01*
X118785326Y-67762000D01*
X119127345Y-67762000D01*
X119127939Y-67761970D01*
X119272031Y-67747333D01*
X119273192Y-67747095D01*
X119457776Y-67689250D01*
X119458863Y-67688784D01*
X119628044Y-67595005D01*
X119629010Y-67594334D01*
X119775888Y-67468445D01*
X119776695Y-67467598D01*
X119895255Y-67314751D01*
X119895881Y-67313748D01*
X119981285Y-67140185D01*
X119981696Y-67139079D01*
X120002229Y-67060253D01*
X120002087Y-67059232D01*
X121372108Y-67059232D01*
X121433307Y-67225566D01*
X121433826Y-67226631D01*
X121535760Y-67391032D01*
X121536476Y-67391962D01*
X121669387Y-67532511D01*
X121670280Y-67533282D01*
X121828735Y-67644233D01*
X121829760Y-67644806D01*
X122007297Y-67721633D01*
X122008409Y-67721986D01*
X122197904Y-67761574D01*
X122198795Y-67761690D01*
X122204565Y-67761992D01*
X122204870Y-67762000D01*
X122442672Y-67762000D01*
X122444317Y-67761318D01*
X122444999Y-67759673D01*
X122952999Y-67759673D01*
X122953681Y-67761318D01*
X122955326Y-67762000D01*
X123147345Y-67762000D01*
X123147939Y-67761970D01*
X123292031Y-67747333D01*
X123293192Y-67747095D01*
X123477776Y-67689250D01*
X123478863Y-67688784D01*
X123648044Y-67595005D01*
X123649010Y-67594334D01*
X123795888Y-67468445D01*
X123796695Y-67467598D01*
X123915255Y-67314751D01*
X123915881Y-67313748D01*
X124001285Y-67140185D01*
X124001696Y-67139079D01*
X124022229Y-67060253D01*
X124021984Y-67058488D01*
X124021339Y-67058000D01*
X122955326Y-67058000D01*
X122953681Y-67058682D01*
X122952999Y-67060327D01*
X122952999Y-67759673D01*
X122444999Y-67759673D01*
X122444999Y-67060327D01*
X122444317Y-67058682D01*
X122442672Y-67058000D01*
X121373982Y-67058000D01*
X121372337Y-67058682D01*
X121372108Y-67059232D01*
X120002087Y-67059232D01*
X120001984Y-67058488D01*
X120001339Y-67058000D01*
X118785326Y-67058000D01*
X118783681Y-67058682D01*
X118782999Y-67060327D01*
X118782999Y-67759673D01*
X118274999Y-67759673D01*
X118274999Y-66561700D01*
X118278426Y-66553427D01*
X118286699Y-66550000D01*
X120004016Y-66550000D01*
X120005661Y-66549318D01*
X120005890Y-66548768D01*
X120005514Y-66547747D01*
X121375769Y-66547747D01*
X121376014Y-66549512D01*
X121376659Y-66550000D01*
X122442672Y-66550000D01*
X122444317Y-66549318D01*
X122444999Y-66547673D01*
X122952999Y-66547673D01*
X122953681Y-66549318D01*
X122955326Y-66550000D01*
X124024016Y-66550000D01*
X124025661Y-66549318D01*
X124025890Y-66548768D01*
X123964691Y-66382434D01*
X123964172Y-66381369D01*
X123862238Y-66216968D01*
X123861522Y-66216038D01*
X123728611Y-66075489D01*
X123727718Y-66074718D01*
X123569263Y-65963767D01*
X123568238Y-65963194D01*
X123390701Y-65886367D01*
X123389589Y-65886014D01*
X123200094Y-65846426D01*
X123199203Y-65846310D01*
X123193433Y-65846008D01*
X123193128Y-65846000D01*
X122955326Y-65846000D01*
X122953681Y-65846682D01*
X122952999Y-65848327D01*
X122952999Y-66547673D01*
X122444999Y-66547673D01*
X122444999Y-65848327D01*
X122444317Y-65846682D01*
X122442672Y-65846000D01*
X122250654Y-65846000D01*
X122250059Y-65846030D01*
X122105967Y-65860667D01*
X122104806Y-65860905D01*
X121920222Y-65918750D01*
X121919135Y-65919216D01*
X121749954Y-66012995D01*
X121748988Y-66013666D01*
X121602110Y-66139555D01*
X121601303Y-66140402D01*
X121482743Y-66293249D01*
X121482117Y-66294252D01*
X121396713Y-66467815D01*
X121396302Y-66468921D01*
X121375769Y-66547747D01*
X120005514Y-66547747D01*
X119944691Y-66382434D01*
X119944172Y-66381369D01*
X119842238Y-66216968D01*
X119841522Y-66216038D01*
X119708611Y-66075489D01*
X119707718Y-66074718D01*
X119568529Y-65977257D01*
X119563718Y-65969705D01*
X119565656Y-65960962D01*
X119566996Y-65959371D01*
X119642620Y-65884273D01*
X119642621Y-65884272D01*
X119643081Y-65883815D01*
X119740272Y-65730666D01*
X119801118Y-65559790D01*
X119802546Y-65547815D01*
X119806929Y-65540005D01*
X119814164Y-65537500D01*
X121314037Y-65537500D01*
X121373273Y-65534072D01*
X121373840Y-65533922D01*
X121373841Y-65533922D01*
X121514184Y-65496826D01*
X121514186Y-65496825D01*
X121514577Y-65496722D01*
X121515862Y-65496177D01*
X121522838Y-65493218D01*
X121522853Y-65493211D01*
X121522990Y-65493153D01*
X121523119Y-65493089D01*
X121523137Y-65493081D01*
X121575651Y-65467127D01*
X121576177Y-65466867D01*
X121576640Y-65466508D01*
X121691348Y-65377554D01*
X121691351Y-65377551D01*
X121691675Y-65377300D01*
X121858952Y-65204231D01*
X122175838Y-64876374D01*
X122175847Y-64876364D01*
X122175938Y-64876270D01*
X122209279Y-64838184D01*
X122282784Y-64711855D01*
X122286071Y-64703724D01*
X122302700Y-64655940D01*
X122323500Y-64511270D01*
X122323500Y-60456730D01*
X122321007Y-60406196D01*
X122286071Y-60264276D01*
X122282784Y-60256145D01*
X122261523Y-60210208D01*
X122175937Y-60091730D01*
X121691673Y-59590700D01*
X121659614Y-59561153D01*
X121648495Y-59550905D01*
X121648494Y-59550904D01*
X121648064Y-59550508D01*
X121523009Y-59474856D01*
X121522626Y-59474693D01*
X121522623Y-59474692D01*
X121520275Y-59473696D01*
X121514597Y-59471287D01*
X121514443Y-59471232D01*
X121514433Y-59471228D01*
X121459255Y-59451496D01*
X121458707Y-59451300D01*
X121314037Y-59430500D01*
X119815348Y-59430500D01*
X119807075Y-59427073D01*
X119803965Y-59420550D01*
X119803844Y-59420577D01*
X119803729Y-59420055D01*
X119803712Y-59420019D01*
X119803704Y-59419938D01*
X119803703Y-59419932D01*
X119803635Y-59419288D01*
X119745181Y-59247579D01*
X119650137Y-59093088D01*
X119639265Y-59081986D01*
X119565465Y-59006623D01*
X119562125Y-58998314D01*
X119565638Y-58990078D01*
X119568152Y-58988204D01*
X119628044Y-58955005D01*
X119629010Y-58954334D01*
X119775888Y-58828445D01*
X119776695Y-58827598D01*
X119895255Y-58674751D01*
X119895881Y-58673748D01*
X119981285Y-58500185D01*
X119981696Y-58499079D01*
X120002229Y-58420253D01*
X120002087Y-58419232D01*
X121372108Y-58419232D01*
X121433307Y-58585566D01*
X121433826Y-58586631D01*
X121535760Y-58751032D01*
X121536476Y-58751962D01*
X121669387Y-58892511D01*
X121670280Y-58893282D01*
X121828735Y-59004233D01*
X121829760Y-59004806D01*
X122007297Y-59081633D01*
X122008409Y-59081986D01*
X122197904Y-59121574D01*
X122198795Y-59121690D01*
X122204565Y-59121992D01*
X122204870Y-59122000D01*
X122442672Y-59122000D01*
X122444317Y-59121318D01*
X122444999Y-59119673D01*
X122952999Y-59119673D01*
X122953681Y-59121318D01*
X122955326Y-59122000D01*
X123147345Y-59122000D01*
X123147939Y-59121970D01*
X123292031Y-59107333D01*
X123293192Y-59107095D01*
X123477776Y-59049250D01*
X123478863Y-59048784D01*
X123648044Y-58955005D01*
X123649010Y-58954334D01*
X123795888Y-58828445D01*
X123796695Y-58827598D01*
X123915255Y-58674751D01*
X123915881Y-58673748D01*
X124001285Y-58500185D01*
X124001696Y-58499079D01*
X124022229Y-58420253D01*
X124021984Y-58418488D01*
X124021339Y-58418000D01*
X122955326Y-58418000D01*
X122953681Y-58418682D01*
X122952999Y-58420327D01*
X122952999Y-59119673D01*
X122444999Y-59119673D01*
X122444999Y-58420327D01*
X122444317Y-58418682D01*
X122442672Y-58418000D01*
X121373982Y-58418000D01*
X121372337Y-58418682D01*
X121372108Y-58419232D01*
X120002087Y-58419232D01*
X120001984Y-58418488D01*
X120001339Y-58418000D01*
X118286699Y-58418000D01*
X118278426Y-58414573D01*
X118274999Y-58406300D01*
X118274999Y-57907673D01*
X118782999Y-57907673D01*
X118783681Y-57909318D01*
X118785326Y-57910000D01*
X120004016Y-57910000D01*
X120005661Y-57909318D01*
X120005890Y-57908768D01*
X120005514Y-57907747D01*
X121375769Y-57907747D01*
X121376014Y-57909512D01*
X121376659Y-57910000D01*
X122442672Y-57910000D01*
X122444317Y-57909318D01*
X122444999Y-57907673D01*
X122952999Y-57907673D01*
X122953681Y-57909318D01*
X122955326Y-57910000D01*
X124024016Y-57910000D01*
X124025661Y-57909318D01*
X124025890Y-57908768D01*
X123964691Y-57742434D01*
X123964172Y-57741369D01*
X123862238Y-57576968D01*
X123861522Y-57576038D01*
X123728611Y-57435489D01*
X123727718Y-57434718D01*
X123569263Y-57323767D01*
X123568238Y-57323194D01*
X123390701Y-57246367D01*
X123389589Y-57246014D01*
X123200094Y-57206426D01*
X123199203Y-57206310D01*
X123193433Y-57206008D01*
X123193128Y-57206000D01*
X122955326Y-57206000D01*
X122953681Y-57206682D01*
X122952999Y-57208327D01*
X122952999Y-57907673D01*
X122444999Y-57907673D01*
X122444999Y-57208327D01*
X122444317Y-57206682D01*
X122442672Y-57206000D01*
X122250654Y-57206000D01*
X122250059Y-57206030D01*
X122105967Y-57220667D01*
X122104806Y-57220905D01*
X121920222Y-57278750D01*
X121919135Y-57279216D01*
X121749954Y-57372995D01*
X121748988Y-57373666D01*
X121602110Y-57499555D01*
X121601303Y-57500402D01*
X121482743Y-57653249D01*
X121482117Y-57654252D01*
X121396713Y-57827815D01*
X121396302Y-57828921D01*
X121375769Y-57907747D01*
X120005514Y-57907747D01*
X119944691Y-57742434D01*
X119944172Y-57741369D01*
X119842238Y-57576968D01*
X119841522Y-57576038D01*
X119708611Y-57435489D01*
X119707718Y-57434718D01*
X119549263Y-57323767D01*
X119548238Y-57323194D01*
X119370701Y-57246367D01*
X119369589Y-57246014D01*
X119180094Y-57206426D01*
X119179203Y-57206310D01*
X119173433Y-57206008D01*
X119173128Y-57206000D01*
X118785326Y-57206000D01*
X118783681Y-57206682D01*
X118782999Y-57208327D01*
X118782999Y-57907673D01*
X118274999Y-57907673D01*
X118274999Y-57208327D01*
X118274317Y-57206682D01*
X118272672Y-57206000D01*
X117930654Y-57206000D01*
X117930059Y-57206030D01*
X117785967Y-57220667D01*
X117784806Y-57220905D01*
X117600222Y-57278750D01*
X117599135Y-57279216D01*
X117514872Y-57325924D01*
X117505975Y-57326938D01*
X117498967Y-57321363D01*
X117497500Y-57315691D01*
X117497500Y-55503846D01*
X117496436Y-55483987D01*
X117494588Y-55449516D01*
X117494587Y-55449513D01*
X117494557Y-55448944D01*
X117458408Y-55307328D01*
X117454981Y-55299055D01*
X117431261Y-55249479D01*
X117343672Y-55132474D01*
X116715526Y-54504328D01*
X116674641Y-54467602D01*
X116548945Y-54393019D01*
X116548560Y-54392860D01*
X116548557Y-54392858D01*
X116546100Y-54391841D01*
X116540672Y-54389592D01*
X116540372Y-54389486D01*
X116489364Y-54371490D01*
X116489359Y-54371489D01*
X116488824Y-54371300D01*
X116344154Y-54350500D01*
X114448846Y-54350500D01*
X114448685Y-54350509D01*
X114448671Y-54350509D01*
X114394516Y-54353412D01*
X114394513Y-54353413D01*
X114393944Y-54353443D01*
X114252328Y-54389592D01*
X114251937Y-54389754D01*
X114251934Y-54389755D01*
X114248291Y-54391264D01*
X114244055Y-54393019D01*
X114194479Y-54416739D01*
X114194021Y-54417082D01*
X114077806Y-54504079D01*
X114077474Y-54504328D01*
X113961473Y-54620329D01*
X113953200Y-54623756D01*
X113944927Y-54620329D01*
X113941500Y-54612056D01*
X113941500Y-53471476D01*
X113939861Y-53430482D01*
X113907578Y-53287935D01*
X113904589Y-53280125D01*
X113888434Y-53242483D01*
X113807347Y-53120882D01*
X112064796Y-51177267D01*
X110511957Y-49445254D01*
X110511952Y-49445249D01*
X110511824Y-49445106D01*
X110462484Y-49396999D01*
X110461965Y-49396672D01*
X110461963Y-49396670D01*
X110373397Y-49340799D01*
X110338869Y-49319017D01*
X110330158Y-49315127D01*
X110265447Y-49291300D01*
X110120777Y-49270500D01*
X105517544Y-49270500D01*
X105509271Y-49267073D01*
X104927927Y-48685729D01*
X104924500Y-48677456D01*
X104924500Y-47484005D01*
X116020418Y-47484005D01*
X116040761Y-47872181D01*
X116101569Y-48256104D01*
X116202174Y-48631567D01*
X116202285Y-48631856D01*
X116327776Y-48958770D01*
X116341475Y-48994458D01*
X116341605Y-48994714D01*
X116341609Y-48994722D01*
X116504830Y-49315060D01*
X116517945Y-49340799D01*
X116518109Y-49341051D01*
X116518111Y-49341055D01*
X116721719Y-49654585D01*
X116729650Y-49666798D01*
X116974273Y-49968881D01*
X117249131Y-50243739D01*
X117551214Y-50488362D01*
X117877212Y-50700067D01*
X117877469Y-50700198D01*
X117877476Y-50700202D01*
X118223290Y-50876403D01*
X118223298Y-50876407D01*
X118223554Y-50876537D01*
X118223827Y-50876642D01*
X118223832Y-50876644D01*
X118520568Y-50990550D01*
X118586445Y-51015838D01*
X118961908Y-51116443D01*
X119244355Y-51161179D01*
X119345527Y-51177203D01*
X119345530Y-51177203D01*
X119345831Y-51177251D01*
X119734007Y-51197594D01*
X120122183Y-51177251D01*
X120122484Y-51177203D01*
X120122487Y-51177203D01*
X120223659Y-51161179D01*
X120506106Y-51116443D01*
X120881569Y-51015838D01*
X120947446Y-50990550D01*
X121244182Y-50876644D01*
X121244187Y-50876642D01*
X121244460Y-50876537D01*
X121244716Y-50876407D01*
X121244724Y-50876403D01*
X121590538Y-50700202D01*
X121590545Y-50700198D01*
X121590802Y-50700067D01*
X121916800Y-50488362D01*
X122218883Y-50243739D01*
X122493741Y-49968881D01*
X122738364Y-49666798D01*
X122746295Y-49654585D01*
X122949903Y-49341055D01*
X122949905Y-49341051D01*
X122950069Y-49340799D01*
X122963184Y-49315060D01*
X123126405Y-48994722D01*
X123126409Y-48994714D01*
X123126539Y-48994458D01*
X123140239Y-48958770D01*
X123265729Y-48631856D01*
X123265840Y-48631567D01*
X123366445Y-48256104D01*
X123427253Y-47872181D01*
X123447596Y-47484005D01*
X123427253Y-47095829D01*
X123366445Y-46711906D01*
X123265840Y-46336443D01*
X123177055Y-46105150D01*
X123126646Y-45973830D01*
X123126644Y-45973825D01*
X123126539Y-45973552D01*
X123126409Y-45973296D01*
X123126405Y-45973288D01*
X122950204Y-45627475D01*
X122950200Y-45627468D01*
X122950069Y-45627211D01*
X122738364Y-45301212D01*
X122513881Y-45024000D01*
X122493933Y-44999366D01*
X122493932Y-44999365D01*
X122493741Y-44999129D01*
X122218883Y-44724271D01*
X121916800Y-44479648D01*
X121590802Y-44267943D01*
X121590545Y-44267812D01*
X121590538Y-44267808D01*
X121244724Y-44091607D01*
X121244716Y-44091603D01*
X121244460Y-44091473D01*
X121244187Y-44091368D01*
X121244182Y-44091366D01*
X120881858Y-43952283D01*
X120881859Y-43952283D01*
X120881569Y-43952172D01*
X120506106Y-43851567D01*
X120223659Y-43806831D01*
X120122487Y-43790807D01*
X120122484Y-43790807D01*
X120122183Y-43790759D01*
X119734007Y-43770416D01*
X119345831Y-43790759D01*
X119345530Y-43790807D01*
X119345527Y-43790807D01*
X119244355Y-43806831D01*
X118961908Y-43851567D01*
X118586445Y-43952172D01*
X118586155Y-43952283D01*
X118586156Y-43952283D01*
X118223832Y-44091366D01*
X118223827Y-44091368D01*
X118223554Y-44091473D01*
X118223298Y-44091603D01*
X118223290Y-44091607D01*
X117877477Y-44267808D01*
X117877470Y-44267812D01*
X117877213Y-44267943D01*
X117876961Y-44268107D01*
X117876957Y-44268109D01*
X117551477Y-44479477D01*
X117551214Y-44479648D01*
X117249131Y-44724271D01*
X116974273Y-44999129D01*
X116974082Y-44999365D01*
X116974081Y-44999366D01*
X116954133Y-45024000D01*
X116729650Y-45301212D01*
X116517945Y-45627211D01*
X116517814Y-45627468D01*
X116517810Y-45627475D01*
X116341609Y-45973288D01*
X116341605Y-45973296D01*
X116341475Y-45973552D01*
X116341370Y-45973825D01*
X116341368Y-45973830D01*
X116290959Y-46105150D01*
X116202174Y-46336443D01*
X116101569Y-46711906D01*
X116040761Y-47095829D01*
X116020418Y-47484005D01*
X104924500Y-47484005D01*
X104924500Y-46105236D01*
X104923520Y-46073522D01*
X104893824Y-45930414D01*
X104891112Y-45922924D01*
X104879406Y-45893466D01*
X104802770Y-45769011D01*
X104160039Y-44997734D01*
X103539031Y-44252524D01*
X103539025Y-44252517D01*
X103538990Y-44252475D01*
X103523699Y-44234950D01*
X103522984Y-44234167D01*
X103466007Y-44180602D01*
X103465456Y-44180275D01*
X103465452Y-44180272D01*
X103340673Y-44106234D01*
X103340311Y-44106019D01*
X103339926Y-44105860D01*
X103339923Y-44105858D01*
X103337466Y-44104841D01*
X103332038Y-44102592D01*
X103331738Y-44102486D01*
X103280730Y-44084490D01*
X103280725Y-44084489D01*
X103280190Y-44084300D01*
X103135520Y-44063500D01*
X98700846Y-44063500D01*
X98700685Y-44063509D01*
X98700671Y-44063509D01*
X98646516Y-44066412D01*
X98646513Y-44066413D01*
X98645944Y-44066443D01*
X98645387Y-44066585D01*
X98645388Y-44066585D01*
X98548307Y-44091366D01*
X98504328Y-44102592D01*
X98503937Y-44102754D01*
X98503934Y-44102755D01*
X98500291Y-44104264D01*
X98496055Y-44106019D01*
X98446479Y-44129739D01*
X98446021Y-44130082D01*
X98329806Y-44217079D01*
X98329474Y-44217328D01*
X96812328Y-45734474D01*
X96775602Y-45775359D01*
X96701019Y-45901055D01*
X96697773Y-45908890D01*
X96697592Y-45909328D01*
X96697545Y-45909461D01*
X96697542Y-45909469D01*
X96679490Y-45960636D01*
X96679489Y-45960641D01*
X96679300Y-45961176D01*
X96658500Y-46105846D01*
X96658500Y-47474537D01*
X96655073Y-47482810D01*
X96646800Y-47486237D01*
X96638527Y-47482810D01*
X96635452Y-47477387D01*
X96622042Y-47423999D01*
X96621925Y-47423533D01*
X96529570Y-47211131D01*
X96403764Y-47016665D01*
X96247887Y-46845358D01*
X96066123Y-46701810D01*
X96065710Y-46701582D01*
X96065707Y-46701580D01*
X95863776Y-46590108D01*
X95863772Y-46590106D01*
X95863355Y-46589876D01*
X95862907Y-46589717D01*
X95862904Y-46589716D01*
X95645483Y-46512723D01*
X95645482Y-46512723D01*
X95645028Y-46512562D01*
X95644558Y-46512478D01*
X95644553Y-46512477D01*
X95417472Y-46472028D01*
X95417006Y-46471945D01*
X95416532Y-46471939D01*
X95416530Y-46471939D01*
X95293081Y-46470431D01*
X95185411Y-46469116D01*
X94956464Y-46504150D01*
X94736314Y-46576106D01*
X94530872Y-46683052D01*
X94345655Y-46822117D01*
X94185639Y-46989564D01*
X94055119Y-47180899D01*
X93957602Y-47390981D01*
X93957474Y-47391443D01*
X93957472Y-47391448D01*
X93932136Y-47482810D01*
X93895707Y-47614169D01*
X93871095Y-47844469D01*
X93884427Y-48075697D01*
X93935346Y-48301642D01*
X94022484Y-48516237D01*
X94022736Y-48516648D01*
X94126349Y-48685729D01*
X94143501Y-48713719D01*
X94295147Y-48888784D01*
X94473349Y-49036730D01*
X94673322Y-49153584D01*
X94889694Y-49236209D01*
X95116656Y-49282385D01*
X95117137Y-49282403D01*
X95117140Y-49282403D01*
X95217788Y-49286093D01*
X95348113Y-49290872D01*
X95348588Y-49290811D01*
X95348592Y-49290811D01*
X95577372Y-49261503D01*
X95577374Y-49261503D01*
X95577847Y-49261442D01*
X95799690Y-49194886D01*
X96007684Y-49092991D01*
X96086222Y-49036971D01*
X96195857Y-48958770D01*
X96195862Y-48958766D01*
X96196243Y-48958494D01*
X96360303Y-48795005D01*
X96495458Y-48606917D01*
X96598078Y-48399280D01*
X96635605Y-48275764D01*
X96641289Y-48268844D01*
X96650201Y-48267970D01*
X96657121Y-48273654D01*
X96658500Y-48279165D01*
X96658500Y-49385931D01*
X96654505Y-49394735D01*
X96651427Y-49397429D01*
X96364369Y-49648605D01*
X96356664Y-49651500D01*
X86652846Y-49651500D01*
X86652685Y-49651509D01*
X86652671Y-49651509D01*
X86598516Y-49654412D01*
X86598513Y-49654413D01*
X86597944Y-49654443D01*
X86456328Y-49690592D01*
X86455937Y-49690754D01*
X86455934Y-49690755D01*
X86452291Y-49692264D01*
X86448055Y-49694019D01*
X86398479Y-49717739D01*
X86398021Y-49718082D01*
X86281806Y-49805079D01*
X86281474Y-49805328D01*
X81970328Y-54116474D01*
X81933602Y-54157359D01*
X81859019Y-54283055D01*
X81855592Y-54291328D01*
X81855542Y-54291471D01*
X81855540Y-54291475D01*
X81837490Y-54342636D01*
X81837489Y-54342641D01*
X81837300Y-54343176D01*
X81816500Y-54487846D01*
X81816500Y-55227800D01*
X81813073Y-55236073D01*
X81804800Y-55239500D01*
X81452700Y-55239500D01*
X81452539Y-55239509D01*
X81452525Y-55239509D01*
X81398370Y-55242412D01*
X81398367Y-55242413D01*
X81397798Y-55242443D01*
X81256182Y-55278592D01*
X81255791Y-55278754D01*
X81255788Y-55278755D01*
X81253672Y-55279632D01*
X81247909Y-55282019D01*
X81151576Y-55334621D01*
X81151037Y-55335123D01*
X81046451Y-55432492D01*
X81044602Y-55434213D01*
X80973268Y-55554434D01*
X80966100Y-55559800D01*
X80957237Y-55558525D01*
X80954934Y-55556736D01*
X80918526Y-55520328D01*
X80877641Y-55483602D01*
X80751945Y-55409019D01*
X80751560Y-55408860D01*
X80751557Y-55408858D01*
X80749100Y-55407841D01*
X80743672Y-55405592D01*
X80743372Y-55405486D01*
X80692364Y-55387490D01*
X80692359Y-55387489D01*
X80691824Y-55387300D01*
X80547154Y-55366500D01*
X78778846Y-55366500D01*
X78778685Y-55366509D01*
X78778671Y-55366509D01*
X78724516Y-55369412D01*
X78724513Y-55369413D01*
X78723944Y-55369443D01*
X78582328Y-55405592D01*
X78581937Y-55405754D01*
X78581934Y-55405755D01*
X78578291Y-55407264D01*
X78574055Y-55409019D01*
X78524479Y-55432739D01*
X78522510Y-55434213D01*
X78407806Y-55520079D01*
X78407474Y-55520328D01*
X77906328Y-56021474D01*
X77869602Y-56062359D01*
X77795019Y-56188055D01*
X77791592Y-56196328D01*
X77791542Y-56196471D01*
X77791540Y-56196475D01*
X77773490Y-56247636D01*
X77773489Y-56247641D01*
X77773300Y-56248176D01*
X77752500Y-56392846D01*
X77752500Y-58194635D01*
X77749073Y-58202908D01*
X77740800Y-58206335D01*
X77739534Y-58206266D01*
X77737402Y-58206034D01*
X77736769Y-58206000D01*
X77370320Y-58206000D01*
X77368675Y-58206682D01*
X77367993Y-58208327D01*
X77367993Y-59036000D01*
X77364566Y-59044273D01*
X77356293Y-59047700D01*
X76900956Y-59047700D01*
X76896849Y-59046955D01*
X76885003Y-59042514D01*
X76884995Y-59042512D01*
X76884309Y-59042255D01*
X76876731Y-59041432D01*
X76870429Y-59040747D01*
X76862575Y-59036446D01*
X76859993Y-59029115D01*
X76859993Y-58208328D01*
X76859311Y-58206683D01*
X76857666Y-58206001D01*
X76754200Y-58206001D01*
X76745927Y-58202574D01*
X76742500Y-58194301D01*
X76742500Y-47484005D01*
X77520419Y-47484005D01*
X77540762Y-47872181D01*
X77601570Y-48256104D01*
X77702175Y-48631567D01*
X77702286Y-48631856D01*
X77827777Y-48958770D01*
X77841476Y-48994458D01*
X77841606Y-48994714D01*
X77841610Y-48994722D01*
X78004831Y-49315060D01*
X78017946Y-49340799D01*
X78018110Y-49341051D01*
X78018112Y-49341055D01*
X78221720Y-49654585D01*
X78229651Y-49666798D01*
X78474274Y-49968881D01*
X78749132Y-50243739D01*
X79051215Y-50488362D01*
X79377213Y-50700067D01*
X79377470Y-50700198D01*
X79377477Y-50700202D01*
X79723291Y-50876403D01*
X79723299Y-50876407D01*
X79723555Y-50876537D01*
X79723828Y-50876642D01*
X79723833Y-50876644D01*
X80020569Y-50990550D01*
X80086446Y-51015838D01*
X80461909Y-51116443D01*
X80744356Y-51161179D01*
X80845528Y-51177203D01*
X80845531Y-51177203D01*
X80845832Y-51177251D01*
X81234008Y-51197594D01*
X81622184Y-51177251D01*
X81622485Y-51177203D01*
X81622488Y-51177203D01*
X81723660Y-51161179D01*
X82006107Y-51116443D01*
X82381570Y-51015838D01*
X82447447Y-50990550D01*
X82744183Y-50876644D01*
X82744188Y-50876642D01*
X82744461Y-50876537D01*
X82744717Y-50876407D01*
X82744725Y-50876403D01*
X83090539Y-50700202D01*
X83090546Y-50700198D01*
X83090803Y-50700067D01*
X83416801Y-50488362D01*
X83718884Y-50243739D01*
X83993742Y-49968881D01*
X84238365Y-49666798D01*
X84246296Y-49654585D01*
X84449904Y-49341055D01*
X84449906Y-49341051D01*
X84450070Y-49340799D01*
X84463185Y-49315060D01*
X84626406Y-48994722D01*
X84626410Y-48994714D01*
X84626540Y-48994458D01*
X84640240Y-48958770D01*
X84765730Y-48631856D01*
X84765841Y-48631567D01*
X84866446Y-48256104D01*
X84927254Y-47872181D01*
X84947597Y-47484005D01*
X84927254Y-47095829D01*
X84866446Y-46711906D01*
X84765841Y-46336443D01*
X84677056Y-46105150D01*
X84626647Y-45973830D01*
X84626645Y-45973825D01*
X84626540Y-45973552D01*
X84626410Y-45973296D01*
X84626406Y-45973288D01*
X84450205Y-45627475D01*
X84450201Y-45627468D01*
X84450070Y-45627211D01*
X84238365Y-45301212D01*
X84013882Y-45024000D01*
X83993934Y-44999366D01*
X83993933Y-44999365D01*
X83993742Y-44999129D01*
X83718884Y-44724271D01*
X83416801Y-44479648D01*
X83090803Y-44267943D01*
X83090546Y-44267812D01*
X83090539Y-44267808D01*
X82744725Y-44091607D01*
X82744717Y-44091603D01*
X82744461Y-44091473D01*
X82744188Y-44091368D01*
X82744183Y-44091366D01*
X82381859Y-43952283D01*
X82381860Y-43952283D01*
X82381570Y-43952172D01*
X82006107Y-43851567D01*
X81723660Y-43806831D01*
X81622488Y-43790807D01*
X81622485Y-43790807D01*
X81622184Y-43790759D01*
X81234008Y-43770416D01*
X80845832Y-43790759D01*
X80845531Y-43790807D01*
X80845528Y-43790807D01*
X80744356Y-43806831D01*
X80461909Y-43851567D01*
X80086446Y-43952172D01*
X80086156Y-43952283D01*
X80086157Y-43952283D01*
X79723833Y-44091366D01*
X79723828Y-44091368D01*
X79723555Y-44091473D01*
X79723299Y-44091603D01*
X79723291Y-44091607D01*
X79377478Y-44267808D01*
X79377471Y-44267812D01*
X79377214Y-44267943D01*
X79376962Y-44268107D01*
X79376958Y-44268109D01*
X79051478Y-44479477D01*
X79051215Y-44479648D01*
X78749132Y-44724271D01*
X78474274Y-44999129D01*
X78474083Y-44999365D01*
X78474082Y-44999366D01*
X78454134Y-45024000D01*
X78229651Y-45301212D01*
X78017946Y-45627211D01*
X78017815Y-45627468D01*
X78017811Y-45627475D01*
X77841610Y-45973288D01*
X77841606Y-45973296D01*
X77841476Y-45973552D01*
X77841371Y-45973825D01*
X77841369Y-45973830D01*
X77790960Y-46105150D01*
X77702175Y-46336443D01*
X77601570Y-46711906D01*
X77540762Y-47095829D01*
X77520419Y-47484005D01*
X76742500Y-47484005D01*
X76742500Y-45067701D01*
X76742662Y-45065760D01*
X76747502Y-45036992D01*
X76747576Y-45036552D01*
X76747729Y-45024000D01*
X76746831Y-45017724D01*
X76744315Y-45000157D01*
X76744222Y-44997734D01*
X76759830Y-44759600D01*
X76760030Y-44758082D01*
X76811572Y-44498961D01*
X76811968Y-44497483D01*
X76818023Y-44479648D01*
X76896894Y-44247300D01*
X76897479Y-44245889D01*
X76902850Y-44234999D01*
X76966349Y-44106234D01*
X77014330Y-44008938D01*
X77015095Y-44007613D01*
X77161875Y-43787941D01*
X77162806Y-43786727D01*
X77177097Y-43770432D01*
X77337007Y-43588090D01*
X77338090Y-43587007D01*
X77346571Y-43579569D01*
X77536731Y-43412803D01*
X77537937Y-43411878D01*
X77647096Y-43338940D01*
X77757613Y-43265095D01*
X77758938Y-43264330D01*
X77880371Y-43204446D01*
X77995892Y-43147478D01*
X77997300Y-43146894D01*
X78247489Y-43061966D01*
X78248955Y-43061574D01*
X78508082Y-43010030D01*
X78509600Y-43009830D01*
X78744831Y-42994412D01*
X78747396Y-42994526D01*
X78761981Y-42996797D01*
X78767724Y-42997691D01*
X78768550Y-42997583D01*
X78806664Y-42992599D01*
X78808181Y-42992500D01*
X122218479Y-42992500D01*
X122220278Y-42992639D01*
G37*
%TD.AperFunction*%
%TD*%
M02*
