%TF.GenerationSoftware,KiCad,Pcbnew,(6.0.4)*%
%TF.CreationDate,2022-04-23T23:59:38+08:00*%
%TF.ProjectId,USBC_PD_TEST,55534243-5f50-4445-9f54-4553542e6b69,V0.9*%
%TF.SameCoordinates,Original*%
%TF.FileFunction,Copper,L3,Inr*%
%TF.FilePolarity,Positive*%
%FSLAX46Y46*%
G04 Gerber Fmt 4.6, Leading zero omitted, Abs format (unit mm)*
G04 Created by KiCad (PCBNEW (6.0.4)) date 2022-04-23 23:59:38*
%MOMM*%
%LPD*%
G01*
G04 APERTURE LIST*
%TA.AperFunction,NonConductor*%
%ADD10C,0.200000*%
%TD*%
%ADD11C,0.300000*%
%TA.AperFunction,NonConductor*%
%ADD12C,0.300000*%
%TD*%
%TA.AperFunction,ComponentPad*%
%ADD13C,1.800000*%
%TD*%
%TA.AperFunction,ComponentPad*%
%ADD14R,1.700000X1.700000*%
%TD*%
%TA.AperFunction,ComponentPad*%
%ADD15O,1.700000X1.700000*%
%TD*%
%TA.AperFunction,ComponentPad*%
%ADD16C,6.400000*%
%TD*%
%TA.AperFunction,ComponentPad*%
%ADD17C,0.800000*%
%TD*%
%TA.AperFunction,ComponentPad*%
%ADD18O,2.000000X0.900000*%
%TD*%
%TA.AperFunction,ComponentPad*%
%ADD19O,1.700000X0.900000*%
%TD*%
%TA.AperFunction,ComponentPad*%
%ADD20C,4.800000*%
%TD*%
%TA.AperFunction,ViaPad*%
%ADD21C,0.800000*%
%TD*%
%TA.AperFunction,ViaPad*%
%ADD22C,0.600000*%
%TD*%
G04 APERTURE END LIST*
D10*
X108492000Y-77533500D02*
X110651000Y-77533500D01*
X110651000Y-77533500D02*
X110651000Y-80200500D01*
X110651000Y-80200500D02*
X108492000Y-80200500D01*
X108492000Y-80200500D02*
X108492000Y-77533500D01*
D11*
D12*
X109206428Y-78315428D02*
X109277857Y-78244000D01*
X109420714Y-78172571D01*
X109777857Y-78172571D01*
X109920714Y-78244000D01*
X109992142Y-78315428D01*
X110063571Y-78458285D01*
X110063571Y-78601142D01*
X109992142Y-78815428D01*
X109135000Y-79672571D01*
X110063571Y-79672571D01*
D13*
%TO.N,/SBU2*%
%TO.C,TP8*%
X97934000Y-67564000D03*
%TD*%
%TO.N,VBUS*%
%TO.C,TP2*%
X95284000Y-47879000D03*
%TD*%
D14*
%TO.N,/USB_D-*%
%TO.C,J2*%
X112158000Y-61214000D03*
D15*
%TO.N,/USB_D+*%
X112158000Y-63754000D03*
%TD*%
D16*
%TO.N,N/C*%
%TO.C,H2*%
X119734007Y-47484005D03*
D17*
X119734000Y-45084000D03*
X119734000Y-49884000D03*
X122134000Y-47484000D03*
X121431056Y-49181056D03*
X117334000Y-47484000D03*
X118036944Y-49181056D03*
X118036944Y-45786944D03*
X121431056Y-45786944D03*
%TD*%
D18*
%TO.N,Earth*%
%TO.C,J1*%
X118528999Y-58164000D03*
D19*
X122698999Y-66804000D03*
X122698999Y-58164000D03*
D18*
X118528999Y-66804000D03*
%TD*%
D17*
%TO.N,N/C*%
%TO.C,H4*%
X118036944Y-79181056D03*
X119734000Y-79884000D03*
X122134000Y-77484000D03*
X121431056Y-75786944D03*
X117334000Y-77484000D03*
D16*
X119734007Y-77483995D03*
D17*
X118036944Y-75786944D03*
X121431056Y-79181056D03*
X119734000Y-75084000D03*
%TD*%
D13*
%TO.N,/VCONN*%
%TO.C,TP4*%
X97934000Y-57404000D03*
%TD*%
%TO.N,/CC*%
%TO.C,TP3*%
X103014000Y-67564000D03*
%TD*%
%TO.N,/USB_D-*%
%TO.C,TP5*%
X108729000Y-60579000D03*
%TD*%
D17*
%TO.N,N/C*%
%TO.C,H3*%
X81234000Y-75084000D03*
X79536944Y-79181056D03*
D16*
X81234008Y-77483995D03*
D17*
X82931056Y-75786944D03*
X79536944Y-75786944D03*
X82931056Y-79181056D03*
X81234000Y-79884000D03*
X83634000Y-77484000D03*
X78834000Y-77484000D03*
%TD*%
D20*
%TO.N,VBUS*%
%TO.C,TP1*%
X100728000Y-47879000D03*
%TD*%
D13*
%TO.N,/USB_D+*%
%TO.C,TP6*%
X108729000Y-64389000D03*
%TD*%
%TO.N,GND*%
%TO.C,TP10*%
X95284000Y-77724000D03*
%TD*%
D17*
%TO.N,N/C*%
%TO.C,H1*%
X81234000Y-45084000D03*
X82931056Y-45786944D03*
X78834000Y-47484000D03*
X81234000Y-49884000D03*
X82931056Y-49181056D03*
X79536944Y-45786944D03*
D16*
X81234008Y-47484005D03*
D17*
X83634000Y-47484000D03*
X79536944Y-49181056D03*
%TD*%
D20*
%TO.N,GND*%
%TO.C,TP9*%
X100982000Y-76962000D03*
%TD*%
D13*
%TO.N,/SBU1*%
%TO.C,TP7*%
X103014000Y-57404000D03*
%TD*%
D21*
%TO.N,GND*%
X116095000Y-67818000D03*
X115460000Y-55626000D03*
X101617000Y-64770000D03*
X78774000Y-65913000D03*
X78774000Y-59055000D03*
X78901000Y-66675000D03*
X114571000Y-69342000D03*
X108322600Y-74930000D03*
X94225600Y-74930000D03*
X116095000Y-69342000D03*
X100728000Y-63754000D03*
D22*
X85742000Y-66802000D03*
X89696000Y-57023000D03*
D21*
X79536000Y-65913000D03*
X79663000Y-67437000D03*
X116222000Y-57912000D03*
X101617000Y-60198000D03*
X95698800Y-70739000D03*
X79663000Y-58293000D03*
X80298000Y-59055000D03*
X104665000Y-59563000D03*
X105350800Y-70739000D03*
X92295200Y-74930000D03*
X106951000Y-66167000D03*
X115333000Y-68580000D03*
X96156000Y-74930000D03*
D22*
X92744000Y-57023000D03*
D21*
X115333000Y-67818000D03*
X80425000Y-56769000D03*
X79663000Y-57531000D03*
X116222000Y-56388000D03*
X80425000Y-68199000D03*
X116222000Y-55626000D03*
X101490000Y-70739000D03*
X97629200Y-70739000D03*
X79663000Y-56769000D03*
D22*
X92744000Y-68072000D03*
D21*
X78901000Y-58293000D03*
X99559600Y-70739000D03*
X105046000Y-63754000D03*
X78901000Y-57531000D03*
X90364800Y-74930000D03*
X104461800Y-74930000D03*
X110507000Y-66167000D03*
X88434400Y-74930000D03*
X103420400Y-70739000D03*
X80425000Y-58293000D03*
X104665000Y-65405000D03*
X110253000Y-74930000D03*
X115460000Y-57150000D03*
X110253000Y-62484000D03*
X79663000Y-66675000D03*
X112183400Y-74930000D03*
X115460000Y-56388000D03*
X106951000Y-58801000D03*
X80425000Y-67437000D03*
X106392200Y-74930000D03*
X114571000Y-68580000D03*
X78901000Y-56769000D03*
X78901000Y-68199000D03*
D22*
X89696000Y-68072000D03*
D21*
X106570000Y-62484000D03*
X80425000Y-57531000D03*
X79536000Y-59055000D03*
X100728000Y-61214000D03*
X114698000Y-55626000D03*
X115333000Y-69342000D03*
X79663000Y-68199000D03*
X105046000Y-61214000D03*
X116222000Y-57150000D03*
X80298000Y-65913000D03*
X116095000Y-67056000D03*
X110507000Y-58801000D03*
X114113800Y-74930000D03*
X80425000Y-66675000D03*
X86504000Y-74930000D03*
X78901000Y-67437000D03*
X116095000Y-68580000D03*
X114698000Y-56388000D03*
%TO.N,VBUS*%
X96460800Y-55372000D03*
X82076000Y-56388000D03*
X82838000Y-64770000D03*
X112539000Y-68199000D03*
X111269000Y-51943000D03*
X82076000Y-68580000D03*
X105808000Y-50419000D03*
X115587000Y-59817000D03*
X82838000Y-58674000D03*
X82838000Y-60198000D03*
X82838000Y-59436000D03*
X82076000Y-67056000D03*
X82076000Y-66294000D03*
X82838000Y-67818000D03*
X82076000Y-57150000D03*
X82076000Y-65532000D03*
X112539000Y-56769000D03*
X82838000Y-68580000D03*
X82076000Y-60198000D03*
X114063000Y-66675000D03*
X82838000Y-65532000D03*
X109872000Y-50419000D03*
X114571000Y-58801000D03*
X106570000Y-54483000D03*
X114571000Y-66167000D03*
X82838000Y-67056000D03*
X92600000Y-55372000D03*
X115079000Y-65659000D03*
X104639600Y-54483000D03*
X87545400Y-50800000D03*
X113555000Y-57785000D03*
X82838000Y-57150000D03*
X90669600Y-55372000D03*
X88739200Y-55372000D03*
X82076000Y-67818000D03*
X112031000Y-68707000D03*
X115587000Y-65151000D03*
X113047000Y-57277000D03*
X82838000Y-66294000D03*
X82838000Y-57912000D03*
X102709200Y-54483000D03*
X82076000Y-64770000D03*
X82076000Y-57912000D03*
X113047000Y-67691000D03*
X82076000Y-58674000D03*
X89475800Y-50800000D03*
X100778800Y-54483000D03*
X98848400Y-54483000D03*
X113555000Y-67183000D03*
X112031000Y-56261000D03*
X107967000Y-50419000D03*
X82838000Y-56388000D03*
X94530400Y-55372000D03*
X82076000Y-59436000D03*
X115079000Y-59309000D03*
X93336600Y-50800000D03*
X114063000Y-58293000D03*
X91406200Y-50800000D03*
%TO.N,/USB_D-*%
X119837257Y-62760117D03*
X116476000Y-62032900D03*
D22*
%TO.N,Earth*%
X77249993Y-58166000D03*
X107222000Y-46609000D03*
X77250000Y-67437000D03*
D21*
X123715000Y-63246000D03*
D22*
X91728000Y-79629000D03*
X77250000Y-66802000D03*
D21*
X122826000Y-63246000D03*
D22*
X86521000Y-79629000D03*
X77250000Y-68072000D03*
D21*
X122826000Y-62484000D03*
D22*
X110397000Y-46609000D03*
X77250000Y-57531000D03*
D21*
X123715000Y-61722000D03*
D22*
X87156000Y-45212000D03*
D21*
X123715000Y-62484000D03*
X122826000Y-61722000D03*
D22*
X91855000Y-45212000D03*
X77250000Y-56896000D03*
X116493000Y-81280000D03*
%TD*%
%TA.AperFunction,Conductor*%
%TO.N,VBUS*%
G36*
X103171116Y-44594593D02*
G01*
X103180548Y-44604058D01*
X104410570Y-46080084D01*
X104428000Y-46128226D01*
X104428000Y-48895000D01*
X105317000Y-49784000D01*
X110109423Y-49784000D01*
X110157761Y-49801593D01*
X110165413Y-49808999D01*
X110723428Y-50431400D01*
X113425792Y-53445576D01*
X113445000Y-53495775D01*
X113445000Y-56769000D01*
X116241739Y-59687336D01*
X116345094Y-59795185D01*
X116366000Y-59847216D01*
X116366000Y-61066589D01*
X116348407Y-61114927D01*
X116306435Y-61140146D01*
X116279162Y-61145943D01*
X116197563Y-61163287D01*
X116197559Y-61163288D01*
X116193712Y-61164106D01*
X116090452Y-61210080D01*
X116022850Y-61240178D01*
X116022848Y-61240179D01*
X116019248Y-61241782D01*
X115864747Y-61354034D01*
X115736960Y-61495956D01*
X115734991Y-61499366D01*
X115734989Y-61499369D01*
X115675155Y-61603005D01*
X115641473Y-61661344D01*
X115582458Y-61842972D01*
X115582047Y-61846886D01*
X115582046Y-61846889D01*
X115571826Y-61944130D01*
X115562496Y-62032900D01*
X115562908Y-62036820D01*
X115570610Y-62110096D01*
X115582458Y-62222828D01*
X115641473Y-62404456D01*
X115655654Y-62429018D01*
X115733638Y-62564090D01*
X115736960Y-62569844D01*
X115864747Y-62711766D01*
X116019248Y-62824018D01*
X116022848Y-62825621D01*
X116022850Y-62825622D01*
X116069337Y-62846319D01*
X116193712Y-62901694D01*
X116197559Y-62902512D01*
X116197563Y-62902513D01*
X116279162Y-62919857D01*
X116306435Y-62925654D01*
X116350058Y-62952913D01*
X116366000Y-62999211D01*
X116366000Y-65120974D01*
X116345320Y-65172768D01*
X113282743Y-68396534D01*
X111540000Y-70231000D01*
X111540000Y-72864734D01*
X111522407Y-72913072D01*
X111515385Y-72920377D01*
X110325663Y-74001943D01*
X110275078Y-74021500D01*
X110157513Y-74021500D01*
X110064112Y-74041353D01*
X109974563Y-74060387D01*
X109974559Y-74060388D01*
X109970712Y-74061206D01*
X109883819Y-74099893D01*
X109799850Y-74137278D01*
X109799848Y-74137279D01*
X109796248Y-74138882D01*
X109793058Y-74141200D01*
X109793054Y-74141202D01*
X109775937Y-74153638D01*
X109731736Y-74168000D01*
X108843864Y-74168000D01*
X108799663Y-74153638D01*
X108782546Y-74141202D01*
X108782542Y-74141200D01*
X108779352Y-74138882D01*
X108775752Y-74137279D01*
X108775750Y-74137278D01*
X108691781Y-74099893D01*
X108604888Y-74061206D01*
X108601041Y-74060388D01*
X108601037Y-74060387D01*
X108511488Y-74041353D01*
X108418087Y-74021500D01*
X108227113Y-74021500D01*
X108133712Y-74041353D01*
X108044163Y-74060387D01*
X108044159Y-74060388D01*
X108040312Y-74061206D01*
X107953419Y-74099893D01*
X107869450Y-74137278D01*
X107869448Y-74137279D01*
X107865848Y-74138882D01*
X107862658Y-74141200D01*
X107862654Y-74141202D01*
X107845537Y-74153638D01*
X107801336Y-74168000D01*
X106913464Y-74168000D01*
X106869263Y-74153638D01*
X106852146Y-74141202D01*
X106852142Y-74141200D01*
X106848952Y-74138882D01*
X106845352Y-74137279D01*
X106845350Y-74137278D01*
X106761381Y-74099893D01*
X106674488Y-74061206D01*
X106670641Y-74060388D01*
X106670637Y-74060387D01*
X106581088Y-74041353D01*
X106487687Y-74021500D01*
X106296713Y-74021500D01*
X106203312Y-74041353D01*
X106113763Y-74060387D01*
X106113759Y-74060388D01*
X106109912Y-74061206D01*
X106023019Y-74099893D01*
X105939050Y-74137278D01*
X105939048Y-74137279D01*
X105935448Y-74138882D01*
X105932258Y-74141200D01*
X105932254Y-74141202D01*
X105915137Y-74153638D01*
X105870936Y-74168000D01*
X104983064Y-74168000D01*
X104938863Y-74153638D01*
X104921746Y-74141202D01*
X104921742Y-74141200D01*
X104918552Y-74138882D01*
X104914952Y-74137279D01*
X104914950Y-74137278D01*
X104830981Y-74099893D01*
X104744088Y-74061206D01*
X104740241Y-74060388D01*
X104740237Y-74060387D01*
X104650688Y-74041353D01*
X104557287Y-74021500D01*
X104366313Y-74021500D01*
X104272912Y-74041353D01*
X104183363Y-74060387D01*
X104183359Y-74060388D01*
X104179512Y-74061206D01*
X104092619Y-74099893D01*
X104008650Y-74137278D01*
X104008648Y-74137279D01*
X104005048Y-74138882D01*
X104001858Y-74141200D01*
X104001854Y-74141202D01*
X103984737Y-74153638D01*
X103940536Y-74168000D01*
X101807239Y-74168000D01*
X101788919Y-74165734D01*
X101691253Y-74141202D01*
X101527922Y-74100176D01*
X101525774Y-74099893D01*
X101525773Y-74099893D01*
X101411905Y-74084902D01*
X101195374Y-74056395D01*
X101193217Y-74056361D01*
X101193215Y-74056361D01*
X100862163Y-74051161D01*
X100859998Y-74051127D01*
X100857848Y-74051342D01*
X100857839Y-74051342D01*
X100528402Y-74084224D01*
X100528400Y-74084224D01*
X100526239Y-74084440D01*
X100524126Y-74084901D01*
X100524118Y-74084902D01*
X100200638Y-74155432D01*
X100200631Y-74155434D01*
X100198521Y-74155894D01*
X100175002Y-74163946D01*
X100150645Y-74168000D01*
X96677264Y-74168000D01*
X96633063Y-74153638D01*
X96615946Y-74141202D01*
X96615942Y-74141200D01*
X96612752Y-74138882D01*
X96609152Y-74137279D01*
X96609150Y-74137278D01*
X96525181Y-74099893D01*
X96438288Y-74061206D01*
X96434441Y-74060388D01*
X96434437Y-74060387D01*
X96344888Y-74041353D01*
X96251487Y-74021500D01*
X96060513Y-74021500D01*
X95967112Y-74041353D01*
X95877563Y-74060387D01*
X95877559Y-74060388D01*
X95873712Y-74061206D01*
X95786819Y-74099893D01*
X95702850Y-74137278D01*
X95702848Y-74137279D01*
X95699248Y-74138882D01*
X95696058Y-74141200D01*
X95696054Y-74141202D01*
X95678937Y-74153638D01*
X95634736Y-74168000D01*
X94746864Y-74168000D01*
X94702663Y-74153638D01*
X94685546Y-74141202D01*
X94685542Y-74141200D01*
X94682352Y-74138882D01*
X94678752Y-74137279D01*
X94678750Y-74137278D01*
X94594781Y-74099893D01*
X94507888Y-74061206D01*
X94504041Y-74060388D01*
X94504037Y-74060387D01*
X94414488Y-74041353D01*
X94321087Y-74021500D01*
X94130113Y-74021500D01*
X94036712Y-74041353D01*
X93947163Y-74060387D01*
X93947159Y-74060388D01*
X93943312Y-74061206D01*
X93856419Y-74099893D01*
X93772450Y-74137278D01*
X93772448Y-74137279D01*
X93768848Y-74138882D01*
X93765658Y-74141200D01*
X93765654Y-74141202D01*
X93748537Y-74153638D01*
X93704336Y-74168000D01*
X92816464Y-74168000D01*
X92772263Y-74153638D01*
X92755146Y-74141202D01*
X92755142Y-74141200D01*
X92751952Y-74138882D01*
X92748352Y-74137279D01*
X92748350Y-74137278D01*
X92664381Y-74099893D01*
X92577488Y-74061206D01*
X92573641Y-74060388D01*
X92573637Y-74060387D01*
X92484088Y-74041353D01*
X92390687Y-74021500D01*
X92199713Y-74021500D01*
X92106312Y-74041353D01*
X92016763Y-74060387D01*
X92016759Y-74060388D01*
X92012912Y-74061206D01*
X91926019Y-74099893D01*
X91842050Y-74137278D01*
X91842048Y-74137279D01*
X91838448Y-74138882D01*
X91835258Y-74141200D01*
X91835254Y-74141202D01*
X91818137Y-74153638D01*
X91773936Y-74168000D01*
X90886064Y-74168000D01*
X90841863Y-74153638D01*
X90824746Y-74141202D01*
X90824742Y-74141200D01*
X90821552Y-74138882D01*
X90817952Y-74137279D01*
X90817950Y-74137278D01*
X90733981Y-74099893D01*
X90647088Y-74061206D01*
X90643241Y-74060388D01*
X90643237Y-74060387D01*
X90553688Y-74041353D01*
X90460287Y-74021500D01*
X90269313Y-74021500D01*
X90175912Y-74041353D01*
X90086363Y-74060387D01*
X90086359Y-74060388D01*
X90082512Y-74061206D01*
X89995619Y-74099893D01*
X89911650Y-74137278D01*
X89911648Y-74137279D01*
X89908048Y-74138882D01*
X89904858Y-74141200D01*
X89904854Y-74141202D01*
X89887737Y-74153638D01*
X89843536Y-74168000D01*
X88955664Y-74168000D01*
X88911463Y-74153638D01*
X88894346Y-74141202D01*
X88894342Y-74141200D01*
X88891152Y-74138882D01*
X88887552Y-74137279D01*
X88887550Y-74137278D01*
X88803581Y-74099893D01*
X88716688Y-74061206D01*
X88712841Y-74060388D01*
X88712837Y-74060387D01*
X88623288Y-74041353D01*
X88529887Y-74021500D01*
X88338913Y-74021500D01*
X88245512Y-74041353D01*
X88155963Y-74060387D01*
X88155959Y-74060388D01*
X88152112Y-74061206D01*
X88065219Y-74099893D01*
X87981250Y-74137278D01*
X87981248Y-74137279D01*
X87977648Y-74138882D01*
X87974458Y-74141200D01*
X87974454Y-74141202D01*
X87957337Y-74153638D01*
X87913136Y-74168000D01*
X87025264Y-74168000D01*
X86981063Y-74153638D01*
X86963946Y-74141202D01*
X86963942Y-74141200D01*
X86960752Y-74138882D01*
X86957152Y-74137279D01*
X86957150Y-74137278D01*
X86873181Y-74099893D01*
X86786288Y-74061206D01*
X86782441Y-74060388D01*
X86782437Y-74060387D01*
X86692888Y-74041353D01*
X86599487Y-74021500D01*
X86408513Y-74021500D01*
X86315112Y-74041353D01*
X86225563Y-74060387D01*
X86225559Y-74060388D01*
X86221712Y-74061206D01*
X86134819Y-74099893D01*
X86050850Y-74137278D01*
X86050848Y-74137279D01*
X86047248Y-74138882D01*
X86044058Y-74141200D01*
X86044054Y-74141202D01*
X86026937Y-74153638D01*
X85982736Y-74168000D01*
X85028898Y-74168000D01*
X84980560Y-74150407D01*
X84974830Y-74145066D01*
X84916672Y-74084902D01*
X81682301Y-70739000D01*
X94785296Y-70739000D01*
X94805258Y-70928928D01*
X94864273Y-71110556D01*
X94959760Y-71275944D01*
X95087547Y-71417866D01*
X95242048Y-71530118D01*
X95245648Y-71531721D01*
X95245650Y-71531722D01*
X95306057Y-71558616D01*
X95416512Y-71607794D01*
X95420359Y-71608612D01*
X95420363Y-71608613D01*
X95509912Y-71627647D01*
X95603313Y-71647500D01*
X95794287Y-71647500D01*
X95887688Y-71627647D01*
X95977237Y-71608613D01*
X95977241Y-71608612D01*
X95981088Y-71607794D01*
X96091543Y-71558616D01*
X96151950Y-71531722D01*
X96151952Y-71531721D01*
X96155552Y-71530118D01*
X96310053Y-71417866D01*
X96437840Y-71275944D01*
X96533327Y-71110556D01*
X96592342Y-70928928D01*
X96594373Y-70929588D01*
X96617701Y-70892254D01*
X96666623Y-70876358D01*
X96714318Y-70895627D01*
X96733878Y-70929506D01*
X96735658Y-70928928D01*
X96794673Y-71110556D01*
X96890160Y-71275944D01*
X97017947Y-71417866D01*
X97172448Y-71530118D01*
X97176048Y-71531721D01*
X97176050Y-71531722D01*
X97236457Y-71558616D01*
X97346912Y-71607794D01*
X97350759Y-71608612D01*
X97350763Y-71608613D01*
X97440312Y-71627647D01*
X97533713Y-71647500D01*
X97724687Y-71647500D01*
X97818088Y-71627647D01*
X97907637Y-71608613D01*
X97907641Y-71608612D01*
X97911488Y-71607794D01*
X98021943Y-71558616D01*
X98082350Y-71531722D01*
X98082352Y-71531721D01*
X98085952Y-71530118D01*
X98240453Y-71417866D01*
X98368240Y-71275944D01*
X98463727Y-71110556D01*
X98522742Y-70928928D01*
X98524773Y-70929588D01*
X98548101Y-70892254D01*
X98597023Y-70876358D01*
X98644718Y-70895627D01*
X98664278Y-70929506D01*
X98666058Y-70928928D01*
X98725073Y-71110556D01*
X98820560Y-71275944D01*
X98948347Y-71417866D01*
X99102848Y-71530118D01*
X99106448Y-71531721D01*
X99106450Y-71531722D01*
X99166857Y-71558616D01*
X99277312Y-71607794D01*
X99281159Y-71608612D01*
X99281163Y-71608613D01*
X99370712Y-71627647D01*
X99464113Y-71647500D01*
X99655087Y-71647500D01*
X99748488Y-71627647D01*
X99838037Y-71608613D01*
X99838041Y-71608612D01*
X99841888Y-71607794D01*
X99952343Y-71558616D01*
X100012750Y-71531722D01*
X100012752Y-71531721D01*
X100016352Y-71530118D01*
X100170853Y-71417866D01*
X100298640Y-71275944D01*
X100394127Y-71110556D01*
X100453142Y-70928928D01*
X100455173Y-70929588D01*
X100478501Y-70892254D01*
X100527423Y-70876358D01*
X100575118Y-70895627D01*
X100594678Y-70929506D01*
X100596458Y-70928928D01*
X100655473Y-71110556D01*
X100750960Y-71275944D01*
X100878747Y-71417866D01*
X101033248Y-71530118D01*
X101036848Y-71531721D01*
X101036850Y-71531722D01*
X101097257Y-71558616D01*
X101207712Y-71607794D01*
X101211559Y-71608612D01*
X101211563Y-71608613D01*
X101301112Y-71627647D01*
X101394513Y-71647500D01*
X101585487Y-71647500D01*
X101678888Y-71627647D01*
X101768437Y-71608613D01*
X101768441Y-71608612D01*
X101772288Y-71607794D01*
X101882743Y-71558616D01*
X101943150Y-71531722D01*
X101943152Y-71531721D01*
X101946752Y-71530118D01*
X102101253Y-71417866D01*
X102229040Y-71275944D01*
X102324527Y-71110556D01*
X102383542Y-70928928D01*
X102385573Y-70929588D01*
X102408901Y-70892254D01*
X102457823Y-70876358D01*
X102505518Y-70895627D01*
X102525078Y-70929506D01*
X102526858Y-70928928D01*
X102585873Y-71110556D01*
X102681360Y-71275944D01*
X102809147Y-71417866D01*
X102963648Y-71530118D01*
X102967248Y-71531721D01*
X102967250Y-71531722D01*
X103027657Y-71558616D01*
X103138112Y-71607794D01*
X103141959Y-71608612D01*
X103141963Y-71608613D01*
X103231512Y-71627647D01*
X103324913Y-71647500D01*
X103515887Y-71647500D01*
X103609288Y-71627647D01*
X103698837Y-71608613D01*
X103698841Y-71608612D01*
X103702688Y-71607794D01*
X103813143Y-71558616D01*
X103873550Y-71531722D01*
X103873552Y-71531721D01*
X103877152Y-71530118D01*
X104031653Y-71417866D01*
X104159440Y-71275944D01*
X104254927Y-71110556D01*
X104313942Y-70928928D01*
X104315973Y-70929588D01*
X104339301Y-70892254D01*
X104388223Y-70876358D01*
X104435918Y-70895627D01*
X104455478Y-70929506D01*
X104457258Y-70928928D01*
X104516273Y-71110556D01*
X104611760Y-71275944D01*
X104739547Y-71417866D01*
X104894048Y-71530118D01*
X104897648Y-71531721D01*
X104897650Y-71531722D01*
X104958057Y-71558616D01*
X105068512Y-71607794D01*
X105072359Y-71608612D01*
X105072363Y-71608613D01*
X105161912Y-71627647D01*
X105255313Y-71647500D01*
X105446287Y-71647500D01*
X105539688Y-71627647D01*
X105629237Y-71608613D01*
X105629241Y-71608612D01*
X105633088Y-71607794D01*
X105743543Y-71558616D01*
X105803950Y-71531722D01*
X105803952Y-71531721D01*
X105807552Y-71530118D01*
X105962053Y-71417866D01*
X106089840Y-71275944D01*
X106185327Y-71110556D01*
X106244342Y-70928928D01*
X106264304Y-70739000D01*
X106244342Y-70549072D01*
X106185327Y-70367444D01*
X106162320Y-70327595D01*
X106091811Y-70205469D01*
X106091809Y-70205466D01*
X106089840Y-70202056D01*
X105962053Y-70060134D01*
X105807552Y-69947882D01*
X105803952Y-69946279D01*
X105803950Y-69946278D01*
X105743543Y-69919384D01*
X105633088Y-69870206D01*
X105629241Y-69869388D01*
X105629237Y-69869387D01*
X105539688Y-69850353D01*
X105446287Y-69830500D01*
X105255313Y-69830500D01*
X105161912Y-69850353D01*
X105072363Y-69869387D01*
X105072359Y-69869388D01*
X105068512Y-69870206D01*
X104958057Y-69919384D01*
X104897650Y-69946278D01*
X104897648Y-69946279D01*
X104894048Y-69947882D01*
X104739547Y-70060134D01*
X104611760Y-70202056D01*
X104609791Y-70205466D01*
X104609789Y-70205469D01*
X104539280Y-70327595D01*
X104516273Y-70367444D01*
X104457258Y-70549072D01*
X104455227Y-70548412D01*
X104431899Y-70585746D01*
X104382977Y-70601642D01*
X104335282Y-70582373D01*
X104315722Y-70548494D01*
X104313942Y-70549072D01*
X104256145Y-70371193D01*
X104254927Y-70367444D01*
X104231920Y-70327595D01*
X104161411Y-70205469D01*
X104161409Y-70205466D01*
X104159440Y-70202056D01*
X104031653Y-70060134D01*
X103877152Y-69947882D01*
X103873552Y-69946279D01*
X103873550Y-69946278D01*
X103813143Y-69919384D01*
X103702688Y-69870206D01*
X103698841Y-69869388D01*
X103698837Y-69869387D01*
X103609288Y-69850353D01*
X103515887Y-69830500D01*
X103324913Y-69830500D01*
X103231512Y-69850353D01*
X103141963Y-69869387D01*
X103141959Y-69869388D01*
X103138112Y-69870206D01*
X103027657Y-69919384D01*
X102967250Y-69946278D01*
X102967248Y-69946279D01*
X102963648Y-69947882D01*
X102809147Y-70060134D01*
X102681360Y-70202056D01*
X102679391Y-70205466D01*
X102679389Y-70205469D01*
X102608880Y-70327595D01*
X102585873Y-70367444D01*
X102526858Y-70549072D01*
X102524827Y-70548412D01*
X102501499Y-70585746D01*
X102452577Y-70601642D01*
X102404882Y-70582373D01*
X102385322Y-70548494D01*
X102383542Y-70549072D01*
X102325745Y-70371193D01*
X102324527Y-70367444D01*
X102301520Y-70327595D01*
X102231011Y-70205469D01*
X102231009Y-70205466D01*
X102229040Y-70202056D01*
X102101253Y-70060134D01*
X101946752Y-69947882D01*
X101943152Y-69946279D01*
X101943150Y-69946278D01*
X101882743Y-69919384D01*
X101772288Y-69870206D01*
X101768441Y-69869388D01*
X101768437Y-69869387D01*
X101678888Y-69850353D01*
X101585487Y-69830500D01*
X101394513Y-69830500D01*
X101301112Y-69850353D01*
X101211563Y-69869387D01*
X101211559Y-69869388D01*
X101207712Y-69870206D01*
X101097257Y-69919384D01*
X101036850Y-69946278D01*
X101036848Y-69946279D01*
X101033248Y-69947882D01*
X100878747Y-70060134D01*
X100750960Y-70202056D01*
X100748991Y-70205466D01*
X100748989Y-70205469D01*
X100678480Y-70327595D01*
X100655473Y-70367444D01*
X100596458Y-70549072D01*
X100594427Y-70548412D01*
X100571099Y-70585746D01*
X100522177Y-70601642D01*
X100474482Y-70582373D01*
X100454922Y-70548494D01*
X100453142Y-70549072D01*
X100395345Y-70371193D01*
X100394127Y-70367444D01*
X100371120Y-70327595D01*
X100300611Y-70205469D01*
X100300609Y-70205466D01*
X100298640Y-70202056D01*
X100170853Y-70060134D01*
X100016352Y-69947882D01*
X100012752Y-69946279D01*
X100012750Y-69946278D01*
X99952343Y-69919384D01*
X99841888Y-69870206D01*
X99838041Y-69869388D01*
X99838037Y-69869387D01*
X99748488Y-69850353D01*
X99655087Y-69830500D01*
X99464113Y-69830500D01*
X99370712Y-69850353D01*
X99281163Y-69869387D01*
X99281159Y-69869388D01*
X99277312Y-69870206D01*
X99166857Y-69919384D01*
X99106450Y-69946278D01*
X99106448Y-69946279D01*
X99102848Y-69947882D01*
X98948347Y-70060134D01*
X98820560Y-70202056D01*
X98818591Y-70205466D01*
X98818589Y-70205469D01*
X98748080Y-70327595D01*
X98725073Y-70367444D01*
X98666058Y-70549072D01*
X98664027Y-70548412D01*
X98640699Y-70585746D01*
X98591777Y-70601642D01*
X98544082Y-70582373D01*
X98524522Y-70548494D01*
X98522742Y-70549072D01*
X98464945Y-70371193D01*
X98463727Y-70367444D01*
X98440720Y-70327595D01*
X98370211Y-70205469D01*
X98370209Y-70205466D01*
X98368240Y-70202056D01*
X98240453Y-70060134D01*
X98085952Y-69947882D01*
X98082352Y-69946279D01*
X98082350Y-69946278D01*
X98021943Y-69919384D01*
X97911488Y-69870206D01*
X97907641Y-69869388D01*
X97907637Y-69869387D01*
X97818088Y-69850353D01*
X97724687Y-69830500D01*
X97533713Y-69830500D01*
X97440312Y-69850353D01*
X97350763Y-69869387D01*
X97350759Y-69869388D01*
X97346912Y-69870206D01*
X97236457Y-69919384D01*
X97176050Y-69946278D01*
X97176048Y-69946279D01*
X97172448Y-69947882D01*
X97017947Y-70060134D01*
X96890160Y-70202056D01*
X96888191Y-70205466D01*
X96888189Y-70205469D01*
X96817680Y-70327595D01*
X96794673Y-70367444D01*
X96735658Y-70549072D01*
X96733627Y-70548412D01*
X96710299Y-70585746D01*
X96661377Y-70601642D01*
X96613682Y-70582373D01*
X96594122Y-70548494D01*
X96592342Y-70549072D01*
X96534545Y-70371193D01*
X96533327Y-70367444D01*
X96510320Y-70327595D01*
X96439811Y-70205469D01*
X96439809Y-70205466D01*
X96437840Y-70202056D01*
X96310053Y-70060134D01*
X96155552Y-69947882D01*
X96151952Y-69946279D01*
X96151950Y-69946278D01*
X96091543Y-69919384D01*
X95981088Y-69870206D01*
X95977241Y-69869388D01*
X95977237Y-69869387D01*
X95887688Y-69850353D01*
X95794287Y-69830500D01*
X95603313Y-69830500D01*
X95509912Y-69850353D01*
X95420363Y-69869387D01*
X95420359Y-69869388D01*
X95416512Y-69870206D01*
X95306057Y-69919384D01*
X95245650Y-69946278D01*
X95245648Y-69946279D01*
X95242048Y-69947882D01*
X95087547Y-70060134D01*
X94959760Y-70202056D01*
X94957791Y-70205466D01*
X94957789Y-70205469D01*
X94887280Y-70327595D01*
X94864273Y-70367444D01*
X94805258Y-70549072D01*
X94785296Y-70739000D01*
X81682301Y-70739000D01*
X81335132Y-70379860D01*
X81314186Y-70332879D01*
X81314000Y-70327595D01*
X81314000Y-68414819D01*
X81316883Y-68396614D01*
X81316505Y-68396534D01*
X81317327Y-68392669D01*
X81318542Y-68388928D01*
X81330173Y-68278271D01*
X81338092Y-68202920D01*
X81338504Y-68199000D01*
X81337511Y-68189556D01*
X81323962Y-68060640D01*
X88882463Y-68060640D01*
X88900163Y-68241160D01*
X88957418Y-68413273D01*
X89051380Y-68568424D01*
X89054305Y-68571453D01*
X89174461Y-68695878D01*
X89174465Y-68695881D01*
X89177382Y-68698902D01*
X89329159Y-68798222D01*
X89333090Y-68799684D01*
X89333092Y-68799685D01*
X89440657Y-68839688D01*
X89499168Y-68861448D01*
X89558607Y-68869379D01*
X89674786Y-68884881D01*
X89674787Y-68884881D01*
X89678961Y-68885438D01*
X89859600Y-68868998D01*
X89863599Y-68867699D01*
X89863602Y-68867698D01*
X90028107Y-68814247D01*
X90032108Y-68812947D01*
X90104273Y-68769928D01*
X90184304Y-68722220D01*
X90184305Y-68722219D01*
X90187912Y-68720069D01*
X90266446Y-68645282D01*
X90316218Y-68597885D01*
X90316220Y-68597883D01*
X90319266Y-68594982D01*
X90339302Y-68564825D01*
X90417320Y-68447399D01*
X90417321Y-68447396D01*
X90419643Y-68443902D01*
X90484055Y-68274338D01*
X90488158Y-68245148D01*
X90508970Y-68097056D01*
X90509299Y-68094717D01*
X90509616Y-68072000D01*
X90508342Y-68060640D01*
X91930463Y-68060640D01*
X91948163Y-68241160D01*
X92005418Y-68413273D01*
X92099380Y-68568424D01*
X92102305Y-68571453D01*
X92222461Y-68695878D01*
X92222465Y-68695881D01*
X92225382Y-68698902D01*
X92377159Y-68798222D01*
X92381090Y-68799684D01*
X92381092Y-68799685D01*
X92488657Y-68839688D01*
X92547168Y-68861448D01*
X92606607Y-68869379D01*
X92722786Y-68884881D01*
X92722787Y-68884881D01*
X92726961Y-68885438D01*
X92907600Y-68868998D01*
X92911599Y-68867699D01*
X92911602Y-68867698D01*
X93076107Y-68814247D01*
X93080108Y-68812947D01*
X93152273Y-68769928D01*
X93232304Y-68722220D01*
X93232305Y-68722219D01*
X93235912Y-68720069D01*
X93314446Y-68645282D01*
X93364218Y-68597885D01*
X93364220Y-68597883D01*
X93367266Y-68594982D01*
X93387302Y-68564825D01*
X93465320Y-68447399D01*
X93465321Y-68447396D01*
X93467643Y-68443902D01*
X93532055Y-68274338D01*
X93536158Y-68245148D01*
X93556970Y-68097056D01*
X93557299Y-68094717D01*
X93557616Y-68072000D01*
X93548363Y-67989508D01*
X93537866Y-67895922D01*
X93537865Y-67895918D01*
X93537397Y-67891745D01*
X93477745Y-67720448D01*
X93381626Y-67566624D01*
X93344729Y-67529469D01*
X96521095Y-67529469D01*
X96521273Y-67532557D01*
X96521273Y-67532559D01*
X96531746Y-67714193D01*
X96534427Y-67760697D01*
X96585346Y-67986642D01*
X96594454Y-68009072D01*
X96669984Y-68195080D01*
X96672484Y-68201237D01*
X96674095Y-68203865D01*
X96674097Y-68203870D01*
X96714726Y-68270170D01*
X96793501Y-68398719D01*
X96795518Y-68401047D01*
X96795522Y-68401053D01*
X96861744Y-68477501D01*
X96945147Y-68573784D01*
X96947520Y-68575754D01*
X96947523Y-68575757D01*
X97098623Y-68701202D01*
X97123349Y-68721730D01*
X97126016Y-68723288D01*
X97126021Y-68723292D01*
X97279449Y-68812947D01*
X97323322Y-68838584D01*
X97539694Y-68921209D01*
X97542724Y-68921826D01*
X97542726Y-68921826D01*
X97763627Y-68966769D01*
X97763630Y-68966769D01*
X97766656Y-68967385D01*
X97849479Y-68970422D01*
X97995018Y-68975759D01*
X97995024Y-68975759D01*
X97998113Y-68975872D01*
X98001178Y-68975479D01*
X98001185Y-68975479D01*
X98224779Y-68946835D01*
X98227847Y-68946442D01*
X98449690Y-68879886D01*
X98452458Y-68878530D01*
X98452463Y-68878528D01*
X98654918Y-68779346D01*
X98657684Y-68777991D01*
X98660186Y-68776207D01*
X98660190Y-68776204D01*
X98843736Y-68645282D01*
X98846243Y-68643494D01*
X98894925Y-68594982D01*
X99008120Y-68482180D01*
X99010303Y-68480005D01*
X99070283Y-68396534D01*
X99143658Y-68294423D01*
X99143662Y-68294417D01*
X99145458Y-68291917D01*
X99152203Y-68278271D01*
X99246713Y-68087042D01*
X99246713Y-68087041D01*
X99248078Y-68084280D01*
X99315408Y-67862671D01*
X99345640Y-67633041D01*
X99345762Y-67628072D01*
X99347278Y-67566002D01*
X99347327Y-67564000D01*
X99344488Y-67529469D01*
X101601095Y-67529469D01*
X101601273Y-67532557D01*
X101601273Y-67532559D01*
X101611746Y-67714193D01*
X101614427Y-67760697D01*
X101665346Y-67986642D01*
X101674454Y-68009072D01*
X101749984Y-68195080D01*
X101752484Y-68201237D01*
X101754095Y-68203865D01*
X101754097Y-68203870D01*
X101794726Y-68270170D01*
X101873501Y-68398719D01*
X101875518Y-68401047D01*
X101875522Y-68401053D01*
X101941744Y-68477501D01*
X102025147Y-68573784D01*
X102027520Y-68575754D01*
X102027523Y-68575757D01*
X102178623Y-68701202D01*
X102203349Y-68721730D01*
X102206016Y-68723288D01*
X102206021Y-68723292D01*
X102359449Y-68812947D01*
X102403322Y-68838584D01*
X102619694Y-68921209D01*
X102622724Y-68921826D01*
X102622726Y-68921826D01*
X102843627Y-68966769D01*
X102843630Y-68966769D01*
X102846656Y-68967385D01*
X102929479Y-68970422D01*
X103075018Y-68975759D01*
X103075024Y-68975759D01*
X103078113Y-68975872D01*
X103081178Y-68975479D01*
X103081185Y-68975479D01*
X103304779Y-68946835D01*
X103307847Y-68946442D01*
X103529690Y-68879886D01*
X103532458Y-68878530D01*
X103532463Y-68878528D01*
X103734918Y-68779346D01*
X103737684Y-68777991D01*
X103740186Y-68776207D01*
X103740190Y-68776204D01*
X103923736Y-68645282D01*
X103926243Y-68643494D01*
X103974925Y-68594982D01*
X104088120Y-68482180D01*
X104090303Y-68480005D01*
X104150283Y-68396534D01*
X104223658Y-68294423D01*
X104223662Y-68294417D01*
X104225458Y-68291917D01*
X104232203Y-68278271D01*
X104326713Y-68087042D01*
X104326713Y-68087041D01*
X104328078Y-68084280D01*
X104395408Y-67862671D01*
X104425640Y-67633041D01*
X104425762Y-67628072D01*
X104427278Y-67566002D01*
X104427327Y-67564000D01*
X104408349Y-67333167D01*
X104359649Y-67139283D01*
X104352678Y-67111530D01*
X104352677Y-67111528D01*
X104351925Y-67108533D01*
X104339067Y-67078960D01*
X104260801Y-66898962D01*
X104259570Y-66896131D01*
X104236851Y-66861012D01*
X104135444Y-66704262D01*
X104133764Y-66701665D01*
X104131685Y-66699380D01*
X104131681Y-66699375D01*
X103979968Y-66532644D01*
X103979962Y-66532638D01*
X103977887Y-66530358D01*
X103796123Y-66386810D01*
X103793422Y-66385319D01*
X103793419Y-66385317D01*
X103627348Y-66293641D01*
X103593355Y-66274876D01*
X103375028Y-66197562D01*
X103371994Y-66197022D01*
X103371992Y-66197021D01*
X103150045Y-66157486D01*
X103150041Y-66157486D01*
X103147006Y-66156945D01*
X103143918Y-66156907D01*
X103143915Y-66156907D01*
X103039124Y-66155627D01*
X102915411Y-66154116D01*
X102912368Y-66154582D01*
X102912363Y-66154582D01*
X102701834Y-66186798D01*
X102686464Y-66189150D01*
X102683532Y-66190108D01*
X102683529Y-66190109D01*
X102572854Y-66226283D01*
X102466314Y-66261106D01*
X102463569Y-66262535D01*
X102289766Y-66353011D01*
X102260872Y-66368052D01*
X102258404Y-66369905D01*
X102099801Y-66488988D01*
X102075655Y-66507117D01*
X102073521Y-66509350D01*
X102073520Y-66509351D01*
X101980461Y-66606732D01*
X101915639Y-66674564D01*
X101913906Y-66677105D01*
X101913904Y-66677107D01*
X101908899Y-66684444D01*
X101785119Y-66865899D01*
X101687602Y-67075981D01*
X101672927Y-67128899D01*
X101626912Y-67294825D01*
X101625707Y-67299169D01*
X101625379Y-67302236D01*
X101625379Y-67302237D01*
X101621266Y-67340727D01*
X101601095Y-67529469D01*
X99344488Y-67529469D01*
X99328349Y-67333167D01*
X99279649Y-67139283D01*
X99272678Y-67111530D01*
X99272677Y-67111528D01*
X99271925Y-67108533D01*
X99259067Y-67078960D01*
X99180801Y-66898962D01*
X99179570Y-66896131D01*
X99156851Y-66861012D01*
X99055444Y-66704262D01*
X99053764Y-66701665D01*
X99051685Y-66699380D01*
X99051681Y-66699375D01*
X98899968Y-66532644D01*
X98899962Y-66532638D01*
X98897887Y-66530358D01*
X98716123Y-66386810D01*
X98713422Y-66385319D01*
X98713419Y-66385317D01*
X98547348Y-66293641D01*
X98513355Y-66274876D01*
X98295028Y-66197562D01*
X98291994Y-66197022D01*
X98291992Y-66197021D01*
X98070045Y-66157486D01*
X98070041Y-66157486D01*
X98067006Y-66156945D01*
X98063918Y-66156907D01*
X98063915Y-66156907D01*
X97959124Y-66155627D01*
X97835411Y-66154116D01*
X97832368Y-66154582D01*
X97832363Y-66154582D01*
X97621834Y-66186798D01*
X97606464Y-66189150D01*
X97603532Y-66190108D01*
X97603529Y-66190109D01*
X97492854Y-66226283D01*
X97386314Y-66261106D01*
X97383569Y-66262535D01*
X97209766Y-66353011D01*
X97180872Y-66368052D01*
X97178404Y-66369905D01*
X97019801Y-66488988D01*
X96995655Y-66507117D01*
X96993521Y-66509350D01*
X96993520Y-66509351D01*
X96900461Y-66606732D01*
X96835639Y-66674564D01*
X96833906Y-66677105D01*
X96833904Y-66677107D01*
X96828899Y-66684444D01*
X96705119Y-66865899D01*
X96607602Y-67075981D01*
X96592927Y-67128899D01*
X96546912Y-67294825D01*
X96545707Y-67299169D01*
X96545379Y-67302236D01*
X96545379Y-67302237D01*
X96541266Y-67340727D01*
X96521095Y-67529469D01*
X93344729Y-67529469D01*
X93253815Y-67437918D01*
X93100666Y-67340727D01*
X93096709Y-67339318D01*
X93096705Y-67339316D01*
X92975608Y-67296196D01*
X92929790Y-67279881D01*
X92749680Y-67258404D01*
X92745503Y-67258843D01*
X92745500Y-67258843D01*
X92573473Y-67276924D01*
X92573472Y-67276924D01*
X92569288Y-67277364D01*
X92565306Y-67278720D01*
X92565304Y-67278720D01*
X92420882Y-67327885D01*
X92397579Y-67335818D01*
X92394002Y-67338019D01*
X92393997Y-67338021D01*
X92246665Y-67428661D01*
X92246663Y-67428663D01*
X92243088Y-67430862D01*
X92240090Y-67433798D01*
X92240086Y-67433801D01*
X92127303Y-67544247D01*
X92113493Y-67557771D01*
X92015235Y-67710238D01*
X91953197Y-67880685D01*
X91952670Y-67884859D01*
X91937939Y-68001466D01*
X91930463Y-68060640D01*
X90508342Y-68060640D01*
X90500363Y-67989508D01*
X90489866Y-67895922D01*
X90489865Y-67895918D01*
X90489397Y-67891745D01*
X90429745Y-67720448D01*
X90333626Y-67566624D01*
X90205815Y-67437918D01*
X90052666Y-67340727D01*
X90048709Y-67339318D01*
X90048705Y-67339316D01*
X89927608Y-67296196D01*
X89881790Y-67279881D01*
X89701680Y-67258404D01*
X89697503Y-67258843D01*
X89697500Y-67258843D01*
X89525473Y-67276924D01*
X89525472Y-67276924D01*
X89521288Y-67277364D01*
X89517306Y-67278720D01*
X89517304Y-67278720D01*
X89372882Y-67327885D01*
X89349579Y-67335818D01*
X89346002Y-67338019D01*
X89345997Y-67338021D01*
X89198665Y-67428661D01*
X89198663Y-67428663D01*
X89195088Y-67430862D01*
X89192090Y-67433798D01*
X89192086Y-67433801D01*
X89079303Y-67544247D01*
X89065493Y-67557771D01*
X88967235Y-67710238D01*
X88905197Y-67880685D01*
X88904670Y-67884859D01*
X88889939Y-68001466D01*
X88882463Y-68060640D01*
X81323962Y-68060640D01*
X81318954Y-68012988D01*
X81318953Y-68012984D01*
X81318542Y-68009072D01*
X81317327Y-68005331D01*
X81316505Y-68001466D01*
X81316883Y-68001386D01*
X81314000Y-67983181D01*
X81314000Y-67652819D01*
X81316883Y-67634614D01*
X81316505Y-67634534D01*
X81317327Y-67630669D01*
X81318542Y-67626928D01*
X81319809Y-67614881D01*
X81338092Y-67440920D01*
X81338504Y-67437000D01*
X81328622Y-67342980D01*
X81318954Y-67250988D01*
X81318953Y-67250984D01*
X81318542Y-67247072D01*
X81317327Y-67243331D01*
X81316505Y-67239466D01*
X81316883Y-67239386D01*
X81314000Y-67221181D01*
X81314000Y-66890819D01*
X81316883Y-66872614D01*
X81316505Y-66872534D01*
X81317327Y-66868669D01*
X81318542Y-66864928D01*
X81320303Y-66848180D01*
X81326350Y-66790640D01*
X84928463Y-66790640D01*
X84946163Y-66971160D01*
X85003418Y-67143273D01*
X85050600Y-67221181D01*
X85086862Y-67281056D01*
X85097380Y-67298424D01*
X85100305Y-67301453D01*
X85220461Y-67425878D01*
X85220465Y-67425881D01*
X85223382Y-67428902D01*
X85375159Y-67528222D01*
X85379090Y-67529684D01*
X85379092Y-67529685D01*
X85541231Y-67589984D01*
X85545168Y-67591448D01*
X85604607Y-67599379D01*
X85720786Y-67614881D01*
X85720787Y-67614881D01*
X85724961Y-67615438D01*
X85905600Y-67598998D01*
X85909599Y-67597699D01*
X85909602Y-67597698D01*
X86074107Y-67544247D01*
X86078108Y-67542947D01*
X86233912Y-67450069D01*
X86274943Y-67410996D01*
X86362218Y-67327885D01*
X86362220Y-67327883D01*
X86365266Y-67324982D01*
X86409500Y-67258404D01*
X86463320Y-67177399D01*
X86463321Y-67177396D01*
X86465643Y-67173902D01*
X86530055Y-67004338D01*
X86534158Y-66975148D01*
X86546009Y-66890819D01*
X86555299Y-66824717D01*
X86555616Y-66802000D01*
X86549987Y-66751815D01*
X86535866Y-66625922D01*
X86535865Y-66625918D01*
X86535397Y-66621745D01*
X86475745Y-66450448D01*
X86379626Y-66296624D01*
X86357008Y-66273847D01*
X86281253Y-66197562D01*
X86251815Y-66167918D01*
X86098666Y-66070727D01*
X86094709Y-66069318D01*
X86094705Y-66069316D01*
X85993183Y-66033166D01*
X85927790Y-66009881D01*
X85747680Y-65988404D01*
X85743503Y-65988843D01*
X85743500Y-65988843D01*
X85571473Y-66006924D01*
X85571472Y-66006924D01*
X85567288Y-66007364D01*
X85563306Y-66008720D01*
X85563304Y-66008720D01*
X85561354Y-66009384D01*
X85395579Y-66065818D01*
X85392002Y-66068019D01*
X85391997Y-66068021D01*
X85244665Y-66158661D01*
X85244663Y-66158663D01*
X85241088Y-66160862D01*
X85238090Y-66163798D01*
X85238086Y-66163801D01*
X85124929Y-66274613D01*
X85111493Y-66287771D01*
X85013235Y-66440238D01*
X84951197Y-66610685D01*
X84928463Y-66790640D01*
X81326350Y-66790640D01*
X81338092Y-66678920D01*
X81338504Y-66675000D01*
X81324522Y-66541968D01*
X81318954Y-66488988D01*
X81318953Y-66488984D01*
X81318542Y-66485072D01*
X81317327Y-66481331D01*
X81316505Y-66477466D01*
X81316883Y-66477386D01*
X81314000Y-66459181D01*
X81314000Y-63754000D01*
X99814496Y-63754000D01*
X99814908Y-63757920D01*
X99829882Y-63900387D01*
X99834458Y-63943928D01*
X99893473Y-64125556D01*
X99895443Y-64128968D01*
X99970271Y-64258573D01*
X99988960Y-64290944D01*
X100116747Y-64432866D01*
X100271248Y-64545118D01*
X100274848Y-64546721D01*
X100274850Y-64546722D01*
X100296729Y-64556463D01*
X100445712Y-64622794D01*
X100449559Y-64623612D01*
X100449563Y-64623613D01*
X100566023Y-64648367D01*
X100632513Y-64662500D01*
X100636451Y-64662500D01*
X100639152Y-64662784D01*
X100685385Y-64685335D01*
X100706307Y-64732328D01*
X100706078Y-64745432D01*
X100703496Y-64770000D01*
X100703908Y-64773920D01*
X100717825Y-64906329D01*
X100723458Y-64959928D01*
X100782473Y-65141556D01*
X100784443Y-65144968D01*
X100875395Y-65302501D01*
X100877960Y-65306944D01*
X101005747Y-65448866D01*
X101160248Y-65561118D01*
X101163848Y-65562721D01*
X101163850Y-65562722D01*
X101224257Y-65589616D01*
X101334712Y-65638794D01*
X101338559Y-65639612D01*
X101338563Y-65639613D01*
X101428112Y-65658647D01*
X101521513Y-65678500D01*
X101712487Y-65678500D01*
X101805888Y-65658647D01*
X101895437Y-65639613D01*
X101895441Y-65639612D01*
X101899288Y-65638794D01*
X102009743Y-65589616D01*
X102070150Y-65562722D01*
X102070152Y-65562721D01*
X102073752Y-65561118D01*
X102228253Y-65448866D01*
X102267750Y-65405000D01*
X103751496Y-65405000D01*
X103751908Y-65408920D01*
X103766185Y-65544755D01*
X103771458Y-65594928D01*
X103830473Y-65776556D01*
X103925960Y-65941944D01*
X104053747Y-66083866D01*
X104208248Y-66196118D01*
X104211848Y-66197721D01*
X104211850Y-66197722D01*
X104272257Y-66224616D01*
X104382712Y-66273794D01*
X104386559Y-66274612D01*
X104386563Y-66274613D01*
X104448468Y-66287771D01*
X104569513Y-66313500D01*
X104760487Y-66313500D01*
X104881532Y-66287771D01*
X104943437Y-66274613D01*
X104943441Y-66274612D01*
X104947288Y-66273794D01*
X105057743Y-66224616D01*
X105118150Y-66197722D01*
X105118152Y-66197721D01*
X105121752Y-66196118D01*
X105161829Y-66167000D01*
X106037496Y-66167000D01*
X106037908Y-66170920D01*
X106052894Y-66313500D01*
X106057458Y-66356928D01*
X106116473Y-66538556D01*
X106118443Y-66541968D01*
X106200702Y-66684444D01*
X106211960Y-66703944D01*
X106339747Y-66845866D01*
X106494248Y-66958118D01*
X106497848Y-66959721D01*
X106497850Y-66959722D01*
X106514148Y-66966978D01*
X106668712Y-67035794D01*
X106672559Y-67036612D01*
X106672563Y-67036613D01*
X106762113Y-67055647D01*
X106855513Y-67075500D01*
X107046487Y-67075500D01*
X107139887Y-67055647D01*
X107229437Y-67036613D01*
X107229441Y-67036612D01*
X107233288Y-67035794D01*
X107387852Y-66966978D01*
X107404150Y-66959722D01*
X107404152Y-66959721D01*
X107407752Y-66958118D01*
X107562253Y-66845866D01*
X107690040Y-66703944D01*
X107701299Y-66684444D01*
X107783557Y-66541968D01*
X107785527Y-66538556D01*
X107844542Y-66356928D01*
X107849107Y-66313500D01*
X107864092Y-66170920D01*
X107864504Y-66167000D01*
X109593496Y-66167000D01*
X109593908Y-66170920D01*
X109608894Y-66313500D01*
X109613458Y-66356928D01*
X109672473Y-66538556D01*
X109674443Y-66541968D01*
X109756702Y-66684444D01*
X109767960Y-66703944D01*
X109895747Y-66845866D01*
X110050248Y-66958118D01*
X110053848Y-66959721D01*
X110053850Y-66959722D01*
X110070148Y-66966978D01*
X110224712Y-67035794D01*
X110228559Y-67036612D01*
X110228563Y-67036613D01*
X110318113Y-67055647D01*
X110411513Y-67075500D01*
X110602487Y-67075500D01*
X110695887Y-67055647D01*
X110785437Y-67036613D01*
X110785441Y-67036612D01*
X110789288Y-67035794D01*
X110943852Y-66966978D01*
X110960150Y-66959722D01*
X110960152Y-66959721D01*
X110963752Y-66958118D01*
X111118253Y-66845866D01*
X111246040Y-66703944D01*
X111257299Y-66684444D01*
X111339557Y-66541968D01*
X111341527Y-66538556D01*
X111400542Y-66356928D01*
X111405107Y-66313500D01*
X111420092Y-66170920D01*
X111420504Y-66167000D01*
X111419150Y-66154116D01*
X111400954Y-65980989D01*
X111400953Y-65980986D01*
X111400542Y-65977072D01*
X111341527Y-65795444D01*
X111288459Y-65703528D01*
X111248011Y-65633469D01*
X111248009Y-65633466D01*
X111246040Y-65630056D01*
X111118253Y-65488134D01*
X110963752Y-65375882D01*
X110960152Y-65374279D01*
X110960150Y-65374278D01*
X110899743Y-65347384D01*
X110789288Y-65298206D01*
X110785441Y-65297388D01*
X110785437Y-65297387D01*
X110695888Y-65278353D01*
X110602487Y-65258500D01*
X110411513Y-65258500D01*
X110318112Y-65278353D01*
X110228563Y-65297387D01*
X110228559Y-65297388D01*
X110224712Y-65298206D01*
X110114257Y-65347384D01*
X110053850Y-65374278D01*
X110053848Y-65374279D01*
X110050248Y-65375882D01*
X109895747Y-65488134D01*
X109767960Y-65630056D01*
X109765991Y-65633466D01*
X109765989Y-65633469D01*
X109725541Y-65703528D01*
X109672473Y-65795444D01*
X109613458Y-65977072D01*
X109613047Y-65980986D01*
X109613046Y-65980989D01*
X109594850Y-66154116D01*
X109593496Y-66167000D01*
X107864504Y-66167000D01*
X107863150Y-66154116D01*
X107844954Y-65980989D01*
X107844953Y-65980986D01*
X107844542Y-65977072D01*
X107785527Y-65795444D01*
X107732459Y-65703528D01*
X107692011Y-65633469D01*
X107692009Y-65633466D01*
X107690040Y-65630056D01*
X107562253Y-65488134D01*
X107407752Y-65375882D01*
X107404152Y-65374279D01*
X107404150Y-65374278D01*
X107343743Y-65347384D01*
X107233288Y-65298206D01*
X107229441Y-65297388D01*
X107229437Y-65297387D01*
X107139888Y-65278353D01*
X107046487Y-65258500D01*
X106855513Y-65258500D01*
X106762112Y-65278353D01*
X106672563Y-65297387D01*
X106672559Y-65297388D01*
X106668712Y-65298206D01*
X106558257Y-65347384D01*
X106497850Y-65374278D01*
X106497848Y-65374279D01*
X106494248Y-65375882D01*
X106339747Y-65488134D01*
X106211960Y-65630056D01*
X106209991Y-65633466D01*
X106209989Y-65633469D01*
X106169541Y-65703528D01*
X106116473Y-65795444D01*
X106057458Y-65977072D01*
X106057047Y-65980986D01*
X106057046Y-65980989D01*
X106038850Y-66154116D01*
X106037496Y-66167000D01*
X105161829Y-66167000D01*
X105276253Y-66083866D01*
X105404040Y-65941944D01*
X105499527Y-65776556D01*
X105558542Y-65594928D01*
X105563816Y-65544755D01*
X105578092Y-65408920D01*
X105578504Y-65405000D01*
X105567194Y-65297387D01*
X105558954Y-65218989D01*
X105558953Y-65218986D01*
X105558542Y-65215072D01*
X105499527Y-65033444D01*
X105459246Y-64963675D01*
X105406011Y-64871469D01*
X105406009Y-64871466D01*
X105404040Y-64868056D01*
X105401405Y-64865130D01*
X105401401Y-64865124D01*
X105293226Y-64744983D01*
X105273957Y-64697289D01*
X105289853Y-64648367D01*
X105325542Y-64623378D01*
X105328288Y-64622794D01*
X105331887Y-64621192D01*
X105331889Y-64621191D01*
X105499150Y-64546722D01*
X105499152Y-64546721D01*
X105502752Y-64545118D01*
X105657253Y-64432866D01*
X105727842Y-64354469D01*
X107316095Y-64354469D01*
X107316273Y-64357557D01*
X107316273Y-64357559D01*
X107329103Y-64580072D01*
X107329427Y-64585697D01*
X107380346Y-64811642D01*
X107381510Y-64814508D01*
X107458658Y-65004500D01*
X107467484Y-65026237D01*
X107469095Y-65028865D01*
X107469097Y-65028870D01*
X107517323Y-65107567D01*
X107588501Y-65223719D01*
X107590518Y-65226047D01*
X107590522Y-65226053D01*
X107654411Y-65299808D01*
X107740147Y-65398784D01*
X107742520Y-65400754D01*
X107742523Y-65400757D01*
X107851293Y-65491059D01*
X107918349Y-65546730D01*
X107921016Y-65548288D01*
X107921021Y-65548292D01*
X108077300Y-65639613D01*
X108118322Y-65663584D01*
X108334694Y-65746209D01*
X108337724Y-65746826D01*
X108337726Y-65746826D01*
X108558627Y-65791769D01*
X108558630Y-65791769D01*
X108561656Y-65792385D01*
X108644479Y-65795422D01*
X108790018Y-65800759D01*
X108790024Y-65800759D01*
X108793113Y-65800872D01*
X108796178Y-65800479D01*
X108796185Y-65800479D01*
X109019779Y-65771835D01*
X109022847Y-65771442D01*
X109244690Y-65704886D01*
X109247458Y-65703530D01*
X109247463Y-65703528D01*
X109449918Y-65604346D01*
X109452684Y-65602991D01*
X109455186Y-65601207D01*
X109455190Y-65601204D01*
X109609608Y-65491059D01*
X109641243Y-65468494D01*
X109658618Y-65451180D01*
X109803120Y-65307180D01*
X109805303Y-65305005D01*
X109863713Y-65223719D01*
X109938658Y-65119423D01*
X109938662Y-65119417D01*
X109940458Y-65116917D01*
X109945024Y-65107680D01*
X110041713Y-64912042D01*
X110041713Y-64912041D01*
X110043078Y-64909280D01*
X110110408Y-64687671D01*
X110140640Y-64458041D01*
X110142327Y-64389000D01*
X110123349Y-64158167D01*
X110070477Y-63947675D01*
X110067678Y-63936530D01*
X110067677Y-63936528D01*
X110066925Y-63933533D01*
X110054067Y-63903960D01*
X109975801Y-63723962D01*
X109974570Y-63721131D01*
X109848764Y-63526665D01*
X109846685Y-63524380D01*
X109846681Y-63524375D01*
X109740964Y-63408194D01*
X109721445Y-63360602D01*
X109737084Y-63311597D01*
X109780564Y-63284110D01*
X109827169Y-63288885D01*
X109970712Y-63352794D01*
X109974559Y-63353612D01*
X109974563Y-63353613D01*
X110064113Y-63372647D01*
X110157513Y-63392500D01*
X110348487Y-63392500D01*
X110441887Y-63372647D01*
X110531437Y-63353613D01*
X110531441Y-63353612D01*
X110535288Y-63352794D01*
X110645743Y-63303616D01*
X110706150Y-63276722D01*
X110706152Y-63276721D01*
X110709752Y-63275118D01*
X110749946Y-63245916D01*
X110799391Y-63231737D01*
X110846384Y-63252659D01*
X110868934Y-63298892D01*
X110866611Y-63326850D01*
X110819813Y-63495598D01*
X110818989Y-63498570D01*
X110818662Y-63501630D01*
X110818661Y-63501635D01*
X110812389Y-63560325D01*
X110795251Y-63720695D01*
X110795429Y-63723783D01*
X110795429Y-63723785D01*
X110807696Y-63936530D01*
X110808110Y-63943715D01*
X110808788Y-63946723D01*
X110808788Y-63946724D01*
X110829586Y-64039009D01*
X110857222Y-64161639D01*
X110858384Y-64164500D01*
X110935522Y-64354469D01*
X110941266Y-64368616D01*
X110942877Y-64371244D01*
X110942879Y-64371249D01*
X110978846Y-64429941D01*
X111057987Y-64559088D01*
X111076164Y-64580072D01*
X111202230Y-64725607D01*
X111202235Y-64725612D01*
X111204250Y-64727938D01*
X111206623Y-64729908D01*
X111206625Y-64729910D01*
X111369499Y-64865130D01*
X111376126Y-64870632D01*
X111378799Y-64872194D01*
X111535351Y-64963675D01*
X111569000Y-64983338D01*
X111777692Y-65063030D01*
X111996597Y-65107567D01*
X112061945Y-65109963D01*
X112216742Y-65115640D01*
X112216748Y-65115640D01*
X112219837Y-65115753D01*
X112222903Y-65115360D01*
X112222909Y-65115360D01*
X112438351Y-65087761D01*
X112438355Y-65087760D01*
X112441416Y-65087368D01*
X112444373Y-65086481D01*
X112652425Y-65024062D01*
X112652428Y-65024061D01*
X112655384Y-65023174D01*
X112855994Y-64924896D01*
X112858496Y-64923112D01*
X112858500Y-64923109D01*
X113035347Y-64796966D01*
X113035351Y-64796963D01*
X113037860Y-64795173D01*
X113059188Y-64773920D01*
X113145738Y-64687671D01*
X113196096Y-64637489D01*
X113326453Y-64456077D01*
X113339371Y-64429941D01*
X113424065Y-64258573D01*
X113424065Y-64258572D01*
X113425430Y-64255811D01*
X113490370Y-64042069D01*
X113519529Y-63820590D01*
X113521156Y-63754000D01*
X113502852Y-63531361D01*
X113457597Y-63351192D01*
X113449184Y-63317699D01*
X113449183Y-63317697D01*
X113448431Y-63314702D01*
X113437206Y-63288885D01*
X113360585Y-63112671D01*
X113359354Y-63109840D01*
X113334471Y-63071377D01*
X113239692Y-62924870D01*
X113239689Y-62924866D01*
X113238014Y-62922277D01*
X113087670Y-62757051D01*
X113085250Y-62755140D01*
X113085246Y-62755136D01*
X113022685Y-62705728D01*
X112995654Y-62661963D01*
X113003080Y-62611061D01*
X113041487Y-62576842D01*
X113061170Y-62571953D01*
X113068115Y-62571198D01*
X113118316Y-62565745D01*
X113122728Y-62564091D01*
X113122732Y-62564090D01*
X113249691Y-62516495D01*
X113249693Y-62516494D01*
X113254705Y-62514615D01*
X113371261Y-62427261D01*
X113458615Y-62310705D01*
X113463382Y-62297989D01*
X113508090Y-62178732D01*
X113508091Y-62178728D01*
X113509745Y-62174316D01*
X113516500Y-62112134D01*
X113516500Y-60315866D01*
X113515343Y-60305216D01*
X113510255Y-60258375D01*
X113510254Y-60258372D01*
X113509745Y-60253684D01*
X113506183Y-60244180D01*
X113460495Y-60122309D01*
X113460494Y-60122307D01*
X113458615Y-60117295D01*
X113371261Y-60000739D01*
X113254705Y-59913385D01*
X113249693Y-59911506D01*
X113249691Y-59911505D01*
X113122732Y-59863910D01*
X113122728Y-59863909D01*
X113118316Y-59862255D01*
X113113628Y-59861746D01*
X113113625Y-59861745D01*
X113058162Y-59855720D01*
X113058156Y-59855720D01*
X113056134Y-59855500D01*
X111259866Y-59855500D01*
X111257844Y-59855720D01*
X111257838Y-59855720D01*
X111202375Y-59861745D01*
X111202372Y-59861746D01*
X111197684Y-59862255D01*
X111193272Y-59863909D01*
X111193268Y-59863910D01*
X111066309Y-59911505D01*
X111066307Y-59911506D01*
X111061295Y-59913385D01*
X110944739Y-60000739D01*
X110857385Y-60117295D01*
X110855506Y-60122307D01*
X110855505Y-60122309D01*
X110809818Y-60244180D01*
X110806255Y-60253684D01*
X110805746Y-60258372D01*
X110805745Y-60258375D01*
X110800657Y-60305216D01*
X110799500Y-60315866D01*
X110799500Y-61617042D01*
X110781907Y-61665380D01*
X110737358Y-61691100D01*
X110693714Y-61685741D01*
X110619989Y-61652917D01*
X110535288Y-61615206D01*
X110531441Y-61614388D01*
X110531437Y-61614387D01*
X110420265Y-61590757D01*
X110348487Y-61575500D01*
X110157513Y-61575500D01*
X110085735Y-61590757D01*
X109974563Y-61614387D01*
X109974559Y-61614388D01*
X109970712Y-61615206D01*
X109886011Y-61652917D01*
X109826158Y-61679565D01*
X109774844Y-61683153D01*
X109733228Y-61652917D01*
X109720784Y-61603005D01*
X109742491Y-61557599D01*
X109803115Y-61497187D01*
X109803124Y-61497176D01*
X109805303Y-61495005D01*
X109863713Y-61413719D01*
X109938658Y-61309423D01*
X109938662Y-61309417D01*
X109940458Y-61306917D01*
X109971505Y-61244099D01*
X110041713Y-61102042D01*
X110041713Y-61102041D01*
X110043078Y-61099280D01*
X110110408Y-60877671D01*
X110140640Y-60648041D01*
X110142327Y-60579000D01*
X110123349Y-60348167D01*
X110066925Y-60123533D01*
X110057941Y-60102870D01*
X109975801Y-59913962D01*
X109974570Y-59911131D01*
X109933222Y-59847216D01*
X109850444Y-59719262D01*
X109848764Y-59716665D01*
X109846685Y-59714380D01*
X109846681Y-59714375D01*
X109694968Y-59547644D01*
X109694962Y-59547638D01*
X109692887Y-59545358D01*
X109511123Y-59401810D01*
X109508422Y-59400319D01*
X109508419Y-59400317D01*
X109311054Y-59291366D01*
X109311055Y-59291366D01*
X109308355Y-59289876D01*
X109090028Y-59212562D01*
X109086994Y-59212022D01*
X109086992Y-59212021D01*
X108865045Y-59172486D01*
X108865041Y-59172486D01*
X108862006Y-59171945D01*
X108858918Y-59171907D01*
X108858915Y-59171907D01*
X108754124Y-59170627D01*
X108630411Y-59169116D01*
X108627368Y-59169582D01*
X108627363Y-59169582D01*
X108416834Y-59201798D01*
X108401464Y-59204150D01*
X108398532Y-59205108D01*
X108398529Y-59205109D01*
X108287854Y-59241283D01*
X108181314Y-59276106D01*
X108178569Y-59277535D01*
X108079310Y-59329206D01*
X107975872Y-59383052D01*
X107973404Y-59384905D01*
X107941048Y-59409199D01*
X107790655Y-59522117D01*
X107788521Y-59524350D01*
X107788520Y-59524351D01*
X107649532Y-59669794D01*
X107630639Y-59689564D01*
X107628906Y-59692105D01*
X107628904Y-59692107D01*
X107613714Y-59714375D01*
X107500119Y-59880899D01*
X107402602Y-60090981D01*
X107387927Y-60143899D01*
X107343190Y-60305216D01*
X107340707Y-60314169D01*
X107316095Y-60544469D01*
X107316273Y-60547557D01*
X107316273Y-60547559D01*
X107326881Y-60731531D01*
X107329427Y-60775697D01*
X107380346Y-61001642D01*
X107407134Y-61067613D01*
X107464984Y-61210080D01*
X107467484Y-61216237D01*
X107469095Y-61218865D01*
X107469097Y-61218870D01*
X107521358Y-61304152D01*
X107588501Y-61413719D01*
X107590518Y-61416047D01*
X107590522Y-61416053D01*
X107656744Y-61492501D01*
X107740147Y-61588784D01*
X107742520Y-61590754D01*
X107742523Y-61590757D01*
X107915970Y-61734755D01*
X107918349Y-61736730D01*
X107921016Y-61738288D01*
X107921021Y-61738292D01*
X108115647Y-61852021D01*
X108118322Y-61853584D01*
X108334694Y-61936209D01*
X108337724Y-61936826D01*
X108337726Y-61936826D01*
X108558627Y-61981769D01*
X108558630Y-61981769D01*
X108561656Y-61982385D01*
X108644479Y-61985422D01*
X108790018Y-61990759D01*
X108790024Y-61990759D01*
X108793113Y-61990872D01*
X108796178Y-61990479D01*
X108796185Y-61990479D01*
X109019779Y-61961835D01*
X109022847Y-61961442D01*
X109244690Y-61894886D01*
X109247458Y-61893530D01*
X109247463Y-61893528D01*
X109449918Y-61794346D01*
X109452684Y-61792991D01*
X109455190Y-61791204D01*
X109457850Y-61789618D01*
X109458744Y-61791117D01*
X109502948Y-61779279D01*
X109549565Y-61801025D01*
X109571298Y-61847648D01*
X109557977Y-61897334D01*
X109552267Y-61904511D01*
X109516599Y-61944124D01*
X109516595Y-61944130D01*
X109513960Y-61947056D01*
X109511991Y-61950466D01*
X109511989Y-61950469D01*
X109436516Y-62081192D01*
X109418473Y-62112444D01*
X109359458Y-62294072D01*
X109359047Y-62297986D01*
X109359046Y-62297989D01*
X109345459Y-62427261D01*
X109339496Y-62484000D01*
X109339908Y-62487920D01*
X109353643Y-62618598D01*
X109359458Y-62673928D01*
X109418473Y-62855556D01*
X109420443Y-62858968D01*
X109509768Y-63013683D01*
X109513960Y-63020944D01*
X109516595Y-63023870D01*
X109559370Y-63071377D01*
X109578639Y-63119072D01*
X109562743Y-63167994D01*
X109519120Y-63195253D01*
X109467142Y-63187531D01*
X109311054Y-63101366D01*
X109311055Y-63101366D01*
X109308355Y-63099876D01*
X109090028Y-63022562D01*
X109086994Y-63022022D01*
X109086992Y-63022021D01*
X108865045Y-62982486D01*
X108865041Y-62982486D01*
X108862006Y-62981945D01*
X108858918Y-62981907D01*
X108858915Y-62981907D01*
X108754124Y-62980627D01*
X108630411Y-62979116D01*
X108627368Y-62979582D01*
X108627363Y-62979582D01*
X108416834Y-63011798D01*
X108401464Y-63014150D01*
X108398532Y-63015108D01*
X108398529Y-63015109D01*
X108287854Y-63051283D01*
X108181314Y-63086106D01*
X108178569Y-63087535D01*
X107986478Y-63187531D01*
X107975872Y-63193052D01*
X107973404Y-63194905D01*
X107813850Y-63314702D01*
X107790655Y-63332117D01*
X107788521Y-63334350D01*
X107788520Y-63334351D01*
X107770113Y-63353613D01*
X107630639Y-63499564D01*
X107628906Y-63502105D01*
X107628904Y-63502107D01*
X107552825Y-63613635D01*
X107500119Y-63690899D01*
X107469899Y-63756002D01*
X107420929Y-63861500D01*
X107402602Y-63900981D01*
X107340707Y-64124169D01*
X107316095Y-64354469D01*
X105727842Y-64354469D01*
X105785040Y-64290944D01*
X105803730Y-64258573D01*
X105878557Y-64128968D01*
X105880527Y-64125556D01*
X105939542Y-63943928D01*
X105944119Y-63900387D01*
X105959092Y-63757920D01*
X105959504Y-63754000D01*
X105939542Y-63564072D01*
X105880527Y-63382444D01*
X105862484Y-63351192D01*
X105787011Y-63220469D01*
X105787009Y-63220466D01*
X105785040Y-63217056D01*
X105657253Y-63075134D01*
X105502752Y-62962882D01*
X105499152Y-62961279D01*
X105499150Y-62961278D01*
X105411551Y-62922277D01*
X105328288Y-62885206D01*
X105324441Y-62884388D01*
X105324437Y-62884387D01*
X105234887Y-62865353D01*
X105141487Y-62845500D01*
X104950513Y-62845500D01*
X104857113Y-62865353D01*
X104767563Y-62884387D01*
X104767559Y-62884388D01*
X104763712Y-62885206D01*
X104680449Y-62922277D01*
X104592850Y-62961278D01*
X104592848Y-62961279D01*
X104589248Y-62962882D01*
X104434747Y-63075134D01*
X104306960Y-63217056D01*
X104304991Y-63220466D01*
X104304989Y-63220469D01*
X104229516Y-63351192D01*
X104211473Y-63382444D01*
X104152458Y-63564072D01*
X104132496Y-63754000D01*
X104132908Y-63757920D01*
X104147882Y-63900387D01*
X104152458Y-63943928D01*
X104211473Y-64125556D01*
X104213443Y-64128968D01*
X104288271Y-64258573D01*
X104306960Y-64290944D01*
X104309595Y-64293870D01*
X104309599Y-64293876D01*
X104417774Y-64414017D01*
X104437043Y-64461711D01*
X104421147Y-64510633D01*
X104385458Y-64535622D01*
X104382712Y-64536206D01*
X104379113Y-64537808D01*
X104379111Y-64537809D01*
X104211850Y-64612278D01*
X104211848Y-64612279D01*
X104208248Y-64613882D01*
X104053747Y-64726134D01*
X103925960Y-64868056D01*
X103923991Y-64871466D01*
X103923989Y-64871469D01*
X103870754Y-64963675D01*
X103830473Y-65033444D01*
X103771458Y-65215072D01*
X103771047Y-65218986D01*
X103771046Y-65218989D01*
X103762806Y-65297387D01*
X103751496Y-65405000D01*
X102267750Y-65405000D01*
X102356040Y-65306944D01*
X102358606Y-65302501D01*
X102449557Y-65144968D01*
X102451527Y-65141556D01*
X102510542Y-64959928D01*
X102516176Y-64906329D01*
X102530092Y-64773920D01*
X102530504Y-64770000D01*
X102521851Y-64687671D01*
X102510954Y-64583989D01*
X102510953Y-64583986D01*
X102510542Y-64580072D01*
X102451527Y-64398444D01*
X102426138Y-64354469D01*
X102358011Y-64236469D01*
X102358009Y-64236466D01*
X102356040Y-64233056D01*
X102228253Y-64091134D01*
X102073752Y-63978882D01*
X102070152Y-63977279D01*
X102070150Y-63977278D01*
X102001524Y-63946724D01*
X101899288Y-63901206D01*
X101895441Y-63900388D01*
X101895437Y-63900387D01*
X101777379Y-63875293D01*
X101712487Y-63861500D01*
X101708549Y-63861500D01*
X101705848Y-63861216D01*
X101659615Y-63838665D01*
X101638693Y-63791672D01*
X101638922Y-63778568D01*
X101641092Y-63757921D01*
X101641092Y-63757920D01*
X101641504Y-63754000D01*
X101621542Y-63564072D01*
X101562527Y-63382444D01*
X101544484Y-63351192D01*
X101469011Y-63220469D01*
X101469009Y-63220466D01*
X101467040Y-63217056D01*
X101339253Y-63075134D01*
X101184752Y-62962882D01*
X101181152Y-62961279D01*
X101181150Y-62961278D01*
X101093551Y-62922277D01*
X101010288Y-62885206D01*
X101006441Y-62884388D01*
X101006437Y-62884387D01*
X100916887Y-62865353D01*
X100823487Y-62845500D01*
X100632513Y-62845500D01*
X100539113Y-62865353D01*
X100449563Y-62884387D01*
X100449559Y-62884388D01*
X100445712Y-62885206D01*
X100362449Y-62922277D01*
X100274850Y-62961278D01*
X100274848Y-62961279D01*
X100271248Y-62962882D01*
X100116747Y-63075134D01*
X99988960Y-63217056D01*
X99986991Y-63220466D01*
X99986989Y-63220469D01*
X99911516Y-63351192D01*
X99893473Y-63382444D01*
X99834458Y-63564072D01*
X99814496Y-63754000D01*
X81314000Y-63754000D01*
X81314000Y-62484000D01*
X105656496Y-62484000D01*
X105656908Y-62487920D01*
X105670643Y-62618598D01*
X105676458Y-62673928D01*
X105735473Y-62855556D01*
X105737443Y-62858968D01*
X105826768Y-63013683D01*
X105830960Y-63020944D01*
X105958747Y-63162866D01*
X106113248Y-63275118D01*
X106116848Y-63276721D01*
X106116850Y-63276722D01*
X106177257Y-63303616D01*
X106287712Y-63352794D01*
X106291559Y-63353612D01*
X106291563Y-63353613D01*
X106381113Y-63372647D01*
X106474513Y-63392500D01*
X106665487Y-63392500D01*
X106758887Y-63372647D01*
X106848437Y-63353613D01*
X106848441Y-63353612D01*
X106852288Y-63352794D01*
X106962743Y-63303616D01*
X107023150Y-63276722D01*
X107023152Y-63276721D01*
X107026752Y-63275118D01*
X107181253Y-63162866D01*
X107309040Y-63020944D01*
X107313233Y-63013683D01*
X107402557Y-62858968D01*
X107404527Y-62855556D01*
X107463542Y-62673928D01*
X107469358Y-62618598D01*
X107483092Y-62487920D01*
X107483504Y-62484000D01*
X107477541Y-62427261D01*
X107463954Y-62297989D01*
X107463953Y-62297986D01*
X107463542Y-62294072D01*
X107404527Y-62112444D01*
X107386484Y-62081192D01*
X107311011Y-61950469D01*
X107311009Y-61950466D01*
X107309040Y-61947056D01*
X107181253Y-61805134D01*
X107026752Y-61692882D01*
X107023152Y-61691279D01*
X107023150Y-61691278D01*
X106949515Y-61658494D01*
X106852288Y-61615206D01*
X106848441Y-61614388D01*
X106848437Y-61614387D01*
X106737265Y-61590757D01*
X106665487Y-61575500D01*
X106474513Y-61575500D01*
X106402735Y-61590757D01*
X106291563Y-61614387D01*
X106291559Y-61614388D01*
X106287712Y-61615206D01*
X106190485Y-61658494D01*
X106116850Y-61691278D01*
X106116848Y-61691279D01*
X106113248Y-61692882D01*
X105958747Y-61805134D01*
X105830960Y-61947056D01*
X105828991Y-61950466D01*
X105828989Y-61950469D01*
X105753516Y-62081192D01*
X105735473Y-62112444D01*
X105676458Y-62294072D01*
X105676047Y-62297986D01*
X105676046Y-62297989D01*
X105662459Y-62427261D01*
X105656496Y-62484000D01*
X81314000Y-62484000D01*
X81314000Y-61214000D01*
X99814496Y-61214000D01*
X99834458Y-61403928D01*
X99893473Y-61585556D01*
X99895443Y-61588968D01*
X99980754Y-61736730D01*
X99988960Y-61750944D01*
X100116747Y-61892866D01*
X100271248Y-62005118D01*
X100274848Y-62006721D01*
X100274850Y-62006722D01*
X100324843Y-62028980D01*
X100445712Y-62082794D01*
X100449559Y-62083612D01*
X100449563Y-62083613D01*
X100539112Y-62102647D01*
X100632513Y-62122500D01*
X100823487Y-62122500D01*
X100916888Y-62102647D01*
X101006437Y-62083613D01*
X101006441Y-62083612D01*
X101010288Y-62082794D01*
X101131157Y-62028980D01*
X101181150Y-62006722D01*
X101181152Y-62006721D01*
X101184752Y-62005118D01*
X101339253Y-61892866D01*
X101467040Y-61750944D01*
X101475247Y-61736730D01*
X101560557Y-61588968D01*
X101562527Y-61585556D01*
X101621542Y-61403928D01*
X101641504Y-61214000D01*
X101638922Y-61189432D01*
X101651367Y-61139520D01*
X101692982Y-61109285D01*
X101705848Y-61106784D01*
X101708549Y-61106500D01*
X101712487Y-61106500D01*
X101777379Y-61092707D01*
X101895437Y-61067613D01*
X101895441Y-61067612D01*
X101899288Y-61066794D01*
X102009743Y-61017616D01*
X102070150Y-60990722D01*
X102070152Y-60990721D01*
X102073752Y-60989118D01*
X102228253Y-60876866D01*
X102356040Y-60734944D01*
X102387492Y-60680469D01*
X102449557Y-60572968D01*
X102451527Y-60569556D01*
X102510542Y-60387928D01*
X102514398Y-60351246D01*
X102530092Y-60201920D01*
X102530504Y-60198000D01*
X102522022Y-60117295D01*
X102510954Y-60011989D01*
X102510953Y-60011986D01*
X102510542Y-60008072D01*
X102451527Y-59826444D01*
X102411246Y-59756675D01*
X102358011Y-59664469D01*
X102358009Y-59664466D01*
X102356040Y-59661056D01*
X102267750Y-59563000D01*
X103751496Y-59563000D01*
X103751908Y-59566920D01*
X103769455Y-59733866D01*
X103771458Y-59752928D01*
X103830473Y-59934556D01*
X103832443Y-59937968D01*
X103872918Y-60008072D01*
X103925960Y-60099944D01*
X104053747Y-60241866D01*
X104208248Y-60354118D01*
X104211848Y-60355721D01*
X104211850Y-60355722D01*
X104379111Y-60430191D01*
X104379113Y-60430192D01*
X104382712Y-60431794D01*
X104385411Y-60432368D01*
X104425662Y-60463814D01*
X104436357Y-60514129D01*
X104417774Y-60553983D01*
X104309599Y-60674124D01*
X104309595Y-60674130D01*
X104306960Y-60677056D01*
X104304991Y-60680466D01*
X104304989Y-60680469D01*
X104273538Y-60734944D01*
X104211473Y-60842444D01*
X104152458Y-61024072D01*
X104152047Y-61027986D01*
X104152046Y-61027989D01*
X104143765Y-61106784D01*
X104132496Y-61214000D01*
X104152458Y-61403928D01*
X104211473Y-61585556D01*
X104213443Y-61588968D01*
X104298754Y-61736730D01*
X104306960Y-61750944D01*
X104434747Y-61892866D01*
X104589248Y-62005118D01*
X104592848Y-62006721D01*
X104592850Y-62006722D01*
X104642843Y-62028980D01*
X104763712Y-62082794D01*
X104767559Y-62083612D01*
X104767563Y-62083613D01*
X104857112Y-62102647D01*
X104950513Y-62122500D01*
X105141487Y-62122500D01*
X105234888Y-62102647D01*
X105324437Y-62083613D01*
X105324441Y-62083612D01*
X105328288Y-62082794D01*
X105449157Y-62028980D01*
X105499150Y-62006722D01*
X105499152Y-62006721D01*
X105502752Y-62005118D01*
X105657253Y-61892866D01*
X105785040Y-61750944D01*
X105793247Y-61736730D01*
X105878557Y-61588968D01*
X105880527Y-61585556D01*
X105939542Y-61403928D01*
X105959504Y-61214000D01*
X105948235Y-61106784D01*
X105939954Y-61027989D01*
X105939953Y-61027986D01*
X105939542Y-61024072D01*
X105880527Y-60842444D01*
X105818462Y-60734944D01*
X105787011Y-60680469D01*
X105787009Y-60680466D01*
X105785040Y-60677056D01*
X105657253Y-60535134D01*
X105502752Y-60422882D01*
X105499152Y-60421279D01*
X105499150Y-60421278D01*
X105331889Y-60346809D01*
X105331887Y-60346808D01*
X105328288Y-60345206D01*
X105325589Y-60344632D01*
X105285338Y-60313186D01*
X105274643Y-60262871D01*
X105293226Y-60223017D01*
X105401401Y-60102876D01*
X105401405Y-60102870D01*
X105404040Y-60099944D01*
X105457083Y-60008072D01*
X105497557Y-59937968D01*
X105499527Y-59934556D01*
X105558542Y-59752928D01*
X105560546Y-59733866D01*
X105578092Y-59566920D01*
X105578504Y-59563000D01*
X105570010Y-59482180D01*
X105558954Y-59376989D01*
X105558953Y-59376986D01*
X105558542Y-59373072D01*
X105499527Y-59191444D01*
X105404040Y-59026056D01*
X105276253Y-58884134D01*
X105161829Y-58801000D01*
X106037496Y-58801000D01*
X106037908Y-58804920D01*
X106046234Y-58884134D01*
X106057458Y-58990928D01*
X106116473Y-59172556D01*
X106118443Y-59175968D01*
X106184464Y-59290319D01*
X106211960Y-59337944D01*
X106339747Y-59479866D01*
X106494248Y-59592118D01*
X106497848Y-59593721D01*
X106497850Y-59593722D01*
X106558257Y-59620616D01*
X106668712Y-59669794D01*
X106672559Y-59670612D01*
X106672563Y-59670613D01*
X106751240Y-59687336D01*
X106855513Y-59709500D01*
X107046487Y-59709500D01*
X107150760Y-59687336D01*
X107229437Y-59670613D01*
X107229441Y-59670612D01*
X107233288Y-59669794D01*
X107343743Y-59620616D01*
X107404150Y-59593722D01*
X107404152Y-59593721D01*
X107407752Y-59592118D01*
X107562253Y-59479866D01*
X107690040Y-59337944D01*
X107717537Y-59290319D01*
X107783557Y-59175968D01*
X107785527Y-59172556D01*
X107844542Y-58990928D01*
X107855767Y-58884134D01*
X107864092Y-58804920D01*
X107864504Y-58801000D01*
X109593496Y-58801000D01*
X109593908Y-58804920D01*
X109602234Y-58884134D01*
X109613458Y-58990928D01*
X109672473Y-59172556D01*
X109674443Y-59175968D01*
X109740464Y-59290319D01*
X109767960Y-59337944D01*
X109895747Y-59479866D01*
X110050248Y-59592118D01*
X110053848Y-59593721D01*
X110053850Y-59593722D01*
X110114257Y-59620616D01*
X110224712Y-59669794D01*
X110228559Y-59670612D01*
X110228563Y-59670613D01*
X110307240Y-59687336D01*
X110411513Y-59709500D01*
X110602487Y-59709500D01*
X110706760Y-59687336D01*
X110785437Y-59670613D01*
X110785441Y-59670612D01*
X110789288Y-59669794D01*
X110899743Y-59620616D01*
X110960150Y-59593722D01*
X110960152Y-59593721D01*
X110963752Y-59592118D01*
X111118253Y-59479866D01*
X111246040Y-59337944D01*
X111273537Y-59290319D01*
X111339557Y-59175968D01*
X111341527Y-59172556D01*
X111400542Y-58990928D01*
X111411767Y-58884134D01*
X111420092Y-58804920D01*
X111420504Y-58801000D01*
X111407638Y-58678584D01*
X111400954Y-58614989D01*
X111400953Y-58614986D01*
X111400542Y-58611072D01*
X111341527Y-58429444D01*
X111279598Y-58322180D01*
X111248011Y-58267469D01*
X111248009Y-58267466D01*
X111246040Y-58264056D01*
X111118253Y-58122134D01*
X110963752Y-58009882D01*
X110960152Y-58008279D01*
X110960150Y-58008278D01*
X110899743Y-57981384D01*
X110789288Y-57932206D01*
X110785441Y-57931388D01*
X110785437Y-57931387D01*
X110694227Y-57912000D01*
X110602487Y-57892500D01*
X110411513Y-57892500D01*
X110319773Y-57912000D01*
X110228563Y-57931387D01*
X110228559Y-57931388D01*
X110224712Y-57932206D01*
X110114257Y-57981384D01*
X110053850Y-58008278D01*
X110053848Y-58008279D01*
X110050248Y-58009882D01*
X109895747Y-58122134D01*
X109767960Y-58264056D01*
X109765991Y-58267466D01*
X109765989Y-58267469D01*
X109734402Y-58322180D01*
X109672473Y-58429444D01*
X109613458Y-58611072D01*
X109613047Y-58614986D01*
X109613046Y-58614989D01*
X109606362Y-58678584D01*
X109593496Y-58801000D01*
X107864504Y-58801000D01*
X107851638Y-58678584D01*
X107844954Y-58614989D01*
X107844953Y-58614986D01*
X107844542Y-58611072D01*
X107785527Y-58429444D01*
X107723598Y-58322180D01*
X107692011Y-58267469D01*
X107692009Y-58267466D01*
X107690040Y-58264056D01*
X107562253Y-58122134D01*
X107407752Y-58009882D01*
X107404152Y-58008279D01*
X107404150Y-58008278D01*
X107343743Y-57981384D01*
X107233288Y-57932206D01*
X107229441Y-57931388D01*
X107229437Y-57931387D01*
X107138227Y-57912000D01*
X107046487Y-57892500D01*
X106855513Y-57892500D01*
X106763773Y-57912000D01*
X106672563Y-57931387D01*
X106672559Y-57931388D01*
X106668712Y-57932206D01*
X106558257Y-57981384D01*
X106497850Y-58008278D01*
X106497848Y-58008279D01*
X106494248Y-58009882D01*
X106339747Y-58122134D01*
X106211960Y-58264056D01*
X106209991Y-58267466D01*
X106209989Y-58267469D01*
X106178402Y-58322180D01*
X106116473Y-58429444D01*
X106057458Y-58611072D01*
X106057047Y-58614986D01*
X106057046Y-58614989D01*
X106050362Y-58678584D01*
X106037496Y-58801000D01*
X105161829Y-58801000D01*
X105121752Y-58771882D01*
X105118152Y-58770279D01*
X105118150Y-58770278D01*
X105057743Y-58743384D01*
X104947288Y-58694206D01*
X104943441Y-58693388D01*
X104943437Y-58693387D01*
X104853887Y-58674353D01*
X104760487Y-58654500D01*
X104569513Y-58654500D01*
X104476113Y-58674353D01*
X104386563Y-58693387D01*
X104386559Y-58693388D01*
X104382712Y-58694206D01*
X104272257Y-58743384D01*
X104211850Y-58770278D01*
X104211848Y-58770279D01*
X104208248Y-58771882D01*
X104053747Y-58884134D01*
X103925960Y-59026056D01*
X103830473Y-59191444D01*
X103771458Y-59373072D01*
X103771047Y-59376986D01*
X103771046Y-59376989D01*
X103759990Y-59482180D01*
X103751496Y-59563000D01*
X102267750Y-59563000D01*
X102228253Y-59519134D01*
X102073752Y-59406882D01*
X102070152Y-59405279D01*
X102070150Y-59405278D01*
X101989397Y-59369325D01*
X101899288Y-59329206D01*
X101895441Y-59328388D01*
X101895437Y-59328387D01*
X101805887Y-59309353D01*
X101712487Y-59289500D01*
X101521513Y-59289500D01*
X101428113Y-59309353D01*
X101338563Y-59328387D01*
X101338559Y-59328388D01*
X101334712Y-59329206D01*
X101244603Y-59369325D01*
X101163850Y-59405278D01*
X101163848Y-59405279D01*
X101160248Y-59406882D01*
X101005747Y-59519134D01*
X100877960Y-59661056D01*
X100875991Y-59664466D01*
X100875989Y-59664469D01*
X100822754Y-59756675D01*
X100782473Y-59826444D01*
X100723458Y-60008072D01*
X100723047Y-60011986D01*
X100723046Y-60011989D01*
X100711978Y-60117295D01*
X100703496Y-60198000D01*
X100703908Y-60201920D01*
X100703908Y-60201921D01*
X100706078Y-60222568D01*
X100693633Y-60272480D01*
X100652018Y-60302715D01*
X100639152Y-60305216D01*
X100636451Y-60305500D01*
X100632513Y-60305500D01*
X100596010Y-60313259D01*
X100449563Y-60344387D01*
X100449559Y-60344388D01*
X100445712Y-60345206D01*
X100341340Y-60391675D01*
X100274850Y-60421278D01*
X100274848Y-60421279D01*
X100271248Y-60422882D01*
X100116747Y-60535134D01*
X99988960Y-60677056D01*
X99986991Y-60680466D01*
X99986989Y-60680469D01*
X99955538Y-60734944D01*
X99893473Y-60842444D01*
X99834458Y-61024072D01*
X99834047Y-61027986D01*
X99834046Y-61027989D01*
X99825765Y-61106784D01*
X99814496Y-61214000D01*
X81314000Y-61214000D01*
X81314000Y-58508819D01*
X81316883Y-58490614D01*
X81316505Y-58490534D01*
X81317327Y-58486669D01*
X81318542Y-58482928D01*
X81323770Y-58433193D01*
X81338092Y-58296920D01*
X81338504Y-58293000D01*
X81320853Y-58125059D01*
X81318954Y-58106988D01*
X81318953Y-58106984D01*
X81318542Y-58103072D01*
X81317327Y-58099331D01*
X81316505Y-58095466D01*
X81316883Y-58095386D01*
X81314000Y-58077181D01*
X81314000Y-57746819D01*
X81316883Y-57728614D01*
X81316505Y-57728534D01*
X81317327Y-57724669D01*
X81318542Y-57720928D01*
X81320783Y-57699611D01*
X81338092Y-57534920D01*
X81338504Y-57531000D01*
X81332412Y-57473041D01*
X81318954Y-57344988D01*
X81318953Y-57344984D01*
X81318542Y-57341072D01*
X81317327Y-57337331D01*
X81316505Y-57333466D01*
X81316883Y-57333386D01*
X81314000Y-57315181D01*
X81314000Y-57011640D01*
X88882463Y-57011640D01*
X88900163Y-57192160D01*
X88957418Y-57364273D01*
X89051380Y-57519424D01*
X89054305Y-57522453D01*
X89174461Y-57646878D01*
X89174465Y-57646881D01*
X89177382Y-57649902D01*
X89180897Y-57652202D01*
X89297667Y-57728614D01*
X89329159Y-57749222D01*
X89333090Y-57750684D01*
X89333092Y-57750685D01*
X89495231Y-57810984D01*
X89499168Y-57812448D01*
X89558607Y-57820379D01*
X89674786Y-57835881D01*
X89674787Y-57835881D01*
X89678961Y-57836438D01*
X89859600Y-57819998D01*
X89863599Y-57818699D01*
X89863602Y-57818698D01*
X90028107Y-57765247D01*
X90032108Y-57763947D01*
X90134899Y-57702671D01*
X90184304Y-57673220D01*
X90184305Y-57673219D01*
X90187912Y-57671069D01*
X90319266Y-57545982D01*
X90369049Y-57471053D01*
X90417320Y-57398399D01*
X90417321Y-57398396D01*
X90419643Y-57394902D01*
X90484055Y-57225338D01*
X90488158Y-57196148D01*
X90496583Y-57136196D01*
X90509299Y-57045717D01*
X90509616Y-57023000D01*
X90508342Y-57011640D01*
X91930463Y-57011640D01*
X91948163Y-57192160D01*
X92005418Y-57364273D01*
X92099380Y-57519424D01*
X92102305Y-57522453D01*
X92222461Y-57646878D01*
X92222465Y-57646881D01*
X92225382Y-57649902D01*
X92228897Y-57652202D01*
X92345667Y-57728614D01*
X92377159Y-57749222D01*
X92381090Y-57750684D01*
X92381092Y-57750685D01*
X92543231Y-57810984D01*
X92547168Y-57812448D01*
X92606607Y-57820379D01*
X92722786Y-57835881D01*
X92722787Y-57835881D01*
X92726961Y-57836438D01*
X92907600Y-57819998D01*
X92911599Y-57818699D01*
X92911602Y-57818698D01*
X93076107Y-57765247D01*
X93080108Y-57763947D01*
X93182899Y-57702671D01*
X93232304Y-57673220D01*
X93232305Y-57673219D01*
X93235912Y-57671069D01*
X93367266Y-57545982D01*
X93417049Y-57471053D01*
X93465320Y-57398399D01*
X93465321Y-57398396D01*
X93467643Y-57394902D01*
X93477304Y-57369469D01*
X96521095Y-57369469D01*
X96521273Y-57372557D01*
X96521273Y-57372559D01*
X96531440Y-57548885D01*
X96534427Y-57600697D01*
X96585346Y-57826642D01*
X96586510Y-57829508D01*
X96663371Y-58018794D01*
X96672484Y-58041237D01*
X96674095Y-58043865D01*
X96674097Y-58043870D01*
X96709675Y-58101928D01*
X96793501Y-58238719D01*
X96795518Y-58241047D01*
X96795522Y-58241053D01*
X96843916Y-58296920D01*
X96945147Y-58413784D01*
X96947520Y-58415754D01*
X96947523Y-58415757D01*
X97026493Y-58481319D01*
X97123349Y-58561730D01*
X97126016Y-58563288D01*
X97126021Y-58563292D01*
X97320647Y-58677021D01*
X97323322Y-58678584D01*
X97539694Y-58761209D01*
X97542724Y-58761826D01*
X97542726Y-58761826D01*
X97763627Y-58806769D01*
X97763630Y-58806769D01*
X97766656Y-58807385D01*
X97849479Y-58810422D01*
X97995018Y-58815759D01*
X97995024Y-58815759D01*
X97998113Y-58815872D01*
X98001178Y-58815479D01*
X98001185Y-58815479D01*
X98224779Y-58786835D01*
X98227847Y-58786442D01*
X98449690Y-58719886D01*
X98452458Y-58718530D01*
X98452463Y-58718528D01*
X98654918Y-58619346D01*
X98657684Y-58617991D01*
X98660186Y-58616207D01*
X98660190Y-58616204D01*
X98843736Y-58485282D01*
X98846243Y-58483494D01*
X98916197Y-58413784D01*
X99008120Y-58322180D01*
X99010303Y-58320005D01*
X99068713Y-58238719D01*
X99143658Y-58134423D01*
X99143662Y-58134417D01*
X99145458Y-58131917D01*
X99148848Y-58125059D01*
X99246713Y-57927042D01*
X99246713Y-57927041D01*
X99248078Y-57924280D01*
X99315408Y-57702671D01*
X99345640Y-57473041D01*
X99347327Y-57404000D01*
X99344488Y-57369469D01*
X101601095Y-57369469D01*
X101601273Y-57372557D01*
X101601273Y-57372559D01*
X101611440Y-57548885D01*
X101614427Y-57600697D01*
X101665346Y-57826642D01*
X101666510Y-57829508D01*
X101743371Y-58018794D01*
X101752484Y-58041237D01*
X101754095Y-58043865D01*
X101754097Y-58043870D01*
X101789675Y-58101928D01*
X101873501Y-58238719D01*
X101875518Y-58241047D01*
X101875522Y-58241053D01*
X101923916Y-58296920D01*
X102025147Y-58413784D01*
X102027520Y-58415754D01*
X102027523Y-58415757D01*
X102106493Y-58481319D01*
X102203349Y-58561730D01*
X102206016Y-58563288D01*
X102206021Y-58563292D01*
X102400647Y-58677021D01*
X102403322Y-58678584D01*
X102619694Y-58761209D01*
X102622724Y-58761826D01*
X102622726Y-58761826D01*
X102843627Y-58806769D01*
X102843630Y-58806769D01*
X102846656Y-58807385D01*
X102929479Y-58810422D01*
X103075018Y-58815759D01*
X103075024Y-58815759D01*
X103078113Y-58815872D01*
X103081178Y-58815479D01*
X103081185Y-58815479D01*
X103304779Y-58786835D01*
X103307847Y-58786442D01*
X103529690Y-58719886D01*
X103532458Y-58718530D01*
X103532463Y-58718528D01*
X103734918Y-58619346D01*
X103737684Y-58617991D01*
X103740186Y-58616207D01*
X103740190Y-58616204D01*
X103923736Y-58485282D01*
X103926243Y-58483494D01*
X103996197Y-58413784D01*
X104088120Y-58322180D01*
X104090303Y-58320005D01*
X104148713Y-58238719D01*
X104223658Y-58134423D01*
X104223662Y-58134417D01*
X104225458Y-58131917D01*
X104228848Y-58125059D01*
X104326713Y-57927042D01*
X104326713Y-57927041D01*
X104328078Y-57924280D01*
X104395408Y-57702671D01*
X104425640Y-57473041D01*
X104427327Y-57404000D01*
X104408349Y-57173167D01*
X104366728Y-57007466D01*
X104352678Y-56951530D01*
X104352677Y-56951528D01*
X104351925Y-56948533D01*
X104341669Y-56924944D01*
X104260801Y-56738962D01*
X104259570Y-56736131D01*
X104133764Y-56541665D01*
X104131685Y-56539380D01*
X104131681Y-56539375D01*
X103979968Y-56372644D01*
X103979962Y-56372638D01*
X103977887Y-56370358D01*
X103796123Y-56226810D01*
X103793422Y-56225319D01*
X103793419Y-56225317D01*
X103596054Y-56116366D01*
X103596055Y-56116366D01*
X103593355Y-56114876D01*
X103375028Y-56037562D01*
X103371994Y-56037022D01*
X103371992Y-56037021D01*
X103150045Y-55997486D01*
X103150041Y-55997486D01*
X103147006Y-55996945D01*
X103143918Y-55996907D01*
X103143915Y-55996907D01*
X103039124Y-55995627D01*
X102915411Y-55994116D01*
X102912368Y-55994582D01*
X102912363Y-55994582D01*
X102701834Y-56026798D01*
X102686464Y-56029150D01*
X102683532Y-56030108D01*
X102683529Y-56030109D01*
X102572854Y-56066283D01*
X102466314Y-56101106D01*
X102260872Y-56208052D01*
X102258404Y-56209905D01*
X102153032Y-56289021D01*
X102075655Y-56347117D01*
X101915639Y-56514564D01*
X101913906Y-56517105D01*
X101913904Y-56517107D01*
X101868963Y-56582988D01*
X101785119Y-56705899D01*
X101687602Y-56915981D01*
X101676778Y-56955012D01*
X101650975Y-57048056D01*
X101625707Y-57139169D01*
X101601095Y-57369469D01*
X99344488Y-57369469D01*
X99328349Y-57173167D01*
X99286728Y-57007466D01*
X99272678Y-56951530D01*
X99272677Y-56951528D01*
X99271925Y-56948533D01*
X99261669Y-56924944D01*
X99180801Y-56738962D01*
X99179570Y-56736131D01*
X99053764Y-56541665D01*
X99051685Y-56539380D01*
X99051681Y-56539375D01*
X98899968Y-56372644D01*
X98899962Y-56372638D01*
X98897887Y-56370358D01*
X98716123Y-56226810D01*
X98713422Y-56225319D01*
X98713419Y-56225317D01*
X98516054Y-56116366D01*
X98516055Y-56116366D01*
X98513355Y-56114876D01*
X98295028Y-56037562D01*
X98291994Y-56037022D01*
X98291992Y-56037021D01*
X98070045Y-55997486D01*
X98070041Y-55997486D01*
X98067006Y-55996945D01*
X98063918Y-55996907D01*
X98063915Y-55996907D01*
X97959124Y-55995627D01*
X97835411Y-55994116D01*
X97832368Y-55994582D01*
X97832363Y-55994582D01*
X97621834Y-56026798D01*
X97606464Y-56029150D01*
X97603532Y-56030108D01*
X97603529Y-56030109D01*
X97492854Y-56066283D01*
X97386314Y-56101106D01*
X97180872Y-56208052D01*
X97178404Y-56209905D01*
X97073032Y-56289021D01*
X96995655Y-56347117D01*
X96835639Y-56514564D01*
X96833906Y-56517105D01*
X96833904Y-56517107D01*
X96788963Y-56582988D01*
X96705119Y-56705899D01*
X96607602Y-56915981D01*
X96596778Y-56955012D01*
X96570975Y-57048056D01*
X96545707Y-57139169D01*
X96521095Y-57369469D01*
X93477304Y-57369469D01*
X93532055Y-57225338D01*
X93536158Y-57196148D01*
X93544583Y-57136196D01*
X93557299Y-57045717D01*
X93557616Y-57023000D01*
X93549263Y-56948533D01*
X93537866Y-56846922D01*
X93537865Y-56846918D01*
X93537397Y-56842745D01*
X93477745Y-56671448D01*
X93381626Y-56517624D01*
X93378588Y-56514564D01*
X93318534Y-56454091D01*
X93253815Y-56388918D01*
X93100666Y-56291727D01*
X93096709Y-56290318D01*
X93096705Y-56290316D01*
X92995183Y-56254166D01*
X92929790Y-56230881D01*
X92749680Y-56209404D01*
X92745503Y-56209843D01*
X92745500Y-56209843D01*
X92573473Y-56227924D01*
X92573472Y-56227924D01*
X92569288Y-56228364D01*
X92565306Y-56229720D01*
X92565304Y-56229720D01*
X92557755Y-56232290D01*
X92397579Y-56286818D01*
X92394002Y-56289019D01*
X92393997Y-56289021D01*
X92246665Y-56379661D01*
X92246663Y-56379663D01*
X92243088Y-56381862D01*
X92240090Y-56384798D01*
X92240086Y-56384801D01*
X92116499Y-56505827D01*
X92113493Y-56508771D01*
X92015235Y-56661238D01*
X91953197Y-56831685D01*
X91930463Y-57011640D01*
X90508342Y-57011640D01*
X90501263Y-56948533D01*
X90489866Y-56846922D01*
X90489865Y-56846918D01*
X90489397Y-56842745D01*
X90429745Y-56671448D01*
X90333626Y-56517624D01*
X90330588Y-56514564D01*
X90270534Y-56454091D01*
X90205815Y-56388918D01*
X90052666Y-56291727D01*
X90048709Y-56290318D01*
X90048705Y-56290316D01*
X89947183Y-56254166D01*
X89881790Y-56230881D01*
X89701680Y-56209404D01*
X89697503Y-56209843D01*
X89697500Y-56209843D01*
X89525473Y-56227924D01*
X89525472Y-56227924D01*
X89521288Y-56228364D01*
X89517306Y-56229720D01*
X89517304Y-56229720D01*
X89509755Y-56232290D01*
X89349579Y-56286818D01*
X89346002Y-56289019D01*
X89345997Y-56289021D01*
X89198665Y-56379661D01*
X89198663Y-56379663D01*
X89195088Y-56381862D01*
X89192090Y-56384798D01*
X89192086Y-56384801D01*
X89068499Y-56505827D01*
X89065493Y-56508771D01*
X88967235Y-56661238D01*
X88905197Y-56831685D01*
X88882463Y-57011640D01*
X81314000Y-57011640D01*
X81314000Y-56984819D01*
X81316883Y-56966614D01*
X81316505Y-56966534D01*
X81317327Y-56962669D01*
X81318542Y-56958928D01*
X81319933Y-56945701D01*
X81338092Y-56772920D01*
X81338504Y-56769000D01*
X81328251Y-56671448D01*
X81318954Y-56582988D01*
X81318953Y-56582984D01*
X81318542Y-56579072D01*
X81317327Y-56575331D01*
X81316505Y-56571466D01*
X81316883Y-56571386D01*
X81314000Y-56553181D01*
X81314000Y-55022148D01*
X81331593Y-54973810D01*
X81336026Y-54968974D01*
X86371589Y-49933411D01*
X86418209Y-49911671D01*
X86425686Y-49911391D01*
X96681000Y-50038000D01*
X96861102Y-49857898D01*
X99113543Y-49857898D01*
X99114565Y-49861711D01*
X99355735Y-50036932D01*
X99359725Y-50039464D01*
X99637016Y-50191906D01*
X99641294Y-50193919D01*
X99935510Y-50310408D01*
X99939995Y-50311865D01*
X100246490Y-50390560D01*
X100251125Y-50391444D01*
X100565066Y-50431103D01*
X100569787Y-50431400D01*
X100886213Y-50431400D01*
X100890934Y-50431103D01*
X101204875Y-50391444D01*
X101209510Y-50390560D01*
X101516005Y-50311865D01*
X101520490Y-50310408D01*
X101814706Y-50193919D01*
X101818984Y-50191906D01*
X102096275Y-50039464D01*
X102100265Y-50036932D01*
X102336537Y-49865270D01*
X102342582Y-49856309D01*
X102342169Y-49852380D01*
X100737377Y-48247587D01*
X100727578Y-48243018D01*
X100721587Y-48244623D01*
X99118112Y-49848099D01*
X99113543Y-49857898D01*
X96861102Y-49857898D01*
X97189000Y-49530000D01*
X97189000Y-47881352D01*
X98170701Y-47881352D01*
X98190571Y-48197174D01*
X98191163Y-48201858D01*
X98250455Y-48512681D01*
X98251634Y-48517270D01*
X98349413Y-48818204D01*
X98351154Y-48822600D01*
X98485883Y-49108914D01*
X98488165Y-49113065D01*
X98657715Y-49380234D01*
X98660486Y-49384048D01*
X98744055Y-49485065D01*
X98753378Y-49490535D01*
X98758043Y-49489746D01*
X100359413Y-47888377D01*
X100363588Y-47879422D01*
X101092018Y-47879422D01*
X101093623Y-47885413D01*
X102694116Y-49485905D01*
X102703915Y-49490474D01*
X102708483Y-49489250D01*
X102795514Y-49384048D01*
X102798285Y-49380234D01*
X102967835Y-49113065D01*
X102970117Y-49108914D01*
X103104846Y-48822600D01*
X103106587Y-48818204D01*
X103204366Y-48517270D01*
X103205545Y-48512681D01*
X103264837Y-48201858D01*
X103265429Y-48197174D01*
X103285299Y-47881352D01*
X103285299Y-47876648D01*
X103265429Y-47560826D01*
X103264837Y-47556142D01*
X103205545Y-47245319D01*
X103204366Y-47240730D01*
X103106587Y-46939796D01*
X103104846Y-46935400D01*
X102970117Y-46649086D01*
X102967835Y-46644935D01*
X102798285Y-46377766D01*
X102795514Y-46373952D01*
X102711945Y-46272935D01*
X102702622Y-46267465D01*
X102697957Y-46268254D01*
X101096587Y-47869623D01*
X101092018Y-47879422D01*
X100363588Y-47879422D01*
X100363982Y-47878578D01*
X100362377Y-47872587D01*
X98761884Y-46272095D01*
X98752085Y-46267526D01*
X98747517Y-46268750D01*
X98660486Y-46373952D01*
X98657715Y-46377766D01*
X98488165Y-46644935D01*
X98485883Y-46649086D01*
X98351154Y-46935400D01*
X98349413Y-46939796D01*
X98251634Y-47240730D01*
X98250455Y-47245319D01*
X98191163Y-47556142D01*
X98190571Y-47560826D01*
X98170701Y-47876648D01*
X98170701Y-47881352D01*
X97189000Y-47881352D01*
X97189000Y-46132148D01*
X97206593Y-46083810D01*
X97211026Y-46078974D01*
X97388309Y-45901691D01*
X99113418Y-45901691D01*
X99113831Y-45905620D01*
X100718623Y-47510413D01*
X100728422Y-47514982D01*
X100734413Y-47513377D01*
X102337888Y-45909901D01*
X102342457Y-45900102D01*
X102341435Y-45896289D01*
X102100265Y-45721068D01*
X102096275Y-45718536D01*
X101818984Y-45566094D01*
X101814706Y-45564081D01*
X101520490Y-45447592D01*
X101516005Y-45446135D01*
X101209510Y-45367440D01*
X101204875Y-45366556D01*
X100890934Y-45326897D01*
X100886213Y-45326600D01*
X100569787Y-45326600D01*
X100565066Y-45326897D01*
X100251125Y-45366556D01*
X100246490Y-45367440D01*
X99939995Y-45446135D01*
X99935510Y-45447592D01*
X99641294Y-45564081D01*
X99637016Y-45566094D01*
X99359725Y-45718536D01*
X99355735Y-45721068D01*
X99119463Y-45892730D01*
X99113418Y-45901691D01*
X97388309Y-45901691D01*
X98690974Y-44599026D01*
X98737594Y-44577286D01*
X98744148Y-44577000D01*
X103122778Y-44577000D01*
X103171116Y-44594593D01*
G37*
%TD.AperFunction*%
%TD*%
M02*
