%TF.GenerationSoftware,KiCad,Pcbnew,(6.0.4)*%
%TF.CreationDate,2022-04-23T23:59:39+08:00*%
%TF.ProjectId,USBC_PD_TEST,55534243-5f50-4445-9f54-4553542e6b69,V0.9*%
%TF.SameCoordinates,Original*%
%TF.FileFunction,Legend,Top*%
%TF.FilePolarity,Positive*%
%FSLAX46Y46*%
G04 Gerber Fmt 4.6, Leading zero omitted, Abs format (unit mm)*
G04 Created by KiCad (PCBNEW (6.0.4)) date 2022-04-23 23:59:39*
%MOMM*%
%LPD*%
G01*
G04 APERTURE LIST*
%ADD10C,0.150000*%
%ADD11C,0.120000*%
G04 APERTURE END LIST*
D10*
X104174000Y-70231000D02*
X114334000Y-70231000D01*
X114969000Y-69596000D02*
X116239000Y-68326000D01*
X114334000Y-63246000D02*
X114969000Y-64516000D01*
X116239000Y-68326000D02*
X116239000Y-64516000D01*
X114334000Y-70231000D02*
X114969000Y-69596000D01*
X114334000Y-63246000D02*
X115818412Y-63420023D01*
X116239000Y-64516000D02*
X114334000Y-63246000D01*
X120647707Y-66003714D02*
X121191993Y-66003714D01*
X121300850Y-66040000D01*
X121373421Y-66112571D01*
X121409707Y-66221428D01*
X121409707Y-66294000D01*
X121409707Y-65278000D02*
X121409707Y-65640857D01*
X120647707Y-65640857D01*
X121337135Y-64588571D02*
X121373421Y-64624857D01*
X121409707Y-64733714D01*
X121409707Y-64806285D01*
X121373421Y-64915142D01*
X121300850Y-64987714D01*
X121228278Y-65024000D01*
X121083135Y-65060285D01*
X120974278Y-65060285D01*
X120829135Y-65024000D01*
X120756564Y-64987714D01*
X120683993Y-64915142D01*
X120647707Y-64806285D01*
X120647707Y-64733714D01*
X120683993Y-64624857D01*
X120720278Y-64588571D01*
X120647707Y-64044285D02*
X121191993Y-64044285D01*
X121300850Y-64080571D01*
X121373421Y-64153142D01*
X121409707Y-64262000D01*
X121409707Y-64334571D01*
X121409707Y-63318571D02*
X121409707Y-63681428D01*
X120647707Y-63681428D01*
X121337135Y-62629142D02*
X121373421Y-62665428D01*
X121409707Y-62774285D01*
X121409707Y-62846857D01*
X121373421Y-62955714D01*
X121300850Y-63028285D01*
X121228278Y-63064571D01*
X121083135Y-63100857D01*
X120974278Y-63100857D01*
X120829135Y-63064571D01*
X120756564Y-63028285D01*
X120683993Y-62955714D01*
X120647707Y-62846857D01*
X120647707Y-62774285D01*
X120683993Y-62665428D01*
X120720278Y-62629142D01*
X120647707Y-62084857D02*
X121191993Y-62084857D01*
X121300850Y-62121142D01*
X121373421Y-62193714D01*
X121409707Y-62302571D01*
X121409707Y-62375142D01*
X121409707Y-61359142D02*
X121409707Y-61722000D01*
X120647707Y-61722000D01*
X121337135Y-60669714D02*
X121373421Y-60706000D01*
X121409707Y-60814857D01*
X121409707Y-60887428D01*
X121373421Y-60996285D01*
X121300850Y-61068857D01*
X121228278Y-61105142D01*
X121083135Y-61141428D01*
X120974278Y-61141428D01*
X120829135Y-61105142D01*
X120756564Y-61068857D01*
X120683993Y-60996285D01*
X120647707Y-60887428D01*
X120647707Y-60814857D01*
X120683993Y-60706000D01*
X120720278Y-60669714D01*
X120647707Y-60125428D02*
X121191993Y-60125428D01*
X121300850Y-60161714D01*
X121373421Y-60234285D01*
X121409707Y-60343142D01*
X121409707Y-60415714D01*
X121409707Y-59399714D02*
X121409707Y-59762571D01*
X120647707Y-59762571D01*
X121337135Y-58710285D02*
X121373421Y-58746571D01*
X121409707Y-58855428D01*
X121409707Y-58928000D01*
X121373421Y-59036857D01*
X121300850Y-59109428D01*
X121228278Y-59145714D01*
X121083135Y-59182000D01*
X120974278Y-59182000D01*
X120829135Y-59145714D01*
X120756564Y-59109428D01*
X120683993Y-59036857D01*
X120647707Y-58928000D01*
X120647707Y-58855428D01*
X120683993Y-58746571D01*
X120720278Y-58710285D01*
%TO.C,TP8*%
X96148285Y-65555761D02*
X96291142Y-65603380D01*
X96529238Y-65603380D01*
X96624476Y-65555761D01*
X96672095Y-65508142D01*
X96719714Y-65412904D01*
X96719714Y-65317666D01*
X96672095Y-65222428D01*
X96624476Y-65174809D01*
X96529238Y-65127190D01*
X96338761Y-65079571D01*
X96243523Y-65031952D01*
X96195904Y-64984333D01*
X96148285Y-64889095D01*
X96148285Y-64793857D01*
X96195904Y-64698619D01*
X96243523Y-64651000D01*
X96338761Y-64603380D01*
X96576857Y-64603380D01*
X96719714Y-64651000D01*
X97481619Y-65079571D02*
X97624476Y-65127190D01*
X97672095Y-65174809D01*
X97719714Y-65270047D01*
X97719714Y-65412904D01*
X97672095Y-65508142D01*
X97624476Y-65555761D01*
X97529238Y-65603380D01*
X97148285Y-65603380D01*
X97148285Y-64603380D01*
X97481619Y-64603380D01*
X97576857Y-64651000D01*
X97624476Y-64698619D01*
X97672095Y-64793857D01*
X97672095Y-64889095D01*
X97624476Y-64984333D01*
X97576857Y-65031952D01*
X97481619Y-65079571D01*
X97148285Y-65079571D01*
X98148285Y-64603380D02*
X98148285Y-65412904D01*
X98195904Y-65508142D01*
X98243523Y-65555761D01*
X98338761Y-65603380D01*
X98529238Y-65603380D01*
X98624476Y-65555761D01*
X98672095Y-65508142D01*
X98719714Y-65412904D01*
X98719714Y-64603380D01*
X99148285Y-64698619D02*
X99195904Y-64651000D01*
X99291142Y-64603380D01*
X99529238Y-64603380D01*
X99624476Y-64651000D01*
X99672095Y-64698619D01*
X99719714Y-64793857D01*
X99719714Y-64889095D01*
X99672095Y-65031952D01*
X99100666Y-65603380D01*
X99719714Y-65603380D01*
X98451142Y-63555571D02*
X98594000Y-63603190D01*
X98641619Y-63650809D01*
X98689238Y-63746047D01*
X98689238Y-63888904D01*
X98641619Y-63984142D01*
X98594000Y-64031761D01*
X98498761Y-64079380D01*
X98117809Y-64079380D01*
X98117809Y-63079380D01*
X98451142Y-63079380D01*
X98546380Y-63127000D01*
X98594000Y-63174619D01*
X98641619Y-63269857D01*
X98641619Y-63365095D01*
X98594000Y-63460333D01*
X98546380Y-63507952D01*
X98451142Y-63555571D01*
X98117809Y-63555571D01*
X99260666Y-63507952D02*
X99165428Y-63460333D01*
X99117809Y-63412714D01*
X99070190Y-63317476D01*
X99070190Y-63269857D01*
X99117809Y-63174619D01*
X99165428Y-63127000D01*
X99260666Y-63079380D01*
X99451142Y-63079380D01*
X99546380Y-63127000D01*
X99594000Y-63174619D01*
X99641619Y-63269857D01*
X99641619Y-63317476D01*
X99594000Y-63412714D01*
X99546380Y-63460333D01*
X99451142Y-63507952D01*
X99260666Y-63507952D01*
X99165428Y-63555571D01*
X99117809Y-63603190D01*
X99070190Y-63698428D01*
X99070190Y-63888904D01*
X99117809Y-63984142D01*
X99165428Y-64031761D01*
X99260666Y-64079380D01*
X99451142Y-64079380D01*
X99546380Y-64031761D01*
X99594000Y-63984142D01*
X99641619Y-63888904D01*
X99641619Y-63698428D01*
X99594000Y-63603190D01*
X99546380Y-63555571D01*
X99451142Y-63507952D01*
X100070190Y-63984142D02*
X100117809Y-64031761D01*
X100070190Y-64079380D01*
X100022571Y-64031761D01*
X100070190Y-63984142D01*
X100070190Y-64079380D01*
X100070190Y-63460333D02*
X100117809Y-63507952D01*
X100070190Y-63555571D01*
X100022571Y-63507952D01*
X100070190Y-63460333D01*
X100070190Y-63555571D01*
%TO.C,SW1*%
X89338761Y-63817333D02*
X89386380Y-63674476D01*
X89386380Y-63436380D01*
X89338761Y-63341142D01*
X89291142Y-63293523D01*
X89195904Y-63245904D01*
X89100666Y-63245904D01*
X89005428Y-63293523D01*
X88957809Y-63341142D01*
X88910190Y-63436380D01*
X88862571Y-63626857D01*
X88814952Y-63722095D01*
X88767333Y-63769714D01*
X88672095Y-63817333D01*
X88576857Y-63817333D01*
X88481619Y-63769714D01*
X88434000Y-63722095D01*
X88386380Y-63626857D01*
X88386380Y-63388761D01*
X88434000Y-63245904D01*
X88386380Y-62912571D02*
X89386380Y-62674476D01*
X88672095Y-62484000D01*
X89386380Y-62293523D01*
X88386380Y-62055428D01*
X89386380Y-61150666D02*
X89386380Y-61722095D01*
X89386380Y-61436380D02*
X88386380Y-61436380D01*
X88529238Y-61531619D01*
X88624476Y-61626857D01*
X88672095Y-61722095D01*
%TO.C,J1*%
X116040571Y-62420238D02*
X116040571Y-62753571D01*
X116564380Y-62753571D02*
X115564380Y-62753571D01*
X115564380Y-62277380D01*
X116516761Y-61515476D02*
X116564380Y-61610714D01*
X116564380Y-61801190D01*
X116516761Y-61896428D01*
X116421523Y-61944047D01*
X116040571Y-61944047D01*
X115945333Y-61896428D01*
X115897714Y-61801190D01*
X115897714Y-61610714D01*
X115945333Y-61515476D01*
X116040571Y-61467857D01*
X116135809Y-61467857D01*
X116231047Y-61944047D01*
X116564380Y-61039285D02*
X115897714Y-61039285D01*
X115992952Y-61039285D02*
X115945333Y-60991666D01*
X115897714Y-60896428D01*
X115897714Y-60753571D01*
X115945333Y-60658333D01*
X116040571Y-60610714D01*
X116564380Y-60610714D01*
X116040571Y-60610714D02*
X115945333Y-60563095D01*
X115897714Y-60467857D01*
X115897714Y-60325000D01*
X115945333Y-60229761D01*
X116040571Y-60182142D01*
X116564380Y-60182142D01*
X116564380Y-59277380D02*
X116040571Y-59277380D01*
X115945333Y-59325000D01*
X115897714Y-59420238D01*
X115897714Y-59610714D01*
X115945333Y-59705952D01*
X116516761Y-59277380D02*
X116564380Y-59372619D01*
X116564380Y-59610714D01*
X116516761Y-59705952D01*
X116421523Y-59753571D01*
X116326285Y-59753571D01*
X116231047Y-59705952D01*
X116183428Y-59610714D01*
X116183428Y-59372619D01*
X116135809Y-59277380D01*
X116564380Y-58658333D02*
X116516761Y-58753571D01*
X116421523Y-58801190D01*
X115564380Y-58801190D01*
X116516761Y-57896428D02*
X116564380Y-57991666D01*
X116564380Y-58182142D01*
X116516761Y-58277380D01*
X116421523Y-58325000D01*
X116040571Y-58325000D01*
X115945333Y-58277380D01*
X115897714Y-58182142D01*
X115897714Y-57991666D01*
X115945333Y-57896428D01*
X116040571Y-57848809D01*
X116135809Y-57848809D01*
X116231047Y-58325000D01*
%TO.C,P1*%
X79480380Y-63960190D02*
X78480380Y-63960190D01*
X79194666Y-63626857D01*
X78480380Y-63293523D01*
X79480380Y-63293523D01*
X79480380Y-62388761D02*
X78956571Y-62388761D01*
X78861333Y-62436380D01*
X78813714Y-62531619D01*
X78813714Y-62722095D01*
X78861333Y-62817333D01*
X79432761Y-62388761D02*
X79480380Y-62484000D01*
X79480380Y-62722095D01*
X79432761Y-62817333D01*
X79337523Y-62864952D01*
X79242285Y-62864952D01*
X79147047Y-62817333D01*
X79099428Y-62722095D01*
X79099428Y-62484000D01*
X79051809Y-62388761D01*
X79480380Y-61769714D02*
X79432761Y-61864952D01*
X79337523Y-61912571D01*
X78480380Y-61912571D01*
X79432761Y-61007809D02*
X79480380Y-61103047D01*
X79480380Y-61293523D01*
X79432761Y-61388761D01*
X79337523Y-61436380D01*
X78956571Y-61436380D01*
X78861333Y-61388761D01*
X78813714Y-61293523D01*
X78813714Y-61103047D01*
X78861333Y-61007809D01*
X78956571Y-60960190D01*
X79051809Y-60960190D01*
X79147047Y-61436380D01*
%TO.C,TP4*%
X95529238Y-60920380D02*
X95862571Y-61920380D01*
X96195904Y-60920380D01*
X97100666Y-61825142D02*
X97053047Y-61872761D01*
X96910190Y-61920380D01*
X96814952Y-61920380D01*
X96672095Y-61872761D01*
X96576857Y-61777523D01*
X96529238Y-61682285D01*
X96481619Y-61491809D01*
X96481619Y-61348952D01*
X96529238Y-61158476D01*
X96576857Y-61063238D01*
X96672095Y-60968000D01*
X96814952Y-60920380D01*
X96910190Y-60920380D01*
X97053047Y-60968000D01*
X97100666Y-61015619D01*
X97719714Y-60920380D02*
X97910190Y-60920380D01*
X98005428Y-60968000D01*
X98100666Y-61063238D01*
X98148285Y-61253714D01*
X98148285Y-61587047D01*
X98100666Y-61777523D01*
X98005428Y-61872761D01*
X97910190Y-61920380D01*
X97719714Y-61920380D01*
X97624476Y-61872761D01*
X97529238Y-61777523D01*
X97481619Y-61587047D01*
X97481619Y-61253714D01*
X97529238Y-61063238D01*
X97624476Y-60968000D01*
X97719714Y-60920380D01*
X98576857Y-61920380D02*
X98576857Y-60920380D01*
X99148285Y-61920380D01*
X99148285Y-60920380D01*
X99624476Y-61920380D02*
X99624476Y-60920380D01*
X100195904Y-61920380D01*
X100195904Y-60920380D01*
X98451142Y-59872571D02*
X98594000Y-59920190D01*
X98641619Y-59967809D01*
X98689238Y-60063047D01*
X98689238Y-60205904D01*
X98641619Y-60301142D01*
X98594000Y-60348761D01*
X98498761Y-60396380D01*
X98117809Y-60396380D01*
X98117809Y-59396380D01*
X98451142Y-59396380D01*
X98546380Y-59444000D01*
X98594000Y-59491619D01*
X98641619Y-59586857D01*
X98641619Y-59682095D01*
X98594000Y-59777333D01*
X98546380Y-59824952D01*
X98451142Y-59872571D01*
X98117809Y-59872571D01*
X99594000Y-59396380D02*
X99117809Y-59396380D01*
X99070190Y-59872571D01*
X99117809Y-59824952D01*
X99213047Y-59777333D01*
X99451142Y-59777333D01*
X99546380Y-59824952D01*
X99594000Y-59872571D01*
X99641619Y-59967809D01*
X99641619Y-60205904D01*
X99594000Y-60301142D01*
X99546380Y-60348761D01*
X99451142Y-60396380D01*
X99213047Y-60396380D01*
X99117809Y-60348761D01*
X99070190Y-60301142D01*
X100070190Y-60301142D02*
X100117809Y-60348761D01*
X100070190Y-60396380D01*
X100022571Y-60348761D01*
X100070190Y-60301142D01*
X100070190Y-60396380D01*
X100070190Y-59777333D02*
X100117809Y-59824952D01*
X100070190Y-59872571D01*
X100022571Y-59824952D01*
X100070190Y-59777333D01*
X100070190Y-59872571D01*
%TO.C,TP3*%
X102823523Y-65508142D02*
X102775904Y-65555761D01*
X102633047Y-65603380D01*
X102537809Y-65603380D01*
X102394952Y-65555761D01*
X102299714Y-65460523D01*
X102252095Y-65365285D01*
X102204476Y-65174809D01*
X102204476Y-65031952D01*
X102252095Y-64841476D01*
X102299714Y-64746238D01*
X102394952Y-64651000D01*
X102537809Y-64603380D01*
X102633047Y-64603380D01*
X102775904Y-64651000D01*
X102823523Y-64698619D01*
X103823523Y-65508142D02*
X103775904Y-65555761D01*
X103633047Y-65603380D01*
X103537809Y-65603380D01*
X103394952Y-65555761D01*
X103299714Y-65460523D01*
X103252095Y-65365285D01*
X103204476Y-65174809D01*
X103204476Y-65031952D01*
X103252095Y-64841476D01*
X103299714Y-64746238D01*
X103394952Y-64651000D01*
X103537809Y-64603380D01*
X103633047Y-64603380D01*
X103775904Y-64651000D01*
X103823523Y-64698619D01*
X102061619Y-63793666D02*
X102537809Y-63793666D01*
X101966380Y-64079380D02*
X102299714Y-63079380D01*
X102633047Y-64079380D01*
X103442571Y-63079380D02*
X102966380Y-63079380D01*
X102918761Y-63555571D01*
X102966380Y-63507952D01*
X103061619Y-63460333D01*
X103299714Y-63460333D01*
X103394952Y-63507952D01*
X103442571Y-63555571D01*
X103490190Y-63650809D01*
X103490190Y-63888904D01*
X103442571Y-63984142D01*
X103394952Y-64031761D01*
X103299714Y-64079380D01*
X103061619Y-64079380D01*
X102966380Y-64031761D01*
X102918761Y-63984142D01*
X103918761Y-63984142D02*
X103966380Y-64031761D01*
X103918761Y-64079380D01*
X103871142Y-64031761D01*
X103918761Y-63984142D01*
X103918761Y-64079380D01*
X103918761Y-63460333D02*
X103966380Y-63507952D01*
X103918761Y-63555571D01*
X103871142Y-63507952D01*
X103918761Y-63460333D01*
X103918761Y-63555571D01*
%TO.C,TP5*%
X106109952Y-57491380D02*
X106109952Y-58300904D01*
X106157571Y-58396142D01*
X106205190Y-58443761D01*
X106300428Y-58491380D01*
X106490904Y-58491380D01*
X106586142Y-58443761D01*
X106633761Y-58396142D01*
X106681380Y-58300904D01*
X106681380Y-57491380D01*
X107109952Y-58443761D02*
X107252809Y-58491380D01*
X107490904Y-58491380D01*
X107586142Y-58443761D01*
X107633761Y-58396142D01*
X107681380Y-58300904D01*
X107681380Y-58205666D01*
X107633761Y-58110428D01*
X107586142Y-58062809D01*
X107490904Y-58015190D01*
X107300428Y-57967571D01*
X107205190Y-57919952D01*
X107157571Y-57872333D01*
X107109952Y-57777095D01*
X107109952Y-57681857D01*
X107157571Y-57586619D01*
X107205190Y-57539000D01*
X107300428Y-57491380D01*
X107538523Y-57491380D01*
X107681380Y-57539000D01*
X108443285Y-57967571D02*
X108586142Y-58015190D01*
X108633761Y-58062809D01*
X108681380Y-58158047D01*
X108681380Y-58300904D01*
X108633761Y-58396142D01*
X108586142Y-58443761D01*
X108490904Y-58491380D01*
X108109952Y-58491380D01*
X108109952Y-57491380D01*
X108443285Y-57491380D01*
X108538523Y-57539000D01*
X108586142Y-57586619D01*
X108633761Y-57681857D01*
X108633761Y-57777095D01*
X108586142Y-57872333D01*
X108538523Y-57919952D01*
X108443285Y-57967571D01*
X108109952Y-57967571D01*
X109109952Y-58396142D02*
X109157571Y-58443761D01*
X109109952Y-58491380D01*
X109062333Y-58443761D01*
X109109952Y-58396142D01*
X109109952Y-58491380D01*
X109109952Y-57872333D02*
X109157571Y-57919952D01*
X109109952Y-57967571D01*
X109062333Y-57919952D01*
X109109952Y-57872333D01*
X109109952Y-57967571D01*
X109586142Y-58491380D02*
X109586142Y-57491380D01*
X109824238Y-57491380D01*
X109967095Y-57539000D01*
X110062333Y-57634238D01*
X110109952Y-57729476D01*
X110157571Y-57919952D01*
X110157571Y-58062809D01*
X110109952Y-58253285D01*
X110062333Y-58348523D01*
X109967095Y-58443761D01*
X109824238Y-58491380D01*
X109586142Y-58491380D01*
X110586142Y-58110428D02*
X111348047Y-58110428D01*
%TO.C,R2*%
X85195380Y-68341857D02*
X84719190Y-68675190D01*
X85195380Y-68913285D02*
X84195380Y-68913285D01*
X84195380Y-68532333D01*
X84243000Y-68437095D01*
X84290619Y-68389476D01*
X84385857Y-68341857D01*
X84528714Y-68341857D01*
X84623952Y-68389476D01*
X84671571Y-68437095D01*
X84719190Y-68532333D01*
X84719190Y-68913285D01*
X85195380Y-67484714D02*
X84195380Y-67484714D01*
X85147761Y-67484714D02*
X85195380Y-67579952D01*
X85195380Y-67770428D01*
X85147761Y-67865666D01*
X85100142Y-67913285D01*
X85004904Y-67960904D01*
X84719190Y-67960904D01*
X84623952Y-67913285D01*
X84576333Y-67865666D01*
X84528714Y-67770428D01*
X84528714Y-67579952D01*
X84576333Y-67484714D01*
%TO.C,TP6*%
X106109952Y-66635380D02*
X106109952Y-67444904D01*
X106157571Y-67540142D01*
X106205190Y-67587761D01*
X106300428Y-67635380D01*
X106490904Y-67635380D01*
X106586142Y-67587761D01*
X106633761Y-67540142D01*
X106681380Y-67444904D01*
X106681380Y-66635380D01*
X107109952Y-67587761D02*
X107252809Y-67635380D01*
X107490904Y-67635380D01*
X107586142Y-67587761D01*
X107633761Y-67540142D01*
X107681380Y-67444904D01*
X107681380Y-67349666D01*
X107633761Y-67254428D01*
X107586142Y-67206809D01*
X107490904Y-67159190D01*
X107300428Y-67111571D01*
X107205190Y-67063952D01*
X107157571Y-67016333D01*
X107109952Y-66921095D01*
X107109952Y-66825857D01*
X107157571Y-66730619D01*
X107205190Y-66683000D01*
X107300428Y-66635380D01*
X107538523Y-66635380D01*
X107681380Y-66683000D01*
X108443285Y-67111571D02*
X108586142Y-67159190D01*
X108633761Y-67206809D01*
X108681380Y-67302047D01*
X108681380Y-67444904D01*
X108633761Y-67540142D01*
X108586142Y-67587761D01*
X108490904Y-67635380D01*
X108109952Y-67635380D01*
X108109952Y-66635380D01*
X108443285Y-66635380D01*
X108538523Y-66683000D01*
X108586142Y-66730619D01*
X108633761Y-66825857D01*
X108633761Y-66921095D01*
X108586142Y-67016333D01*
X108538523Y-67063952D01*
X108443285Y-67111571D01*
X108109952Y-67111571D01*
X109109952Y-67540142D02*
X109157571Y-67587761D01*
X109109952Y-67635380D01*
X109062333Y-67587761D01*
X109109952Y-67540142D01*
X109109952Y-67635380D01*
X109109952Y-67016333D02*
X109157571Y-67063952D01*
X109109952Y-67111571D01*
X109062333Y-67063952D01*
X109109952Y-67016333D01*
X109109952Y-67111571D01*
X109586142Y-67635380D02*
X109586142Y-66635380D01*
X109824238Y-66635380D01*
X109967095Y-66683000D01*
X110062333Y-66778238D01*
X110109952Y-66873476D01*
X110157571Y-67063952D01*
X110157571Y-67206809D01*
X110109952Y-67397285D01*
X110062333Y-67492523D01*
X109967095Y-67587761D01*
X109824238Y-67635380D01*
X109586142Y-67635380D01*
X110586142Y-67254428D02*
X111348047Y-67254428D01*
X110967095Y-67635380D02*
X110967095Y-66873476D01*
%TO.C,R1*%
X84092142Y-64841380D02*
X83758809Y-64365190D01*
X83520714Y-64841380D02*
X83520714Y-63841380D01*
X83901666Y-63841380D01*
X83996904Y-63889000D01*
X84044523Y-63936619D01*
X84092142Y-64031857D01*
X84092142Y-64174714D01*
X84044523Y-64269952D01*
X83996904Y-64317571D01*
X83901666Y-64365190D01*
X83520714Y-64365190D01*
X84520714Y-64174714D02*
X84520714Y-65174714D01*
X84520714Y-64222333D02*
X84615952Y-64174714D01*
X84806428Y-64174714D01*
X84901666Y-64222333D01*
X84949285Y-64269952D01*
X84996904Y-64365190D01*
X84996904Y-64650904D01*
X84949285Y-64746142D01*
X84901666Y-64793761D01*
X84806428Y-64841380D01*
X84615952Y-64841380D01*
X84520714Y-64793761D01*
%TO.C,TP7*%
X102061619Y-60237666D02*
X102537809Y-60237666D01*
X101966380Y-60523380D02*
X102299714Y-59523380D01*
X102633047Y-60523380D01*
X103109238Y-59951952D02*
X103014000Y-59904333D01*
X102966380Y-59856714D01*
X102918761Y-59761476D01*
X102918761Y-59713857D01*
X102966380Y-59618619D01*
X103014000Y-59571000D01*
X103109238Y-59523380D01*
X103299714Y-59523380D01*
X103394952Y-59571000D01*
X103442571Y-59618619D01*
X103490190Y-59713857D01*
X103490190Y-59761476D01*
X103442571Y-59856714D01*
X103394952Y-59904333D01*
X103299714Y-59951952D01*
X103109238Y-59951952D01*
X103014000Y-59999571D01*
X102966380Y-60047190D01*
X102918761Y-60142428D01*
X102918761Y-60332904D01*
X102966380Y-60428142D01*
X103014000Y-60475761D01*
X103109238Y-60523380D01*
X103299714Y-60523380D01*
X103394952Y-60475761D01*
X103442571Y-60428142D01*
X103490190Y-60332904D01*
X103490190Y-60142428D01*
X103442571Y-60047190D01*
X103394952Y-59999571D01*
X103299714Y-59951952D01*
X103918761Y-60428142D02*
X103966380Y-60475761D01*
X103918761Y-60523380D01*
X103871142Y-60475761D01*
X103918761Y-60428142D01*
X103918761Y-60523380D01*
X103918761Y-59904333D02*
X103966380Y-59951952D01*
X103918761Y-59999571D01*
X103871142Y-59951952D01*
X103918761Y-59904333D01*
X103918761Y-59999571D01*
X101228285Y-61872761D02*
X101371142Y-61920380D01*
X101609238Y-61920380D01*
X101704476Y-61872761D01*
X101752095Y-61825142D01*
X101799714Y-61729904D01*
X101799714Y-61634666D01*
X101752095Y-61539428D01*
X101704476Y-61491809D01*
X101609238Y-61444190D01*
X101418761Y-61396571D01*
X101323523Y-61348952D01*
X101275904Y-61301333D01*
X101228285Y-61206095D01*
X101228285Y-61110857D01*
X101275904Y-61015619D01*
X101323523Y-60968000D01*
X101418761Y-60920380D01*
X101656857Y-60920380D01*
X101799714Y-60968000D01*
X102561619Y-61396571D02*
X102704476Y-61444190D01*
X102752095Y-61491809D01*
X102799714Y-61587047D01*
X102799714Y-61729904D01*
X102752095Y-61825142D01*
X102704476Y-61872761D01*
X102609238Y-61920380D01*
X102228285Y-61920380D01*
X102228285Y-60920380D01*
X102561619Y-60920380D01*
X102656857Y-60968000D01*
X102704476Y-61015619D01*
X102752095Y-61110857D01*
X102752095Y-61206095D01*
X102704476Y-61301333D01*
X102656857Y-61348952D01*
X102561619Y-61396571D01*
X102228285Y-61396571D01*
X103228285Y-60920380D02*
X103228285Y-61729904D01*
X103275904Y-61825142D01*
X103323523Y-61872761D01*
X103418761Y-61920380D01*
X103609238Y-61920380D01*
X103704476Y-61872761D01*
X103752095Y-61825142D01*
X103799714Y-61729904D01*
X103799714Y-60920380D01*
X104799714Y-61920380D02*
X104228285Y-61920380D01*
X104514000Y-61920380D02*
X104514000Y-60920380D01*
X104418761Y-61063238D01*
X104323523Y-61158476D01*
X104228285Y-61206095D01*
%TO.C,FB1*%
X116912666Y-71589571D02*
X116579333Y-71589571D01*
X116579333Y-72113380D02*
X116579333Y-71113380D01*
X117055523Y-71113380D01*
X117769809Y-71589571D02*
X117912666Y-71637190D01*
X117960285Y-71684809D01*
X118007904Y-71780047D01*
X118007904Y-71922904D01*
X117960285Y-72018142D01*
X117912666Y-72065761D01*
X117817428Y-72113380D01*
X117436476Y-72113380D01*
X117436476Y-71113380D01*
X117769809Y-71113380D01*
X117865047Y-71161000D01*
X117912666Y-71208619D01*
X117960285Y-71303857D01*
X117960285Y-71399095D01*
X117912666Y-71494333D01*
X117865047Y-71541952D01*
X117769809Y-71589571D01*
X117436476Y-71589571D01*
X118960285Y-72113380D02*
X118388857Y-72113380D01*
X118674571Y-72113380D02*
X118674571Y-71113380D01*
X118579333Y-71256238D01*
X118484095Y-71351476D01*
X118388857Y-71399095D01*
D11*
%TO.C,TP8*%
X99634000Y-67564000D02*
G75*
G03*
X99634000Y-67564000I-1700000J0D01*
G01*
%TO.C,TP2*%
X96984000Y-47879000D02*
G75*
G03*
X96984000Y-47879000I-1700000J0D01*
G01*
%TO.C,kibuzzard-6262F4E3*%
G36*
X80378645Y-70084950D02*
G01*
X80313875Y-70112890D01*
X80313875Y-70511670D01*
X80369426Y-70556355D01*
X80433584Y-70589751D01*
X80508820Y-70613270D01*
X80597602Y-70628322D01*
X80702401Y-70636318D01*
X80825685Y-70638670D01*
X80928654Y-70638353D01*
X81027456Y-70637083D01*
X81126973Y-70634384D01*
X81232085Y-70629780D01*
X81232085Y-70645020D01*
X81164775Y-70688200D01*
X81135565Y-70765670D01*
X80779965Y-70765670D01*
X80660685Y-70760549D01*
X80561901Y-70744597D01*
X80479769Y-70716934D01*
X80410442Y-70676676D01*
X80350076Y-70622942D01*
X80294825Y-70554850D01*
X80250375Y-70554850D01*
X80215615Y-70610354D01*
X80170412Y-70683073D01*
X80127185Y-70758050D01*
X80115755Y-70787260D01*
X80016695Y-70641210D01*
X80092895Y-70593426D01*
X80172905Y-70540880D01*
X80172905Y-70092570D01*
X80035745Y-70092570D01*
X80028125Y-70055740D01*
X80152585Y-70055740D01*
X80224975Y-69961760D01*
X80378645Y-70084950D01*
G37*
G36*
X78311085Y-69653150D02*
G01*
X78260285Y-69721730D01*
X78307040Y-69803780D01*
X78366354Y-69879445D01*
X78436815Y-69948266D01*
X78517013Y-70009785D01*
X78605537Y-70063542D01*
X78700975Y-70109080D01*
X78698435Y-70124320D01*
X78634512Y-70148168D01*
X78583288Y-70192336D01*
X78549845Y-70250050D01*
X78483264Y-70199391D01*
X78423440Y-70142199D01*
X78370224Y-70077774D01*
X78323467Y-70005416D01*
X78283021Y-69924426D01*
X78248736Y-69834105D01*
X78220464Y-69733753D01*
X78198055Y-69622670D01*
X78210755Y-69616320D01*
X78311085Y-69653150D01*
G37*
G36*
X87330446Y-69987597D02*
G01*
X87406984Y-70027482D01*
X87461852Y-70087847D01*
X87490645Y-70163690D01*
X87463816Y-70208775D01*
X87416985Y-70223380D01*
X87356025Y-70201155D01*
X87325545Y-70125590D01*
X87306495Y-70026530D01*
X87256965Y-70020180D01*
X87189238Y-70033053D01*
X87132424Y-70070736D01*
X87088898Y-70131828D01*
X87061040Y-70214927D01*
X87051225Y-70318630D01*
X87061964Y-70419590D01*
X87092637Y-70500555D01*
X87140928Y-70560123D01*
X87204519Y-70596892D01*
X87281095Y-70609460D01*
X87352215Y-70598312D01*
X87413175Y-70565998D01*
X87463975Y-70514210D01*
X87490645Y-70528180D01*
X87444171Y-70598447D01*
X87382695Y-70650259D01*
X87305979Y-70682306D01*
X87213785Y-70693280D01*
X87122174Y-70682450D01*
X87040971Y-70650664D01*
X86972961Y-70598983D01*
X86920932Y-70528462D01*
X86887671Y-70440162D01*
X86875965Y-70335140D01*
X86885681Y-70242711D01*
X86913258Y-70162857D01*
X86956342Y-70096176D01*
X87012577Y-70043270D01*
X87079609Y-70004736D01*
X87155084Y-69981177D01*
X87236645Y-69973190D01*
X87330446Y-69987597D01*
G37*
G36*
X84770446Y-70649959D02*
G01*
X84701566Y-70597554D01*
X84649091Y-70526204D01*
X84615665Y-70437075D01*
X84604076Y-70332600D01*
X84783005Y-70332600D01*
X84789924Y-70446179D01*
X84810315Y-70534093D01*
X84843630Y-70596587D01*
X84889319Y-70633905D01*
X84946835Y-70646290D01*
X85003375Y-70633905D01*
X85048943Y-70596587D01*
X85082623Y-70534093D01*
X85103502Y-70446179D01*
X85110665Y-70332600D01*
X85103502Y-70219641D01*
X85082623Y-70132103D01*
X85048943Y-70069801D01*
X85003375Y-70032555D01*
X84946835Y-70020180D01*
X84889319Y-70032555D01*
X84843630Y-70069801D01*
X84810315Y-70132103D01*
X84789924Y-70219641D01*
X84783005Y-70332600D01*
X84604076Y-70332600D01*
X84603935Y-70331330D01*
X84616459Y-70225867D01*
X84651631Y-70137443D01*
X84705852Y-70067011D01*
X84775526Y-70015523D01*
X84857053Y-69983932D01*
X84946835Y-69973190D01*
X85036176Y-69983844D01*
X85117579Y-70015241D01*
X85187341Y-70066535D01*
X85241757Y-70136879D01*
X85277123Y-70225426D01*
X85289735Y-70331330D01*
X85277829Y-70437516D01*
X85244015Y-70526769D01*
X85191151Y-70598030D01*
X85122095Y-70650241D01*
X85039704Y-70682344D01*
X84946835Y-70693280D01*
X84853084Y-70682256D01*
X84770446Y-70649959D01*
G37*
G36*
X91284135Y-70633590D02*
G01*
X91284135Y-70672960D01*
X91033945Y-70686930D01*
X91025055Y-70601840D01*
X90969504Y-70651511D01*
X90904076Y-70682556D01*
X90828205Y-70693280D01*
X90748895Y-70682297D01*
X90678862Y-70650288D01*
X90620401Y-70598665D01*
X90575804Y-70528839D01*
X90547364Y-70442220D01*
X90537375Y-70340220D01*
X90538136Y-70332600D01*
X90715175Y-70332600D01*
X90728927Y-70461445D01*
X90767086Y-70548024D01*
X90825010Y-70596740D01*
X90898055Y-70612000D01*
X90962031Y-70600411D01*
X91021245Y-70561200D01*
X91021245Y-70101460D01*
X90959968Y-70063995D01*
X90900595Y-70053200D01*
X90829296Y-70067567D01*
X90770261Y-70114795D01*
X90730038Y-70201076D01*
X90715175Y-70332600D01*
X90538136Y-70332600D01*
X90548058Y-70233217D01*
X90578391Y-70142900D01*
X90625799Y-70070504D01*
X90687705Y-70017264D01*
X90761536Y-69984414D01*
X90844715Y-69973190D01*
X90911602Y-69982409D01*
X90972562Y-70011384D01*
X91027595Y-70062090D01*
X91027595Y-69731890D01*
X90918375Y-69723000D01*
X90918375Y-69687440D01*
X91174915Y-69632830D01*
X91192695Y-69644260D01*
X91188885Y-69844920D01*
X91188885Y-70625970D01*
X91284135Y-70633590D01*
G37*
G36*
X82113465Y-70164960D02*
G01*
X82058855Y-70191630D01*
X82020755Y-70274180D01*
X82281105Y-70274180D01*
X82358575Y-70173850D01*
X82408422Y-70214014D01*
X82498275Y-70289420D01*
X82462715Y-70309740D01*
X82338255Y-70309740D01*
X82304435Y-70404802D01*
X82262431Y-70487728D01*
X82209985Y-70559930D01*
X82321916Y-70604608D01*
X82390821Y-70649941D01*
X82423561Y-70692893D01*
X82426996Y-70730428D01*
X82407988Y-70759509D01*
X82373398Y-70777100D01*
X82330087Y-70780166D01*
X82284915Y-70765670D01*
X82236326Y-70727711D01*
X82177294Y-70688059D01*
X82108385Y-70647560D01*
X82039785Y-70685995D01*
X81959785Y-70719127D01*
X81867349Y-70747138D01*
X81761441Y-70770212D01*
X81641025Y-70788530D01*
X81633405Y-70770750D01*
X81749273Y-70735349D01*
X81849781Y-70695185D01*
X81935764Y-70649306D01*
X82008055Y-70596760D01*
X81929456Y-70562987D01*
X81844084Y-70530626D01*
X81752785Y-70500240D01*
X81755746Y-70495160D01*
X81906455Y-70495160D01*
X81997260Y-70509448D01*
X82076635Y-70525640D01*
X82119015Y-70461481D01*
X82152365Y-70389985D01*
X82176965Y-70309740D01*
X82004245Y-70309740D01*
X81954874Y-70406736D01*
X81906455Y-70495160D01*
X81755746Y-70495160D01*
X81783218Y-70448029D01*
X81816755Y-70382271D01*
X81850575Y-70309740D01*
X81668965Y-70309740D01*
X81658805Y-70274180D01*
X81865815Y-70274180D01*
X81903121Y-70187820D01*
X81928045Y-70120510D01*
X82113465Y-70164960D01*
G37*
G36*
X86070785Y-69994780D02*
G01*
X86066975Y-70197980D01*
X86066975Y-70625970D01*
X86153335Y-70634860D01*
X86153335Y-70672960D01*
X85909495Y-70686930D01*
X85900605Y-70559930D01*
X85832166Y-70628933D01*
X85751027Y-70675923D01*
X85660575Y-70693280D01*
X85578223Y-70679786D01*
X85516112Y-70635813D01*
X85477338Y-70556120D01*
X85464995Y-70435470D01*
X85470075Y-70067170D01*
X85374825Y-70049390D01*
X85374825Y-70013830D01*
X85626285Y-69980810D01*
X85640255Y-69994780D01*
X85632635Y-70197980D01*
X85632635Y-70444360D01*
X85645429Y-70532554D01*
X85682494Y-70579262D01*
X85741855Y-70592950D01*
X85824405Y-70573106D01*
X85899335Y-70518020D01*
X85901875Y-70065900D01*
X85811705Y-70049390D01*
X85811705Y-70016370D01*
X86056815Y-69980810D01*
X86070785Y-69994780D01*
G37*
G36*
X84298382Y-69716603D02*
G01*
X84380321Y-69741250D01*
X84451535Y-69778880D01*
X84442645Y-69978270D01*
X84371525Y-69978270D01*
X84318185Y-69782690D01*
X84222935Y-69763640D01*
X84124204Y-69781843D01*
X84057929Y-69834760D01*
X84033705Y-69919850D01*
X84050685Y-69996756D01*
X84100121Y-70054188D01*
X84179755Y-70098920D01*
X84243255Y-70125590D01*
X84342112Y-70174277D01*
X84414756Y-70224914D01*
X84463625Y-70280672D01*
X84491159Y-70344721D01*
X84499795Y-70420230D01*
X84489088Y-70498506D01*
X84457744Y-70565951D01*
X84406926Y-70621049D01*
X84337799Y-70662283D01*
X84251528Y-70688135D01*
X84149275Y-70697090D01*
X84044147Y-70687824D01*
X83945793Y-70661906D01*
X83863525Y-70622160D01*
X83871145Y-70411340D01*
X83942265Y-70411340D01*
X83995605Y-70615810D01*
X84060375Y-70635654D01*
X84132765Y-70641210D01*
X84219958Y-70630038D01*
X84285482Y-70597554D01*
X84326718Y-70545305D01*
X84341045Y-70474840D01*
X84325711Y-70399016D01*
X84275946Y-70342384D01*
X84186105Y-70294500D01*
X84127685Y-70269100D01*
X84040085Y-70225260D01*
X83970042Y-70175933D01*
X83918653Y-70118681D01*
X83887015Y-70051066D01*
X83876225Y-69970650D01*
X83892024Y-69878936D01*
X83936779Y-69805692D01*
X84006527Y-69752017D01*
X84097307Y-69719007D01*
X84205155Y-69707760D01*
X84298382Y-69716603D01*
G37*
G36*
X79573465Y-69616320D02*
G01*
X79526475Y-69654420D01*
X79525564Y-69777528D01*
X79524264Y-69892945D01*
X79520919Y-70000812D01*
X79513869Y-70101272D01*
X79501457Y-70194464D01*
X79482025Y-70280530D01*
X79699195Y-70280530D01*
X79789365Y-70163690D01*
X79847944Y-70209727D01*
X79953195Y-70295770D01*
X79916365Y-70316090D01*
X79470595Y-70316090D01*
X79432495Y-70406260D01*
X79580293Y-70435884D01*
X79698366Y-70473070D01*
X79789266Y-70515540D01*
X79855546Y-70561012D01*
X79899760Y-70607207D01*
X79924461Y-70651846D01*
X79932203Y-70692649D01*
X79925537Y-70727335D01*
X79907019Y-70753625D01*
X79879200Y-70769239D01*
X79844634Y-70771897D01*
X79805875Y-70759320D01*
X79762776Y-70703318D01*
X79700353Y-70638660D01*
X79620618Y-70569491D01*
X79525581Y-70499956D01*
X79417255Y-70434200D01*
X79376434Y-70489765D01*
X79326668Y-70541297D01*
X79266991Y-70588929D01*
X79196434Y-70632796D01*
X79114030Y-70673032D01*
X79018812Y-70709770D01*
X78909813Y-70743145D01*
X78786065Y-70773290D01*
X78777175Y-70754240D01*
X78904282Y-70704177D01*
X79011351Y-70650604D01*
X79100114Y-70593120D01*
X79172304Y-70531327D01*
X79229654Y-70464824D01*
X79273897Y-70393212D01*
X79306765Y-70316090D01*
X78791145Y-70316090D01*
X78780985Y-70280530D01*
X79318195Y-70280530D01*
X79336371Y-70201560D01*
X79348216Y-70116859D01*
X79355018Y-70026138D01*
X79358065Y-69929107D01*
X79358646Y-69825478D01*
X79358050Y-69714962D01*
X79357565Y-69597270D01*
X79573465Y-69616320D01*
G37*
G36*
X88683651Y-70446741D02*
G01*
X88714925Y-70523100D01*
X88683651Y-70597236D01*
X88605705Y-70628510D01*
X88528870Y-70597236D01*
X88497755Y-70523100D01*
X88528870Y-70446741D01*
X88605705Y-70415150D01*
X88683651Y-70446741D01*
G37*
G36*
X87767505Y-70330060D02*
G01*
X87781008Y-70433733D01*
X87813347Y-70512351D01*
X87861414Y-70567072D01*
X87922100Y-70599056D01*
X87992295Y-70609460D01*
X88072446Y-70597371D01*
X88133971Y-70563552D01*
X88182795Y-70511670D01*
X88208195Y-70529450D01*
X88161780Y-70598983D01*
X88099769Y-70650418D01*
X88023708Y-70682326D01*
X87935145Y-70693280D01*
X87840418Y-70682614D01*
X87757298Y-70651135D01*
X87688289Y-70599618D01*
X87635895Y-70528839D01*
X87602623Y-70439574D01*
X87590975Y-70332600D01*
X87597162Y-70283070D01*
X87767505Y-70283070D01*
X87984675Y-70283070D01*
X88042778Y-70260369D01*
X88057065Y-70189090D01*
X88040038Y-70099579D01*
X87993659Y-70041111D01*
X87924985Y-70020180D01*
X87867696Y-70035182D01*
X87819099Y-70082092D01*
X87784075Y-70163769D01*
X87767505Y-70283070D01*
X87597162Y-70283070D01*
X87604216Y-70226602D01*
X87641022Y-70137820D01*
X87697020Y-70067170D01*
X87767834Y-70015570D01*
X87849091Y-69983938D01*
X87936415Y-69973190D01*
X88032285Y-69986754D01*
X88109927Y-70025006D01*
X88167575Y-70084290D01*
X88203460Y-70160947D01*
X88215815Y-70251320D01*
X88206925Y-70330060D01*
X87767505Y-70330060D01*
G37*
G36*
X83622860Y-69644895D02*
G01*
X83726365Y-69726810D01*
X83690805Y-69747130D01*
X83095175Y-69747130D01*
X83248845Y-69824600D01*
X83199315Y-69842380D01*
X83125953Y-69892049D01*
X83036279Y-69943504D01*
X82937318Y-69993292D01*
X82836095Y-70037960D01*
X82918286Y-70033633D01*
X83010179Y-70028317D01*
X83110256Y-70022085D01*
X83217001Y-70015006D01*
X83328896Y-70007151D01*
X83444425Y-69998590D01*
X83391273Y-69941440D01*
X83335864Y-69888523D01*
X83281865Y-69842380D01*
X83293295Y-69832220D01*
X83427056Y-69869354D01*
X83529302Y-69915776D01*
X83602957Y-69967746D01*
X83650947Y-70021521D01*
X83676200Y-70073361D01*
X83681641Y-70119524D01*
X83670195Y-70156269D01*
X83644790Y-70179855D01*
X83608352Y-70186539D01*
X83563805Y-70172580D01*
X83525387Y-70103682D01*
X83473635Y-70032880D01*
X83396868Y-70051371D01*
X83311571Y-70070862D01*
X83218076Y-70091263D01*
X83116717Y-70112486D01*
X83007826Y-70134443D01*
X82891738Y-70157044D01*
X82768785Y-70180200D01*
X82737035Y-70208140D01*
X82668455Y-70040500D01*
X82715445Y-70027800D01*
X82788627Y-69989710D01*
X82865346Y-69935222D01*
X82939382Y-69871712D01*
X83004517Y-69806556D01*
X83054535Y-69747130D01*
X82616385Y-69747130D01*
X82606225Y-69711570D01*
X83474905Y-69711570D01*
X83565075Y-69601080D01*
X83622860Y-69644895D01*
G37*
G36*
X94300385Y-69644260D02*
G01*
X94295305Y-69846190D01*
X94295305Y-70314820D01*
X94562005Y-70051930D01*
X94440085Y-70034150D01*
X94440085Y-69993510D01*
X94767745Y-69993510D01*
X94767745Y-70034150D01*
X94640745Y-70048120D01*
X94483265Y-70197980D01*
X94716945Y-70623430D01*
X94803305Y-70633590D01*
X94803305Y-70672960D01*
X94562005Y-70672960D01*
X94367695Y-70305930D01*
X94295305Y-70374510D01*
X94295728Y-70456260D01*
X94296998Y-70543373D01*
X94299115Y-70623430D01*
X94389285Y-70633590D01*
X94389285Y-70672960D01*
X94032415Y-70672960D01*
X94032415Y-70633590D01*
X94127665Y-70622160D01*
X94128888Y-70541021D01*
X94129829Y-70453956D01*
X94130205Y-70374510D01*
X94130205Y-69730620D01*
X94027335Y-69723000D01*
X94027335Y-69687440D01*
X94282605Y-69632830D01*
X94300385Y-69644260D01*
G37*
G36*
X80804095Y-69651880D02*
G01*
X80749485Y-69676010D01*
X80727101Y-69738081D01*
X80699955Y-69810630D01*
X80952685Y-69810630D01*
X81032695Y-69700140D01*
X81086511Y-69744114D01*
X81181285Y-69827140D01*
X81145725Y-69847460D01*
X80685985Y-69847460D01*
X80649672Y-69942616D01*
X80613924Y-70034667D01*
X80581845Y-70115430D01*
X80724085Y-70115430D01*
X80724085Y-69918580D01*
X80918395Y-69936360D01*
X80871405Y-69971920D01*
X80871405Y-70115430D01*
X80928555Y-70115430D01*
X81003485Y-70015100D01*
X81052221Y-70055264D01*
X81138105Y-70130670D01*
X81103815Y-70150990D01*
X80871405Y-70150990D01*
X80871405Y-70341490D01*
X80989515Y-70341490D01*
X81066985Y-70237350D01*
X81117467Y-70279101D01*
X81207955Y-70358000D01*
X81172395Y-70378320D01*
X80871405Y-70378320D01*
X80871405Y-70572630D01*
X80832035Y-70596601D01*
X80750755Y-70612000D01*
X80724085Y-70612000D01*
X80724085Y-70378320D01*
X80374835Y-70378320D01*
X80364675Y-70341490D01*
X80724085Y-70341490D01*
X80724085Y-70150990D01*
X80576765Y-70150990D01*
X80518345Y-70215760D01*
X80381185Y-70123050D01*
X80431985Y-70092570D01*
X80464205Y-70020274D01*
X80498401Y-69936689D01*
X80532315Y-69847460D01*
X80387535Y-69847460D01*
X80377375Y-69810630D01*
X80545015Y-69810630D01*
X80574742Y-69728174D01*
X80599108Y-69654749D01*
X80616135Y-69596000D01*
X80804095Y-69651880D01*
G37*
G36*
X83284405Y-70158610D02*
G01*
X83238685Y-70195440D01*
X83238685Y-70358000D01*
X83410135Y-70358000D01*
X83500305Y-70246240D01*
X83558090Y-70290214D01*
X83661595Y-70373240D01*
X83624765Y-70393560D01*
X83238685Y-70393560D01*
X83238685Y-70681850D01*
X83500305Y-70681850D01*
X83593015Y-70566280D01*
X83652229Y-70611841D01*
X83758115Y-70698360D01*
X83721285Y-70718680D01*
X82584635Y-70718680D01*
X82574475Y-70681850D01*
X83081205Y-70681850D01*
X83081205Y-70393560D01*
X82704015Y-70393560D01*
X82693855Y-70358000D01*
X83081205Y-70358000D01*
X83081205Y-70142100D01*
X83284405Y-70158610D01*
G37*
G36*
X78209485Y-70117970D02*
G01*
X78157415Y-70138290D01*
X78110989Y-70209245D01*
X78053557Y-70286410D01*
X77987870Y-70366255D01*
X77916679Y-70445254D01*
X77842737Y-70519878D01*
X77768795Y-70586600D01*
X77848676Y-70583960D01*
X77938364Y-70579874D01*
X78035812Y-70574376D01*
X78138976Y-70567503D01*
X78245809Y-70559289D01*
X78354265Y-70549770D01*
X78308780Y-70468584D01*
X78258780Y-70392196D01*
X78208215Y-70323710D01*
X78222185Y-70316090D01*
X78339702Y-70374061D01*
X78429986Y-70436640D01*
X78495526Y-70501005D01*
X78538813Y-70564334D01*
X78562337Y-70623805D01*
X78568589Y-70676594D01*
X78560058Y-70719880D01*
X78539237Y-70750840D01*
X78508613Y-70766652D01*
X78470679Y-70764493D01*
X78427925Y-70741540D01*
X78405065Y-70662006D01*
X78370775Y-70581520D01*
X78302158Y-70602310D01*
X78226010Y-70624211D01*
X78142575Y-70646934D01*
X78052098Y-70670190D01*
X77954822Y-70693691D01*
X77850993Y-70717147D01*
X77740855Y-70740270D01*
X77702755Y-70773290D01*
X77620205Y-70591680D01*
X77662909Y-70583108D01*
X77717995Y-70561200D01*
X77767737Y-70499546D01*
X77822558Y-70413410D01*
X77878015Y-70311963D01*
X77929662Y-70204377D01*
X77973053Y-70099825D01*
X78003745Y-70007480D01*
X78209485Y-70117970D01*
G37*
G36*
X82079033Y-69617387D02*
G01*
X82139657Y-69658941D01*
X82155903Y-69707201D01*
X82138194Y-69749975D01*
X82096955Y-69775070D01*
X82254435Y-69775070D01*
X82326825Y-69679820D01*
X82373815Y-69718079D01*
X82458905Y-69791580D01*
X82423345Y-69811900D01*
X81746435Y-69811900D01*
X81737545Y-69775070D01*
X82060125Y-69775070D01*
X82018215Y-69754750D01*
X81997895Y-69671247D01*
X81954715Y-69601080D01*
X81963605Y-69594730D01*
X82079033Y-69617387D01*
G37*
G36*
X93717455Y-69730620D02*
G01*
X93712375Y-69935090D01*
X93712375Y-70374510D01*
X93712798Y-70453250D01*
X93714068Y-70531990D01*
X93716185Y-70610730D01*
X93897795Y-70633590D01*
X93897795Y-70672960D01*
X93352965Y-70672960D01*
X93352965Y-70633590D01*
X93540925Y-70610730D01*
X93543042Y-70531990D01*
X93544312Y-70453250D01*
X93544735Y-70374510D01*
X93544735Y-69823330D01*
X93379635Y-69839840D01*
X93379635Y-69792850D01*
X93699675Y-69716650D01*
X93717455Y-69730620D01*
G37*
G36*
X78054545Y-69716650D02*
G01*
X78001205Y-69735700D01*
X77949681Y-69827639D01*
X77894287Y-69913044D01*
X77835202Y-69992049D01*
X77772605Y-70064789D01*
X77706674Y-70131397D01*
X77637588Y-70192007D01*
X77565526Y-70246753D01*
X77490665Y-70295770D01*
X77476695Y-70283070D01*
X77529581Y-70222303D01*
X77582839Y-70153173D01*
X77635532Y-70076839D01*
X77686721Y-69994462D01*
X77735470Y-69907205D01*
X77780840Y-69816226D01*
X77821894Y-69722687D01*
X77857695Y-69627750D01*
X78054545Y-69716650D01*
G37*
G36*
X93108173Y-70513893D02*
G01*
X93138335Y-70589140D01*
X93108173Y-70662165D01*
X93034195Y-70693280D01*
X92959106Y-70662165D01*
X92928785Y-70589140D01*
X92959106Y-70513893D01*
X93034195Y-70482460D01*
X93108173Y-70513893D01*
G37*
G36*
X79060640Y-69698881D02*
G01*
X79156102Y-69728273D01*
X79224910Y-69766565D01*
X79269661Y-69809787D01*
X79292954Y-69853969D01*
X79297387Y-69895141D01*
X79285560Y-69929333D01*
X79260070Y-69952575D01*
X79223515Y-69960898D01*
X79178495Y-69950330D01*
X79130969Y-69880758D01*
X79067846Y-69810947D01*
X78996865Y-69746376D01*
X78925765Y-69692520D01*
X78935925Y-69682360D01*
X79060640Y-69698881D01*
G37*
G36*
X86777223Y-69991446D02*
G01*
X86820085Y-70054470D01*
X86797225Y-70124161D01*
X86732455Y-70150990D01*
X86678480Y-70134321D01*
X86632125Y-70090030D01*
X86618155Y-70074790D01*
X86570742Y-70122062D01*
X86533488Y-70182881D01*
X86503855Y-70261480D01*
X86503855Y-70374510D01*
X86504231Y-70452121D01*
X86505172Y-70538199D01*
X86506395Y-70618350D01*
X86623235Y-70633590D01*
X86623235Y-70672960D01*
X86240965Y-70672960D01*
X86240965Y-70633590D01*
X86333675Y-70622160D01*
X86334898Y-70541303D01*
X86335839Y-70453673D01*
X86336215Y-70374510D01*
X86336215Y-70283070D01*
X86335104Y-70180359D01*
X86331135Y-70093840D01*
X86230805Y-70083680D01*
X86230805Y-70051930D01*
X86474645Y-69974460D01*
X86492425Y-69985890D01*
X86503855Y-70162420D01*
X86557336Y-70059174D01*
X86628597Y-69995156D01*
X86705785Y-69973190D01*
X86777223Y-69991446D01*
G37*
G36*
X92033435Y-70096380D02*
G01*
X91360335Y-70096380D01*
X91360335Y-70029070D01*
X92033435Y-70029070D01*
X92033435Y-70096380D01*
G37*
G36*
X88683651Y-69972872D02*
G01*
X88714925Y-70048120D01*
X88683651Y-70122256D01*
X88605705Y-70153530D01*
X88528870Y-70122256D01*
X88497755Y-70048120D01*
X88528870Y-69972872D01*
X88605705Y-69941440D01*
X88683651Y-69972872D01*
G37*
G36*
X89891421Y-70426263D02*
G01*
X89892552Y-70522267D01*
X89894755Y-70617080D01*
X90017945Y-70628510D01*
X90017945Y-70672960D01*
X89593765Y-70672960D01*
X89593765Y-70628510D01*
X89714415Y-70617080D01*
X89715883Y-70522326D01*
X89716638Y-70426739D01*
X89716915Y-70330437D01*
X89716955Y-70233540D01*
X89716955Y-70182740D01*
X89890945Y-70182740D01*
X89983655Y-70182740D01*
X90077278Y-70166607D01*
X90142088Y-70122256D01*
X90179751Y-70055760D01*
X90191935Y-69973190D01*
X90179096Y-69891057D01*
X90140659Y-69830474D01*
X90076742Y-69792989D01*
X89987465Y-69780150D01*
X89894755Y-69780150D01*
X89892552Y-69876630D01*
X89891421Y-69974777D01*
X89891005Y-70076258D01*
X89890945Y-70182740D01*
X89716955Y-70182740D01*
X89716955Y-70171310D01*
X89716915Y-70075842D01*
X89716638Y-69980016D01*
X89715883Y-69883953D01*
X89714415Y-69787770D01*
X89593765Y-69776340D01*
X89593765Y-69730620D01*
X90023025Y-69730620D01*
X90141684Y-69741207D01*
X90236202Y-69772032D01*
X90305300Y-69821694D01*
X90347698Y-69888791D01*
X90362115Y-69971920D01*
X90347510Y-70050065D01*
X90301473Y-70118922D01*
X90220669Y-70173017D01*
X90101765Y-70206870D01*
X90188403Y-70229452D01*
X90247180Y-70269418D01*
X90285002Y-70327957D01*
X90308775Y-70406260D01*
X90360845Y-70619620D01*
X90472605Y-70628510D01*
X90472605Y-70672960D01*
X90412280Y-70685501D01*
X90340525Y-70689470D01*
X90253459Y-70678699D01*
X90196874Y-70642245D01*
X90169075Y-70573900D01*
X90123355Y-70378320D01*
X90095039Y-70292948D01*
X90044991Y-70244829D01*
X89960795Y-70229730D01*
X89890945Y-70229730D01*
X89891005Y-70328830D01*
X89891421Y-70426263D01*
G37*
G36*
X92033435Y-70389750D02*
G01*
X91360335Y-70389750D01*
X91360335Y-70321170D01*
X92033435Y-70321170D01*
X92033435Y-70389750D01*
G37*
G36*
X82168639Y-69904187D02*
G01*
X82187125Y-69822060D01*
X82370005Y-69869050D01*
X82323015Y-69895720D01*
X82273344Y-69953105D01*
X82212666Y-70014441D01*
X82147755Y-70073520D01*
X82264595Y-70073520D01*
X82339525Y-69979540D01*
X82389055Y-70017005D01*
X82476685Y-70088760D01*
X82442395Y-70109080D01*
X81732465Y-70109080D01*
X81728655Y-70095110D01*
X81664679Y-70145434D01*
X81586415Y-70204330D01*
X81586415Y-70604380D01*
X81580978Y-70674151D01*
X81557205Y-70727253D01*
X81503905Y-70763686D01*
X81409885Y-70783450D01*
X81401312Y-70718839D01*
X81383215Y-70674230D01*
X81348290Y-70643115D01*
X81286695Y-70623430D01*
X81286695Y-70604380D01*
X81344480Y-70608190D01*
X81421315Y-70612000D01*
X81446715Y-70590410D01*
X81446715Y-70302120D01*
X81378135Y-70347840D01*
X81347655Y-70385940D01*
X81284155Y-70222110D01*
X81351147Y-70201790D01*
X81446715Y-70170040D01*
X81446715Y-69930010D01*
X81301935Y-69930010D01*
X81291775Y-69893180D01*
X81446715Y-69893180D01*
X81446715Y-69594730D01*
X81633405Y-69612510D01*
X81586415Y-69648070D01*
X81586415Y-69893180D01*
X81592765Y-69893180D01*
X81656265Y-69795390D01*
X81696587Y-69835395D01*
X81765485Y-69909690D01*
X81733735Y-69930010D01*
X81586415Y-69930010D01*
X81586415Y-70123050D01*
X81653884Y-70099555D01*
X81722305Y-70076060D01*
X81722305Y-70073520D01*
X81728655Y-70073520D01*
X81742625Y-70068440D01*
X81742625Y-70073520D01*
X82114735Y-70073520D01*
X82143381Y-69992240D01*
X82168639Y-69904187D01*
G37*
G36*
X81950350Y-69873397D02*
G01*
X82005737Y-69927255D01*
X82024758Y-69980092D01*
X82015431Y-70024553D01*
X81985776Y-70053285D01*
X81943814Y-70058935D01*
X81897565Y-70034150D01*
X81887734Y-69963124D01*
X81865486Y-69892663D01*
X81837875Y-69830950D01*
X81850575Y-69825870D01*
X81950350Y-69873397D01*
G37*
G36*
X80201373Y-69668665D02*
G01*
X80276985Y-69724488D01*
X80318695Y-69782782D01*
X80331814Y-69837459D01*
X80321656Y-69882432D01*
X80293535Y-69911615D01*
X80252764Y-69918920D01*
X80204655Y-69898260D01*
X80174410Y-69804139D01*
X80126950Y-69710018D01*
X80073845Y-69627750D01*
X80086545Y-69621400D01*
X80201373Y-69668665D01*
G37*
G36*
X78992782Y-69967947D02*
G01*
X79088061Y-69994445D01*
X79156960Y-70030802D01*
X79201985Y-70072921D01*
X79225644Y-70116700D01*
X79230443Y-70158041D01*
X79218890Y-70192844D01*
X79193491Y-70217010D01*
X79156754Y-70226438D01*
X79111185Y-70217030D01*
X79063679Y-70147934D01*
X79000695Y-70079552D01*
X78930091Y-70017362D01*
X78859725Y-69966840D01*
X78868615Y-69955410D01*
X78992782Y-69967947D01*
G37*
G36*
X92738285Y-69867780D02*
G01*
X92296325Y-69867780D01*
X92279815Y-70121780D01*
X92356968Y-70104635D01*
X92439835Y-70098920D01*
X92533874Y-70107504D01*
X92614295Y-70132881D01*
X92679548Y-70174485D01*
X92728078Y-70231753D01*
X92758335Y-70304119D01*
X92768765Y-70391020D01*
X92757076Y-70478674D01*
X92723515Y-70552921D01*
X92670340Y-70612635D01*
X92599808Y-70656685D01*
X92514177Y-70683943D01*
X92415705Y-70693280D01*
X92325190Y-70684024D01*
X92250889Y-70657029D01*
X92193780Y-70613453D01*
X92154837Y-70554454D01*
X92135035Y-70481190D01*
X92209965Y-70430390D01*
X92264099Y-70451821D01*
X92292515Y-70525640D01*
X92314105Y-70634860D01*
X92390305Y-70646290D01*
X92474363Y-70629780D01*
X92537943Y-70581838D01*
X92578186Y-70504844D01*
X92592235Y-70401180D01*
X92578007Y-70301445D01*
X92537466Y-70228142D01*
X92473827Y-70182938D01*
X92390305Y-70167500D01*
X92320773Y-70173056D01*
X92253145Y-70189090D01*
X92216315Y-70171310D01*
X92246795Y-69730620D01*
X92738285Y-69730620D01*
X92738285Y-69867780D01*
G37*
%TO.C,SW1*%
X93444000Y-64484000D02*
X94704000Y-64484000D01*
X90884000Y-64484000D02*
X90204000Y-63734000D01*
X90904000Y-60484000D02*
X92044000Y-60484000D01*
X88364000Y-60484000D02*
X89504000Y-60484000D01*
X86969000Y-64484000D02*
X85704000Y-64484000D01*
X90884000Y-64484000D02*
X92024000Y-64484000D01*
X94704000Y-60484000D02*
X93444000Y-60484000D01*
X87554000Y-67354000D02*
X86184000Y-67354000D01*
X90204000Y-63734000D02*
X89704000Y-64234000D01*
X86184000Y-67354000D02*
X86184000Y-65984000D01*
X85704000Y-60484000D02*
X86964000Y-60484000D01*
X88364000Y-64484000D02*
X89504000Y-64484000D01*
X85704000Y-64484000D02*
X85704000Y-60484000D01*
X94704000Y-64484000D02*
X94704000Y-60484000D01*
%TO.C,J2*%
X110828000Y-62484000D02*
X113488000Y-62484000D01*
X110828000Y-65084000D02*
X113488000Y-65084000D01*
X110828000Y-59884000D02*
X112158000Y-59884000D01*
X110828000Y-61214000D02*
X110828000Y-59884000D01*
X110828000Y-62484000D02*
X110828000Y-65084000D01*
X113488000Y-62484000D02*
X113488000Y-65084000D01*
%TO.C,J1*%
X125298999Y-66954000D02*
X123838999Y-66954000D01*
X119788999Y-58014000D02*
X121588999Y-58014000D01*
X125298999Y-58014000D02*
X123838999Y-58014000D01*
X119788999Y-66954000D02*
X121588999Y-66954000D01*
X125298999Y-58014000D02*
X125298999Y-66954000D01*
%TO.C,kibuzzard-6262FE8D*%
G36*
X91642275Y-77296645D02*
G01*
X91510195Y-77310615D01*
X91746415Y-78010385D01*
X91959775Y-77314425D01*
X91828965Y-77296645D01*
X91828965Y-77252195D01*
X92142655Y-77252195D01*
X92142655Y-77294105D01*
X92029625Y-77313155D01*
X91733715Y-78199615D01*
X91641005Y-78199615D01*
X91319695Y-77308075D01*
X91223175Y-77297915D01*
X91223175Y-77252195D01*
X91642275Y-77252195D01*
X91642275Y-77296645D01*
G37*
G36*
X88449307Y-77237284D02*
G01*
X88540276Y-77260756D01*
X88622215Y-77299185D01*
X88619675Y-77518895D01*
X88544745Y-77518895D01*
X88491405Y-77308075D01*
X88432667Y-77287596D01*
X88368215Y-77281405D01*
X88289942Y-77290558D01*
X88219444Y-77317928D01*
X88158276Y-77363381D01*
X88107995Y-77426785D01*
X88070154Y-77508006D01*
X88046309Y-77606910D01*
X88038015Y-77723365D01*
X88046020Y-77835092D01*
X88069087Y-77932311D01*
X88105795Y-78014047D01*
X88154722Y-78079320D01*
X88214445Y-78127155D01*
X88283543Y-78156572D01*
X88360595Y-78166595D01*
X88420285Y-78162785D01*
X88476165Y-78151355D01*
X88476165Y-78068805D01*
X88475742Y-77977130D01*
X88474472Y-77886584D01*
X88472355Y-77795755D01*
X88332655Y-77781785D01*
X88332655Y-77737335D01*
X88731435Y-77737335D01*
X88731435Y-77781785D01*
X88647615Y-77791945D01*
X88646392Y-77881927D01*
X88645451Y-77975013D01*
X88645075Y-78072615D01*
X88645075Y-78134845D01*
X88572407Y-78171516D01*
X88499025Y-78197710D01*
X88421833Y-78213426D01*
X88337735Y-78218665D01*
X88244035Y-78211629D01*
X88158228Y-78190972D01*
X88081148Y-78157376D01*
X88013632Y-78111518D01*
X87956517Y-78054079D01*
X87910639Y-77985738D01*
X87876833Y-77907174D01*
X87855936Y-77819066D01*
X87848785Y-77722095D01*
X87856114Y-77626592D01*
X87877502Y-77539546D01*
X87912050Y-77461698D01*
X87958859Y-77393790D01*
X88017030Y-77336566D01*
X88085664Y-77290765D01*
X88163862Y-77257132D01*
X88250725Y-77236408D01*
X88345355Y-77229335D01*
X88449307Y-77237284D01*
G37*
G36*
X91074903Y-78035468D02*
G01*
X91105065Y-78110715D01*
X91074903Y-78183740D01*
X91000925Y-78214855D01*
X90925836Y-78183740D01*
X90895515Y-78110715D01*
X90925836Y-78035468D01*
X91000925Y-78004035D01*
X91074903Y-78035468D01*
G37*
G36*
X92559215Y-77879575D02*
G01*
X92207425Y-77879575D01*
X92207425Y-77793215D01*
X92559215Y-77793215D01*
X92559215Y-77879575D01*
G37*
G36*
X89963533Y-77405587D02*
G01*
X89962065Y-77309345D01*
X89841415Y-77297915D01*
X89841415Y-77252195D01*
X90250355Y-77252195D01*
X90355777Y-77260301D01*
X90449606Y-77284183D01*
X90531082Y-77323186D01*
X90599446Y-77376655D01*
X90653940Y-77443935D01*
X90693803Y-77524372D01*
X90718278Y-77617310D01*
X90726605Y-77722095D01*
X90719523Y-77816232D01*
X90698738Y-77901055D01*
X90664939Y-77976095D01*
X90618817Y-78040881D01*
X90561061Y-78094942D01*
X90492361Y-78137808D01*
X90413406Y-78169010D01*
X90324888Y-78188075D01*
X90227495Y-78194535D01*
X89841415Y-78194535D01*
X89841415Y-78150085D01*
X89962065Y-78138655D01*
X89963533Y-78043286D01*
X89964287Y-77945298D01*
X89964565Y-77843975D01*
X89964605Y-77738605D01*
X90141135Y-77738605D01*
X90141195Y-77844968D01*
X90141611Y-77947520D01*
X90142742Y-78047215D01*
X90144945Y-78145005D01*
X90222415Y-78145005D01*
X90303984Y-78135578D01*
X90374223Y-78107845D01*
X90432687Y-78062629D01*
X90478933Y-78000751D01*
X90512516Y-77923033D01*
X90532991Y-77830297D01*
X90539915Y-77723365D01*
X90533017Y-77614034D01*
X90512723Y-77520365D01*
X90479633Y-77442780D01*
X90434346Y-77381702D01*
X90377462Y-77337552D01*
X90309582Y-77310752D01*
X90231305Y-77301725D01*
X90144945Y-77301725D01*
X90142742Y-77398622D01*
X90141611Y-77496829D01*
X90141195Y-77596226D01*
X90141135Y-77696695D01*
X90141135Y-77738605D01*
X89964605Y-77738605D01*
X89964605Y-77696695D01*
X89964565Y-77599024D01*
X89964287Y-77502067D01*
X89963533Y-77405587D01*
G37*
G36*
X91074903Y-77522387D02*
G01*
X91105065Y-77597635D01*
X91074903Y-77669549D01*
X91000925Y-77700505D01*
X90925836Y-77669549D01*
X90895515Y-77597635D01*
X90925836Y-77522387D01*
X91000925Y-77490955D01*
X91074903Y-77522387D01*
G37*
G36*
X89563285Y-77943075D02*
G01*
X89559475Y-77315695D01*
X89395645Y-77297915D01*
X89395645Y-77252195D01*
X89738545Y-77252195D01*
X89738545Y-77297915D01*
X89621705Y-77314425D01*
X89615355Y-78199615D01*
X89527725Y-78199615D01*
X88966385Y-77409675D01*
X88970195Y-78133575D01*
X89132755Y-78150085D01*
X89132755Y-78194535D01*
X88789855Y-78194535D01*
X88789855Y-78150085D01*
X88907965Y-78134845D01*
X88914315Y-77336015D01*
X88893995Y-77309345D01*
X88797475Y-77297915D01*
X88797475Y-77252195D01*
X89065445Y-77252195D01*
X89563285Y-77943075D01*
G37*
%TO.C,kibuzzard-62641C40*%
G36*
X92911792Y-53256656D02*
G01*
X92963068Y-53275230D01*
X93032283Y-53344445D01*
X93054155Y-53403218D01*
X93067279Y-53471163D01*
X93071653Y-53548280D01*
X93063751Y-53628925D01*
X93040044Y-53707453D01*
X93000533Y-53783865D01*
X92952273Y-53807995D01*
X92910681Y-53795930D01*
X92851943Y-53759735D01*
X92830353Y-53714650D01*
X92861468Y-53630195D01*
X92892583Y-53533675D01*
X92884963Y-53475572D01*
X92862103Y-53456205D01*
X92841148Y-53477477D01*
X92826543Y-53541295D01*
X92805906Y-53620987D01*
X92766853Y-53700045D01*
X92695098Y-53761005D01*
X92641599Y-53779102D01*
X92578893Y-53785135D01*
X92506655Y-53774111D01*
X92450471Y-53741041D01*
X92410339Y-53685923D01*
X92386259Y-53608757D01*
X92378233Y-53509545D01*
X92389028Y-53418105D01*
X92421413Y-53324125D01*
X92472213Y-53279675D01*
X92547143Y-53307615D01*
X92591593Y-53364765D01*
X92572543Y-53421280D01*
X92553493Y-53510815D01*
X92581433Y-53585745D01*
X92612865Y-53564155D01*
X92630963Y-53499385D01*
X92647473Y-53416835D01*
X92679223Y-53336825D01*
X92740818Y-53275230D01*
X92790189Y-53256656D01*
X92850673Y-53250465D01*
X92911792Y-53256656D01*
G37*
G36*
X92390933Y-54632225D02*
G01*
X92398553Y-54558565D01*
X92425223Y-54524910D01*
X92458878Y-54513480D01*
X92502693Y-54511575D01*
X92947193Y-54511575D01*
X92991008Y-54513480D01*
X93024663Y-54524275D01*
X93049428Y-54554914D01*
X93057683Y-54611270D01*
X93040538Y-54703980D01*
X92990373Y-54731285D01*
X93040856Y-54793991D01*
X93057683Y-54888130D01*
X93046535Y-54959603D01*
X93013092Y-55027548D01*
X92957353Y-55091965D01*
X92886868Y-55144176D01*
X92809186Y-55175503D01*
X92724308Y-55185945D01*
X92639500Y-55175432D01*
X92562030Y-55143894D01*
X92491898Y-55091330D01*
X92436512Y-55026207D01*
X92403280Y-54956992D01*
X92392203Y-54883685D01*
X92398471Y-54851300D01*
X92613183Y-54851300D01*
X92648743Y-54932580D01*
X92726213Y-54963695D01*
X92801778Y-54930675D01*
X92835433Y-54850665D01*
X92801143Y-54772560D01*
X92725578Y-54741445D01*
X92648743Y-54771290D01*
X92613183Y-54851300D01*
X92398471Y-54851300D01*
X92407443Y-54804945D01*
X92436018Y-54755415D01*
X92462053Y-54732555D01*
X92408713Y-54703662D01*
X92390933Y-54632225D01*
G37*
G36*
X92911792Y-53877686D02*
G01*
X92963068Y-53896260D01*
X93032283Y-53965475D01*
X93054155Y-54024248D01*
X93067279Y-54092193D01*
X93071653Y-54169310D01*
X93063751Y-54249955D01*
X93040044Y-54328483D01*
X93000533Y-54404895D01*
X92952273Y-54429025D01*
X92910681Y-54416960D01*
X92851943Y-54380765D01*
X92830353Y-54335680D01*
X92861468Y-54251225D01*
X92892583Y-54154705D01*
X92884963Y-54096602D01*
X92862103Y-54077235D01*
X92841148Y-54098507D01*
X92826543Y-54162325D01*
X92805906Y-54242017D01*
X92766853Y-54321075D01*
X92695098Y-54382035D01*
X92641599Y-54400132D01*
X92578893Y-54406165D01*
X92506655Y-54395141D01*
X92450471Y-54362071D01*
X92410339Y-54306953D01*
X92386259Y-54229787D01*
X92378233Y-54130575D01*
X92389028Y-54039135D01*
X92421413Y-53945155D01*
X92472213Y-53900705D01*
X92547143Y-53928645D01*
X92591593Y-53985795D01*
X92572543Y-54042310D01*
X92553493Y-54131845D01*
X92581433Y-54206775D01*
X92612865Y-54185185D01*
X92630963Y-54120415D01*
X92647473Y-54037865D01*
X92679223Y-53957855D01*
X92740818Y-53896260D01*
X92790189Y-53877686D01*
X92850673Y-53871495D01*
X92911792Y-53877686D01*
G37*
G36*
X92456973Y-55904130D02*
G01*
X92425223Y-55893335D01*
X92399505Y-55863173D01*
X92390933Y-55808245D01*
X92408078Y-55717440D01*
X92458243Y-55690135D01*
X92408713Y-55628064D01*
X92399216Y-55576470D01*
X92609373Y-55576470D01*
X92643663Y-55654575D01*
X92718593Y-55683785D01*
X92792888Y-55653940D01*
X92826543Y-55577740D01*
X92793523Y-55499000D01*
X92718593Y-55466615D01*
X92643028Y-55497095D01*
X92609373Y-55576470D01*
X92399216Y-55576470D01*
X92392203Y-55538370D01*
X92403069Y-55470566D01*
X92435665Y-55405161D01*
X92489993Y-55342155D01*
X92558714Y-55290649D01*
X92634491Y-55259746D01*
X92717323Y-55249445D01*
X92800155Y-55259676D01*
X92875932Y-55290367D01*
X92944653Y-55341520D01*
X92998981Y-55404244D01*
X93031577Y-55469649D01*
X93042443Y-55537735D01*
X93027838Y-55627588D01*
X92984023Y-55688865D01*
X93240563Y-55688865D01*
X93283743Y-55690770D01*
X93316128Y-55702200D01*
X93342163Y-55734585D01*
X93349783Y-55796815D01*
X93342163Y-55859680D01*
X93316763Y-55892700D01*
X93285013Y-55904130D01*
X93241833Y-55906035D01*
X92500153Y-55906035D01*
X92456973Y-55904130D01*
G37*
G36*
X92521743Y-55986045D02*
G01*
X92543333Y-55996205D01*
X93287553Y-56328945D01*
X93324383Y-56346090D01*
X93348513Y-56368315D01*
X93359943Y-56406415D01*
X93340893Y-56473725D01*
X93304698Y-56529923D01*
X93262153Y-56548655D01*
X93232546Y-56541035D01*
X93174206Y-56518175D01*
X93087131Y-56480075D01*
X92971323Y-56426735D01*
X92545873Y-56679465D01*
X92483643Y-56704865D01*
X92443003Y-56687720D01*
X92402363Y-56636285D01*
X92376963Y-56568975D01*
X92387123Y-56529605D01*
X92408078Y-56507380D01*
X92443003Y-56486425D01*
X92526188Y-56437530D01*
X92596109Y-56396255D01*
X92662784Y-56356250D01*
X92726213Y-56317515D01*
X92676842Y-56297195D01*
X92569368Y-56248935D01*
X92464752Y-56201151D01*
X92423953Y-56182260D01*
X92402363Y-56167655D01*
X92380773Y-56121300D01*
X92398553Y-56050815D01*
X92435065Y-55994618D01*
X92478563Y-55975885D01*
X92521743Y-55986045D01*
G37*
G36*
X92689242Y-56763991D02*
G01*
X92760503Y-56755665D01*
X92840584Y-56766460D01*
X92911492Y-56795458D01*
X92973228Y-56842660D01*
X93020853Y-56902985D01*
X93049428Y-56971353D01*
X93058953Y-57047765D01*
X93058953Y-57381775D01*
X93046888Y-57452260D01*
X93010693Y-57485915D01*
X92944653Y-57493535D01*
X92239803Y-57493535D01*
X92195353Y-57491630D01*
X92162333Y-57479565D01*
X92136615Y-57445910D01*
X92128043Y-57380505D01*
X92128043Y-57268745D01*
X92352833Y-57268745D01*
X92834163Y-57268745D01*
X92834163Y-57060465D01*
X92812573Y-57000458D01*
X92747803Y-56980455D01*
X92699543Y-56987440D01*
X92674143Y-57010935D01*
X92663983Y-57082055D01*
X92646203Y-57150635D01*
X92573178Y-57173495D01*
X92500153Y-57150000D01*
X92482373Y-57071895D01*
X92455703Y-57010935D01*
X92409983Y-57007125D01*
X92365533Y-57028080D01*
X92352833Y-57090945D01*
X92352833Y-57268745D01*
X92128043Y-57268745D01*
X92128043Y-57060465D01*
X92137074Y-56986805D01*
X92164167Y-56921612D01*
X92209323Y-56864885D01*
X92268025Y-56819024D01*
X92334065Y-56791507D01*
X92407443Y-56782335D01*
X92487770Y-56794400D01*
X92561113Y-56830595D01*
X92622779Y-56788967D01*
X92689242Y-56763991D01*
G37*
%TO.C,G\u002A\u002A\u002A*%
G36*
X110097265Y-46528624D02*
G01*
X110128139Y-46451746D01*
X110174475Y-46382555D01*
X110232421Y-46325425D01*
X110298127Y-46284733D01*
X110367742Y-46264855D01*
X110389498Y-46263603D01*
X110397916Y-46261302D01*
X110410917Y-46253724D01*
X110429554Y-46239859D01*
X110454876Y-46218696D01*
X110487934Y-46189223D01*
X110529777Y-46150430D01*
X110581456Y-46101307D01*
X110644020Y-46040841D01*
X110718521Y-45968022D01*
X110806008Y-45881839D01*
X110907532Y-45781281D01*
X111024142Y-45665337D01*
X111156890Y-45532997D01*
X111306824Y-45383249D01*
X111379411Y-45310684D01*
X112332399Y-44357765D01*
X112402353Y-44424985D01*
X112424669Y-44446357D01*
X112464270Y-44484206D01*
X112519210Y-44536674D01*
X112587542Y-44601904D01*
X112667323Y-44678039D01*
X112756604Y-44763223D01*
X112853441Y-44855597D01*
X112955888Y-44953306D01*
X113047187Y-45040369D01*
X113622065Y-45588533D01*
X113512145Y-45707752D01*
X113467637Y-45756521D01*
X113428410Y-45800418D01*
X113398790Y-45834541D01*
X113383346Y-45853644D01*
X113378390Y-45858722D01*
X113371507Y-45860285D01*
X113361156Y-45856928D01*
X113345795Y-45847248D01*
X113323885Y-45829839D01*
X113293882Y-45803298D01*
X113254247Y-45766220D01*
X113203437Y-45717201D01*
X113139913Y-45654836D01*
X113062132Y-45577720D01*
X112968553Y-45484449D01*
X112868545Y-45384527D01*
X112372623Y-44888737D01*
X111638694Y-45622666D01*
X110904765Y-46356594D01*
X112279682Y-46356594D01*
X112279682Y-46794984D01*
X110838399Y-46794984D01*
X111595519Y-47552190D01*
X112352638Y-48309397D01*
X112844371Y-47817795D01*
X113336105Y-47326192D01*
X113475296Y-47465858D01*
X113614486Y-47605524D01*
X112983669Y-48236447D01*
X112876384Y-48343556D01*
X112774456Y-48444940D01*
X112679458Y-48539058D01*
X112592964Y-48624371D01*
X112516545Y-48699339D01*
X112451774Y-48762420D01*
X112400223Y-48812075D01*
X112363466Y-48846765D01*
X112343074Y-48864947D01*
X112339481Y-48867369D01*
X112328429Y-48858168D01*
X112299887Y-48831401D01*
X112255123Y-48788317D01*
X112195405Y-48730166D01*
X112121999Y-48658198D01*
X112036174Y-48573664D01*
X111939196Y-48477813D01*
X111832333Y-48371895D01*
X111716853Y-48257161D01*
X111594023Y-48134860D01*
X111465110Y-48006243D01*
X111370887Y-47912078D01*
X111215719Y-47756929D01*
X111078175Y-47619506D01*
X110957116Y-47498725D01*
X110851404Y-47393499D01*
X110759899Y-47302746D01*
X110681461Y-47225380D01*
X110614952Y-47160318D01*
X110559232Y-47106474D01*
X110513161Y-47062763D01*
X110475601Y-47028103D01*
X110445413Y-47001407D01*
X110421456Y-46981591D01*
X110402592Y-46967572D01*
X110387681Y-46958264D01*
X110375584Y-46952582D01*
X110365162Y-46949443D01*
X110358322Y-46948188D01*
X110285450Y-46924615D01*
X110218256Y-46879550D01*
X110160775Y-46818020D01*
X110117047Y-46745052D01*
X110091110Y-46665672D01*
X110086036Y-46612322D01*
X110258909Y-46612322D01*
X110270829Y-46671762D01*
X110302793Y-46725059D01*
X110353365Y-46766625D01*
X110372695Y-46776298D01*
X110407139Y-46789827D01*
X110433404Y-46793361D01*
X110465080Y-46787592D01*
X110485166Y-46782016D01*
X110543381Y-46753728D01*
X110584327Y-46710662D01*
X110608016Y-46658000D01*
X110614458Y-46600924D01*
X110603664Y-46544614D01*
X110575645Y-46494252D01*
X110530412Y-46455019D01*
X110484438Y-46435808D01*
X110418028Y-46429910D01*
X110357554Y-46449781D01*
X110302517Y-46495588D01*
X110300953Y-46497355D01*
X110268472Y-46552323D01*
X110258909Y-46612322D01*
X110086036Y-46612322D01*
X110085702Y-46608813D01*
X110097265Y-46528624D01*
G37*
G36*
X114734281Y-45406208D02*
G01*
X114734644Y-45423389D01*
X114733321Y-45461770D01*
X114730620Y-45516670D01*
X114726848Y-45583408D01*
X114722314Y-45657303D01*
X114717323Y-45733674D01*
X114712186Y-45807838D01*
X114707208Y-45875115D01*
X114702697Y-45930823D01*
X114698962Y-45970282D01*
X114696309Y-45988809D01*
X114695943Y-45989586D01*
X114683422Y-45996247D01*
X114649542Y-46013723D01*
X114596642Y-46040821D01*
X114527064Y-46076347D01*
X114443147Y-46119108D01*
X114347233Y-46167909D01*
X114241661Y-46221557D01*
X114132873Y-46276777D01*
X113574923Y-46559841D01*
X114152799Y-45976111D01*
X114254780Y-45873372D01*
X114351134Y-45776831D01*
X114440266Y-45688054D01*
X114520580Y-45608605D01*
X114590478Y-45540049D01*
X114648365Y-45483950D01*
X114692644Y-45441873D01*
X114721718Y-45415384D01*
X114733991Y-45406045D01*
X114734281Y-45406208D01*
G37*
G36*
X113489261Y-46671544D02*
G01*
X113467257Y-46696809D01*
X113431014Y-46736072D01*
X113382793Y-46786925D01*
X113324853Y-46846958D01*
X113259455Y-46913762D01*
X113255410Y-46917865D01*
X113180039Y-46994345D01*
X113091085Y-47084697D01*
X112993565Y-47183820D01*
X112892495Y-47286612D01*
X112792892Y-47387973D01*
X112699773Y-47482801D01*
X112680705Y-47502229D01*
X112358194Y-47830866D01*
X112366752Y-47701497D01*
X112370956Y-47634334D01*
X112375759Y-47551950D01*
X112380515Y-47465664D01*
X112383955Y-47399429D01*
X112392601Y-47226730D01*
X112937266Y-46944982D01*
X113048598Y-46887519D01*
X113152827Y-46833970D01*
X113247558Y-46785547D01*
X113330397Y-46743462D01*
X113398947Y-46708929D01*
X113450814Y-46683159D01*
X113483603Y-46667367D01*
X113494768Y-46662686D01*
X113489261Y-46671544D01*
G37*
G36*
X111977448Y-44015176D02*
G01*
X112120486Y-44157771D01*
X109662650Y-46615607D01*
X112126910Y-49080741D01*
X112027276Y-49173353D01*
X111979105Y-49217624D01*
X111932495Y-49259593D01*
X111894483Y-49292961D01*
X111880288Y-49304954D01*
X111832934Y-49343943D01*
X110465511Y-47976472D01*
X109098088Y-46609000D01*
X111834410Y-43872582D01*
X111977448Y-44015176D01*
G37*
G36*
X113820687Y-46764522D02*
G01*
X113900836Y-46805867D01*
X113997767Y-46855770D01*
X114104604Y-46910698D01*
X114214469Y-46967116D01*
X114320487Y-47021490D01*
X114371994Y-47047877D01*
X114456379Y-47091133D01*
X114532739Y-47130366D01*
X114597962Y-47163970D01*
X114648935Y-47190338D01*
X114682543Y-47207862D01*
X114695675Y-47214936D01*
X114695710Y-47214962D01*
X114697750Y-47228564D01*
X114700873Y-47264093D01*
X114704802Y-47316942D01*
X114709261Y-47382505D01*
X114713973Y-47456174D01*
X114718662Y-47533343D01*
X114723053Y-47609405D01*
X114726867Y-47679752D01*
X114729829Y-47739778D01*
X114731663Y-47784876D01*
X114732092Y-47810438D01*
X114731680Y-47814470D01*
X114722099Y-47805889D01*
X114695716Y-47780048D01*
X114654276Y-47738707D01*
X114599524Y-47683630D01*
X114533205Y-47616577D01*
X114457065Y-47539311D01*
X114372849Y-47453593D01*
X114282303Y-47361187D01*
X114251389Y-47329585D01*
X114155321Y-47231269D01*
X114062005Y-47135639D01*
X113973657Y-47044976D01*
X113892495Y-46961562D01*
X113820736Y-46887676D01*
X113760598Y-46825602D01*
X113714297Y-46777619D01*
X113684053Y-46746009D01*
X113681160Y-46742951D01*
X113588207Y-46644423D01*
X113820687Y-46764522D01*
G37*
G36*
X112425262Y-45459889D02*
G01*
X112449629Y-45483822D01*
X112488728Y-45522878D01*
X112540576Y-45575037D01*
X112603190Y-45638277D01*
X112674588Y-45710577D01*
X112752786Y-45789916D01*
X112835801Y-45874273D01*
X112921649Y-45961625D01*
X113008349Y-46049953D01*
X113093917Y-46137234D01*
X113176370Y-46221447D01*
X113253725Y-46300572D01*
X113323999Y-46372586D01*
X113385208Y-46435469D01*
X113435370Y-46487198D01*
X113472502Y-46525754D01*
X113494621Y-46549114D01*
X113500149Y-46555514D01*
X113487656Y-46549633D01*
X113453854Y-46532934D01*
X113401133Y-46506617D01*
X113331880Y-46471883D01*
X113248483Y-46429930D01*
X113153331Y-46381957D01*
X113048811Y-46329164D01*
X112959555Y-46284013D01*
X112848638Y-46227748D01*
X112744739Y-46174815D01*
X112650323Y-46126487D01*
X112567855Y-46084036D01*
X112499798Y-46048733D01*
X112448618Y-46021851D01*
X112416778Y-46004661D01*
X112406954Y-45998799D01*
X112397924Y-45977647D01*
X112390150Y-45930607D01*
X112383723Y-45858333D01*
X112381167Y-45815306D01*
X112376851Y-45735185D01*
X112372037Y-45649823D01*
X112367375Y-45570597D01*
X112364219Y-45519670D01*
X112356118Y-45393467D01*
X112425262Y-45459889D01*
G37*
%TO.C,kibuzzard-6262F531*%
G36*
X89657265Y-47452915D02*
G01*
X89527725Y-47465615D01*
X89525522Y-47558642D01*
X89524391Y-47652622D01*
X89523975Y-47747079D01*
X89523915Y-47841535D01*
X89523915Y-47959645D01*
X89533801Y-48082398D01*
X89562767Y-48172355D01*
X89609777Y-48232685D01*
X89673795Y-48266558D01*
X89753785Y-48277145D01*
X89838103Y-48265481D01*
X89904681Y-48228946D01*
X89952850Y-48165222D01*
X89981938Y-48071994D01*
X89991275Y-47946945D01*
X89987465Y-47471965D01*
X89840145Y-47452915D01*
X89840145Y-47407195D01*
X90179235Y-47407195D01*
X90179235Y-47452915D01*
X90050965Y-47470695D01*
X90045885Y-47960915D01*
X90037828Y-48074152D01*
X90015175Y-48168262D01*
X89978571Y-48243866D01*
X89928660Y-48301586D01*
X89866086Y-48342045D01*
X89791493Y-48365864D01*
X89705525Y-48373665D01*
X89618976Y-48366926D01*
X89542025Y-48345881D01*
X89476025Y-48309284D01*
X89422334Y-48255892D01*
X89382304Y-48184461D01*
X89357293Y-48093747D01*
X89348655Y-47982505D01*
X89348655Y-47841535D01*
X89348595Y-47747773D01*
X89348179Y-47653416D01*
X89347048Y-47558821D01*
X89344845Y-47464345D01*
X89233085Y-47452915D01*
X89233085Y-47407195D01*
X89657265Y-47407195D01*
X89657265Y-47452915D01*
G37*
G36*
X87773855Y-47451645D02*
G01*
X87641775Y-47465615D01*
X87877995Y-48165385D01*
X88091355Y-47469425D01*
X87960545Y-47451645D01*
X87960545Y-47407195D01*
X88274235Y-47407195D01*
X88274235Y-47449105D01*
X88161205Y-47468155D01*
X87865295Y-48354615D01*
X87772585Y-48354615D01*
X87451275Y-47463075D01*
X87354755Y-47452915D01*
X87354755Y-47407195D01*
X87773855Y-47407195D01*
X87773855Y-47451645D01*
G37*
G36*
X91259053Y-48190468D02*
G01*
X91289215Y-48265715D01*
X91259053Y-48338740D01*
X91185075Y-48369855D01*
X91109986Y-48338740D01*
X91079665Y-48265715D01*
X91109986Y-48190468D01*
X91185075Y-48159035D01*
X91259053Y-48190468D01*
G37*
G36*
X91826425Y-47451645D02*
G01*
X91694345Y-47465615D01*
X91930565Y-48165385D01*
X92143925Y-47469425D01*
X92013115Y-47451645D01*
X92013115Y-47407195D01*
X92326805Y-47407195D01*
X92326805Y-47449105D01*
X92213775Y-47468155D01*
X91917865Y-48354615D01*
X91825155Y-48354615D01*
X91503845Y-47463075D01*
X91407325Y-47452915D01*
X91407325Y-47407195D01*
X91826425Y-47407195D01*
X91826425Y-47451645D01*
G37*
G36*
X90718232Y-47393178D02*
G01*
X90800171Y-47417825D01*
X90871385Y-47455455D01*
X90862495Y-47654845D01*
X90791375Y-47654845D01*
X90738035Y-47459265D01*
X90642785Y-47440215D01*
X90544054Y-47458418D01*
X90477779Y-47511335D01*
X90453555Y-47596425D01*
X90470535Y-47673331D01*
X90519971Y-47730763D01*
X90599605Y-47775495D01*
X90663105Y-47802165D01*
X90761962Y-47850852D01*
X90834606Y-47901489D01*
X90883475Y-47957247D01*
X90911009Y-48021296D01*
X90919645Y-48096805D01*
X90908938Y-48175081D01*
X90877594Y-48242526D01*
X90826776Y-48297624D01*
X90757649Y-48338858D01*
X90671378Y-48364710D01*
X90569125Y-48373665D01*
X90463997Y-48364399D01*
X90365643Y-48338481D01*
X90283375Y-48298735D01*
X90290995Y-48087915D01*
X90362115Y-48087915D01*
X90415455Y-48292385D01*
X90480225Y-48312229D01*
X90552615Y-48317785D01*
X90639808Y-48306613D01*
X90705332Y-48274129D01*
X90746568Y-48221880D01*
X90760895Y-48151415D01*
X90745561Y-48075591D01*
X90695796Y-48018959D01*
X90605955Y-47971075D01*
X90547535Y-47945675D01*
X90459935Y-47901835D01*
X90389892Y-47852508D01*
X90338503Y-47795256D01*
X90306865Y-47727641D01*
X90296075Y-47647225D01*
X90311874Y-47555511D01*
X90356629Y-47482267D01*
X90426377Y-47428592D01*
X90517157Y-47395582D01*
X90625005Y-47384335D01*
X90718232Y-47393178D01*
G37*
G36*
X88461123Y-47558861D02*
G01*
X88459655Y-47464345D01*
X88339005Y-47452915D01*
X88339005Y-47407195D01*
X88763185Y-47407195D01*
X88882789Y-47418005D01*
X88972948Y-47448567D01*
X89035310Y-47496075D01*
X89071521Y-47557726D01*
X89083225Y-47630715D01*
X89070644Y-47700763D01*
X89029250Y-47763430D01*
X88953566Y-47814667D01*
X88838115Y-47850425D01*
X88949977Y-47872950D01*
X89033797Y-47909312D01*
X89091404Y-47958416D01*
X89124627Y-48019162D01*
X89135295Y-48090455D01*
X89126899Y-48153302D01*
X89099453Y-48213504D01*
X89049570Y-48267144D01*
X88973864Y-48310306D01*
X88868948Y-48339075D01*
X88731435Y-48349535D01*
X88339005Y-48349535D01*
X88339005Y-48305085D01*
X88459655Y-48293655D01*
X88461123Y-48196044D01*
X88461877Y-48097599D01*
X88462155Y-47998440D01*
X88462195Y-47898685D01*
X88462195Y-47883445D01*
X88636185Y-47883445D01*
X88636245Y-47993181D01*
X88636661Y-48098393D01*
X88637792Y-48200270D01*
X88639995Y-48300005D01*
X88718735Y-48300005D01*
X88818668Y-48286571D01*
X88892407Y-48246824D01*
X88938048Y-48181597D01*
X88953685Y-48091725D01*
X88938921Y-47999710D01*
X88893677Y-47934721D01*
X88816525Y-47896165D01*
X88706035Y-47883445D01*
X88636185Y-47883445D01*
X88462195Y-47883445D01*
X88462195Y-47844075D01*
X88462191Y-47835185D01*
X88636185Y-47835185D01*
X88695875Y-47835185D01*
X88791224Y-47822267D01*
X88858594Y-47784226D01*
X88898579Y-47722135D01*
X88911775Y-47637065D01*
X88900305Y-47559595D01*
X88864785Y-47503080D01*
X88803547Y-47468472D01*
X88714925Y-47456725D01*
X88639995Y-47456725D01*
X88637792Y-47549614D01*
X88636661Y-47643574D01*
X88636245Y-47738725D01*
X88636185Y-47835185D01*
X88462191Y-47835185D01*
X88462155Y-47748845D01*
X88461877Y-47653734D01*
X88461123Y-47558861D01*
G37*
G36*
X91259053Y-47677387D02*
G01*
X91289215Y-47752635D01*
X91259053Y-47824549D01*
X91185075Y-47855505D01*
X91109986Y-47824549D01*
X91079665Y-47752635D01*
X91109986Y-47677387D01*
X91185075Y-47645955D01*
X91259053Y-47677387D01*
G37*
G36*
X92753525Y-47851695D02*
G01*
X93053245Y-47851695D01*
X93053245Y-47920275D01*
X92753525Y-47920275D01*
X92753525Y-48239045D01*
X92681135Y-48239045D01*
X92681135Y-47920275D01*
X92380145Y-47920275D01*
X92380145Y-47851695D01*
X92681135Y-47851695D01*
X92681135Y-47540545D01*
X92753525Y-47540545D01*
X92753525Y-47851695D01*
G37*
%TO.C,TP4*%
X99634000Y-57404000D02*
G75*
G03*
X99634000Y-57404000I-1700000J0D01*
G01*
%TO.C,kibuzzard-62641BEE*%
G36*
X87524434Y-54600193D02*
G01*
X87580173Y-54535070D01*
X87650658Y-54482506D01*
X87728340Y-54450968D01*
X87813218Y-54440455D01*
X87898026Y-54450897D01*
X87975496Y-54482224D01*
X88045628Y-54534435D01*
X88101014Y-54598641D01*
X88134246Y-54665951D01*
X88145323Y-54736365D01*
X88130083Y-54828757D01*
X88084363Y-54890035D01*
X88131036Y-54922420D01*
X88146593Y-54999255D01*
X88138021Y-55063707D01*
X88112303Y-55097045D01*
X88078648Y-55107840D01*
X88034833Y-55109745D01*
X87276643Y-55109745D01*
X87232828Y-55107840D01*
X87200443Y-55097045D01*
X87174725Y-55063390D01*
X87166153Y-54997985D01*
X87174725Y-54933850D01*
X87200443Y-54901465D01*
X87234098Y-54889400D01*
X87277913Y-54887495D01*
X87542073Y-54887495D01*
X87495400Y-54825900D01*
X87485781Y-54774465D01*
X87702093Y-54774465D01*
X87737653Y-54855110D01*
X87814488Y-54884955D01*
X87890053Y-54853840D01*
X87924343Y-54775735D01*
X87890053Y-54695725D01*
X87813853Y-54662705D01*
X87737018Y-54693185D01*
X87702093Y-54774465D01*
X87485781Y-54774465D01*
X87479843Y-54742715D01*
X87490991Y-54669408D01*
X87524434Y-54600193D01*
G37*
G36*
X87801153Y-53307139D02*
G01*
X87848778Y-53336190D01*
X87886243Y-53421915D01*
X87886243Y-53722905D01*
X87945933Y-53680995D01*
X87970063Y-53597175D01*
X87966253Y-53531452D01*
X87954823Y-53481605D01*
X87949743Y-53467635D01*
X87935773Y-53416835D01*
X87992923Y-53346985D01*
X88051343Y-53330475D01*
X88100794Y-53347382D01*
X88136116Y-53398102D01*
X88157309Y-53482637D01*
X88164373Y-53600985D01*
X88156277Y-53689726D01*
X88131988Y-53767990D01*
X88094364Y-53832919D01*
X88046263Y-53881655D01*
X87975002Y-53926105D01*
X87898379Y-53952775D01*
X87816393Y-53961665D01*
X87716839Y-53950164D01*
X87631537Y-53915663D01*
X87560488Y-53858160D01*
X87507219Y-53783442D01*
X87475257Y-53697293D01*
X87464950Y-53602890D01*
X87665263Y-53602890D01*
X87698918Y-53684805D01*
X87770673Y-53725445D01*
X87770673Y-53565425D01*
X87730033Y-53517165D01*
X87683043Y-53539390D01*
X87665263Y-53602890D01*
X87464950Y-53602890D01*
X87464603Y-53599715D01*
X87472382Y-53517324D01*
X87495718Y-53446680D01*
X87534612Y-53387784D01*
X87589063Y-53340635D01*
X87658119Y-53308250D01*
X87733208Y-53297455D01*
X87801153Y-53307139D01*
G37*
G36*
X88106588Y-56730583D02*
G01*
X88140243Y-56765825D01*
X88147863Y-56831865D01*
X88147863Y-57334785D01*
X88135798Y-57405270D01*
X88099603Y-57438925D01*
X88034833Y-57446545D01*
X87328713Y-57446545D01*
X87240448Y-57422415D01*
X87216953Y-57330975D01*
X87216953Y-56830595D01*
X87218858Y-56786780D01*
X87230923Y-56753125D01*
X87264578Y-56727408D01*
X87329983Y-56718835D01*
X87400468Y-56730583D01*
X87434123Y-56765825D01*
X87441743Y-56831865D01*
X87441743Y-57221755D01*
X87570013Y-57221755D01*
X87570013Y-56970295D01*
X87571918Y-56926480D01*
X87583983Y-56892825D01*
X87617638Y-56867108D01*
X87683043Y-56858535D01*
X87753528Y-56870600D01*
X87787183Y-56906795D01*
X87794803Y-56972835D01*
X87794803Y-57221755D01*
X87923073Y-57221755D01*
X87923073Y-56830595D01*
X87924978Y-56786780D01*
X87937043Y-56753125D01*
X87970698Y-56727408D01*
X88036103Y-56718835D01*
X88106588Y-56730583D01*
G37*
G36*
X88079918Y-55970170D02*
G01*
X88112303Y-55980965D01*
X88138021Y-56014620D01*
X88146593Y-56080025D01*
X88134846Y-56151145D01*
X88099603Y-56184165D01*
X88034833Y-56191785D01*
X87811313Y-56191785D01*
X87730033Y-56221630D01*
X87700823Y-56301640D01*
X87731303Y-56382920D01*
X87811313Y-56414035D01*
X88036103Y-56414035D01*
X88079918Y-56415940D01*
X88112303Y-56428005D01*
X88138021Y-56460708D01*
X88146593Y-56525795D01*
X88138021Y-56590248D01*
X88112303Y-56623585D01*
X88078648Y-56634380D01*
X88034833Y-56636285D01*
X87585253Y-56636285D01*
X87542708Y-56634380D01*
X87510323Y-56622315D01*
X87486510Y-56588978D01*
X87478573Y-56524525D01*
X87485875Y-56461978D01*
X87507783Y-56429275D01*
X87559853Y-56416575D01*
X87534453Y-56393715D01*
X87507783Y-56359425D01*
X87478573Y-56264175D01*
X87489368Y-56184236D01*
X87521753Y-56113751D01*
X87575728Y-56052720D01*
X87645225Y-56005801D01*
X87724177Y-55977649D01*
X87812583Y-55968265D01*
X88036103Y-55968265D01*
X88079918Y-55970170D01*
G37*
G36*
X87478573Y-55331995D02*
G01*
X87486193Y-55258335D01*
X87512863Y-55224680D01*
X87546518Y-55213250D01*
X87590333Y-55211345D01*
X88034833Y-55211345D01*
X88078648Y-55213250D01*
X88112303Y-55224045D01*
X88137068Y-55254684D01*
X88145323Y-55311040D01*
X88128178Y-55403750D01*
X88078013Y-55431055D01*
X88128496Y-55493761D01*
X88145323Y-55587900D01*
X88134175Y-55659373D01*
X88100732Y-55727318D01*
X88044993Y-55791735D01*
X87974508Y-55843946D01*
X87896826Y-55875273D01*
X87811948Y-55885715D01*
X87727140Y-55875202D01*
X87649670Y-55843664D01*
X87579538Y-55791100D01*
X87524152Y-55725977D01*
X87490920Y-55656762D01*
X87479843Y-55583455D01*
X87486111Y-55551070D01*
X87700823Y-55551070D01*
X87736383Y-55632350D01*
X87813853Y-55663465D01*
X87889418Y-55630445D01*
X87923073Y-55550435D01*
X87888783Y-55472330D01*
X87813218Y-55441215D01*
X87736383Y-55471060D01*
X87700823Y-55551070D01*
X87486111Y-55551070D01*
X87495083Y-55504715D01*
X87523658Y-55455185D01*
X87549693Y-55432325D01*
X87496353Y-55403433D01*
X87478573Y-55331995D01*
G37*
G36*
X88101826Y-54018815D02*
G01*
X88135163Y-54037865D01*
X88148498Y-54093745D01*
X88142783Y-54195345D01*
X88120241Y-54275990D01*
X88078013Y-54322345D01*
X87997368Y-54349015D01*
X87879893Y-54357905D01*
X87275373Y-54357905D01*
X87231558Y-54356000D01*
X87197903Y-54345205D01*
X87172185Y-54311550D01*
X87163613Y-54246145D01*
X87172185Y-54183280D01*
X87197903Y-54149625D01*
X87232193Y-54137560D01*
X87276643Y-54135655D01*
X87864653Y-54135655D01*
X87922438Y-54128035D01*
X87934503Y-54094380D01*
X87936408Y-54059455D01*
X87947203Y-54037865D01*
X88037373Y-54012465D01*
X88101826Y-54018815D01*
G37*
%TO.C,TP3*%
X104714000Y-67564000D02*
G75*
G03*
X104714000Y-67564000I-1700000J0D01*
G01*
%TO.C,TP5*%
X110429000Y-60579000D02*
G75*
G03*
X110429000Y-60579000I-1700000J0D01*
G01*
%TO.C,kibuzzard-6262F952*%
G36*
X101934698Y-51310977D02*
G01*
X101991253Y-51452066D01*
X101934698Y-51586904D01*
X101795991Y-51644947D01*
X101655199Y-51586904D01*
X101598347Y-51452066D01*
X101655199Y-51310977D01*
X101795991Y-51252041D01*
X101934698Y-51310977D01*
G37*
G36*
X101934698Y-52273002D02*
G01*
X101991253Y-52414091D01*
X101934698Y-52551013D01*
X101795991Y-52609353D01*
X101655199Y-52551013D01*
X101598347Y-52414091D01*
X101655199Y-52273002D01*
X101795991Y-52214066D01*
X101934698Y-52273002D01*
G37*
G36*
X100920661Y-50778084D02*
G01*
X101074295Y-50824298D01*
X101207822Y-50894853D01*
X101191153Y-51268709D01*
X101057803Y-51268709D01*
X100957791Y-50901997D01*
X100779197Y-50866278D01*
X100594077Y-50900409D01*
X100469811Y-50999628D01*
X100424391Y-51159172D01*
X100456229Y-51303370D01*
X100548921Y-51411055D01*
X100698234Y-51494928D01*
X100817297Y-51544934D01*
X101002653Y-51636222D01*
X101138861Y-51731167D01*
X101230491Y-51835714D01*
X101282117Y-51955805D01*
X101298309Y-52097384D01*
X101278234Y-52244151D01*
X101219464Y-52370611D01*
X101124180Y-52473920D01*
X100994568Y-52551233D01*
X100832808Y-52599707D01*
X100641084Y-52616497D01*
X100443970Y-52599123D01*
X100259555Y-52550527D01*
X100105303Y-52476003D01*
X100119591Y-52080716D01*
X100252941Y-52080716D01*
X100352953Y-52464097D01*
X100474397Y-52501304D01*
X100610128Y-52511722D01*
X100773616Y-52490774D01*
X100896473Y-52429866D01*
X100973790Y-52331900D01*
X101000653Y-52199778D01*
X100971902Y-52057609D01*
X100878592Y-51951423D01*
X100710141Y-51861641D01*
X100600603Y-51814016D01*
X100436354Y-51731815D01*
X100305023Y-51639327D01*
X100208668Y-51531980D01*
X100149347Y-51405203D01*
X100129116Y-51254422D01*
X100158738Y-51082458D01*
X100242654Y-50945126D01*
X100373432Y-50844485D01*
X100543644Y-50782591D01*
X100745859Y-50761503D01*
X100920661Y-50778084D01*
G37*
G36*
X98931347Y-50890091D02*
G01*
X98688459Y-50913903D01*
X98684329Y-51088330D01*
X98682209Y-51264542D01*
X98681427Y-51441648D01*
X98681316Y-51618753D01*
X98681316Y-51840209D01*
X98699851Y-52070371D01*
X98754163Y-52239040D01*
X98842307Y-52352159D01*
X98962341Y-52415672D01*
X99112322Y-52435522D01*
X99270418Y-52413652D01*
X99395252Y-52345149D01*
X99485569Y-52225667D01*
X99540109Y-52050864D01*
X99557616Y-51816397D01*
X99550472Y-50925809D01*
X99274247Y-50890091D01*
X99274247Y-50804366D01*
X99910041Y-50804366D01*
X99910041Y-50890091D01*
X99669534Y-50923428D01*
X99660009Y-51842591D01*
X99644903Y-52054911D01*
X99602429Y-52231366D01*
X99533796Y-52373123D01*
X99440212Y-52481349D01*
X99322885Y-52557209D01*
X99183023Y-52601869D01*
X99021834Y-52616497D01*
X98859555Y-52603862D01*
X98715271Y-52564401D01*
X98591522Y-52495782D01*
X98490850Y-52395672D01*
X98415796Y-52261739D01*
X98368900Y-52091650D01*
X98352703Y-51883072D01*
X98352703Y-51618753D01*
X98352592Y-51442950D01*
X98351810Y-51266030D01*
X98349689Y-51088665D01*
X98345559Y-50911522D01*
X98136009Y-50890091D01*
X98136009Y-50804366D01*
X98931347Y-50804366D01*
X98931347Y-50890091D01*
G37*
G36*
X104755884Y-51637803D02*
G01*
X105317859Y-51637803D01*
X105317859Y-51766391D01*
X104755884Y-51766391D01*
X104755884Y-52364084D01*
X104620153Y-52364084D01*
X104620153Y-51766391D01*
X104055797Y-51766391D01*
X104055797Y-51637803D01*
X104620153Y-51637803D01*
X104620153Y-51054397D01*
X104755884Y-51054397D01*
X104755884Y-51637803D01*
G37*
G36*
X96688581Y-51088739D02*
G01*
X96685828Y-50911522D01*
X96459609Y-50890091D01*
X96459609Y-50804366D01*
X97254947Y-50804366D01*
X97479203Y-50824635D01*
X97648253Y-50881937D01*
X97765182Y-50971015D01*
X97833076Y-51086610D01*
X97855022Y-51223466D01*
X97831433Y-51354806D01*
X97753819Y-51472306D01*
X97611911Y-51568375D01*
X97395441Y-51635422D01*
X97605181Y-51677656D01*
X97762344Y-51745836D01*
X97870357Y-51837904D01*
X97932651Y-51951804D01*
X97952653Y-52085478D01*
X97936910Y-52203317D01*
X97885449Y-52316195D01*
X97791919Y-52416770D01*
X97649970Y-52497699D01*
X97453252Y-52551641D01*
X97195416Y-52571253D01*
X96459609Y-52571253D01*
X96459609Y-52487909D01*
X96685828Y-52466478D01*
X96688581Y-52283457D01*
X96689995Y-52098873D01*
X96690516Y-51912949D01*
X96690591Y-51725909D01*
X96690591Y-51697334D01*
X97016822Y-51697334D01*
X97016933Y-51903089D01*
X97017715Y-52100361D01*
X97019836Y-52291382D01*
X97023966Y-52478384D01*
X97171603Y-52478384D01*
X97358978Y-52453195D01*
X97497239Y-52378670D01*
X97582815Y-52256370D01*
X97612134Y-52087859D01*
X97584452Y-51915330D01*
X97499620Y-51793477D01*
X97354959Y-51721184D01*
X97147791Y-51697334D01*
X97016822Y-51697334D01*
X96690591Y-51697334D01*
X96690591Y-51623516D01*
X96690584Y-51606847D01*
X97016822Y-51606847D01*
X97128741Y-51606847D01*
X97307520Y-51582625D01*
X97433838Y-51511299D01*
X97508810Y-51394878D01*
X97533553Y-51235372D01*
X97512047Y-51090116D01*
X97445447Y-50984150D01*
X97330626Y-50919261D01*
X97164459Y-50897234D01*
X97023966Y-50897234D01*
X97019836Y-51071400D01*
X97017715Y-51247576D01*
X97016933Y-51425983D01*
X97016822Y-51606847D01*
X96690584Y-51606847D01*
X96690516Y-51444959D01*
X96689995Y-51266626D01*
X96688581Y-51088739D01*
G37*
G36*
X95399953Y-50887709D02*
G01*
X95152303Y-50913903D01*
X95595216Y-52225972D01*
X95995266Y-50921047D01*
X95749997Y-50887709D01*
X95749997Y-50804366D01*
X96338166Y-50804366D01*
X96338166Y-50882947D01*
X96126234Y-50918666D01*
X95571403Y-52580778D01*
X95397572Y-52580778D01*
X94795116Y-50909141D01*
X94614141Y-50890091D01*
X94614141Y-50804366D01*
X95399953Y-50804366D01*
X95399953Y-50887709D01*
G37*
G36*
X102779447Y-52487909D02*
G01*
X102779447Y-52571253D01*
X102222234Y-52571253D01*
X102222234Y-52487909D01*
X102427022Y-52459334D01*
X102605923Y-51911647D01*
X102712772Y-51911647D01*
X103227122Y-51911647D01*
X102965184Y-51094878D01*
X102712772Y-51911647D01*
X102605923Y-51911647D01*
X102969947Y-50797222D01*
X103177116Y-50797222D01*
X103746234Y-52466478D01*
X103943878Y-52487909D01*
X103943878Y-52571253D01*
X103174734Y-52571253D01*
X103174734Y-52487909D01*
X103405716Y-52461716D01*
X103255697Y-51999753D01*
X102686578Y-51999753D01*
X102546084Y-52459334D01*
X102779447Y-52487909D01*
G37*
%TO.C,kibuzzard-6262FE0A*%
G36*
X96539425Y-72112408D02*
G01*
X96709993Y-72156417D01*
X96863628Y-72228472D01*
X96858866Y-72640428D01*
X96718372Y-72640428D01*
X96618359Y-72245141D01*
X96508227Y-72206743D01*
X96387378Y-72195134D01*
X96240615Y-72212296D01*
X96108432Y-72263614D01*
X95993743Y-72348840D01*
X95899465Y-72467722D01*
X95828513Y-72620010D01*
X95783804Y-72805456D01*
X95768253Y-73023809D01*
X95783263Y-73233297D01*
X95826514Y-73415584D01*
X95895341Y-73568838D01*
X95987078Y-73691226D01*
X96099059Y-73780915D01*
X96228619Y-73836072D01*
X96373091Y-73854866D01*
X96485009Y-73847722D01*
X96589784Y-73826291D01*
X96589784Y-73671509D01*
X96588991Y-73499618D01*
X96586609Y-73329844D01*
X96582641Y-73159541D01*
X96320703Y-73133347D01*
X96320703Y-73050003D01*
X97068416Y-73050003D01*
X97068416Y-73133347D01*
X96911253Y-73152397D01*
X96908960Y-73321113D01*
X96907196Y-73495650D01*
X96906491Y-73678653D01*
X96906491Y-73795334D01*
X96770238Y-73864093D01*
X96632647Y-73913206D01*
X96487912Y-73942674D01*
X96330228Y-73952497D01*
X96154542Y-73939304D01*
X95993652Y-73900573D01*
X95849127Y-73837580D01*
X95722536Y-73751596D01*
X95615445Y-73643898D01*
X95529423Y-73515758D01*
X95466037Y-73368450D01*
X95426856Y-73203249D01*
X95413447Y-73021428D01*
X95427189Y-72842361D01*
X95467291Y-72679149D01*
X95532068Y-72533184D01*
X95619835Y-72405857D01*
X95728905Y-72298560D01*
X95857594Y-72212685D01*
X96004216Y-72149623D01*
X96167085Y-72110765D01*
X96344516Y-72097503D01*
X96539425Y-72112408D01*
G37*
G36*
X104264553Y-73316703D02*
G01*
X103604947Y-73316703D01*
X103604947Y-73154778D01*
X104264553Y-73154778D01*
X104264553Y-73316703D01*
G37*
G36*
X101462417Y-73609002D02*
G01*
X101518972Y-73750091D01*
X101462417Y-73887013D01*
X101323709Y-73945353D01*
X101182918Y-73887013D01*
X101126066Y-73750091D01*
X101182918Y-73609002D01*
X101323709Y-73550066D01*
X101462417Y-73609002D01*
G37*
G36*
X98628134Y-73435766D02*
G01*
X98620991Y-72259428D01*
X98313809Y-72226091D01*
X98313809Y-72140366D01*
X98956747Y-72140366D01*
X98956747Y-72226091D01*
X98737672Y-72257047D01*
X98725766Y-73916778D01*
X98561459Y-73916778D01*
X97508947Y-72435641D01*
X97516091Y-73792953D01*
X97820891Y-73823909D01*
X97820891Y-73907253D01*
X97177953Y-73907253D01*
X97177953Y-73823909D01*
X97399409Y-73795334D01*
X97411316Y-72297528D01*
X97373216Y-72247522D01*
X97192241Y-72226091D01*
X97192241Y-72140366D01*
X97694684Y-72140366D01*
X98628134Y-73435766D01*
G37*
G36*
X99378600Y-72427976D02*
G01*
X99375847Y-72247522D01*
X99149628Y-72226091D01*
X99149628Y-72140366D01*
X99916391Y-72140366D01*
X100114058Y-72155565D01*
X100289986Y-72200343D01*
X100442754Y-72273474D01*
X100570937Y-72373728D01*
X100673112Y-72499879D01*
X100747856Y-72650697D01*
X100793746Y-72824956D01*
X100809359Y-73021428D01*
X100796081Y-73197935D01*
X100757109Y-73356979D01*
X100693736Y-73497678D01*
X100607257Y-73619151D01*
X100498964Y-73720516D01*
X100370151Y-73800891D01*
X100222112Y-73859393D01*
X100056140Y-73895141D01*
X99873528Y-73907253D01*
X99149628Y-73907253D01*
X99149628Y-73823909D01*
X99375847Y-73802478D01*
X99378600Y-73623661D01*
X99380014Y-73439933D01*
X99380535Y-73249954D01*
X99380609Y-73052384D01*
X99711603Y-73052384D01*
X99711715Y-73251814D01*
X99712496Y-73444100D01*
X99714617Y-73631028D01*
X99718747Y-73814384D01*
X99864003Y-73814384D01*
X100016945Y-73796709D01*
X100148642Y-73744710D01*
X100258263Y-73659929D01*
X100344974Y-73543908D01*
X100407942Y-73398186D01*
X100446333Y-73224306D01*
X100459316Y-73023809D01*
X100446382Y-72818814D01*
X100408330Y-72643184D01*
X100346286Y-72497713D01*
X100261373Y-72383191D01*
X100154717Y-72300409D01*
X100027442Y-72250160D01*
X99880672Y-72233234D01*
X99718747Y-72233234D01*
X99714617Y-72414916D01*
X99712496Y-72599054D01*
X99711715Y-72785424D01*
X99711603Y-72973803D01*
X99711603Y-73052384D01*
X99380609Y-73052384D01*
X99380609Y-72973803D01*
X99380535Y-72790670D01*
X99380014Y-72608877D01*
X99378600Y-72427976D01*
G37*
G36*
X102307166Y-73823909D02*
G01*
X102307166Y-73907253D01*
X101749953Y-73907253D01*
X101749953Y-73823909D01*
X101954741Y-73795334D01*
X102133642Y-73247647D01*
X102240491Y-73247647D01*
X102754841Y-73247647D01*
X102492903Y-72430878D01*
X102240491Y-73247647D01*
X102133642Y-73247647D01*
X102497666Y-72133222D01*
X102704834Y-72133222D01*
X103273953Y-73802478D01*
X103471597Y-73823909D01*
X103471597Y-73907253D01*
X102702453Y-73907253D01*
X102702453Y-73823909D01*
X102933434Y-73797716D01*
X102783416Y-73335753D01*
X102214297Y-73335753D01*
X102073803Y-73795334D01*
X102307166Y-73823909D01*
G37*
G36*
X101462417Y-72646977D02*
G01*
X101518972Y-72788066D01*
X101462417Y-72922904D01*
X101323709Y-72980947D01*
X101182918Y-72922904D01*
X101126066Y-72788066D01*
X101182918Y-72646977D01*
X101323709Y-72588041D01*
X101462417Y-72646977D01*
G37*
%TO.C,R2*%
X84363000Y-66447641D02*
X84363000Y-66140359D01*
X85123000Y-66447641D02*
X85123000Y-66140359D01*
%TO.C,kibuzzard-6262F4EB*%
G36*
X89299601Y-72009318D02*
G01*
X89300732Y-72105322D01*
X89302935Y-72200135D01*
X89426125Y-72211565D01*
X89426125Y-72256015D01*
X89001945Y-72256015D01*
X89001945Y-72211565D01*
X89122595Y-72200135D01*
X89124063Y-72105381D01*
X89124818Y-72009794D01*
X89125095Y-71913492D01*
X89125135Y-71816595D01*
X89125135Y-71765795D01*
X89299125Y-71765795D01*
X89391835Y-71765795D01*
X89485458Y-71749662D01*
X89550268Y-71705311D01*
X89587931Y-71638815D01*
X89600115Y-71556245D01*
X89587276Y-71474112D01*
X89548839Y-71413529D01*
X89484922Y-71376044D01*
X89395645Y-71363205D01*
X89302935Y-71363205D01*
X89300732Y-71459685D01*
X89299601Y-71557832D01*
X89299185Y-71659313D01*
X89299125Y-71765795D01*
X89125135Y-71765795D01*
X89125135Y-71754365D01*
X89125095Y-71658897D01*
X89124818Y-71563071D01*
X89124063Y-71467008D01*
X89122595Y-71370825D01*
X89001945Y-71359395D01*
X89001945Y-71313675D01*
X89431205Y-71313675D01*
X89549864Y-71324262D01*
X89644382Y-71355087D01*
X89713480Y-71404749D01*
X89755878Y-71471846D01*
X89770295Y-71554975D01*
X89755690Y-71633120D01*
X89709653Y-71701977D01*
X89628849Y-71756072D01*
X89509945Y-71789925D01*
X89596583Y-71812507D01*
X89655360Y-71852472D01*
X89693182Y-71911012D01*
X89716955Y-71989315D01*
X89769025Y-72202675D01*
X89880785Y-72211565D01*
X89880785Y-72256015D01*
X89820460Y-72268556D01*
X89748705Y-72272525D01*
X89661639Y-72261754D01*
X89605054Y-72225300D01*
X89577255Y-72156955D01*
X89531535Y-71961375D01*
X89503219Y-71876003D01*
X89453171Y-71827884D01*
X89368975Y-71812785D01*
X89299125Y-71812785D01*
X89299185Y-71911885D01*
X89299601Y-72009318D01*
G37*
G36*
X80571685Y-71199375D02*
G01*
X80524695Y-71237475D01*
X80523784Y-71360583D01*
X80522484Y-71476000D01*
X80519139Y-71583867D01*
X80512089Y-71684327D01*
X80499677Y-71777519D01*
X80480245Y-71863585D01*
X80697415Y-71863585D01*
X80787585Y-71746745D01*
X80846164Y-71792782D01*
X80951415Y-71878825D01*
X80914585Y-71899145D01*
X80468815Y-71899145D01*
X80430715Y-71989315D01*
X80578513Y-72018939D01*
X80696586Y-72056125D01*
X80787486Y-72098595D01*
X80853766Y-72144067D01*
X80897980Y-72190262D01*
X80922681Y-72234901D01*
X80930423Y-72275704D01*
X80923757Y-72310390D01*
X80905239Y-72336680D01*
X80877420Y-72352294D01*
X80842854Y-72354952D01*
X80804095Y-72342375D01*
X80760996Y-72286373D01*
X80698573Y-72221715D01*
X80618838Y-72152546D01*
X80523801Y-72083011D01*
X80415475Y-72017255D01*
X80374654Y-72072820D01*
X80324888Y-72124352D01*
X80265211Y-72171984D01*
X80194654Y-72215851D01*
X80112250Y-72256087D01*
X80017032Y-72292825D01*
X79908033Y-72326200D01*
X79784285Y-72356345D01*
X79775395Y-72337295D01*
X79902502Y-72287232D01*
X80009571Y-72233659D01*
X80098334Y-72176175D01*
X80170524Y-72114382D01*
X80227874Y-72047879D01*
X80272117Y-71976267D01*
X80304985Y-71899145D01*
X79789365Y-71899145D01*
X79779205Y-71863585D01*
X80316415Y-71863585D01*
X80334591Y-71784615D01*
X80346436Y-71699914D01*
X80353238Y-71609193D01*
X80356285Y-71512162D01*
X80356866Y-71408533D01*
X80356270Y-71298017D01*
X80355785Y-71180325D01*
X80571685Y-71199375D01*
G37*
G36*
X91460665Y-71972805D02*
G01*
X90787565Y-71972805D01*
X90787565Y-71904225D01*
X91460665Y-71904225D01*
X91460665Y-71972805D01*
G37*
G36*
X87168065Y-71227315D02*
G01*
X87162985Y-71429245D01*
X87162985Y-71897875D01*
X87429685Y-71634985D01*
X87307765Y-71617205D01*
X87307765Y-71576565D01*
X87635425Y-71576565D01*
X87635425Y-71617205D01*
X87508425Y-71631175D01*
X87350945Y-71781035D01*
X87584625Y-72206485D01*
X87670985Y-72216645D01*
X87670985Y-72256015D01*
X87429685Y-72256015D01*
X87235375Y-71888985D01*
X87162985Y-71957565D01*
X87163408Y-72039315D01*
X87164678Y-72126428D01*
X87166795Y-72206485D01*
X87256965Y-72216645D01*
X87256965Y-72256015D01*
X86900095Y-72256015D01*
X86900095Y-72216645D01*
X86995345Y-72205215D01*
X86996568Y-72124076D01*
X86997509Y-72037011D01*
X86997885Y-71957565D01*
X86997885Y-71313675D01*
X86895015Y-71306055D01*
X86895015Y-71270495D01*
X87150285Y-71215885D01*
X87168065Y-71227315D01*
G37*
G36*
X81802315Y-71234935D02*
G01*
X81747705Y-71259065D01*
X81725321Y-71321136D01*
X81698175Y-71393685D01*
X81950905Y-71393685D01*
X82030915Y-71283195D01*
X82084731Y-71327169D01*
X82179505Y-71410195D01*
X82143945Y-71430515D01*
X81684205Y-71430515D01*
X81647892Y-71525671D01*
X81612144Y-71617722D01*
X81580065Y-71698485D01*
X81722305Y-71698485D01*
X81722305Y-71501635D01*
X81916615Y-71519415D01*
X81869625Y-71554975D01*
X81869625Y-71698485D01*
X81926775Y-71698485D01*
X82001705Y-71598155D01*
X82050441Y-71638319D01*
X82136325Y-71713725D01*
X82102035Y-71734045D01*
X81869625Y-71734045D01*
X81869625Y-71924545D01*
X81987735Y-71924545D01*
X82065205Y-71820405D01*
X82115688Y-71862156D01*
X82206175Y-71941055D01*
X82170615Y-71961375D01*
X81869625Y-71961375D01*
X81869625Y-72155685D01*
X81830255Y-72179656D01*
X81748975Y-72195055D01*
X81722305Y-72195055D01*
X81722305Y-71961375D01*
X81373055Y-71961375D01*
X81362895Y-71924545D01*
X81722305Y-71924545D01*
X81722305Y-71734045D01*
X81574985Y-71734045D01*
X81516565Y-71798815D01*
X81379405Y-71706105D01*
X81430205Y-71675625D01*
X81462425Y-71603329D01*
X81496621Y-71519744D01*
X81530535Y-71430515D01*
X81385755Y-71430515D01*
X81375595Y-71393685D01*
X81543235Y-71393685D01*
X81572962Y-71311229D01*
X81597328Y-71237804D01*
X81614355Y-71179055D01*
X81802315Y-71234935D01*
G37*
G36*
X90416725Y-71556245D02*
G01*
X90490403Y-71566975D01*
X90556143Y-71598484D01*
X90611511Y-71649749D01*
X90654074Y-71719746D01*
X90681397Y-71807452D01*
X90691045Y-71911845D01*
X90680391Y-72016896D01*
X90650264Y-72106249D01*
X90603415Y-72178386D01*
X90542596Y-72231791D01*
X90470559Y-72264946D01*
X90390055Y-72276335D01*
X90324721Y-72268009D01*
X90261926Y-72240211D01*
X90203365Y-72188705D01*
X90203365Y-72276335D01*
X90203741Y-72357051D01*
X90204682Y-72444539D01*
X90205905Y-72535415D01*
X90315125Y-72548115D01*
X90315125Y-72586215D01*
X89940475Y-72586215D01*
X89940475Y-72548115D01*
X90036995Y-72536685D01*
X90038218Y-72445762D01*
X90039159Y-72357944D01*
X90039535Y-72276335D01*
X90039535Y-71867395D01*
X90038583Y-71764049D01*
X90036266Y-71693405D01*
X90205905Y-71693405D01*
X90205905Y-72148065D01*
X90266071Y-72184895D01*
X90332905Y-72195055D01*
X90404819Y-72180510D01*
X90461493Y-72132984D01*
X90498640Y-72046644D01*
X90511975Y-71915655D01*
X90500208Y-71787147D01*
X90466414Y-71700072D01*
X90412855Y-71650622D01*
X90341795Y-71634985D01*
X90278613Y-71646097D01*
X90205905Y-71693405D01*
X90036266Y-71693405D01*
X90035725Y-71676895D01*
X89932855Y-71666735D01*
X89932855Y-71634985D01*
X90174155Y-71557515D01*
X90191935Y-71570215D01*
X90200825Y-71654035D01*
X90266395Y-71598202D01*
X90339302Y-71566358D01*
X90416725Y-71556245D01*
G37*
G36*
X79991002Y-71551002D02*
G01*
X80086281Y-71577500D01*
X80155180Y-71613857D01*
X80200205Y-71655976D01*
X80223864Y-71699755D01*
X80228663Y-71741096D01*
X80217110Y-71775899D01*
X80191711Y-71800065D01*
X80154974Y-71809493D01*
X80109405Y-71800085D01*
X80061899Y-71730989D01*
X79998915Y-71662607D01*
X79928311Y-71600417D01*
X79857945Y-71549895D01*
X79866835Y-71538465D01*
X79991002Y-71551002D01*
G37*
G36*
X92890685Y-71326375D02*
G01*
X92790766Y-71357240D01*
X92704354Y-71399435D01*
X92631427Y-71452472D01*
X92571963Y-71515860D01*
X92525940Y-71589113D01*
X92493334Y-71671741D01*
X92474125Y-71763255D01*
X92535744Y-71716688D01*
X92605546Y-71688748D01*
X92682405Y-71679435D01*
X92770533Y-71692673D01*
X92841836Y-71730479D01*
X92894729Y-71789986D01*
X92927627Y-71868330D01*
X92938945Y-71962645D01*
X92929132Y-72051145D01*
X92900657Y-72127510D01*
X92854966Y-72189975D01*
X92793506Y-72236777D01*
X92717724Y-72266151D01*
X92629065Y-72276335D01*
X92547193Y-72267308D01*
X92475295Y-72240819D01*
X92414328Y-72197758D01*
X92365246Y-72139012D01*
X92329004Y-72065471D01*
X92306559Y-71978022D01*
X92298865Y-71877555D01*
X92300721Y-71853425D01*
X92469045Y-71853425D01*
X92476320Y-71991032D01*
X92497371Y-72096574D01*
X92531041Y-72170905D01*
X92576172Y-72214877D01*
X92631605Y-72229345D01*
X92687187Y-72215157D01*
X92731459Y-72171084D01*
X92760728Y-72094864D01*
X92771305Y-71984235D01*
X92761482Y-71882357D01*
X92732729Y-71809292D01*
X92686116Y-71765279D01*
X92622715Y-71750555D01*
X92544134Y-71763572D01*
X92470315Y-71808975D01*
X92469045Y-71853425D01*
X92300721Y-71853425D01*
X92305621Y-71789704D01*
X92325484Y-71705861D01*
X92357844Y-71626987D01*
X92402091Y-71554040D01*
X92457615Y-71487982D01*
X92523807Y-71429773D01*
X92600058Y-71380373D01*
X92685758Y-71340741D01*
X92780297Y-71311839D01*
X92883065Y-71294625D01*
X92890685Y-71326375D01*
G37*
G36*
X83166859Y-71487242D02*
G01*
X83185345Y-71405115D01*
X83368225Y-71452105D01*
X83321235Y-71478775D01*
X83271564Y-71536160D01*
X83210886Y-71597496D01*
X83145975Y-71656575D01*
X83262815Y-71656575D01*
X83337745Y-71562595D01*
X83387275Y-71600060D01*
X83474905Y-71671815D01*
X83440615Y-71692135D01*
X82730685Y-71692135D01*
X82726875Y-71678165D01*
X82662899Y-71728489D01*
X82584635Y-71787385D01*
X82584635Y-72187435D01*
X82579198Y-72257206D01*
X82555425Y-72310308D01*
X82502125Y-72346741D01*
X82408105Y-72366505D01*
X82399532Y-72301894D01*
X82381435Y-72257285D01*
X82346510Y-72226170D01*
X82284915Y-72206485D01*
X82284915Y-72187435D01*
X82342700Y-72191245D01*
X82419535Y-72195055D01*
X82444935Y-72173465D01*
X82444935Y-71885175D01*
X82376355Y-71930895D01*
X82345875Y-71968995D01*
X82282375Y-71805165D01*
X82349367Y-71784845D01*
X82444935Y-71753095D01*
X82444935Y-71513065D01*
X82300155Y-71513065D01*
X82289995Y-71476235D01*
X82444935Y-71476235D01*
X82444935Y-71177785D01*
X82631625Y-71195565D01*
X82584635Y-71231125D01*
X82584635Y-71476235D01*
X82590985Y-71476235D01*
X82654485Y-71378445D01*
X82694807Y-71418450D01*
X82763705Y-71492745D01*
X82731955Y-71513065D01*
X82584635Y-71513065D01*
X82584635Y-71706105D01*
X82652104Y-71682610D01*
X82720525Y-71659115D01*
X82720525Y-71656575D01*
X82726875Y-71656575D01*
X82740845Y-71651495D01*
X82740845Y-71656575D01*
X83112955Y-71656575D01*
X83141601Y-71575295D01*
X83166859Y-71487242D01*
G37*
G36*
X82948570Y-71456452D02*
G01*
X83003957Y-71510310D01*
X83022978Y-71563147D01*
X83013651Y-71607608D01*
X82983996Y-71636340D01*
X82942034Y-71641990D01*
X82895785Y-71617205D01*
X82885954Y-71546179D01*
X82863706Y-71475718D01*
X82836095Y-71414005D01*
X82848795Y-71408925D01*
X82948570Y-71456452D01*
G37*
G36*
X80058860Y-71281936D02*
G01*
X80154322Y-71311328D01*
X80223130Y-71349620D01*
X80267881Y-71392842D01*
X80291174Y-71437024D01*
X80295607Y-71478196D01*
X80283780Y-71512388D01*
X80258290Y-71535630D01*
X80221735Y-71543953D01*
X80176715Y-71533385D01*
X80129189Y-71463813D01*
X80066066Y-71394002D01*
X79995085Y-71329431D01*
X79923985Y-71275575D01*
X79934145Y-71265415D01*
X80058860Y-71281936D01*
G37*
G36*
X81199593Y-71251720D02*
G01*
X81275205Y-71307543D01*
X81316915Y-71365837D01*
X81330034Y-71420514D01*
X81319876Y-71465487D01*
X81291755Y-71494670D01*
X81250984Y-71501975D01*
X81202875Y-71481315D01*
X81172630Y-71387194D01*
X81125170Y-71293073D01*
X81072065Y-71210805D01*
X81084765Y-71204455D01*
X81199593Y-71251720D01*
G37*
G36*
X92165515Y-71450835D02*
G01*
X91723555Y-71450835D01*
X91707045Y-71704835D01*
X91784198Y-71687690D01*
X91867065Y-71681975D01*
X91961104Y-71690559D01*
X92041525Y-71715936D01*
X92106778Y-71757540D01*
X92155308Y-71814808D01*
X92185565Y-71887174D01*
X92195995Y-71974075D01*
X92184306Y-72061729D01*
X92150745Y-72135976D01*
X92097570Y-72195690D01*
X92027038Y-72239740D01*
X91941407Y-72266998D01*
X91842935Y-72276335D01*
X91752420Y-72267079D01*
X91678119Y-72240084D01*
X91621010Y-72196508D01*
X91582067Y-72137509D01*
X91562265Y-72064245D01*
X91637195Y-72013445D01*
X91691329Y-72034876D01*
X91719745Y-72108695D01*
X91741335Y-72217915D01*
X91817535Y-72229345D01*
X91901593Y-72212835D01*
X91965173Y-72164893D01*
X92005416Y-72087899D01*
X92019465Y-71984235D01*
X92005237Y-71884500D01*
X91964696Y-71811197D01*
X91901057Y-71765993D01*
X91817535Y-71750555D01*
X91748003Y-71756111D01*
X91680375Y-71772145D01*
X91643545Y-71754365D01*
X91674025Y-71313675D01*
X92165515Y-71313675D01*
X92165515Y-71450835D01*
G37*
G36*
X79207705Y-71701025D02*
G01*
X79155635Y-71721345D01*
X79109209Y-71792300D01*
X79051777Y-71869465D01*
X78986090Y-71949310D01*
X78914899Y-72028309D01*
X78840957Y-72102933D01*
X78767015Y-72169655D01*
X78846896Y-72167015D01*
X78936584Y-72162929D01*
X79034032Y-72157431D01*
X79137196Y-72150558D01*
X79244029Y-72142344D01*
X79352485Y-72132825D01*
X79307000Y-72051639D01*
X79257000Y-71975251D01*
X79206435Y-71906765D01*
X79220405Y-71899145D01*
X79337922Y-71957116D01*
X79428206Y-72019695D01*
X79493746Y-72084060D01*
X79537033Y-72147389D01*
X79560557Y-72206860D01*
X79566809Y-72259649D01*
X79558278Y-72302935D01*
X79537457Y-72333895D01*
X79506833Y-72349707D01*
X79468899Y-72347548D01*
X79426145Y-72324595D01*
X79403285Y-72245061D01*
X79368995Y-72164575D01*
X79300378Y-72185365D01*
X79224230Y-72207266D01*
X79140795Y-72229989D01*
X79050318Y-72253245D01*
X78953042Y-72276746D01*
X78849213Y-72300202D01*
X78739075Y-72323325D01*
X78700975Y-72356345D01*
X78618425Y-72174735D01*
X78661129Y-72166163D01*
X78716215Y-72144255D01*
X78765957Y-72082601D01*
X78820778Y-71996465D01*
X78876235Y-71895018D01*
X78927882Y-71787432D01*
X78971273Y-71682880D01*
X79001965Y-71590535D01*
X79207705Y-71701025D01*
G37*
G36*
X85844249Y-71252239D02*
G01*
X85873935Y-71321295D01*
X85844249Y-71388764D01*
X85773605Y-71415275D01*
X85702961Y-71388764D01*
X85673275Y-71321295D01*
X85702961Y-71252239D01*
X85773605Y-71226045D01*
X85844249Y-71252239D01*
G37*
G36*
X88091831Y-72029796D02*
G01*
X88123105Y-72106155D01*
X88091831Y-72180291D01*
X88013885Y-72211565D01*
X87937050Y-72180291D01*
X87905935Y-72106155D01*
X87937050Y-72029796D01*
X88013885Y-71998205D01*
X88091831Y-72029796D01*
G37*
G36*
X79309305Y-71236205D02*
G01*
X79258505Y-71304785D01*
X79305260Y-71386835D01*
X79364574Y-71462500D01*
X79435035Y-71531321D01*
X79515233Y-71592840D01*
X79603757Y-71646597D01*
X79699195Y-71692135D01*
X79696655Y-71707375D01*
X79632732Y-71731223D01*
X79581508Y-71775391D01*
X79548065Y-71833105D01*
X79481484Y-71782446D01*
X79421660Y-71725254D01*
X79368444Y-71660829D01*
X79321687Y-71588471D01*
X79281241Y-71507481D01*
X79246956Y-71417160D01*
X79218684Y-71316808D01*
X79196275Y-71205725D01*
X79208975Y-71199375D01*
X79309305Y-71236205D01*
G37*
G36*
X86618869Y-71570810D02*
G01*
X86680068Y-71615617D01*
X86718882Y-71692333D01*
X86732455Y-71802625D01*
X86732455Y-71957565D01*
X86732831Y-72038186D01*
X86733772Y-72125864D01*
X86734995Y-72206485D01*
X86821355Y-72216645D01*
X86821355Y-72256015D01*
X86473375Y-72256015D01*
X86473375Y-72216645D01*
X86562275Y-72205215D01*
X86564392Y-72125487D01*
X86565662Y-72038139D01*
X86566085Y-71957565D01*
X86566085Y-71795005D01*
X86555314Y-71707375D01*
X86522246Y-71660385D01*
X86465755Y-71646415D01*
X86388285Y-71666259D01*
X86299385Y-71728965D01*
X86299385Y-71957565D01*
X86299761Y-72037058D01*
X86300702Y-72125299D01*
X86301925Y-72206485D01*
X86384475Y-72216645D01*
X86384475Y-72256015D01*
X86036495Y-72256015D01*
X86036495Y-72216645D01*
X86129205Y-72205215D01*
X86130428Y-72124358D01*
X86131369Y-72036728D01*
X86131745Y-71957565D01*
X86131745Y-71866125D01*
X86130634Y-71763414D01*
X86126665Y-71676895D01*
X86026335Y-71666735D01*
X86026335Y-71634985D01*
X86270175Y-71557515D01*
X86287955Y-71568945D01*
X86296845Y-71684515D01*
X86376620Y-71610055D01*
X86456677Y-71568898D01*
X86538145Y-71556245D01*
X86618869Y-71570810D01*
G37*
G36*
X79052765Y-71299705D02*
G01*
X78999425Y-71318755D01*
X78947901Y-71410694D01*
X78892507Y-71496099D01*
X78833422Y-71575104D01*
X78770825Y-71647844D01*
X78704894Y-71714452D01*
X78635808Y-71775062D01*
X78563746Y-71829808D01*
X78488885Y-71878825D01*
X78474915Y-71866125D01*
X78527801Y-71805358D01*
X78581059Y-71736228D01*
X78633752Y-71659894D01*
X78684941Y-71577517D01*
X78733690Y-71490260D01*
X78779060Y-71399281D01*
X78820114Y-71305742D01*
X78855915Y-71210805D01*
X79052765Y-71299705D01*
G37*
G36*
X83111685Y-71748015D02*
G01*
X83057075Y-71774685D01*
X83018975Y-71857235D01*
X83279325Y-71857235D01*
X83356795Y-71756905D01*
X83406642Y-71797069D01*
X83496495Y-71872475D01*
X83460935Y-71892795D01*
X83336475Y-71892795D01*
X83302655Y-71987857D01*
X83260651Y-72070783D01*
X83208205Y-72142985D01*
X83320136Y-72187663D01*
X83389041Y-72232996D01*
X83421781Y-72275948D01*
X83425216Y-72313483D01*
X83406208Y-72342564D01*
X83371618Y-72360155D01*
X83328307Y-72363221D01*
X83283135Y-72348725D01*
X83234546Y-72310766D01*
X83175514Y-72271114D01*
X83106605Y-72230615D01*
X83038005Y-72269050D01*
X82958005Y-72302182D01*
X82865569Y-72330193D01*
X82759661Y-72353267D01*
X82639245Y-72371585D01*
X82631625Y-72353805D01*
X82747493Y-72318404D01*
X82848001Y-72278240D01*
X82933984Y-72232361D01*
X83006275Y-72179815D01*
X82927676Y-72146042D01*
X82842304Y-72113681D01*
X82751005Y-72083295D01*
X82753966Y-72078215D01*
X82904675Y-72078215D01*
X82995480Y-72092503D01*
X83074855Y-72108695D01*
X83117235Y-72044536D01*
X83150585Y-71973040D01*
X83175185Y-71892795D01*
X83002465Y-71892795D01*
X82953094Y-71989791D01*
X82904675Y-72078215D01*
X82753966Y-72078215D01*
X82781438Y-72031084D01*
X82814975Y-71965326D01*
X82848795Y-71892795D01*
X82667185Y-71892795D01*
X82657025Y-71857235D01*
X82864035Y-71857235D01*
X82901341Y-71770875D01*
X82926265Y-71703565D01*
X83111685Y-71748015D01*
G37*
G36*
X85863775Y-71568945D02*
G01*
X85861235Y-71767065D01*
X85861235Y-71957565D01*
X85861611Y-72037058D01*
X85862552Y-72125299D01*
X85863775Y-72206485D01*
X85948865Y-72216645D01*
X85948865Y-72256015D01*
X85599615Y-72256015D01*
X85599615Y-72216645D01*
X85692325Y-72205215D01*
X85693548Y-72124358D01*
X85694489Y-72036728D01*
X85694865Y-71957565D01*
X85694865Y-71867395D01*
X85693912Y-71764207D01*
X85691055Y-71674355D01*
X85588185Y-71664195D01*
X85588185Y-71629905D01*
X85845995Y-71557515D01*
X85863775Y-71568945D01*
G37*
G36*
X91460665Y-71679435D02*
G01*
X90787565Y-71679435D01*
X90787565Y-71612125D01*
X91460665Y-71612125D01*
X91460665Y-71679435D01*
G37*
G36*
X93302165Y-71227315D02*
G01*
X93297085Y-71429245D01*
X93297085Y-71897875D01*
X93563785Y-71634985D01*
X93441865Y-71617205D01*
X93441865Y-71576565D01*
X93769525Y-71576565D01*
X93769525Y-71617205D01*
X93642525Y-71631175D01*
X93485045Y-71781035D01*
X93718725Y-72206485D01*
X93805085Y-72216645D01*
X93805085Y-72256015D01*
X93563785Y-72256015D01*
X93369475Y-71888985D01*
X93297085Y-71957565D01*
X93297508Y-72039315D01*
X93298778Y-72126428D01*
X93300895Y-72206485D01*
X93391065Y-72216645D01*
X93391065Y-72256015D01*
X93034195Y-72256015D01*
X93034195Y-72216645D01*
X93129445Y-72205215D01*
X93130668Y-72124076D01*
X93131609Y-72037011D01*
X93131985Y-71957565D01*
X93131985Y-71313675D01*
X93029115Y-71306055D01*
X93029115Y-71270495D01*
X93284385Y-71215885D01*
X93302165Y-71227315D01*
G37*
G36*
X85296602Y-71299658D02*
G01*
X85378541Y-71324305D01*
X85449755Y-71361935D01*
X85440865Y-71561325D01*
X85369745Y-71561325D01*
X85316405Y-71365745D01*
X85221155Y-71346695D01*
X85122424Y-71364898D01*
X85056149Y-71417815D01*
X85031925Y-71502905D01*
X85048905Y-71579811D01*
X85098341Y-71637243D01*
X85177975Y-71681975D01*
X85241475Y-71708645D01*
X85340332Y-71757332D01*
X85412976Y-71807969D01*
X85461845Y-71863727D01*
X85489379Y-71927776D01*
X85498015Y-72003285D01*
X85487308Y-72081561D01*
X85455964Y-72149006D01*
X85405146Y-72204104D01*
X85336019Y-72245338D01*
X85249748Y-72271190D01*
X85147495Y-72280145D01*
X85042367Y-72270879D01*
X84944013Y-72244961D01*
X84861745Y-72205215D01*
X84869365Y-71994395D01*
X84940485Y-71994395D01*
X84993825Y-72198865D01*
X85058595Y-72218709D01*
X85130985Y-72224265D01*
X85218178Y-72213093D01*
X85283702Y-72180609D01*
X85324938Y-72128360D01*
X85339265Y-72057895D01*
X85323931Y-71982071D01*
X85274166Y-71925439D01*
X85184325Y-71877555D01*
X85125905Y-71852155D01*
X85038305Y-71808315D01*
X84968262Y-71758988D01*
X84916873Y-71701736D01*
X84885235Y-71634121D01*
X84874445Y-71553705D01*
X84890244Y-71461991D01*
X84934999Y-71388747D01*
X85004747Y-71335072D01*
X85095527Y-71302062D01*
X85203375Y-71290815D01*
X85296602Y-71299658D01*
G37*
G36*
X84282625Y-71741665D02*
G01*
X84236905Y-71778495D01*
X84236905Y-71941055D01*
X84408355Y-71941055D01*
X84498525Y-71829295D01*
X84556310Y-71873269D01*
X84659815Y-71956295D01*
X84622985Y-71976615D01*
X84236905Y-71976615D01*
X84236905Y-72264905D01*
X84498525Y-72264905D01*
X84591235Y-72149335D01*
X84650449Y-72194896D01*
X84756335Y-72281415D01*
X84719505Y-72301735D01*
X83582855Y-72301735D01*
X83572695Y-72264905D01*
X84079425Y-72264905D01*
X84079425Y-71976615D01*
X83702235Y-71976615D01*
X83692075Y-71941055D01*
X84079425Y-71941055D01*
X84079425Y-71725155D01*
X84282625Y-71741665D01*
G37*
G36*
X83077253Y-71200442D02*
G01*
X83137877Y-71241996D01*
X83154123Y-71290256D01*
X83136414Y-71333030D01*
X83095175Y-71358125D01*
X83252655Y-71358125D01*
X83325045Y-71262875D01*
X83372035Y-71301134D01*
X83457125Y-71374635D01*
X83421565Y-71394955D01*
X82744655Y-71394955D01*
X82735765Y-71358125D01*
X83058345Y-71358125D01*
X83016435Y-71337805D01*
X82996115Y-71254302D01*
X82952935Y-71184135D01*
X82961825Y-71177785D01*
X83077253Y-71200442D01*
G37*
G36*
X81376865Y-71668005D02*
G01*
X81312095Y-71695945D01*
X81312095Y-72094725D01*
X81367646Y-72139410D01*
X81431804Y-72172806D01*
X81507040Y-72196325D01*
X81595822Y-72211377D01*
X81700621Y-72219373D01*
X81823905Y-72221725D01*
X81926874Y-72221408D01*
X82025676Y-72220138D01*
X82125193Y-72217439D01*
X82230305Y-72212835D01*
X82230305Y-72228075D01*
X82162995Y-72271255D01*
X82133785Y-72348725D01*
X81778185Y-72348725D01*
X81658905Y-72343604D01*
X81560121Y-72327652D01*
X81477989Y-72299989D01*
X81408662Y-72259731D01*
X81348296Y-72205997D01*
X81293045Y-72137905D01*
X81248595Y-72137905D01*
X81213835Y-72193409D01*
X81168632Y-72266128D01*
X81125405Y-72341105D01*
X81113975Y-72370315D01*
X81014915Y-72224265D01*
X81091115Y-72176481D01*
X81171125Y-72123935D01*
X81171125Y-71675625D01*
X81033965Y-71675625D01*
X81026345Y-71638795D01*
X81150805Y-71638795D01*
X81223195Y-71544815D01*
X81376865Y-71668005D01*
G37*
G36*
X88091831Y-71555927D02*
G01*
X88123105Y-71631175D01*
X88091831Y-71705311D01*
X88013885Y-71736585D01*
X87937050Y-71705311D01*
X87905935Y-71631175D01*
X87937050Y-71555927D01*
X88013885Y-71524495D01*
X88091831Y-71555927D01*
G37*
G36*
X84621080Y-71227950D02*
G01*
X84724585Y-71309865D01*
X84689025Y-71330185D01*
X84093395Y-71330185D01*
X84247065Y-71407655D01*
X84197535Y-71425435D01*
X84124173Y-71475104D01*
X84034499Y-71526559D01*
X83935538Y-71576347D01*
X83834315Y-71621015D01*
X83916506Y-71616688D01*
X84008399Y-71611372D01*
X84108476Y-71605140D01*
X84215221Y-71598061D01*
X84327116Y-71590206D01*
X84442645Y-71581645D01*
X84389493Y-71524495D01*
X84334084Y-71471578D01*
X84280085Y-71425435D01*
X84291515Y-71415275D01*
X84425276Y-71452409D01*
X84527522Y-71498831D01*
X84601177Y-71550801D01*
X84649167Y-71604576D01*
X84674420Y-71656416D01*
X84679861Y-71702579D01*
X84668415Y-71739324D01*
X84643010Y-71762910D01*
X84606572Y-71769594D01*
X84562025Y-71755635D01*
X84523607Y-71686737D01*
X84471855Y-71615935D01*
X84395088Y-71634426D01*
X84309791Y-71653917D01*
X84216296Y-71674318D01*
X84114937Y-71695541D01*
X84006046Y-71717498D01*
X83889958Y-71740099D01*
X83767005Y-71763255D01*
X83735255Y-71791195D01*
X83666675Y-71623555D01*
X83713665Y-71610855D01*
X83786847Y-71572765D01*
X83863566Y-71518277D01*
X83937602Y-71454767D01*
X84002737Y-71389611D01*
X84052755Y-71330185D01*
X83614605Y-71330185D01*
X83604445Y-71294625D01*
X84473125Y-71294625D01*
X84563295Y-71184135D01*
X84621080Y-71227950D01*
G37*
%TO.C,TP1*%
X103428000Y-47879000D02*
G75*
G03*
X103428000Y-47879000I-2700000J0D01*
G01*
%TO.C,TP6*%
X110429000Y-64389000D02*
G75*
G03*
X110429000Y-64389000I-1700000J0D01*
G01*
%TO.C,TP10*%
X96984000Y-77724000D02*
G75*
G03*
X96984000Y-77724000I-1700000J0D01*
G01*
%TO.C,R1*%
X84048364Y-66166000D02*
X84355646Y-66166000D01*
X84048364Y-65406000D02*
X84355646Y-65406000D01*
%TO.C,TP9*%
X103682000Y-76962000D02*
G75*
G03*
X103682000Y-76962000I-2700000J0D01*
G01*
%TO.C,TP7*%
X104714000Y-57404000D02*
G75*
G03*
X104714000Y-57404000I-1700000J0D01*
G01*
%TO.C,kibuzzard-6263F752*%
G36*
X88348113Y-80671491D02*
G01*
X88308684Y-80731836D01*
X88242822Y-80786228D01*
X88150410Y-80837405D01*
X88197082Y-80889792D01*
X88260900Y-80959325D01*
X88317580Y-81022449D01*
X88369744Y-81079081D01*
X88419650Y-81132045D01*
X88454793Y-81063445D01*
X88482674Y-80991869D01*
X88504125Y-80915768D01*
X88519980Y-80833595D01*
X88404410Y-80818355D01*
X88404410Y-80777715D01*
X88700320Y-80777715D01*
X88700320Y-80818355D01*
X88597450Y-80833595D01*
X88569550Y-80926206D01*
X88537125Y-81007744D01*
X88497080Y-81083805D01*
X88446320Y-81159985D01*
X88497402Y-81213278D01*
X88552718Y-81270522D01*
X88613960Y-81333975D01*
X88693970Y-81342865D01*
X88692700Y-81382235D01*
X88627771Y-81395411D01*
X88573320Y-81400015D01*
X88474577Y-81385093D01*
X88392980Y-81333975D01*
X88335830Y-81274285D01*
X88285486Y-81324133D01*
X88223594Y-81364455D01*
X88149557Y-81391443D01*
X88062780Y-81401285D01*
X87960713Y-81388047D01*
X87879311Y-81351460D01*
X87819732Y-81296220D01*
X87783136Y-81227021D01*
X87770680Y-81148555D01*
X87783400Y-81067077D01*
X87822909Y-80993932D01*
X87891231Y-80928885D01*
X87990390Y-80871695D01*
X87973880Y-80852645D01*
X87922939Y-80776821D01*
X87894858Y-80704949D01*
X87886250Y-80634205D01*
X87894237Y-80594835D01*
X88014520Y-80594835D01*
X88026744Y-80665320D01*
X88074210Y-80747235D01*
X88126280Y-80810735D01*
X88187851Y-80745354D01*
X88227692Y-80676303D01*
X88241850Y-80599915D01*
X88228444Y-80530535D01*
X88190486Y-80486838D01*
X88131360Y-80471645D01*
X88048175Y-80506094D01*
X88014520Y-80594835D01*
X87894237Y-80594835D01*
X87904209Y-80545682D01*
X87954671Y-80478471D01*
X88032518Y-80435787D01*
X88132630Y-80420845D01*
X88231035Y-80434220D01*
X88302651Y-80471645D01*
X88346407Y-80529073D01*
X88361230Y-80602455D01*
X88348113Y-80671491D01*
G37*
G36*
X91233970Y-80701515D02*
G01*
X91401610Y-80701515D01*
X91401610Y-80754855D01*
X91232700Y-80754855D01*
X91232700Y-81224755D01*
X91254925Y-81301590D01*
X91315250Y-81325085D01*
X91405420Y-81286985D01*
X91428280Y-81311115D01*
X91383689Y-81359892D01*
X91323011Y-81390608D01*
X91245400Y-81401285D01*
X91167732Y-81390331D01*
X91110780Y-81356518D01*
X91075736Y-81298415D01*
X91063790Y-81214595D01*
X91064425Y-81154905D01*
X91065060Y-81087595D01*
X91065060Y-80754855D01*
X90955840Y-80754855D01*
X90955840Y-80712945D01*
X91073950Y-80700245D01*
X91128560Y-80500855D01*
X91237780Y-80500855D01*
X91233970Y-80701515D01*
G37*
G36*
X94829658Y-80699451D02*
G01*
X94872520Y-80762475D01*
X94849660Y-80832166D01*
X94784890Y-80858995D01*
X94730915Y-80842326D01*
X94684560Y-80798035D01*
X94670590Y-80782795D01*
X94623177Y-80830067D01*
X94585923Y-80890886D01*
X94556290Y-80969485D01*
X94556290Y-81082515D01*
X94556666Y-81160126D01*
X94557607Y-81246204D01*
X94558830Y-81326355D01*
X94675670Y-81341595D01*
X94675670Y-81380965D01*
X94293400Y-81380965D01*
X94293400Y-81341595D01*
X94386110Y-81330165D01*
X94387333Y-81249308D01*
X94388274Y-81161678D01*
X94388650Y-81082515D01*
X94388650Y-80991075D01*
X94387539Y-80888364D01*
X94383570Y-80801845D01*
X94283240Y-80791685D01*
X94283240Y-80759935D01*
X94527080Y-80682465D01*
X94544860Y-80693895D01*
X94556290Y-80870425D01*
X94609771Y-80767179D01*
X94681032Y-80703161D01*
X94758220Y-80681195D01*
X94829658Y-80699451D01*
G37*
G36*
X102106581Y-81357964D02*
G01*
X102037701Y-81305559D01*
X101985226Y-81234209D01*
X101951800Y-81145080D01*
X101940211Y-81040605D01*
X102119140Y-81040605D01*
X102126059Y-81154184D01*
X102146450Y-81242098D01*
X102179765Y-81304592D01*
X102225454Y-81341910D01*
X102282970Y-81354295D01*
X102339510Y-81341910D01*
X102385078Y-81304592D01*
X102418758Y-81242098D01*
X102439637Y-81154184D01*
X102446800Y-81040605D01*
X102439637Y-80927646D01*
X102418758Y-80840108D01*
X102385078Y-80777806D01*
X102339510Y-80740560D01*
X102282970Y-80728185D01*
X102225454Y-80740560D01*
X102179765Y-80777806D01*
X102146450Y-80840108D01*
X102126059Y-80927646D01*
X102119140Y-81040605D01*
X101940211Y-81040605D01*
X101940070Y-81039335D01*
X101952594Y-80933872D01*
X101987766Y-80845448D01*
X102041988Y-80775016D01*
X102111661Y-80723528D01*
X102193188Y-80691937D01*
X102282970Y-80681195D01*
X102372311Y-80691849D01*
X102453714Y-80723246D01*
X102523476Y-80774540D01*
X102577892Y-80844884D01*
X102613258Y-80933431D01*
X102625870Y-81039335D01*
X102613964Y-81145521D01*
X102580150Y-81234774D01*
X102527286Y-81306035D01*
X102458230Y-81358246D01*
X102375839Y-81390349D01*
X102282970Y-81401285D01*
X102189219Y-81390261D01*
X102106581Y-81357964D01*
G37*
G36*
X103333260Y-81335245D02*
G01*
X103390410Y-81293335D01*
X103413270Y-81312385D01*
X103353739Y-81380013D01*
X103268490Y-81400015D01*
X103176415Y-81369853D01*
X103130060Y-81288255D01*
X103064584Y-81350297D01*
X102998262Y-81388350D01*
X102916700Y-81401285D01*
X102821544Y-81380871D01*
X102756586Y-81322639D01*
X102732550Y-81231105D01*
X102736439Y-81208245D01*
X102891300Y-81208245D01*
X102919240Y-81291589D01*
X102992900Y-81318735D01*
X103052749Y-81303178D01*
X103124980Y-81251425D01*
X103124980Y-81001235D01*
X103029730Y-81031715D01*
X102949250Y-81077482D01*
X102904894Y-81136231D01*
X102891300Y-81208245D01*
X102736439Y-81208245D01*
X102744734Y-81159489D01*
X102786207Y-81100136D01*
X102864352Y-81049118D01*
X102986550Y-81002505D01*
X103051479Y-80982979D01*
X103124980Y-80964405D01*
X103124980Y-80899635D01*
X103112562Y-80795354D01*
X103071358Y-80742719D01*
X102995440Y-80728185D01*
X102929400Y-80735805D01*
X102911620Y-80827245D01*
X102884633Y-80902334D01*
X102829070Y-80925035D01*
X102778111Y-80910112D01*
X102752870Y-80866615D01*
X102781643Y-80789423D01*
X102842088Y-80731042D01*
X102932535Y-80694093D01*
X103051320Y-80681195D01*
X103139773Y-80690146D01*
X103206341Y-80718055D01*
X103252305Y-80766509D01*
X103278945Y-80837090D01*
X103287540Y-80931385D01*
X103287540Y-81259045D01*
X103299923Y-81318576D01*
X103333260Y-81335245D01*
G37*
G36*
X98956840Y-80687545D02*
G01*
X98888260Y-80687545D01*
X98840000Y-80491965D01*
X98549170Y-80491965D01*
X98546967Y-80585846D01*
X98545836Y-80681036D01*
X98545420Y-80777894D01*
X98545360Y-80876775D01*
X98735860Y-80876775D01*
X98754910Y-80738345D01*
X98814600Y-80738345D01*
X98814600Y-81058385D01*
X98754910Y-81058385D01*
X98737130Y-80925035D01*
X98545360Y-80925035D01*
X98545420Y-81030465D01*
X98545836Y-81132204D01*
X98546967Y-81231323D01*
X98549170Y-81328895D01*
X98865400Y-81328895D01*
X98914930Y-81125695D01*
X98984780Y-81125695D01*
X98980970Y-81380965D01*
X98245640Y-81380965D01*
X98245640Y-81336515D01*
X98366290Y-81325085D01*
X98367758Y-81230331D01*
X98368513Y-81134744D01*
X98368790Y-81038442D01*
X98368830Y-80941545D01*
X98368830Y-80879315D01*
X98368790Y-80783847D01*
X98368513Y-80688021D01*
X98367758Y-80591958D01*
X98366290Y-80495775D01*
X98245640Y-80484345D01*
X98245640Y-80438625D01*
X98955570Y-80438625D01*
X98956840Y-80687545D01*
G37*
G36*
X85683317Y-80424608D02*
G01*
X85765256Y-80449255D01*
X85836470Y-80486885D01*
X85827580Y-80686275D01*
X85756460Y-80686275D01*
X85703120Y-80490695D01*
X85607870Y-80471645D01*
X85509139Y-80489848D01*
X85442864Y-80542765D01*
X85418640Y-80627855D01*
X85435620Y-80704761D01*
X85485056Y-80762193D01*
X85564690Y-80806925D01*
X85628190Y-80833595D01*
X85727047Y-80882282D01*
X85799691Y-80932919D01*
X85848560Y-80988677D01*
X85876094Y-81052726D01*
X85884730Y-81128235D01*
X85874023Y-81206511D01*
X85842679Y-81273956D01*
X85791861Y-81329054D01*
X85722734Y-81370288D01*
X85636463Y-81396140D01*
X85534210Y-81405095D01*
X85429082Y-81395829D01*
X85330728Y-81369911D01*
X85248460Y-81330165D01*
X85256080Y-81119345D01*
X85327200Y-81119345D01*
X85380540Y-81323815D01*
X85445310Y-81343659D01*
X85517700Y-81349215D01*
X85604893Y-81338043D01*
X85670417Y-81305559D01*
X85711653Y-81253310D01*
X85725980Y-81182845D01*
X85710646Y-81107021D01*
X85660881Y-81050389D01*
X85571040Y-81002505D01*
X85512620Y-80977105D01*
X85425020Y-80933265D01*
X85354977Y-80883938D01*
X85303588Y-80826686D01*
X85271950Y-80759071D01*
X85261160Y-80678655D01*
X85276959Y-80586941D01*
X85321714Y-80513697D01*
X85391462Y-80460022D01*
X85482242Y-80427012D01*
X85590090Y-80415765D01*
X85683317Y-80424608D01*
G37*
G36*
X89522010Y-80687545D02*
G01*
X89453430Y-80687545D01*
X89405170Y-80491965D01*
X89107990Y-80491965D01*
X89105787Y-80585846D01*
X89104656Y-80681036D01*
X89104240Y-80777894D01*
X89104180Y-80876775D01*
X89298490Y-80876775D01*
X89317540Y-80738345D01*
X89377230Y-80738345D01*
X89377230Y-81068545D01*
X89317540Y-81068545D01*
X89298490Y-80925035D01*
X89104180Y-80925035D01*
X89104240Y-81028957D01*
X89104656Y-81129664D01*
X89105787Y-81227751D01*
X89107990Y-81323815D01*
X89243880Y-81336515D01*
X89243880Y-81380965D01*
X88804460Y-81380965D01*
X88804460Y-81336515D01*
X88925110Y-81325085D01*
X88926578Y-81230331D01*
X88927332Y-81134744D01*
X88927610Y-81038442D01*
X88927650Y-80941545D01*
X88927650Y-80879315D01*
X88927610Y-80783847D01*
X88927332Y-80688021D01*
X88926578Y-80591958D01*
X88925110Y-80495775D01*
X88804460Y-80484345D01*
X88804460Y-80438625D01*
X89520740Y-80438625D01*
X89522010Y-80687545D01*
G37*
G36*
X92948470Y-80352265D02*
G01*
X92943390Y-80554195D01*
X92943390Y-80812005D01*
X93019872Y-80739145D01*
X93099741Y-80695635D01*
X93187230Y-80681195D01*
X93268490Y-80695264D01*
X93329629Y-80739456D01*
X93368145Y-80816748D01*
X93381540Y-80930115D01*
X93381540Y-81082515D01*
X93381916Y-81163136D01*
X93382857Y-81250814D01*
X93384080Y-81331435D01*
X93470440Y-81341595D01*
X93470440Y-81380965D01*
X93122460Y-81380965D01*
X93122460Y-81341595D01*
X93213900Y-81330165D01*
X93215123Y-81250437D01*
X93216064Y-81163089D01*
X93216440Y-81082515D01*
X93216440Y-80919955D01*
X93204446Y-80832325D01*
X93169591Y-80785335D01*
X93113570Y-80771365D01*
X93034036Y-80791209D01*
X92945930Y-80853915D01*
X92945930Y-81082515D01*
X92946353Y-81162008D01*
X92947623Y-81250249D01*
X92949740Y-81331435D01*
X93031020Y-81341595D01*
X93031020Y-81380965D01*
X92685580Y-81380965D01*
X92685580Y-81341595D01*
X92778290Y-81330165D01*
X92779513Y-81249308D01*
X92780454Y-81161678D01*
X92780830Y-81082515D01*
X92780830Y-80438625D01*
X92677960Y-80431005D01*
X92677960Y-80395445D01*
X92929420Y-80340835D01*
X92948470Y-80352265D01*
G37*
G36*
X84622350Y-80484345D02*
G01*
X84492810Y-80497045D01*
X84490607Y-80590072D01*
X84489476Y-80684052D01*
X84489060Y-80778509D01*
X84489000Y-80872965D01*
X84489000Y-80991075D01*
X84498886Y-81113828D01*
X84527852Y-81203785D01*
X84574862Y-81264115D01*
X84638880Y-81297988D01*
X84718870Y-81308575D01*
X84803188Y-81296911D01*
X84869766Y-81260376D01*
X84917935Y-81196652D01*
X84947023Y-81103424D01*
X84956360Y-80978375D01*
X84952550Y-80503395D01*
X84805230Y-80484345D01*
X84805230Y-80438625D01*
X85144320Y-80438625D01*
X85144320Y-80484345D01*
X85016050Y-80502125D01*
X85010970Y-80992345D01*
X85002913Y-81105582D01*
X84980260Y-81199692D01*
X84943656Y-81275296D01*
X84893745Y-81333016D01*
X84831171Y-81373475D01*
X84756578Y-81397294D01*
X84670610Y-81405095D01*
X84584061Y-81398356D01*
X84507110Y-81377311D01*
X84441110Y-81340714D01*
X84387419Y-81287322D01*
X84347389Y-81215891D01*
X84322378Y-81125177D01*
X84313740Y-81013935D01*
X84313740Y-80872965D01*
X84313680Y-80779203D01*
X84313264Y-80684846D01*
X84312133Y-80590251D01*
X84309930Y-80495775D01*
X84198170Y-80484345D01*
X84198170Y-80438625D01*
X84622350Y-80438625D01*
X84622350Y-80484345D01*
G37*
G36*
X86116068Y-80590291D02*
G01*
X86114600Y-80495775D01*
X85993950Y-80484345D01*
X85993950Y-80438625D01*
X86418130Y-80438625D01*
X86537734Y-80449435D01*
X86627893Y-80479997D01*
X86690255Y-80527505D01*
X86726466Y-80589156D01*
X86738170Y-80662145D01*
X86725589Y-80732193D01*
X86684195Y-80794860D01*
X86608511Y-80846097D01*
X86493060Y-80881855D01*
X86604922Y-80904380D01*
X86688742Y-80940742D01*
X86746349Y-80989846D01*
X86779572Y-81050592D01*
X86790240Y-81121885D01*
X86781844Y-81184732D01*
X86754398Y-81244934D01*
X86704515Y-81298574D01*
X86628809Y-81341736D01*
X86523893Y-81370505D01*
X86386380Y-81380965D01*
X85993950Y-81380965D01*
X85993950Y-81336515D01*
X86114600Y-81325085D01*
X86116068Y-81227474D01*
X86116822Y-81129029D01*
X86117100Y-81029870D01*
X86117140Y-80930115D01*
X86117140Y-80914875D01*
X86291130Y-80914875D01*
X86291190Y-81024611D01*
X86291606Y-81129823D01*
X86292737Y-81231700D01*
X86294940Y-81331435D01*
X86373680Y-81331435D01*
X86473613Y-81318001D01*
X86547352Y-81278254D01*
X86592993Y-81213027D01*
X86608630Y-81123155D01*
X86593866Y-81031140D01*
X86548622Y-80966151D01*
X86471470Y-80927595D01*
X86360980Y-80914875D01*
X86291130Y-80914875D01*
X86117140Y-80914875D01*
X86117140Y-80875505D01*
X86117136Y-80866615D01*
X86291130Y-80866615D01*
X86350820Y-80866615D01*
X86446169Y-80853697D01*
X86513539Y-80815656D01*
X86553524Y-80753565D01*
X86566720Y-80668495D01*
X86555250Y-80591025D01*
X86519730Y-80534510D01*
X86458492Y-80499902D01*
X86369870Y-80488155D01*
X86294940Y-80488155D01*
X86292737Y-80581044D01*
X86291606Y-80675004D01*
X86291190Y-80770155D01*
X86291130Y-80866615D01*
X86117136Y-80866615D01*
X86117100Y-80780275D01*
X86116822Y-80685164D01*
X86116068Y-80590291D01*
G37*
G36*
X99535207Y-80424608D02*
G01*
X99617146Y-80449255D01*
X99688360Y-80486885D01*
X99679470Y-80686275D01*
X99608350Y-80686275D01*
X99555010Y-80490695D01*
X99459760Y-80471645D01*
X99361029Y-80489848D01*
X99294754Y-80542765D01*
X99270530Y-80627855D01*
X99287510Y-80704761D01*
X99336946Y-80762193D01*
X99416580Y-80806925D01*
X99480080Y-80833595D01*
X99578937Y-80882282D01*
X99651581Y-80932919D01*
X99700450Y-80988677D01*
X99727984Y-81052726D01*
X99736620Y-81128235D01*
X99725913Y-81206511D01*
X99694569Y-81273956D01*
X99643751Y-81329054D01*
X99574624Y-81370288D01*
X99488353Y-81396140D01*
X99386100Y-81405095D01*
X99280972Y-81395829D01*
X99182618Y-81369911D01*
X99100350Y-81330165D01*
X99107970Y-81119345D01*
X99179090Y-81119345D01*
X99232430Y-81323815D01*
X99297200Y-81343659D01*
X99369590Y-81349215D01*
X99456783Y-81338043D01*
X99522308Y-81305559D01*
X99563543Y-81253310D01*
X99577870Y-81182845D01*
X99562536Y-81107021D01*
X99512771Y-81050389D01*
X99422930Y-81002505D01*
X99364510Y-80977105D01*
X99276910Y-80933265D01*
X99206867Y-80883938D01*
X99155478Y-80826686D01*
X99123840Y-80759071D01*
X99113050Y-80678655D01*
X99128849Y-80586941D01*
X99173604Y-80513697D01*
X99243352Y-80460022D01*
X99334132Y-80427012D01*
X99441980Y-80415765D01*
X99535207Y-80424608D01*
G37*
G36*
X90225590Y-81335245D02*
G01*
X90282740Y-81293335D01*
X90305600Y-81312385D01*
X90246069Y-81380013D01*
X90160820Y-81400015D01*
X90068745Y-81369853D01*
X90022390Y-81288255D01*
X89956914Y-81350297D01*
X89890592Y-81388350D01*
X89809030Y-81401285D01*
X89713874Y-81380871D01*
X89648916Y-81322639D01*
X89624880Y-81231105D01*
X89628769Y-81208245D01*
X89783630Y-81208245D01*
X89811570Y-81291589D01*
X89885230Y-81318735D01*
X89945079Y-81303178D01*
X90017310Y-81251425D01*
X90017310Y-81001235D01*
X89922060Y-81031715D01*
X89841580Y-81077482D01*
X89797224Y-81136231D01*
X89783630Y-81208245D01*
X89628769Y-81208245D01*
X89637064Y-81159489D01*
X89678537Y-81100136D01*
X89756682Y-81049118D01*
X89878880Y-81002505D01*
X89943809Y-80982979D01*
X90017310Y-80964405D01*
X90017310Y-80899635D01*
X90004892Y-80795354D01*
X89963688Y-80742719D01*
X89887770Y-80728185D01*
X89821730Y-80735805D01*
X89803950Y-80827245D01*
X89776962Y-80902334D01*
X89721400Y-80925035D01*
X89670441Y-80910112D01*
X89645200Y-80866615D01*
X89673973Y-80789423D01*
X89734417Y-80731042D01*
X89824865Y-80694093D01*
X89943650Y-80681195D01*
X90032103Y-80690146D01*
X90098671Y-80718055D01*
X90144635Y-80766509D01*
X90171275Y-80837090D01*
X90179870Y-80931385D01*
X90179870Y-81259045D01*
X90192252Y-81318576D01*
X90225590Y-81335245D01*
G37*
G36*
X100639590Y-80701515D02*
G01*
X100568470Y-80701515D01*
X100516400Y-80491965D01*
X100319550Y-80491965D01*
X100318082Y-80587671D01*
X100317328Y-80684211D01*
X100317050Y-80781465D01*
X100317010Y-80879315D01*
X100317010Y-80941545D01*
X100317050Y-81037013D01*
X100317328Y-81132839D01*
X100318082Y-81228902D01*
X100319550Y-81325085D01*
X100455440Y-81336515D01*
X100455440Y-81380965D01*
X100002050Y-81380965D01*
X100002050Y-81336515D01*
X100137940Y-81325085D01*
X100138674Y-81230331D01*
X100139051Y-81134744D01*
X100139190Y-81038442D01*
X100139210Y-80941545D01*
X100139210Y-80879315D01*
X100139190Y-80782716D01*
X100139051Y-80685640D01*
X100138674Y-80588564D01*
X100137940Y-80491965D01*
X99941090Y-80491965D01*
X99887750Y-80701515D01*
X99816630Y-80701515D01*
X99825520Y-80438625D01*
X100631970Y-80438625D01*
X100639590Y-80701515D01*
G37*
G36*
X101166838Y-80590291D02*
G01*
X101165370Y-80495775D01*
X101044720Y-80484345D01*
X101044720Y-80438625D01*
X101468900Y-80438625D01*
X101588504Y-80449435D01*
X101678663Y-80479997D01*
X101741025Y-80527505D01*
X101777236Y-80589156D01*
X101788940Y-80662145D01*
X101776359Y-80732193D01*
X101734965Y-80794860D01*
X101659281Y-80846097D01*
X101543830Y-80881855D01*
X101655692Y-80904380D01*
X101739512Y-80940742D01*
X101797119Y-80989846D01*
X101830342Y-81050592D01*
X101841010Y-81121885D01*
X101832614Y-81184732D01*
X101805168Y-81244934D01*
X101755285Y-81298574D01*
X101679579Y-81341736D01*
X101574663Y-81370505D01*
X101437150Y-81380965D01*
X101044720Y-81380965D01*
X101044720Y-81336515D01*
X101165370Y-81325085D01*
X101166838Y-81227474D01*
X101167593Y-81129029D01*
X101167870Y-81029870D01*
X101167910Y-80930115D01*
X101167910Y-80914875D01*
X101341900Y-80914875D01*
X101341960Y-81024611D01*
X101342376Y-81129823D01*
X101343507Y-81231700D01*
X101345710Y-81331435D01*
X101424450Y-81331435D01*
X101524383Y-81318001D01*
X101598123Y-81278254D01*
X101643763Y-81213027D01*
X101659400Y-81123155D01*
X101644636Y-81031140D01*
X101599393Y-80966151D01*
X101522240Y-80927595D01*
X101411750Y-80914875D01*
X101341900Y-80914875D01*
X101167910Y-80914875D01*
X101167910Y-80875505D01*
X101167906Y-80866615D01*
X101341900Y-80866615D01*
X101401590Y-80866615D01*
X101496939Y-80853697D01*
X101564309Y-80815656D01*
X101604294Y-80753565D01*
X101617490Y-80668495D01*
X101606020Y-80591025D01*
X101570500Y-80534510D01*
X101509262Y-80499902D01*
X101420640Y-80488155D01*
X101345710Y-80488155D01*
X101343507Y-80581044D01*
X101342376Y-80675004D01*
X101341960Y-80770155D01*
X101341900Y-80866615D01*
X101167906Y-80866615D01*
X101167870Y-80780275D01*
X101167593Y-80685164D01*
X101166838Y-80590291D01*
G37*
G36*
X95859310Y-81038065D02*
G01*
X95872813Y-81141738D01*
X95905152Y-81220356D01*
X95953219Y-81275077D01*
X96013905Y-81307061D01*
X96084100Y-81317465D01*
X96164251Y-81305376D01*
X96225776Y-81271557D01*
X96274600Y-81219675D01*
X96300000Y-81237455D01*
X96253585Y-81306988D01*
X96191574Y-81358423D01*
X96115513Y-81390331D01*
X96026950Y-81401285D01*
X95932223Y-81390619D01*
X95849103Y-81359140D01*
X95780094Y-81307623D01*
X95727700Y-81236844D01*
X95694428Y-81147579D01*
X95682780Y-81040605D01*
X95688967Y-80991075D01*
X95859310Y-80991075D01*
X96076480Y-80991075D01*
X96134583Y-80968374D01*
X96148870Y-80897095D01*
X96131843Y-80807584D01*
X96085464Y-80749116D01*
X96016790Y-80728185D01*
X95959501Y-80743187D01*
X95910904Y-80790097D01*
X95875880Y-80871774D01*
X95859310Y-80991075D01*
X95688967Y-80991075D01*
X95696021Y-80934607D01*
X95732827Y-80845825D01*
X95788825Y-80775175D01*
X95859639Y-80723575D01*
X95940896Y-80691943D01*
X96028220Y-80681195D01*
X96124090Y-80694759D01*
X96201732Y-80733011D01*
X96259380Y-80792295D01*
X96295265Y-80868952D01*
X96307620Y-80959325D01*
X96298730Y-81038065D01*
X95859310Y-81038065D01*
G37*
G36*
X104845830Y-81341595D02*
G01*
X104845830Y-81380965D01*
X104595640Y-81394935D01*
X104586750Y-81309845D01*
X104531199Y-81359516D01*
X104465771Y-81390561D01*
X104389900Y-81401285D01*
X104310590Y-81390302D01*
X104240557Y-81358293D01*
X104182096Y-81306670D01*
X104137499Y-81236844D01*
X104109059Y-81150225D01*
X104099070Y-81048225D01*
X104099831Y-81040605D01*
X104276870Y-81040605D01*
X104290622Y-81169450D01*
X104328781Y-81256029D01*
X104386705Y-81304745D01*
X104459750Y-81320005D01*
X104523726Y-81308416D01*
X104582940Y-81269205D01*
X104582940Y-80809465D01*
X104521663Y-80772000D01*
X104462290Y-80761205D01*
X104390991Y-80775572D01*
X104331956Y-80822800D01*
X104291733Y-80909081D01*
X104276870Y-81040605D01*
X104099831Y-81040605D01*
X104109753Y-80941222D01*
X104140086Y-80850905D01*
X104187494Y-80778509D01*
X104249400Y-80725269D01*
X104323231Y-80692419D01*
X104406410Y-80681195D01*
X104473297Y-80690414D01*
X104534257Y-80719389D01*
X104589290Y-80770095D01*
X104589290Y-80439895D01*
X104480070Y-80431005D01*
X104480070Y-80395445D01*
X104736610Y-80340835D01*
X104754390Y-80352265D01*
X104750580Y-80552925D01*
X104750580Y-81333975D01*
X104845830Y-81341595D01*
G37*
G36*
X94163860Y-81335245D02*
G01*
X94221010Y-81293335D01*
X94243870Y-81312385D01*
X94184339Y-81380013D01*
X94099090Y-81400015D01*
X94007015Y-81369853D01*
X93960660Y-81288255D01*
X93895184Y-81350297D01*
X93828862Y-81388350D01*
X93747300Y-81401285D01*
X93652144Y-81380871D01*
X93587186Y-81322639D01*
X93563150Y-81231105D01*
X93567039Y-81208245D01*
X93721900Y-81208245D01*
X93749840Y-81291589D01*
X93823500Y-81318735D01*
X93883349Y-81303178D01*
X93955580Y-81251425D01*
X93955580Y-81001235D01*
X93860330Y-81031715D01*
X93779850Y-81077482D01*
X93735494Y-81136231D01*
X93721900Y-81208245D01*
X93567039Y-81208245D01*
X93575334Y-81159489D01*
X93616807Y-81100136D01*
X93694952Y-81049118D01*
X93817150Y-81002505D01*
X93882079Y-80982979D01*
X93955580Y-80964405D01*
X93955580Y-80899635D01*
X93943162Y-80795354D01*
X93901958Y-80742719D01*
X93826040Y-80728185D01*
X93760000Y-80735805D01*
X93742220Y-80827245D01*
X93715232Y-80902334D01*
X93659670Y-80925035D01*
X93608711Y-80910112D01*
X93583470Y-80866615D01*
X93612243Y-80789423D01*
X93672687Y-80731042D01*
X93763135Y-80694093D01*
X93881920Y-80681195D01*
X93970373Y-80690146D01*
X94036941Y-80718055D01*
X94082905Y-80766509D01*
X94109545Y-80837090D01*
X94118140Y-80931385D01*
X94118140Y-81259045D01*
X94130522Y-81318576D01*
X94163860Y-81335245D01*
G37*
G36*
X96941668Y-80699451D02*
G01*
X96984530Y-80762475D01*
X96961670Y-80832166D01*
X96896900Y-80858995D01*
X96842925Y-80842326D01*
X96796570Y-80798035D01*
X96782600Y-80782795D01*
X96735187Y-80830067D01*
X96697933Y-80890886D01*
X96668300Y-80969485D01*
X96668300Y-81082515D01*
X96668676Y-81160126D01*
X96669617Y-81246204D01*
X96670840Y-81326355D01*
X96787680Y-81341595D01*
X96787680Y-81380965D01*
X96405410Y-81380965D01*
X96405410Y-81341595D01*
X96498120Y-81330165D01*
X96499343Y-81249308D01*
X96500284Y-81161678D01*
X96500660Y-81082515D01*
X96500660Y-80991075D01*
X96499549Y-80888364D01*
X96495580Y-80801845D01*
X96395250Y-80791685D01*
X96395250Y-80759935D01*
X96639090Y-80682465D01*
X96656870Y-80693895D01*
X96668300Y-80870425D01*
X96721781Y-80767179D01*
X96793042Y-80703161D01*
X96870230Y-80681195D01*
X96941668Y-80699451D01*
G37*
G36*
X88053655Y-80946907D02*
G01*
X88100269Y-81003069D01*
X88159300Y-81073625D01*
X88206337Y-81128517D01*
X88256196Y-81185949D01*
X88309160Y-81245075D01*
X88228832Y-81290319D01*
X88131360Y-81306035D01*
X88043909Y-81290041D01*
X87976579Y-81245710D01*
X87933300Y-81178519D01*
X87918000Y-81093945D01*
X87926890Y-81026588D01*
X87956947Y-80960642D01*
X88013250Y-80898365D01*
X88053655Y-80946907D01*
G37*
G36*
X98159280Y-80701515D02*
G01*
X98088160Y-80701515D01*
X98036090Y-80491965D01*
X97839240Y-80491965D01*
X97837772Y-80587671D01*
X97837018Y-80684211D01*
X97836740Y-80781465D01*
X97836700Y-80879315D01*
X97836700Y-80941545D01*
X97836740Y-81037013D01*
X97837018Y-81132839D01*
X97837772Y-81228902D01*
X97839240Y-81325085D01*
X97975130Y-81336515D01*
X97975130Y-81380965D01*
X97521740Y-81380965D01*
X97521740Y-81336515D01*
X97657630Y-81325085D01*
X97658364Y-81230331D01*
X97658741Y-81134744D01*
X97658880Y-81038442D01*
X97658900Y-80941545D01*
X97658900Y-80879315D01*
X97658880Y-80782716D01*
X97658741Y-80685640D01*
X97658364Y-80588564D01*
X97657630Y-80491965D01*
X97460780Y-80491965D01*
X97407440Y-80701515D01*
X97336320Y-80701515D01*
X97345210Y-80438625D01*
X98151660Y-80438625D01*
X98159280Y-80701515D01*
G37*
G36*
X103999058Y-80699451D02*
G01*
X104041920Y-80762475D01*
X104019060Y-80832166D01*
X103954290Y-80858995D01*
X103900315Y-80842326D01*
X103853960Y-80798035D01*
X103839990Y-80782795D01*
X103792577Y-80830067D01*
X103755323Y-80890886D01*
X103725690Y-80969485D01*
X103725690Y-81082515D01*
X103726066Y-81160126D01*
X103727007Y-81246204D01*
X103728230Y-81326355D01*
X103845070Y-81341595D01*
X103845070Y-81380965D01*
X103462800Y-81380965D01*
X103462800Y-81341595D01*
X103555510Y-81330165D01*
X103556733Y-81249308D01*
X103557674Y-81161678D01*
X103558050Y-81082515D01*
X103558050Y-80991075D01*
X103556939Y-80888364D01*
X103552970Y-80801845D01*
X103452640Y-80791685D01*
X103452640Y-80759935D01*
X103696480Y-80682465D01*
X103714260Y-80693895D01*
X103725690Y-80870425D01*
X103779171Y-80767179D01*
X103850432Y-80703161D01*
X103927620Y-80681195D01*
X103999058Y-80699451D01*
G37*
G36*
X95605310Y-80695165D02*
G01*
X95605310Y-80787875D01*
X95456720Y-80776445D01*
X95488153Y-80838675D01*
X95498630Y-80912335D01*
X95486905Y-80990059D01*
X95452382Y-81055286D01*
X95396034Y-81105273D01*
X95318839Y-81137277D01*
X95221770Y-81148555D01*
X95147475Y-81142205D01*
X95084610Y-81124425D01*
X95056670Y-81204435D01*
X95078260Y-81256505D01*
X95153190Y-81274285D01*
X95339880Y-81274285D01*
X95456383Y-81287382D01*
X95535619Y-81324768D01*
X95580803Y-81383584D01*
X95595150Y-81460975D01*
X95584302Y-81525810D01*
X95551970Y-81585106D01*
X95498471Y-81636076D01*
X95424123Y-81675934D01*
X95329244Y-81701893D01*
X95214150Y-81711165D01*
X95099718Y-81702478D01*
X95015278Y-81678247D01*
X94958209Y-81641213D01*
X94925890Y-81594122D01*
X94915700Y-81539715D01*
X94922045Y-81514315D01*
X95026190Y-81514315D01*
X95049238Y-81593290D01*
X95114055Y-81641503D01*
X95214150Y-81657825D01*
X95321763Y-81647486D01*
X95398776Y-81618931D01*
X95445072Y-81575850D01*
X95460530Y-81521935D01*
X95433860Y-81446688D01*
X95338610Y-81415255D01*
X95191290Y-81415255D01*
X95120329Y-81413033D01*
X95069370Y-81405095D01*
X95036826Y-81455895D01*
X95026190Y-81514315D01*
X94922045Y-81514315D01*
X94929529Y-81484352D01*
X94972144Y-81435481D01*
X95045240Y-81393665D01*
X94978089Y-81350326D01*
X94953800Y-81279365D01*
X94977613Y-81197291D01*
X95056670Y-81110455D01*
X94996745Y-81060502D01*
X94959962Y-80993615D01*
X94947841Y-80914875D01*
X95098580Y-80914875D01*
X95112691Y-81016193D01*
X95153896Y-81081951D01*
X95220500Y-81105375D01*
X95289880Y-81081527D01*
X95333577Y-81014499D01*
X95348770Y-80911065D01*
X95333718Y-80810970D01*
X95291009Y-80746153D01*
X95224310Y-80723105D01*
X95156718Y-80746576D01*
X95113679Y-80812664D01*
X95098580Y-80914875D01*
X94947841Y-80914875D01*
X94947450Y-80912335D01*
X94959053Y-80835627D01*
X94993333Y-80771721D01*
X95049497Y-80723054D01*
X95126754Y-80692066D01*
X95224310Y-80681195D01*
X95303332Y-80688204D01*
X95369654Y-80708476D01*
X95422430Y-80740885D01*
X95583720Y-80681195D01*
X95605310Y-80695165D01*
G37*
G36*
X87489916Y-80423479D02*
G01*
X87577734Y-80446998D01*
X87662730Y-80486885D01*
X87660190Y-80706595D01*
X87587800Y-80706595D01*
X87531920Y-80489425D01*
X87476199Y-80472915D01*
X87417620Y-80467835D01*
X87340146Y-80476792D01*
X87269959Y-80503721D01*
X87208748Y-80548711D01*
X87158199Y-80611852D01*
X87120003Y-80693232D01*
X87095847Y-80792940D01*
X87087420Y-80911065D01*
X87095714Y-81029919D01*
X87119559Y-81129757D01*
X87157400Y-81210844D01*
X87207681Y-81273448D01*
X87268849Y-81317835D01*
X87339347Y-81344272D01*
X87417620Y-81353025D01*
X87480326Y-81347151D01*
X87542080Y-81328895D01*
X87597960Y-81114265D01*
X87671620Y-81114265D01*
X87672890Y-81332705D01*
X87587894Y-81371793D01*
X87494149Y-81396487D01*
X87389680Y-81405095D01*
X87298569Y-81398520D01*
X87213950Y-81379026D01*
X87136950Y-81346957D01*
X87068699Y-81302659D01*
X87010326Y-81246476D01*
X86962960Y-81178753D01*
X86927729Y-81099835D01*
X86905763Y-81010068D01*
X86898190Y-80909795D01*
X86906272Y-80809232D01*
X86929541Y-80719403D01*
X86966535Y-80640602D01*
X87015790Y-80573121D01*
X87075842Y-80517254D01*
X87145229Y-80473291D01*
X87222486Y-80441527D01*
X87306151Y-80422254D01*
X87394760Y-80415765D01*
X87489916Y-80423479D01*
G37*
G36*
X90716798Y-80687827D02*
G01*
X90785942Y-80707159D01*
X90854240Y-80738345D01*
X90845350Y-80890745D01*
X90780580Y-80890745D01*
X90741210Y-80753585D01*
X90644690Y-80730725D01*
X90547217Y-80758824D01*
X90512610Y-80833595D01*
X90538804Y-80901381D01*
X90638340Y-80952975D01*
X90704380Y-80973295D01*
X90790006Y-81011038D01*
X90848366Y-81058068D01*
X90881724Y-81115098D01*
X90892340Y-81182845D01*
X90880016Y-81255306D01*
X90843735Y-81315697D01*
X90784532Y-81361702D01*
X90703445Y-81391003D01*
X90601510Y-81401285D01*
X90516044Y-81394606D01*
X90439326Y-81374944D01*
X90366560Y-81342865D01*
X90371640Y-81177765D01*
X90445300Y-81177765D01*
X90480860Y-81331435D01*
X90532771Y-81346834D01*
X90591350Y-81351755D01*
X90676675Y-81338961D01*
X90728698Y-81301896D01*
X90746290Y-81242535D01*
X90719302Y-81171733D01*
X90618020Y-81118075D01*
X90548170Y-81095215D01*
X90453861Y-81051471D01*
X90393136Y-80986559D01*
X90371640Y-80897095D01*
X90382938Y-80827824D01*
X90416303Y-80768429D01*
X90470944Y-80722079D01*
X90546067Y-80691944D01*
X90640880Y-80681195D01*
X90716798Y-80687827D01*
G37*
G36*
X92401006Y-80423479D02*
G01*
X92488824Y-80446998D01*
X92573820Y-80486885D01*
X92571280Y-80706595D01*
X92498890Y-80706595D01*
X92443010Y-80489425D01*
X92387289Y-80472915D01*
X92328710Y-80467835D01*
X92251236Y-80476792D01*
X92181049Y-80503721D01*
X92119838Y-80548711D01*
X92069289Y-80611852D01*
X92031093Y-80693232D01*
X92006937Y-80792940D01*
X91998510Y-80911065D01*
X92006804Y-81029919D01*
X92030649Y-81129757D01*
X92068490Y-81210844D01*
X92118771Y-81273448D01*
X92179939Y-81317835D01*
X92250437Y-81344272D01*
X92328710Y-81353025D01*
X92391416Y-81347151D01*
X92453170Y-81328895D01*
X92509050Y-81114265D01*
X92582710Y-81114265D01*
X92583980Y-81332705D01*
X92498984Y-81371793D01*
X92405239Y-81396487D01*
X92300770Y-81405095D01*
X92209659Y-81398520D01*
X92125040Y-81379026D01*
X92048040Y-81346957D01*
X91979789Y-81302659D01*
X91921416Y-81246476D01*
X91874050Y-81178753D01*
X91838819Y-81099835D01*
X91816853Y-81010068D01*
X91809280Y-80909795D01*
X91817362Y-80809232D01*
X91840631Y-80719403D01*
X91877625Y-80640602D01*
X91926880Y-80573121D01*
X91986932Y-80517254D01*
X92056319Y-80473291D01*
X92133576Y-80441527D01*
X92217241Y-80422254D01*
X92305850Y-80415765D01*
X92401006Y-80423479D01*
G37*
%TO.C,kibuzzard-6263C95A*%
G36*
X105239530Y-69093080D02*
G01*
X105182380Y-69123560D01*
X105182380Y-69964300D01*
X105176367Y-70032007D01*
X105150471Y-70083045D01*
X105092905Y-70117891D01*
X104991880Y-70137020D01*
X104983149Y-70076536D01*
X104963940Y-70034150D01*
X104925681Y-70005575D01*
X104855990Y-69984620D01*
X104855990Y-69966840D01*
X104921395Y-69971285D01*
X105005850Y-69975730D01*
X105033790Y-69949060D01*
X105033790Y-69697600D01*
X104778520Y-69697600D01*
X104778520Y-70093840D01*
X104746770Y-70117494D01*
X104657870Y-70134480D01*
X104631200Y-70134480D01*
X104631200Y-69697600D01*
X104388630Y-69697600D01*
X104372667Y-69778586D01*
X104347708Y-69858231D01*
X104311954Y-69935408D01*
X104263606Y-70008985D01*
X104200864Y-70077836D01*
X104121930Y-70140830D01*
X104107960Y-70130670D01*
X104158978Y-70044917D01*
X104196845Y-69953788D01*
X104223493Y-69858283D01*
X104240855Y-69759400D01*
X104250478Y-69662040D01*
X104393710Y-69662040D01*
X104631200Y-69662040D01*
X104778520Y-69662040D01*
X105033790Y-69662040D01*
X105033790Y-69391530D01*
X104778520Y-69391530D01*
X104778520Y-69662040D01*
X104631200Y-69662040D01*
X104631200Y-69391530D01*
X104403870Y-69391530D01*
X104403870Y-69451220D01*
X104402124Y-69555201D01*
X104393710Y-69662040D01*
X104250478Y-69662040D01*
X104250863Y-69658141D01*
X104255450Y-69555504D01*
X104256550Y-69452490D01*
X104256550Y-69354700D01*
X104403870Y-69354700D01*
X104631200Y-69354700D01*
X104778520Y-69354700D01*
X105033790Y-69354700D01*
X105033790Y-69094350D01*
X104778520Y-69094350D01*
X104778520Y-69354700D01*
X104631200Y-69354700D01*
X104631200Y-69094350D01*
X104403870Y-69094350D01*
X104403870Y-69354700D01*
X104256550Y-69354700D01*
X104256550Y-68997830D01*
X104426730Y-69058790D01*
X105019820Y-69058790D01*
X105090940Y-68974970D01*
X105239530Y-69093080D01*
G37*
G36*
X109380487Y-69003079D02*
G01*
X109455712Y-69046963D01*
X109497510Y-69096444D01*
X109511016Y-69145150D01*
X109501365Y-69186713D01*
X109473690Y-69214762D01*
X109433127Y-69222928D01*
X109384810Y-69204840D01*
X109353201Y-69124736D01*
X109306352Y-69045761D01*
X109255270Y-68977510D01*
X109266700Y-68971160D01*
X109380487Y-69003079D01*
G37*
G36*
X113940300Y-69660770D02*
G01*
X113940360Y-69736851D01*
X113940776Y-69816028D01*
X113941907Y-69897585D01*
X113944110Y-69980810D01*
X114080000Y-69993510D01*
X114080000Y-70037960D01*
X113640580Y-70037960D01*
X113640580Y-69993510D01*
X113761230Y-69982080D01*
X113762698Y-69887326D01*
X113763453Y-69791739D01*
X113763730Y-69695437D01*
X113763765Y-69611240D01*
X113940300Y-69611240D01*
X114002530Y-69611240D01*
X114105757Y-69593976D01*
X114176838Y-69545517D01*
X114217914Y-69470865D01*
X114231130Y-69375020D01*
X114217696Y-69275881D01*
X114176996Y-69203887D01*
X114108436Y-69159993D01*
X114011420Y-69145150D01*
X113944110Y-69145150D01*
X113941907Y-69241809D01*
X113940776Y-69339301D01*
X113940360Y-69437508D01*
X113940300Y-69536310D01*
X113940300Y-69611240D01*
X113763765Y-69611240D01*
X113763770Y-69598540D01*
X113763770Y-69536310D01*
X113763730Y-69440842D01*
X113763453Y-69345016D01*
X113762698Y-69248953D01*
X113761230Y-69152770D01*
X113640580Y-69141340D01*
X113640580Y-69095620D01*
X114019040Y-69095620D01*
X114140307Y-69104322D01*
X114236916Y-69129675D01*
X114310029Y-69170550D01*
X114360811Y-69225819D01*
X114390427Y-69294351D01*
X114400040Y-69375020D01*
X114390780Y-69450867D01*
X114361517Y-69519094D01*
X114310029Y-69576950D01*
X114234093Y-69621682D01*
X114131488Y-69650539D01*
X113999990Y-69660770D01*
X113940300Y-69660770D01*
G37*
G36*
X110146150Y-69753183D02*
G01*
X110237292Y-69810922D01*
X110303382Y-69871649D01*
X110346943Y-69932388D01*
X110370502Y-69990161D01*
X110376582Y-70041991D01*
X110367708Y-70084902D01*
X110346405Y-70115917D01*
X110315198Y-70132057D01*
X110276611Y-70130347D01*
X110233170Y-70107810D01*
X110208258Y-70024894D01*
X110170727Y-69940089D01*
X110123808Y-69856990D01*
X110070732Y-69779195D01*
X110014730Y-69710300D01*
X110027430Y-69701410D01*
X110146150Y-69753183D01*
G37*
G36*
X111869128Y-69249012D02*
G01*
X111867660Y-69152770D01*
X111747010Y-69141340D01*
X111747010Y-69095620D01*
X112155950Y-69095620D01*
X112261372Y-69103726D01*
X112355201Y-69127608D01*
X112436677Y-69166611D01*
X112505041Y-69220080D01*
X112559535Y-69287360D01*
X112599398Y-69367797D01*
X112623873Y-69460735D01*
X112632200Y-69565520D01*
X112625118Y-69659657D01*
X112604333Y-69744480D01*
X112570534Y-69819520D01*
X112524412Y-69884306D01*
X112466656Y-69938367D01*
X112397956Y-69981233D01*
X112319001Y-70012435D01*
X112230483Y-70031500D01*
X112133090Y-70037960D01*
X111747010Y-70037960D01*
X111747010Y-69993510D01*
X111867660Y-69982080D01*
X111869128Y-69886711D01*
X111869883Y-69788723D01*
X111870160Y-69687400D01*
X111870200Y-69582030D01*
X112046730Y-69582030D01*
X112046790Y-69688393D01*
X112047206Y-69790945D01*
X112048337Y-69890640D01*
X112050540Y-69988430D01*
X112128010Y-69988430D01*
X112209579Y-69979003D01*
X112279818Y-69951270D01*
X112338282Y-69906054D01*
X112384528Y-69844176D01*
X112418111Y-69766458D01*
X112438586Y-69673722D01*
X112445510Y-69566790D01*
X112438612Y-69457459D01*
X112418318Y-69363790D01*
X112385228Y-69286205D01*
X112339941Y-69225127D01*
X112283057Y-69180977D01*
X112215177Y-69154177D01*
X112136900Y-69145150D01*
X112050540Y-69145150D01*
X112048337Y-69242047D01*
X112047206Y-69340254D01*
X112046790Y-69439651D01*
X112046730Y-69540120D01*
X112046730Y-69582030D01*
X111870200Y-69582030D01*
X111870200Y-69540120D01*
X111870160Y-69442449D01*
X111869883Y-69345492D01*
X111869128Y-69249012D01*
G37*
G36*
X108788474Y-69269187D02*
G01*
X108806960Y-69187060D01*
X108989840Y-69234050D01*
X108942850Y-69260720D01*
X108893179Y-69318105D01*
X108832501Y-69379441D01*
X108767590Y-69438520D01*
X108884430Y-69438520D01*
X108959360Y-69344540D01*
X109008890Y-69382005D01*
X109096520Y-69453760D01*
X109062230Y-69474080D01*
X108352300Y-69474080D01*
X108348490Y-69460110D01*
X108284514Y-69510434D01*
X108206250Y-69569330D01*
X108206250Y-69969380D01*
X108200813Y-70039151D01*
X108177040Y-70092253D01*
X108123740Y-70128686D01*
X108029720Y-70148450D01*
X108021147Y-70083839D01*
X108003050Y-70039230D01*
X107968125Y-70008115D01*
X107906530Y-69988430D01*
X107906530Y-69969380D01*
X107964315Y-69973190D01*
X108041150Y-69977000D01*
X108066550Y-69955410D01*
X108066550Y-69667120D01*
X107997970Y-69712840D01*
X107967490Y-69750940D01*
X107903990Y-69587110D01*
X107970982Y-69566790D01*
X108066550Y-69535040D01*
X108066550Y-69295010D01*
X107921770Y-69295010D01*
X107911610Y-69258180D01*
X108066550Y-69258180D01*
X108066550Y-68959730D01*
X108253240Y-68977510D01*
X108206250Y-69013070D01*
X108206250Y-69258180D01*
X108212600Y-69258180D01*
X108276100Y-69160390D01*
X108316422Y-69200395D01*
X108385320Y-69274690D01*
X108353570Y-69295010D01*
X108206250Y-69295010D01*
X108206250Y-69488050D01*
X108273719Y-69464555D01*
X108342140Y-69441060D01*
X108342140Y-69438520D01*
X108348490Y-69438520D01*
X108362460Y-69433440D01*
X108362460Y-69438520D01*
X108734570Y-69438520D01*
X108763216Y-69357240D01*
X108788474Y-69269187D01*
G37*
G36*
X108570185Y-69238397D02*
G01*
X108625572Y-69292255D01*
X108644593Y-69345092D01*
X108635266Y-69389553D01*
X108605611Y-69418285D01*
X108563649Y-69423935D01*
X108517400Y-69399150D01*
X108507569Y-69328124D01*
X108485321Y-69257663D01*
X108457710Y-69195950D01*
X108470410Y-69190870D01*
X108570185Y-69238397D01*
G37*
G36*
X108698868Y-68982387D02*
G01*
X108759492Y-69023941D01*
X108775738Y-69072201D01*
X108758029Y-69114975D01*
X108716790Y-69140070D01*
X108874270Y-69140070D01*
X108946660Y-69044820D01*
X108993650Y-69083079D01*
X109078740Y-69156580D01*
X109043180Y-69176900D01*
X108366270Y-69176900D01*
X108357380Y-69140070D01*
X108679960Y-69140070D01*
X108638050Y-69119750D01*
X108617730Y-69036247D01*
X108574550Y-68966080D01*
X108583440Y-68959730D01*
X108698868Y-68982387D01*
G37*
G36*
X109544830Y-69339460D02*
G01*
X109492760Y-69363590D01*
X109492760Y-69832220D01*
X109575945Y-69780785D01*
X109662940Y-69725540D01*
X109670560Y-69738240D01*
X109630297Y-69791143D01*
X109577056Y-69859525D01*
X109512147Y-69939337D01*
X109436880Y-70026530D01*
X109389890Y-70098920D01*
X109283210Y-69938900D01*
X109338773Y-69899848D01*
X109350520Y-69866510D01*
X109350520Y-69339460D01*
X109200660Y-69339460D01*
X109190500Y-69302630D01*
X109351790Y-69302630D01*
X109420370Y-69235320D01*
X109544830Y-69339460D01*
G37*
G36*
X106961650Y-69002910D02*
G01*
X106914660Y-69033390D01*
X106887831Y-69116257D01*
X106856240Y-69193410D01*
X106980700Y-69193410D01*
X107051820Y-69099430D01*
X107097857Y-69137530D01*
X107180090Y-69209920D01*
X107144530Y-69230240D01*
X106993400Y-69230240D01*
X106993400Y-69427090D01*
X106992130Y-69500750D01*
X107003560Y-69500750D01*
X107073410Y-69406770D01*
X107113574Y-69440901D01*
X107188980Y-69508370D01*
X107188980Y-69220080D01*
X107335030Y-69277230D01*
X107581410Y-69277230D01*
X107648720Y-69204840D01*
X107790960Y-69310250D01*
X107738890Y-69338190D01*
X107738890Y-69636640D01*
X107695869Y-69656484D01*
X107619510Y-69669660D01*
X107594110Y-69669660D01*
X107594110Y-69609970D01*
X107328680Y-69609970D01*
X107328680Y-69646800D01*
X107290262Y-69673788D01*
X107208030Y-69691250D01*
X107188980Y-69691250D01*
X107188980Y-69574410D01*
X107328680Y-69574410D01*
X107594110Y-69574410D01*
X107594110Y-69312790D01*
X107328680Y-69312790D01*
X107328680Y-69574410D01*
X107188980Y-69574410D01*
X107188980Y-69528690D01*
X107162310Y-69536310D01*
X106989590Y-69536310D01*
X106983716Y-69602668D01*
X106973080Y-69670930D01*
X107077136Y-69722134D01*
X107142585Y-69780289D01*
X107175114Y-69839366D01*
X107180407Y-69893339D01*
X107164151Y-69936179D01*
X107132028Y-69961859D01*
X107089727Y-69964352D01*
X107042930Y-69937630D01*
X107031594Y-69858796D01*
X107003889Y-69779397D01*
X106965460Y-69706490D01*
X106943505Y-69784054D01*
X106912167Y-69860913D01*
X106869892Y-69935725D01*
X106815130Y-70007151D01*
X106746326Y-70073849D01*
X106661930Y-70134480D01*
X106649230Y-70123050D01*
X106707865Y-70044295D01*
X106754103Y-69962186D01*
X106789389Y-69877722D01*
X106815167Y-69791902D01*
X106832880Y-69705727D01*
X106843973Y-69620197D01*
X106849890Y-69536310D01*
X106672090Y-69536310D01*
X106661930Y-69500750D01*
X106851160Y-69500750D01*
X106852430Y-69427090D01*
X106852430Y-69230240D01*
X106838460Y-69230240D01*
X106791000Y-69311473D01*
X106737330Y-69382264D01*
X106677170Y-69442330D01*
X106659390Y-69432170D01*
X106692481Y-69353054D01*
X106721122Y-69263758D01*
X106744521Y-69166903D01*
X106761884Y-69065110D01*
X106772420Y-68961000D01*
X106961650Y-69002910D01*
G37*
G36*
X113345846Y-69080474D02*
G01*
X113433664Y-69103993D01*
X113518660Y-69143880D01*
X113516120Y-69363590D01*
X113443730Y-69363590D01*
X113387850Y-69146420D01*
X113332129Y-69129910D01*
X113273550Y-69124830D01*
X113196076Y-69133787D01*
X113125889Y-69160716D01*
X113064678Y-69205706D01*
X113014129Y-69268847D01*
X112975933Y-69350227D01*
X112951777Y-69449935D01*
X112943350Y-69568060D01*
X112951644Y-69686914D01*
X112975489Y-69786752D01*
X113013330Y-69867839D01*
X113063611Y-69930443D01*
X113124779Y-69974830D01*
X113195277Y-70001267D01*
X113273550Y-70010020D01*
X113336256Y-70004146D01*
X113398010Y-69985890D01*
X113453890Y-69771260D01*
X113527550Y-69771260D01*
X113528820Y-69989700D01*
X113443824Y-70028788D01*
X113350079Y-70053482D01*
X113245610Y-70062090D01*
X113154499Y-70055515D01*
X113069880Y-70036021D01*
X112992880Y-70003952D01*
X112924629Y-69959654D01*
X112866256Y-69903471D01*
X112818890Y-69835748D01*
X112783659Y-69756830D01*
X112761693Y-69667063D01*
X112754120Y-69566790D01*
X112762202Y-69466227D01*
X112785471Y-69376398D01*
X112822465Y-69297597D01*
X112871720Y-69230116D01*
X112931772Y-69174249D01*
X113001159Y-69130286D01*
X113078416Y-69098522D01*
X113162081Y-69079249D01*
X113250690Y-69072760D01*
X113345846Y-69080474D01*
G37*
G36*
X111635250Y-68997830D02*
G01*
X111588260Y-69033390D01*
X111588260Y-69968110D01*
X111581989Y-70037702D01*
X111555240Y-70090506D01*
X111496106Y-70126880D01*
X111392680Y-70147180D01*
X111382520Y-70083839D01*
X111360930Y-70040500D01*
X111318385Y-70010814D01*
X111241550Y-69989700D01*
X111241550Y-69971920D01*
X111315686Y-69976365D01*
X111411730Y-69980810D01*
X111439670Y-69957950D01*
X111439670Y-68978780D01*
X111635250Y-68997830D01*
G37*
G36*
X107533904Y-69779059D02*
G01*
X107547120Y-69688710D01*
X107743970Y-69733160D01*
X107698250Y-69761100D01*
X107658940Y-69833530D01*
X107609509Y-69911913D01*
X107552696Y-69990772D01*
X107491240Y-70064630D01*
X107646180Y-70064630D01*
X107721110Y-69960490D01*
X107770640Y-70002241D01*
X107858270Y-70081140D01*
X107823980Y-70101460D01*
X107061980Y-70101460D01*
X107051820Y-70064630D01*
X107467110Y-70064630D01*
X107493185Y-69974996D01*
X107515687Y-69877146D01*
X107533904Y-69779059D01*
G37*
G36*
X107410607Y-69992339D02*
G01*
X107378428Y-70015894D01*
X107338242Y-70015874D01*
X107295660Y-69987160D01*
X107289969Y-69890405D01*
X107269601Y-69793932D01*
X107241050Y-69706490D01*
X107255020Y-69700140D01*
X107347038Y-69764771D01*
X107402995Y-69831426D01*
X107428502Y-69894986D01*
X107429169Y-69950330D01*
X107410607Y-69992339D01*
G37*
G36*
X106377926Y-69021484D02*
G01*
X106480320Y-69104510D01*
X106446030Y-69124830D01*
X106057410Y-69124830D01*
X106057410Y-69465190D01*
X106315220Y-69465190D01*
X106406660Y-69352160D01*
X106465239Y-69396927D01*
X106570490Y-69481700D01*
X106533660Y-69502020D01*
X106057410Y-69502020D01*
X106057410Y-69955410D01*
X106050088Y-70028276D01*
X106019786Y-70086855D01*
X105954004Y-70128289D01*
X105840240Y-70149720D01*
X105829921Y-70083204D01*
X105803410Y-70036690D01*
X105753880Y-70005099D01*
X105662440Y-69982080D01*
X105662440Y-69965570D01*
X105752610Y-69971285D01*
X105869450Y-69977000D01*
X105899930Y-69949060D01*
X105899930Y-69502020D01*
X105391930Y-69502020D01*
X105380500Y-69465190D01*
X105899930Y-69465190D01*
X105899930Y-69124830D01*
X105493530Y-69124830D01*
X105483370Y-69088000D01*
X106231400Y-69088000D01*
X106320300Y-68977510D01*
X106377926Y-69021484D01*
G37*
G36*
X110641951Y-69456776D02*
G01*
X110562100Y-69475350D01*
X110536700Y-69475350D01*
X110536700Y-69363590D01*
X110671320Y-69363590D01*
X110931670Y-69363590D01*
X110931670Y-69091810D01*
X110671320Y-69091810D01*
X110671320Y-69363590D01*
X110536700Y-69363590D01*
X110536700Y-68997830D01*
X110687830Y-69056250D01*
X110918970Y-69056250D01*
X110985010Y-68983860D01*
X111123440Y-69089270D01*
X111072640Y-69114670D01*
X111072640Y-69429630D01*
X111030254Y-69448997D01*
X110954530Y-69462650D01*
X110931670Y-69462650D01*
X110931670Y-69399150D01*
X110671320Y-69399150D01*
X110671320Y-69429630D01*
X110641951Y-69456776D01*
G37*
G36*
X108733300Y-69529960D02*
G01*
X108678690Y-69556630D01*
X108640590Y-69639180D01*
X108900940Y-69639180D01*
X108978410Y-69538850D01*
X109028257Y-69579014D01*
X109118110Y-69654420D01*
X109082550Y-69674740D01*
X108958090Y-69674740D01*
X108924270Y-69769802D01*
X108882266Y-69852728D01*
X108829820Y-69924930D01*
X108941751Y-69969608D01*
X109010656Y-70014941D01*
X109043396Y-70057893D01*
X109046831Y-70095428D01*
X109027823Y-70124509D01*
X108993233Y-70142100D01*
X108949922Y-70145166D01*
X108904750Y-70130670D01*
X108856161Y-70092711D01*
X108797129Y-70053059D01*
X108728220Y-70012560D01*
X108659620Y-70050995D01*
X108579620Y-70084127D01*
X108487184Y-70112138D01*
X108381276Y-70135212D01*
X108260860Y-70153530D01*
X108253240Y-70135750D01*
X108369108Y-70100349D01*
X108469616Y-70060185D01*
X108555599Y-70014306D01*
X108627890Y-69961760D01*
X108549291Y-69927987D01*
X108463919Y-69895626D01*
X108372620Y-69865240D01*
X108375581Y-69860160D01*
X108526290Y-69860160D01*
X108617095Y-69874448D01*
X108696470Y-69890640D01*
X108738850Y-69826481D01*
X108772200Y-69754985D01*
X108796800Y-69674740D01*
X108624080Y-69674740D01*
X108574709Y-69771736D01*
X108526290Y-69860160D01*
X108375581Y-69860160D01*
X108403053Y-69813029D01*
X108436590Y-69747271D01*
X108470410Y-69674740D01*
X108288800Y-69674740D01*
X108278640Y-69639180D01*
X108485650Y-69639180D01*
X108522956Y-69552820D01*
X108547880Y-69485510D01*
X108733300Y-69529960D01*
G37*
G36*
X110864360Y-69430900D02*
G01*
X110821180Y-69463920D01*
X110816576Y-69522975D01*
X110811020Y-69582030D01*
X110931670Y-69582030D01*
X111005330Y-69510910D01*
X111134870Y-69618860D01*
X111084070Y-69641720D01*
X111074611Y-69796101D01*
X111060824Y-69914821D01*
X111041733Y-70002451D01*
X111016364Y-70063563D01*
X110983740Y-70102730D01*
X110917065Y-70136385D01*
X110835150Y-70147180D01*
X110814830Y-70053200D01*
X110724660Y-70007480D01*
X110725930Y-69989700D01*
X110790541Y-69994939D01*
X110846580Y-69997320D01*
X110884680Y-69985890D01*
X110905258Y-69949437D01*
X110921669Y-69877146D01*
X110934508Y-69767470D01*
X110944370Y-69618860D01*
X110805940Y-69618860D01*
X110790496Y-69708600D01*
X110767766Y-69796230D01*
X110735594Y-69880417D01*
X110691825Y-69959827D01*
X110634305Y-70033128D01*
X110560878Y-70098987D01*
X110469390Y-70156070D01*
X110456690Y-70138290D01*
X110521972Y-70069651D01*
X110572966Y-69991770D01*
X110611471Y-69906198D01*
X110639288Y-69814487D01*
X110658214Y-69718190D01*
X110670050Y-69618860D01*
X110488440Y-69618860D01*
X110477010Y-69582030D01*
X110673860Y-69582030D01*
X110677988Y-69498210D01*
X110680210Y-69414390D01*
X110864360Y-69430900D01*
G37*
G36*
X111372360Y-69084190D02*
G01*
X111325370Y-69121020D01*
X111325370Y-69820790D01*
X111289493Y-69844285D01*
X111213610Y-69860160D01*
X111188210Y-69860160D01*
X111188210Y-69067680D01*
X111372360Y-69084190D01*
G37*
G36*
X107740636Y-69014022D02*
G01*
X107831600Y-69090540D01*
X107796040Y-69110860D01*
X107136910Y-69110860D01*
X107126750Y-69074030D01*
X107610620Y-69074030D01*
X107690630Y-68973700D01*
X107740636Y-69014022D01*
G37*
G36*
X109787400Y-69677280D02*
G01*
X109979170Y-69763640D01*
X109927100Y-69782690D01*
X109871120Y-69863770D01*
X109810307Y-69936877D01*
X109745331Y-70002083D01*
X109676863Y-70059456D01*
X109605572Y-70109068D01*
X109532130Y-70150990D01*
X109518160Y-70138290D01*
X109567555Y-70080599D01*
X109616985Y-70012889D01*
X109665004Y-69936995D01*
X109710165Y-69854751D01*
X109751023Y-69767991D01*
X109786130Y-69678550D01*
X109743585Y-69693155D01*
X109678180Y-69700140D01*
X109652780Y-69700140D01*
X109652780Y-69573140D01*
X109801370Y-69573140D01*
X110116330Y-69573140D01*
X110116330Y-69114670D01*
X109801370Y-69114670D01*
X109801370Y-69573140D01*
X109652780Y-69573140D01*
X109652780Y-69016880D01*
X109815340Y-69077840D01*
X110111250Y-69077840D01*
X110184910Y-68994020D01*
X110323340Y-69100700D01*
X110272540Y-69126100D01*
X110272540Y-69644260D01*
X110237298Y-69666009D01*
X110143000Y-69681090D01*
X110116330Y-69681090D01*
X110116330Y-69608700D01*
X109801370Y-69608700D01*
X109801370Y-69664580D01*
X109787400Y-69677280D01*
G37*
%TO.C,FB1*%
X117908779Y-69721000D02*
X117583221Y-69721000D01*
X117908779Y-70741000D02*
X117583221Y-70741000D01*
%TD*%
M02*
