%TF.GenerationSoftware,KiCad,Pcbnew,(6.0.4)*%
%TF.CreationDate,2022-04-23T23:59:39+08:00*%
%TF.ProjectId,USBC_PD_TEST,55534243-5f50-4445-9f54-4553542e6b69,V0.9*%
%TF.SameCoordinates,Original*%
%TF.FileFunction,Legend,Bot*%
%TF.FilePolarity,Positive*%
%FSLAX46Y46*%
G04 Gerber Fmt 4.6, Leading zero omitted, Abs format (unit mm)*
G04 Created by KiCad (PCBNEW (6.0.4)) date 2022-04-23 23:59:39*
%MOMM*%
%LPD*%
G01*
G04 APERTURE LIST*
%ADD10C,0.150000*%
G04 APERTURE END LIST*
D10*
X112066135Y-71083714D02*
X112066135Y-71700571D01*
X112029850Y-71773142D01*
X111993564Y-71809428D01*
X111920993Y-71845714D01*
X111775850Y-71845714D01*
X111703278Y-71809428D01*
X111666993Y-71773142D01*
X111630707Y-71700571D01*
X111630707Y-71083714D01*
X111304135Y-71809428D02*
X111195278Y-71845714D01*
X111013850Y-71845714D01*
X110941278Y-71809428D01*
X110904993Y-71773142D01*
X110868707Y-71700571D01*
X110868707Y-71628000D01*
X110904993Y-71555428D01*
X110941278Y-71519142D01*
X111013850Y-71482857D01*
X111158993Y-71446571D01*
X111231564Y-71410285D01*
X111267850Y-71374000D01*
X111304135Y-71301428D01*
X111304135Y-71228857D01*
X111267850Y-71156285D01*
X111231564Y-71120000D01*
X111158993Y-71083714D01*
X110977564Y-71083714D01*
X110868707Y-71120000D01*
X110288135Y-71446571D02*
X110179278Y-71482857D01*
X110142993Y-71519142D01*
X110106707Y-71591714D01*
X110106707Y-71700571D01*
X110142993Y-71773142D01*
X110179278Y-71809428D01*
X110251850Y-71845714D01*
X110542135Y-71845714D01*
X110542135Y-71083714D01*
X110288135Y-71083714D01*
X110215564Y-71120000D01*
X110179278Y-71156285D01*
X110142993Y-71228857D01*
X110142993Y-71301428D01*
X110179278Y-71374000D01*
X110215564Y-71410285D01*
X110288135Y-71446571D01*
X110542135Y-71446571D01*
X109344707Y-71773142D02*
X109380993Y-71809428D01*
X109489850Y-71845714D01*
X109562421Y-71845714D01*
X109671278Y-71809428D01*
X109743850Y-71736857D01*
X109780135Y-71664285D01*
X109816421Y-71519142D01*
X109816421Y-71410285D01*
X109780135Y-71265142D01*
X109743850Y-71192571D01*
X109671278Y-71120000D01*
X109562421Y-71083714D01*
X109489850Y-71083714D01*
X109380993Y-71120000D01*
X109344707Y-71156285D01*
X108401278Y-71845714D02*
X108437564Y-71845714D01*
X108510135Y-71809428D01*
X108618993Y-71700571D01*
X108800421Y-71482857D01*
X108872993Y-71374000D01*
X108909278Y-71265142D01*
X108909278Y-71192571D01*
X108872993Y-71120000D01*
X108800421Y-71083714D01*
X108764135Y-71083714D01*
X108691564Y-71120000D01*
X108655278Y-71192571D01*
X108655278Y-71228857D01*
X108691564Y-71301428D01*
X108727850Y-71337714D01*
X108945564Y-71482857D01*
X108981850Y-71519142D01*
X109018135Y-71591714D01*
X109018135Y-71700571D01*
X108981850Y-71773142D01*
X108945564Y-71809428D01*
X108872993Y-71845714D01*
X108764135Y-71845714D01*
X108691564Y-71809428D01*
X108655278Y-71773142D01*
X108546421Y-71628000D01*
X108510135Y-71519142D01*
X108510135Y-71446571D01*
X107820707Y-71446571D02*
X108074707Y-71446571D01*
X108074707Y-71845714D02*
X108074707Y-71083714D01*
X107711850Y-71083714D01*
X107094993Y-71845714D02*
X107094993Y-71446571D01*
X107131278Y-71374000D01*
X107203850Y-71337714D01*
X107348993Y-71337714D01*
X107421564Y-71374000D01*
X107094993Y-71809428D02*
X107167564Y-71845714D01*
X107348993Y-71845714D01*
X107421564Y-71809428D01*
X107457850Y-71736857D01*
X107457850Y-71664285D01*
X107421564Y-71591714D01*
X107348993Y-71555428D01*
X107167564Y-71555428D01*
X107094993Y-71519142D01*
X106768421Y-71809428D02*
X106695850Y-71845714D01*
X106550707Y-71845714D01*
X106478135Y-71809428D01*
X106441850Y-71736857D01*
X106441850Y-71700571D01*
X106478135Y-71628000D01*
X106550707Y-71591714D01*
X106659564Y-71591714D01*
X106732135Y-71555428D01*
X106768421Y-71482857D01*
X106768421Y-71446571D01*
X106732135Y-71374000D01*
X106659564Y-71337714D01*
X106550707Y-71337714D01*
X106478135Y-71374000D01*
X106224135Y-71337714D02*
X105933850Y-71337714D01*
X106115278Y-71083714D02*
X106115278Y-71736857D01*
X106078993Y-71809428D01*
X106006421Y-71845714D01*
X105933850Y-71845714D01*
X104663850Y-71773142D02*
X104700135Y-71809428D01*
X104808993Y-71845714D01*
X104881564Y-71845714D01*
X104990421Y-71809428D01*
X105062993Y-71736857D01*
X105099278Y-71664285D01*
X105135564Y-71519142D01*
X105135564Y-71410285D01*
X105099278Y-71265142D01*
X105062993Y-71192571D01*
X104990421Y-71120000D01*
X104881564Y-71083714D01*
X104808993Y-71083714D01*
X104700135Y-71120000D01*
X104663850Y-71156285D01*
X104337278Y-71845714D02*
X104337278Y-71083714D01*
X104010707Y-71845714D02*
X104010707Y-71446571D01*
X104046993Y-71374000D01*
X104119564Y-71337714D01*
X104228421Y-71337714D01*
X104300993Y-71374000D01*
X104337278Y-71410285D01*
X103321278Y-71845714D02*
X103321278Y-71446571D01*
X103357564Y-71374000D01*
X103430135Y-71337714D01*
X103575278Y-71337714D01*
X103647850Y-71374000D01*
X103321278Y-71809428D02*
X103393850Y-71845714D01*
X103575278Y-71845714D01*
X103647850Y-71809428D01*
X103684135Y-71736857D01*
X103684135Y-71664285D01*
X103647850Y-71591714D01*
X103575278Y-71555428D01*
X103393850Y-71555428D01*
X103321278Y-71519142D01*
X102958421Y-71845714D02*
X102958421Y-71337714D01*
X102958421Y-71482857D02*
X102922135Y-71410285D01*
X102885850Y-71374000D01*
X102813278Y-71337714D01*
X102740707Y-71337714D01*
X102160135Y-71337714D02*
X102160135Y-71954571D01*
X102196421Y-72027142D01*
X102232707Y-72063428D01*
X102305278Y-72099714D01*
X102414135Y-72099714D01*
X102486707Y-72063428D01*
X102160135Y-71809428D02*
X102232707Y-71845714D01*
X102377850Y-71845714D01*
X102450421Y-71809428D01*
X102486707Y-71773142D01*
X102522993Y-71700571D01*
X102522993Y-71482857D01*
X102486707Y-71410285D01*
X102450421Y-71374000D01*
X102377850Y-71337714D01*
X102232707Y-71337714D01*
X102160135Y-71374000D01*
X101506993Y-71809428D02*
X101579564Y-71845714D01*
X101724707Y-71845714D01*
X101797278Y-71809428D01*
X101833564Y-71736857D01*
X101833564Y-71446571D01*
X101797278Y-71374000D01*
X101724707Y-71337714D01*
X101579564Y-71337714D01*
X101506993Y-71374000D01*
X101470707Y-71446571D01*
X101470707Y-71519142D01*
X101833564Y-71591714D01*
X101144135Y-71845714D02*
X101144135Y-71337714D01*
X101144135Y-71482857D02*
X101107850Y-71410285D01*
X101071564Y-71374000D01*
X100998993Y-71337714D01*
X100926421Y-71337714D01*
X100200707Y-71083714D02*
X99765278Y-71083714D01*
X99982993Y-71845714D02*
X99982993Y-71083714D01*
X99511278Y-71446571D02*
X99257278Y-71446571D01*
X99148421Y-71845714D02*
X99511278Y-71845714D01*
X99511278Y-71083714D01*
X99148421Y-71083714D01*
X98858135Y-71809428D02*
X98749278Y-71845714D01*
X98567850Y-71845714D01*
X98495278Y-71809428D01*
X98458993Y-71773142D01*
X98422707Y-71700571D01*
X98422707Y-71628000D01*
X98458993Y-71555428D01*
X98495278Y-71519142D01*
X98567850Y-71482857D01*
X98712993Y-71446571D01*
X98785564Y-71410285D01*
X98821850Y-71374000D01*
X98858135Y-71301428D01*
X98858135Y-71228857D01*
X98821850Y-71156285D01*
X98785564Y-71120000D01*
X98712993Y-71083714D01*
X98531564Y-71083714D01*
X98422707Y-71120000D01*
X98204993Y-71083714D02*
X97769564Y-71083714D01*
X97987278Y-71845714D02*
X97987278Y-71083714D01*
X96680993Y-71446571D02*
X96572135Y-71482857D01*
X96535850Y-71519142D01*
X96499564Y-71591714D01*
X96499564Y-71700571D01*
X96535850Y-71773142D01*
X96572135Y-71809428D01*
X96644707Y-71845714D01*
X96934993Y-71845714D01*
X96934993Y-71083714D01*
X96680993Y-71083714D01*
X96608421Y-71120000D01*
X96572135Y-71156285D01*
X96535850Y-71228857D01*
X96535850Y-71301428D01*
X96572135Y-71374000D01*
X96608421Y-71410285D01*
X96680993Y-71446571D01*
X96934993Y-71446571D01*
X96064135Y-71845714D02*
X96136707Y-71809428D01*
X96172993Y-71773142D01*
X96209278Y-71700571D01*
X96209278Y-71482857D01*
X96172993Y-71410285D01*
X96136707Y-71374000D01*
X96064135Y-71337714D01*
X95955278Y-71337714D01*
X95882707Y-71374000D01*
X95846421Y-71410285D01*
X95810135Y-71482857D01*
X95810135Y-71700571D01*
X95846421Y-71773142D01*
X95882707Y-71809428D01*
X95955278Y-71845714D01*
X96064135Y-71845714D01*
X95156993Y-71845714D02*
X95156993Y-71446571D01*
X95193278Y-71374000D01*
X95265850Y-71337714D01*
X95410993Y-71337714D01*
X95483564Y-71374000D01*
X95156993Y-71809428D02*
X95229564Y-71845714D01*
X95410993Y-71845714D01*
X95483564Y-71809428D01*
X95519850Y-71736857D01*
X95519850Y-71664285D01*
X95483564Y-71591714D01*
X95410993Y-71555428D01*
X95229564Y-71555428D01*
X95156993Y-71519142D01*
X94794135Y-71845714D02*
X94794135Y-71337714D01*
X94794135Y-71482857D02*
X94757850Y-71410285D01*
X94721564Y-71374000D01*
X94648993Y-71337714D01*
X94576421Y-71337714D01*
X93995850Y-71845714D02*
X93995850Y-71083714D01*
X93995850Y-71809428D02*
X94068421Y-71845714D01*
X94213564Y-71845714D01*
X94286135Y-71809428D01*
X94322421Y-71773142D01*
X94358707Y-71700571D01*
X94358707Y-71482857D01*
X94322421Y-71410285D01*
X94286135Y-71374000D01*
X94213564Y-71337714D01*
X94068421Y-71337714D01*
X93995850Y-71374000D01*
X93161278Y-71083714D02*
X92907278Y-71845714D01*
X92653278Y-71083714D01*
X92254135Y-71083714D02*
X92181564Y-71083714D01*
X92108993Y-71120000D01*
X92072707Y-71156285D01*
X92036421Y-71228857D01*
X92000135Y-71374000D01*
X92000135Y-71555428D01*
X92036421Y-71700571D01*
X92072707Y-71773142D01*
X92108993Y-71809428D01*
X92181564Y-71845714D01*
X92254135Y-71845714D01*
X92326707Y-71809428D01*
X92362993Y-71773142D01*
X92399278Y-71700571D01*
X92435564Y-71555428D01*
X92435564Y-71374000D01*
X92399278Y-71228857D01*
X92362993Y-71156285D01*
X92326707Y-71120000D01*
X92254135Y-71083714D01*
X91673564Y-71773142D02*
X91637278Y-71809428D01*
X91673564Y-71845714D01*
X91709850Y-71809428D01*
X91673564Y-71773142D01*
X91673564Y-71845714D01*
X91274421Y-71845714D02*
X91129278Y-71845714D01*
X91056707Y-71809428D01*
X91020421Y-71773142D01*
X90947850Y-71664285D01*
X90911564Y-71519142D01*
X90911564Y-71228857D01*
X90947850Y-71156285D01*
X90984135Y-71120000D01*
X91056707Y-71083714D01*
X91201850Y-71083714D01*
X91274421Y-71120000D01*
X91310707Y-71156285D01*
X91346993Y-71228857D01*
X91346993Y-71410285D01*
X91310707Y-71482857D01*
X91274421Y-71519142D01*
X91201850Y-71555428D01*
X91056707Y-71555428D01*
X90984135Y-71519142D01*
X90947850Y-71482857D01*
X90911564Y-71410285D01*
%TO.C,kibuzzard-62641778*%
G36*
X97862100Y-80135412D02*
G01*
X97862100Y-80322737D01*
X98031963Y-80322737D01*
X98031963Y-80484662D01*
X97862100Y-80484662D01*
X97862100Y-80791050D01*
X97857338Y-80875783D01*
X97843050Y-80942656D01*
X97787488Y-81032350D01*
X97698588Y-81075213D01*
X97577938Y-81086325D01*
X97456494Y-81076800D01*
X97339813Y-81045050D01*
X97366800Y-80876775D01*
X97416806Y-80897412D01*
X97461256Y-80909319D01*
X97505706Y-80914875D01*
X97555713Y-80916463D01*
X97601750Y-80911700D01*
X97636675Y-80892650D01*
X97658900Y-80852963D01*
X97666838Y-80786288D01*
X97666838Y-80484662D01*
X97354100Y-80484662D01*
X97354100Y-80322737D01*
X97666838Y-80322737D01*
X97666838Y-80103662D01*
X97862100Y-80135412D01*
G37*
G36*
X88633962Y-80534669D02*
G01*
X88664720Y-80467597D01*
X88706194Y-80410844D01*
X88757391Y-80365203D01*
X88817319Y-80331469D01*
X88884986Y-80310633D01*
X88959400Y-80303687D01*
X89032822Y-80310633D01*
X89100687Y-80331469D01*
X89161211Y-80365203D01*
X89212606Y-80410844D01*
X89254278Y-80467597D01*
X89285631Y-80534669D01*
X89305277Y-80610670D01*
X89311825Y-80694213D01*
X89305475Y-80778945D01*
X89286425Y-80855344D01*
X89255667Y-80922614D01*
X89214194Y-80979963D01*
X89162997Y-81026397D01*
X89103069Y-81060925D01*
X89035005Y-81082356D01*
X88959400Y-81089500D01*
X88883795Y-81082356D01*
X88815731Y-81060925D01*
X88756002Y-81026397D01*
X88705400Y-80979963D01*
X88664522Y-80922614D01*
X88633962Y-80855344D01*
X88614912Y-80778945D01*
X88608681Y-80695800D01*
X88808587Y-80695800D01*
X88818311Y-80786288D01*
X88847481Y-80857725D01*
X88895702Y-80904159D01*
X88962575Y-80919638D01*
X89031036Y-80904159D01*
X89077669Y-80857725D01*
X89104458Y-80786288D01*
X89113387Y-80695800D01*
X89103664Y-80605511D01*
X89074494Y-80534669D01*
X89026273Y-80488830D01*
X88959400Y-80473550D01*
X88890939Y-80488830D01*
X88844306Y-80534669D01*
X88817517Y-80605511D01*
X88808587Y-80695800D01*
X88608681Y-80695800D01*
X88608562Y-80694213D01*
X88614912Y-80610670D01*
X88633962Y-80534669D01*
G37*
G36*
X91335887Y-80556100D02*
G01*
X91500987Y-80322737D01*
X91705775Y-80322737D01*
X91443837Y-80684688D01*
X91516069Y-80778350D01*
X91587506Y-80877569D01*
X91652594Y-80975994D01*
X91707362Y-81068863D01*
X91508925Y-81068863D01*
X91469634Y-80997822D01*
X91431137Y-80933925D01*
X91390656Y-80872806D01*
X91345412Y-80810100D01*
X91306122Y-80864075D01*
X91264450Y-80924400D01*
X91221587Y-80992266D01*
X91178725Y-81068863D01*
X90975525Y-81068863D01*
X91021562Y-80983138D01*
X91081887Y-80883125D01*
X91151737Y-80779144D01*
X91226350Y-80681513D01*
X90985050Y-80322737D01*
X91183487Y-80322737D01*
X91335887Y-80556100D01*
G37*
G36*
X94045750Y-81330800D02*
G01*
X93842550Y-81330800D01*
X93401225Y-79959200D01*
X93601250Y-79959200D01*
X94045750Y-81330800D01*
G37*
G36*
X87425875Y-80813275D02*
G01*
X87471119Y-80840263D01*
X87502869Y-80883919D01*
X87514775Y-80943450D01*
X87502869Y-81004569D01*
X87471119Y-81049019D01*
X87425875Y-81076800D01*
X87371900Y-81086325D01*
X87273475Y-81049813D01*
X87230612Y-80943450D01*
X87273475Y-80840263D01*
X87371900Y-80803750D01*
X87425875Y-80813275D01*
G37*
G36*
X95363375Y-80813275D02*
G01*
X95408619Y-80840263D01*
X95440369Y-80883919D01*
X95452275Y-80943450D01*
X95440369Y-81004569D01*
X95408619Y-81049019D01*
X95363375Y-81076800D01*
X95309400Y-81086325D01*
X95210975Y-81049813D01*
X95168113Y-80943450D01*
X95210975Y-80840263D01*
X95309400Y-80803750D01*
X95363375Y-80813275D01*
G37*
G36*
X86583111Y-80311427D02*
G01*
X86671019Y-80334644D01*
X86744242Y-80371156D01*
X86803575Y-80418781D01*
X86849216Y-80476527D01*
X86881362Y-80543400D01*
X86900412Y-80617219D01*
X86906762Y-80695800D01*
X86900611Y-80775572D01*
X86882156Y-80849788D01*
X86850605Y-80916463D01*
X86805162Y-80973613D01*
X86745433Y-81020444D01*
X86671019Y-81056163D01*
X86581127Y-81078784D01*
X86474962Y-81086325D01*
X86400747Y-81083745D01*
X86336850Y-81076006D01*
X86236837Y-81049813D01*
X86265412Y-80889475D01*
X86356694Y-80910113D01*
X86452737Y-80916463D01*
X86571998Y-80901778D01*
X86650381Y-80857725D01*
X86693839Y-80787875D01*
X86708325Y-80695800D01*
X86695625Y-80606900D01*
X86654350Y-80536256D01*
X86578944Y-80490219D01*
X86462262Y-80473550D01*
X86363044Y-80482281D01*
X86292400Y-80502125D01*
X86249537Y-80344962D01*
X86359075Y-80313212D01*
X86479725Y-80303687D01*
X86583111Y-80311427D01*
G37*
G36*
X85458962Y-80534669D02*
G01*
X85489720Y-80467597D01*
X85531194Y-80410844D01*
X85582391Y-80365203D01*
X85642319Y-80331469D01*
X85709986Y-80310633D01*
X85784400Y-80303687D01*
X85857822Y-80310633D01*
X85925687Y-80331469D01*
X85986211Y-80365203D01*
X86037606Y-80410844D01*
X86079278Y-80467597D01*
X86110631Y-80534669D01*
X86130277Y-80610670D01*
X86136825Y-80694213D01*
X86130475Y-80778945D01*
X86111425Y-80855344D01*
X86080667Y-80922614D01*
X86039194Y-80979963D01*
X85987997Y-81026397D01*
X85928069Y-81060925D01*
X85860005Y-81082356D01*
X85784400Y-81089500D01*
X85708795Y-81082356D01*
X85640731Y-81060925D01*
X85581002Y-81026397D01*
X85530400Y-80979963D01*
X85489522Y-80922614D01*
X85458962Y-80855344D01*
X85439912Y-80778945D01*
X85433681Y-80695800D01*
X85633587Y-80695800D01*
X85643311Y-80786288D01*
X85672481Y-80857725D01*
X85720702Y-80904159D01*
X85787575Y-80919638D01*
X85856036Y-80904159D01*
X85902669Y-80857725D01*
X85929458Y-80786288D01*
X85938387Y-80695800D01*
X85928664Y-80605511D01*
X85899494Y-80534669D01*
X85851273Y-80488830D01*
X85784400Y-80473550D01*
X85715939Y-80488830D01*
X85669306Y-80534669D01*
X85642517Y-80605511D01*
X85633587Y-80695800D01*
X85433681Y-80695800D01*
X85433562Y-80694213D01*
X85439912Y-80610670D01*
X85458962Y-80534669D01*
G37*
G36*
X85220837Y-80324325D02*
G01*
X85343075Y-80351312D01*
X85343075Y-81068863D01*
X85184325Y-81068863D01*
X85184325Y-80483075D01*
X85158131Y-80478312D01*
X85135112Y-80476725D01*
X85086694Y-80506887D01*
X85071612Y-80613250D01*
X85071612Y-80784700D01*
X84912862Y-80784700D01*
X84912862Y-80635475D01*
X84916037Y-80554512D01*
X84923975Y-80487837D01*
X84895400Y-80479106D01*
X84865237Y-80476725D01*
X84840631Y-80481487D01*
X84819994Y-80500537D01*
X84805706Y-80541812D01*
X84800150Y-80613250D01*
X84800150Y-81068863D01*
X84641400Y-81068863D01*
X84641400Y-80622775D01*
X84643384Y-80549948D01*
X84649337Y-80487044D01*
X84680294Y-80391000D01*
X84743000Y-80333850D01*
X84844600Y-80314800D01*
X84920800Y-80328294D01*
X84984300Y-80359250D01*
X85040656Y-80325119D01*
X85114475Y-80314800D01*
X85220837Y-80324325D01*
G37*
G36*
X92476506Y-80791447D02*
G01*
X92455075Y-80868838D01*
X92420348Y-80934520D01*
X92373319Y-80988694D01*
X92314581Y-81031159D01*
X92244731Y-81061719D01*
X92164364Y-81080173D01*
X92074075Y-81086325D01*
X91945487Y-81074419D01*
X91837537Y-81045050D01*
X91864525Y-80878363D01*
X91954219Y-80903763D01*
X92066137Y-80916463D01*
X92152656Y-80905945D01*
X92221713Y-80874394D01*
X92266956Y-80824586D01*
X92282038Y-80759300D01*
X91797850Y-80759300D01*
X91795469Y-80725963D01*
X91794675Y-80686275D01*
X91799807Y-80624362D01*
X91983587Y-80624362D01*
X92282038Y-80624362D01*
X92268544Y-80565625D01*
X92239969Y-80514825D01*
X92193931Y-80479900D01*
X92128050Y-80467200D01*
X92061375Y-80480694D01*
X92016925Y-80516412D01*
X91991525Y-80566419D01*
X91983587Y-80624362D01*
X91799807Y-80624362D01*
X91804200Y-80571358D01*
X91832775Y-80476372D01*
X91880400Y-80401319D01*
X91946369Y-80347079D01*
X92029978Y-80314535D01*
X92131225Y-80303687D01*
X92197106Y-80310037D01*
X92261400Y-80329087D01*
X92321328Y-80360639D01*
X92374113Y-80404494D01*
X92418563Y-80460652D01*
X92453488Y-80529112D01*
X92476109Y-80609678D01*
X92483650Y-80702150D01*
X92476506Y-80791447D01*
G37*
G36*
X90094463Y-80484662D02*
G01*
X89888087Y-80484662D01*
X89888087Y-80759300D01*
X89884912Y-80832722D01*
X89875387Y-80897412D01*
X89831731Y-80999806D01*
X89749181Y-81064100D01*
X89691436Y-81080769D01*
X89621387Y-81086325D01*
X89523756Y-81076006D01*
X89410250Y-81037113D01*
X89435650Y-80879950D01*
X89521375Y-80909319D01*
X89586462Y-80916463D01*
X89668219Y-80883919D01*
X89692825Y-80784700D01*
X89692825Y-80322737D01*
X90094463Y-80322737D01*
X90094463Y-80484662D01*
G37*
G36*
X89911106Y-80016350D02*
G01*
X89946825Y-80108425D01*
X89911106Y-80198912D01*
X89824587Y-80232250D01*
X89737275Y-80198912D01*
X89700762Y-80108425D01*
X89737275Y-80016350D01*
X89824587Y-79983012D01*
X89911106Y-80016350D01*
G37*
G36*
X88254352Y-80310037D02*
G01*
X88334719Y-80319562D01*
X88405561Y-80332659D01*
X88464100Y-80346550D01*
X88464100Y-81068863D01*
X88268837Y-81068863D01*
X88268837Y-80483075D01*
X88223594Y-80478312D01*
X88179937Y-80476725D01*
X88083100Y-80522762D01*
X88065241Y-80583484D01*
X88059287Y-80673575D01*
X88059287Y-81068863D01*
X87864025Y-81068863D01*
X87864025Y-80648175D01*
X87867597Y-80575348D01*
X87878312Y-80509269D01*
X87926731Y-80401319D01*
X88019600Y-80331469D01*
X88085878Y-80313014D01*
X88167237Y-80306862D01*
X88254352Y-80310037D01*
G37*
G36*
X90599684Y-80308252D02*
G01*
X90665962Y-80321944D01*
X90765181Y-80372744D01*
X90822331Y-80447356D01*
X90840587Y-80537050D01*
X90816775Y-80634681D01*
X90756450Y-80698975D01*
X90675487Y-80741044D01*
X90588175Y-80770413D01*
X90530231Y-80789463D01*
X90481019Y-80809306D01*
X90447681Y-80833913D01*
X90435775Y-80868838D01*
X90473875Y-80910906D01*
X90583412Y-80921225D01*
X90711206Y-80902175D01*
X90829475Y-80860900D01*
X90859637Y-81024413D01*
X90750100Y-81064100D01*
X90674694Y-81080769D01*
X90585000Y-81086325D01*
X90497291Y-81081959D01*
X90424662Y-81068863D01*
X90319094Y-81021238D01*
X90261150Y-80949800D01*
X90243687Y-80862488D01*
X90267500Y-80763269D01*
X90328619Y-80696594D01*
X90411962Y-80652938D01*
X90500862Y-80621187D01*
X90557219Y-80601344D01*
X90603256Y-80579912D01*
X90635006Y-80555306D01*
X90646912Y-80524350D01*
X90620719Y-80485456D01*
X90519912Y-80467200D01*
X90391325Y-80485456D01*
X90307187Y-80511650D01*
X90277025Y-80346550D01*
X90385769Y-80314800D01*
X90451055Y-80306466D01*
X90521500Y-80303687D01*
X90599684Y-80308252D01*
G37*
G36*
X96155934Y-80308252D02*
G01*
X96222213Y-80321944D01*
X96321431Y-80372744D01*
X96378581Y-80447356D01*
X96396838Y-80537050D01*
X96373025Y-80634681D01*
X96312700Y-80698975D01*
X96231738Y-80741044D01*
X96144425Y-80770413D01*
X96086481Y-80789463D01*
X96037269Y-80809306D01*
X96003931Y-80833913D01*
X95992025Y-80868838D01*
X96030125Y-80910906D01*
X96139663Y-80921225D01*
X96267456Y-80902175D01*
X96385725Y-80860900D01*
X96415888Y-81024413D01*
X96306350Y-81064100D01*
X96230944Y-81080769D01*
X96141250Y-81086325D01*
X96053541Y-81081959D01*
X95980913Y-81068863D01*
X95875344Y-81021238D01*
X95817400Y-80949800D01*
X95799938Y-80862488D01*
X95823750Y-80763269D01*
X95884869Y-80696594D01*
X95968213Y-80652938D01*
X96057113Y-80621187D01*
X96113469Y-80601344D01*
X96159506Y-80579912D01*
X96191256Y-80555306D01*
X96203163Y-80524350D01*
X96176969Y-80485456D01*
X96076163Y-80467200D01*
X95947575Y-80485456D01*
X95863438Y-80511650D01*
X95833275Y-80346550D01*
X95942019Y-80314800D01*
X96007305Y-80306466D01*
X96077750Y-80303687D01*
X96155934Y-80308252D01*
G37*
G36*
X96591747Y-80489778D02*
G01*
X96642900Y-80411637D01*
X96713279Y-80353429D01*
X96801650Y-80318504D01*
X96908013Y-80306862D01*
X96984808Y-80309641D01*
X97062794Y-80317975D01*
X97135223Y-80330675D01*
X97195350Y-80346550D01*
X97195350Y-81330800D01*
X97000088Y-81330800D01*
X97000088Y-81049813D01*
X96921903Y-81077197D01*
X96846100Y-81086325D01*
X96777441Y-81079181D01*
X96717513Y-81057750D01*
X96625438Y-80977581D01*
X96593291Y-80920828D01*
X96569875Y-80853756D01*
X96555588Y-80778152D01*
X96551192Y-80702150D01*
X96749263Y-80702150D01*
X96757597Y-80793630D01*
X96782600Y-80861694D01*
X96825066Y-80903961D01*
X96885788Y-80918050D01*
X96949288Y-80910113D01*
X97000088Y-80889475D01*
X97000088Y-80479900D01*
X96957225Y-80475931D01*
X96909600Y-80473550D01*
X96838956Y-80489623D01*
X96788950Y-80537844D01*
X96759184Y-80611067D01*
X96749263Y-80702150D01*
X96551192Y-80702150D01*
X96550825Y-80695800D01*
X96561056Y-80584499D01*
X96591747Y-80489778D01*
G37*
G36*
X94839500Y-81330800D02*
G01*
X94636300Y-81330800D01*
X94194975Y-79959200D01*
X94395000Y-79959200D01*
X94839500Y-81330800D01*
G37*
G36*
X95363375Y-80332262D02*
G01*
X95408619Y-80359250D01*
X95440369Y-80402906D01*
X95452275Y-80462437D01*
X95440369Y-80523556D01*
X95408619Y-80568006D01*
X95363375Y-80595787D01*
X95309400Y-80605312D01*
X95210975Y-80568800D01*
X95168113Y-80462437D01*
X95210975Y-80359250D01*
X95309400Y-80322737D01*
X95363375Y-80332262D01*
G37*
G36*
X98655850Y-80135412D02*
G01*
X98655850Y-80322737D01*
X98825713Y-80322737D01*
X98825713Y-80484662D01*
X98655850Y-80484662D01*
X98655850Y-80791050D01*
X98651088Y-80875783D01*
X98636800Y-80942656D01*
X98581238Y-81032350D01*
X98492338Y-81075213D01*
X98371688Y-81086325D01*
X98250244Y-81076800D01*
X98133563Y-81045050D01*
X98160550Y-80876775D01*
X98210556Y-80897412D01*
X98255006Y-80909319D01*
X98299456Y-80914875D01*
X98349463Y-80916463D01*
X98395500Y-80911700D01*
X98430425Y-80892650D01*
X98452650Y-80852963D01*
X98460588Y-80786288D01*
X98460588Y-80484662D01*
X98147850Y-80484662D01*
X98147850Y-80322737D01*
X98460588Y-80322737D01*
X98460588Y-80103662D01*
X98655850Y-80135412D01*
G37*
G36*
X99576600Y-80000475D02*
G01*
X99576600Y-81068863D01*
X99381338Y-81068863D01*
X99381338Y-80494187D01*
X99339269Y-80483075D01*
X99286088Y-80476725D01*
X99195600Y-80522762D01*
X99177741Y-80583484D01*
X99171788Y-80673575D01*
X99171788Y-81068863D01*
X98976525Y-81068863D01*
X98976525Y-80648175D01*
X98980097Y-80575348D01*
X98990813Y-80509269D01*
X99038438Y-80401319D01*
X99127338Y-80331469D01*
X99189647Y-80313014D01*
X99265450Y-80306862D01*
X99324188Y-80314006D01*
X99381338Y-80329087D01*
X99381338Y-79967137D01*
X99576600Y-80000475D01*
G37*
G36*
X93269463Y-80138587D02*
G01*
X93063088Y-80138587D01*
X93063088Y-80772000D01*
X93047609Y-80907533D01*
X93001175Y-81006156D01*
X92921006Y-81066283D01*
X92804325Y-81086325D01*
X92716219Y-81079975D01*
X92650338Y-81064894D01*
X92606681Y-81048225D01*
X92585250Y-81037113D01*
X92610650Y-80879950D01*
X92663038Y-80900588D01*
X92761463Y-80916463D01*
X92837663Y-80889475D01*
X92867825Y-80786288D01*
X92867825Y-79976662D01*
X93269463Y-79976662D01*
X93269463Y-80138587D01*
G37*
%TD*%
M02*
