%TF.GenerationSoftware,KiCad,Pcbnew,(6.0.4)*%
%TF.CreationDate,2022-04-23T23:59:39+08:00*%
%TF.ProjectId,USBC_PD_TEST,55534243-5f50-4445-9f54-4553542e6b69,V0.9*%
%TF.SameCoordinates,Original*%
%TF.FileFunction,Soldermask,Top*%
%TF.FilePolarity,Negative*%
%FSLAX46Y46*%
G04 Gerber Fmt 4.6, Leading zero omitted, Abs format (unit mm)*
G04 Created by KiCad (PCBNEW (6.0.4)) date 2022-04-23 23:59:39*
%MOMM*%
%LPD*%
G01*
G04 APERTURE LIST*
G04 Aperture macros list*
%AMRoundRect*
0 Rectangle with rounded corners*
0 $1 Rounding radius*
0 $2 $3 $4 $5 $6 $7 $8 $9 X,Y pos of 4 corners*
0 Add a 4 corners polygon primitive as box body*
4,1,4,$2,$3,$4,$5,$6,$7,$8,$9,$2,$3,0*
0 Add four circle primitives for the rounded corners*
1,1,$1+$1,$2,$3*
1,1,$1+$1,$4,$5*
1,1,$1+$1,$6,$7*
1,1,$1+$1,$8,$9*
0 Add four rect primitives between the rounded corners*
20,1,$1+$1,$2,$3,$4,$5,0*
20,1,$1+$1,$4,$5,$6,$7,0*
20,1,$1+$1,$6,$7,$8,$9,0*
20,1,$1+$1,$8,$9,$2,$3,0*%
G04 Aperture macros list end*
%ADD10C,1.800000*%
%ADD11R,1.000000X2.500000*%
%ADD12R,1.700000X1.700000*%
%ADD13O,1.700000X1.700000*%
%ADD14C,6.400000*%
%ADD15C,0.800000*%
%ADD16C,0.600000*%
%ADD17R,1.160000X0.600000*%
%ADD18R,1.160000X0.300000*%
%ADD19O,2.000000X0.900000*%
%ADD20O,1.700000X0.900000*%
%ADD21R,1.000000X0.380000*%
%ADD22R,1.150000X0.700000*%
%ADD23RoundRect,0.135000X0.185000X-0.135000X0.185000X0.135000X-0.185000X0.135000X-0.185000X-0.135000X0*%
%ADD24C,4.800000*%
%ADD25RoundRect,0.135000X-0.135000X-0.185000X0.135000X-0.185000X0.135000X0.185000X-0.135000X0.185000X0*%
%ADD26RoundRect,0.218750X0.218750X0.256250X-0.218750X0.256250X-0.218750X-0.256250X0.218750X-0.256250X0*%
G04 APERTURE END LIST*
G36*
X105570993Y-76581000D02*
G01*
X115603993Y-76581000D01*
X115603993Y-81153000D01*
X105570993Y-81153000D01*
X105570993Y-76581000D01*
G37*
G36*
X122334993Y-61214000D02*
G01*
X124112993Y-61214000D01*
X124112993Y-63754000D01*
X122334993Y-63754000D01*
X122334993Y-61214000D01*
G37*
D10*
%TO.C,TP8*%
X97934000Y-67564000D03*
%TD*%
%TO.C,TP2*%
X95284000Y-47879000D03*
%TD*%
D11*
%TO.C,SW1*%
X87664000Y-65734000D03*
X90204000Y-65734000D03*
X92744000Y-65734000D03*
X87664000Y-59234000D03*
X90204000Y-59234000D03*
X92744000Y-59234000D03*
%TD*%
D12*
%TO.C,J2*%
X112158000Y-61214000D03*
D13*
X112158000Y-63754000D03*
%TD*%
D14*
%TO.C,H2*%
X119734007Y-47484005D03*
D15*
X119734000Y-45084000D03*
X119734000Y-49884000D03*
X122134000Y-47484000D03*
X121431056Y-49181056D03*
X117334000Y-47484000D03*
X118036944Y-49181056D03*
X118036944Y-45786944D03*
X121431056Y-45786944D03*
%TD*%
D16*
%TO.C,J1*%
X119008999Y-65374000D03*
X119008999Y-59594000D03*
D17*
X117948999Y-65684000D03*
X117948999Y-64884000D03*
D18*
X117948999Y-63734000D03*
X117948999Y-62734000D03*
X117948999Y-62234000D03*
X117948999Y-61234000D03*
D17*
X117948999Y-60084000D03*
X117948999Y-59284000D03*
X117948999Y-59284000D03*
X117948999Y-60084000D03*
D18*
X117948999Y-60734000D03*
X117948999Y-61734000D03*
X117948999Y-63234000D03*
X117948999Y-64234000D03*
D17*
X117948999Y-64884000D03*
X117948999Y-65684000D03*
D19*
X118528999Y-58164000D03*
D20*
X122698999Y-66804000D03*
X122698999Y-58164000D03*
D19*
X118528999Y-66804000D03*
%TD*%
D15*
%TO.C,H4*%
X118036944Y-79181056D03*
X119734000Y-79884000D03*
X122134000Y-77484000D03*
X121431056Y-75786944D03*
X117334000Y-77484000D03*
D14*
X119734007Y-77483995D03*
D15*
X118036944Y-75786944D03*
X121431056Y-79181056D03*
X119734000Y-75084000D03*
%TD*%
D21*
%TO.C,P1*%
X76273993Y-65234000D03*
X76273993Y-64734000D03*
X76273993Y-64234000D03*
X76273993Y-63734000D03*
X76273993Y-63234000D03*
X76273993Y-62734000D03*
X76273993Y-62234000D03*
X76273993Y-61734000D03*
X76273993Y-61234000D03*
X76273993Y-60734000D03*
X76273993Y-60234000D03*
X76273993Y-59734000D03*
D22*
X77113993Y-65904000D03*
%TD*%
D10*
%TO.C,TP4*%
X97934000Y-57404000D03*
%TD*%
%TO.C,TP3*%
X103014000Y-67564000D03*
%TD*%
%TO.C,TP5*%
X108729000Y-60579000D03*
%TD*%
D15*
%TO.C,H3*%
X81234000Y-75084000D03*
X79536944Y-79181056D03*
D14*
X81234008Y-77483995D03*
D15*
X82931056Y-75786944D03*
X79536944Y-75786944D03*
X82931056Y-79181056D03*
X81234000Y-79884000D03*
X83634000Y-77484000D03*
X78834000Y-77484000D03*
%TD*%
D23*
%TO.C,R2*%
X84743000Y-66804000D03*
X84743000Y-65784000D03*
%TD*%
D24*
%TO.C,TP1*%
X100728000Y-47879000D03*
%TD*%
D10*
%TO.C,TP6*%
X108729000Y-64389000D03*
%TD*%
%TO.C,TP10*%
X95284000Y-77724000D03*
%TD*%
D15*
%TO.C,H1*%
X81234000Y-45084000D03*
X82931056Y-45786944D03*
X78834000Y-47484000D03*
X81234000Y-49884000D03*
X82931056Y-49181056D03*
X79536944Y-45786944D03*
D14*
X81234008Y-47484005D03*
D15*
X83634000Y-47484000D03*
X79536944Y-49181056D03*
%TD*%
D25*
%TO.C,R1*%
X83692005Y-65786000D03*
X84712005Y-65786000D03*
%TD*%
D24*
%TO.C,TP9*%
X100982000Y-76962000D03*
%TD*%
D10*
%TO.C,TP7*%
X103014000Y-57404000D03*
%TD*%
D26*
%TO.C,FB1*%
X118533500Y-70231000D03*
X116958500Y-70231000D03*
%TD*%
M02*
