M48
; DRILL file {KiCad (6.0.4)} date Sat Apr 23 23:59:54 2022
; FORMAT={-:-/ absolute / metric / decimal}
; #@! TF.CreationDate,2022-04-23T23:59:54+08:00
; #@! TF.GenerationSoftware,Kicad,Pcbnew,(6.0.4)
; #@! TF.FileFunction,Plated,1,4,PTH
FMAT,2
METRIC
; #@! TA.AperFunction,Plated,PTH,ViaDrill
T1C0.300
; #@! TA.AperFunction,Plated,PTH,ViaDrill
T2C0.400
; #@! TA.AperFunction,Plated,PTH,ComponentDrill
T3C0.500
; #@! TA.AperFunction,Plated,PTH,ComponentDrill
T4C0.600
; #@! TA.AperFunction,Plated,PTH,ComponentDrill
T5C0.900
; #@! TA.AperFunction,Plated,PTH,ComponentDrill
T6C1.000
; #@! TA.AperFunction,Plated,PTH,ComponentDrill
T7C2.800
; #@! TA.AperFunction,Plated,PTH,ComponentDrill
T8C3.200
%
G90
G05
T1
X77.25Y-58.166
X77.25Y-56.896
X77.25Y-57.531
X77.25Y-66.802
X77.25Y-67.437
X77.25Y-68.072
X85.742Y-66.802
X86.521Y-79.629
X87.156Y-45.212
X89.696Y-57.023
X89.696Y-68.072
X91.728Y-79.629
X91.855Y-45.212
X92.744Y-57.023
X92.744Y-68.072
X107.222Y-46.609
X110.397Y-46.609
X116.493Y-81.28
T2
X78.774Y-59.055
X78.774Y-65.913
X78.901Y-56.769
X78.901Y-57.531
X78.901Y-58.293
X78.901Y-66.675
X78.901Y-67.437
X78.901Y-68.199
X79.536Y-59.055
X79.536Y-65.913
X79.663Y-56.769
X79.663Y-57.531
X79.663Y-58.293
X79.663Y-66.675
X79.663Y-67.437
X79.663Y-68.199
X80.298Y-59.055
X80.298Y-65.913
X80.425Y-56.769
X80.425Y-57.531
X80.425Y-58.293
X80.425Y-66.675
X80.425Y-67.437
X80.425Y-68.199
X82.076Y-56.388
X82.076Y-57.15
X82.076Y-57.912
X82.076Y-58.674
X82.076Y-59.436
X82.076Y-60.198
X82.076Y-64.77
X82.076Y-65.532
X82.076Y-66.294
X82.076Y-67.056
X82.076Y-67.818
X82.076Y-68.58
X82.838Y-56.388
X82.838Y-57.15
X82.838Y-57.912
X82.838Y-58.674
X82.838Y-59.436
X82.838Y-60.198
X82.838Y-64.77
X82.838Y-65.532
X82.838Y-66.294
X82.838Y-67.056
X82.838Y-67.818
X82.838Y-68.58
X86.504Y-74.93
X87.545Y-50.8
X88.434Y-74.93
X88.739Y-55.372
X89.476Y-50.8
X90.365Y-74.93
X90.67Y-55.372
X91.406Y-50.8
X92.295Y-74.93
X92.6Y-55.372
X93.337Y-50.8
X94.226Y-74.93
X94.53Y-55.372
X95.699Y-70.739
X96.156Y-74.93
X96.461Y-55.372
X97.629Y-70.739
X98.848Y-54.483
X99.56Y-70.739
X100.728Y-61.214
X100.728Y-63.754
X100.779Y-54.483
X101.49Y-70.739
X101.617Y-60.198
X101.617Y-64.77
X102.709Y-54.483
X103.42Y-70.739
X104.462Y-74.93
X104.64Y-54.483
X104.665Y-59.563
X104.665Y-65.405
X105.046Y-61.214
X105.046Y-63.754
X105.351Y-70.739
X105.808Y-50.419
X106.392Y-74.93
X106.57Y-54.483
X106.57Y-62.484
X106.951Y-58.801
X106.951Y-66.167
X107.967Y-50.419
X108.323Y-74.93
X109.872Y-50.419
X110.253Y-62.484
X110.253Y-74.93
X110.507Y-58.801
X110.507Y-66.167
X111.269Y-51.943
X112.031Y-56.261
X112.031Y-68.707
X112.183Y-74.93
X112.539Y-56.769
X112.539Y-68.199
X113.047Y-57.277
X113.047Y-67.691
X113.555Y-57.785
X113.555Y-67.183
X114.063Y-58.293
X114.063Y-66.675
X114.114Y-74.93
X114.571Y-58.801
X114.571Y-66.167
X114.571Y-68.58
X114.571Y-69.342
X114.698Y-55.626
X114.698Y-56.388
X115.079Y-59.309
X115.079Y-65.659
X115.333Y-67.818
X115.333Y-68.58
X115.333Y-69.342
X115.46Y-55.626
X115.46Y-56.388
X115.46Y-57.15
X115.587Y-59.817
X115.587Y-65.151
X116.095Y-67.056
X116.095Y-67.818
X116.095Y-68.58
X116.095Y-69.342
X116.222Y-55.626
X116.222Y-56.388
X116.222Y-57.15
X116.222Y-57.912
X116.476Y-62.033
X119.837Y-62.76
X122.826Y-61.722
X122.826Y-62.484
X122.826Y-63.246
X123.715Y-61.722
X123.715Y-62.484
X123.715Y-63.246
T3
X78.834Y-47.484
X78.834Y-77.484
X79.537Y-45.787
X79.537Y-49.181
X79.537Y-75.787
X79.537Y-79.181
X81.234Y-45.084
X81.234Y-49.884
X81.234Y-75.084
X81.234Y-79.884
X82.931Y-45.787
X82.931Y-49.181
X82.931Y-75.787
X82.931Y-79.181
X83.634Y-47.484
X83.634Y-77.484
X117.334Y-47.484
X117.334Y-77.484
X118.037Y-45.787
X118.037Y-49.181
X118.037Y-75.787
X118.037Y-79.181
X119.734Y-45.084
X119.734Y-49.884
X119.734Y-75.084
X119.734Y-79.884
X121.431Y-45.787
X121.431Y-49.181
X121.431Y-75.787
X121.431Y-79.181
X122.134Y-47.484
X122.134Y-77.484
T5
X95.284Y-47.879
X95.284Y-77.724
X97.934Y-57.404
X97.934Y-67.564
X103.014Y-57.404
X103.014Y-67.564
X108.729Y-60.579
X108.729Y-64.389
T6
X112.158Y-61.214
X112.158Y-63.754
T7
X100.728Y-47.879
X100.982Y-76.962
T8
X81.234Y-47.484
X81.234Y-77.484
X119.734Y-47.484
X119.734Y-77.484
T4
G00X119.079Y-58.164
M15
G01X117.979Y-58.164
M16
G05
G00X119.079Y-66.804
M15
G01X117.979Y-66.804
M16
G05
G00X123.099Y-58.164
M15
G01X122.299Y-58.164
M16
G05
G00X123.099Y-66.804
M15
G01X122.299Y-66.804
M16
G05
T0
M30
