%TF.GenerationSoftware,KiCad,Pcbnew,(6.0.4)*%
%TF.CreationDate,2022-04-23T23:59:39+08:00*%
%TF.ProjectId,USBC_PD_TEST,55534243-5f50-4445-9f54-4553542e6b69,V0.9*%
%TF.SameCoordinates,Original*%
%TF.FileFunction,Soldermask,Bot*%
%TF.FilePolarity,Negative*%
%FSLAX46Y46*%
G04 Gerber Fmt 4.6, Leading zero omitted, Abs format (unit mm)*
G04 Created by KiCad (PCBNEW (6.0.4)) date 2022-04-23 23:59:39*
%MOMM*%
%LPD*%
G01*
G04 APERTURE LIST*
%ADD10C,1.270000*%
%ADD11C,1.800000*%
%ADD12R,1.700000X1.700000*%
%ADD13O,1.700000X1.700000*%
%ADD14C,6.400000*%
%ADD15C,0.800000*%
%ADD16C,0.600000*%
%ADD17O,2.000000X0.900000*%
%ADD18O,1.700000X0.900000*%
%ADD19R,1.000000X0.380000*%
%ADD20R,1.150000X0.700000*%
%ADD21C,4.800000*%
G04 APERTURE END LIST*
D10*
X81567993Y-71247000D02*
X85250993Y-71247000D01*
X111793993Y-55626000D02*
X111793993Y-56515000D01*
X114587993Y-59309000D02*
X114587993Y-65405000D01*
X85250993Y-71247000D02*
X86901993Y-72898000D01*
X80043993Y-66421000D02*
X80043993Y-69723000D01*
X111793993Y-56515000D02*
X114587993Y-59309000D01*
X79155000Y-65532000D02*
X80043993Y-66421000D01*
X83472993Y-55880000D02*
X86266993Y-53086000D01*
X80043993Y-69723000D02*
X81567993Y-71247000D01*
X95537993Y-52451000D02*
X108618993Y-52451000D01*
X114587993Y-65405000D02*
X111412993Y-68580000D01*
X81186993Y-60833000D02*
X83472993Y-58547000D01*
X94902993Y-53086000D02*
X95537993Y-52451000D01*
G36*
X105570986Y-76581000D02*
G01*
X115603986Y-76581000D01*
X115603986Y-81153000D01*
X105570986Y-81153000D01*
X105570986Y-76581000D01*
G37*
X83472993Y-58547000D02*
X83472993Y-55880000D01*
X113444993Y-72898000D02*
X115222993Y-71120000D01*
X86901993Y-72898000D02*
X113444993Y-72898000D01*
X115222993Y-68580000D02*
X116111993Y-67691000D01*
X86266993Y-53086000D02*
X94902993Y-53086000D01*
X108618993Y-52451000D02*
X111793993Y-55626000D01*
X115222993Y-71120000D02*
X115222993Y-68580000D01*
D11*
%TO.C,TP8*%
X97934000Y-67564000D03*
%TD*%
%TO.C,TP2*%
X95284000Y-47879000D03*
%TD*%
D12*
%TO.C,J2*%
X112158000Y-61214000D03*
D13*
X112158000Y-63754000D03*
%TD*%
D14*
%TO.C,H2*%
X119734007Y-47484005D03*
D15*
X119734000Y-45084000D03*
X119734000Y-49884000D03*
X122134000Y-47484000D03*
X121431056Y-49181056D03*
X117334000Y-47484000D03*
X118036944Y-49181056D03*
X118036944Y-45786944D03*
X121431056Y-45786944D03*
%TD*%
D16*
%TO.C,J1*%
X119008999Y-65374000D03*
X119008999Y-59594000D03*
D17*
X118528999Y-58164000D03*
D18*
X122698999Y-66804000D03*
X122698999Y-58164000D03*
D17*
X118528999Y-66804000D03*
%TD*%
D15*
%TO.C,H4*%
X118036944Y-79181056D03*
X119734000Y-79884000D03*
X122134000Y-77484000D03*
X121431056Y-75786944D03*
X117334000Y-77484000D03*
D14*
X119734007Y-77483995D03*
D15*
X118036944Y-75786944D03*
X121431056Y-79181056D03*
X119734000Y-75084000D03*
%TD*%
D19*
%TO.C,P1*%
X76273993Y-59734000D03*
X76273993Y-60234000D03*
X76273993Y-60734000D03*
X76273993Y-61234000D03*
X76273993Y-61734000D03*
X76273993Y-63234000D03*
X76273993Y-63734000D03*
X76273993Y-64234000D03*
X76273993Y-64734000D03*
X76273993Y-65234000D03*
D20*
X77113993Y-59064000D03*
%TD*%
D11*
%TO.C,TP4*%
X97934000Y-57404000D03*
%TD*%
%TO.C,TP3*%
X103014000Y-67564000D03*
%TD*%
%TO.C,TP5*%
X108729000Y-60579000D03*
%TD*%
D15*
%TO.C,H3*%
X81234000Y-75084000D03*
X79536944Y-79181056D03*
D14*
X81234008Y-77483995D03*
D15*
X82931056Y-75786944D03*
X79536944Y-75786944D03*
X82931056Y-79181056D03*
X81234000Y-79884000D03*
X83634000Y-77484000D03*
X78834000Y-77484000D03*
%TD*%
D21*
%TO.C,TP1*%
X100728000Y-47879000D03*
%TD*%
D11*
%TO.C,TP6*%
X108729000Y-64389000D03*
%TD*%
%TO.C,TP10*%
X95284000Y-77724000D03*
%TD*%
D15*
%TO.C,H1*%
X81234000Y-45084000D03*
X82931056Y-45786944D03*
X78834000Y-47484000D03*
X81234000Y-49884000D03*
X82931056Y-49181056D03*
X79536944Y-45786944D03*
D14*
X81234008Y-47484005D03*
D15*
X83634000Y-47484000D03*
X79536944Y-49181056D03*
%TD*%
D21*
%TO.C,TP9*%
X100982000Y-76962000D03*
%TD*%
D11*
%TO.C,TP7*%
X103014000Y-57404000D03*
%TD*%
M02*
