%TF.GenerationSoftware,KiCad,Pcbnew,(6.0.4)*%
%TF.CreationDate,2022-04-23T23:59:38+08:00*%
%TF.ProjectId,USBC_PD_TEST,55534243-5f50-4445-9f54-4553542e6b69,V0.9*%
%TF.SameCoordinates,Original*%
%TF.FileFunction,Copper,L2,Inr*%
%TF.FilePolarity,Positive*%
%FSLAX46Y46*%
G04 Gerber Fmt 4.6, Leading zero omitted, Abs format (unit mm)*
G04 Created by KiCad (PCBNEW (6.0.4)) date 2022-04-23 23:59:38*
%MOMM*%
%LPD*%
G01*
G04 APERTURE LIST*
%TA.AperFunction,NonConductor*%
%ADD10C,0.200000*%
%TD*%
%ADD11C,0.300000*%
%TA.AperFunction,NonConductor*%
%ADD12C,0.300000*%
%TD*%
%TA.AperFunction,ComponentPad*%
%ADD13C,1.800000*%
%TD*%
%TA.AperFunction,ComponentPad*%
%ADD14R,1.700000X1.700000*%
%TD*%
%TA.AperFunction,ComponentPad*%
%ADD15O,1.700000X1.700000*%
%TD*%
%TA.AperFunction,ComponentPad*%
%ADD16C,6.400000*%
%TD*%
%TA.AperFunction,ComponentPad*%
%ADD17C,0.800000*%
%TD*%
%TA.AperFunction,ComponentPad*%
%ADD18O,2.000000X0.900000*%
%TD*%
%TA.AperFunction,ComponentPad*%
%ADD19O,1.700000X0.900000*%
%TD*%
%TA.AperFunction,ComponentPad*%
%ADD20C,4.800000*%
%TD*%
%TA.AperFunction,ViaPad*%
%ADD21C,0.800000*%
%TD*%
%TA.AperFunction,ViaPad*%
%ADD22C,0.600000*%
%TD*%
G04 APERTURE END LIST*
D10*
X110651000Y-77533500D02*
X112810000Y-77533500D01*
X112810000Y-77533500D02*
X112810000Y-80200500D01*
X112810000Y-80200500D02*
X110651000Y-80200500D01*
X110651000Y-80200500D02*
X110651000Y-77533500D01*
D11*
D12*
X111294000Y-78172571D02*
X112222571Y-78172571D01*
X111722571Y-78744000D01*
X111936857Y-78744000D01*
X112079714Y-78815428D01*
X112151142Y-78886857D01*
X112222571Y-79029714D01*
X112222571Y-79386857D01*
X112151142Y-79529714D01*
X112079714Y-79601142D01*
X111936857Y-79672571D01*
X111508285Y-79672571D01*
X111365428Y-79601142D01*
X111294000Y-79529714D01*
D13*
%TO.N,/SBU2*%
%TO.C,TP8*%
X97934000Y-67564000D03*
%TD*%
%TO.N,VBUS*%
%TO.C,TP2*%
X95284000Y-47879000D03*
%TD*%
D14*
%TO.N,/USB_D-*%
%TO.C,J2*%
X112158000Y-61214000D03*
D15*
%TO.N,/USB_D+*%
X112158000Y-63754000D03*
%TD*%
D16*
%TO.N,N/C*%
%TO.C,H2*%
X119734007Y-47484005D03*
D17*
X119734000Y-45084000D03*
X119734000Y-49884000D03*
X122134000Y-47484000D03*
X121431056Y-49181056D03*
X117334000Y-47484000D03*
X118036944Y-49181056D03*
X118036944Y-45786944D03*
X121431056Y-45786944D03*
%TD*%
D18*
%TO.N,Earth*%
%TO.C,J1*%
X118528999Y-58164000D03*
D19*
X122698999Y-66804000D03*
X122698999Y-58164000D03*
D18*
X118528999Y-66804000D03*
%TD*%
D17*
%TO.N,N/C*%
%TO.C,H4*%
X118036944Y-79181056D03*
X119734000Y-79884000D03*
X122134000Y-77484000D03*
X121431056Y-75786944D03*
X117334000Y-77484000D03*
D16*
X119734007Y-77483995D03*
D17*
X118036944Y-75786944D03*
X121431056Y-79181056D03*
X119734000Y-75084000D03*
%TD*%
D13*
%TO.N,/VCONN*%
%TO.C,TP4*%
X97934000Y-57404000D03*
%TD*%
%TO.N,/CC*%
%TO.C,TP3*%
X103014000Y-67564000D03*
%TD*%
%TO.N,/USB_D-*%
%TO.C,TP5*%
X108729000Y-60579000D03*
%TD*%
D17*
%TO.N,N/C*%
%TO.C,H3*%
X81234000Y-75084000D03*
X79536944Y-79181056D03*
D16*
X81234008Y-77483995D03*
D17*
X82931056Y-75786944D03*
X79536944Y-75786944D03*
X82931056Y-79181056D03*
X81234000Y-79884000D03*
X83634000Y-77484000D03*
X78834000Y-77484000D03*
%TD*%
D20*
%TO.N,VBUS*%
%TO.C,TP1*%
X100728000Y-47879000D03*
%TD*%
D13*
%TO.N,/USB_D+*%
%TO.C,TP6*%
X108729000Y-64389000D03*
%TD*%
%TO.N,GND*%
%TO.C,TP10*%
X95284000Y-77724000D03*
%TD*%
D17*
%TO.N,N/C*%
%TO.C,H1*%
X81234000Y-45084000D03*
X82931056Y-45786944D03*
X78834000Y-47484000D03*
X81234000Y-49884000D03*
X82931056Y-49181056D03*
X79536944Y-45786944D03*
D16*
X81234008Y-47484005D03*
D17*
X83634000Y-47484000D03*
X79536944Y-49181056D03*
%TD*%
D20*
%TO.N,GND*%
%TO.C,TP9*%
X100982000Y-76962000D03*
%TD*%
D13*
%TO.N,/SBU1*%
%TO.C,TP7*%
X103014000Y-57404000D03*
%TD*%
D21*
%TO.N,GND*%
X116095000Y-67818000D03*
X115460000Y-55626000D03*
X101617000Y-64770000D03*
X78774000Y-65913000D03*
X78774000Y-59055000D03*
X78901000Y-66675000D03*
X114571000Y-69342000D03*
X108322600Y-74930000D03*
X94225600Y-74930000D03*
X116095000Y-69342000D03*
X100728000Y-63754000D03*
D22*
X85742000Y-66802000D03*
X89696000Y-57023000D03*
D21*
X79536000Y-65913000D03*
X79663000Y-67437000D03*
X116222000Y-57912000D03*
X101617000Y-60198000D03*
X95698800Y-70739000D03*
X79663000Y-58293000D03*
X80298000Y-59055000D03*
X104665000Y-59563000D03*
X105350800Y-70739000D03*
X92295200Y-74930000D03*
X106951000Y-66167000D03*
X115333000Y-68580000D03*
X96156000Y-74930000D03*
D22*
X92744000Y-57023000D03*
D21*
X115333000Y-67818000D03*
X80425000Y-56769000D03*
X79663000Y-57531000D03*
X116222000Y-56388000D03*
X80425000Y-68199000D03*
X116222000Y-55626000D03*
X101490000Y-70739000D03*
X97629200Y-70739000D03*
X79663000Y-56769000D03*
D22*
X92744000Y-68072000D03*
D21*
X78901000Y-58293000D03*
X99559600Y-70739000D03*
X105046000Y-63754000D03*
X78901000Y-57531000D03*
X90364800Y-74930000D03*
X104461800Y-74930000D03*
X110507000Y-66167000D03*
X88434400Y-74930000D03*
X103420400Y-70739000D03*
X80425000Y-58293000D03*
X104665000Y-65405000D03*
X110253000Y-74930000D03*
X115460000Y-57150000D03*
X110253000Y-62484000D03*
X79663000Y-66675000D03*
X112183400Y-74930000D03*
X115460000Y-56388000D03*
X106951000Y-58801000D03*
X80425000Y-67437000D03*
X106392200Y-74930000D03*
X114571000Y-68580000D03*
X78901000Y-56769000D03*
X78901000Y-68199000D03*
D22*
X89696000Y-68072000D03*
D21*
X106570000Y-62484000D03*
X80425000Y-57531000D03*
X79536000Y-59055000D03*
X100728000Y-61214000D03*
X114698000Y-55626000D03*
X115333000Y-69342000D03*
X79663000Y-68199000D03*
X105046000Y-61214000D03*
X116222000Y-57150000D03*
X80298000Y-65913000D03*
X116095000Y-67056000D03*
X110507000Y-58801000D03*
X114113800Y-74930000D03*
X80425000Y-66675000D03*
X86504000Y-74930000D03*
X78901000Y-67437000D03*
X116095000Y-68580000D03*
X114698000Y-56388000D03*
%TO.N,VBUS*%
X96460800Y-55372000D03*
X82076000Y-56388000D03*
X82838000Y-64770000D03*
X112539000Y-68199000D03*
X111269000Y-51943000D03*
X82076000Y-68580000D03*
X105808000Y-50419000D03*
X115587000Y-59817000D03*
X82838000Y-58674000D03*
X82838000Y-60198000D03*
X82838000Y-59436000D03*
X82076000Y-67056000D03*
X82076000Y-66294000D03*
X82838000Y-67818000D03*
X82076000Y-57150000D03*
X82076000Y-65532000D03*
X112539000Y-56769000D03*
X82838000Y-68580000D03*
X82076000Y-60198000D03*
X114063000Y-66675000D03*
X82838000Y-65532000D03*
X109872000Y-50419000D03*
X114571000Y-58801000D03*
X106570000Y-54483000D03*
X114571000Y-66167000D03*
X82838000Y-67056000D03*
X92600000Y-55372000D03*
X115079000Y-65659000D03*
X104639600Y-54483000D03*
X87545400Y-50800000D03*
X113555000Y-57785000D03*
X82838000Y-57150000D03*
X90669600Y-55372000D03*
X88739200Y-55372000D03*
X82076000Y-67818000D03*
X112031000Y-68707000D03*
X115587000Y-65151000D03*
X113047000Y-57277000D03*
X82838000Y-66294000D03*
X82838000Y-57912000D03*
X102709200Y-54483000D03*
X82076000Y-64770000D03*
X82076000Y-57912000D03*
X113047000Y-67691000D03*
X82076000Y-58674000D03*
X89475800Y-50800000D03*
X100778800Y-54483000D03*
X98848400Y-54483000D03*
X113555000Y-67183000D03*
X112031000Y-56261000D03*
X107967000Y-50419000D03*
X82838000Y-56388000D03*
X94530400Y-55372000D03*
X82076000Y-59436000D03*
X115079000Y-59309000D03*
X93336600Y-50800000D03*
X114063000Y-58293000D03*
X91406200Y-50800000D03*
%TO.N,/USB_D-*%
X119837257Y-62760117D03*
X116476000Y-62032900D03*
D22*
%TO.N,Earth*%
X77249993Y-58166000D03*
X107222000Y-46609000D03*
X77250000Y-67437000D03*
D21*
X123715000Y-63246000D03*
D22*
X91728000Y-79629000D03*
X77250000Y-66802000D03*
D21*
X122826000Y-63246000D03*
D22*
X86521000Y-79629000D03*
X77250000Y-68072000D03*
D21*
X122826000Y-62484000D03*
D22*
X110397000Y-46609000D03*
X77250000Y-57531000D03*
D21*
X123715000Y-61722000D03*
D22*
X87156000Y-45212000D03*
D21*
X123715000Y-62484000D03*
X122826000Y-61722000D03*
D22*
X91855000Y-45212000D03*
X77250000Y-56896000D03*
X116493000Y-81280000D03*
%TD*%
%TA.AperFunction,Conductor*%
%TO.N,GND*%
G36*
X86908474Y-49931002D02*
G01*
X86954967Y-49984658D01*
X86965071Y-50054932D01*
X86933990Y-50121308D01*
X86806360Y-50263056D01*
X86803059Y-50268774D01*
X86716326Y-50419000D01*
X86710873Y-50428444D01*
X86651858Y-50610072D01*
X86651168Y-50616633D01*
X86651168Y-50616635D01*
X86641531Y-50708331D01*
X86631896Y-50800000D01*
X86651858Y-50989928D01*
X86710873Y-51171556D01*
X86806360Y-51336944D01*
X86934147Y-51478866D01*
X87033243Y-51550864D01*
X87070220Y-51577729D01*
X87088648Y-51591118D01*
X87094676Y-51593802D01*
X87094678Y-51593803D01*
X87257081Y-51666109D01*
X87263112Y-51668794D01*
X87356513Y-51688647D01*
X87443456Y-51707128D01*
X87443461Y-51707128D01*
X87449913Y-51708500D01*
X87640887Y-51708500D01*
X87647339Y-51707128D01*
X87647344Y-51707128D01*
X87734288Y-51688647D01*
X87827688Y-51668794D01*
X87833719Y-51666109D01*
X87996122Y-51593803D01*
X87996124Y-51593802D01*
X88002152Y-51591118D01*
X88020581Y-51577729D01*
X88057557Y-51550864D01*
X88156653Y-51478866D01*
X88284440Y-51336944D01*
X88379927Y-51171556D01*
X88390767Y-51138194D01*
X88430841Y-51079588D01*
X88496237Y-51051951D01*
X88566194Y-51064058D01*
X88618500Y-51112064D01*
X88630433Y-51138194D01*
X88641273Y-51171556D01*
X88736760Y-51336944D01*
X88864547Y-51478866D01*
X88963643Y-51550864D01*
X89000620Y-51577729D01*
X89019048Y-51591118D01*
X89025076Y-51593802D01*
X89025078Y-51593803D01*
X89187481Y-51666109D01*
X89193512Y-51668794D01*
X89286913Y-51688647D01*
X89373856Y-51707128D01*
X89373861Y-51707128D01*
X89380313Y-51708500D01*
X89571287Y-51708500D01*
X89577739Y-51707128D01*
X89577744Y-51707128D01*
X89664688Y-51688647D01*
X89758088Y-51668794D01*
X89764119Y-51666109D01*
X89926522Y-51593803D01*
X89926524Y-51593802D01*
X89932552Y-51591118D01*
X89950981Y-51577729D01*
X89987957Y-51550864D01*
X90087053Y-51478866D01*
X90214840Y-51336944D01*
X90310327Y-51171556D01*
X90321167Y-51138194D01*
X90361241Y-51079588D01*
X90426637Y-51051951D01*
X90496594Y-51064058D01*
X90548900Y-51112064D01*
X90560833Y-51138194D01*
X90571673Y-51171556D01*
X90667160Y-51336944D01*
X90794947Y-51478866D01*
X90894043Y-51550864D01*
X90931020Y-51577729D01*
X90949448Y-51591118D01*
X90955476Y-51593802D01*
X90955478Y-51593803D01*
X91117881Y-51666109D01*
X91123912Y-51668794D01*
X91217313Y-51688647D01*
X91304256Y-51707128D01*
X91304261Y-51707128D01*
X91310713Y-51708500D01*
X91501687Y-51708500D01*
X91508139Y-51707128D01*
X91508144Y-51707128D01*
X91595088Y-51688647D01*
X91688488Y-51668794D01*
X91694519Y-51666109D01*
X91856922Y-51593803D01*
X91856924Y-51593802D01*
X91862952Y-51591118D01*
X91881381Y-51577729D01*
X91918357Y-51550864D01*
X92017453Y-51478866D01*
X92145240Y-51336944D01*
X92240727Y-51171556D01*
X92251567Y-51138194D01*
X92291641Y-51079588D01*
X92357037Y-51051951D01*
X92426994Y-51064058D01*
X92479300Y-51112064D01*
X92491233Y-51138194D01*
X92502073Y-51171556D01*
X92597560Y-51336944D01*
X92725347Y-51478866D01*
X92824443Y-51550864D01*
X92861420Y-51577729D01*
X92879848Y-51591118D01*
X92885876Y-51593802D01*
X92885878Y-51593803D01*
X93048281Y-51666109D01*
X93054312Y-51668794D01*
X93147713Y-51688647D01*
X93234656Y-51707128D01*
X93234661Y-51707128D01*
X93241113Y-51708500D01*
X93432087Y-51708500D01*
X93438539Y-51707128D01*
X93438544Y-51707128D01*
X93525488Y-51688647D01*
X93618888Y-51668794D01*
X93624919Y-51666109D01*
X93787322Y-51593803D01*
X93787324Y-51593802D01*
X93793352Y-51591118D01*
X93811781Y-51577729D01*
X93848757Y-51550864D01*
X93947853Y-51478866D01*
X94075640Y-51336944D01*
X94171127Y-51171556D01*
X94230142Y-50989928D01*
X94250104Y-50800000D01*
X94240469Y-50708331D01*
X94230832Y-50616635D01*
X94230832Y-50616633D01*
X94230142Y-50610072D01*
X94171127Y-50428444D01*
X94165675Y-50419000D01*
X94078941Y-50268774D01*
X94075640Y-50263056D01*
X93948009Y-50121308D01*
X93917294Y-50057303D01*
X93926058Y-49986849D01*
X93971520Y-49932318D01*
X94041647Y-49911000D01*
X98590635Y-49911000D01*
X98658756Y-49931002D01*
X98675434Y-49943807D01*
X98894520Y-50143160D01*
X99166907Y-50338889D01*
X99459985Y-50502015D01*
X99769870Y-50630374D01*
X99773364Y-50631369D01*
X99773366Y-50631370D01*
X100088954Y-50721267D01*
X100088959Y-50721268D01*
X100092455Y-50722264D01*
X100319998Y-50759526D01*
X100419884Y-50775883D01*
X100419888Y-50775883D01*
X100423464Y-50776469D01*
X100427090Y-50776640D01*
X100754882Y-50792098D01*
X100754883Y-50792098D01*
X100758509Y-50792269D01*
X100783637Y-50790556D01*
X101089518Y-50769704D01*
X101089526Y-50769703D01*
X101093149Y-50769456D01*
X101096725Y-50768793D01*
X101096727Y-50768793D01*
X101419385Y-50708992D01*
X101419389Y-50708991D01*
X101422950Y-50708331D01*
X101743540Y-50609705D01*
X101985697Y-50503405D01*
X102047346Y-50476343D01*
X102047350Y-50476341D01*
X102050669Y-50474884D01*
X102073050Y-50461806D01*
X102337127Y-50307492D01*
X102337129Y-50307491D01*
X102340267Y-50305657D01*
X102343176Y-50303473D01*
X102605588Y-50106448D01*
X102605592Y-50106445D01*
X102608495Y-50104265D01*
X102775690Y-49945603D01*
X102838872Y-49913221D01*
X102862423Y-49911000D01*
X104844382Y-49911000D01*
X104912503Y-49931002D01*
X104958996Y-49984658D01*
X104969100Y-50054932D01*
X104964215Y-50075936D01*
X104954301Y-50106448D01*
X104914458Y-50229072D01*
X104913768Y-50235633D01*
X104913768Y-50235635D01*
X104910886Y-50263056D01*
X104894496Y-50419000D01*
X104914458Y-50608928D01*
X104973473Y-50790556D01*
X104976776Y-50796278D01*
X104976777Y-50796279D01*
X104982716Y-50806565D01*
X105068960Y-50955944D01*
X105073378Y-50960851D01*
X105073379Y-50960852D01*
X105166306Y-51064058D01*
X105196747Y-51097866D01*
X105351248Y-51210118D01*
X105357276Y-51212802D01*
X105357278Y-51212803D01*
X105519681Y-51285109D01*
X105525712Y-51287794D01*
X105619004Y-51307624D01*
X105706056Y-51326128D01*
X105706061Y-51326128D01*
X105712513Y-51327500D01*
X105903487Y-51327500D01*
X105909939Y-51326128D01*
X105909944Y-51326128D01*
X105996996Y-51307624D01*
X106090288Y-51287794D01*
X106096319Y-51285109D01*
X106258722Y-51212803D01*
X106258724Y-51212802D01*
X106264752Y-51210118D01*
X106419253Y-51097866D01*
X106449694Y-51064058D01*
X106542621Y-50960852D01*
X106542622Y-50960851D01*
X106547040Y-50955944D01*
X106633284Y-50806565D01*
X106639223Y-50796279D01*
X106639224Y-50796278D01*
X106642527Y-50790556D01*
X106701542Y-50608928D01*
X106721504Y-50419000D01*
X106705114Y-50263056D01*
X106702232Y-50235635D01*
X106702232Y-50235633D01*
X106701542Y-50229072D01*
X106661699Y-50106448D01*
X106651785Y-50075936D01*
X106649757Y-50004969D01*
X106686420Y-49944171D01*
X106750132Y-49912845D01*
X106771618Y-49911000D01*
X107003382Y-49911000D01*
X107071503Y-49931002D01*
X107117996Y-49984658D01*
X107128100Y-50054932D01*
X107123215Y-50075936D01*
X107113301Y-50106448D01*
X107073458Y-50229072D01*
X107072768Y-50235633D01*
X107072768Y-50235635D01*
X107069886Y-50263056D01*
X107053496Y-50419000D01*
X107073458Y-50608928D01*
X107132473Y-50790556D01*
X107135776Y-50796278D01*
X107135777Y-50796279D01*
X107141716Y-50806565D01*
X107227960Y-50955944D01*
X107232378Y-50960851D01*
X107232379Y-50960852D01*
X107325306Y-51064058D01*
X107355747Y-51097866D01*
X107510248Y-51210118D01*
X107516276Y-51212802D01*
X107516278Y-51212803D01*
X107678681Y-51285109D01*
X107684712Y-51287794D01*
X107778004Y-51307624D01*
X107865056Y-51326128D01*
X107865061Y-51326128D01*
X107871513Y-51327500D01*
X108062487Y-51327500D01*
X108068939Y-51326128D01*
X108068944Y-51326128D01*
X108155996Y-51307624D01*
X108249288Y-51287794D01*
X108255319Y-51285109D01*
X108417722Y-51212803D01*
X108417724Y-51212802D01*
X108423752Y-51210118D01*
X108578253Y-51097866D01*
X108608694Y-51064058D01*
X108701621Y-50960852D01*
X108701622Y-50960851D01*
X108706040Y-50955944D01*
X108792284Y-50806565D01*
X108798226Y-50796274D01*
X108798227Y-50796272D01*
X108801527Y-50790556D01*
X108803567Y-50784277D01*
X108804394Y-50782420D01*
X108850374Y-50728325D01*
X108918301Y-50707676D01*
X108986609Y-50727029D01*
X109034606Y-50782420D01*
X109035433Y-50784277D01*
X109037473Y-50790556D01*
X109040773Y-50796272D01*
X109040774Y-50796274D01*
X109046716Y-50806565D01*
X109132960Y-50955944D01*
X109137378Y-50960851D01*
X109137379Y-50960852D01*
X109230306Y-51064058D01*
X109260747Y-51097866D01*
X109415248Y-51210118D01*
X109421276Y-51212802D01*
X109421278Y-51212803D01*
X109583681Y-51285109D01*
X109589712Y-51287794D01*
X109683004Y-51307624D01*
X109770056Y-51326128D01*
X109770061Y-51326128D01*
X109776513Y-51327500D01*
X109967487Y-51327500D01*
X109973939Y-51326128D01*
X109973944Y-51326128D01*
X110060996Y-51307624D01*
X110154288Y-51287794D01*
X110160319Y-51285109D01*
X110322722Y-51212803D01*
X110322724Y-51212802D01*
X110328752Y-51210118D01*
X110450892Y-51121378D01*
X110499852Y-51103909D01*
X110516268Y-51061745D01*
X110522404Y-51054384D01*
X110611040Y-50955944D01*
X110697284Y-50806565D01*
X110703223Y-50796279D01*
X110703224Y-50796278D01*
X110706527Y-50790556D01*
X110765542Y-50608928D01*
X110785504Y-50419000D01*
X110769114Y-50263056D01*
X110766232Y-50235635D01*
X110766232Y-50235633D01*
X110765542Y-50229072D01*
X110725699Y-50106448D01*
X110715785Y-50075936D01*
X110713757Y-50004969D01*
X110750420Y-49944171D01*
X110814132Y-49912845D01*
X110835618Y-49911000D01*
X112373262Y-49911000D01*
X112441383Y-49931002D01*
X112466492Y-49952242D01*
X118533792Y-56626271D01*
X118587403Y-56685243D01*
X118618426Y-56749103D01*
X118609999Y-56819598D01*
X118564797Y-56874346D01*
X118494171Y-56896000D01*
X118144000Y-56896000D01*
X118144000Y-57079500D01*
X118123998Y-57147621D01*
X118070342Y-57194114D01*
X118018000Y-57205500D01*
X117930336Y-57205500D01*
X117869081Y-57211722D01*
X117791621Y-57219590D01*
X117791620Y-57219590D01*
X117785272Y-57220235D01*
X117728938Y-57237889D01*
X117605548Y-57276556D01*
X117605543Y-57276558D01*
X117599458Y-57278465D01*
X117541031Y-57310852D01*
X117434728Y-57369777D01*
X117434725Y-57369779D01*
X117429149Y-57372870D01*
X117424308Y-57377019D01*
X117424304Y-57377022D01*
X117337119Y-57451749D01*
X117281301Y-57499591D01*
X117277390Y-57504633D01*
X117277389Y-57504634D01*
X117249612Y-57540444D01*
X117161953Y-57653453D01*
X117159137Y-57659176D01*
X117159135Y-57659179D01*
X117079214Y-57821600D01*
X117075981Y-57828171D01*
X117074372Y-57834349D01*
X117074371Y-57834351D01*
X117028649Y-58009882D01*
X117026897Y-58016607D01*
X117022563Y-58099314D01*
X117019068Y-58166000D01*
X117016706Y-58211064D01*
X117045824Y-58403599D01*
X117048027Y-58409585D01*
X117048028Y-58409591D01*
X117110859Y-58580360D01*
X117110861Y-58580365D01*
X117113062Y-58586346D01*
X117116424Y-58591768D01*
X117195861Y-58719886D01*
X117215673Y-58751840D01*
X117220054Y-58756473D01*
X117220055Y-58756474D01*
X117254503Y-58792902D01*
X117349465Y-58893322D01*
X117354695Y-58896984D01*
X117354696Y-58896985D01*
X117408422Y-58934604D01*
X117508974Y-59005011D01*
X117514837Y-59007548D01*
X117681824Y-59079810D01*
X117681828Y-59079811D01*
X117687683Y-59082345D01*
X117693930Y-59083650D01*
X117693933Y-59083651D01*
X117873556Y-59121176D01*
X117873561Y-59121177D01*
X117878292Y-59122165D01*
X117884684Y-59122500D01*
X118018000Y-59122500D01*
X118086121Y-59142502D01*
X118132614Y-59196158D01*
X118144000Y-59248500D01*
X118144000Y-65719500D01*
X118123998Y-65787621D01*
X118070342Y-65834114D01*
X118018000Y-65845500D01*
X117930336Y-65845500D01*
X117861048Y-65852538D01*
X117791621Y-65859590D01*
X117791620Y-65859590D01*
X117785272Y-65860235D01*
X117741143Y-65874064D01*
X117605548Y-65916556D01*
X117605543Y-65916558D01*
X117599458Y-65918465D01*
X117514304Y-65965667D01*
X117434728Y-66009777D01*
X117434725Y-66009779D01*
X117429149Y-66012870D01*
X117424308Y-66017019D01*
X117424304Y-66017022D01*
X117288818Y-66133148D01*
X117281301Y-66139591D01*
X117277390Y-66144633D01*
X117277389Y-66144634D01*
X117242859Y-66189150D01*
X117161953Y-66293453D01*
X117159137Y-66299176D01*
X117159135Y-66299179D01*
X117113520Y-66391882D01*
X117075981Y-66468171D01*
X117074372Y-66474349D01*
X117074371Y-66474351D01*
X117030924Y-66641148D01*
X117026897Y-66656607D01*
X117024159Y-66708852D01*
X117017236Y-66840955D01*
X117016706Y-66851064D01*
X117045824Y-67043599D01*
X117048027Y-67049585D01*
X117048028Y-67049591D01*
X117110859Y-67220360D01*
X117110861Y-67220365D01*
X117113062Y-67226346D01*
X117129096Y-67252206D01*
X117194536Y-67357749D01*
X117215673Y-67391840D01*
X117349465Y-67533322D01*
X117354695Y-67536984D01*
X117354696Y-67536985D01*
X117437736Y-67595130D01*
X117508974Y-67645011D01*
X117514837Y-67647548D01*
X117681824Y-67719810D01*
X117681828Y-67719811D01*
X117687683Y-67722345D01*
X117693930Y-67723650D01*
X117693933Y-67723651D01*
X117873556Y-67761176D01*
X117873561Y-67761177D01*
X117878292Y-67762165D01*
X117884684Y-67762500D01*
X118018000Y-67762500D01*
X118086121Y-67782502D01*
X118132614Y-67836158D01*
X118144000Y-67888500D01*
X118144000Y-68948524D01*
X118141553Y-68973235D01*
X117641082Y-71475593D01*
X117515275Y-72104627D01*
X117488519Y-72160578D01*
X115261444Y-74833067D01*
X114371781Y-75900663D01*
X114312805Y-75940190D01*
X114274985Y-75946000D01*
X104555000Y-75946000D01*
X104555000Y-77725000D01*
X104534998Y-77793121D01*
X104481342Y-77839614D01*
X104429000Y-77851000D01*
X103550323Y-77851000D01*
X103482202Y-77830998D01*
X103435709Y-77777342D01*
X103425605Y-77707068D01*
X103430490Y-77686064D01*
X103457873Y-77601787D01*
X103459844Y-77594110D01*
X103518537Y-77286433D01*
X103519530Y-77278570D01*
X103539198Y-76965958D01*
X103539198Y-76958042D01*
X103519530Y-76645430D01*
X103518537Y-76637567D01*
X103459844Y-76329890D01*
X103457873Y-76322213D01*
X103361080Y-76024314D01*
X103358165Y-76016951D01*
X103224795Y-75733526D01*
X103220988Y-75726601D01*
X103119983Y-75567441D01*
X103109378Y-75558145D01*
X103100105Y-75562316D01*
X101071095Y-77591325D01*
X101008783Y-77625351D01*
X100937967Y-77620286D01*
X100892905Y-77591325D01*
X98866536Y-75564957D01*
X98854156Y-75558197D01*
X98846017Y-75564289D01*
X98743012Y-75726601D01*
X98739205Y-75733526D01*
X98605835Y-76016951D01*
X98602920Y-76024314D01*
X98506127Y-76322213D01*
X98504156Y-76329890D01*
X98445463Y-76637567D01*
X98444470Y-76645430D01*
X98424802Y-76958042D01*
X98424802Y-76965958D01*
X98444470Y-77278570D01*
X98445463Y-77286433D01*
X98504156Y-77594110D01*
X98506127Y-77601787D01*
X98533510Y-77686064D01*
X98535537Y-77757032D01*
X98498875Y-77817830D01*
X98435163Y-77849155D01*
X98413677Y-77851000D01*
X97569000Y-77851000D01*
X97500879Y-77830998D01*
X97454386Y-77777342D01*
X97443000Y-77725000D01*
X97443000Y-75946000D01*
X86446190Y-75946000D01*
X86378069Y-75925998D01*
X86357095Y-75909095D01*
X85280642Y-74832642D01*
X99577019Y-74832642D01*
X99583923Y-74845502D01*
X100969190Y-76230770D01*
X100983131Y-76238382D01*
X100984966Y-76238251D01*
X100991580Y-76234000D01*
X102380401Y-74845178D01*
X102387014Y-74833067D01*
X102378185Y-74821448D01*
X102355552Y-74805003D01*
X102348884Y-74800771D01*
X102074370Y-74649856D01*
X102067235Y-74646499D01*
X101775978Y-74531181D01*
X101768453Y-74528736D01*
X101465057Y-74450838D01*
X101457286Y-74449355D01*
X101146515Y-74410097D01*
X101138624Y-74409600D01*
X100825376Y-74409600D01*
X100817485Y-74410097D01*
X100506714Y-74449355D01*
X100498943Y-74450838D01*
X100195547Y-74528736D01*
X100188022Y-74531181D01*
X99896765Y-74646499D01*
X99889630Y-74649856D01*
X99615116Y-74800771D01*
X99608448Y-74805003D01*
X99585443Y-74821717D01*
X99577019Y-74832642D01*
X85280642Y-74832642D01*
X83219000Y-72771000D01*
X79461190Y-72771000D01*
X79393069Y-72750998D01*
X79372095Y-72734095D01*
X78175905Y-71537905D01*
X78141879Y-71475593D01*
X78139000Y-71448810D01*
X78139000Y-68580000D01*
X81162496Y-68580000D01*
X81163186Y-68586565D01*
X81177667Y-68724340D01*
X81182458Y-68769928D01*
X81241473Y-68951556D01*
X81336960Y-69116944D01*
X81464747Y-69258866D01*
X81619248Y-69371118D01*
X81625276Y-69373802D01*
X81625278Y-69373803D01*
X81787677Y-69446107D01*
X81793712Y-69448794D01*
X81887112Y-69468647D01*
X81974056Y-69487128D01*
X81974061Y-69487128D01*
X81980513Y-69488500D01*
X82171487Y-69488500D01*
X82177939Y-69487128D01*
X82177944Y-69487128D01*
X82316660Y-69457642D01*
X82358288Y-69448794D01*
X82364321Y-69446108D01*
X82364324Y-69446107D01*
X82405752Y-69427662D01*
X82476119Y-69418228D01*
X82508248Y-69427662D01*
X82549676Y-69446107D01*
X82549679Y-69446108D01*
X82555712Y-69448794D01*
X82597340Y-69457642D01*
X82736056Y-69487128D01*
X82736061Y-69487128D01*
X82742513Y-69488500D01*
X82933487Y-69488500D01*
X82939939Y-69487128D01*
X82939944Y-69487128D01*
X83026888Y-69468647D01*
X83120288Y-69448794D01*
X83126323Y-69446107D01*
X83288722Y-69373803D01*
X83288724Y-69373802D01*
X83294752Y-69371118D01*
X83449253Y-69258866D01*
X83577040Y-69116944D01*
X83672527Y-68951556D01*
X83731542Y-68769928D01*
X83736334Y-68724340D01*
X83750814Y-68586565D01*
X83751504Y-68580000D01*
X83750814Y-68573435D01*
X83732232Y-68396635D01*
X83732232Y-68396633D01*
X83731542Y-68390072D01*
X83698142Y-68287278D01*
X83682110Y-68237936D01*
X83680082Y-68166969D01*
X83682110Y-68160064D01*
X83729502Y-68014206D01*
X83731542Y-68007928D01*
X83734814Y-67976802D01*
X83750814Y-67824565D01*
X83751504Y-67818000D01*
X83733589Y-67647548D01*
X83732232Y-67634635D01*
X83732232Y-67634633D01*
X83731542Y-67628072D01*
X83709634Y-67560646D01*
X83699504Y-67529469D01*
X96521095Y-67529469D01*
X96521392Y-67534622D01*
X96521392Y-67534625D01*
X96532077Y-67719944D01*
X96534427Y-67760697D01*
X96535564Y-67765743D01*
X96535565Y-67765749D01*
X96562369Y-67884686D01*
X96585346Y-67986642D01*
X96587288Y-67991424D01*
X96587289Y-67991428D01*
X96667741Y-68189556D01*
X96672484Y-68201237D01*
X96793501Y-68398719D01*
X96945147Y-68573784D01*
X97123349Y-68721730D01*
X97323322Y-68838584D01*
X97539694Y-68921209D01*
X97544760Y-68922240D01*
X97544761Y-68922240D01*
X97597846Y-68933040D01*
X97766656Y-68967385D01*
X97897324Y-68972176D01*
X97992949Y-68975683D01*
X97992953Y-68975683D01*
X97998113Y-68975872D01*
X98003233Y-68975216D01*
X98003235Y-68975216D01*
X98076270Y-68965860D01*
X98227847Y-68946442D01*
X98232795Y-68944957D01*
X98232802Y-68944956D01*
X98444747Y-68881369D01*
X98449690Y-68879886D01*
X98463838Y-68872955D01*
X98653049Y-68780262D01*
X98653052Y-68780260D01*
X98657684Y-68777991D01*
X98846243Y-68643494D01*
X99010303Y-68480005D01*
X99145458Y-68291917D01*
X99192641Y-68196450D01*
X99245784Y-68088922D01*
X99245785Y-68088920D01*
X99248078Y-68084280D01*
X99315408Y-67862671D01*
X99345640Y-67633041D01*
X99345722Y-67629691D01*
X99347245Y-67567365D01*
X99347245Y-67567361D01*
X99347327Y-67564000D01*
X99344488Y-67529469D01*
X101601095Y-67529469D01*
X101601392Y-67534622D01*
X101601392Y-67534625D01*
X101612077Y-67719944D01*
X101614427Y-67760697D01*
X101615564Y-67765743D01*
X101615565Y-67765749D01*
X101642369Y-67884686D01*
X101665346Y-67986642D01*
X101667288Y-67991424D01*
X101667289Y-67991428D01*
X101747741Y-68189556D01*
X101752484Y-68201237D01*
X101873501Y-68398719D01*
X102025147Y-68573784D01*
X102203349Y-68721730D01*
X102403322Y-68838584D01*
X102619694Y-68921209D01*
X102624760Y-68922240D01*
X102624761Y-68922240D01*
X102677846Y-68933040D01*
X102846656Y-68967385D01*
X102977324Y-68972176D01*
X103072949Y-68975683D01*
X103072953Y-68975683D01*
X103078113Y-68975872D01*
X103083233Y-68975216D01*
X103083235Y-68975216D01*
X103156270Y-68965860D01*
X103307847Y-68946442D01*
X103312795Y-68944957D01*
X103312802Y-68944956D01*
X103524747Y-68881369D01*
X103529690Y-68879886D01*
X103543838Y-68872955D01*
X103733049Y-68780262D01*
X103733052Y-68780260D01*
X103737684Y-68777991D01*
X103837210Y-68707000D01*
X111117496Y-68707000D01*
X111118186Y-68713565D01*
X111135863Y-68881749D01*
X111137458Y-68896928D01*
X111196473Y-69078556D01*
X111291960Y-69243944D01*
X111419747Y-69385866D01*
X111477274Y-69427662D01*
X111559122Y-69487128D01*
X111574248Y-69498118D01*
X111580276Y-69500802D01*
X111580278Y-69500803D01*
X111742681Y-69573109D01*
X111748712Y-69575794D01*
X111842112Y-69595647D01*
X111929056Y-69614128D01*
X111929061Y-69614128D01*
X111935513Y-69615500D01*
X112126487Y-69615500D01*
X112132939Y-69614128D01*
X112132944Y-69614128D01*
X112219888Y-69595647D01*
X112313288Y-69575794D01*
X112319319Y-69573109D01*
X112481722Y-69500803D01*
X112481724Y-69500802D01*
X112487752Y-69498118D01*
X112502879Y-69487128D01*
X112584726Y-69427662D01*
X112642253Y-69385866D01*
X112770040Y-69243944D01*
X112865527Y-69078556D01*
X112866814Y-69079299D01*
X112907819Y-69031068D01*
X112925684Y-69021314D01*
X112940561Y-69014690D01*
X112995752Y-68990118D01*
X113018990Y-68973235D01*
X113057912Y-68944956D01*
X113150253Y-68877866D01*
X113278040Y-68735944D01*
X113373527Y-68570556D01*
X113374814Y-68571299D01*
X113415819Y-68523068D01*
X113433684Y-68513314D01*
X113448561Y-68506690D01*
X113503752Y-68482118D01*
X113658253Y-68369866D01*
X113728439Y-68291917D01*
X113781621Y-68232852D01*
X113781622Y-68232851D01*
X113786040Y-68227944D01*
X113881527Y-68062556D01*
X113882814Y-68063299D01*
X113923819Y-68015068D01*
X113941684Y-68005314D01*
X113956561Y-67998690D01*
X114011752Y-67974118D01*
X114166253Y-67861866D01*
X114252797Y-67765749D01*
X114289621Y-67724852D01*
X114289622Y-67724851D01*
X114294040Y-67719944D01*
X114389527Y-67554556D01*
X114390814Y-67555299D01*
X114431819Y-67507068D01*
X114449684Y-67497314D01*
X114513209Y-67469031D01*
X114519752Y-67466118D01*
X114674253Y-67353866D01*
X114678675Y-67348955D01*
X114797621Y-67216852D01*
X114797622Y-67216851D01*
X114802040Y-67211944D01*
X114897527Y-67046556D01*
X114898814Y-67047299D01*
X114939819Y-66999068D01*
X114957684Y-66989314D01*
X114998459Y-66971160D01*
X115027752Y-66958118D01*
X115182253Y-66845866D01*
X115310040Y-66703944D01*
X115405527Y-66538556D01*
X115406814Y-66539299D01*
X115447819Y-66491068D01*
X115465684Y-66481314D01*
X115508067Y-66462444D01*
X115535752Y-66450118D01*
X115690253Y-66337866D01*
X115725087Y-66299179D01*
X115813621Y-66200852D01*
X115813622Y-66200851D01*
X115818040Y-66195944D01*
X115913527Y-66030556D01*
X115914814Y-66031299D01*
X115955819Y-65983068D01*
X115973684Y-65973314D01*
X116037209Y-65945031D01*
X116043752Y-65942118D01*
X116076308Y-65918465D01*
X116156454Y-65860235D01*
X116198253Y-65829866D01*
X116224359Y-65800872D01*
X116321621Y-65692852D01*
X116321622Y-65692851D01*
X116326040Y-65687944D01*
X116412284Y-65538565D01*
X116418223Y-65528279D01*
X116418224Y-65528278D01*
X116421527Y-65522556D01*
X116480542Y-65340928D01*
X116486242Y-65286701D01*
X116499814Y-65157565D01*
X116500504Y-65151000D01*
X116496780Y-65115564D01*
X116481232Y-64967635D01*
X116481232Y-64967633D01*
X116480542Y-64961072D01*
X116421527Y-64779444D01*
X116416075Y-64770000D01*
X116329341Y-64619774D01*
X116326040Y-64614056D01*
X116300506Y-64585697D01*
X116202675Y-64477045D01*
X116202674Y-64477044D01*
X116198253Y-64472134D01*
X116061835Y-64373020D01*
X116049094Y-64363763D01*
X116049093Y-64363762D01*
X116043752Y-64359882D01*
X116037724Y-64357198D01*
X116037722Y-64357197D01*
X115875319Y-64284891D01*
X115875318Y-64284891D01*
X115869288Y-64282206D01*
X115766949Y-64260453D01*
X115688944Y-64243872D01*
X115688939Y-64243872D01*
X115682487Y-64242500D01*
X115491513Y-64242500D01*
X115485061Y-64243872D01*
X115485056Y-64243872D01*
X115407051Y-64260453D01*
X115304712Y-64282206D01*
X115298682Y-64284891D01*
X115298681Y-64284891D01*
X115136278Y-64357197D01*
X115136276Y-64357198D01*
X115130248Y-64359882D01*
X115124907Y-64363762D01*
X115124906Y-64363763D01*
X115112165Y-64373020D01*
X114975747Y-64472134D01*
X114971326Y-64477044D01*
X114971325Y-64477045D01*
X114873495Y-64585697D01*
X114847960Y-64614056D01*
X114752473Y-64779444D01*
X114751186Y-64778701D01*
X114710181Y-64826932D01*
X114692315Y-64836686D01*
X114622248Y-64867882D01*
X114616907Y-64871762D01*
X114616906Y-64871763D01*
X114572083Y-64904329D01*
X114467747Y-64980134D01*
X114463326Y-64985044D01*
X114463325Y-64985045D01*
X114370602Y-65088025D01*
X114339960Y-65122056D01*
X114244473Y-65287444D01*
X114243186Y-65286701D01*
X114202181Y-65334932D01*
X114184315Y-65344686D01*
X114114248Y-65375882D01*
X113959747Y-65488134D01*
X113955326Y-65493044D01*
X113955325Y-65493045D01*
X113854285Y-65605262D01*
X113831960Y-65630056D01*
X113736473Y-65795444D01*
X113735186Y-65794701D01*
X113694181Y-65842932D01*
X113676315Y-65852686D01*
X113606248Y-65883882D01*
X113451747Y-65996134D01*
X113323960Y-66138056D01*
X113228473Y-66303444D01*
X113227186Y-66302701D01*
X113186181Y-66350932D01*
X113168316Y-66360686D01*
X113153439Y-66367310D01*
X113098248Y-66391882D01*
X112943747Y-66504134D01*
X112939326Y-66509044D01*
X112939325Y-66509045D01*
X112916693Y-66534181D01*
X112815960Y-66646056D01*
X112720473Y-66811444D01*
X112719186Y-66810701D01*
X112678181Y-66858932D01*
X112660315Y-66868686D01*
X112590248Y-66899882D01*
X112435747Y-67012134D01*
X112431326Y-67017044D01*
X112431325Y-67017045D01*
X112402021Y-67049591D01*
X112307960Y-67154056D01*
X112212473Y-67319444D01*
X112211186Y-67318701D01*
X112170181Y-67366932D01*
X112152315Y-67376686D01*
X112082248Y-67407882D01*
X111927747Y-67520134D01*
X111923326Y-67525044D01*
X111923325Y-67525045D01*
X111823098Y-67636359D01*
X111799960Y-67662056D01*
X111704473Y-67827444D01*
X111703186Y-67826701D01*
X111662181Y-67874932D01*
X111644315Y-67884686D01*
X111574248Y-67915882D01*
X111419747Y-68028134D01*
X111291960Y-68170056D01*
X111196473Y-68335444D01*
X111137458Y-68517072D01*
X111136768Y-68523633D01*
X111136768Y-68523635D01*
X111131534Y-68573435D01*
X111117496Y-68707000D01*
X103837210Y-68707000D01*
X103926243Y-68643494D01*
X104090303Y-68480005D01*
X104225458Y-68291917D01*
X104272641Y-68196450D01*
X104325784Y-68088922D01*
X104325785Y-68088920D01*
X104328078Y-68084280D01*
X104395408Y-67862671D01*
X104425640Y-67633041D01*
X104425722Y-67629691D01*
X104427245Y-67567365D01*
X104427245Y-67567361D01*
X104427327Y-67564000D01*
X104414271Y-67405198D01*
X104408773Y-67338318D01*
X104408772Y-67338312D01*
X104408349Y-67333167D01*
X104359786Y-67139829D01*
X104353184Y-67113544D01*
X104353183Y-67113540D01*
X104351925Y-67108533D01*
X104349866Y-67103797D01*
X104261630Y-66900868D01*
X104261628Y-66900865D01*
X104259570Y-66896131D01*
X104133764Y-66701665D01*
X104100908Y-66665556D01*
X104074072Y-66636064D01*
X103977887Y-66530358D01*
X103973836Y-66527159D01*
X103973832Y-66527155D01*
X103800177Y-66390011D01*
X103800172Y-66390008D01*
X103796123Y-66386810D01*
X103791607Y-66384317D01*
X103791604Y-66384315D01*
X103597879Y-66277373D01*
X103597875Y-66277371D01*
X103593355Y-66274876D01*
X103588486Y-66273152D01*
X103588482Y-66273150D01*
X103379903Y-66199288D01*
X103379899Y-66199287D01*
X103375028Y-66197562D01*
X103369935Y-66196655D01*
X103369932Y-66196654D01*
X103152095Y-66157851D01*
X103152089Y-66157850D01*
X103147006Y-66156945D01*
X103074096Y-66156054D01*
X102920581Y-66154179D01*
X102920579Y-66154179D01*
X102915411Y-66154116D01*
X102686464Y-66189150D01*
X102466314Y-66261106D01*
X102461726Y-66263494D01*
X102461722Y-66263496D01*
X102293759Y-66350932D01*
X102260872Y-66368052D01*
X102256739Y-66371155D01*
X102256736Y-66371157D01*
X102081210Y-66502946D01*
X102075655Y-66507117D01*
X102072083Y-66510855D01*
X101937418Y-66651774D01*
X101915639Y-66674564D01*
X101912725Y-66678836D01*
X101912724Y-66678837D01*
X101899498Y-66698226D01*
X101785119Y-66865899D01*
X101687602Y-67075981D01*
X101625707Y-67299169D01*
X101601095Y-67529469D01*
X99344488Y-67529469D01*
X99334271Y-67405198D01*
X99328773Y-67338318D01*
X99328772Y-67338312D01*
X99328349Y-67333167D01*
X99279786Y-67139829D01*
X99273184Y-67113544D01*
X99273183Y-67113540D01*
X99271925Y-67108533D01*
X99269866Y-67103797D01*
X99181630Y-66900868D01*
X99181628Y-66900865D01*
X99179570Y-66896131D01*
X99053764Y-66701665D01*
X99020908Y-66665556D01*
X98994072Y-66636064D01*
X98897887Y-66530358D01*
X98893836Y-66527159D01*
X98893832Y-66527155D01*
X98720177Y-66390011D01*
X98720172Y-66390008D01*
X98716123Y-66386810D01*
X98711607Y-66384317D01*
X98711604Y-66384315D01*
X98517879Y-66277373D01*
X98517875Y-66277371D01*
X98513355Y-66274876D01*
X98508486Y-66273152D01*
X98508482Y-66273150D01*
X98299903Y-66199288D01*
X98299899Y-66199287D01*
X98295028Y-66197562D01*
X98289935Y-66196655D01*
X98289932Y-66196654D01*
X98072095Y-66157851D01*
X98072089Y-66157850D01*
X98067006Y-66156945D01*
X97994096Y-66156054D01*
X97840581Y-66154179D01*
X97840579Y-66154179D01*
X97835411Y-66154116D01*
X97606464Y-66189150D01*
X97386314Y-66261106D01*
X97381726Y-66263494D01*
X97381722Y-66263496D01*
X97213759Y-66350932D01*
X97180872Y-66368052D01*
X97176739Y-66371155D01*
X97176736Y-66371157D01*
X97001210Y-66502946D01*
X96995655Y-66507117D01*
X96992083Y-66510855D01*
X96857418Y-66651774D01*
X96835639Y-66674564D01*
X96832725Y-66678836D01*
X96832724Y-66678837D01*
X96819498Y-66698226D01*
X96705119Y-66865899D01*
X96607602Y-67075981D01*
X96545707Y-67299169D01*
X96521095Y-67529469D01*
X83699504Y-67529469D01*
X83682110Y-67475936D01*
X83680082Y-67404969D01*
X83682110Y-67398064D01*
X83729502Y-67252206D01*
X83731542Y-67245928D01*
X83751504Y-67056000D01*
X83750814Y-67049435D01*
X83732232Y-66872635D01*
X83732232Y-66872633D01*
X83731542Y-66866072D01*
X83710724Y-66802000D01*
X83682110Y-66713936D01*
X83680082Y-66642969D01*
X83682110Y-66636064D01*
X83729502Y-66490206D01*
X83731542Y-66483928D01*
X83734814Y-66452802D01*
X83750814Y-66300565D01*
X83751504Y-66294000D01*
X83741714Y-66200852D01*
X83732232Y-66110635D01*
X83732232Y-66110633D01*
X83731542Y-66104072D01*
X83717146Y-66059765D01*
X83682110Y-65951936D01*
X83680082Y-65880969D01*
X83682110Y-65874064D01*
X83717146Y-65766235D01*
X83731542Y-65721928D01*
X83737481Y-65665427D01*
X83750814Y-65538565D01*
X83751504Y-65532000D01*
X83737092Y-65394877D01*
X83732232Y-65348635D01*
X83732232Y-65348633D01*
X83731542Y-65342072D01*
X83694355Y-65227622D01*
X83682110Y-65189936D01*
X83680082Y-65118969D01*
X83682110Y-65112064D01*
X83723381Y-64985045D01*
X83731542Y-64959928D01*
X83736378Y-64913922D01*
X83750814Y-64776565D01*
X83751504Y-64770000D01*
X83737960Y-64641137D01*
X83732232Y-64586635D01*
X83732232Y-64586633D01*
X83731542Y-64580072D01*
X83672527Y-64398444D01*
X83667075Y-64389000D01*
X83647138Y-64354469D01*
X107316095Y-64354469D01*
X107316392Y-64359622D01*
X107316392Y-64359625D01*
X107322258Y-64461359D01*
X107329427Y-64585697D01*
X107330564Y-64590743D01*
X107330565Y-64590749D01*
X107360602Y-64724031D01*
X107380346Y-64811642D01*
X107382288Y-64816424D01*
X107382289Y-64816428D01*
X107450813Y-64985181D01*
X107467484Y-65026237D01*
X107588501Y-65223719D01*
X107740147Y-65398784D01*
X107918349Y-65546730D01*
X108118322Y-65663584D01*
X108334694Y-65746209D01*
X108339760Y-65747240D01*
X108339761Y-65747240D01*
X108392846Y-65758040D01*
X108561656Y-65792385D01*
X108692324Y-65797176D01*
X108787949Y-65800683D01*
X108787953Y-65800683D01*
X108793113Y-65800872D01*
X108798233Y-65800216D01*
X108798235Y-65800216D01*
X108871270Y-65790860D01*
X109022847Y-65771442D01*
X109027795Y-65769957D01*
X109027802Y-65769956D01*
X109239747Y-65706369D01*
X109244690Y-65704886D01*
X109325236Y-65665427D01*
X109448049Y-65605262D01*
X109448052Y-65605260D01*
X109452684Y-65602991D01*
X109641243Y-65468494D01*
X109805303Y-65305005D01*
X109940458Y-65116917D01*
X109942857Y-65112064D01*
X110040784Y-64913922D01*
X110040785Y-64913920D01*
X110043078Y-64909280D01*
X110110408Y-64687671D01*
X110140640Y-64458041D01*
X110142327Y-64389000D01*
X110133434Y-64280834D01*
X110123773Y-64163318D01*
X110123772Y-64163312D01*
X110123349Y-64158167D01*
X110078316Y-63978882D01*
X110068184Y-63938544D01*
X110068183Y-63938540D01*
X110066925Y-63933533D01*
X110064866Y-63928797D01*
X109976630Y-63725868D01*
X109976628Y-63725865D01*
X109974570Y-63721131D01*
X109974288Y-63720695D01*
X110795251Y-63720695D01*
X110795548Y-63725848D01*
X110795548Y-63725851D01*
X110803449Y-63862872D01*
X110808110Y-63943715D01*
X110809247Y-63948761D01*
X110809248Y-63948767D01*
X110815430Y-63976197D01*
X110857222Y-64161639D01*
X110895461Y-64255811D01*
X110937720Y-64359882D01*
X110941266Y-64368616D01*
X111057987Y-64559088D01*
X111204250Y-64727938D01*
X111273860Y-64785729D01*
X111368361Y-64864185D01*
X111376126Y-64870632D01*
X111569000Y-64983338D01*
X111777692Y-65063030D01*
X111782760Y-65064061D01*
X111782763Y-65064062D01*
X111890017Y-65085883D01*
X111996597Y-65107567D01*
X112001772Y-65107757D01*
X112001774Y-65107757D01*
X112214673Y-65115564D01*
X112214677Y-65115564D01*
X112219837Y-65115753D01*
X112224957Y-65115097D01*
X112224959Y-65115097D01*
X112436288Y-65088025D01*
X112436289Y-65088025D01*
X112441416Y-65087368D01*
X112446366Y-65085883D01*
X112650429Y-65024661D01*
X112650434Y-65024659D01*
X112655384Y-65023174D01*
X112855994Y-64924896D01*
X113037860Y-64795173D01*
X113196096Y-64637489D01*
X113208826Y-64619774D01*
X113323435Y-64460277D01*
X113326453Y-64456077D01*
X113357766Y-64392721D01*
X113423136Y-64260453D01*
X113423137Y-64260451D01*
X113425430Y-64255811D01*
X113490370Y-64042069D01*
X113519529Y-63820590D01*
X113521156Y-63754000D01*
X113502852Y-63531361D01*
X113448431Y-63314702D01*
X113359354Y-63109840D01*
X113297449Y-63014150D01*
X113240822Y-62926617D01*
X113240820Y-62926614D01*
X113238014Y-62922277D01*
X113234532Y-62918450D01*
X113090798Y-62760488D01*
X113059746Y-62696642D01*
X113068141Y-62626143D01*
X113113317Y-62571375D01*
X113139761Y-62557706D01*
X113246297Y-62517767D01*
X113254705Y-62514615D01*
X113371261Y-62427261D01*
X113458615Y-62310705D01*
X113509745Y-62174316D01*
X113516500Y-62112134D01*
X113516500Y-62032900D01*
X115562496Y-62032900D01*
X115563186Y-62039465D01*
X115576534Y-62166460D01*
X115582458Y-62222828D01*
X115641473Y-62404456D01*
X115736960Y-62569844D01*
X115864747Y-62711766D01*
X116019248Y-62824018D01*
X116025276Y-62826702D01*
X116025278Y-62826703D01*
X116172839Y-62892401D01*
X116193712Y-62901694D01*
X116287113Y-62921547D01*
X116374056Y-62940028D01*
X116374061Y-62940028D01*
X116380513Y-62941400D01*
X116571487Y-62941400D01*
X116577939Y-62940028D01*
X116577944Y-62940028D01*
X116664887Y-62921547D01*
X116758288Y-62901694D01*
X116779161Y-62892401D01*
X116926722Y-62826703D01*
X116926724Y-62826702D01*
X116932752Y-62824018D01*
X117087253Y-62711766D01*
X117215040Y-62569844D01*
X117310527Y-62404456D01*
X117369542Y-62222828D01*
X117375467Y-62166460D01*
X117388814Y-62039465D01*
X117389504Y-62032900D01*
X117384195Y-61982385D01*
X117370232Y-61849535D01*
X117370232Y-61849533D01*
X117369542Y-61842972D01*
X117310527Y-61661344D01*
X117215040Y-61495956D01*
X117087253Y-61354034D01*
X116932752Y-61241782D01*
X116926724Y-61239098D01*
X116926722Y-61239097D01*
X116764319Y-61166791D01*
X116764318Y-61166791D01*
X116758288Y-61164106D01*
X116664888Y-61144253D01*
X116577944Y-61125772D01*
X116577939Y-61125772D01*
X116571487Y-61124400D01*
X116380513Y-61124400D01*
X116374061Y-61125772D01*
X116374056Y-61125772D01*
X116287112Y-61144253D01*
X116193712Y-61164106D01*
X116187682Y-61166791D01*
X116187681Y-61166791D01*
X116025278Y-61239097D01*
X116025276Y-61239098D01*
X116019248Y-61241782D01*
X115864747Y-61354034D01*
X115736960Y-61495956D01*
X115641473Y-61661344D01*
X115582458Y-61842972D01*
X115581768Y-61849533D01*
X115581768Y-61849535D01*
X115567805Y-61982385D01*
X115562496Y-62032900D01*
X113516500Y-62032900D01*
X113516500Y-60315866D01*
X113509745Y-60253684D01*
X113458615Y-60117295D01*
X113371261Y-60000739D01*
X113254705Y-59913385D01*
X113118316Y-59862255D01*
X113056134Y-59855500D01*
X111259866Y-59855500D01*
X111197684Y-59862255D01*
X111061295Y-59913385D01*
X110944739Y-60000739D01*
X110857385Y-60117295D01*
X110806255Y-60253684D01*
X110799500Y-60315866D01*
X110799500Y-62112134D01*
X110806255Y-62174316D01*
X110857385Y-62310705D01*
X110944739Y-62427261D01*
X111061295Y-62514615D01*
X111069704Y-62517767D01*
X111069705Y-62517768D01*
X111178451Y-62558535D01*
X111235216Y-62601176D01*
X111259916Y-62667738D01*
X111244709Y-62737087D01*
X111225316Y-62763568D01*
X111167549Y-62824018D01*
X111098629Y-62896138D01*
X110972743Y-63080680D01*
X110878688Y-63283305D01*
X110818989Y-63498570D01*
X110795251Y-63720695D01*
X109974288Y-63720695D01*
X109848764Y-63526665D01*
X109692887Y-63355358D01*
X109688836Y-63352159D01*
X109688832Y-63352155D01*
X109515177Y-63215011D01*
X109515172Y-63215008D01*
X109511123Y-63211810D01*
X109506607Y-63209317D01*
X109506604Y-63209315D01*
X109312879Y-63102373D01*
X109312875Y-63102371D01*
X109308355Y-63099876D01*
X109303486Y-63098152D01*
X109303482Y-63098150D01*
X109094903Y-63024288D01*
X109094899Y-63024287D01*
X109090028Y-63022562D01*
X109084935Y-63021655D01*
X109084932Y-63021654D01*
X108867095Y-62982851D01*
X108867089Y-62982850D01*
X108862006Y-62981945D01*
X108789096Y-62981054D01*
X108635581Y-62979179D01*
X108635579Y-62979179D01*
X108630411Y-62979116D01*
X108401464Y-63014150D01*
X108181314Y-63086106D01*
X108176726Y-63088494D01*
X108176722Y-63088496D01*
X107980461Y-63190663D01*
X107975872Y-63193052D01*
X107971739Y-63196155D01*
X107971736Y-63196157D01*
X107807166Y-63319720D01*
X107790655Y-63332117D01*
X107630639Y-63499564D01*
X107627725Y-63503836D01*
X107627724Y-63503837D01*
X107605428Y-63536522D01*
X107500119Y-63690899D01*
X107402602Y-63900981D01*
X107340707Y-64124169D01*
X107316095Y-64354469D01*
X83647138Y-64354469D01*
X83604625Y-64280834D01*
X83577040Y-64233056D01*
X83449253Y-64091134D01*
X83294752Y-63978882D01*
X83288724Y-63976198D01*
X83288722Y-63976197D01*
X83126319Y-63903891D01*
X83126318Y-63903891D01*
X83120288Y-63901206D01*
X83026888Y-63881353D01*
X82939944Y-63862872D01*
X82939939Y-63862872D01*
X82933487Y-63861500D01*
X82742513Y-63861500D01*
X82736061Y-63862872D01*
X82736056Y-63862872D01*
X82597340Y-63892358D01*
X82555712Y-63901206D01*
X82549679Y-63903892D01*
X82549676Y-63903893D01*
X82508248Y-63922338D01*
X82437881Y-63931772D01*
X82405752Y-63922338D01*
X82364324Y-63903893D01*
X82364321Y-63903892D01*
X82358288Y-63901206D01*
X82316660Y-63892358D01*
X82177944Y-63862872D01*
X82177939Y-63862872D01*
X82171487Y-63861500D01*
X81980513Y-63861500D01*
X81974061Y-63862872D01*
X81974056Y-63862872D01*
X81887112Y-63881353D01*
X81793712Y-63901206D01*
X81787682Y-63903891D01*
X81787681Y-63903891D01*
X81625278Y-63976197D01*
X81625276Y-63976198D01*
X81619248Y-63978882D01*
X81464747Y-64091134D01*
X81336960Y-64233056D01*
X81309375Y-64280834D01*
X81246926Y-64389000D01*
X81241473Y-64398444D01*
X81182458Y-64580072D01*
X81181768Y-64586633D01*
X81181768Y-64586635D01*
X81176040Y-64641137D01*
X81162496Y-64770000D01*
X81163186Y-64776565D01*
X81177623Y-64913922D01*
X81182458Y-64959928D01*
X81190619Y-64985045D01*
X81231890Y-65112064D01*
X81233918Y-65183031D01*
X81231890Y-65189936D01*
X81219645Y-65227622D01*
X81182458Y-65342072D01*
X81181768Y-65348633D01*
X81181768Y-65348635D01*
X81176908Y-65394877D01*
X81162496Y-65532000D01*
X81163186Y-65538565D01*
X81176520Y-65665427D01*
X81182458Y-65721928D01*
X81196854Y-65766235D01*
X81231890Y-65874064D01*
X81233918Y-65945031D01*
X81231890Y-65951936D01*
X81196854Y-66059765D01*
X81182458Y-66104072D01*
X81181768Y-66110633D01*
X81181768Y-66110635D01*
X81172286Y-66200852D01*
X81162496Y-66294000D01*
X81163186Y-66300565D01*
X81179187Y-66452802D01*
X81182458Y-66483928D01*
X81184498Y-66490206D01*
X81231890Y-66636064D01*
X81233918Y-66707031D01*
X81231890Y-66713936D01*
X81203276Y-66802000D01*
X81182458Y-66866072D01*
X81181768Y-66872633D01*
X81181768Y-66872635D01*
X81163186Y-67049435D01*
X81162496Y-67056000D01*
X81182458Y-67245928D01*
X81184498Y-67252206D01*
X81231890Y-67398064D01*
X81233918Y-67469031D01*
X81231890Y-67475936D01*
X81204366Y-67560646D01*
X81182458Y-67628072D01*
X81181768Y-67634633D01*
X81181768Y-67634635D01*
X81180411Y-67647548D01*
X81162496Y-67818000D01*
X81163186Y-67824565D01*
X81179187Y-67976802D01*
X81182458Y-68007928D01*
X81184498Y-68014206D01*
X81231890Y-68160064D01*
X81233918Y-68231031D01*
X81231890Y-68237936D01*
X81215858Y-68287278D01*
X81182458Y-68390072D01*
X81181768Y-68396633D01*
X81181768Y-68396635D01*
X81163186Y-68573435D01*
X81162496Y-68580000D01*
X78139000Y-68580000D01*
X78139000Y-60198000D01*
X81162496Y-60198000D01*
X81163186Y-60204565D01*
X81176133Y-60327745D01*
X81182458Y-60387928D01*
X81241473Y-60569556D01*
X81244776Y-60575278D01*
X81244777Y-60575279D01*
X81248868Y-60582365D01*
X81336960Y-60734944D01*
X81464747Y-60876866D01*
X81619248Y-60989118D01*
X81625276Y-60991802D01*
X81625278Y-60991803D01*
X81787677Y-61064107D01*
X81793712Y-61066794D01*
X81887113Y-61086647D01*
X81974056Y-61105128D01*
X81974061Y-61105128D01*
X81980513Y-61106500D01*
X82171487Y-61106500D01*
X82177939Y-61105128D01*
X82177944Y-61105128D01*
X82316660Y-61075642D01*
X82358288Y-61066794D01*
X82364321Y-61064108D01*
X82364324Y-61064107D01*
X82405752Y-61045662D01*
X82476119Y-61036228D01*
X82508248Y-61045662D01*
X82549676Y-61064107D01*
X82549679Y-61064108D01*
X82555712Y-61066794D01*
X82597340Y-61075642D01*
X82736056Y-61105128D01*
X82736061Y-61105128D01*
X82742513Y-61106500D01*
X82933487Y-61106500D01*
X82939939Y-61105128D01*
X82939944Y-61105128D01*
X83026887Y-61086647D01*
X83120288Y-61066794D01*
X83126323Y-61064107D01*
X83288722Y-60991803D01*
X83288724Y-60991802D01*
X83294752Y-60989118D01*
X83449253Y-60876866D01*
X83577040Y-60734944D01*
X83665132Y-60582365D01*
X83669223Y-60575279D01*
X83669224Y-60575278D01*
X83672527Y-60569556D01*
X83680678Y-60544469D01*
X107316095Y-60544469D01*
X107316392Y-60549622D01*
X107316392Y-60549625D01*
X107326454Y-60724128D01*
X107329427Y-60775697D01*
X107330564Y-60780743D01*
X107330565Y-60780749D01*
X107362741Y-60923523D01*
X107380346Y-61001642D01*
X107382288Y-61006424D01*
X107382289Y-61006428D01*
X107446316Y-61164106D01*
X107467484Y-61216237D01*
X107588501Y-61413719D01*
X107740147Y-61588784D01*
X107918349Y-61736730D01*
X108118322Y-61853584D01*
X108334694Y-61936209D01*
X108339760Y-61937240D01*
X108339761Y-61937240D01*
X108392846Y-61948040D01*
X108561656Y-61982385D01*
X108692324Y-61987176D01*
X108787949Y-61990683D01*
X108787953Y-61990683D01*
X108793113Y-61990872D01*
X108798233Y-61990216D01*
X108798235Y-61990216D01*
X108871270Y-61980860D01*
X109022847Y-61961442D01*
X109027795Y-61959957D01*
X109027802Y-61959956D01*
X109239747Y-61896369D01*
X109244690Y-61894886D01*
X109325236Y-61855427D01*
X109448049Y-61795262D01*
X109448052Y-61795260D01*
X109452684Y-61792991D01*
X109641243Y-61658494D01*
X109805303Y-61495005D01*
X109940458Y-61306917D01*
X109970732Y-61245663D01*
X110040784Y-61103922D01*
X110040785Y-61103920D01*
X110043078Y-61099280D01*
X110110408Y-60877671D01*
X110140640Y-60648041D01*
X110141616Y-60608118D01*
X110142245Y-60582365D01*
X110142245Y-60582361D01*
X110142327Y-60579000D01*
X110126618Y-60387928D01*
X110123773Y-60353318D01*
X110123772Y-60353312D01*
X110123349Y-60348167D01*
X110074313Y-60152946D01*
X110068184Y-60128544D01*
X110068183Y-60128540D01*
X110066925Y-60123533D01*
X110061088Y-60110109D01*
X109976630Y-59915868D01*
X109976628Y-59915865D01*
X109974570Y-59911131D01*
X109848764Y-59716665D01*
X109815908Y-59680556D01*
X109731979Y-59588320D01*
X109692887Y-59545358D01*
X109688836Y-59542159D01*
X109688832Y-59542155D01*
X109515177Y-59405011D01*
X109515172Y-59405008D01*
X109511123Y-59401810D01*
X109506607Y-59399317D01*
X109506604Y-59399315D01*
X109312879Y-59292373D01*
X109312875Y-59292371D01*
X109308355Y-59289876D01*
X109303486Y-59288152D01*
X109303482Y-59288150D01*
X109094903Y-59214288D01*
X109094899Y-59214287D01*
X109090028Y-59212562D01*
X109084935Y-59211655D01*
X109084932Y-59211654D01*
X108867095Y-59172851D01*
X108867089Y-59172850D01*
X108862006Y-59171945D01*
X108789096Y-59171054D01*
X108635581Y-59169179D01*
X108635579Y-59169179D01*
X108630411Y-59169116D01*
X108401464Y-59204150D01*
X108181314Y-59276106D01*
X108176726Y-59278494D01*
X108176722Y-59278496D01*
X107980461Y-59380663D01*
X107975872Y-59383052D01*
X107971739Y-59386155D01*
X107971736Y-59386157D01*
X107846928Y-59479866D01*
X107790655Y-59522117D01*
X107787083Y-59525855D01*
X107685452Y-59632206D01*
X107630639Y-59689564D01*
X107627725Y-59693836D01*
X107627724Y-59693837D01*
X107612152Y-59716665D01*
X107500119Y-59880899D01*
X107402602Y-60090981D01*
X107340707Y-60314169D01*
X107316095Y-60544469D01*
X83680678Y-60544469D01*
X83731542Y-60387928D01*
X83737868Y-60327745D01*
X83750814Y-60204565D01*
X83751504Y-60198000D01*
X83741605Y-60103815D01*
X83732232Y-60014635D01*
X83732232Y-60014633D01*
X83731542Y-60008072D01*
X83690221Y-59880899D01*
X83682110Y-59855936D01*
X83680082Y-59784969D01*
X83682110Y-59778064D01*
X83729502Y-59632206D01*
X83731542Y-59625928D01*
X83734814Y-59594802D01*
X83750814Y-59442565D01*
X83751504Y-59436000D01*
X83740597Y-59332226D01*
X83732232Y-59252635D01*
X83732232Y-59252633D01*
X83731542Y-59246072D01*
X83707655Y-59172556D01*
X83682110Y-59093936D01*
X83680082Y-59022969D01*
X83682110Y-59016064D01*
X83729502Y-58870206D01*
X83731542Y-58863928D01*
X83751504Y-58674000D01*
X83741662Y-58580360D01*
X83732232Y-58490635D01*
X83732232Y-58490633D01*
X83731542Y-58484072D01*
X83707434Y-58409877D01*
X83682110Y-58331936D01*
X83680082Y-58260969D01*
X83682110Y-58254064D01*
X83726238Y-58118251D01*
X83731542Y-58101928D01*
X83734814Y-58070802D01*
X83750814Y-57918565D01*
X83751504Y-57912000D01*
X83731542Y-57722072D01*
X83692105Y-57600697D01*
X83682110Y-57569936D01*
X83680082Y-57498969D01*
X83682110Y-57492064D01*
X83729502Y-57346206D01*
X83731542Y-57339928D01*
X83733323Y-57322989D01*
X83750814Y-57156565D01*
X83751504Y-57150000D01*
X83742587Y-57065160D01*
X83732232Y-56966635D01*
X83732232Y-56966633D01*
X83731542Y-56960072D01*
X83710724Y-56896000D01*
X83682110Y-56807936D01*
X83680082Y-56736969D01*
X83682110Y-56730064D01*
X83729502Y-56584206D01*
X83731542Y-56577928D01*
X83735354Y-56541665D01*
X83750814Y-56394565D01*
X83751504Y-56388000D01*
X83743002Y-56307110D01*
X83732232Y-56204635D01*
X83732232Y-56204633D01*
X83731542Y-56198072D01*
X83672527Y-56016444D01*
X83577040Y-55851056D01*
X83449253Y-55709134D01*
X83294752Y-55596882D01*
X83288724Y-55594198D01*
X83288722Y-55594197D01*
X83126319Y-55521891D01*
X83126318Y-55521891D01*
X83120288Y-55519206D01*
X83026887Y-55499353D01*
X82939944Y-55480872D01*
X82939939Y-55480872D01*
X82933487Y-55479500D01*
X82742513Y-55479500D01*
X82736061Y-55480872D01*
X82736056Y-55480872D01*
X82597340Y-55510358D01*
X82555712Y-55519206D01*
X82549679Y-55521892D01*
X82549676Y-55521893D01*
X82508248Y-55540338D01*
X82437881Y-55549772D01*
X82405752Y-55540338D01*
X82364324Y-55521893D01*
X82364321Y-55521892D01*
X82358288Y-55519206D01*
X82316660Y-55510358D01*
X82177944Y-55480872D01*
X82177939Y-55480872D01*
X82171487Y-55479500D01*
X81980513Y-55479500D01*
X81974061Y-55480872D01*
X81974056Y-55480872D01*
X81887113Y-55499353D01*
X81793712Y-55519206D01*
X81787682Y-55521891D01*
X81787681Y-55521891D01*
X81625278Y-55594197D01*
X81625276Y-55594198D01*
X81619248Y-55596882D01*
X81464747Y-55709134D01*
X81336960Y-55851056D01*
X81241473Y-56016444D01*
X81182458Y-56198072D01*
X81181768Y-56204633D01*
X81181768Y-56204635D01*
X81170998Y-56307110D01*
X81162496Y-56388000D01*
X81163186Y-56394565D01*
X81178647Y-56541665D01*
X81182458Y-56577928D01*
X81184498Y-56584206D01*
X81231890Y-56730064D01*
X81233918Y-56801031D01*
X81231890Y-56807936D01*
X81203276Y-56896000D01*
X81182458Y-56960072D01*
X81181768Y-56966633D01*
X81181768Y-56966635D01*
X81171413Y-57065160D01*
X81162496Y-57150000D01*
X81163186Y-57156565D01*
X81180678Y-57322989D01*
X81182458Y-57339928D01*
X81184498Y-57346206D01*
X81231890Y-57492064D01*
X81233918Y-57563031D01*
X81231890Y-57569936D01*
X81221895Y-57600697D01*
X81182458Y-57722072D01*
X81162496Y-57912000D01*
X81163186Y-57918565D01*
X81179187Y-58070802D01*
X81182458Y-58101928D01*
X81187762Y-58118251D01*
X81231890Y-58254064D01*
X81233918Y-58325031D01*
X81231890Y-58331936D01*
X81206566Y-58409877D01*
X81182458Y-58484072D01*
X81181768Y-58490633D01*
X81181768Y-58490635D01*
X81172338Y-58580360D01*
X81162496Y-58674000D01*
X81182458Y-58863928D01*
X81184498Y-58870206D01*
X81231890Y-59016064D01*
X81233918Y-59087031D01*
X81231890Y-59093936D01*
X81206345Y-59172556D01*
X81182458Y-59246072D01*
X81181768Y-59252633D01*
X81181768Y-59252635D01*
X81173403Y-59332226D01*
X81162496Y-59436000D01*
X81163186Y-59442565D01*
X81179187Y-59594802D01*
X81182458Y-59625928D01*
X81184498Y-59632206D01*
X81231890Y-59778064D01*
X81233918Y-59849031D01*
X81231890Y-59855936D01*
X81223779Y-59880899D01*
X81182458Y-60008072D01*
X81181768Y-60014633D01*
X81181768Y-60014635D01*
X81172395Y-60103815D01*
X81162496Y-60198000D01*
X78139000Y-60198000D01*
X78139000Y-56186190D01*
X78159002Y-56118069D01*
X78175905Y-56097095D01*
X78610095Y-55662905D01*
X78672407Y-55628879D01*
X78699190Y-55626000D01*
X80679000Y-55626000D01*
X80933000Y-55372000D01*
X87825696Y-55372000D01*
X87826386Y-55378565D01*
X87841024Y-55517834D01*
X87845658Y-55561928D01*
X87904673Y-55743556D01*
X88000160Y-55908944D01*
X88127947Y-56050866D01*
X88282448Y-56163118D01*
X88288476Y-56165802D01*
X88288478Y-56165803D01*
X88437286Y-56232056D01*
X88456912Y-56240794D01*
X88550313Y-56260647D01*
X88637256Y-56279128D01*
X88637261Y-56279128D01*
X88643713Y-56280500D01*
X88834687Y-56280500D01*
X88841139Y-56279128D01*
X88841144Y-56279128D01*
X88928087Y-56260647D01*
X89021488Y-56240794D01*
X89041114Y-56232056D01*
X89189922Y-56165803D01*
X89189924Y-56165802D01*
X89195952Y-56163118D01*
X89350453Y-56050866D01*
X89478240Y-55908944D01*
X89573727Y-55743556D01*
X89584567Y-55710194D01*
X89624641Y-55651588D01*
X89690037Y-55623951D01*
X89759994Y-55636058D01*
X89812300Y-55684064D01*
X89824233Y-55710194D01*
X89835073Y-55743556D01*
X89930560Y-55908944D01*
X90058347Y-56050866D01*
X90212848Y-56163118D01*
X90218876Y-56165802D01*
X90218878Y-56165803D01*
X90367686Y-56232056D01*
X90387312Y-56240794D01*
X90480713Y-56260647D01*
X90567656Y-56279128D01*
X90567661Y-56279128D01*
X90574113Y-56280500D01*
X90765087Y-56280500D01*
X90771539Y-56279128D01*
X90771544Y-56279128D01*
X90858487Y-56260647D01*
X90951888Y-56240794D01*
X90971514Y-56232056D01*
X91120322Y-56165803D01*
X91120324Y-56165802D01*
X91126352Y-56163118D01*
X91280853Y-56050866D01*
X91408640Y-55908944D01*
X91504127Y-55743556D01*
X91514967Y-55710194D01*
X91555041Y-55651588D01*
X91620437Y-55623951D01*
X91690394Y-55636058D01*
X91742700Y-55684064D01*
X91754633Y-55710194D01*
X91765473Y-55743556D01*
X91860960Y-55908944D01*
X91988747Y-56050866D01*
X92143248Y-56163118D01*
X92149276Y-56165802D01*
X92149278Y-56165803D01*
X92298086Y-56232056D01*
X92317712Y-56240794D01*
X92411113Y-56260647D01*
X92498056Y-56279128D01*
X92498061Y-56279128D01*
X92504513Y-56280500D01*
X92695487Y-56280500D01*
X92701939Y-56279128D01*
X92701944Y-56279128D01*
X92788887Y-56260647D01*
X92882288Y-56240794D01*
X92901914Y-56232056D01*
X93050722Y-56165803D01*
X93050724Y-56165802D01*
X93056752Y-56163118D01*
X93211253Y-56050866D01*
X93339040Y-55908944D01*
X93434527Y-55743556D01*
X93445367Y-55710194D01*
X93485441Y-55651588D01*
X93550837Y-55623951D01*
X93620794Y-55636058D01*
X93673100Y-55684064D01*
X93685033Y-55710194D01*
X93695873Y-55743556D01*
X93791360Y-55908944D01*
X93919147Y-56050866D01*
X94073648Y-56163118D01*
X94079676Y-56165802D01*
X94079678Y-56165803D01*
X94228486Y-56232056D01*
X94248112Y-56240794D01*
X94341513Y-56260647D01*
X94428456Y-56279128D01*
X94428461Y-56279128D01*
X94434913Y-56280500D01*
X94625887Y-56280500D01*
X94632339Y-56279128D01*
X94632344Y-56279128D01*
X94719287Y-56260647D01*
X94812688Y-56240794D01*
X94832314Y-56232056D01*
X94981122Y-56165803D01*
X94981124Y-56165802D01*
X94987152Y-56163118D01*
X95141653Y-56050866D01*
X95269440Y-55908944D01*
X95364927Y-55743556D01*
X95375767Y-55710194D01*
X95415841Y-55651588D01*
X95481237Y-55623951D01*
X95551194Y-55636058D01*
X95603500Y-55684064D01*
X95615433Y-55710194D01*
X95626273Y-55743556D01*
X95721760Y-55908944D01*
X95849547Y-56050866D01*
X96004048Y-56163118D01*
X96010076Y-56165802D01*
X96010078Y-56165803D01*
X96158886Y-56232056D01*
X96178512Y-56240794D01*
X96271913Y-56260647D01*
X96358856Y-56279128D01*
X96358861Y-56279128D01*
X96365313Y-56280500D01*
X96556287Y-56280500D01*
X96562739Y-56279128D01*
X96562744Y-56279128D01*
X96649687Y-56260647D01*
X96743088Y-56240794D01*
X96749115Y-56238111D01*
X96749123Y-56238108D01*
X96775536Y-56226348D01*
X96845903Y-56216914D01*
X96910200Y-56247021D01*
X96948013Y-56307110D01*
X96947336Y-56378104D01*
X96917878Y-56428506D01*
X96835639Y-56514564D01*
X96832725Y-56518836D01*
X96832724Y-56518837D01*
X96817152Y-56541665D01*
X96705119Y-56705899D01*
X96607602Y-56915981D01*
X96545707Y-57139169D01*
X96521095Y-57369469D01*
X96521392Y-57374622D01*
X96521392Y-57374625D01*
X96532087Y-57560118D01*
X96534427Y-57600697D01*
X96535564Y-57605743D01*
X96535565Y-57605749D01*
X96560365Y-57715794D01*
X96585346Y-57826642D01*
X96587288Y-57831424D01*
X96587289Y-57831428D01*
X96661328Y-58013763D01*
X96672484Y-58041237D01*
X96793501Y-58238719D01*
X96945147Y-58413784D01*
X97123349Y-58561730D01*
X97323322Y-58678584D01*
X97328147Y-58680426D01*
X97328148Y-58680427D01*
X97350551Y-58688982D01*
X97539694Y-58761209D01*
X97544760Y-58762240D01*
X97544761Y-58762240D01*
X97568885Y-58767148D01*
X97766656Y-58807385D01*
X97897324Y-58812176D01*
X97992949Y-58815683D01*
X97992953Y-58815683D01*
X97998113Y-58815872D01*
X98003233Y-58815216D01*
X98003235Y-58815216D01*
X98076270Y-58805860D01*
X98227847Y-58786442D01*
X98232795Y-58784957D01*
X98232802Y-58784956D01*
X98444747Y-58721369D01*
X98449690Y-58719886D01*
X98512773Y-58688982D01*
X98653049Y-58620262D01*
X98653052Y-58620260D01*
X98657684Y-58617991D01*
X98846243Y-58483494D01*
X99010303Y-58320005D01*
X99145458Y-58131917D01*
X99160280Y-58101928D01*
X99245784Y-57928922D01*
X99245785Y-57928920D01*
X99248078Y-57924280D01*
X99315408Y-57702671D01*
X99345640Y-57473041D01*
X99346375Y-57442955D01*
X99347245Y-57407365D01*
X99347245Y-57407361D01*
X99347327Y-57404000D01*
X99344488Y-57369469D01*
X101601095Y-57369469D01*
X101601392Y-57374622D01*
X101601392Y-57374625D01*
X101612087Y-57560118D01*
X101614427Y-57600697D01*
X101615564Y-57605743D01*
X101615565Y-57605749D01*
X101640365Y-57715794D01*
X101665346Y-57826642D01*
X101667288Y-57831424D01*
X101667289Y-57831428D01*
X101741328Y-58013763D01*
X101752484Y-58041237D01*
X101873501Y-58238719D01*
X102025147Y-58413784D01*
X102203349Y-58561730D01*
X102403322Y-58678584D01*
X102408147Y-58680426D01*
X102408148Y-58680427D01*
X102430551Y-58688982D01*
X102619694Y-58761209D01*
X102624760Y-58762240D01*
X102624761Y-58762240D01*
X102648885Y-58767148D01*
X102846656Y-58807385D01*
X102977324Y-58812176D01*
X103072949Y-58815683D01*
X103072953Y-58815683D01*
X103078113Y-58815872D01*
X103083233Y-58815216D01*
X103083235Y-58815216D01*
X103156270Y-58805860D01*
X103307847Y-58786442D01*
X103312795Y-58784957D01*
X103312802Y-58784956D01*
X103524747Y-58721369D01*
X103529690Y-58719886D01*
X103592773Y-58688982D01*
X103733049Y-58620262D01*
X103733052Y-58620260D01*
X103737684Y-58617991D01*
X103926243Y-58483494D01*
X104090303Y-58320005D01*
X104225458Y-58131917D01*
X104240280Y-58101928D01*
X104325784Y-57928922D01*
X104325785Y-57928920D01*
X104328078Y-57924280D01*
X104395408Y-57702671D01*
X104425640Y-57473041D01*
X104426375Y-57442955D01*
X104427245Y-57407365D01*
X104427245Y-57407361D01*
X104427327Y-57404000D01*
X104418795Y-57300226D01*
X104408773Y-57178318D01*
X104408772Y-57178312D01*
X104408349Y-57173167D01*
X104355480Y-56962686D01*
X104353184Y-56953544D01*
X104353183Y-56953540D01*
X104351925Y-56948533D01*
X104348673Y-56941054D01*
X104261630Y-56740868D01*
X104261628Y-56740865D01*
X104259570Y-56736131D01*
X104133764Y-56541665D01*
X103977887Y-56370358D01*
X103973836Y-56367159D01*
X103973832Y-56367155D01*
X103839416Y-56261000D01*
X111117496Y-56261000D01*
X111118186Y-56267565D01*
X111119546Y-56280500D01*
X111137458Y-56450928D01*
X111196473Y-56632556D01*
X111291960Y-56797944D01*
X111296378Y-56802851D01*
X111296379Y-56802852D01*
X111415325Y-56934955D01*
X111419747Y-56939866D01*
X111574248Y-57052118D01*
X111603541Y-57065160D01*
X111644316Y-57083314D01*
X111698412Y-57129294D01*
X111704342Y-57140153D01*
X111704473Y-57140556D01*
X111799960Y-57305944D01*
X111804378Y-57310851D01*
X111804379Y-57310852D01*
X111863959Y-57377022D01*
X111927747Y-57447866D01*
X112082248Y-57560118D01*
X112137439Y-57584690D01*
X112152316Y-57591314D01*
X112206412Y-57637294D01*
X112212342Y-57648153D01*
X112212473Y-57648556D01*
X112307960Y-57813944D01*
X112312378Y-57818851D01*
X112312379Y-57818852D01*
X112414894Y-57932706D01*
X112435747Y-57955866D01*
X112590248Y-58068118D01*
X112645439Y-58092690D01*
X112660316Y-58099314D01*
X112714412Y-58145294D01*
X112720342Y-58156153D01*
X112720473Y-58156556D01*
X112815960Y-58321944D01*
X112820378Y-58326851D01*
X112820379Y-58326852D01*
X112895135Y-58409877D01*
X112943747Y-58463866D01*
X113014399Y-58515198D01*
X113078445Y-58561730D01*
X113098248Y-58576118D01*
X113107776Y-58580360D01*
X113168316Y-58607314D01*
X113222412Y-58653294D01*
X113228342Y-58664153D01*
X113228473Y-58664556D01*
X113323960Y-58829944D01*
X113328378Y-58834851D01*
X113328379Y-58834852D01*
X113380035Y-58892222D01*
X113451747Y-58971866D01*
X113492323Y-59001346D01*
X113600319Y-59079810D01*
X113606248Y-59084118D01*
X113628300Y-59093936D01*
X113676316Y-59115314D01*
X113730412Y-59161294D01*
X113736342Y-59172153D01*
X113736473Y-59172556D01*
X113831960Y-59337944D01*
X113836378Y-59342851D01*
X113836379Y-59342852D01*
X113889465Y-59401810D01*
X113959747Y-59479866D01*
X114114248Y-59592118D01*
X114131233Y-59599680D01*
X114184316Y-59623314D01*
X114238412Y-59669294D01*
X114244342Y-59680153D01*
X114244473Y-59680556D01*
X114339960Y-59845944D01*
X114344378Y-59850851D01*
X114344379Y-59850852D01*
X114400684Y-59913385D01*
X114467747Y-59987866D01*
X114566843Y-60059864D01*
X114616517Y-60095954D01*
X114622248Y-60100118D01*
X114660829Y-60117295D01*
X114692316Y-60131314D01*
X114746412Y-60177294D01*
X114752342Y-60188153D01*
X114752473Y-60188556D01*
X114847960Y-60353944D01*
X114852378Y-60358851D01*
X114852379Y-60358852D01*
X114878081Y-60387397D01*
X114975747Y-60495866D01*
X115130248Y-60608118D01*
X115136276Y-60610802D01*
X115136278Y-60610803D01*
X115227369Y-60651359D01*
X115304712Y-60685794D01*
X115398113Y-60705647D01*
X115485056Y-60724128D01*
X115485061Y-60724128D01*
X115491513Y-60725500D01*
X115682487Y-60725500D01*
X115688939Y-60724128D01*
X115688944Y-60724128D01*
X115775887Y-60705647D01*
X115869288Y-60685794D01*
X115946631Y-60651359D01*
X116037722Y-60610803D01*
X116037724Y-60610802D01*
X116043752Y-60608118D01*
X116198253Y-60495866D01*
X116295919Y-60387397D01*
X116321621Y-60358852D01*
X116321622Y-60358851D01*
X116326040Y-60353944D01*
X116388197Y-60246285D01*
X116418223Y-60194279D01*
X116418224Y-60194278D01*
X116421527Y-60188556D01*
X116480542Y-60006928D01*
X116482138Y-59991749D01*
X116499814Y-59823565D01*
X116500504Y-59817000D01*
X116490415Y-59721009D01*
X116481232Y-59633635D01*
X116481232Y-59633633D01*
X116480542Y-59627072D01*
X116421527Y-59445444D01*
X116416075Y-59436000D01*
X116333151Y-59292373D01*
X116326040Y-59280056D01*
X116321037Y-59274499D01*
X116202675Y-59143045D01*
X116202674Y-59143044D01*
X116198253Y-59138134D01*
X116043752Y-59025882D01*
X115973684Y-58994686D01*
X115919588Y-58948706D01*
X115913658Y-58937847D01*
X115913527Y-58937444D01*
X115818040Y-58772056D01*
X115808274Y-58761209D01*
X115694675Y-58635045D01*
X115694674Y-58635044D01*
X115690253Y-58630134D01*
X115535752Y-58517882D01*
X115465684Y-58486686D01*
X115411588Y-58440706D01*
X115405658Y-58429847D01*
X115405527Y-58429444D01*
X115310040Y-58264056D01*
X115287227Y-58238719D01*
X115186675Y-58127045D01*
X115186674Y-58127044D01*
X115182253Y-58122134D01*
X115027752Y-58009882D01*
X114957684Y-57978686D01*
X114903588Y-57932706D01*
X114897658Y-57921847D01*
X114897527Y-57921444D01*
X114802040Y-57756056D01*
X114789073Y-57741654D01*
X114678675Y-57619045D01*
X114678674Y-57619044D01*
X114674253Y-57614134D01*
X114519752Y-57501882D01*
X114449684Y-57470686D01*
X114395588Y-57424706D01*
X114389658Y-57413847D01*
X114389527Y-57413444D01*
X114294040Y-57248056D01*
X114255723Y-57205500D01*
X114170675Y-57111045D01*
X114170674Y-57111044D01*
X114166253Y-57106134D01*
X114011752Y-56993882D01*
X113941684Y-56962686D01*
X113887588Y-56916706D01*
X113881658Y-56905847D01*
X113881527Y-56905444D01*
X113786040Y-56740056D01*
X113658253Y-56598134D01*
X113559157Y-56526136D01*
X113509094Y-56489763D01*
X113509093Y-56489762D01*
X113503752Y-56485882D01*
X113433684Y-56454686D01*
X113379588Y-56408706D01*
X113373658Y-56397847D01*
X113373527Y-56397444D01*
X113278040Y-56232056D01*
X113273317Y-56226810D01*
X113154675Y-56095045D01*
X113154674Y-56095044D01*
X113150253Y-56090134D01*
X112995752Y-55977882D01*
X112925684Y-55946686D01*
X112871588Y-55900706D01*
X112865658Y-55889847D01*
X112865527Y-55889444D01*
X112770040Y-55724056D01*
X112714980Y-55662905D01*
X112646675Y-55587045D01*
X112646674Y-55587044D01*
X112642253Y-55582134D01*
X112543157Y-55510136D01*
X112493094Y-55473763D01*
X112493093Y-55473762D01*
X112487752Y-55469882D01*
X112481724Y-55467198D01*
X112481722Y-55467197D01*
X112319319Y-55394891D01*
X112319318Y-55394891D01*
X112313288Y-55392206D01*
X112218227Y-55372000D01*
X112132944Y-55353872D01*
X112132939Y-55353872D01*
X112126487Y-55352500D01*
X111935513Y-55352500D01*
X111929061Y-55353872D01*
X111929056Y-55353872D01*
X111843773Y-55372000D01*
X111748712Y-55392206D01*
X111742682Y-55394891D01*
X111742681Y-55394891D01*
X111580278Y-55467197D01*
X111580276Y-55467198D01*
X111574248Y-55469882D01*
X111568907Y-55473762D01*
X111568906Y-55473763D01*
X111518843Y-55510136D01*
X111419747Y-55582134D01*
X111415326Y-55587044D01*
X111415325Y-55587045D01*
X111347021Y-55662905D01*
X111291960Y-55724056D01*
X111196473Y-55889444D01*
X111137458Y-56071072D01*
X111136768Y-56077633D01*
X111136768Y-56077635D01*
X111118965Y-56247021D01*
X111117496Y-56261000D01*
X103839416Y-56261000D01*
X103800177Y-56230011D01*
X103800172Y-56230008D01*
X103796123Y-56226810D01*
X103791607Y-56224317D01*
X103791604Y-56224315D01*
X103597879Y-56117373D01*
X103597875Y-56117371D01*
X103593355Y-56114876D01*
X103588486Y-56113152D01*
X103588482Y-56113150D01*
X103379903Y-56039288D01*
X103379899Y-56039287D01*
X103375028Y-56037562D01*
X103369935Y-56036655D01*
X103369932Y-56036654D01*
X103152095Y-55997851D01*
X103152089Y-55997850D01*
X103147006Y-55996945D01*
X103074096Y-55996054D01*
X102920581Y-55994179D01*
X102920579Y-55994179D01*
X102915411Y-55994116D01*
X102686464Y-56029150D01*
X102466314Y-56101106D01*
X102461726Y-56103494D01*
X102461722Y-56103496D01*
X102292103Y-56191794D01*
X102260872Y-56208052D01*
X102256739Y-56211155D01*
X102256736Y-56211157D01*
X102164380Y-56280500D01*
X102075655Y-56347117D01*
X102072083Y-56350855D01*
X101970452Y-56457206D01*
X101915639Y-56514564D01*
X101912725Y-56518836D01*
X101912724Y-56518837D01*
X101897152Y-56541665D01*
X101785119Y-56705899D01*
X101687602Y-56915981D01*
X101625707Y-57139169D01*
X101601095Y-57369469D01*
X99344488Y-57369469D01*
X99338795Y-57300226D01*
X99328773Y-57178318D01*
X99328772Y-57178312D01*
X99328349Y-57173167D01*
X99275480Y-56962686D01*
X99273184Y-56953544D01*
X99273183Y-56953540D01*
X99271925Y-56948533D01*
X99268673Y-56941054D01*
X99181630Y-56740868D01*
X99181628Y-56740865D01*
X99179570Y-56736131D01*
X99053764Y-56541665D01*
X98897887Y-56370358D01*
X98893836Y-56367159D01*
X98893832Y-56367155D01*
X98720177Y-56230011D01*
X98720172Y-56230008D01*
X98716123Y-56226810D01*
X98711607Y-56224317D01*
X98711604Y-56224315D01*
X98517879Y-56117373D01*
X98517875Y-56117371D01*
X98513355Y-56114876D01*
X98508486Y-56113152D01*
X98508482Y-56113150D01*
X98299903Y-56039288D01*
X98299899Y-56039287D01*
X98295028Y-56037562D01*
X98289935Y-56036655D01*
X98289932Y-56036654D01*
X98072095Y-55997851D01*
X98072089Y-55997850D01*
X98067006Y-55996945D01*
X97994096Y-55996054D01*
X97840581Y-55994179D01*
X97840579Y-55994179D01*
X97835411Y-55994116D01*
X97606464Y-56029150D01*
X97386314Y-56101106D01*
X97327705Y-56131616D01*
X97258050Y-56145328D01*
X97192034Y-56119204D01*
X97150623Y-56061536D01*
X97146963Y-55990633D01*
X97175890Y-55935543D01*
X97199840Y-55908944D01*
X97295327Y-55743556D01*
X97354342Y-55561928D01*
X97358977Y-55517834D01*
X97373614Y-55378565D01*
X97374304Y-55372000D01*
X97372399Y-55353872D01*
X97355032Y-55188635D01*
X97355032Y-55188633D01*
X97354342Y-55182072D01*
X97295327Y-55000444D01*
X97199840Y-54835056D01*
X97072053Y-54693134D01*
X96917552Y-54580882D01*
X96911524Y-54578198D01*
X96911522Y-54578197D01*
X96749119Y-54505891D01*
X96749118Y-54505891D01*
X96743088Y-54503206D01*
X96648027Y-54483000D01*
X97934896Y-54483000D01*
X97935586Y-54489565D01*
X97945592Y-54584763D01*
X97954858Y-54672928D01*
X98013873Y-54854556D01*
X98109360Y-55019944D01*
X98237147Y-55161866D01*
X98391648Y-55274118D01*
X98397676Y-55276802D01*
X98397678Y-55276803D01*
X98560081Y-55349109D01*
X98566112Y-55351794D01*
X98630288Y-55365435D01*
X98746456Y-55390128D01*
X98746461Y-55390128D01*
X98752913Y-55391500D01*
X98943887Y-55391500D01*
X98950339Y-55390128D01*
X98950344Y-55390128D01*
X99066512Y-55365435D01*
X99130688Y-55351794D01*
X99136719Y-55349109D01*
X99299122Y-55276803D01*
X99299124Y-55276802D01*
X99305152Y-55274118D01*
X99459653Y-55161866D01*
X99587440Y-55019944D01*
X99682927Y-54854556D01*
X99693767Y-54821194D01*
X99733841Y-54762588D01*
X99799237Y-54734951D01*
X99869194Y-54747058D01*
X99921500Y-54795064D01*
X99933433Y-54821194D01*
X99944273Y-54854556D01*
X100039760Y-55019944D01*
X100167547Y-55161866D01*
X100322048Y-55274118D01*
X100328076Y-55276802D01*
X100328078Y-55276803D01*
X100490481Y-55349109D01*
X100496512Y-55351794D01*
X100560688Y-55365435D01*
X100676856Y-55390128D01*
X100676861Y-55390128D01*
X100683313Y-55391500D01*
X100874287Y-55391500D01*
X100880739Y-55390128D01*
X100880744Y-55390128D01*
X100996912Y-55365435D01*
X101061088Y-55351794D01*
X101067119Y-55349109D01*
X101229522Y-55276803D01*
X101229524Y-55276802D01*
X101235552Y-55274118D01*
X101390053Y-55161866D01*
X101517840Y-55019944D01*
X101613327Y-54854556D01*
X101624167Y-54821194D01*
X101664241Y-54762588D01*
X101729637Y-54734951D01*
X101799594Y-54747058D01*
X101851900Y-54795064D01*
X101863833Y-54821194D01*
X101874673Y-54854556D01*
X101970160Y-55019944D01*
X102097947Y-55161866D01*
X102252448Y-55274118D01*
X102258476Y-55276802D01*
X102258478Y-55276803D01*
X102420881Y-55349109D01*
X102426912Y-55351794D01*
X102491088Y-55365435D01*
X102607256Y-55390128D01*
X102607261Y-55390128D01*
X102613713Y-55391500D01*
X102804687Y-55391500D01*
X102811139Y-55390128D01*
X102811144Y-55390128D01*
X102927312Y-55365435D01*
X102991488Y-55351794D01*
X102997519Y-55349109D01*
X103159922Y-55276803D01*
X103159924Y-55276802D01*
X103165952Y-55274118D01*
X103320453Y-55161866D01*
X103448240Y-55019944D01*
X103543727Y-54854556D01*
X103554567Y-54821194D01*
X103594641Y-54762588D01*
X103660037Y-54734951D01*
X103729994Y-54747058D01*
X103782300Y-54795064D01*
X103794233Y-54821194D01*
X103805073Y-54854556D01*
X103900560Y-55019944D01*
X104028347Y-55161866D01*
X104182848Y-55274118D01*
X104188876Y-55276802D01*
X104188878Y-55276803D01*
X104351281Y-55349109D01*
X104357312Y-55351794D01*
X104421488Y-55365435D01*
X104537656Y-55390128D01*
X104537661Y-55390128D01*
X104544113Y-55391500D01*
X104735087Y-55391500D01*
X104741539Y-55390128D01*
X104741544Y-55390128D01*
X104857712Y-55365435D01*
X104921888Y-55351794D01*
X104927919Y-55349109D01*
X105090322Y-55276803D01*
X105090324Y-55276802D01*
X105096352Y-55274118D01*
X105250853Y-55161866D01*
X105378640Y-55019944D01*
X105474127Y-54854556D01*
X105484967Y-54821194D01*
X105525041Y-54762588D01*
X105590437Y-54734951D01*
X105660394Y-54747058D01*
X105712700Y-54795064D01*
X105724633Y-54821194D01*
X105735473Y-54854556D01*
X105830960Y-55019944D01*
X105958747Y-55161866D01*
X106113248Y-55274118D01*
X106119276Y-55276802D01*
X106119278Y-55276803D01*
X106281681Y-55349109D01*
X106287712Y-55351794D01*
X106351888Y-55365435D01*
X106468056Y-55390128D01*
X106468061Y-55390128D01*
X106474513Y-55391500D01*
X106665487Y-55391500D01*
X106671939Y-55390128D01*
X106671944Y-55390128D01*
X106788112Y-55365435D01*
X106852288Y-55351794D01*
X106858319Y-55349109D01*
X107020722Y-55276803D01*
X107020724Y-55276802D01*
X107026752Y-55274118D01*
X107181253Y-55161866D01*
X107309040Y-55019944D01*
X107404527Y-54854556D01*
X107463542Y-54672928D01*
X107472809Y-54584763D01*
X107482814Y-54489565D01*
X107483504Y-54483000D01*
X107481599Y-54464872D01*
X107464232Y-54299635D01*
X107464232Y-54299633D01*
X107463542Y-54293072D01*
X107404527Y-54111444D01*
X107309040Y-53946056D01*
X107181253Y-53804134D01*
X107026752Y-53691882D01*
X107020724Y-53689198D01*
X107020722Y-53689197D01*
X106858319Y-53616891D01*
X106858318Y-53616891D01*
X106852288Y-53614206D01*
X106758887Y-53594353D01*
X106671944Y-53575872D01*
X106671939Y-53575872D01*
X106665487Y-53574500D01*
X106474513Y-53574500D01*
X106468061Y-53575872D01*
X106468056Y-53575872D01*
X106381113Y-53594353D01*
X106287712Y-53614206D01*
X106281682Y-53616891D01*
X106281681Y-53616891D01*
X106119278Y-53689197D01*
X106119276Y-53689198D01*
X106113248Y-53691882D01*
X105958747Y-53804134D01*
X105830960Y-53946056D01*
X105735473Y-54111444D01*
X105733431Y-54117729D01*
X105724633Y-54144806D01*
X105684559Y-54203412D01*
X105619163Y-54231049D01*
X105549206Y-54218942D01*
X105496900Y-54170936D01*
X105484967Y-54144806D01*
X105476169Y-54117729D01*
X105474127Y-54111444D01*
X105378640Y-53946056D01*
X105250853Y-53804134D01*
X105096352Y-53691882D01*
X105090324Y-53689198D01*
X105090322Y-53689197D01*
X104927919Y-53616891D01*
X104927918Y-53616891D01*
X104921888Y-53614206D01*
X104828487Y-53594353D01*
X104741544Y-53575872D01*
X104741539Y-53575872D01*
X104735087Y-53574500D01*
X104544113Y-53574500D01*
X104537661Y-53575872D01*
X104537656Y-53575872D01*
X104450713Y-53594353D01*
X104357312Y-53614206D01*
X104351282Y-53616891D01*
X104351281Y-53616891D01*
X104188878Y-53689197D01*
X104188876Y-53689198D01*
X104182848Y-53691882D01*
X104028347Y-53804134D01*
X103900560Y-53946056D01*
X103805073Y-54111444D01*
X103803031Y-54117729D01*
X103794233Y-54144806D01*
X103754159Y-54203412D01*
X103688763Y-54231049D01*
X103618806Y-54218942D01*
X103566500Y-54170936D01*
X103554567Y-54144806D01*
X103545769Y-54117729D01*
X103543727Y-54111444D01*
X103448240Y-53946056D01*
X103320453Y-53804134D01*
X103165952Y-53691882D01*
X103159924Y-53689198D01*
X103159922Y-53689197D01*
X102997519Y-53616891D01*
X102997518Y-53616891D01*
X102991488Y-53614206D01*
X102898087Y-53594353D01*
X102811144Y-53575872D01*
X102811139Y-53575872D01*
X102804687Y-53574500D01*
X102613713Y-53574500D01*
X102607261Y-53575872D01*
X102607256Y-53575872D01*
X102520313Y-53594353D01*
X102426912Y-53614206D01*
X102420882Y-53616891D01*
X102420881Y-53616891D01*
X102258478Y-53689197D01*
X102258476Y-53689198D01*
X102252448Y-53691882D01*
X102097947Y-53804134D01*
X101970160Y-53946056D01*
X101874673Y-54111444D01*
X101872631Y-54117729D01*
X101863833Y-54144806D01*
X101823759Y-54203412D01*
X101758363Y-54231049D01*
X101688406Y-54218942D01*
X101636100Y-54170936D01*
X101624167Y-54144806D01*
X101615369Y-54117729D01*
X101613327Y-54111444D01*
X101517840Y-53946056D01*
X101390053Y-53804134D01*
X101235552Y-53691882D01*
X101229524Y-53689198D01*
X101229522Y-53689197D01*
X101067119Y-53616891D01*
X101067118Y-53616891D01*
X101061088Y-53614206D01*
X100967687Y-53594353D01*
X100880744Y-53575872D01*
X100880739Y-53575872D01*
X100874287Y-53574500D01*
X100683313Y-53574500D01*
X100676861Y-53575872D01*
X100676856Y-53575872D01*
X100589913Y-53594353D01*
X100496512Y-53614206D01*
X100490482Y-53616891D01*
X100490481Y-53616891D01*
X100328078Y-53689197D01*
X100328076Y-53689198D01*
X100322048Y-53691882D01*
X100167547Y-53804134D01*
X100039760Y-53946056D01*
X99944273Y-54111444D01*
X99942231Y-54117729D01*
X99933433Y-54144806D01*
X99893359Y-54203412D01*
X99827963Y-54231049D01*
X99758006Y-54218942D01*
X99705700Y-54170936D01*
X99693767Y-54144806D01*
X99684969Y-54117729D01*
X99682927Y-54111444D01*
X99587440Y-53946056D01*
X99459653Y-53804134D01*
X99305152Y-53691882D01*
X99299124Y-53689198D01*
X99299122Y-53689197D01*
X99136719Y-53616891D01*
X99136718Y-53616891D01*
X99130688Y-53614206D01*
X99037287Y-53594353D01*
X98950344Y-53575872D01*
X98950339Y-53575872D01*
X98943887Y-53574500D01*
X98752913Y-53574500D01*
X98746461Y-53575872D01*
X98746456Y-53575872D01*
X98659513Y-53594353D01*
X98566112Y-53614206D01*
X98560082Y-53616891D01*
X98560081Y-53616891D01*
X98397678Y-53689197D01*
X98397676Y-53689198D01*
X98391648Y-53691882D01*
X98237147Y-53804134D01*
X98109360Y-53946056D01*
X98013873Y-54111444D01*
X97954858Y-54293072D01*
X97954168Y-54299633D01*
X97954168Y-54299635D01*
X97936801Y-54464872D01*
X97934896Y-54483000D01*
X96648027Y-54483000D01*
X96562744Y-54464872D01*
X96562739Y-54464872D01*
X96556287Y-54463500D01*
X96365313Y-54463500D01*
X96358861Y-54464872D01*
X96358856Y-54464872D01*
X96273573Y-54483000D01*
X96178512Y-54503206D01*
X96172482Y-54505891D01*
X96172481Y-54505891D01*
X96010078Y-54578197D01*
X96010076Y-54578198D01*
X96004048Y-54580882D01*
X95849547Y-54693134D01*
X95721760Y-54835056D01*
X95626273Y-55000444D01*
X95624231Y-55006729D01*
X95615433Y-55033806D01*
X95575359Y-55092412D01*
X95509963Y-55120049D01*
X95440006Y-55107942D01*
X95387700Y-55059936D01*
X95375767Y-55033806D01*
X95366969Y-55006729D01*
X95364927Y-55000444D01*
X95269440Y-54835056D01*
X95141653Y-54693134D01*
X94987152Y-54580882D01*
X94981124Y-54578198D01*
X94981122Y-54578197D01*
X94818719Y-54505891D01*
X94818718Y-54505891D01*
X94812688Y-54503206D01*
X94717627Y-54483000D01*
X94632344Y-54464872D01*
X94632339Y-54464872D01*
X94625887Y-54463500D01*
X94434913Y-54463500D01*
X94428461Y-54464872D01*
X94428456Y-54464872D01*
X94343173Y-54483000D01*
X94248112Y-54503206D01*
X94242082Y-54505891D01*
X94242081Y-54505891D01*
X94079678Y-54578197D01*
X94079676Y-54578198D01*
X94073648Y-54580882D01*
X93919147Y-54693134D01*
X93791360Y-54835056D01*
X93695873Y-55000444D01*
X93693831Y-55006729D01*
X93685033Y-55033806D01*
X93644959Y-55092412D01*
X93579563Y-55120049D01*
X93509606Y-55107942D01*
X93457300Y-55059936D01*
X93445367Y-55033806D01*
X93436569Y-55006729D01*
X93434527Y-55000444D01*
X93339040Y-54835056D01*
X93211253Y-54693134D01*
X93056752Y-54580882D01*
X93050724Y-54578198D01*
X93050722Y-54578197D01*
X92888319Y-54505891D01*
X92888318Y-54505891D01*
X92882288Y-54503206D01*
X92787227Y-54483000D01*
X92701944Y-54464872D01*
X92701939Y-54464872D01*
X92695487Y-54463500D01*
X92504513Y-54463500D01*
X92498061Y-54464872D01*
X92498056Y-54464872D01*
X92412773Y-54483000D01*
X92317712Y-54503206D01*
X92311682Y-54505891D01*
X92311681Y-54505891D01*
X92149278Y-54578197D01*
X92149276Y-54578198D01*
X92143248Y-54580882D01*
X91988747Y-54693134D01*
X91860960Y-54835056D01*
X91765473Y-55000444D01*
X91763431Y-55006729D01*
X91754633Y-55033806D01*
X91714559Y-55092412D01*
X91649163Y-55120049D01*
X91579206Y-55107942D01*
X91526900Y-55059936D01*
X91514967Y-55033806D01*
X91506169Y-55006729D01*
X91504127Y-55000444D01*
X91408640Y-54835056D01*
X91280853Y-54693134D01*
X91126352Y-54580882D01*
X91120324Y-54578198D01*
X91120322Y-54578197D01*
X90957919Y-54505891D01*
X90957918Y-54505891D01*
X90951888Y-54503206D01*
X90856827Y-54483000D01*
X90771544Y-54464872D01*
X90771539Y-54464872D01*
X90765087Y-54463500D01*
X90574113Y-54463500D01*
X90567661Y-54464872D01*
X90567656Y-54464872D01*
X90482373Y-54483000D01*
X90387312Y-54503206D01*
X90381282Y-54505891D01*
X90381281Y-54505891D01*
X90218878Y-54578197D01*
X90218876Y-54578198D01*
X90212848Y-54580882D01*
X90058347Y-54693134D01*
X89930560Y-54835056D01*
X89835073Y-55000444D01*
X89833031Y-55006729D01*
X89824233Y-55033806D01*
X89784159Y-55092412D01*
X89718763Y-55120049D01*
X89648806Y-55107942D01*
X89596500Y-55059936D01*
X89584567Y-55033806D01*
X89575769Y-55006729D01*
X89573727Y-55000444D01*
X89478240Y-54835056D01*
X89350453Y-54693134D01*
X89195952Y-54580882D01*
X89189924Y-54578198D01*
X89189922Y-54578197D01*
X89027519Y-54505891D01*
X89027518Y-54505891D01*
X89021488Y-54503206D01*
X88926427Y-54483000D01*
X88841144Y-54464872D01*
X88841139Y-54464872D01*
X88834687Y-54463500D01*
X88643713Y-54463500D01*
X88637261Y-54464872D01*
X88637256Y-54464872D01*
X88551973Y-54483000D01*
X88456912Y-54503206D01*
X88450882Y-54505891D01*
X88450881Y-54505891D01*
X88288478Y-54578197D01*
X88288476Y-54578198D01*
X88282448Y-54580882D01*
X88127947Y-54693134D01*
X88000160Y-54835056D01*
X87904673Y-55000444D01*
X87845658Y-55182072D01*
X87844968Y-55188633D01*
X87844968Y-55188635D01*
X87827601Y-55353872D01*
X87825696Y-55372000D01*
X80933000Y-55372000D01*
X84362000Y-51943000D01*
X110355496Y-51943000D01*
X110375458Y-52132928D01*
X110434473Y-52314556D01*
X110529960Y-52479944D01*
X110657747Y-52621866D01*
X110812248Y-52734118D01*
X110818276Y-52736802D01*
X110818278Y-52736803D01*
X110980681Y-52809109D01*
X110986712Y-52811794D01*
X111080113Y-52831647D01*
X111167056Y-52850128D01*
X111167061Y-52850128D01*
X111173513Y-52851500D01*
X111364487Y-52851500D01*
X111370939Y-52850128D01*
X111370944Y-52850128D01*
X111457887Y-52831647D01*
X111551288Y-52811794D01*
X111557319Y-52809109D01*
X111719722Y-52736803D01*
X111719724Y-52736802D01*
X111725752Y-52734118D01*
X111880253Y-52621866D01*
X112008040Y-52479944D01*
X112103527Y-52314556D01*
X112162542Y-52132928D01*
X112182504Y-51943000D01*
X112162542Y-51753072D01*
X112103527Y-51571444D01*
X112008040Y-51406056D01*
X111912777Y-51300255D01*
X111884675Y-51269045D01*
X111884674Y-51269044D01*
X111880253Y-51264134D01*
X111752831Y-51171556D01*
X111731094Y-51155763D01*
X111731093Y-51155762D01*
X111725752Y-51151882D01*
X111719724Y-51149198D01*
X111719722Y-51149197D01*
X111557319Y-51076891D01*
X111557318Y-51076891D01*
X111551288Y-51074206D01*
X111446587Y-51051951D01*
X111370944Y-51035872D01*
X111370939Y-51035872D01*
X111364487Y-51034500D01*
X111173513Y-51034500D01*
X111167061Y-51035872D01*
X111167056Y-51035872D01*
X111091413Y-51051951D01*
X110986712Y-51074206D01*
X110980682Y-51076891D01*
X110980681Y-51076891D01*
X110818278Y-51149197D01*
X110818276Y-51149198D01*
X110812248Y-51151882D01*
X110690108Y-51240622D01*
X110641148Y-51258091D01*
X110624732Y-51300255D01*
X110618596Y-51307616D01*
X110529960Y-51406056D01*
X110434473Y-51571444D01*
X110375458Y-51753072D01*
X110355496Y-51943000D01*
X84362000Y-51943000D01*
X86357095Y-49947905D01*
X86419407Y-49913879D01*
X86446190Y-49911000D01*
X86840353Y-49911000D01*
X86908474Y-49931002D01*
G37*
%TD.AperFunction*%
%TD*%
%TA.AperFunction,Conductor*%
%TO.N,Earth*%
G36*
X122225293Y-43120578D02*
G01*
X122244765Y-43123142D01*
X122244769Y-43123142D01*
X122252296Y-43124133D01*
X122261512Y-43123116D01*
X122270117Y-43122166D01*
X122292183Y-43121675D01*
X122499345Y-43135253D01*
X122515685Y-43137404D01*
X122603775Y-43154926D01*
X122743826Y-43182784D01*
X122759740Y-43187048D01*
X122865096Y-43222812D01*
X122979996Y-43261815D01*
X122995224Y-43268122D01*
X123203846Y-43371004D01*
X123218119Y-43379245D01*
X123411521Y-43508472D01*
X123424596Y-43518505D01*
X123599483Y-43671876D01*
X123611124Y-43683517D01*
X123684283Y-43766939D01*
X123764495Y-43858404D01*
X123774528Y-43871479D01*
X123903755Y-44064881D01*
X123911996Y-44079154D01*
X124014878Y-44287776D01*
X124021185Y-44303004D01*
X124095951Y-44523257D01*
X124100217Y-44539177D01*
X124145596Y-44767315D01*
X124147747Y-44783655D01*
X124160855Y-44983644D01*
X124160047Y-45008331D01*
X124159858Y-45009763D01*
X124159858Y-45009770D01*
X124158867Y-45017296D01*
X124161538Y-45041487D01*
X124162739Y-45052368D01*
X124163500Y-45066195D01*
X124163500Y-79893847D01*
X124162422Y-79910293D01*
X124158867Y-79937296D01*
X124159701Y-79944849D01*
X124160834Y-79955117D01*
X124161325Y-79977183D01*
X124147747Y-80184345D01*
X124145596Y-80200685D01*
X124100217Y-80428823D01*
X124095951Y-80444743D01*
X124021185Y-80664996D01*
X124014878Y-80680224D01*
X123911996Y-80888846D01*
X123903755Y-80903119D01*
X123774528Y-81096521D01*
X123764495Y-81109596D01*
X123611124Y-81284483D01*
X123599483Y-81296124D01*
X123425224Y-81448944D01*
X123424596Y-81449495D01*
X123411521Y-81459528D01*
X123218119Y-81588755D01*
X123203846Y-81596996D01*
X122995224Y-81699878D01*
X122979996Y-81706185D01*
X122865096Y-81745188D01*
X122759740Y-81780952D01*
X122743826Y-81785216D01*
X122629754Y-81807906D01*
X122515685Y-81830596D01*
X122499345Y-81832747D01*
X122299356Y-81845855D01*
X122274669Y-81845047D01*
X122273237Y-81844858D01*
X122273230Y-81844858D01*
X122265704Y-81843867D01*
X122230766Y-81847724D01*
X122230632Y-81847739D01*
X122216805Y-81848500D01*
X78824153Y-81848500D01*
X78807707Y-81847422D01*
X78788235Y-81844858D01*
X78788231Y-81844858D01*
X78780704Y-81843867D01*
X78771728Y-81844858D01*
X78762883Y-81845834D01*
X78740817Y-81846325D01*
X78533655Y-81832747D01*
X78517315Y-81830596D01*
X78403246Y-81807906D01*
X78289174Y-81785216D01*
X78273260Y-81780952D01*
X78167904Y-81745188D01*
X78053004Y-81706185D01*
X78037776Y-81699878D01*
X77829154Y-81596996D01*
X77814881Y-81588755D01*
X77621479Y-81459528D01*
X77608404Y-81449495D01*
X77607776Y-81448944D01*
X77433517Y-81296124D01*
X77421876Y-81284483D01*
X77268505Y-81109596D01*
X77258472Y-81096521D01*
X77129245Y-80903119D01*
X77121004Y-80888846D01*
X77018122Y-80680224D01*
X77011815Y-80664996D01*
X76937049Y-80444743D01*
X76932783Y-80428823D01*
X76887404Y-80200685D01*
X76885253Y-80184345D01*
X76872385Y-79988016D01*
X76873235Y-79965618D01*
X76873134Y-79965610D01*
X76873336Y-79962952D01*
X76873371Y-79962032D01*
X76873446Y-79961503D01*
X76873447Y-79961487D01*
X76874028Y-79957407D01*
X76874168Y-79944000D01*
X76870413Y-79912969D01*
X76869500Y-79897834D01*
X76869500Y-77470589D01*
X77393602Y-77470589D01*
X77393752Y-77473770D01*
X77395579Y-77512500D01*
X77411908Y-77858755D01*
X77412379Y-77861908D01*
X77412380Y-77861916D01*
X77418886Y-77905449D01*
X77469346Y-78243084D01*
X77470132Y-78246166D01*
X77470132Y-78246168D01*
X77532575Y-78491140D01*
X77565329Y-78619641D01*
X77698874Y-78984570D01*
X77868614Y-79334136D01*
X77973474Y-79503919D01*
X78016437Y-79573481D01*
X78072811Y-79664759D01*
X78074752Y-79667289D01*
X78074753Y-79667290D01*
X78304059Y-79966126D01*
X78309374Y-79973053D01*
X78575881Y-80255864D01*
X78578286Y-80257947D01*
X78578292Y-80257953D01*
X78867197Y-80508209D01*
X78869604Y-80510294D01*
X79187534Y-80733740D01*
X79190309Y-80735297D01*
X79477125Y-80896250D01*
X79526418Y-80923912D01*
X79529332Y-80925179D01*
X79529336Y-80925181D01*
X79567109Y-80941605D01*
X79882785Y-81078865D01*
X79979078Y-81109596D01*
X80249943Y-81196041D01*
X80249952Y-81196043D01*
X80252987Y-81197012D01*
X80296322Y-81206144D01*
X80630114Y-81276485D01*
X80630119Y-81276486D01*
X80633233Y-81277142D01*
X81019629Y-81318436D01*
X81022817Y-81318453D01*
X81022822Y-81318453D01*
X81199031Y-81319376D01*
X81408221Y-81320471D01*
X81601625Y-81301848D01*
X81791864Y-81283530D01*
X81791869Y-81283529D01*
X81795029Y-81283225D01*
X81798149Y-81282602D01*
X81798153Y-81282601D01*
X82172966Y-81207706D01*
X82172965Y-81207706D01*
X82176094Y-81207081D01*
X82513160Y-81103386D01*
X82544470Y-81093754D01*
X82544473Y-81093753D01*
X82547512Y-81092818D01*
X82550440Y-81091581D01*
X82550446Y-81091579D01*
X82902538Y-80942849D01*
X82902545Y-80942846D01*
X82905482Y-80941605D01*
X83246339Y-80754992D01*
X83566592Y-80534888D01*
X83682111Y-80436921D01*
X83860533Y-80285608D01*
X83860535Y-80285606D01*
X83862963Y-80283547D01*
X83865168Y-80281255D01*
X83865174Y-80281250D01*
X84130202Y-80005845D01*
X84130204Y-80005842D01*
X84132417Y-80003543D01*
X84158313Y-79970516D01*
X84370221Y-79700260D01*
X84370224Y-79700255D01*
X84372195Y-79697742D01*
X84579843Y-79369276D01*
X84581263Y-79366428D01*
X84581268Y-79366419D01*
X84751814Y-79024355D01*
X84753234Y-79021507D01*
X84890593Y-78657996D01*
X84895001Y-78641432D01*
X84989693Y-78285550D01*
X84990514Y-78282465D01*
X84996145Y-78247314D01*
X85040601Y-77969761D01*
X85051974Y-77898759D01*
X85052559Y-77888622D01*
X85074245Y-77512500D01*
X85074343Y-77510806D01*
X85074437Y-77483995D01*
X85054777Y-77095895D01*
X84995997Y-76711770D01*
X84968773Y-76606502D01*
X84899497Y-76338630D01*
X84899494Y-76338622D01*
X84898700Y-76335550D01*
X84897595Y-76332562D01*
X84764991Y-75974086D01*
X84764988Y-75974080D01*
X84763882Y-75971089D01*
X84592923Y-75622118D01*
X84387573Y-75292210D01*
X84149936Y-74984743D01*
X83882443Y-74702864D01*
X83587834Y-74449461D01*
X83585226Y-74447641D01*
X83585220Y-74447637D01*
X83271738Y-74228949D01*
X83269125Y-74227126D01*
X82929580Y-74038138D01*
X82926660Y-74036880D01*
X82926655Y-74036878D01*
X82575608Y-73885693D01*
X82575598Y-73885689D01*
X82572674Y-73884430D01*
X82202062Y-73767577D01*
X81931196Y-73711483D01*
X81824664Y-73689421D01*
X81824661Y-73689421D01*
X81821539Y-73688774D01*
X81570514Y-73662833D01*
X81504810Y-73635934D01*
X81464079Y-73577784D01*
X81461252Y-73506843D01*
X81497228Y-73445636D01*
X81560583Y-73413595D01*
X81583466Y-73411500D01*
X82901506Y-73411500D01*
X82969627Y-73431502D01*
X82990601Y-73448405D01*
X85904193Y-76361997D01*
X85905446Y-76363123D01*
X85905456Y-76363132D01*
X85915872Y-76372488D01*
X85955185Y-76407802D01*
X85976159Y-76424705D01*
X86050456Y-76476370D01*
X86056135Y-76478847D01*
X86056137Y-76478848D01*
X86121470Y-76507342D01*
X86197620Y-76540554D01*
X86265741Y-76560556D01*
X86286904Y-76566378D01*
X86378814Y-76577989D01*
X86442262Y-76586004D01*
X86442265Y-76586004D01*
X86446190Y-76586500D01*
X93253000Y-76586500D01*
X93321121Y-76606502D01*
X93367614Y-76660158D01*
X93379000Y-76712500D01*
X93379000Y-79756000D01*
X97189000Y-79756000D01*
X97189000Y-78575279D01*
X97209002Y-78507158D01*
X97262658Y-78460665D01*
X97332932Y-78450561D01*
X97350497Y-78454383D01*
X97388026Y-78465402D01*
X97388042Y-78465407D01*
X97388551Y-78465556D01*
X97409714Y-78471378D01*
X97501624Y-78482989D01*
X97565072Y-78491004D01*
X97565075Y-78491004D01*
X97569000Y-78491500D01*
X98283899Y-78491500D01*
X98352020Y-78511502D01*
X98387863Y-78546314D01*
X98571224Y-78814107D01*
X98571229Y-78814113D01*
X98573215Y-78817014D01*
X98575518Y-78819682D01*
X98749729Y-79021507D01*
X98795003Y-79073958D01*
X99044051Y-79304578D01*
X99046877Y-79306661D01*
X99046880Y-79306664D01*
X99084142Y-79334136D01*
X99317253Y-79506000D01*
X99611205Y-79675713D01*
X99740059Y-79732008D01*
X99919021Y-79810195D01*
X99919024Y-79810196D01*
X99922242Y-79811602D01*
X99925600Y-79812641D01*
X99925604Y-79812643D01*
X100107640Y-79868993D01*
X100246489Y-79911974D01*
X100579903Y-79975576D01*
X100833270Y-79995071D01*
X100914832Y-80001347D01*
X100914833Y-80001347D01*
X100918329Y-80001616D01*
X101124019Y-79994433D01*
X101254034Y-79989893D01*
X101254038Y-79989893D01*
X101257549Y-79989770D01*
X101342789Y-79977183D01*
X101589842Y-79940702D01*
X101589848Y-79940701D01*
X101593334Y-79940186D01*
X101596738Y-79939287D01*
X101596741Y-79939286D01*
X101918108Y-79854377D01*
X101918109Y-79854377D01*
X101921499Y-79853481D01*
X102237954Y-79730736D01*
X102538755Y-79573481D01*
X102820152Y-79383676D01*
X103078639Y-79163687D01*
X103162900Y-79073958D01*
X103308581Y-78918824D01*
X103308585Y-78918819D01*
X103310992Y-78916256D01*
X103313097Y-78913442D01*
X103313103Y-78913435D01*
X103512207Y-78647286D01*
X103514316Y-78644467D01*
X103527127Y-78622632D01*
X103567545Y-78553740D01*
X103619269Y-78505106D01*
X103676222Y-78491500D01*
X104429000Y-78491500D01*
X104565145Y-78476863D01*
X104568429Y-78476149D01*
X104568433Y-78476148D01*
X104613664Y-78466309D01*
X104613670Y-78466307D01*
X104617487Y-78465477D01*
X104767221Y-78412775D01*
X104804009Y-78388232D01*
X104897481Y-78325873D01*
X104897489Y-78325867D01*
X104900779Y-78323672D01*
X104954435Y-78277179D01*
X104986605Y-78247314D01*
X105085370Y-78120734D01*
X105149554Y-77973570D01*
X105169556Y-77905449D01*
X105175378Y-77884286D01*
X105195500Y-77725000D01*
X105195500Y-76712500D01*
X105215502Y-76644379D01*
X105269158Y-76597886D01*
X105321500Y-76586500D01*
X105445000Y-76586500D01*
X105513121Y-76606502D01*
X105559614Y-76660158D01*
X105571000Y-76712500D01*
X105571000Y-81153000D01*
X115604000Y-81153000D01*
X115604000Y-77470589D01*
X115893601Y-77470589D01*
X115893751Y-77473770D01*
X115895578Y-77512500D01*
X115911907Y-77858755D01*
X115912378Y-77861908D01*
X115912379Y-77861916D01*
X115918885Y-77905449D01*
X115969345Y-78243084D01*
X115970131Y-78246166D01*
X115970131Y-78246168D01*
X116032574Y-78491140D01*
X116065328Y-78619641D01*
X116198873Y-78984570D01*
X116368613Y-79334136D01*
X116473473Y-79503919D01*
X116516436Y-79573481D01*
X116572810Y-79664759D01*
X116574751Y-79667289D01*
X116574752Y-79667290D01*
X116804058Y-79966126D01*
X116809373Y-79973053D01*
X117075880Y-80255864D01*
X117078285Y-80257947D01*
X117078291Y-80257953D01*
X117367196Y-80508209D01*
X117369603Y-80510294D01*
X117687533Y-80733740D01*
X117690308Y-80735297D01*
X117977124Y-80896250D01*
X118026417Y-80923912D01*
X118029331Y-80925179D01*
X118029335Y-80925181D01*
X118067108Y-80941605D01*
X118382784Y-81078865D01*
X118479077Y-81109596D01*
X118749942Y-81196041D01*
X118749951Y-81196043D01*
X118752986Y-81197012D01*
X118796321Y-81206144D01*
X119130113Y-81276485D01*
X119130118Y-81276486D01*
X119133232Y-81277142D01*
X119519628Y-81318436D01*
X119522816Y-81318453D01*
X119522821Y-81318453D01*
X119699030Y-81319376D01*
X119908220Y-81320471D01*
X120101624Y-81301848D01*
X120291863Y-81283530D01*
X120291868Y-81283529D01*
X120295028Y-81283225D01*
X120298148Y-81282602D01*
X120298152Y-81282601D01*
X120672965Y-81207706D01*
X120672964Y-81207706D01*
X120676093Y-81207081D01*
X121013159Y-81103386D01*
X121044469Y-81093754D01*
X121044472Y-81093753D01*
X121047511Y-81092818D01*
X121050439Y-81091581D01*
X121050445Y-81091579D01*
X121402537Y-80942849D01*
X121402544Y-80942846D01*
X121405481Y-80941605D01*
X121746338Y-80754992D01*
X122066591Y-80534888D01*
X122182110Y-80436921D01*
X122360532Y-80285608D01*
X122360534Y-80285606D01*
X122362962Y-80283547D01*
X122365167Y-80281255D01*
X122365173Y-80281250D01*
X122630201Y-80005845D01*
X122630203Y-80005842D01*
X122632416Y-80003543D01*
X122658312Y-79970516D01*
X122870220Y-79700260D01*
X122870223Y-79700255D01*
X122872194Y-79697742D01*
X123079842Y-79369276D01*
X123081262Y-79366428D01*
X123081267Y-79366419D01*
X123251813Y-79024355D01*
X123253233Y-79021507D01*
X123390592Y-78657996D01*
X123395000Y-78641432D01*
X123489692Y-78285550D01*
X123490513Y-78282465D01*
X123496144Y-78247314D01*
X123540600Y-77969761D01*
X123551973Y-77898759D01*
X123552558Y-77888622D01*
X123574244Y-77512500D01*
X123574342Y-77510806D01*
X123574436Y-77483995D01*
X123554776Y-77095895D01*
X123495996Y-76711770D01*
X123468772Y-76606502D01*
X123399496Y-76338630D01*
X123399493Y-76338622D01*
X123398699Y-76335550D01*
X123397594Y-76332562D01*
X123264990Y-75974086D01*
X123264987Y-75974080D01*
X123263881Y-75971089D01*
X123092922Y-75622118D01*
X122887572Y-75292210D01*
X122649935Y-74984743D01*
X122382442Y-74702864D01*
X122087833Y-74449461D01*
X122085225Y-74447641D01*
X122085219Y-74447637D01*
X121771737Y-74228949D01*
X121769124Y-74227126D01*
X121429579Y-74038138D01*
X121426659Y-74036880D01*
X121426654Y-74036878D01*
X121075607Y-73885693D01*
X121075597Y-73885689D01*
X121072673Y-73884430D01*
X120702061Y-73767577D01*
X120431195Y-73711483D01*
X120324663Y-73689421D01*
X120324660Y-73689421D01*
X120321538Y-73688774D01*
X120024330Y-73658060D01*
X119938156Y-73649155D01*
X119938153Y-73649155D01*
X119935000Y-73648829D01*
X119931834Y-73648823D01*
X119931825Y-73648823D01*
X119739976Y-73648489D01*
X119546403Y-73648151D01*
X119399307Y-73662833D01*
X119162900Y-73686429D01*
X119162894Y-73686430D01*
X119159727Y-73686746D01*
X118961941Y-73726986D01*
X118782056Y-73763584D01*
X118782052Y-73763585D01*
X118778931Y-73764220D01*
X118775889Y-73765167D01*
X118775883Y-73765169D01*
X118622439Y-73812962D01*
X118407914Y-73879779D01*
X118404986Y-73881028D01*
X118053404Y-74030990D01*
X118053400Y-74030992D01*
X118050474Y-74032240D01*
X118047695Y-74033774D01*
X118047689Y-74033777D01*
X117754983Y-74195360D01*
X117710271Y-74220042D01*
X117390788Y-74441263D01*
X117095296Y-74693637D01*
X116826821Y-74974580D01*
X116588112Y-75281215D01*
X116586416Y-75283919D01*
X116586413Y-75283923D01*
X116457582Y-75489298D01*
X116381612Y-75610405D01*
X116209436Y-75958777D01*
X116073346Y-76322765D01*
X116072538Y-76325844D01*
X116072536Y-76325851D01*
X115988972Y-76644379D01*
X115974736Y-76698642D01*
X115914616Y-77082561D01*
X115893601Y-77470589D01*
X115604000Y-77470589D01*
X115604000Y-76581000D01*
X114893826Y-76581000D01*
X114825705Y-76560998D01*
X114779212Y-76507342D01*
X114769108Y-76437068D01*
X114798602Y-76372488D01*
X114807903Y-76362841D01*
X114860939Y-76313394D01*
X114860942Y-76313390D01*
X114863827Y-76310701D01*
X117980565Y-72570616D01*
X118066349Y-72436899D01*
X118093105Y-72380948D01*
X118143337Y-72230239D01*
X118191224Y-71990807D01*
X118769311Y-69100366D01*
X118769615Y-69098847D01*
X118778936Y-69036352D01*
X118781383Y-69011641D01*
X118784500Y-68948524D01*
X118784500Y-67888500D01*
X118769863Y-67752355D01*
X118758477Y-67700013D01*
X118714206Y-67574233D01*
X118710457Y-67503335D01*
X118745633Y-67441666D01*
X118808566Y-67408803D01*
X118833059Y-67406400D01*
X119114361Y-67406400D01*
X119122570Y-67405862D01*
X119228071Y-67391973D01*
X119243883Y-67387736D01*
X119375170Y-67333355D01*
X119389349Y-67325168D01*
X119467726Y-67265028D01*
X119473415Y-67257237D01*
X121902990Y-67257237D01*
X121904538Y-67260628D01*
X121988649Y-67325168D01*
X122002828Y-67333355D01*
X122134114Y-67387736D01*
X122149928Y-67391973D01*
X122231039Y-67402652D01*
X122245221Y-67400440D01*
X122248999Y-67387283D01*
X122248999Y-67386901D01*
X123148999Y-67386901D01*
X123153043Y-67400672D01*
X123166582Y-67402701D01*
X123248070Y-67391973D01*
X123263884Y-67387736D01*
X123395170Y-67333355D01*
X123409349Y-67325168D01*
X123487726Y-67265028D01*
X123494503Y-67255747D01*
X123491211Y-67254000D01*
X123167114Y-67254000D01*
X123151875Y-67258475D01*
X123150670Y-67259865D01*
X123148999Y-67267548D01*
X123148999Y-67386901D01*
X122248999Y-67386901D01*
X122248999Y-67272115D01*
X122244524Y-67256876D01*
X122243134Y-67255671D01*
X122235451Y-67254000D01*
X121914015Y-67254000D01*
X121902990Y-67257237D01*
X119473415Y-67257237D01*
X119474503Y-67255747D01*
X119471211Y-67254000D01*
X118483195Y-67254000D01*
X118419201Y-67236396D01*
X118413734Y-67232130D01*
X118266570Y-67167946D01*
X118198449Y-67147944D01*
X118177286Y-67142122D01*
X118177444Y-67141547D01*
X118117438Y-67110099D01*
X118082354Y-67048376D01*
X118078999Y-67019495D01*
X118078999Y-66589248D01*
X118099001Y-66521127D01*
X118152657Y-66474634D01*
X118178216Y-66466128D01*
X118202648Y-66460813D01*
X118202662Y-66460809D01*
X118206487Y-66459977D01*
X118356221Y-66407275D01*
X118404321Y-66375185D01*
X118474248Y-66354000D01*
X119463983Y-66354000D01*
X119469933Y-66352253D01*
X121903495Y-66352253D01*
X121906787Y-66354000D01*
X122230884Y-66354000D01*
X122246123Y-66349525D01*
X122247328Y-66348135D01*
X122248999Y-66340452D01*
X122248999Y-66335885D01*
X123148999Y-66335885D01*
X123153474Y-66351124D01*
X123154864Y-66352329D01*
X123162547Y-66354000D01*
X123483983Y-66354000D01*
X123495008Y-66350763D01*
X123493460Y-66347372D01*
X123409349Y-66282832D01*
X123395170Y-66274645D01*
X123263884Y-66220264D01*
X123248070Y-66216027D01*
X123166959Y-66205348D01*
X123152777Y-66207560D01*
X123148999Y-66220717D01*
X123148999Y-66335885D01*
X122248999Y-66335885D01*
X122248999Y-66221099D01*
X122244955Y-66207328D01*
X122231416Y-66205299D01*
X122149928Y-66216027D01*
X122134114Y-66220264D01*
X122002828Y-66274645D01*
X121988649Y-66282832D01*
X121910272Y-66342972D01*
X121903495Y-66352253D01*
X119469933Y-66352253D01*
X119475008Y-66350763D01*
X119462747Y-66323915D01*
X119452642Y-66253641D01*
X119482134Y-66189060D01*
X119514360Y-66162452D01*
X119556183Y-66138306D01*
X119556188Y-66138303D01*
X119561901Y-66135004D01*
X119708040Y-66003420D01*
X119823628Y-65844327D01*
X119854487Y-65775018D01*
X119900928Y-65670709D01*
X119900928Y-65670708D01*
X119903613Y-65664678D01*
X119924056Y-65568502D01*
X119943127Y-65478782D01*
X119943127Y-65478778D01*
X119944499Y-65472325D01*
X119944499Y-65275675D01*
X119934532Y-65228781D01*
X119909885Y-65112830D01*
X119903613Y-65083322D01*
X119874893Y-65018816D01*
X119826313Y-64909704D01*
X119826312Y-64909702D01*
X119823628Y-64903674D01*
X119815126Y-64891972D01*
X119711923Y-64749924D01*
X119711921Y-64749922D01*
X119708040Y-64744580D01*
X119561901Y-64612996D01*
X119391597Y-64514671D01*
X119313592Y-64489326D01*
X119210851Y-64455943D01*
X119210850Y-64455943D01*
X119204572Y-64453903D01*
X119198009Y-64453213D01*
X119198008Y-64453213D01*
X119174928Y-64450787D01*
X119058025Y-64438500D01*
X118959973Y-64438500D01*
X118956712Y-64438843D01*
X118956707Y-64438843D01*
X118945502Y-64440021D01*
X118923670Y-64442316D01*
X118853834Y-64429545D01*
X118801986Y-64381043D01*
X118784500Y-64317006D01*
X118784500Y-63460837D01*
X118804502Y-63392716D01*
X118858158Y-63346223D01*
X118928432Y-63336119D01*
X118993012Y-63365613D01*
X119009245Y-63382572D01*
X119088777Y-63482916D01*
X119243424Y-63614531D01*
X119420690Y-63713602D01*
X119613823Y-63776354D01*
X119815466Y-63800399D01*
X119821601Y-63799927D01*
X119821603Y-63799927D01*
X120011798Y-63785292D01*
X120011802Y-63785291D01*
X120017940Y-63784819D01*
X120213531Y-63730209D01*
X120219035Y-63727429D01*
X120219037Y-63727428D01*
X120389289Y-63641428D01*
X120389291Y-63641427D01*
X120394790Y-63638649D01*
X120554813Y-63513625D01*
X120585490Y-63478085D01*
X120683475Y-63364569D01*
X120683476Y-63364567D01*
X120687504Y-63359901D01*
X120787810Y-63183331D01*
X120851910Y-62990640D01*
X120877361Y-62789170D01*
X120877767Y-62760117D01*
X120857951Y-62558014D01*
X120799256Y-62363609D01*
X120703920Y-62184308D01*
X120700030Y-62179538D01*
X120700027Y-62179534D01*
X120579467Y-62031713D01*
X120579464Y-62031710D01*
X120575572Y-62026938D01*
X120419103Y-61897495D01*
X120240471Y-61800909D01*
X120143476Y-61770884D01*
X120052368Y-61742681D01*
X120052365Y-61742680D01*
X120046481Y-61740859D01*
X120040356Y-61740215D01*
X120040355Y-61740215D01*
X119850649Y-61720276D01*
X119850648Y-61720276D01*
X119844521Y-61719632D01*
X119760074Y-61727317D01*
X119648424Y-61737478D01*
X119648421Y-61737479D01*
X119642285Y-61738037D01*
X119636379Y-61739775D01*
X119636375Y-61739776D01*
X119494920Y-61781409D01*
X119447475Y-61795373D01*
X119267512Y-61889455D01*
X119262712Y-61893315D01*
X119262711Y-61893315D01*
X119224141Y-61924326D01*
X119109250Y-62016701D01*
X119007022Y-62138532D01*
X118947912Y-62177859D01*
X118876925Y-62178985D01*
X118816597Y-62141554D01*
X118786083Y-62077449D01*
X118784500Y-62057541D01*
X118784500Y-60650994D01*
X118804502Y-60582873D01*
X118858158Y-60536380D01*
X118923670Y-60525684D01*
X118945502Y-60527979D01*
X118956707Y-60529157D01*
X118956712Y-60529157D01*
X118959973Y-60529500D01*
X119058025Y-60529500D01*
X119174928Y-60517213D01*
X119198008Y-60514787D01*
X119198009Y-60514787D01*
X119204572Y-60514097D01*
X119210850Y-60512057D01*
X119210851Y-60512057D01*
X119385312Y-60455371D01*
X119385311Y-60455371D01*
X119391597Y-60453329D01*
X119561901Y-60355004D01*
X119708040Y-60223420D01*
X119727129Y-60197147D01*
X119819747Y-60069669D01*
X119819748Y-60069668D01*
X119823628Y-60064327D01*
X119843461Y-60019783D01*
X119900928Y-59890709D01*
X119900928Y-59890708D01*
X119903613Y-59884678D01*
X119944499Y-59692325D01*
X119944499Y-59495675D01*
X119903613Y-59303322D01*
X119865799Y-59218390D01*
X119826313Y-59129704D01*
X119826312Y-59129702D01*
X119823628Y-59123674D01*
X119708040Y-58964580D01*
X119561901Y-58832996D01*
X119510312Y-58803211D01*
X119461319Y-58751828D01*
X119447883Y-58682115D01*
X119471551Y-58619790D01*
X119473415Y-58617237D01*
X121902990Y-58617237D01*
X121904538Y-58620628D01*
X121988649Y-58685168D01*
X122002828Y-58693355D01*
X122134114Y-58747736D01*
X122149928Y-58751973D01*
X122231039Y-58762652D01*
X122245221Y-58760440D01*
X122248999Y-58747283D01*
X122248999Y-58746901D01*
X123148999Y-58746901D01*
X123153043Y-58760672D01*
X123166582Y-58762701D01*
X123248070Y-58751973D01*
X123263884Y-58747736D01*
X123395170Y-58693355D01*
X123409349Y-58685168D01*
X123487726Y-58625028D01*
X123494503Y-58615747D01*
X123491211Y-58614000D01*
X123167114Y-58614000D01*
X123151875Y-58618475D01*
X123150670Y-58619865D01*
X123148999Y-58627548D01*
X123148999Y-58746901D01*
X122248999Y-58746901D01*
X122248999Y-58632115D01*
X122244524Y-58616876D01*
X122243134Y-58615671D01*
X122235451Y-58614000D01*
X121914015Y-58614000D01*
X121902990Y-58617237D01*
X119473415Y-58617237D01*
X119474503Y-58615747D01*
X119471211Y-58614000D01*
X118483195Y-58614000D01*
X118419201Y-58596396D01*
X118413734Y-58592130D01*
X118266570Y-58527946D01*
X118198449Y-58507944D01*
X118177286Y-58502122D01*
X118177444Y-58501547D01*
X118117438Y-58470099D01*
X118082354Y-58408376D01*
X118078999Y-58379495D01*
X118078999Y-57949248D01*
X118099001Y-57881127D01*
X118152657Y-57834634D01*
X118178216Y-57826128D01*
X118202648Y-57820813D01*
X118202662Y-57820809D01*
X118206487Y-57819977D01*
X118356221Y-57767275D01*
X118404321Y-57735185D01*
X118474248Y-57714000D01*
X119463983Y-57714000D01*
X119469933Y-57712253D01*
X121903495Y-57712253D01*
X121906787Y-57714000D01*
X122230884Y-57714000D01*
X122246123Y-57709525D01*
X122247328Y-57708135D01*
X122248999Y-57700452D01*
X122248999Y-57695885D01*
X123148999Y-57695885D01*
X123153474Y-57711124D01*
X123154864Y-57712329D01*
X123162547Y-57714000D01*
X123483983Y-57714000D01*
X123495008Y-57710763D01*
X123493460Y-57707372D01*
X123409349Y-57642832D01*
X123395170Y-57634645D01*
X123263884Y-57580264D01*
X123248070Y-57576027D01*
X123166959Y-57565348D01*
X123152777Y-57567560D01*
X123148999Y-57580717D01*
X123148999Y-57695885D01*
X122248999Y-57695885D01*
X122248999Y-57581099D01*
X122244955Y-57567328D01*
X122231416Y-57565299D01*
X122149928Y-57576027D01*
X122134114Y-57580264D01*
X122002828Y-57634645D01*
X121988649Y-57642832D01*
X121910272Y-57702972D01*
X121903495Y-57712253D01*
X119469933Y-57712253D01*
X119475008Y-57710763D01*
X119473460Y-57707372D01*
X119389349Y-57642832D01*
X119375170Y-57634645D01*
X119243883Y-57580264D01*
X119228071Y-57576027D01*
X119122570Y-57562138D01*
X119114361Y-57561600D01*
X119079476Y-57561600D01*
X119011355Y-57541598D01*
X118964862Y-57487942D01*
X118954758Y-57417668D01*
X118984252Y-57353088D01*
X118993134Y-57343834D01*
X119055827Y-57284847D01*
X119055829Y-57284845D01*
X119058707Y-57282137D01*
X119103909Y-57227389D01*
X119130681Y-57192601D01*
X119207084Y-57051394D01*
X119245971Y-56895622D01*
X119254398Y-56825127D01*
X119258112Y-56781392D01*
X119246045Y-56621295D01*
X119194542Y-56469227D01*
X119163519Y-56405367D01*
X119153592Y-56385794D01*
X119061335Y-56254396D01*
X118776820Y-55941429D01*
X117874243Y-54948595D01*
X112940424Y-49521395D01*
X112938933Y-49519956D01*
X112938923Y-49519946D01*
X112881636Y-49464669D01*
X112881623Y-49464657D01*
X112880149Y-49463235D01*
X112855040Y-49441995D01*
X112852926Y-49440487D01*
X112774343Y-49384443D01*
X112774340Y-49384442D01*
X112768996Y-49380630D01*
X112762978Y-49378005D01*
X112762974Y-49378003D01*
X112625473Y-49318034D01*
X112621832Y-49316446D01*
X112553711Y-49296444D01*
X112532548Y-49290622D01*
X112423212Y-49276810D01*
X112377190Y-49270996D01*
X112377187Y-49270996D01*
X112373262Y-49270500D01*
X110835618Y-49270500D01*
X110795048Y-49272238D01*
X110782195Y-49272789D01*
X110782191Y-49272789D01*
X110780820Y-49272848D01*
X110759334Y-49274693D01*
X110712639Y-49281543D01*
X110689130Y-49284991D01*
X110689127Y-49284992D01*
X110683344Y-49285840D01*
X110531523Y-49338065D01*
X110467811Y-49369391D01*
X110466907Y-49369875D01*
X110466877Y-49369890D01*
X110437221Y-49385756D01*
X110429118Y-49390091D01*
X110425113Y-49393143D01*
X110371240Y-49434196D01*
X110304934Y-49459575D01*
X110257611Y-49454343D01*
X110087111Y-49401564D01*
X110087108Y-49401563D01*
X110081224Y-49399742D01*
X110075099Y-49399098D01*
X110075098Y-49399098D01*
X109885392Y-49379159D01*
X109885391Y-49379159D01*
X109879264Y-49378515D01*
X109814127Y-49384443D01*
X109683167Y-49396361D01*
X109683164Y-49396362D01*
X109677028Y-49396920D01*
X109671122Y-49398658D01*
X109671118Y-49398659D01*
X109529663Y-49440292D01*
X109482218Y-49454256D01*
X109302255Y-49548338D01*
X109297455Y-49552198D01*
X109297454Y-49552198D01*
X109284982Y-49562226D01*
X109143993Y-49675584D01*
X109016342Y-49827713D01*
X109015205Y-49829068D01*
X108956095Y-49868395D01*
X108885107Y-49869521D01*
X108821040Y-49827713D01*
X108709210Y-49690596D01*
X108709207Y-49690593D01*
X108705315Y-49685821D01*
X108548846Y-49556378D01*
X108370214Y-49459792D01*
X108273219Y-49429767D01*
X108182111Y-49401564D01*
X108182108Y-49401563D01*
X108176224Y-49399742D01*
X108170099Y-49399098D01*
X108170098Y-49399098D01*
X107980392Y-49379159D01*
X107980391Y-49379159D01*
X107974264Y-49378515D01*
X107909127Y-49384443D01*
X107778167Y-49396361D01*
X107778164Y-49396362D01*
X107772028Y-49396920D01*
X107766122Y-49398658D01*
X107766118Y-49398659D01*
X107578485Y-49453883D01*
X107507489Y-49453928D01*
X107465401Y-49432348D01*
X107405368Y-49385507D01*
X107405362Y-49385503D01*
X107399116Y-49380630D01*
X107251952Y-49316446D01*
X107183831Y-49296444D01*
X107162668Y-49290622D01*
X107053332Y-49276810D01*
X107007310Y-49270996D01*
X107007307Y-49270996D01*
X107003382Y-49270500D01*
X106771618Y-49270500D01*
X106731048Y-49272238D01*
X106718195Y-49272789D01*
X106718191Y-49272789D01*
X106716820Y-49272848D01*
X106695334Y-49274693D01*
X106648639Y-49281543D01*
X106625130Y-49284991D01*
X106625127Y-49284992D01*
X106619344Y-49285840D01*
X106467523Y-49338065D01*
X106403811Y-49369391D01*
X106402907Y-49369875D01*
X106402877Y-49369890D01*
X106373221Y-49385756D01*
X106365118Y-49390091D01*
X106361113Y-49393143D01*
X106307240Y-49434196D01*
X106240934Y-49459575D01*
X106193611Y-49454343D01*
X106023111Y-49401564D01*
X106023108Y-49401563D01*
X106017224Y-49399742D01*
X106011099Y-49399098D01*
X106011098Y-49399098D01*
X105821392Y-49379159D01*
X105821391Y-49379159D01*
X105815264Y-49378515D01*
X105750127Y-49384443D01*
X105619167Y-49396361D01*
X105619164Y-49396362D01*
X105613028Y-49396920D01*
X105607122Y-49398658D01*
X105607118Y-49398659D01*
X105419485Y-49453883D01*
X105348489Y-49453928D01*
X105306401Y-49432348D01*
X105246368Y-49385507D01*
X105246362Y-49385503D01*
X105240116Y-49380630D01*
X105092952Y-49316446D01*
X105024831Y-49296444D01*
X105003668Y-49290622D01*
X104894332Y-49276810D01*
X104848310Y-49270996D01*
X104848307Y-49270996D01*
X104844382Y-49270500D01*
X103625303Y-49270500D01*
X103557182Y-49250498D01*
X103510689Y-49196842D01*
X103500585Y-49126568D01*
X103510196Y-49093251D01*
X103568703Y-48961843D01*
X103568705Y-48961838D01*
X103570135Y-48958626D01*
X103672767Y-48635088D01*
X103675232Y-48622642D01*
X103698533Y-48504960D01*
X103738695Y-48302126D01*
X103767098Y-47963890D01*
X103768052Y-47895583D01*
X103768253Y-47881178D01*
X103768253Y-47881166D01*
X103768283Y-47879000D01*
X103768008Y-47874070D01*
X103749532Y-47543616D01*
X103749336Y-47540103D01*
X103744669Y-47512510D01*
X103737580Y-47470599D01*
X115893601Y-47470599D01*
X115893751Y-47473780D01*
X115911026Y-47840078D01*
X115911907Y-47858765D01*
X115912378Y-47861918D01*
X115912379Y-47861926D01*
X115927618Y-47963890D01*
X115969345Y-48243094D01*
X116065328Y-48619651D01*
X116198873Y-48984580D01*
X116368613Y-49334146D01*
X116484260Y-49521395D01*
X116539825Y-49611361D01*
X116572810Y-49664769D01*
X116574751Y-49667299D01*
X116574752Y-49667300D01*
X116697842Y-49827713D01*
X116809373Y-49973063D01*
X117075880Y-50255874D01*
X117078285Y-50257957D01*
X117078291Y-50257963D01*
X117367196Y-50508219D01*
X117369603Y-50510304D01*
X117687533Y-50733750D01*
X118026417Y-50923922D01*
X118029331Y-50925189D01*
X118029335Y-50925191D01*
X118067108Y-50941615D01*
X118382784Y-51078875D01*
X118559215Y-51135181D01*
X118749942Y-51196051D01*
X118749951Y-51196053D01*
X118752986Y-51197022D01*
X118796321Y-51206154D01*
X119130113Y-51276495D01*
X119130118Y-51276496D01*
X119133232Y-51277152D01*
X119519628Y-51318446D01*
X119522816Y-51318463D01*
X119522821Y-51318463D01*
X119699030Y-51319386D01*
X119908220Y-51320481D01*
X120101624Y-51301858D01*
X120291863Y-51283540D01*
X120291868Y-51283539D01*
X120295028Y-51283235D01*
X120298148Y-51282612D01*
X120298152Y-51282611D01*
X120672965Y-51207716D01*
X120672964Y-51207716D01*
X120676093Y-51207091D01*
X120961695Y-51119228D01*
X121044469Y-51093764D01*
X121044472Y-51093763D01*
X121047511Y-51092828D01*
X121050439Y-51091591D01*
X121050445Y-51091589D01*
X121402537Y-50942859D01*
X121402544Y-50942856D01*
X121405481Y-50941615D01*
X121746338Y-50755002D01*
X122066591Y-50534898D01*
X122362962Y-50283557D01*
X122365167Y-50281265D01*
X122365173Y-50281260D01*
X122630201Y-50005855D01*
X122630203Y-50005852D01*
X122632416Y-50003553D01*
X122767600Y-49831146D01*
X122870220Y-49700270D01*
X122870223Y-49700265D01*
X122872194Y-49697752D01*
X123079842Y-49369286D01*
X123081262Y-49366438D01*
X123081267Y-49366429D01*
X123251813Y-49024365D01*
X123253233Y-49021517D01*
X123390592Y-48658006D01*
X123397612Y-48631625D01*
X123485284Y-48302126D01*
X123490513Y-48282475D01*
X123551973Y-47898769D01*
X123552988Y-47881178D01*
X123574244Y-47512510D01*
X123574342Y-47510816D01*
X123574436Y-47484005D01*
X123570578Y-47407849D01*
X123554937Y-47099078D01*
X123554936Y-47099073D01*
X123554776Y-47095905D01*
X123516004Y-46842531D01*
X123496480Y-46714940D01*
X123496478Y-46714931D01*
X123495996Y-46711780D01*
X123443609Y-46509215D01*
X123399496Y-46338640D01*
X123399493Y-46338632D01*
X123398699Y-46335560D01*
X123397594Y-46332572D01*
X123264990Y-45974096D01*
X123264987Y-45974090D01*
X123263881Y-45971099D01*
X123092922Y-45622128D01*
X122887572Y-45292220D01*
X122715220Y-45069222D01*
X122651887Y-44987278D01*
X122651882Y-44987273D01*
X122649935Y-44984753D01*
X122588521Y-44920036D01*
X122384641Y-44705191D01*
X122384638Y-44705189D01*
X122382442Y-44702874D01*
X122192126Y-44539177D01*
X122090248Y-44451548D01*
X122090245Y-44451546D01*
X122087833Y-44449471D01*
X122085225Y-44447651D01*
X122085219Y-44447647D01*
X121771737Y-44228959D01*
X121769124Y-44227136D01*
X121429579Y-44038148D01*
X121426659Y-44036890D01*
X121426654Y-44036888D01*
X121075607Y-43885703D01*
X121075597Y-43885699D01*
X121072673Y-43884440D01*
X120702061Y-43767587D01*
X120431195Y-43711493D01*
X120324663Y-43689431D01*
X120324660Y-43689431D01*
X120321538Y-43688784D01*
X120024330Y-43658070D01*
X119938156Y-43649165D01*
X119938153Y-43649165D01*
X119935000Y-43648839D01*
X119931834Y-43648833D01*
X119931825Y-43648833D01*
X119739976Y-43648499D01*
X119546403Y-43648161D01*
X119392552Y-43663517D01*
X119162900Y-43686439D01*
X119162894Y-43686440D01*
X119159727Y-43686756D01*
X118961941Y-43726996D01*
X118782056Y-43763594D01*
X118782052Y-43763595D01*
X118778931Y-43764230D01*
X118775889Y-43765177D01*
X118775883Y-43765179D01*
X118622439Y-43812972D01*
X118407914Y-43879789D01*
X118404986Y-43881038D01*
X118053404Y-44031000D01*
X118053400Y-44031002D01*
X118050474Y-44032250D01*
X118047695Y-44033784D01*
X118047689Y-44033787D01*
X117965507Y-44079154D01*
X117710271Y-44220052D01*
X117390788Y-44441273D01*
X117095296Y-44693647D01*
X116826821Y-44974590D01*
X116824864Y-44977104D01*
X116824863Y-44977105D01*
X116706041Y-45129739D01*
X116588112Y-45281225D01*
X116586416Y-45283929D01*
X116586413Y-45283933D01*
X116569884Y-45310283D01*
X116381612Y-45610415D01*
X116209436Y-45958787D01*
X116073346Y-46322775D01*
X116072538Y-46325854D01*
X116072536Y-46325861D01*
X116010517Y-46562262D01*
X115974736Y-46698652D01*
X115914616Y-47082571D01*
X115914445Y-47085737D01*
X115914444Y-47085742D01*
X115897508Y-47398464D01*
X115893601Y-47470599D01*
X103737580Y-47470599D01*
X103693319Y-47208911D01*
X103693318Y-47208907D01*
X103692730Y-47205430D01*
X103599171Y-46879152D01*
X103526072Y-46701801D01*
X103471164Y-46568582D01*
X103471160Y-46568574D01*
X103469826Y-46565337D01*
X103343505Y-46335560D01*
X103307999Y-46270974D01*
X103307996Y-46270970D01*
X103306306Y-46267895D01*
X103110650Y-45990535D01*
X103037549Y-45908199D01*
X102887629Y-45739340D01*
X102887623Y-45739334D01*
X102885296Y-45736713D01*
X102852076Y-45706801D01*
X102635673Y-45511951D01*
X102635672Y-45511950D01*
X102633053Y-45509592D01*
X102539864Y-45442876D01*
X102359932Y-45314056D01*
X102359925Y-45314052D01*
X102357065Y-45312004D01*
X102060772Y-45146412D01*
X101747868Y-45014879D01*
X101744505Y-45013889D01*
X101744496Y-45013886D01*
X101543805Y-44954820D01*
X101422251Y-44919045D01*
X101155622Y-44872031D01*
X101091442Y-44860714D01*
X101091440Y-44860714D01*
X101087982Y-44860104D01*
X101084473Y-44859883D01*
X101084471Y-44859883D01*
X100752743Y-44839012D01*
X100752737Y-44839012D01*
X100749225Y-44838791D01*
X100653240Y-44843485D01*
X100413711Y-44855200D01*
X100413703Y-44855201D01*
X100410204Y-44855372D01*
X100406736Y-44855934D01*
X100406733Y-44855934D01*
X100078619Y-44909077D01*
X100078616Y-44909078D01*
X100075144Y-44909640D01*
X99748221Y-45000918D01*
X99433510Y-45128070D01*
X99134935Y-45289509D01*
X98856215Y-45483224D01*
X98600825Y-45706801D01*
X98371949Y-45957452D01*
X98172440Y-46232054D01*
X98004783Y-46527183D01*
X97871068Y-46839162D01*
X97870051Y-46842531D01*
X97792595Y-47099078D01*
X97772963Y-47164101D01*
X97769253Y-47184316D01*
X97714251Y-47484005D01*
X97711691Y-47497952D01*
X97688013Y-47836551D01*
X97702227Y-48175680D01*
X97754154Y-48511110D01*
X97843148Y-48838662D01*
X97943948Y-49093251D01*
X97945874Y-49098116D01*
X97952353Y-49168816D01*
X97919581Y-49231796D01*
X97857961Y-49267060D01*
X97828722Y-49270500D01*
X96360616Y-49270500D01*
X96292495Y-49250498D01*
X96246002Y-49196842D01*
X96235898Y-49126568D01*
X96265392Y-49061988D01*
X96278781Y-49048693D01*
X96373120Y-48968120D01*
X96480900Y-48841926D01*
X96526872Y-48788100D01*
X96526875Y-48788095D01*
X96530087Y-48784335D01*
X96656371Y-48578258D01*
X96685624Y-48507637D01*
X96746969Y-48359536D01*
X96746970Y-48359534D01*
X96748863Y-48354963D01*
X96791905Y-48175680D01*
X96804130Y-48124761D01*
X96804131Y-48124755D01*
X96805285Y-48119948D01*
X96824248Y-47879000D01*
X96805285Y-47638052D01*
X96748863Y-47403037D01*
X96746969Y-47398464D01*
X96658266Y-47184316D01*
X96658264Y-47184312D01*
X96656371Y-47179742D01*
X96530087Y-46973665D01*
X96526875Y-46969905D01*
X96526872Y-46969900D01*
X96376333Y-46793642D01*
X96373120Y-46789880D01*
X96356720Y-46775873D01*
X96193100Y-46636128D01*
X96193095Y-46636125D01*
X96189335Y-46632913D01*
X95983258Y-46506629D01*
X95978688Y-46504736D01*
X95978684Y-46504734D01*
X95764536Y-46416031D01*
X95764534Y-46416030D01*
X95759963Y-46414137D01*
X95678359Y-46394546D01*
X95529761Y-46358870D01*
X95529755Y-46358869D01*
X95524948Y-46357715D01*
X95284000Y-46338752D01*
X95043052Y-46357715D01*
X95038245Y-46358869D01*
X95038239Y-46358870D01*
X94889641Y-46394546D01*
X94808037Y-46414137D01*
X94803466Y-46416030D01*
X94803464Y-46416031D01*
X94589316Y-46504734D01*
X94589312Y-46504736D01*
X94584742Y-46506629D01*
X94378665Y-46632913D01*
X94374905Y-46636125D01*
X94374900Y-46636128D01*
X94211280Y-46775873D01*
X94194880Y-46789880D01*
X94191667Y-46793642D01*
X94041128Y-46969900D01*
X94041125Y-46969905D01*
X94037913Y-46973665D01*
X93911629Y-47179742D01*
X93909736Y-47184312D01*
X93909734Y-47184316D01*
X93821031Y-47398464D01*
X93819137Y-47403037D01*
X93762715Y-47638052D01*
X93743752Y-47879000D01*
X93762715Y-48119948D01*
X93763869Y-48124755D01*
X93763870Y-48124761D01*
X93776095Y-48175680D01*
X93819137Y-48354963D01*
X93821030Y-48359534D01*
X93821031Y-48359536D01*
X93882377Y-48507637D01*
X93911629Y-48578258D01*
X94037913Y-48784335D01*
X94041125Y-48788095D01*
X94041128Y-48788100D01*
X94087100Y-48841926D01*
X94194880Y-48968120D01*
X94289216Y-49048690D01*
X94328024Y-49108140D01*
X94328530Y-49179134D01*
X94290574Y-49239133D01*
X94226206Y-49269086D01*
X94207384Y-49270500D01*
X94041647Y-49270500D01*
X94029969Y-49270756D01*
X94018252Y-49271012D01*
X94018247Y-49271012D01*
X94013610Y-49271114D01*
X93916424Y-49287742D01*
X93859267Y-49297521D01*
X93859264Y-49297522D01*
X93855358Y-49298190D01*
X93851573Y-49299340D01*
X93851567Y-49299342D01*
X93786388Y-49319156D01*
X93786375Y-49319160D01*
X93785231Y-49319508D01*
X93738000Y-49335905D01*
X93733435Y-49338392D01*
X93733433Y-49338393D01*
X93661725Y-49377461D01*
X93597015Y-49412716D01*
X93591214Y-49418123D01*
X93591213Y-49418123D01*
X93505708Y-49497809D01*
X93479561Y-49522176D01*
X93477030Y-49525212D01*
X93477028Y-49525214D01*
X93438407Y-49571540D01*
X93434099Y-49576707D01*
X93433985Y-49576612D01*
X93376161Y-49616783D01*
X93305210Y-49619335D01*
X93244143Y-49583124D01*
X93234982Y-49571540D01*
X93234821Y-49571663D01*
X93232425Y-49568519D01*
X93230225Y-49565221D01*
X93183732Y-49511565D01*
X93153867Y-49479395D01*
X93054117Y-49401564D01*
X93033534Y-49385504D01*
X93033533Y-49385503D01*
X93027287Y-49380630D01*
X92880123Y-49316446D01*
X92812002Y-49296444D01*
X92790839Y-49290622D01*
X92681503Y-49276810D01*
X92635481Y-49270996D01*
X92635478Y-49270996D01*
X92631553Y-49270500D01*
X92111247Y-49270500D01*
X92099569Y-49270756D01*
X92087852Y-49271012D01*
X92087847Y-49271012D01*
X92083210Y-49271114D01*
X91986024Y-49287742D01*
X91928867Y-49297521D01*
X91928864Y-49297522D01*
X91924958Y-49298190D01*
X91921173Y-49299340D01*
X91921167Y-49299342D01*
X91855988Y-49319156D01*
X91855975Y-49319160D01*
X91854831Y-49319508D01*
X91807600Y-49335905D01*
X91803035Y-49338392D01*
X91803033Y-49338393D01*
X91731325Y-49377461D01*
X91666615Y-49412716D01*
X91660814Y-49418123D01*
X91660813Y-49418123D01*
X91575308Y-49497809D01*
X91549161Y-49522176D01*
X91546630Y-49525212D01*
X91546628Y-49525214D01*
X91508007Y-49571540D01*
X91503699Y-49576707D01*
X91503585Y-49576612D01*
X91445761Y-49616783D01*
X91374810Y-49619335D01*
X91313743Y-49583124D01*
X91304582Y-49571540D01*
X91304421Y-49571663D01*
X91302025Y-49568519D01*
X91299825Y-49565221D01*
X91253332Y-49511565D01*
X91223467Y-49479395D01*
X91123717Y-49401564D01*
X91103134Y-49385504D01*
X91103133Y-49385503D01*
X91096887Y-49380630D01*
X90949723Y-49316446D01*
X90881602Y-49296444D01*
X90860439Y-49290622D01*
X90751103Y-49276810D01*
X90705081Y-49270996D01*
X90705078Y-49270996D01*
X90701153Y-49270500D01*
X90180847Y-49270500D01*
X90169169Y-49270756D01*
X90157452Y-49271012D01*
X90157447Y-49271012D01*
X90152810Y-49271114D01*
X90055624Y-49287742D01*
X89998467Y-49297521D01*
X89998464Y-49297522D01*
X89994558Y-49298190D01*
X89990773Y-49299340D01*
X89990767Y-49299342D01*
X89925588Y-49319156D01*
X89925575Y-49319160D01*
X89924431Y-49319508D01*
X89877200Y-49335905D01*
X89872635Y-49338392D01*
X89872633Y-49338393D01*
X89800925Y-49377461D01*
X89736215Y-49412716D01*
X89730414Y-49418123D01*
X89730413Y-49418123D01*
X89644908Y-49497809D01*
X89618761Y-49522176D01*
X89616230Y-49525212D01*
X89616228Y-49525214D01*
X89577607Y-49571540D01*
X89573299Y-49576707D01*
X89573185Y-49576612D01*
X89515361Y-49616783D01*
X89444410Y-49619335D01*
X89383343Y-49583124D01*
X89374182Y-49571540D01*
X89374021Y-49571663D01*
X89371625Y-49568519D01*
X89369425Y-49565221D01*
X89322932Y-49511565D01*
X89293067Y-49479395D01*
X89193317Y-49401564D01*
X89172734Y-49385504D01*
X89172733Y-49385503D01*
X89166487Y-49380630D01*
X89019323Y-49316446D01*
X88951202Y-49296444D01*
X88930039Y-49290622D01*
X88820703Y-49276810D01*
X88774681Y-49270996D01*
X88774678Y-49270996D01*
X88770753Y-49270500D01*
X88250447Y-49270500D01*
X88238769Y-49270756D01*
X88227052Y-49271012D01*
X88227047Y-49271012D01*
X88222410Y-49271114D01*
X88125224Y-49287742D01*
X88068067Y-49297521D01*
X88068064Y-49297522D01*
X88064158Y-49298190D01*
X88060373Y-49299340D01*
X88060367Y-49299342D01*
X87995188Y-49319156D01*
X87995175Y-49319160D01*
X87994031Y-49319508D01*
X87946800Y-49335905D01*
X87942235Y-49338392D01*
X87942233Y-49338393D01*
X87870525Y-49377461D01*
X87805815Y-49412716D01*
X87800014Y-49418123D01*
X87800013Y-49418123D01*
X87714508Y-49497809D01*
X87688361Y-49522176D01*
X87685830Y-49525212D01*
X87685828Y-49525214D01*
X87647207Y-49571540D01*
X87642899Y-49576707D01*
X87642785Y-49576612D01*
X87584961Y-49616783D01*
X87514010Y-49619335D01*
X87452943Y-49583124D01*
X87443782Y-49571540D01*
X87443621Y-49571663D01*
X87441225Y-49568519D01*
X87439025Y-49565221D01*
X87392532Y-49511565D01*
X87362667Y-49479395D01*
X87262917Y-49401564D01*
X87242334Y-49385504D01*
X87242333Y-49385503D01*
X87236087Y-49380630D01*
X87088923Y-49316446D01*
X87020802Y-49296444D01*
X86999639Y-49290622D01*
X86890303Y-49276810D01*
X86844281Y-49270996D01*
X86844278Y-49270996D01*
X86840353Y-49270500D01*
X86446190Y-49270500D01*
X86377735Y-49274169D01*
X86376064Y-49274349D01*
X86376047Y-49274350D01*
X86353163Y-49276810D01*
X86353154Y-49276811D01*
X86350952Y-49277048D01*
X86261885Y-49293051D01*
X86112441Y-49351730D01*
X86108971Y-49353625D01*
X86050584Y-49385507D01*
X86050538Y-49385532D01*
X86050129Y-49385756D01*
X86031054Y-49396600D01*
X85904193Y-49495003D01*
X80450601Y-54948595D01*
X80388289Y-54982621D01*
X80361506Y-54985500D01*
X78699190Y-54985500D01*
X78630735Y-54989169D01*
X78629064Y-54989349D01*
X78629047Y-54989350D01*
X78606163Y-54991810D01*
X78606154Y-54991811D01*
X78603952Y-54992048D01*
X78514885Y-55008051D01*
X78365441Y-55066730D01*
X78361971Y-55068625D01*
X78303584Y-55100507D01*
X78303538Y-55100532D01*
X78303129Y-55100756D01*
X78284054Y-55111600D01*
X78157193Y-55210003D01*
X77723003Y-55644193D01*
X77677198Y-55695185D01*
X77660295Y-55716159D01*
X77608630Y-55790456D01*
X77544446Y-55937620D01*
X77524444Y-56005741D01*
X77518622Y-56026904D01*
X77498500Y-56186190D01*
X77498500Y-71448810D01*
X77502169Y-71517265D01*
X77505048Y-71544048D01*
X77521051Y-71633115D01*
X77579730Y-71782559D01*
X77581625Y-71786029D01*
X77613507Y-71844416D01*
X77613532Y-71844462D01*
X77613756Y-71844871D01*
X77624600Y-71863946D01*
X77723003Y-71990807D01*
X78919193Y-73186997D01*
X78920446Y-73188123D01*
X78920456Y-73188132D01*
X78950597Y-73215207D01*
X78970185Y-73232802D01*
X78991159Y-73249705D01*
X79065456Y-73301370D01*
X79071135Y-73303847D01*
X79071137Y-73303848D01*
X79201454Y-73360684D01*
X79212620Y-73365554D01*
X79280741Y-73385556D01*
X79301904Y-73391378D01*
X79393814Y-73402989D01*
X79457262Y-73411004D01*
X79457265Y-73411004D01*
X79461190Y-73411500D01*
X80886353Y-73411500D01*
X80954474Y-73431502D01*
X81000967Y-73485158D01*
X81011071Y-73555432D01*
X80981577Y-73620012D01*
X80921851Y-73658396D01*
X80898867Y-73662877D01*
X80662901Y-73686429D01*
X80662895Y-73686430D01*
X80659728Y-73686746D01*
X80461942Y-73726986D01*
X80282057Y-73763584D01*
X80282053Y-73763585D01*
X80278932Y-73764220D01*
X80275890Y-73765167D01*
X80275884Y-73765169D01*
X80122440Y-73812962D01*
X79907915Y-73879779D01*
X79904987Y-73881028D01*
X79553405Y-74030990D01*
X79553401Y-74030992D01*
X79550475Y-74032240D01*
X79547696Y-74033774D01*
X79547690Y-74033777D01*
X79254984Y-74195360D01*
X79210272Y-74220042D01*
X78890789Y-74441263D01*
X78595297Y-74693637D01*
X78326822Y-74974580D01*
X78088113Y-75281215D01*
X78086417Y-75283919D01*
X78086414Y-75283923D01*
X77957583Y-75489298D01*
X77881613Y-75610405D01*
X77709437Y-75958777D01*
X77573347Y-76322765D01*
X77572539Y-76325844D01*
X77572537Y-76325851D01*
X77488973Y-76644379D01*
X77474737Y-76698642D01*
X77414617Y-77082561D01*
X77393602Y-77470589D01*
X76869500Y-77470589D01*
X76869500Y-65862885D01*
X76870549Y-65852485D01*
X76869973Y-65852439D01*
X76870583Y-65844872D01*
X76872099Y-65837425D01*
X76869601Y-65775018D01*
X76869500Y-65769979D01*
X76869500Y-65746017D01*
X76868625Y-65739086D01*
X76867733Y-65728342D01*
X76866112Y-65687863D01*
X76865947Y-65683732D01*
X76865245Y-65679665D01*
X76865244Y-65679657D01*
X76864368Y-65674584D01*
X76864367Y-65674579D01*
X76863666Y-65670520D01*
X76862438Y-65666574D01*
X76860739Y-65661114D01*
X76856040Y-65639467D01*
X76855420Y-65634563D01*
X76854427Y-65626701D01*
X76851511Y-65619336D01*
X76851510Y-65619332D01*
X76844266Y-65601036D01*
X76839925Y-65588049D01*
X76836655Y-65576153D01*
X76819017Y-65511980D01*
X76800257Y-65472325D01*
X76750962Y-65368130D01*
X76750961Y-65368128D01*
X76748619Y-65363178D01*
X76653566Y-65228781D01*
X76536719Y-65112830D01*
X76401593Y-65018816D01*
X76306995Y-64974951D01*
X76253610Y-64928148D01*
X76234000Y-64860642D01*
X76234000Y-60127769D01*
X76254002Y-60059648D01*
X76311785Y-60011359D01*
X76316115Y-60009566D01*
X76322044Y-60007767D01*
X76476571Y-59925171D01*
X76612015Y-59814015D01*
X76723171Y-59678571D01*
X76778787Y-59574520D01*
X76802850Y-59529502D01*
X76802851Y-59529499D01*
X76805767Y-59524044D01*
X76856630Y-59356373D01*
X76862708Y-59294666D01*
X76866059Y-59275684D01*
X76867528Y-59269963D01*
X76869500Y-59262282D01*
X76869500Y-59236144D01*
X76870757Y-59218390D01*
X76873447Y-59199487D01*
X76874028Y-59195407D01*
X76874168Y-59182000D01*
X76870413Y-59150969D01*
X76869500Y-59135834D01*
X76869500Y-47470599D01*
X77393602Y-47470599D01*
X77393752Y-47473780D01*
X77411027Y-47840078D01*
X77411908Y-47858765D01*
X77412379Y-47861918D01*
X77412380Y-47861926D01*
X77427619Y-47963890D01*
X77469346Y-48243094D01*
X77565329Y-48619651D01*
X77698874Y-48984580D01*
X77868614Y-49334146D01*
X77984261Y-49521395D01*
X78039826Y-49611361D01*
X78072811Y-49664769D01*
X78074752Y-49667299D01*
X78074753Y-49667300D01*
X78197843Y-49827713D01*
X78309374Y-49973063D01*
X78575881Y-50255874D01*
X78578286Y-50257957D01*
X78578292Y-50257963D01*
X78867197Y-50508219D01*
X78869604Y-50510304D01*
X79187534Y-50733750D01*
X79526418Y-50923922D01*
X79529332Y-50925189D01*
X79529336Y-50925191D01*
X79567109Y-50941615D01*
X79882785Y-51078875D01*
X80059216Y-51135181D01*
X80249943Y-51196051D01*
X80249952Y-51196053D01*
X80252987Y-51197022D01*
X80296322Y-51206154D01*
X80630114Y-51276495D01*
X80630119Y-51276496D01*
X80633233Y-51277152D01*
X81019629Y-51318446D01*
X81022817Y-51318463D01*
X81022822Y-51318463D01*
X81199031Y-51319386D01*
X81408221Y-51320481D01*
X81601625Y-51301858D01*
X81791864Y-51283540D01*
X81791869Y-51283539D01*
X81795029Y-51283235D01*
X81798149Y-51282612D01*
X81798153Y-51282611D01*
X82172966Y-51207716D01*
X82172965Y-51207716D01*
X82176094Y-51207091D01*
X82461696Y-51119228D01*
X82544470Y-51093764D01*
X82544473Y-51093763D01*
X82547512Y-51092828D01*
X82550440Y-51091591D01*
X82550446Y-51091589D01*
X82902538Y-50942859D01*
X82902545Y-50942856D01*
X82905482Y-50941615D01*
X83246339Y-50755002D01*
X83566592Y-50534898D01*
X83862963Y-50283557D01*
X83865168Y-50281265D01*
X83865174Y-50281260D01*
X84130202Y-50005855D01*
X84130204Y-50005852D01*
X84132417Y-50003553D01*
X84267601Y-49831146D01*
X84370221Y-49700270D01*
X84370224Y-49700265D01*
X84372195Y-49697752D01*
X84579843Y-49369286D01*
X84581263Y-49366438D01*
X84581268Y-49366429D01*
X84751814Y-49024365D01*
X84753234Y-49021517D01*
X84890593Y-48658006D01*
X84897613Y-48631625D01*
X84985285Y-48302126D01*
X84990514Y-48282475D01*
X85051974Y-47898769D01*
X85052989Y-47881178D01*
X85074245Y-47512510D01*
X85074343Y-47510816D01*
X85074437Y-47484005D01*
X85070579Y-47407849D01*
X85054938Y-47099078D01*
X85054937Y-47099073D01*
X85054777Y-47095905D01*
X85016005Y-46842531D01*
X84996481Y-46714940D01*
X84996479Y-46714931D01*
X84995997Y-46711780D01*
X84943610Y-46509215D01*
X84899497Y-46338640D01*
X84899494Y-46338632D01*
X84898700Y-46335560D01*
X84897595Y-46332572D01*
X84764991Y-45974096D01*
X84764988Y-45974090D01*
X84763882Y-45971099D01*
X84592923Y-45622128D01*
X84387573Y-45292220D01*
X84215221Y-45069222D01*
X84151888Y-44987278D01*
X84151883Y-44987273D01*
X84149936Y-44984753D01*
X84088522Y-44920036D01*
X83884642Y-44705191D01*
X83884639Y-44705189D01*
X83882443Y-44702874D01*
X83692127Y-44539177D01*
X83590249Y-44451548D01*
X83590246Y-44451546D01*
X83587834Y-44449471D01*
X83585226Y-44447651D01*
X83585220Y-44447647D01*
X83271738Y-44228959D01*
X83269125Y-44227136D01*
X82929580Y-44038148D01*
X82926660Y-44036890D01*
X82926655Y-44036888D01*
X82575608Y-43885703D01*
X82575598Y-43885699D01*
X82572674Y-43884440D01*
X82202062Y-43767587D01*
X81931196Y-43711493D01*
X81824664Y-43689431D01*
X81824661Y-43689431D01*
X81821539Y-43688784D01*
X81524331Y-43658070D01*
X81438157Y-43649165D01*
X81438154Y-43649165D01*
X81435001Y-43648839D01*
X81431835Y-43648833D01*
X81431826Y-43648833D01*
X81239977Y-43648499D01*
X81046404Y-43648161D01*
X80892553Y-43663517D01*
X80662901Y-43686439D01*
X80662895Y-43686440D01*
X80659728Y-43686756D01*
X80461942Y-43726996D01*
X80282057Y-43763594D01*
X80282053Y-43763595D01*
X80278932Y-43764230D01*
X80275890Y-43765177D01*
X80275884Y-43765179D01*
X80122440Y-43812972D01*
X79907915Y-43879789D01*
X79904987Y-43881038D01*
X79553405Y-44031000D01*
X79553401Y-44031002D01*
X79550475Y-44032250D01*
X79547696Y-44033784D01*
X79547690Y-44033787D01*
X79465508Y-44079154D01*
X79210272Y-44220052D01*
X78890789Y-44441273D01*
X78595297Y-44693647D01*
X78326822Y-44974590D01*
X78324865Y-44977104D01*
X78324864Y-44977105D01*
X78206042Y-45129739D01*
X78088113Y-45281225D01*
X78086417Y-45283929D01*
X78086414Y-45283933D01*
X78069885Y-45310283D01*
X77881613Y-45610415D01*
X77709437Y-45958787D01*
X77573347Y-46322775D01*
X77572539Y-46325854D01*
X77572537Y-46325861D01*
X77510518Y-46562262D01*
X77474737Y-46698652D01*
X77414617Y-47082571D01*
X77414446Y-47085737D01*
X77414445Y-47085742D01*
X77397509Y-47398464D01*
X77393602Y-47470599D01*
X76869500Y-47470599D01*
X76869500Y-45078144D01*
X76870757Y-45060390D01*
X76873447Y-45041487D01*
X76874028Y-45037407D01*
X76874168Y-45024000D01*
X76873622Y-45019481D01*
X76872551Y-45010638D01*
X76871908Y-44987260D01*
X76885253Y-44783655D01*
X76887404Y-44767315D01*
X76932783Y-44539177D01*
X76937049Y-44523257D01*
X77011815Y-44303004D01*
X77018122Y-44287776D01*
X77121004Y-44079154D01*
X77129245Y-44064881D01*
X77258472Y-43871479D01*
X77268505Y-43858404D01*
X77348717Y-43766939D01*
X77421876Y-43683517D01*
X77433517Y-43671876D01*
X77608404Y-43518505D01*
X77621479Y-43508472D01*
X77814881Y-43379245D01*
X77829154Y-43371004D01*
X78037776Y-43268122D01*
X78053004Y-43261815D01*
X78167904Y-43222812D01*
X78273260Y-43187048D01*
X78289174Y-43182784D01*
X78429225Y-43154926D01*
X78517315Y-43137404D01*
X78533655Y-43135253D01*
X78733644Y-43122145D01*
X78758331Y-43122953D01*
X78759763Y-43123142D01*
X78759770Y-43123142D01*
X78767296Y-43124133D01*
X78802368Y-43120261D01*
X78816195Y-43119500D01*
X122208847Y-43119500D01*
X122225293Y-43120578D01*
G37*
%TD.AperFunction*%
%TD*%
M02*
